<svg width="54" height="48" viewBox="0 0 54 48" fill="none" xmlns="http://www.w3.org/2000/svg">
<path d="M51.1875 16.6523C49.8698 13.5335 47.9595 10.6998 45.5625 8.30859C43.1712 5.91157 40.3376 4.00128 37.2188 2.68359C33.9785 1.3125 30.5449 0.621094 27 0.621094C23.4551 0.621094 20.0215 1.3125 16.7812 2.68359C13.6624 4.00128 10.8287 5.91157 8.4375 8.30859C6.04048 10.6998 4.13018 13.5335 2.8125 16.6523C1.44141 19.8926 0.75 23.3262 0.75 26.8711C0.75 34.6465 4.16602 41.9707 10.1191 46.9746L10.2188 47.0566C10.5586 47.3379 10.9863 47.4961 11.4258 47.4961H42.5801C43.0195 47.4961 43.4473 47.3379 43.7871 47.0566L43.8867 46.9746C49.834 41.9707 53.25 34.6465 53.25 26.8711C53.25 23.3262 52.5527 19.8926 51.1875 16.6523ZM41.6133 43.043H12.3867C10.1226 41.0015 8.31309 38.5068 7.07553 35.7208C5.83796 32.9348 5.20003 29.9196 5.20312 26.8711C5.20312 21.0469 7.4707 15.5742 11.5898 11.4609C15.709 7.3418 21.1816 5.07422 27 5.07422C32.8242 5.07422 38.2969 7.3418 42.4102 11.4609C46.5293 15.5801 48.7969 21.0527 48.7969 26.8711C48.7969 33.0586 46.1895 38.9121 41.6133 43.043ZM33.5332 18.7559C33.4451 18.6686 33.3261 18.6197 33.2021 18.6197C33.0782 18.6197 32.9592 18.6686 32.8711 18.7559L27.9199 23.707C26.8242 23.4141 25.6113 23.6953 24.75 24.5566C24.4449 24.8611 24.2029 25.2228 24.0378 25.621C23.8726 26.0191 23.7876 26.4459 23.7876 26.877C23.7876 27.308 23.8726 27.7348 24.0378 28.1329C24.2029 28.5311 24.4449 28.8928 24.75 29.1973C25.0545 29.5023 25.4162 29.7444 25.8143 29.9095C26.2125 30.0747 26.6393 30.1597 27.0703 30.1597C27.5014 30.1597 27.9282 30.0747 28.3263 29.9095C28.7245 29.7444 29.0861 29.5023 29.3906 29.1973C29.7987 28.7904 30.0922 28.2831 30.2413 27.7265C30.3905 27.1699 30.3901 26.5837 30.2402 26.0273L35.1914 21.0762C35.373 20.8945 35.373 20.5957 35.1914 20.4141L33.5332 18.7559ZM25.7109 12.8086H28.2891C28.5469 12.8086 28.7578 12.5977 28.7578 12.3398V7.65234C28.7578 7.39453 28.5469 7.18359 28.2891 7.18359H25.7109C25.4531 7.18359 25.2422 7.39453 25.2422 7.65234V12.3398C25.2422 12.5977 25.4531 12.8086 25.7109 12.8086ZM40.9453 25.582V28.1602C40.9453 28.418 41.1562 28.6289 41.4141 28.6289H46.1016C46.3594 28.6289 46.5703 28.418 46.5703 28.1602V25.582C46.5703 25.3242 46.3594 25.1133 46.1016 25.1133H41.4141C41.1562 25.1133 40.9453 25.3242 40.9453 25.582ZM41.6895 14.0273L39.8672 12.2051C39.7791 12.1178 39.6601 12.0689 39.5361 12.0689C39.4122 12.0689 39.2932 12.1178 39.2051 12.2051L35.8887 15.5215C35.8014 15.6096 35.7525 15.7286 35.7525 15.8525C35.7525 15.9765 35.8014 16.0955 35.8887 16.1836L37.7109 18.0059C37.8926 18.1875 38.1914 18.1875 38.373 18.0059L41.6895 14.6895C41.8711 14.5078 41.8711 14.209 41.6895 14.0273ZM14.8184 12.2051C14.7303 12.1178 14.6113 12.0689 14.4873 12.0689C14.3633 12.0689 14.2443 12.1178 14.1562 12.2051L12.334 14.0273C12.2467 14.1154 12.1978 14.2344 12.1978 14.3584C12.1978 14.4824 12.2467 14.6014 12.334 14.6895L15.6504 18.0059C15.832 18.1875 16.1309 18.1875 16.3125 18.0059L18.1348 16.1836C18.3164 16.002 18.3164 15.7031 18.1348 15.5215L14.8184 12.2051ZM12.3516 25.1133H7.66406C7.40625 25.1133 7.19531 25.3242 7.19531 25.582V28.1602C7.19531 28.418 7.40625 28.6289 7.66406 28.6289H12.3516C12.6094 28.6289 12.8203 28.418 12.8203 28.1602V25.582C12.8203 25.3242 12.6094 25.1133 12.3516 25.1133Z" fill="#1D39C4"/>
</svg>
