<svg width="125" height="113" viewBox="0 0 125 113" fill="none" xmlns="http://www.w3.org/2000/svg">
<path d="M116.52 82.5121C110.419 78.9807 102.983 79.9281 97.9728 84.3496L90.3644 79.9425V58.1652C90.3644 55.9114 89.1585 53.8155 87.2062 52.6958L67.6827 41.4555V31.823C74.0278 29.6696 78.5929 23.669 78.5929 16.5918C78.5929 7.70576 71.4008 0.513672 62.5148 0.513672C53.6287 0.513672 46.4366 7.70576 46.4366 16.5918C46.4366 23.669 51.0017 29.6696 57.3468 31.823V41.4555L37.8234 52.6958C35.871 53.8155 34.6652 55.9114 34.6652 58.1652V79.9281L27.0568 84.3353C22.0467 79.9138 14.5962 78.9663 8.50949 82.4977C0.829316 86.9479 -1.78338 96.7671 2.62375 104.447C7.04523 112.127 16.8213 114.769 24.4728 110.333C30.5738 106.802 33.4737 99.8535 32.1673 93.2787L39.1584 89.2161L59.3422 100.844C60.3184 101.404 61.4094 101.691 62.5004 101.691C63.5914 101.691 64.6824 101.404 65.6586 100.844L85.828 89.2305L92.8192 93.2931C91.5128 99.8535 94.427 106.816 100.514 110.347C108.165 114.783 117.956 112.156 122.363 104.462C126.784 96.7671 124.172 86.948 116.52 82.5121ZM19.9077 102.38C19.128 102.832 18.2667 103.125 17.3733 103.242C16.4799 103.359 15.5721 103.299 14.7022 103.064C13.8323 102.829 13.0174 102.425 12.3044 101.874C11.5915 101.323 10.9945 100.636 10.548 99.8535C8.65305 96.5661 9.77277 92.3456 13.0602 90.4507C13.8399 89.9991 14.7012 89.7061 15.5946 89.5888C16.488 89.4714 17.3958 89.5318 18.2657 89.7666C19.1356 90.0015 19.9505 90.406 20.6635 90.957C21.3764 91.508 21.9734 92.1946 22.4199 92.9772C24.3149 96.2646 23.1951 100.485 19.9077 102.38ZM55.6098 16.5918C55.6466 14.7886 56.3887 13.0718 57.677 11.8096C58.9652 10.5473 60.6969 9.8404 62.5004 9.8404C64.3039 9.8404 66.0356 10.5473 67.3238 11.8096C68.6121 13.0718 69.3542 14.7886 69.391 16.5918C69.3542 18.3949 68.6121 20.1118 67.3238 21.374C66.0356 22.6362 64.3039 23.3432 62.5004 23.3432C60.6969 23.3432 58.9652 22.6362 57.677 21.374C56.3887 20.1118 55.6466 18.3949 55.6098 16.5918ZM80.0141 80.6459L62.5004 90.7378L44.9867 80.6459V60.4908L62.5004 50.3989L80.0141 60.4908V80.6459ZM114.453 99.8679C112.558 103.155 108.366 104.289 105.093 102.394C101.82 100.5 100.686 96.279 102.581 92.9916C104.476 89.7042 108.668 88.5701 111.941 90.465C115.228 92.36 116.348 96.5661 114.453 99.8679Z" fill="#1D39C4"/>
</svg>
