<svg width="111" height="105" viewBox="0 0 111 105" fill="none" xmlns="http://www.w3.org/2000/svg">
<path d="M109.477 76.6172H101.725V56.5195H60.3809V43.3125H94.5469C95.8102 43.3125 96.8438 42.2789 96.8438 41.0156V3.11719C96.8438 1.85391 95.8102 0.820312 94.5469 0.820312H16.4531C15.1898 0.820312 14.1562 1.85391 14.1562 3.11719V41.0156C14.1562 42.2789 15.1898 43.3125 16.4531 43.3125H50.6191V56.5195H9.27539V76.6172H1.52344C0.891797 76.6172 0.375 77.134 0.375 77.7656V103.031C0.375 103.663 0.891797 104.18 1.52344 104.18H26.7891C27.4207 104.18 27.9375 103.663 27.9375 103.031V77.7656C27.9375 77.134 27.4207 76.6172 26.7891 76.6172H19.0371V66.2812H50.6191V76.6172H42.8672C42.2355 76.6172 41.7188 77.134 41.7188 77.7656V103.031C41.7188 103.663 42.2355 104.18 42.8672 104.18H68.1328C68.7645 104.18 69.2812 103.663 69.2812 103.031V77.7656C69.2812 77.134 68.7645 76.6172 68.1328 76.6172H60.3809V66.2812H91.9629V76.6172H84.2109C83.5793 76.6172 83.0625 77.134 83.0625 77.7656V103.031C83.0625 103.663 83.5793 104.18 84.2109 104.18H109.477C110.108 104.18 110.625 103.663 110.625 103.031V77.7656C110.625 77.134 110.108 76.6172 109.477 76.6172ZM18.75 94.6046C18.75 94.8199 18.5777 94.9922 18.3624 94.9922H9.93574C9.72041 94.9922 9.54814 94.8199 9.54814 94.6046V86.1779C9.54814 85.9626 9.72041 85.7903 9.93574 85.7903H18.3624C18.5777 85.7903 18.75 85.9626 18.75 86.1779V94.6046ZM60.0938 94.6046C60.0938 94.8199 59.9215 94.9922 59.7062 94.9922H51.2795C51.0642 94.9922 50.8919 94.8199 50.8919 94.6046V86.1779C50.8919 85.9626 51.0642 85.7903 51.2795 85.7903H59.7062C59.9215 85.7903 60.0938 85.9626 60.0938 86.1779V94.6046ZM23.3438 34.125V10.0078H87.6562V34.125H23.3438ZM101.438 94.6046C101.438 94.8199 101.265 94.9922 101.05 94.9922H92.6232C92.4079 94.9922 92.2356 94.8199 92.2356 94.6046V86.1779C92.2356 85.9626 92.4079 85.7903 92.6232 85.7903H101.05C101.265 85.7903 101.438 85.9626 101.438 86.1779V94.6046ZM33.6797 22.0664C33.6797 23.5893 34.2847 25.0499 35.3615 26.1267C36.4384 27.2036 37.899 27.8086 39.4219 27.8086C40.9448 27.8086 42.4053 27.2036 43.4822 26.1267C44.5591 25.0499 45.1641 23.5893 45.1641 22.0664C45.1641 20.5435 44.5591 19.0829 43.4822 18.0061C42.4053 16.9292 40.9448 16.3242 39.4219 16.3242C37.899 16.3242 36.4384 16.9292 35.3615 18.0061C34.2847 19.0829 33.6797 20.5435 33.6797 22.0664Z" fill="#1D39C4"/>
</svg>
