<svg width="48" height="48" viewBox="0 0 48 48" fill="none" xmlns="http://www.w3.org/2000/svg">
<path d="M8.71875 16.6758H12.75V20.707C12.75 20.8125 12.8555 20.8945 12.9844 20.8945H15.7969C15.9258 20.8945 16.0312 20.8125 16.0312 20.7012V16.6758H20.0625C20.168 16.6758 20.25 16.5703 20.25 16.4414V13.6289C20.25 13.5 20.168 13.3945 20.0566 13.3945H16.0312V9.36328C16.0312 9.25781 15.9258 9.17578 15.7969 9.17578H12.9844C12.8555 9.17578 12.75 9.25781 12.75 9.36328V13.3945H8.71875C8.61328 13.3945 8.53125 13.5 8.53125 13.6289V16.4414C8.53125 16.5703 8.61328 16.6758 8.71875 16.6758ZM27.9375 16.6758H39.2812C39.3867 16.6758 39.4688 16.5703 39.4688 16.4414V13.6289C39.4688 13.5 39.3867 13.3945 39.2754 13.3945H27.9375C27.832 13.3945 27.75 13.5 27.75 13.6289V16.4414C27.75 16.5703 27.832 16.6758 27.9375 16.6758ZM27.9375 32.2031H39.2812C39.3867 32.2031 39.4688 32.0977 39.4688 31.9688V29.1562C39.4688 29.0273 39.3867 28.9219 39.2754 28.9219H27.9375C27.832 28.9219 27.75 29.0273 27.75 29.1562V31.9688C27.75 32.0977 27.832 32.2031 27.9375 32.2031ZM27.9375 38.2969H39.2812C39.3867 38.2969 39.4688 38.1914 39.4688 38.0625V35.25C39.4688 35.1211 39.3867 35.0156 39.2754 35.0156H27.9375C27.832 35.0156 27.75 35.1211 27.75 35.25V38.0625C27.75 38.1914 27.832 38.2969 27.9375 38.2969ZM16.4707 33.5508L20.0566 29.1621C20.3086 28.8574 20.0977 28.3945 19.7109 28.3945H16.7344C16.5996 28.3945 16.4707 28.4531 16.3887 28.5645L14.3965 31.002L12.4043 28.5645C12.3624 28.5128 12.3098 28.4709 12.2501 28.4416C12.1904 28.4122 12.1251 28.3962 12.0586 28.3945H9.07617C8.68945 28.3945 8.47852 28.8574 8.73047 29.1621L12.3164 33.5508L8.64258 38.0508C8.38477 38.3555 8.5957 38.8184 8.98242 38.8184H11.959C12.0938 38.8184 12.2227 38.7598 12.3047 38.6484L14.3848 36.0996L16.4648 38.6484C16.5527 38.7539 16.6816 38.8184 16.8105 38.8184H19.7871C20.1738 38.8184 20.3848 38.3555 20.1328 38.0508L16.4707 33.5508ZM45.5625 0.5625H2.4375C1.40039 0.5625 0.5625 1.40039 0.5625 2.4375V45.5625C0.5625 46.5996 1.40039 47.4375 2.4375 47.4375H45.5625C46.5996 47.4375 47.4375 46.5996 47.4375 45.5625V2.4375C47.4375 1.40039 46.5996 0.5625 45.5625 0.5625ZM43.4531 43.4531H4.54688V4.54688H43.4531V43.4531Z" fill="#1D39C4"/>
</svg>
