<svg width="129" height="129" viewBox="0 0 129 129" fill="none" xmlns="http://www.w3.org/2000/svg">
<path d="M113.653 105.973C113.682 105.93 113.725 105.887 113.754 105.844C123.156 94.6608 128.812 80.2479 128.812 64.5C128.812 48.7521 123.156 34.3392 113.768 23.1562C113.739 23.1132 113.696 23.0845 113.667 23.0414C113.51 22.8548 113.366 22.6825 113.208 22.5103C113.151 22.4385 113.093 22.3811 113.036 22.3093L112.447 21.6346L112.433 21.6202C112.218 21.3762 111.988 21.1321 111.773 20.8881L111.758 20.8737C111.299 20.3856 110.839 19.8976 110.366 19.4238L110.351 19.4095L109.662 18.7204L109.619 18.6773C109.404 18.462 109.189 18.261 108.973 18.0601C108.901 17.9883 108.83 17.9165 108.744 17.8447C108.6 17.7012 108.456 17.572 108.313 17.4428C108.27 17.3997 108.212 17.3566 108.169 17.2992C96.7137 6.67617 81.3677 0.1875 64.5 0.1875C47.6323 0.1875 32.2863 6.67617 20.8163 17.2992C20.7732 17.3423 20.7158 17.3854 20.6728 17.4428C20.5292 17.572 20.3856 17.7155 20.2421 17.8591C20.1703 17.9309 20.0985 18.0026 20.0124 18.0744C19.7971 18.2754 19.5817 18.4907 19.3664 18.6917L19.3233 18.7348L18.6343 19.4238L18.6199 19.4382C18.1462 19.9119 17.6868 20.4 17.2274 20.8881L17.2131 20.9024C16.9834 21.1465 16.7681 21.3905 16.5527 21.6346L16.5384 21.6489C16.3374 21.8643 16.1364 22.0939 15.9498 22.3236C15.8924 22.3954 15.835 22.4528 15.7775 22.5246C15.6196 22.6969 15.4761 22.8835 15.3182 23.0558C15.2895 23.0988 15.2464 23.1275 15.2177 23.1706C5.84355 34.3392 0.1875 48.7521 0.1875 64.5C0.1875 80.2479 5.84355 94.6608 15.232 105.844C15.2607 105.887 15.3038 105.93 15.3325 105.973L15.7775 106.504C15.835 106.576 15.8924 106.633 15.9498 106.705L16.5384 107.38C16.5384 107.394 16.5527 107.394 16.5527 107.409C16.7681 107.653 16.9834 107.897 17.2131 108.126L17.2274 108.141C17.6868 108.629 18.1462 109.117 18.6056 109.591L18.6199 109.605C18.8496 109.835 19.0649 110.064 19.2946 110.28L19.3377 110.323C19.8114 110.796 20.2995 111.256 20.7876 111.701C32.2863 122.324 47.6323 128.812 64.5 128.812C81.3677 128.812 96.7137 122.324 108.184 111.701C108.673 111.253 109.151 110.793 109.619 110.323L109.662 110.28C109.892 110.05 110.122 109.835 110.337 109.605L110.351 109.591C110.825 109.117 111.284 108.629 111.729 108.141L111.744 108.126C111.959 107.882 112.189 107.653 112.404 107.409C112.404 107.394 112.419 107.394 112.419 107.38C112.62 107.164 112.821 106.935 113.007 106.705C113.065 106.633 113.122 106.576 113.179 106.504C113.342 106.331 113.5 106.154 113.653 105.973ZM114.242 85.5021C112.261 90.1819 109.648 94.5173 106.461 98.4507C102.872 95.3488 98.9477 92.6572 94.7613 90.426C96.4266 83.6933 97.4602 76.3002 97.7329 68.5195H118.333C117.902 74.3909 116.524 80.09 114.242 85.5021ZM118.333 60.4805H97.7329C97.4602 52.6998 96.4266 45.3067 94.7613 38.574C98.9675 36.3346 102.887 33.6357 106.461 30.5493C113.389 39.0761 117.532 49.5235 118.333 60.4805ZM85.5021 14.7583C91.2012 17.17 96.3835 20.5005 100.949 24.6923C98.2966 26.9503 95.4422 28.959 92.4214 30.6929C90.1676 24.2329 87.2821 18.6199 83.923 14.1267C84.4541 14.3276 84.9853 14.543 85.5021 14.7583ZM72.496 115.333C71.1753 116.366 69.8546 117.156 68.5195 117.687V91.0576C74.2157 91.455 79.8172 92.7235 85.1288 94.8187C83.9373 98.3502 82.5592 101.609 80.9657 104.552C78.4679 109.203 75.5394 112.921 72.496 115.333ZM80.9657 24.4482C82.5448 27.4055 83.9373 30.6642 85.1288 34.1812C79.8172 36.2765 74.2157 37.545 68.5195 37.9424V11.3273C69.8402 11.8585 71.1753 12.6337 72.496 13.6816C75.5394 16.079 78.4679 19.7971 80.9657 24.4482ZM68.5195 83.0042V68.5195H89.6938C89.4642 74.8646 88.6746 81.0231 87.3539 86.8658L87.3108 87.0381C81.2863 84.7535 74.9509 83.3935 68.5195 83.0042ZM68.5195 60.4805V45.9958C75.0943 45.5938 81.4107 44.2014 87.3108 41.9619L87.3539 42.1342C88.6746 47.9769 89.4642 54.121 89.6938 60.4805H68.5195ZM60.4805 68.5195V83.0042C53.9057 83.4062 47.5893 84.7986 41.6892 87.0381L41.6461 86.8658C40.3254 81.0231 39.5358 74.879 39.3062 68.5195H60.4805ZM39.3062 60.4805C39.5358 54.1354 40.3254 47.9769 41.6461 42.1342L41.6892 41.9619C47.5893 44.2014 53.8913 45.5938 60.4805 45.9958V60.4805H39.3062ZM60.4805 91.0576V117.673C59.1598 117.142 57.8247 116.366 56.504 115.318C53.4606 112.921 50.5178 109.189 48.0199 104.537C46.4408 101.58 45.0483 98.3215 43.8568 94.8044C49.1971 92.7085 54.7526 91.4596 60.4805 91.0576ZM60.4805 37.9424C54.7843 37.545 49.1828 36.2765 43.8712 34.1812C45.0627 30.6498 46.4408 27.3911 48.0343 24.4482C50.5321 19.7971 53.4606 16.0646 56.5184 13.6673C57.8391 12.6337 59.1598 11.8441 60.4948 11.313V37.9424H60.4805ZM43.498 14.7583C44.0291 14.543 44.5459 14.3276 45.0771 14.1267C41.7179 18.6199 38.8324 24.2329 36.5786 30.6929C33.564 28.9702 30.7072 26.9604 28.0515 24.6923C32.6165 20.5005 37.7988 17.17 43.498 14.7583ZM14.7583 43.498C16.7394 38.8181 19.3521 34.4827 22.539 30.5493C26.1135 33.6357 30.0325 36.3346 34.2387 38.574C32.5734 45.3067 31.5398 52.6998 31.2671 60.4805H10.667C11.0977 54.6091 12.4758 48.91 14.7583 43.498ZM10.667 68.5195H31.2671C31.5398 76.3002 32.5734 83.6933 34.2387 90.426C30.0523 92.6572 26.1281 95.3488 22.539 98.4507C15.6114 89.9239 11.4676 79.4765 10.667 68.5195ZM43.498 114.242C37.7988 111.83 32.6165 108.5 28.0515 104.308C30.7072 102.04 33.564 100.044 36.5786 98.3071C38.8324 104.767 41.7179 110.38 45.0771 114.873C44.5459 114.672 44.0147 114.457 43.498 114.242ZM85.5021 114.242C84.9709 114.457 84.4541 114.672 83.923 114.873C87.2821 110.38 90.1676 104.767 92.4214 98.3071C95.436 100.03 98.2928 102.04 100.949 104.308C96.4088 108.482 91.1835 111.843 85.5021 114.242Z" fill="#1D39C4"/>
</svg>
