<svg width="46" height="52" viewBox="0 0 46 52" fill="none" xmlns="http://www.w3.org/2000/svg">
<path d="M30.7754 35.4453C30.732 35.3849 30.6748 35.3359 30.6085 35.3022C30.5423 35.2686 30.4689 35.2513 30.3945 35.252H27.8047C27.4238 35.252 27.2012 35.6855 27.4238 35.9961L31.748 41.9785C31.9355 42.2363 32.3164 42.2363 32.5039 41.9785L39.1953 32.7207C39.418 32.4102 39.1953 31.9766 38.8145 31.9766H36.2188C36.0664 31.9766 35.9258 32.0469 35.8379 32.1699L32.1172 37.3145L30.7754 35.4453ZM33.3125 14.1641V11.3516C33.3125 11.0938 33.1016 10.8828 32.8438 10.8828H10.3438C10.0859 10.8828 9.875 11.0938 9.875 11.3516V14.1641C9.875 14.4219 10.0859 14.6328 10.3438 14.6328H32.8438C33.1016 14.6328 33.3125 14.4219 33.3125 14.1641ZM10.3438 19.3203C10.0859 19.3203 9.875 19.5312 9.875 19.7891V22.6016C9.875 22.8594 10.0859 23.0703 10.3438 23.0703H21.125C21.3828 23.0703 21.5938 22.8594 21.5938 22.6016V19.7891C21.5938 19.5312 21.3828 19.3203 21.125 19.3203H10.3438ZM21.125 46.1562H5.1875V4.90625H38V22.25C38 22.5078 38.2109 22.7188 38.4688 22.7188H41.75C42.0078 22.7188 42.2188 22.5078 42.2188 22.25V2.5625C42.2188 1.52539 41.3809 0.6875 40.3438 0.6875H2.84375C1.80664 0.6875 0.96875 1.52539 0.96875 2.5625V48.5C0.96875 49.5371 1.80664 50.375 2.84375 50.375H21.125C21.3828 50.375 21.5938 50.1641 21.5938 49.9062V46.625C21.5938 46.3672 21.3828 46.1562 21.125 46.1562ZM44.7148 27.3594L33.4648 23.4512C33.4121 23.4336 33.3652 23.4277 33.3125 23.4277C33.2598 23.4277 33.207 23.4336 33.1602 23.4512L21.9102 27.3594C21.8182 27.3906 21.7384 27.4497 21.6816 27.5285C21.6249 27.6073 21.5942 27.7018 21.5938 27.7988V42.5117C21.5938 42.6582 21.6582 42.793 21.7754 42.8809L33.0254 51.6816C33.1074 51.7461 33.2129 51.7812 33.3125 51.7812C33.4121 51.7812 33.5176 51.7461 33.5996 51.6816L44.8496 42.8809C44.9609 42.793 45.0312 42.6582 45.0312 42.5117V27.7988C45.0312 27.5996 44.9023 27.4238 44.7148 27.3594ZM41.3984 40.9824L33.3125 47.3047L25.2266 40.9824V30.043L33.3125 27.2305L41.3984 30.043V40.9824Z" fill="#1D39C4"/>
</svg>
