<svg width="70" height="71" viewBox="0 0 70 71" fill="none" xmlns="http://www.w3.org/2000/svg">
<path d="M35 0.00183105C15.6719 0.00183105 0 15.6737 0 35.0018C0 54.33 15.6719 70.0018 35 70.0018C54.3281 70.0018 70 54.33 70 35.0018C70 15.6737 54.3281 0.00183105 35 0.00183105ZM35 64.0643C18.9531 64.0643 5.9375 51.0487 5.9375 35.0018C5.9375 18.955 18.9531 5.93933 35 5.93933C51.0469 5.93933 64.0625 18.955 64.0625 35.0018C64.0625 51.0487 51.0469 64.0643 35 64.0643ZM38.7266 33.1893L36.7422 32.7284V22.2362C39.7109 22.6425 41.5469 24.5018 41.8594 26.7831C41.8984 27.0956 42.1641 27.3221 42.4766 27.3221H45.9844C46.3516 27.3221 46.6406 27.0018 46.6094 26.6346C46.1328 21.7675 42.125 18.6425 36.7734 18.1034V15.5487C36.7734 15.205 36.4922 14.9237 36.1484 14.9237H33.9531C33.6094 14.9237 33.3281 15.205 33.3281 15.5487V18.1268C27.7969 18.6659 23.4688 21.7206 23.4688 27.4237C23.4688 32.705 27.3594 35.2518 31.4453 36.2284L33.375 36.7206V47.869C29.9219 47.4081 27.9844 45.5643 27.5859 43.08C27.5391 42.7831 27.2734 42.5643 26.9688 42.5643H23.3594C22.9922 42.5643 22.7031 42.8768 22.7344 43.244C23.0859 47.5409 26.3438 51.494 33.2969 52.0018V54.455C33.2969 54.7987 33.5781 55.08 33.9219 55.08H36.1406C36.4844 55.08 36.7656 54.7987 36.7656 54.4471L36.75 51.9706C42.8672 51.4315 47.2422 48.1581 47.2422 42.2831C47.2344 36.8612 43.7891 34.4393 38.7266 33.1893ZM33.3672 31.9237C32.9297 31.7987 32.5625 31.6815 32.1953 31.5331C29.5547 30.58 28.3281 29.0409 28.3281 27.0565C28.3281 24.2206 30.4766 22.6034 33.3672 22.2362V31.9237ZM36.7422 47.8925V37.4471C36.9844 37.5175 37.2031 37.5721 37.4297 37.619C41.125 38.744 42.3672 40.3065 42.3672 42.705C42.3672 45.7596 40.0703 47.5956 36.7422 47.8925Z" fill="#1D39C4"/>
</svg>
