<svg width="140" height="120" viewBox="0 0 140 120" fill="none" xmlns="http://www.w3.org/2000/svg">
<circle cx="80" cy="60" r="60" transform="rotate(-180 80 60)" fill="url(#paint0_linear)"/>
<path d="M64.0022 84.1303C60.802 80.7119 54.2708 73.7007 53.7471 73.0024L49.165 79.33L58.3291 88.4941L64.0022 84.1303Z" fill="white"/>
<path d="M88.4378 90.241L91.2743 74.0947L75.5645 82.3861L78.8373 94.8231L88.4378 90.241Z" fill="white"/>
<path d="M46.414 48.6616L62.5306 45.6644L54.3964 61.4561L41.928 58.3072L46.414 48.6616Z" fill="white"/>
<path d="M89.0913 21.0735C72.1602 30.6739 56.4364 56.6389 50.6909 68.4213L68.8002 86.3132C94.9822 74.7489 115.055 51.4023 118.11 45.0747C120.553 40.0126 121.019 24.0554 120.946 16.7096C106.284 14.6149 93.6004 18.7461 89.0913 21.0735Z" fill="url(#paint1_linear)"/>
<path d="M101.989 42.8494C101.293 46.794 97.499 49.4222 93.5139 48.7195C89.5288 48.0168 86.862 44.2493 87.5575 40.3046C88.2531 36.3599 92.0475 33.7318 96.0326 34.4345C100.018 35.1372 102.685 38.9047 101.989 42.8494Z" fill="#ECF0FE"/>
<path d="M94.7805 30.2388C97.7234 30.2388 100.491 31.3844 102.573 33.4666C106.869 37.7632 106.869 44.7553 102.573 49.0519C100.491 51.133 97.7244 52.2786 94.7816 52.2786C91.8376 52.2786 89.0708 51.132 86.9898 49.0509C82.6933 44.7542 82.6933 37.7632 86.9898 33.4666C89.0697 31.3855 91.8376 30.2388 94.7805 30.2388ZM90.0052 46.0343C91.2809 47.31 92.9768 48.0119 94.7805 48.0119C96.5842 48.0119 98.2802 47.31 99.5559 46.0343C102.188 43.4006 102.188 39.1168 99.5559 36.4832C98.2802 35.2074 96.5842 34.5055 94.7805 34.5055C92.9768 34.5055 91.2809 35.2074 90.0052 36.4832C87.3727 39.1168 87.3727 43.4006 90.0052 46.0343Z" fill="#1D39C4"/>
<path d="M48.3127 75.2672L50.573 73.0069L50.0407 72.4746C48.2125 70.6463 47.8253 67.8036 49.0989 65.5593C49.5746 64.7209 50.1783 63.6755 50.8876 62.4766L41.3518 60.7912C40.7087 60.6782 40.1529 60.276 39.8447 59.7011C39.5353 59.1261 39.5065 58.4413 39.7657 57.8429L43.0457 50.2705C44.1283 47.7723 46.4781 46.0005 49.1778 45.6475L63.1689 43.8181C70.1842 34.2777 78.8774 24.3404 87.6878 19.0454C94.5442 14.9258 109.556 13.4954 117.895 13.0101C119.611 12.9087 121.267 13.5775 122.428 14.8096C123.529 15.9754 124.084 17.5008 123.991 19.1051C123.505 27.4445 122.075 42.457 117.956 49.3137C112.662 58.1245 102.724 66.8191 93.1842 73.8336L91.3549 87.8253C91.0019 90.5251 89.2302 92.875 86.7321 93.9577L79.16 97.2388C78.8891 97.3562 78.6 97.4148 78.312 97.4148C77.9632 97.4148 77.6166 97.3295 77.3019 97.1599C76.727 96.8506 76.3249 96.2948 76.2118 95.6527L74.5265 86.1165C73.3276 86.8248 72.2812 87.4296 71.4429 87.9053C70.5778 88.396 69.5976 88.6552 68.6056 88.6552C67.0675 88.6552 65.619 88.0547 64.5278 86.9634L63.9956 86.4312L61.7343 88.6925C60.6303 89.7966 59.1626 90.4035 57.6011 90.4035C56.0406 90.4035 54.5729 89.7955 53.4689 88.6915L48.3106 83.534C46.0344 81.2535 46.0344 77.5457 48.3127 75.2672ZM49.7303 49.8769C48.5101 50.0369 47.4488 50.8369 46.9602 51.9655L44.7534 57.0589L53.2534 58.5618C55.0699 55.6199 57.2768 52.1895 59.7845 48.5627L49.7303 49.8769ZM79.9429 92.2499L85.0361 90.043C86.1647 89.5544 86.9646 88.4931 87.1246 87.2728L88.4387 77.2182C84.8121 79.726 81.3829 81.9319 78.44 83.7495L79.9429 92.2499ZM68.6067 84.3874C68.8616 84.3874 69.1144 84.3202 69.3373 84.1933C77.415 79.6065 104.529 63.3758 114.298 47.1152C118.083 40.8154 119.359 25.2546 119.732 18.8566C119.756 18.4374 119.612 18.0395 119.327 17.7365C119.042 17.4357 118.659 17.2683 118.155 17.2683C118.152 17.2683 118.148 17.2683 118.144 17.2683C111.746 17.6416 96.1858 18.9163 89.8862 22.702C73.6263 32.4718 57.3973 59.5869 52.8097 67.665C52.4801 68.2442 52.5836 68.9812 53.0582 69.457L55.0966 71.4954C55.0976 71.4965 55.0987 71.4965 55.0998 71.4976L65.5059 81.9041C65.507 81.9052 65.507 81.9063 65.5081 81.9073L67.5464 83.9458C67.8312 84.2306 68.2077 84.3874 68.6067 84.3874ZM51.3292 80.5164L56.4864 85.6738C57.0827 86.2701 58.1226 86.2701 58.7178 85.6738L60.978 83.4124L53.5894 76.0235L51.3292 78.2838C50.7148 78.8993 50.7148 79.9009 51.3292 80.5164Z" fill="#1D39C4"/>
<path d="M41.247 90.7493L30.3882 100.895C29.6555 101.586 29.6289 102.736 30.3287 103.465C31.0286 104.193 32.1899 104.224 32.9226 103.534L43.7814 93.3879C44.5141 92.6974 44.5408 91.547 43.8409 90.8184C43.141 90.0898 41.9797 90.0588 41.247 90.7493Z" fill="#1D39C4"/>
<path d="M38.9877 83.6356L31.8125 90.3143C31.0798 91.0047 31.0532 92.1551 31.753 92.8838C32.4529 93.6124 33.6142 93.6433 34.3469 92.9529L41.5221 86.2742C42.2548 85.5837 42.2814 84.4333 41.5816 83.7047C40.8817 82.9761 39.7204 82.9451 38.9877 83.6356Z" fill="#1D39C4"/>
<path d="M48.6851 93.678L41.4317 100.435C40.699 101.125 40.6723 102.276 41.3722 103.005C42.072 103.733 43.2334 103.764 43.9661 103.074L51.2195 96.3166C51.9522 95.6261 51.9788 94.4757 51.279 93.7471C50.5791 93.0185 49.4178 92.9875 48.6851 93.678Z" fill="#1D39C4"/>
<defs>
<linearGradient id="paint0_linear" x1="106" y1="13" x2="46" y2="103" gradientUnits="userSpaceOnUse">
<stop stop-color="#F0F5FF"/>
<stop offset="1" stop-color="#F0F5FF" stop-opacity="0.4"/>
</linearGradient>
<linearGradient id="paint1_linear" x1="111.346" y1="20.8553" x2="60.9433" y2="73.0013" gradientUnits="userSpaceOnUse">
<stop stop-color="white"/>
<stop offset="1" stop-color="white"/>
</linearGradient>
</defs>
</svg>
