<svg width="131" height="19" viewBox="0 0 131 19" fill="none" xmlns="http://www.w3.org/2000/svg">
<g opacity="0.8">
<path d="M10.9235 9.19336C10.8324 9.53554 10.8628 10.1936 10.8628 10.5884C11.682 10.6147 12.9563 10.3778 13.4417 10.8253C12.8956 11.3254 11.8033 11.3254 10.8021 11.4044C10.7718 11.9045 10.6807 12.3782 10.6504 12.8783C12.2584 13.1679 14.1092 11.7465 13.6541 10.2989C13.381 9.53554 12.0157 9.32497 10.9235 9.19336Z" fill="black"/>
<path d="M26.1237 3.24473C26.5182 3.00784 26.1844 2.84991 26.4878 2.53405C26.2147 1.66545 25.0011 0.507308 23.8179 0.454666C23.6662 0.454666 23.4234 0.53363 23.2717 0.53363C22.7256 0.559951 22.0581 0.402023 21.3299 0.375702C20.0556 0.375702 19.2668 0.217773 18.1138 0.270416C17.325 0.323059 17.0216 0.244095 15.9293 0.323059C15.5349 0.34938 14.9281 0.296737 14.5033 0.323059C13.0773 0.34938 12.0458 0.559951 10.5894 0.480987C8.61728 0.375701 7.2823 0.375702 5.49222 0.217773C4.88541 0.665236 4.21792 0.428344 3.55043 0.34938C3.33804 0.375701 3.42907 0.559951 3.36838 0.612594C3.36838 0.507308 3.09532 0.586272 3.0043 0.559951C2.76158 0.823164 2.39749 0.954771 2.06374 1.16534C1.4266 1.71809 0.880467 1.95498 0.789445 2.74462C0.698424 3.61323 0.728765 4.58712 0.637743 5.48204C0.516381 6.90339 0.698424 8.00889 0.698424 9.16703C0.698424 10.5621 0.789445 11.5623 0.39502 12.852C0.819786 13.3784 1.48728 13.8786 1.82102 14.4839C1.09285 14.2207 1.39625 14.4576 1.36591 14.5103C1.48728 14.6155 1.66932 14.8524 1.4266 14.6945C1.36591 14.6945 1.27489 14.6419 1.06251 14.6419C1.5783 14.8524 2.45817 15.6421 3.12566 15.6947C3.58077 15.721 3.45941 15.5631 3.97519 15.5105C4.4303 15.5368 4.70336 15.5368 4.97643 15.721C5.12813 15.8527 6.15971 16.1948 6.70583 16.616C6.88788 16.7476 9.5275 18.5901 9.8309 18.8533C9.8309 18.8006 9.40614 18.2216 9.49716 17.9847C9.70954 18.1163 9.22409 17.5635 9.22409 17.4583C9.34546 17.4583 9.5275 17.8004 9.6792 17.8004C9.55784 17.4846 9.34546 16.3791 9.28477 16.2738C9.10273 15.9053 9.16341 15.5368 9.07239 15.5894C9.22409 15.4842 9.77022 15.4842 10.2253 15.4842C14.0179 15.4578 16.6272 15.5105 19.4185 15.4052C20.4501 15.3789 20.7231 15.2473 21.5423 15.4578C21.8154 15.5368 22.5739 15.4315 22.847 15.4052C23.5448 15.3262 23.6055 15.142 24.0606 15.4315C24.4247 15.6684 24.6977 15.4842 24.8798 15.721C25.4259 15.7474 25.2742 15.1157 25.7596 15.142C25.8507 14.8524 25.9417 15.0104 26.0024 14.7472C26.1844 13.5364 26.063 13.3521 26.0934 12.3519C26.1541 10.1936 26.7305 6.40329 26.1237 3.24473ZM13.3201 13.1152C11.8941 14.0102 8.98137 13.9575 7.61605 13.0889C7.03958 12.7204 6.49345 11.9834 6.58447 11.0885C6.70583 10.2462 7.64639 9.27232 8.64762 9.40392C8.49592 9.53553 9.01171 9.43024 9.22409 9.61449C8.79933 9.69346 8.67797 9.98299 8.95103 10.062C8.52626 10.3778 7.88911 10.5884 7.79809 11.1938C7.64639 12.1677 8.64762 12.6678 9.64886 12.8783C9.77022 12.5362 9.6792 11.9834 9.70954 11.536C9.13307 11.6939 8.61728 11.5096 8.31388 11.2464C8.61728 10.9042 9.13307 10.7463 9.77022 10.6937C9.73988 10.2199 9.86124 9.64081 9.8309 9.16703C9.70954 9.0091 9.3758 9.08807 9.13307 9.08807C9.25443 8.95646 9.61852 8.87749 9.8309 8.82485C9.77022 7.90361 9.92192 6.82443 9.61852 6.1664C9.55784 6.21904 9.22409 6.06111 9.22409 6.1664C9.19375 6.56122 9.61852 7.37718 9.34546 7.64039C9.04205 7.90361 8.37456 8.06153 7.73741 8.2721C7.10026 8.48267 6.52379 8.98278 6.06869 8.21946C6.85754 7.82464 7.73741 7.27189 8.37456 7.035C8.49592 6.79811 8.2532 6.48225 8.28354 6.1664C7.61605 6.1664 6.9789 6.19272 6.76652 5.63997C7.03958 5.61365 6.9789 5.56101 7.03958 5.35044H8.28354C8.43524 5.16619 8.43524 4.6924 8.34422 4.45551C7.88911 4.16597 7.25196 4.00805 7.00924 3.50794C7.37332 3.56058 7.16094 3.40266 7.2823 3.27105C8.13184 3.53426 8.98137 3.77115 9.5275 4.29758C9.46682 4.45551 9.19375 4.98194 9.22409 5.24515C9.25443 5.40308 9.55784 5.29779 9.64886 5.37676C9.86124 4.56079 9.5275 3.56058 9.40614 2.7183C9.61852 2.61302 9.80056 2.42877 9.95226 2.27084C11.4086 2.27084 12.6222 2.19187 14.0179 2.08659C14.1999 2.32348 13.5628 2.61302 14.0482 2.77094C12.8043 2.77094 11.803 3.06048 10.6804 3.13944C10.7715 3.87644 10.7715 4.53447 10.8018 5.35044C10.9535 5.45572 11.0749 5.32411 11.3176 5.37676C11.2872 4.87665 11.3176 4.56079 11.2872 4.08701C11.3176 3.90276 11.6513 3.98173 11.5603 3.63955C12.3795 3.63955 12.7132 3.32369 13.3807 3.0868C13.5628 3.27105 13.7145 3.29737 13.9572 3.48162C13.8358 3.71851 13.6538 3.77115 13.7448 3.98173C13.3504 4.13965 12.9256 4.3239 12.4705 4.42919C12.5009 4.79769 12.2278 5.16619 12.2581 5.37676C12.7436 5.16619 13.3807 5.48204 13.7448 5.77158C13.7448 6.06111 13.4111 6.00847 13.5931 6.32433C13.138 6.32433 12.8346 5.98215 12.3795 6.14008C12.5312 7.035 12.4402 7.37718 13.6841 8.24578C13.5021 8.24578 13.1987 8.11418 13.229 8.2721C12.3795 7.95625 11.803 7.56143 11.3479 6.87707C11.5603 6.69282 11.3783 6.40329 11.4389 6.14008C11.2872 6.08743 11.1355 6.1664 10.8321 6.11375C10.7108 6.92972 10.9535 7.85096 10.8928 8.77221C12.5615 8.71957 14.0179 9.19335 14.382 10.2988C14.7764 11.378 14.1392 12.5888 13.3201 13.1152ZM21.603 6.1664C21.512 6.45593 21.512 6.74547 21.3906 7.00868C21.3906 7.16661 21.5423 7.21925 21.603 7.29821C21.5727 7.53511 21.2086 7.53511 21.4513 7.74568C21.3299 7.82464 21.1479 7.90361 21.0265 7.98257C20.6321 9.21967 19.4792 9.61449 19.6309 11.2464C19.6612 11.6676 19.8433 12.0624 19.995 12.4309C20.2377 13.0099 20.5411 12.9047 20.3287 13.6153C18.5386 13.1679 17.8104 10.1146 19.3578 8.74589C19.3578 8.71957 19.4185 8.69325 19.4185 8.6406C18.8117 8.79853 18.1442 9.61449 17.5374 9.03542C17.9925 7.66671 20.2984 7.98257 20.4501 6.32433C19.5702 6.42961 18.7813 6.98236 17.8408 7.24557C17.7498 7.37718 17.5374 7.4035 17.7194 7.58775C17.5981 7.66671 17.416 7.74568 17.2947 7.82464C16.9306 9.06174 15.7473 9.45656 15.899 11.0885C15.9293 11.5096 16.1114 11.9044 16.2631 12.2729C16.5058 12.852 16.7789 12.852 16.5665 13.5627C14.7764 13.1152 14.0786 9.95667 15.6259 8.58796C15.6259 8.53532 15.6866 8.53532 15.6866 8.48267C15.0798 8.6406 14.4123 9.45656 13.8055 8.8775C14.2606 7.50879 16.5665 7.82464 16.7182 6.1664C15.7776 6.298 14.8978 6.92972 13.8662 7.16661C13.4111 6.87707 14.0786 6.298 14.4123 6.08743C15.0798 5.66629 16.3541 5.29779 16.9306 5.0609C17.0519 4.85033 16.8699 4.63976 16.9306 4.3239C15.8687 4.42919 15.2922 4.95562 14.564 4.87665C14.5033 4.03437 15.7776 3.85012 16.3238 3.40266C15.99 2.74462 15.0495 2.7183 14.5033 2.27084C14.655 2.11291 14.7764 2.19187 14.7764 1.9813C16.1721 2.2182 17.6587 3.16576 17.9925 4.45551C18.0532 4.6924 18.1442 5.13986 18.1442 5.40308C18.1442 5.61365 17.9318 5.85054 17.8711 6.08743C17.8408 6.24536 17.8104 6.40329 17.7801 6.56122C17.9015 6.45593 18.0228 6.35065 18.1138 6.298C18.7813 5.87686 20.0556 5.50836 20.6321 5.27147C20.7535 5.0609 20.5714 4.85033 20.6321 4.53447C19.5702 4.63976 18.9937 5.16619 18.2656 5.08722C18.2049 4.24494 19.4792 4.06069 20.0253 3.61323C19.7219 2.95519 18.2959 2.92887 17.7498 2.48141C17.9015 2.32348 18.4779 2.40244 18.4476 2.19187C19.8433 2.40244 21.3299 3.37633 21.6637 4.66608C21.7244 4.90297 21.8154 5.35044 21.8154 5.61365C21.8761 5.66629 21.6637 5.90318 21.603 6.1664Z" fill="black"/>
<path d="M30.1802 0.718262H43.1659V3.87682H35.4594V6.45631H42.0433V9.43062H35.4594V15.4845H30.1802V0.718262Z" fill="black"/>
<path d="M54.21 13.0366H48.2329L47.4137 15.4582H42.0435L48.4453 0.718262H54.1796L60.5815 15.4582H55.0899L54.21 13.0366ZM53.1177 9.85177L51.2366 4.56118L49.3858 9.85177H53.1177Z" fill="black"/>
<path d="M62.2803 0.718262H67.1954L73.5973 8.87788V0.718262H78.5428V15.4582H73.5973L67.2258 7.35124V15.4845H62.2803V0.718262Z" fill="black"/>
<path d="M82.0322 0.718262H95.0179V3.87682H87.3115V6.45631H93.8953V9.43062H87.3115V15.4845H82.0322V0.718262Z" fill="black"/>
<path d="M106.093 13.0366H100.116L99.2965 15.4582H93.9263L100.328 0.718262H106.062L112.434 15.4845H106.942L106.093 13.0366ZM105.001 9.85176L103.119 4.56118L101.269 9.85176H105.001Z" fill="black"/>
<path d="M114.132 0.718262H119.047L125.449 8.87788V0.718262H130.395V15.4582H125.449L119.078 7.35124V15.4845H114.132V0.718262Z" fill="black"/>
</g>
</svg>
