<svg width="72" height="38" viewBox="0 0 72 38" fill="none" xmlns="http://www.w3.org/2000/svg">
<path d="M1.09312 27.6H3.46912V34.116H7.47712V36H1.09312V27.6ZM13.7244 36.168C12.8364 36.168 12.0364 35.98 11.3244 35.604C10.6204 35.228 10.0644 34.708 9.65644 34.044C9.25644 33.38 9.05644 32.632 9.05644 31.8C9.05644 30.968 9.25644 30.22 9.65644 29.556C10.0644 28.892 10.6204 28.372 11.3244 27.996C12.0364 27.62 12.8364 27.432 13.7244 27.432C14.6124 27.432 15.4084 27.62 16.1124 27.996C16.8244 28.372 17.3804 28.892 17.7804 29.556C18.1884 30.22 18.3924 30.968 18.3924 31.8C18.3924 32.632 18.1884 33.38 17.7804 34.044C17.3804 34.708 16.8244 35.228 16.1124 35.604C15.4084 35.98 14.6124 36.168 13.7244 36.168ZM13.7244 34.2C14.1484 34.2 14.5324 34.1 14.8764 33.9C15.2204 33.7 15.4924 33.42 15.6924 33.06C15.8924 32.692 15.9924 32.272 15.9924 31.8C15.9924 31.328 15.8924 30.912 15.6924 30.552C15.4924 30.184 15.2204 29.9 14.8764 29.7C14.5324 29.5 14.1484 29.4 13.7244 29.4C13.3004 29.4 12.9164 29.5 12.5724 29.7C12.2284 29.9 11.9564 30.184 11.7564 30.552C11.5564 30.912 11.4564 31.328 11.4564 31.8C11.4564 32.272 11.5564 32.692 11.7564 33.06C11.9564 33.42 12.2284 33.7 12.5724 33.9C12.9164 34.1 13.3004 34.2 13.7244 34.2ZM25.0249 36.168C24.1449 36.168 23.3529 35.984 22.6489 35.616C21.9529 35.24 21.4049 34.72 21.0049 34.056C20.6049 33.392 20.4049 32.64 20.4049 31.8C20.4049 30.96 20.6049 30.208 21.0049 29.544C21.4049 28.88 21.9529 28.364 22.6489 27.996C23.3529 27.62 24.1449 27.432 25.0249 27.432C25.7929 27.432 26.4849 27.568 27.1009 27.84C27.7169 28.112 28.2289 28.504 28.6369 29.016L27.1249 30.384C26.5809 29.728 25.9209 29.4 25.1449 29.4C24.6889 29.4 24.2809 29.5 23.9209 29.7C23.5689 29.9 23.2929 30.184 23.0929 30.552C22.9009 30.912 22.8049 31.328 22.8049 31.8C22.8049 32.272 22.9009 32.692 23.0929 33.06C23.2929 33.42 23.5689 33.7 23.9209 33.9C24.2809 34.1 24.6889 34.2 25.1449 34.2C25.9209 34.2 26.5809 33.872 27.1249 33.216L28.6369 34.584C28.2289 35.096 27.7169 35.488 27.1009 35.76C26.4849 36.032 25.7929 36.168 25.0249 36.168ZM36.3836 34.368H32.8316L32.1716 36H29.7476L33.4556 27.6H35.7956L39.5156 36H37.0436L36.3836 34.368ZM35.6876 32.616L34.6076 29.928L33.5276 32.616H35.6876ZM41.3892 27.6H43.7652V34.116H47.7732V36H41.3892V27.6ZM49.9134 27.6H52.2894V36H49.9134V27.6ZM62.2838 34.116V36H54.7598V34.512L58.9958 29.484H54.8678V27.6H62.1038V29.088L57.8678 34.116H62.2838ZM71.2684 34.164V36H64.5244V27.6H71.1124V29.436H66.8764V30.852H70.6084V32.628H66.8764V34.164H71.2684Z" fill="white"/>
<path fill-rule="evenodd" clip-rule="evenodd" d="M11.9441 0.731578C13.3581 -0.411089 15.4308 -0.19109 16.5734 1.22296L23.0656 9.25702V3.29194C23.0656 1.47391 24.5394 0.000110963 26.3574 0.000111035C28.1755 0.000111107 29.6493 1.47391 29.6493 3.29194L29.6493 18.5681C29.6493 19.9631 28.7699 21.2067 27.4547 21.6717C26.1394 22.1367 24.6739 21.7221 23.7971 20.6371L17.3047 12.6028V18.5947C17.3047 20.4127 15.8309 21.8865 14.0129 21.8865C12.1949 21.8865 10.7211 20.4127 10.7211 18.5947V3.36995L10.7213 3.32995C10.7107 2.35767 11.1291 1.39016 11.9441 0.731578ZM7.58366 3.36995C7.58366 1.55192 6.10986 0.0781204 4.29183 0.0781205C2.4738 0.0781205 1 1.55192 1 3.36995V18.5947C1 20.4127 2.4738 21.8865 4.29183 21.8865C6.10986 21.8865 7.58366 20.4127 7.58366 18.5947V3.36995ZM45.9143 1.22296C47.057 -0.19109 49.1296 -0.411089 50.5437 0.731578C51.9577 1.87424 52.1777 3.94687 51.0351 5.36092L38.6907 20.6371C37.8139 21.7221 36.3483 22.1367 35.0331 21.6717C33.7178 21.2067 32.8385 19.9631 32.8385 18.5681V3.29194C32.8385 1.47391 34.3123 0.000111231 36.1303 0.000111159C37.9484 0.000111087 39.4222 1.47391 39.4222 3.29194V9.25702L45.9143 1.22296ZM48.6578 21.9114C46.5273 21.9114 44.7198 20.355 44.7198 18.0012C44.7198 15.6474 48.6578 11.6244 48.6578 11.6244C48.6578 11.6244 52.435 15.6949 52.435 18.0012C52.435 20.3076 50.7883 21.9114 48.6578 21.9114ZM69.7687 7.45812C69.7687 9.84032 68.5866 11.9464 66.777 13.2219L69.6882 16.8768C70.75 18.21 70.5301 20.1516 69.1969 21.2135C67.8637 22.2754 65.9221 22.0554 64.8602 20.7222L61.0248 15.9068V18.8252C61.0248 20.5296 59.6431 21.9113 57.9387 21.9113C56.2343 21.9113 54.8526 20.5296 54.8526 18.8252V3.49764C54.8526 1.79337 56.2341 0.41175 57.9383 0.41155V0.41154H62.6703V0.411726L62.7222 0.41154C66.6139 0.41154 69.7687 3.5664 69.7687 7.45812Z" fill="white"/>
</svg>
