<svg width="16" height="16" viewBox="0 0 16 16" fill="none" xmlns="http://www.w3.org/2000/svg">
<path d="M0 2.60163C0 1.16479 1.16479 0 2.60163 0H13.3984C14.8352 0 16 1.16479 16 2.60163V13.3984C16 14.8352 14.8352 16 13.3984 16H2.60163C1.16479 16 0 14.8352 0 13.3984V2.60163Z" fill="#FAFAFA"/>
<path fill-rule="evenodd" clip-rule="evenodd" d="M11.0962 3.80896C10.5424 3.34546 9.73071 3.4347 9.28319 4.00827L6.74059 7.26712L6.74059 4.84751C6.74059 4.11007 6.16339 3.51225 5.45138 3.51225C4.73936 3.51225 4.16216 4.11007 4.16216 4.84751L4.16216 11.0439C4.16216 11.6098 4.50654 12.1142 5.02165 12.3029C5.53676 12.4915 6.11072 12.3233 6.45412 11.8832L11.2887 5.68675C11.7362 5.11317 11.65 4.27245 11.0962 3.80896Z" fill="black"/>
<path d="M8.81531 10.8142C8.81531 11.7689 9.5232 12.4002 10.3576 12.4002C11.192 12.4002 11.8369 11.7497 11.8369 10.8142C11.8369 9.87864 10.3576 8.22754 10.3576 8.22754C10.3576 8.22754 8.81531 9.85938 8.81531 10.8142Z" fill="black"/>
</svg>
