<svg width="468" height="468" viewBox="0 0 468 468" fill="none" xmlns="http://www.w3.org/2000/svg">
<g style="mix-blend-mode:multiply">
<g style="mix-blend-mode:multiply">
<path d="M367.5 421C423.005 421 468 416.075 468 410C468 403.925 423.005 399 367.5 399C311.995 399 267 403.925 267 410C267 416.075 311.995 421 367.5 421Z" fill="#F0F5FF"/>
</g>
</g>
<path d="M439.902 355L450.592 409.544L448.282 410L437.592 355.456L439.902 355Z" fill="#111D36"/>
<path d="M414.592 357.514V357.516L403.814 410L401.592 409.497L412.371 357.006L412.373 357L414.592 357.514Z" fill="#111D36"/>
<path fill-rule="evenodd" clip-rule="evenodd" d="M459.935 294.044C461.669 294.33 462.839 295.941 462.547 297.642L456.435 333.236C455.18 340.538 451.873 346.757 446.812 351.159C441.738 355.573 435.079 358 427.434 358H402.777C401.017 358 399.592 356.603 399.592 354.877C399.592 353.153 401.017 351.755 402.777 351.755H427.434C433.653 351.755 438.771 349.803 442.585 346.486C446.411 343.158 449.104 338.297 450.152 332.198L456.264 296.604C456.557 294.904 458.2 293.757 459.935 294.044Z" fill="#1B172C"/>
<path d="M352.592 402.074L358.373 383.492L367.592 383L361.811 402.945L352.935 403L352.592 402.074Z" fill="#E6B1A0"/>
<path d="M363.256 399.738C363.256 399.738 355.735 402.756 352.209 398L337.592 406.762L365.592 407L363.256 399.738Z" fill="#111D36"/>
<path d="M365.565 405L336.592 405.383L336.619 409H365.592L365.565 405Z" fill="#D3D6E0"/>
<path d="M384.592 331L376.711 331.501C374.001 331.672 371.412 332.685 369.303 334.399C367.194 336.113 365.671 338.442 364.946 341.064L352.592 388.709L367.088 392L383.503 345.261L384.592 331Z" fill="#D4380D"/>
<path d="M385.592 402.062L385.872 383.498L395.592 383L395.323 402.944L385.942 403L385.592 402.062Z" fill="#E6B1A0"/>
<path d="M397.244 399.703C397.244 399.703 389.688 402.662 386.145 398L370.592 407L399.592 406.823L397.244 399.703Z" fill="#111D36"/>
<path d="M399.575 407L370.592 407.196L370.61 410H399.592L399.575 407Z" fill="#D3D6E0"/>
<path d="M434.985 329L409.631 330.001L390.692 330.39C385.173 330.39 380.617 333.727 380.617 339.189C380.371 356.074 382.011 386.473 382.475 391C383.835 391 399.076 391 399.076 391L400.654 352.659L412.811 353.983C415.799 353.983 424.564 354.562 427.239 353.215C432.747 350.434 439.81 343.906 434.985 329Z" fill="#FA541C"/>
<path d="M361.592 300.466L351.543 295.172C351.543 295.172 343.328 294.545 338.342 295.684C338.221 295.709 338.106 295.758 338.003 295.83C337.901 295.902 337.813 295.995 337.745 296.103C337.677 296.212 337.631 296.332 337.608 296.46C337.585 296.587 337.586 296.718 337.612 296.845C337.662 297.08 337.794 297.288 337.983 297.428C338.17 297.566 338.401 297.628 338.629 297.6L343.229 297.076L340.752 298.842C340.61 298.959 340.499 299.111 340.426 299.284C340.354 299.458 340.322 299.647 340.336 299.836C340.348 300.026 340.405 300.208 340.501 300.368C340.597 300.528 340.728 300.662 340.885 300.757C341.035 300.833 341.199 300.872 341.365 300.872C341.532 300.872 341.697 300.833 341.846 300.757C343.229 299.956 347.563 297.866 351.797 300.362L347.827 302.244C347.648 302.33 347.49 302.46 347.368 302.622C347.244 302.785 347.159 302.976 347.119 303.179C347.079 303.383 347.086 303.594 347.138 303.794C347.189 303.995 347.286 304.179 347.419 304.333C347.558 304.491 347.731 304.61 347.923 304.683C348.116 304.756 348.321 304.78 348.524 304.751L352.195 304.252C354.882 305.306 357.852 305.244 360.498 304.077L361.592 300.466Z" fill="#E6B1A0"/>
<path d="M394.309 287C391.074 294.864 386.475 310.538 386.475 310.538L360.949 298.585L357.592 307.296L379.223 322L402.88 321.009L404.592 302.595L394.309 287Z" fill="#F5F5F5"/>
<path d="M398.264 282.475C396.459 283.768 395.022 285.509 394.094 287.525L392.592 330.75C392.592 330.75 419.164 336.336 433.592 329.906C433.592 329.906 433.186 293.757 424.969 284.118C424.969 284.118 422.379 279.025 409.203 279.002C405.275 278.94 401.435 280.16 398.264 282.475Z" fill="#F5F5F5"/>
<path fill-rule="evenodd" clip-rule="evenodd" d="M398.077 326L395.592 295.076L397.106 295L399.592 325.924L398.077 326Z" fill="#DAE0E9"/>
<path d="M370.314 320.567L369.93 312.853C369.93 312.853 367.094 307.079 364.501 307C362.391 307.119 360.405 308.015 358.944 309.507C358.809 309.643 358.708 309.809 358.65 309.99C358.591 310.172 358.577 310.364 358.608 310.551C358.64 310.739 358.716 310.917 358.831 311.07C358.947 311.224 359.097 311.349 359.27 311.436C360.843 312.138 362.234 313.177 363.339 314.475C363.339 314.475 362.107 320.702 364.199 323.232C365.269 324.537 371.592 326 371.592 326L370.314 320.567Z" fill="#E6B1A0"/>
<path d="M411.42 286L406.633 315.838L370.592 317.37L371.585 328.761L409.345 328.977C409.968 329.042 410.596 328.968 411.186 328.761C411.775 328.554 412.31 328.218 412.748 327.781L413.144 327.964C413.144 327.964 423.639 328.136 426.592 292.925L411.42 286Z" fill="#F5F5F5"/>
<path fill-rule="evenodd" clip-rule="evenodd" d="M410.592 291.185L406.672 316.438L370.644 318L370.592 316.821L405.677 315.301L409.448 291L410.592 291.185Z" fill="#DAE0E9"/>
<path fill-rule="evenodd" clip-rule="evenodd" d="M411.219 318L405.592 316.867L405.965 316L411.592 317.133L411.219 318Z" fill="#DAE0E9"/>
<path fill-rule="evenodd" clip-rule="evenodd" d="M421.625 319.464L425.402 303L426.592 303.261L422.815 319.724C421.836 323.996 419.463 327.842 416.054 330.682L416.046 330.689L414.349 332L413.592 331.064L415.272 329.767C418.476 327.095 420.705 323.48 421.625 319.464Z" fill="#DAE0E9"/>
<path d="M392.451 251.116C392.451 251.116 393.349 255.392 392.451 258.002C391.553 260.611 388.704 261.839 389.986 268.647C391.268 275.456 389.898 275.62 389.592 277.539C389.592 277.539 416.907 280.115 430.592 273.088L425.716 264.668C423.152 260.282 422.187 253.013 422.187 253.013L411.713 249L392.451 251.116Z" fill="#000103"/>
<path d="M398.64 245.482C398.337 245.381 399.537 243.539 399.84 243.439C404.639 241.845 414.885 239.734 420.094 248.49C423.93 254.923 420.094 267.024 412.032 270.684C404.368 274.164 405.677 247.76 405.677 247.76L398.64 245.482Z" fill="#000103"/>
<path d="M400.562 262.517C400.658 263.303 400.519 264.1 400.161 264.806C399.804 265.512 399.245 266.096 398.556 266.484C397.866 266.874 397.076 267.049 396.287 266.988C395.498 266.929 394.744 266.635 394.122 266.147C393.499 265.658 393.036 264.995 392.79 264.242C392.543 263.491 392.527 262.682 392.741 261.92C392.954 261.158 393.389 260.476 393.991 259.962C394.592 259.448 395.333 259.123 396.119 259.029C396.64 258.966 397.168 259.006 397.675 259.147C398.18 259.287 398.652 259.527 399.065 259.851C399.477 260.176 399.823 260.578 400.079 261.035C400.336 261.492 400.501 261.996 400.562 262.517Z" fill="#B57D6B"/>
<path d="M401.592 272.255L402.564 280.868C402.899 283.896 404.923 285.297 407.863 284.947C410.378 284.642 412.58 283.037 412.592 280.483L410.411 267L401.592 272.255Z" fill="#E6B1A0"/>
<path d="M402.324 278C408.445 277.49 411.592 269 411.592 269L401.592 271.908L402.324 278Z" fill="#B57D6B"/>
<path d="M404.36 272.987C399.233 273.238 394.789 269.712 394.425 265.861L393.629 256.757C393.408 254.436 394.176 252.127 395.772 250.319C397.367 248.51 399.665 247.344 402.177 247.068C407.531 246.471 413.328 249.883 413.976 254.811L414.533 262.136C414.686 263.472 414.541 264.822 414.105 266.104C413.669 267.386 412.953 268.573 411.999 269.59C411.046 270.606 409.875 271.433 408.561 272.017C407.248 272.601 405.817 272.931 404.36 272.987Z" fill="#E6B1A0"/>
<path d="M410.316 253.056C408.083 256.748 411.728 262 411.728 262L418.592 252.767C418.592 252.767 411.634 250.863 410.316 253.056Z" fill="#000103"/>
<path d="M418.184 258.892C418.792 259.75 418.72 261.681 417.97 263.043C417.611 263.694 416.883 264.6 415.54 264.912C414.75 265.096 413.819 264.998 413.176 264.551C412.532 264.105 412.054 263.499 411.798 262.811C411.543 262.123 411.525 261.383 411.743 260.686C411.962 259.988 412.41 259.364 413.03 258.892C413.649 258.419 414.413 258.12 415.225 258.034C416.195 257.929 417.577 258.032 418.184 258.892Z" fill="#E6B1A0"/>
<path fill-rule="evenodd" clip-rule="evenodd" d="M400.351 265.001C400.556 265.011 400.71 265.148 400.696 265.305L400.357 266.423L401.226 266.429C401.43 266.431 401.594 266.56 401.592 266.717C401.59 266.875 401.423 267.001 401.219 267L399.958 266.991C399.856 266.989 399.759 266.956 399.69 266.899C399.621 266.841 399.585 266.764 399.593 266.686L399.958 265.266C399.972 265.109 400.148 264.99 400.351 265.001Z" fill="#1B172C"/>
<path d="M404.896 258.174C404.896 258.174 402.39 258.481 402.605 258.884C402.605 258.884 402.747 259.152 404.908 258.874C407.07 258.595 407.553 258.451 407.591 258.171C407.629 257.89 406.02 258.002 404.896 258.174Z" fill="#1B172C"/>
<path d="M397.109 258.055C397.109 258.055 399.556 258.234 399.592 258.764C399.592 258.764 399.586 259.126 397.449 258.953C395.314 258.78 394.678 258.576 394.595 258.275C394.514 257.974 395.962 257.954 397.109 258.055Z" fill="#1B172C"/>
<path fill-rule="evenodd" clip-rule="evenodd" d="M403.652 262.758C403.466 263.015 403.105 263.077 402.842 262.897C402.577 262.714 402.513 262.354 402.697 262.093L403.176 262.423C402.697 262.093 402.697 262.093 402.697 262.093L402.698 262.091V262.09L402.701 262.086L402.708 262.076L402.728 262.051C402.743 262.031 402.765 262.004 402.793 261.971C402.848 261.906 402.927 261.821 403.03 261.728C403.235 261.545 403.543 261.32 403.953 261.169C404.818 260.85 405.985 260.914 407.365 261.966C407.62 262.16 407.667 262.523 407.47 262.775C407.274 263.027 406.907 263.075 406.651 262.88C405.538 262.031 404.788 262.094 404.36 262.25C404.125 262.338 403.942 262.469 403.818 262.582C403.755 262.638 403.71 262.686 403.683 262.718C403.67 262.735 403.66 262.747 403.655 262.752L403.652 262.758Z" fill="#1B172C"/>
<path fill-rule="evenodd" clip-rule="evenodd" d="M397.592 262.186C397.406 262.186 397.223 262.234 397.061 262.327C396.899 262.421 396.763 262.554 396.666 262.716C396.499 262.995 396.143 263.084 395.869 262.912C395.596 262.742 395.51 262.376 395.677 262.097C395.878 261.761 396.16 261.485 396.494 261.293C396.829 261.101 397.208 261 397.592 261C397.976 261 398.354 261.101 398.689 261.293C399.025 261.485 399.306 261.761 399.507 262.097C399.673 262.376 399.588 262.742 399.314 262.912C399.042 263.084 398.685 262.995 398.517 262.716C398.42 262.554 398.285 262.421 398.123 262.327C397.96 262.234 397.778 262.186 397.592 262.186Z" fill="#1B172C"/>
<path fill-rule="evenodd" clip-rule="evenodd" d="M405.395 268.081C405.609 268.219 405.655 268.484 405.5 268.673C405.107 269.155 404.571 269.53 403.952 269.757C403.333 269.984 402.655 270.054 401.994 269.959C401.734 269.922 401.556 269.705 401.598 269.473C401.64 269.242 401.885 269.085 402.145 269.122C402.632 269.191 403.131 269.139 403.587 268.972C404.044 268.805 404.439 268.529 404.728 268.175C404.883 267.986 405.182 267.943 405.395 268.081Z" fill="#1B172C"/>
<path d="M400.123 243.338C400.123 243.338 389.732 247.582 391.886 252.007C393.479 255.287 403.935 257.323 413.862 255.006C413.862 255.006 418.395 250.837 412.785 246.472C412.785 246.52 409.771 241.705 400.123 243.338Z" fill="#000103"/>
<path d="M400.592 281.753C402.856 280.342 405.36 279.424 407.959 279.054C411.188 278.877 414.424 279.134 417.592 279.816C417.592 279.816 417.299 284.773 408.48 285.869C406.749 286.122 404.989 286.008 403.301 285.535C401.61 285.027 401.209 283.759 400.592 281.753Z" fill="#E6B1A0"/>
<path d="M369.879 328H339.592V325H369.879C370.333 325 370.769 325.158 371.09 325.44C371.412 325.721 371.592 326.103 371.592 326.5C371.592 326.697 371.548 326.892 371.461 327.074C371.375 327.256 371.249 327.421 371.09 327.561C370.932 327.7 370.742 327.811 370.535 327.886C370.328 327.961 370.105 328 369.879 328Z" fill="#767F8E"/>
<path d="M343.592 328H300.159C299.036 328 297.944 327.629 297.05 326.944C296.157 326.259 295.511 325.298 295.212 324.207L286.642 293.205C286.579 292.944 286.575 292.672 286.632 292.409C286.688 292.146 286.802 291.899 286.966 291.687C287.131 291.475 287.341 291.304 287.58 291.185C287.819 291.066 288.081 291.002 288.349 291H332.295C332.763 291.001 333.216 291.158 333.587 291.445C333.956 291.732 334.222 292.133 334.343 292.588L343.592 328Z" fill="#BBC3D0"/>
<path d="M316.592 311C316.592 311.791 316.357 312.564 315.918 313.222C315.478 313.881 314.854 314.393 314.123 314.695C313.391 314.999 312.588 315.077 311.811 314.923C311.036 314.769 310.324 314.388 309.764 313.828C309.204 313.27 308.823 312.557 308.669 311.78C308.514 311.005 308.593 310.201 308.896 309.469C309.199 308.739 309.712 308.114 310.37 307.675C311.028 307.235 311.801 307 312.593 307C313.118 306.999 313.639 307.101 314.125 307.301C314.611 307.502 315.052 307.797 315.424 308.168C315.795 308.541 316.09 308.982 316.291 309.468C316.491 309.954 316.594 310.475 316.592 311Z" fill="white"/>
<path fill-rule="evenodd" clip-rule="evenodd" d="M328.592 410V333H335.592V410H328.592Z" fill="#111D36"/>
<path d="M395.592 328H266.592V337H395.592V328Z" fill="#E8E8E8"/>
<path d="M181.25 205.142L192.327 336.857C192.327 336.857 193.488 344.849 187.55 344.849C177.783 344.872 138.946 344.849 138.946 344.849C138.946 344.849 146.295 343.188 146.205 339.448C146.102 335.039 133.259 203.888 133.259 203.888L181.25 205.142Z" fill="#9295A0"/>
<path d="M135.756 341.17C136.508 341.206 164.014 341.22 178.034 341.161C180.644 341.151 182.827 341.075 184.319 341.055C188.464 341.004 189.191 338.782 189.226 336.43C189.237 335.774 189.195 335.118 189.099 334.469L188.81 331.045L188.077 322.32L187.428 314.61L186.595 304.705L185.893 296.344L178.021 202.75L130.03 201.496C130.03 201.496 135.44 256.383 139.265 296.335C139.692 300.788 140.098 305.056 140.475 309.04C140.596 310.312 140.714 311.554 140.827 312.766C141.182 316.547 141.507 320.018 141.789 323.083C141.946 324.697 142.074 326.198 142.198 327.574C142.687 332.961 142.972 335.619 142.981 336.273C142.984 336.63 142.953 336.988 142.887 337.34C141.929 340.395 136.781 341.114 135.756 341.17Z" fill="#B8BCC8"/>
<path d="M297.798 133.466L270.815 241.852L267.12 256.696L254.554 307.18H21.0718L71.3868 142.563L297.798 133.466Z" fill="#CCCFD9"/>
<path d="M297.798 133.467L301.168 136.259L259.523 310.949L254.551 307.18L297.798 133.467Z" fill="#B8BCC8"/>
<path d="M259.525 310.949H27.4792L21.0718 307.18H254.553L259.525 310.949Z" fill="#B8BCC8"/>
<path d="M108.575 341.17L178.037 341.16V344.86H108.575V341.17Z" fill="#CCCFD9"/>
<path d="M140.568 310.948L140.826 312.774L188.077 322.32L187.427 314.611L187.119 310.948H140.568Z" fill="#9295A0"/>
<path d="M297.798 133.466L71.3869 142.563L31.4956 273.076H262.792L297.798 133.466Z" fill="#343A45"/>
<path d="M132.761 294.866C130.673 292.566 131.245 288.646 134.038 286.109C136.831 283.574 140.789 283.383 142.876 285.685C144.965 287.985 144.394 291.905 141.601 294.44C138.807 296.977 134.85 297.166 132.761 294.866Z" fill="#9295A0"/>
<path d="M42.1763 267.027H255.041L281.036 169.702L282.909 162.239L284.507 155.872L288.254 140.944L77.3337 149.274L42.1763 267.027Z" fill="#E9F3FE"/>
<path d="M278.057 145.824C279.088 145.824 279.716 146.659 279.459 147.69C279.202 148.721 278.158 149.55 277.127 149.55C276.095 149.55 275.469 148.715 275.726 147.684C275.983 146.653 277.026 145.824 278.057 145.824Z" fill="#E9F3FE"/>
<path d="M271.856 145.824C272.888 145.824 273.515 146.659 273.258 147.69C273.001 148.721 271.957 149.55 270.926 149.55C269.895 149.55 269.269 148.715 269.526 147.684C269.783 146.653 270.827 145.824 271.856 145.824Z" fill="#E9F3FE"/>
<path d="M262.849 147.69C263.106 146.659 264.15 145.824 265.181 145.824C266.212 145.824 266.839 146.659 266.582 147.69C266.325 148.721 265.281 149.55 264.25 149.55C263.219 149.55 262.592 148.721 262.849 147.69Z" fill="#E9F3FE"/>
<path d="M120.756 169.863H92.6399C91.6223 169.863 90.7974 170.688 90.7974 171.706V191.777C90.7974 192.795 91.6223 193.62 92.6399 193.62H120.756C121.774 193.62 122.599 192.795 122.599 191.777V171.706C122.599 170.688 121.774 169.863 120.756 169.863Z" fill="#F0F0F0"/>
<path d="M88.6885 163.133C89.2623 161.251 90.969 159.94 92.9358 159.873L170.999 157.181C173.479 157.095 175.333 159.436 174.682 161.831L150.431 250.986C149.885 252.992 148.064 254.384 145.986 254.384H65.8535C63.3783 254.384 61.6069 251.992 62.3286 249.625L88.6885 163.133Z" fill="white"/>
<path d="M93.3263 166.964C93.5621 166.218 94.2439 165.703 95.026 165.679L164.263 163.548C165.504 163.509 166.427 164.685 166.096 165.881L159.779 188.678C159.559 189.467 158.846 190.017 158.027 190.029L88.2768 190.945C87.0209 190.962 86.117 189.745 86.4959 188.547L93.3263 166.964Z" fill="#F0F0F0"/>
<path d="M75.9152 226.396C76.1425 225.607 76.8646 225.063 77.6857 225.063H147.004C148.23 225.063 149.114 226.239 148.774 227.417L143.189 246.763C142.961 247.551 142.24 248.095 141.419 248.095H72.1132C70.8874 248.095 70.0034 246.92 70.3426 245.742L75.9152 226.396Z" fill="#F0F0F0"/>
<path d="M84.1416 196.028C84.3705 195.257 85.074 194.722 85.8788 194.71L122.017 194.137C123.461 194.114 124.369 195.686 123.629 196.925L109.998 219.736C109.663 220.296 109.058 220.637 108.407 220.634L79.3466 220.48C78.1189 220.473 77.2407 219.291 77.59 218.113L84.1416 196.028Z" fill="#F0F0F0"/>
<path d="M151.009 219.491C150.787 220.288 150.061 220.841 149.233 220.841H117.16C115.726 220.841 114.842 219.276 115.581 218.048L129.536 194.864C129.866 194.317 130.454 193.98 131.093 193.973L155.715 193.675C156.941 193.66 157.841 194.827 157.513 196.009L151.009 219.491Z" fill="#F0F0F0"/>
<g filter="url(#filter0_d)">
<path d="M119.272 238.848C128.953 240.504 137.893 235.495 139.24 227.658C140.587 219.821 133.83 212.125 124.15 210.469C114.468 208.811 105.527 213.821 104.181 221.658C103.363 226.416 105.532 231.121 109.529 234.455C109.237 235.806 108.302 237.073 106.052 237.322C107.435 237.767 110.937 238.365 114.618 237.51C116.068 238.111 117.627 238.566 119.272 238.848Z" fill="#E5E7EF"/>
</g>
<path d="M128.878 216.823H114.639L113.766 219.996H128.005L128.878 216.823Z" fill="#FBFBFC"/>
<path d="M133.742 222.057H113.154L112.281 225.355H132.87L133.742 222.057Z" fill="#FBFBFC"/>
<path d="M130.746 227.417H111.892L111.019 230.59H129.874L130.746 227.417Z" fill="#FBFBFC"/>
<g filter="url(#filter1_d)">
<path d="M112.067 184.045C105.115 185.238 98.6956 181.633 97.7283 175.993C96.761 170.354 101.613 164.816 108.565 163.624C115.517 162.432 121.936 166.037 122.904 171.676C123.49 175.099 121.933 178.485 119.063 180.885C119.272 181.856 119.944 182.768 121.559 182.947C120.566 183.268 118.052 183.698 115.409 183.082C114.368 183.515 113.248 183.843 112.067 184.045Z" fill="#E5E7EF"/>
</g>
<path d="M114.968 168.665H104.744L104.116 170.947H114.341L114.968 168.665Z" fill="#FBFBFC"/>
<path d="M118.46 172.431H103.677L103.049 174.804H117.833L118.46 172.431Z" fill="#FBFBFC"/>
<path d="M116.309 176.287H102.77L102.143 178.571H115.682L116.309 176.287Z" fill="#FBFBFC"/>
<path d="M191.861 158.011C192.065 157.222 192.763 156.66 193.578 156.631L265.696 154.026C266.928 153.982 267.855 155.136 267.546 156.329L264.592 167.747C264.388 168.535 263.69 169.097 262.874 169.127L190.756 171.731C189.525 171.776 188.598 170.621 188.906 169.428L191.861 158.011Z" fill="white"/>
<path d="M196.083 160.09L253.068 157.718L252.429 160.09L195.443 162.463L196.083 160.09Z" fill="#F0F5FF"/>
<path d="M194.574 164.836L234.322 163.131L233.683 165.505L193.936 167.209L194.574 164.836Z" fill="#F0F5FF"/>
<path d="M185.547 182.318C185.751 181.53 186.449 180.968 187.264 180.939L259.382 178.334C260.614 178.29 261.541 179.444 261.232 180.637L258.278 192.054C258.074 192.844 257.376 193.405 256.56 193.434L184.442 196.039C183.211 196.084 182.284 194.93 182.592 193.737L185.547 182.318Z" fill="white"/>
<path d="M189.77 184.399L233.27 182.636L232.63 185.009L189.13 186.771L189.77 184.399Z" fill="#F0F5FF"/>
<path d="M188.261 189.144L240.362 187.242L239.723 189.615L187.623 191.516L188.261 189.144Z" fill="#F0F5FF"/>
<path d="M179.253 206.627C179.458 205.837 180.156 205.276 180.971 205.247L253.089 202.642C254.32 202.598 255.248 203.752 254.94 204.945L251.985 216.363C251.781 217.152 251.082 217.713 250.268 217.743L178.15 220.347C176.918 220.391 175.99 219.238 176.299 218.044L179.253 206.627Z" fill="white"/>
<path d="M183.475 208.706L226.975 206.944L226.337 209.317L182.837 211.079L183.475 208.706Z" fill="#F0F5FF"/>
<path d="M181.968 213.453L209.922 212.366L209.284 214.74L181.329 215.825L181.968 213.453Z" fill="#F0F5FF"/>
<path d="M172.237 230.867C172.451 230.078 173.16 229.526 173.976 229.508L245.558 228.014C246.817 227.988 247.731 229.204 247.354 230.406L243.495 242.74C243.256 243.504 242.552 244.026 241.751 244.033L170.924 244.6C169.703 244.61 168.811 243.452 169.131 242.274L172.237 230.867Z" fill="white"/>
<path d="M176.797 233.015L231.93 231.833L231.291 234.206L176.159 235.387L176.797 233.015Z" fill="#F0F5FF"/>
<path d="M175.29 237.76L215.58 237.125L214.94 239.498L174.651 240.133L175.29 237.76Z" fill="#F0F5FF"/>
<g filter="url(#filter2_d)">
<path d="M128.137 195.368C135.698 195.368 141.848 201.568 141.848 209.19C141.848 219.555 128.137 228.276 128.137 228.276C128.137 228.276 114.426 219.555 114.426 209.19C114.426 201.568 120.577 195.368 128.137 195.368Z" fill="#4062EF"/>
</g>
<path d="M128.137 212.757C130.169 212.757 131.815 211.111 131.815 209.079C131.815 207.048 130.169 205.401 128.137 205.401C126.106 205.401 124.459 207.048 124.459 209.079C124.459 211.111 126.106 212.757 128.137 212.757Z" fill="white"/>
<g style="mix-blend-mode:multiply">
<g style="mix-blend-mode:multiply">
<path d="M43 375.752C66.7482 375.752 86 373.061 86 369.74C86 366.42 66.7482 363.728 43 363.728C19.2518 363.728 0 366.42 0 369.74C0 373.061 19.2518 375.752 43 375.752Z" fill="#F0F5FF"/>
</g>
</g>
<path d="M37.7286 192.835C37.7286 192.835 21.2202 209.087 20.4641 215.214C19.7078 221.34 27.9525 230.927 27.9525 230.927L37.7286 192.835Z" fill="#FAAD14"/>
<path d="M43.6875 361.625C43.6875 361.625 44.2225 370.264 45.8927 370.387C46.1156 370.403 54.3689 370.403 54.3689 370.403L64.9045 370.343C64.9045 370.343 64.836 367.803 61.7562 367.266C58.6764 366.729 53.5252 364.564 51.6561 360.494C49.6927 356.211 43.6875 361.625 43.6875 361.625Z" fill="#23242A"/>
<path d="M20.2207 361.625C20.2207 361.625 20.7574 370.264 22.4276 370.387C22.6505 370.403 30.9038 370.403 30.9038 370.403L41.4378 370.343C41.4378 370.343 41.3692 367.803 38.2894 367.266C35.2096 366.729 30.0584 364.564 28.191 360.494C26.2276 356.211 20.2207 361.625 20.2207 361.625Z" fill="#23242A"/>
<path d="M55.3546 268.777C55.3546 268.777 52.5988 286.404 42.3221 317.694C32.0454 348.985 30.6427 362.535 30.6427 362.535L19.6149 362.227C19.6149 362.227 19.5205 328.03 24.2585 312.294C28.9965 296.559 25.2874 255.567 25.2874 255.567L55.3546 268.777Z" fill="#23242B"/>
<path d="M60.7205 256.531C60.7205 256.531 61.1114 283.095 56.5158 315.706C51.9202 348.318 53.4789 362.165 53.4789 362.165L42.4734 362.529C42.4734 362.529 35.8972 329.903 37.7835 313.579C39.6697 297.255 28.7773 257.562 28.7773 257.562L60.7205 256.531Z" fill="#404357"/>
<path d="M39.4175 194.37L44.6082 198.216L52.1087 196.636C52.0058 195.95 51.5102 193.116 51.0592 190.547C51.0319 190.396 51.0044 190.243 50.9787 190.096C50.5928 187.91 50.2585 186.033 50.2585 186.033L43.2535 182.541L40.6402 181.239C40.6402 181.283 40.8425 183.663 40.87 184.01C41.3604 190.18 39.4175 194.37 39.4175 194.37Z" fill="#E6B1A0"/>
<path d="M51.5839 192.43C51.4124 192.359 41.3792 189.398 40.2886 189.757C39.198 190.118 38.5532 192.227 38.5532 192.227L54.974 195.941C54.974 195.941 53.6811 193.306 51.5839 192.43Z" fill="#FAAD14"/>
<path d="M24.5488 259.811C26.2516 267.575 54.5731 268.497 61.8746 261.447C62.7046 260.644 62.7458 256.907 62.4319 251.865C61.8129 242.019 59.8512 227.206 59.7758 219.639C59.7381 215.983 59.2356 212.246 58.5668 208.851C57.7012 204.463 56.5002 200.147 54.9743 195.941C54.9743 195.941 41.1411 191.468 38.5535 192.227C26.0818 195.893 22.8477 252.044 24.5488 259.811Z" fill="#FFC53D"/>
<path d="M62.432 251.866C61.8129 242.019 59.8512 227.206 59.7757 219.639C59.738 215.983 59.2356 212.246 58.5669 208.851L50.245 207.384C50.245 207.384 42.11 240.623 62.432 251.866Z" fill="#FAAD14"/>
<path d="M58.447 239.096C58.447 239.096 57.7418 240.772 59.2241 241.897C60.7065 243.021 61.6489 244.844 61.3123 246.174C60.9755 247.504 57.7481 249.678 56.63 249.327C55.5118 248.978 53.2416 247.222 53.4788 246.521C53.716 245.82 51.9477 240.357 54.6753 238.26C57.4029 236.163 58.447 239.096 58.447 239.096Z" fill="#E09982"/>
<path d="M48.6365 194.217C48.6365 194.217 56.7372 195.468 63.2037 204.999C69.6702 214.53 73.9246 221.619 72.7328 225.055C71.541 228.491 60.683 240.405 58.8104 240.405C56.9379 240.405 53.925 239.043 53.7535 235.98C53.7535 235.98 60.9746 224.627 59.4689 222.912C58.8258 222.178 49.9672 214.532 48.6418 217.937C46.445 223.57 48.6365 194.217 48.6365 194.217Z" fill="#FFC53D"/>
<path d="M41.3964 184.119C42.9397 187.065 48.6671 189.609 51.0593 190.547C51.0318 190.396 51.0044 190.243 50.9786 190.096C50.5928 187.91 50.2584 186.033 50.2584 186.033L43.2535 182.541C41.7051 182.516 40.7619 182.908 41.3964 184.119Z" fill="#B57D6B"/>
<path d="M53.6645 185.623C53.6645 185.623 41.0248 189.568 38.6893 181.655C36.3538 173.743 33.1522 168.925 41.1242 166.073C49.0964 163.22 51.5604 165.774 52.982 168.225C54.4036 170.676 56.8918 184.388 53.6645 185.623Z" fill="#E6B1A0"/>
<path d="M50.9992 167.764C50.9992 167.764 50.2703 177.262 48.3583 176.833C46.4463 176.404 44.7144 176.084 45.0179 178.95C45.3214 181.816 47.9931 185.149 42.1182 185.605C36.2434 186.062 27.6642 170.369 29.2573 167.424C33.8443 158.93 57.6491 157.41 50.9992 167.764Z" fill="#131313"/>
<g filter="url(#filter3_d)">
<path d="M109.534 136.284C117.095 136.284 123.245 142.484 123.245 150.106C123.245 160.471 109.534 169.192 109.534 169.192C109.534 169.192 95.8218 160.471 95.8218 150.106C95.8218 142.484 101.973 136.284 109.534 136.284Z" fill="#4062EF"/>
</g>
<path d="M109.534 153.673C111.565 153.673 113.212 152.027 113.212 149.996C113.212 147.964 111.565 146.318 109.534 146.318C107.503 146.318 105.856 147.964 105.856 149.996C105.856 152.027 107.503 153.673 109.534 153.673Z" fill="white"/>
<path fill-rule="evenodd" clip-rule="evenodd" d="M130.606 252.949C131.563 252.602 132.619 253.096 132.967 254.052C158.247 323.678 233.626 353.582 286.531 353.169C287.548 353.161 288.38 353.98 288.387 354.998C288.395 356.015 287.576 356.846 286.559 356.854C232.699 357.274 155.497 326.901 129.503 255.31C129.155 254.354 129.65 253.297 130.606 252.949Z" fill="#1AC4A5"/>
<path d="M128.279 249.533C128.637 248.415 129.702 248.061 130.658 248.742L139.463 255.008C140.233 255.557 140.271 256.921 139.521 257.171L126.234 261.593C125.486 261.842 124.697 260.727 124.986 259.825L128.279 249.533Z" fill="#1AC4A5"/>
<path fill-rule="evenodd" clip-rule="evenodd" d="M184.296 104.457C184.864 105.301 184.639 106.446 183.794 107.013C164.28 120.119 137.393 143.292 131.406 186.676C131.267 187.684 130.337 188.389 129.329 188.249C128.321 188.11 127.617 187.18 127.756 186.172C133.95 141.281 161.841 117.318 181.74 103.954C182.585 103.387 183.729 103.612 184.296 104.457Z" fill="#1AC4A5"/>
<path d="M188.852 100.55C190.02 100.664 190.591 101.631 190.127 102.709L185.856 112.635C185.482 113.505 184.156 113.829 183.754 113.149L176.633 101.092C176.231 100.412 177.155 99.407 178.096 99.4991L188.852 100.55Z" fill="#1AC4A5"/>
<path d="M377.585 223.071C377.656 222.694 377.182 222.158 376.571 222.158L315.48 222C314.941 222 314.59 222.646 314.525 222.975L307.622 252.298C307.471 252.898 307.902 253.521 308.54 253.521L370.836 254C371.351 254.013 371.585 253.398 371.65 253.055L377.585 223.071Z" fill="#E2EAFA"/>
<path d="M382.592 237H374.592L375.48 231L382.592 237Z" fill="#E2EAFA"/>
<path d="M342.092 248C349.548 248 355.592 243.523 355.592 238C355.592 232.477 349.548 228 342.092 228C334.636 228 328.592 232.477 328.592 238C328.592 243.523 334.636 248 342.092 248Z" fill="#1AC4A5"/>
<path fill-rule="evenodd" clip-rule="evenodd" d="M335.441 234.997C336.227 234.564 337.211 234.861 337.637 235.659L339.32 238.809L346.935 232.381C347.622 231.8 348.644 231.894 349.217 232.592C349.789 233.29 349.695 234.327 349.008 234.908L339.873 242.62C339.501 242.934 339.008 243.064 338.531 242.97C338.054 242.877 337.644 242.573 337.413 242.139L334.787 237.225C334.362 236.427 334.653 235.43 335.441 234.997Z" fill="white"/>
<path d="M280.127 136.824C281.158 136.824 281.785 137.659 281.528 138.69C281.271 139.721 280.227 140.55 279.196 140.55C278.164 140.55 277.538 139.715 277.795 138.684C278.052 137.653 279.096 136.824 280.127 136.824Z" fill="#E9F3FE"/>
<path d="M273.926 136.824C274.957 136.824 275.584 137.659 275.327 138.69C275.07 139.721 274.026 140.55 272.995 140.55C271.964 140.55 271.339 139.715 271.596 138.684C271.853 137.653 272.897 136.824 273.926 136.824Z" fill="#E9F3FE"/>
<path d="M264.918 138.69C265.175 137.659 266.219 136.824 267.25 136.824C268.281 136.824 268.908 137.659 268.651 138.69C268.394 139.721 267.351 140.55 266.32 140.55C265.289 140.55 264.661 139.721 264.918 138.69Z" fill="#E9F3FE"/>
<g filter="url(#filter4_dd)">
<path fill-rule="evenodd" clip-rule="evenodd" d="M209.566 70.6614C208.367 70.7047 207.333 71.5164 207.006 72.6706L186.071 146.632C185.733 147.827 186.65 149.008 187.892 148.976L218.323 148.183L215.604 159.554L236.497 147.709L369.037 144.256C370.216 144.225 371.245 143.449 371.601 142.325L395.571 66.3973C395.954 65.183 395.02 63.9552 393.748 64.0013L209.566 70.6614Z" fill="#F5F5F5"/>
</g>
<path d="M266.395 80.0208L372.748 76.0396L371.16 81.9444L264.808 85.9256L266.395 80.0208Z" fill="#A7B5EA"/>
<path d="M207.249 116.165L363.74 110.26L361.761 116.165L205.661 122.069L207.249 116.165Z" fill="#A6B5EA"/>
<path d="M203.538 127.974L293.798 124.601L292.21 130.505L201.95 133.879L203.538 127.974Z" fill="#A6B5EA"/>
<path d="M263.48 91.2957L332.37 89.1377L330.782 95.0425L261.893 97.2005L263.48 91.2957Z" fill="#A7B5EA"/>
<mask id="mask0" mask-type="alpha" maskUnits="userSpaceOnUse" x="215" y="78" width="34" height="24">
<path d="M232.587 101.732C241.849 101.247 249.084 95.6261 248.747 89.1765C248.41 82.7269 240.628 77.8911 231.366 78.3754C222.104 78.8597 214.869 84.4808 215.206 90.9304C215.543 97.38 223.325 102.216 232.587 101.732Z" fill="#C4C4C4"/>
</mask>
<g mask="url(#mask0)">
<path d="M232.586 101.732C241.849 101.248 249.084 95.6271 248.747 89.1775C248.41 82.7279 240.629 77.8916 231.366 78.3754C222.104 78.8592 214.869 84.4798 215.206 90.9294C215.543 97.3791 223.324 102.215 232.586 101.732Z" fill="#13C2C2"/>
<path d="M233.342 97.2622L231.108 101.551L229.563 96.9306L229.925 92.8124L233.703 93.1439L233.342 97.2622Z" fill="#D9A78C"/>
<path d="M229.709 95.2655C229.709 95.2655 225.614 95.4323 225.036 95.9351C224.532 96.3775 223.169 100.872 222.86 101.857L230.972 102.569L231.184 100.155L229.709 95.2655Z" fill="#FFC53D"/>
<path d="M233.488 95.5975C233.488 95.5975 237.491 96.4749 237.974 97.0708C238.387 97.5891 238.952 102.257 239.085 103.281L230.972 102.57L231.184 100.155L233.488 95.5975Z" fill="#FAAD14"/>
<path d="M232.848 81.1908C234.682 81.3516 237.492 82.6429 237.066 87.5021C236.82 90.3074 235.739 92.0647 235.293 92.5381C234.884 92.9735 232.724 93.7876 231.751 93.7023L232.848 81.1908Z" fill="#F2D7BC"/>
<path d="M237.876 88.7406C238.025 87.9705 237.713 87.2498 237.181 87.1286C236.649 87.0073 236.095 87.5336 235.945 88.3021C235.795 89.0705 236.108 89.7929 236.642 89.9143C237.175 90.0356 237.728 89.5092 237.876 88.7406Z" fill="#F2D7BC"/>
<path d="M232.848 81.1907C231.013 81.0298 228.022 81.8121 227.596 86.6712C227.35 89.4765 228.108 91.3952 228.464 91.939C228.791 92.4391 230.778 93.617 231.75 93.7024L232.848 81.1907Z" fill="#F2D7BC"/>
<path d="M226.582 87.7504C226.569 86.966 227.002 86.3106 227.548 86.2839C228.092 86.2573 228.546 86.8719 228.56 87.6547C228.574 88.4376 228.14 89.0945 227.594 89.121C227.047 89.1476 226.594 88.5331 226.582 87.7504Z" fill="#F2D7BC"/>
<path d="M228.125 87.9704L228.452 87.9991C228.452 87.9991 228.364 86.7171 228.983 86.3593L229.055 85.5414C229.055 85.5414 228.832 85.4959 228.917 84.5332C229.002 83.5704 230.206 82.9872 232.671 83.2036L232.98 79.683C232.98 79.683 228.099 79.3595 227.79 82.8772L227.491 86.2816C227.708 86.2687 227.922 86.3421 228.085 86.4857C228.341 86.7363 228.125 87.9704 228.125 87.9704Z" fill="#131313"/>
<path d="M236.319 88.6894L235.993 88.6608C235.993 88.6608 236.303 87.4136 235.755 86.9536L235.827 86.1357C235.827 86.1357 236.054 86.1297 236.139 85.1669C236.223 84.2042 235.136 83.4199 232.671 83.2037L232.98 79.683C232.98 79.683 237.862 80.0004 237.554 83.518L237.237 87.1398C237.025 87.0893 236.802 87.1244 236.616 87.2374C236.32 87.4365 236.319 88.6894 236.319 88.6894Z" fill="#131313"/>
<path d="M231.184 100.153L230.283 95.6796L229.637 97.6028L231.184 100.153Z" fill="#FAAD14"/>
<path d="M229.695 94.8104L230.293 95.7403L229.637 97.6033L228.724 96.1242L229.695 94.8104Z" fill="#FAAD14"/>
<path d="M231.184 100.154L232.734 95.8431L233.152 97.9115L231.184 100.154Z" fill="#FAAD14"/>
<path d="M233.58 95.1508L232.713 95.9004L233.152 97.9112L234.399 96.6216L233.58 95.1508Z" fill="#FAAD14"/>
</g>
<path fill-rule="evenodd" clip-rule="evenodd" d="M298.765 146.087L283.226 211.895L416.171 193.038L450.555 65.125L395.513 66.5824L371.601 142.325C371.245 143.449 370.216 144.225 369.037 144.256L298.765 146.087Z" fill="white"/>
<path fill-rule="evenodd" clip-rule="evenodd" d="M398.871 125.587C399.594 124.87 400.76 124.875 401.477 125.597C415.193 139.413 435.567 168.776 432.742 209.597C432.672 210.613 431.792 211.379 430.777 211.309C429.762 211.239 428.995 210.358 429.066 209.343C431.793 169.932 412.12 141.55 398.862 128.193C398.145 127.471 398.149 126.304 398.871 125.587Z" fill="#1AC4A5"/>
<path d="M431.979 212.1C431.227 213.002 430.107 212.93 429.477 211.941L423.672 202.825C423.163 202.027 423.642 200.747 424.43 200.798L438.404 201.692C439.192 201.743 439.504 203.072 438.897 203.799L431.979 212.1Z" fill="#1AC4A5"/>
<defs>
<filter id="filter0_d" x="86.0098" y="194.152" width="71.4013" height="65.0127" filterUnits="userSpaceOnUse" color-interpolation-filters="sRGB">
<feFlood flood-opacity="0" result="BackgroundImageFix"/>
<feColorMatrix in="SourceAlpha" type="matrix" values="0 0 0 0 0 0 0 0 0 0 0 0 0 0 0 0 0 0 127 0"/>
<feOffset dy="2"/>
<feGaussianBlur stdDeviation="9"/>
<feColorMatrix type="matrix" values="0 0 0 0 0.960784 0 0 0 0 0.960784 0 0 0 0 0.960784 0 0 0 1 0"/>
<feBlend mode="normal" in2="BackgroundImageFix" result="effect1_dropShadow"/>
<feBlend mode="normal" in="SourceGraphic" in2="effect1_dropShadow" result="shape"/>
</filter>
<filter id="filter1_d" x="79.6055" y="147.396" width="61.4207" height="56.8765" filterUnits="userSpaceOnUse" color-interpolation-filters="sRGB">
<feFlood flood-opacity="0" result="BackgroundImageFix"/>
<feColorMatrix in="SourceAlpha" type="matrix" values="0 0 0 0 0 0 0 0 0 0 0 0 0 0 0 0 0 0 127 0"/>
<feOffset dy="2"/>
<feGaussianBlur stdDeviation="9"/>
<feColorMatrix type="matrix" values="0 0 0 0 0.960784 0 0 0 0 0.960784 0 0 0 0 0.960784 0 0 0 1 0"/>
<feBlend mode="normal" in2="BackgroundImageFix" result="effect1_dropShadow"/>
<feBlend mode="normal" in="SourceGraphic" in2="effect1_dropShadow" result="shape"/>
</filter>
<filter id="filter2_d" x="106.426" y="191.368" width="43.4222" height="48.9074" filterUnits="userSpaceOnUse" color-interpolation-filters="sRGB">
<feFlood flood-opacity="0" result="BackgroundImageFix"/>
<feColorMatrix in="SourceAlpha" type="matrix" values="0 0 0 0 0 0 0 0 0 0 0 0 0 0 0 0 0 0 127 0"/>
<feOffset dy="4"/>
<feGaussianBlur stdDeviation="4"/>
<feColorMatrix type="matrix" values="0 0 0 0 0 0 0 0 0 0 0 0 0 0 0 0 0 0 0.24 0"/>
<feBlend mode="normal" in2="BackgroundImageFix" result="effect1_dropShadow"/>
<feBlend mode="normal" in="SourceGraphic" in2="effect1_dropShadow" result="shape"/>
</filter>
<filter id="filter3_d" x="87.8218" y="132.284" width="43.4231" height="48.9071" filterUnits="userSpaceOnUse" color-interpolation-filters="sRGB">
<feFlood flood-opacity="0" result="BackgroundImageFix"/>
<feColorMatrix in="SourceAlpha" type="matrix" values="0 0 0 0 0 0 0 0 0 0 0 0 0 0 0 0 0 0 127 0"/>
<feOffset dy="4"/>
<feGaussianBlur stdDeviation="4"/>
<feColorMatrix type="matrix" values="0 0 0 0 0 0 0 0 0 0 0 0 0 0 0 0 0 0 0.24 0"/>
<feBlend mode="normal" in2="BackgroundImageFix" result="effect1_dropShadow"/>
<feBlend mode="normal" in="SourceGraphic" in2="effect1_dropShadow" result="shape"/>
</filter>
<filter id="filter4_dd" x="166" y="54" width="249.658" height="135.554" filterUnits="userSpaceOnUse" color-interpolation-filters="sRGB">
<feFlood flood-opacity="0" result="BackgroundImageFix"/>
<feColorMatrix in="SourceAlpha" type="matrix" values="0 0 0 0 0 0 0 0 0 0 0 0 0 0 0 0 0 0 127 0"/>
<feOffset dy="10"/>
<feGaussianBlur stdDeviation="10"/>
<feColorMatrix type="matrix" values="0 0 0 0 0 0 0 0 0 0 0 0 0 0 0 0 0 0 0.1 0"/>
<feBlend mode="normal" in2="BackgroundImageFix" result="effect1_dropShadow"/>
<feColorMatrix in="SourceAlpha" type="matrix" values="0 0 0 0 0 0 0 0 0 0 0 0 0 0 0 0 0 0 127 0"/>
<feOffset/>
<feGaussianBlur stdDeviation="2"/>
<feColorMatrix type="matrix" values="0 0 0 0 0 0 0 0 0 0 0 0 0 0 0 0 0 0 0.1 0"/>
<feBlend mode="normal" in2="effect1_dropShadow" result="effect2_dropShadow"/>
<feBlend mode="normal" in="SourceGraphic" in2="effect2_dropShadow" result="shape"/>
</filter>
</defs>
</svg>
