<svg width="468" height="468" viewBox="0 0 468 468" fill="none" xmlns="http://www.w3.org/2000/svg">
<g clip-path="url(#clip0)">
<g style="mix-blend-mode:multiply" filter="url(#filter0_d)">
<path d="M232.5 291C294.08 291 344 285.404 344 278.5C344 271.596 294.08 266 232.5 266C170.92 266 121 271.596 121 278.5C121 285.404 170.92 291 232.5 291Z" fill="#3C3D41" fill-opacity="0.01"/>
</g>
<g filter="url(#filter1_d)">
<path d="M-4.44248 101.999H146.718L97.7493 161.938H-55.0771L-4.44248 101.999Z" fill="white"/>
</g>
<path d="M298.685 30.5244H438.114L392.947 85.8116H251.981L298.685 30.5244Z" fill="#F8F8F8"/>
<path d="M461.571 30.5244H601L555.832 85.8116H417.996L461.571 30.5244Z" fill="white"/>
<g filter="url(#filter2_d)">
<path d="M134.428 30.5244H273.856L228.689 85.8116H87.7231L134.428 30.5244Z" fill="#F8F8F8"/>
</g>
<path d="M247 75.5648C247 74.7006 247.683 74 248.526 74H271.554C272.396 74 273.079 74.7006 273.079 75.5648C273.079 76.4289 272.396 77.1295 271.554 77.1295H248.526C247.683 77.1295 247 76.4289 247 75.5648Z" fill="#EF6749"/>
<path d="M-27.9993 30.5244H111.43L66.2612 85.8116H-74.7041L-27.9993 30.5244Z" fill="white"/>
<path d="M76.8848 47.7364C76.8848 46.8723 77.5728 46.1718 78.422 46.1718H101.427C102.276 46.1718 102.964 46.8723 102.964 47.7364C102.964 48.6007 102.276 49.3012 101.427 49.3012H78.422C77.5728 49.3012 76.8848 48.6007 76.8848 47.7364Z" fill="#2F54EB"/>
<g filter="url(#filter3_d)">
<path d="M171.652 101.999H322.812L273.844 161.938H123.104L171.652 101.999Z" fill="white"/>
</g>
<path d="M183.773 115H265L259.874 121H179L183.773 115Z" fill="#F0F5FF"/>
<path d="M172.837 129H226L220.804 135H168L172.837 129Z" fill="#F0F5FF"/>
<path d="M160.801 145H235L229.843 150H156L160.801 145Z" fill="#F0F5FF"/>
<g filter="url(#filter4_d)">
<path d="M349.73 101.999H500.892L451.924 161.938H299.097L349.73 101.999Z" fill="white"/>
</g>
<path d="M366.111 114H440L434.511 119H361L366.111 114Z" fill="#E8F7F0"/>
<path d="M354.132 129H443L437.489 134H349L354.132 129Z" fill="#E8F7F0"/>
<path d="M341.114 144H392L386.507 149H336L341.114 144Z" fill="#E8F7F0"/>
<g filter="url(#filter5_d)">
<path d="M12.6747 177.257H163.835L114.867 237.196H-37.96L12.6747 177.257Z" fill="white"/>
</g>
<path d="M28.717 189H109L103.934 194H24L28.717 189Z" fill="#FAEFFC"/>
<path d="M17.8369 203H71L65.8044 208H13L17.8369 203Z" fill="#FAEFFC"/>
<path d="M6.80081 219H81L75.8432 224H2L6.80081 219Z" fill="#FAEFFC"/>
<g filter="url(#filter6_d)">
<path d="M190.754 177.257H341.915L292.947 237.196H145.335L190.754 177.257Z" fill="white"/>
</g>
<path d="M205.721 187H274L268.928 192H201L205.721 187Z" fill="#FDEFF0"/>
<path d="M194.748 201H277L271.899 206H190L194.748 201Z" fill="#FDEFF0"/>
<path d="M181.839 217H230L224.801 222H177L181.839 217Z" fill="#FDEFF0"/>
<g filter="url(#filter7_d)">
<path d="M368.258 177.257H519.419L470.45 237.196H321.796L368.258 177.257Z" fill="white"/>
</g>
<path d="M380.716 190H461L455.933 195H376L380.716 190Z" fill="#FEF2C9"/>
<path d="M369.837 204H423L417.804 209H365L369.837 204Z" fill="#FEF2C9"/>
<path d="M358.801 220H433L427.844 225H354L358.801 220Z" fill="#FEF2C9"/>
<g filter="url(#filter8_d)">
<path d="M47.8743 256.278H199.035L150.067 316.217H-2.76025L47.8743 256.278Z" fill="white"/>
</g>
<g filter="url(#filter9_d)">
<path d="M-100.932 331.996H50.2287L6.47649 391.935H-151.566L-100.932 331.996Z" fill="white"/>
</g>
<path d="M58.7788 267H116L110.867 272H54L58.7788 267Z" fill="#E8F7F0"/>
<path d="M48.7791 281H142L136.867 286H44L48.7791 281Z" fill="#E8F7F0"/>
<path d="M37.7354 297H116L110.913 302H33L37.7354 297Z" fill="#E8F7F0"/>
<g filter="url(#filter10_d)">
<path d="M225.953 256.278H377.114L328.145 316.217H177.405L225.953 256.278Z" fill="white"/>
</g>
<g filter="url(#filter11_d)">
<path d="M77.4477 331.996H228.609L184.856 391.935H35.1582L77.4477 331.996Z" fill="white"/>
</g>
<path d="M234.05 267H320L314.576 273H229L234.05 267Z" fill="#F0F5FF"/>
<path d="M91.1613 343H179L173.457 349H86L91.1613 343Z" fill="#FEF2C9"/>
<path d="M223.004 282H278L272.625 287H218L223.004 282Z" fill="#F0F5FF"/>
<path d="M81.0874 357H137L131.536 362H76L81.0874 357Z" fill="#FEF2C9"/>
<path d="M211.104 298H290L284.517 303H206L211.104 298Z" fill="#F0F5FF"/>
<path d="M68.1647 373H148L142.451 379H63L68.1647 373Z" fill="#FEF2C9"/>
<g filter="url(#filter12_d)">
<path d="M403.458 256.278H554.618L505.65 316.217H356.996L403.458 256.278Z" fill="white"/>
</g>
<g filter="url(#filter13_d)">
<path d="M254.651 331.996H405.812L367.275 391.935H212.362L254.651 331.996Z" fill="white"/>
</g>
<g filter="url(#filter14_d)">
<path d="M433.163 331.996H584.324L535.356 391.935H397.133L433.163 331.996Z" fill="white"/>
</g>
<path d="M126.477 229.473C131.907 227.917 137.437 228.632 138.954 228.502C138.449 226.184 138.954 222.848 139.886 220.639C132.172 221.589 128.204 220.363 128.204 220.363L126.477 224.372C126.477 224.372 125.9 229.103 126.477 229.473Z" fill="#E6B1A0"/>
<path d="M110.277 233.06C110.277 233.06 111.214 234.295 112.126 233.976C116.72 232.387 121.419 231.124 126.189 230.193C128.294 230.199 130.802 222.304 129.043 220.065C127.64 218.825 126.081 217.777 124.403 216.947C123.292 217.021 121.058 219.221 121.058 219.221L111.91 228.296L110.277 233.06Z" fill="#121214"/>
<path d="M124.317 215.808L123.89 216.376C120.832 218.227 117.976 220.397 115.371 222.85C113.336 224.767 111.643 227.018 110.361 229.505C110.003 230.177 109.743 230.897 109.589 231.644L109.139 232.242L109.83 232.765C110.426 233.217 111.823 232.343 112.495 231.713C114.383 229.925 116.01 228.483 117.907 226.749C122.513 222.462 126.033 218.047 124.851 216.212L124.945 216.283L124.317 215.808Z" fill="#535359"/>
<path d="M123.659 215.945C125.026 217.672 121.261 222.293 116.535 226.646C114.622 228.431 112.92 229.872 111.015 231.713C109.791 232.857 106.465 234.437 108.826 229.469C110.107 226.923 111.849 224.631 113.965 222.71C115.943 220.773 122.783 214.836 123.659 215.945Z" fill="#939598"/>
<path d="M267.424 211.318C271.609 211.008 275.878 211.899 276.505 212.016C276.881 215.89 273.994 218.68 273.492 218.719C273.118 218.748 271.699 219.099 270.67 219.164C271.925 219.67 273.458 221.679 273.492 222.671C273.534 223.911 272.99 225.771 270.144 226.042C267.299 226.313 263.868 222.826 262.194 221.431C260.521 220.036 258.721 216.51 259.767 215.115C260.813 213.72 263.241 211.628 267.424 211.318Z" fill="#E6B1A0"/>
<path d="M335.078 245.294C330.864 245.627 313.952 243.964 307.282 243.868C304.918 244.867 304.918 253.279 305.057 254.847C305.197 256.416 312.705 255.333 319.929 254.847C328.407 254.276 332.253 253.461 336.468 253.136C342.027 252.708 363.014 249.714 365.237 249.714C367.462 249.714 367.601 248.859 368.573 246.006C369.547 243.155 366.906 242.871 364.265 243.298C361.624 243.726 340.499 244.867 335.078 245.294Z" fill="#E6B1A0"/>
<path d="M195.686 270.911C196.914 271.058 203.592 271.21 204.76 271.608L207.073 263.553L196.81 262.498C196.81 262.498 195.836 270.832 195.686 270.911Z" fill="#E6B1A0"/>
<path d="M178.604 273.442C178.604 273.442 180.146 275.595 181.682 274.878C186.072 272.782 190.786 271.465 195.617 270.981C199.519 270.985 201.308 262.182 199.583 261.142C197.88 259.76 195.956 258.677 193.895 257.943L186.621 266.395L178.604 273.442Z" fill="#121214"/>
<path d="M193.71 257.943L193.113 258.924C191.896 260.048 189.883 262.284 188.854 262.858C187.826 263.434 186.887 263.872 185.366 264.901C182.793 266.582 180.649 268.839 179.104 271.491C178.987 271.838 178.925 272.202 178.923 272.57L178.604 272.864L179.194 273.499C179.838 274.19 181.389 273.831 182.048 273.382C189.027 268.489 195.667 260.801 194.387 258.497L193.71 257.943Z" fill="#535359"/>
<path d="M193.228 257.01C194.568 259.475 188.212 267.197 181.607 272.24C180.629 272.947 177.866 273.352 178.791 270.376C180.253 267.642 182.282 265.316 184.717 263.583C186.212 262.467 187.012 262.269 188.018 261.478C189.025 260.685 192.506 255.746 193.228 257.01Z" fill="#939598"/>
<path d="M243.514 219.372C213.775 215.361 190.394 219.449 182.111 218.884C159.416 215.069 145.952 217.664 137.511 220.054C136.139 223.611 136.266 225.307 137.062 229.405C154.308 229.405 171.129 234.131 181.234 234.801C192.715 235.56 227.867 239.473 234.981 240.861L243.514 219.372Z" fill="#23242A"/>
<path d="M205.935 237.576C209.379 233.458 217.62 231.049 219.566 231.262C220.882 230.705 225.089 230.229 228.71 231.065C224.364 233.298 217.648 236.85 217.049 238.584C217.049 238.584 213.135 238.377 205.935 237.576Z" fill="#121214"/>
<path d="M253.764 223.122C252.159 222.858 244.489 218.745 239.707 221.075C234.401 223.746 237.122 228.753 232.246 229.79C227.994 228.649 223.417 228.298 218.038 231.864C214.137 234.451 211.956 238.648 212.692 245.164C213.151 249.24 218.912 256.883 224.193 260.084C232.246 264.965 234.81 266.074 244.743 266.608C230.373 258.626 218.134 262.561 206.446 262.193C205.305 264.37 203.939 269.078 205.495 271.859C223.955 273.403 236.337 276.524 254.454 276.129C258.507 276.041 264.526 273.822 264.526 265.607C264.526 257.393 251.627 251.013 249.897 249.628C251.826 249.217 267.429 235.111 267.429 235.111L253.764 223.122Z" fill="#23242A"/>
<path d="M299.342 238.855C302.194 237.545 303.788 236.909 309.563 236.683L307.223 231.308L301.26 226.057L294.759 227.736L298.769 242L299.342 238.855Z" fill="#BD8A7A"/>
<path d="M371.66 240.372L376.106 240.365C376.106 240.365 384.53 239.995 386.289 240.365C387.382 240.596 387.227 241.634 385.742 241.881C383.566 242.241 378.778 242.377 377.478 242.537C378.127 242.312 380.49 242.078 381.645 242.145C382.09 242.346 382.313 242.732 382.313 243.146C382.313 243.507 382.135 243.905 381.738 244.217C381.394 244.487 380.475 244.833 377.895 245.016C380.319 244.359 380.847 244.515 380.982 245.435C381.117 246.355 379.396 246.968 377.788 246.968C378.592 246.768 378.429 246.766 379.576 246.678C380.047 247.8 377.968 248.969 376.05 249.292C374.131 249.615 369.992 250.095 365.277 249.942C362.976 249.867 362.485 244.414 363.816 242.874C365.756 240.628 366.198 239.863 367.522 239.046C369.998 237.896 375.389 236.809 376.217 237.889C377.046 238.968 371.66 240.372 371.66 240.372Z" fill="#E6B1A0"/>
<path d="M291.403 256.796C260.492 254.706 242.032 248.718 234.35 247.409C231.949 243.881 230.339 240.191 231.242 231.022C231.793 225.426 235.359 220.423 238.08 219.108C238.08 219.108 270.158 218.91 277.836 217.973C280.591 217.636 283.083 216.547 288.653 217.101C292.768 217.511 297.034 224.145 297.034 226.046C296.613 228.381 296.161 230.564 296.377 232.985C296.696 236.553 299.314 244.349 299.314 244.349L296.737 252.953C296.007 254.265 294.032 256.973 291.403 256.796Z" fill="#4062EF"/>
<path d="M279.501 247.191C276.855 253.296 282.5 255.599 285.835 255.997C289.359 256.419 304.248 257.285 310.8 256.461C313.365 250.014 313.423 245.354 312.225 242.497C308.419 241.123 307.655 240.484 304.488 238.595C300.996 236.511 297.989 236.92 296.613 231.751C296.613 231.751 283.321 238.358 279.501 247.191Z" fill="#4062EF"/>
<path d="M275.535 211.253C275.535 211.253 285.965 213.126 291.343 217.938C287.783 219.969 286.37 222.866 285.384 223.06C284.154 223.304 271.079 225.678 269.849 220.2C268.863 215.818 273.23 212.409 275.535 211.253Z" fill="#4062EF"/>
<path d="M322.377 222.207C322.245 224.351 321.822 226.466 321.121 228.494C321.121 228.494 323.419 231.628 323.216 232.072C323.013 232.516 320.723 233.262 320.723 233.262C320.723 233.262 319.386 237.472 317.806 238.268C316.227 239.065 311.382 238.228 309.003 237.147C307.662 236.573 306.564 235.539 305.9 234.229C305.9 234.229 304.694 234.55 302.726 232.917L300.453 230.93L301.828 225.332L316.307 216.947C316.307 216.947 322.276 219.709 322.377 222.207Z" fill="#E6B1A0"/>
<path d="M315.739 225.262C315.961 229.713 309.704 230.528 309.704 230.528C309.143 231.179 308.511 231.764 307.818 232.272C307.24 232.7 304.586 227.919 302.347 229.926C301.48 230.567 301.842 231.589 302.49 232.597C303.139 233.605 297.287 232.285 296.024 224.29C295.219 218.586 298.47 214.192 300.009 214.391C309.159 197.987 325.08 217.151 324.343 220.377C323.769 222.885 321.379 224.755 315.739 225.262Z" fill="#131313"/>
<path d="M243.514 266.875C239.124 266.156 228.903 262.673 226.388 261.426C224.327 261.31 221.006 261.362 219.6 261.456C222.112 262.986 232.377 268.063 243.514 266.875Z" fill="#121214"/>
<path d="M309 131.5C309 130.672 309.733 130 310.639 130H335.362C336.267 130 337 130.672 337 131.5C337 132.328 336.267 133 335.362 133H310.639C309.733 133 309 132.328 309 131.5Z" fill="#2F54EB"/>
<path d="M164 290.5C164 289.672 164.79 289 165.764 289H175.237C176.21 289 177 289.672 177 290.5C177 291.328 176.21 292 175.237 292H165.764C164.79 292 164 291.328 164 290.5Z" fill="#2F54EB"/>
<path d="M35 340.5C35 339.672 35.7895 339 36.764 339H46.237C47.2105 339 48 339.672 48 340.5C48 341.328 47.2105 342 46.237 342H36.764C35.7895 342 35 341.328 35 340.5Z" fill="#FAAD14"/>
<path d="M121 185.5C121 184.672 121.758 184 122.693 184H171.307C172.242 184 173 184.672 173 185.5C173 186.328 172.242 187 171.307 187H122.693C121.758 187 121 186.328 121 185.5Z" fill="#55C674"/>
<path d="M318 196.5C318 195.672 318.765 195 319.707 195H333.293C334.235 195 335 195.672 335 196.5C335 197.328 334.235 198 333.293 198H319.707C318.765 198 318 197.328 318 196.5Z" fill="#EF6749"/>
<path d="M354 276.5C354 275.672 354.758 275 355.694 275H369.306C370.242 275 371 275.672 371 276.5C371 277.328 370.242 278 369.306 278H355.694C354.758 278 354 277.328 354 276.5Z" fill="#EF6749"/>
<path d="M205 352.5C205 351.672 205.758 351 206.694 351H220.306C221.242 351 222 351.672 222 352.5C222 353.328 221.242 354 220.306 354H206.694C205.758 354 205 353.328 205 352.5Z" fill="#EF6749"/>
<path d="M41 162.5C41 161.672 41.7638 161 42.7061 161H56.2939C57.2362 161 58 161.672 58 162.5C58 163.328 57.2362 164 56.2939 164H42.7061C41.7638 164 41 163.328 41 162.5Z" fill="#EF6749"/>
<path d="M414 203.001C414 201.895 414.752 201 415.681 201H437.32C438.248 201 439 201.895 439 203.001C439 204.105 438.248 205 437.32 205H415.681C414.752 205 414 204.105 414 203.001Z" fill="#FAAD14"/>
<path d="M274.772 346H356L350.873 351H270L274.772 346Z" fill="#FDEFF0"/>
<path d="M264.837 360H318L312.804 365H260L264.837 360Z" fill="#FDEFF0"/>
<path d="M253.74 375H327L321.909 381H249L253.74 375Z" fill="#FDEFF0"/>
<path d="M113 121C113 119.895 113.633 119 114.415 119H135.586C136.367 119 137 119.895 137 121C137 122.105 136.367 123 135.586 123H114.415C113.633 123 113 122.105 113 121Z" fill="#FAAD14"/>
<path fill-rule="evenodd" clip-rule="evenodd" d="M468 329.251C436.567 398.457 370.838 450.866 290.654 468H468V329.251ZM176.346 468C97.0027 451.045 31.813 399.552 0 331.423V468H176.346ZM468 144.749V0H233.5H0V142.577C39.1795 58.672 128.982 0 233.5 0C338.917 0 429.365 59.6859 468 144.749Z" fill="white"/>
<path d="M507 234C507 370.967 383.207 482 230.5 482C77.7933 482 -46 370.967 -46 234C-46 97.0334 77.7933 -14 230.5 -14C383.207 -14 507 97.0334 507 234Z" fill="url(#paint0_radial)"/>
</g>
<defs>
<filter id="filter0_d" x="101" y="256" width="263" height="65" filterUnits="userSpaceOnUse" color-interpolation-filters="sRGB">
<feFlood flood-opacity="0" result="BackgroundImageFix"/>
<feColorMatrix in="SourceAlpha" type="matrix" values="0 0 0 0 0 0 0 0 0 0 0 0 0 0 0 0 0 0 127 0"/>
<feOffset dy="10"/>
<feGaussianBlur stdDeviation="10"/>
<feColorMatrix type="matrix" values="0 0 0 0 0 0 0 0 0 0 0 0 0 0 0 0 0 0 0.1 0"/>
<feBlend mode="normal" in2="BackgroundImageFix" result="effect1_dropShadow"/>
<feBlend mode="normal" in="SourceGraphic" in2="effect1_dropShadow" result="shape"/>
</filter>
<filter id="filter1_d" x="-87.0771" y="85.9993" width="265.795" height="123.939" filterUnits="userSpaceOnUse" color-interpolation-filters="sRGB">
<feFlood flood-opacity="0" result="BackgroundImageFix"/>
<feColorMatrix in="SourceAlpha" type="matrix" values="0 0 0 0 0 0 0 0 0 0 0 0 0 0 0 0 0 0 127 0"/>
<feOffset dy="16"/>
<feGaussianBlur stdDeviation="16"/>
<feColorMatrix type="matrix" values="0 0 0 0 0 0 0 0 0 0 0 0 0 0 0 0 0 0 0.1 0"/>
<feBlend mode="normal" in2="BackgroundImageFix" result="effect1_dropShadow"/>
<feBlend mode="normal" in="SourceGraphic" in2="effect1_dropShadow" result="shape"/>
</filter>
<filter id="filter2_d" x="55.7231" y="14.5244" width="250.133" height="119.287" filterUnits="userSpaceOnUse" color-interpolation-filters="sRGB">
<feFlood flood-opacity="0" result="BackgroundImageFix"/>
<feColorMatrix in="SourceAlpha" type="matrix" values="0 0 0 0 0 0 0 0 0 0 0 0 0 0 0 0 0 0 127 0"/>
<feOffset dy="16"/>
<feGaussianBlur stdDeviation="16"/>
<feColorMatrix type="matrix" values="0 0 0 0 0 0 0 0 0 0 0 0 0 0 0 0 0 0 0.1 0"/>
<feBlend mode="normal" in2="BackgroundImageFix" result="effect1_dropShadow"/>
<feBlend mode="normal" in="SourceGraphic" in2="effect1_dropShadow" result="shape"/>
</filter>
<filter id="filter3_d" x="91.1035" y="85.9993" width="263.709" height="123.939" filterUnits="userSpaceOnUse" color-interpolation-filters="sRGB">
<feFlood flood-opacity="0" result="BackgroundImageFix"/>
<feColorMatrix in="SourceAlpha" type="matrix" values="0 0 0 0 0 0 0 0 0 0 0 0 0 0 0 0 0 0 127 0"/>
<feOffset dy="16"/>
<feGaussianBlur stdDeviation="16"/>
<feColorMatrix type="matrix" values="0 0 0 0 0 0 0 0 0 0 0 0 0 0 0 0 0 0 0.1 0"/>
<feBlend mode="normal" in2="BackgroundImageFix" result="effect1_dropShadow"/>
<feBlend mode="normal" in="SourceGraphic" in2="effect1_dropShadow" result="shape"/>
</filter>
<filter id="filter4_d" x="267.097" y="85.9993" width="265.795" height="123.939" filterUnits="userSpaceOnUse" color-interpolation-filters="sRGB">
<feFlood flood-opacity="0" result="BackgroundImageFix"/>
<feColorMatrix in="SourceAlpha" type="matrix" values="0 0 0 0 0 0 0 0 0 0 0 0 0 0 0 0 0 0 127 0"/>
<feOffset dy="16"/>
<feGaussianBlur stdDeviation="16"/>
<feColorMatrix type="matrix" values="0 0 0 0 0 0 0 0 0 0 0 0 0 0 0 0 0 0 0.1 0"/>
<feBlend mode="normal" in2="BackgroundImageFix" result="effect1_dropShadow"/>
<feBlend mode="normal" in="SourceGraphic" in2="effect1_dropShadow" result="shape"/>
</filter>
<filter id="filter5_d" x="-69.96" y="161.257" width="265.795" height="123.939" filterUnits="userSpaceOnUse" color-interpolation-filters="sRGB">
<feFlood flood-opacity="0" result="BackgroundImageFix"/>
<feColorMatrix in="SourceAlpha" type="matrix" values="0 0 0 0 0 0 0 0 0 0 0 0 0 0 0 0 0 0 127 0"/>
<feOffset dy="16"/>
<feGaussianBlur stdDeviation="16"/>
<feColorMatrix type="matrix" values="0 0 0 0 0 0 0 0 0 0 0 0 0 0 0 0 0 0 0.1 0"/>
<feBlend mode="normal" in2="BackgroundImageFix" result="effect1_dropShadow"/>
<feBlend mode="normal" in="SourceGraphic" in2="effect1_dropShadow" result="shape"/>
</filter>
<filter id="filter6_d" x="113.335" y="161.257" width="260.579" height="123.939" filterUnits="userSpaceOnUse" color-interpolation-filters="sRGB">
<feFlood flood-opacity="0" result="BackgroundImageFix"/>
<feColorMatrix in="SourceAlpha" type="matrix" values="0 0 0 0 0 0 0 0 0 0 0 0 0 0 0 0 0 0 127 0"/>
<feOffset dy="16"/>
<feGaussianBlur stdDeviation="16"/>
<feColorMatrix type="matrix" values="0 0 0 0 0 0 0 0 0 0 0 0 0 0 0 0 0 0 0.1 0"/>
<feBlend mode="normal" in2="BackgroundImageFix" result="effect1_dropShadow"/>
<feBlend mode="normal" in="SourceGraphic" in2="effect1_dropShadow" result="shape"/>
</filter>
<filter id="filter7_d" x="289.796" y="161.257" width="261.623" height="123.939" filterUnits="userSpaceOnUse" color-interpolation-filters="sRGB">
<feFlood flood-opacity="0" result="BackgroundImageFix"/>
<feColorMatrix in="SourceAlpha" type="matrix" values="0 0 0 0 0 0 0 0 0 0 0 0 0 0 0 0 0 0 127 0"/>
<feOffset dy="16"/>
<feGaussianBlur stdDeviation="16"/>
<feColorMatrix type="matrix" values="0 0 0 0 0 0 0 0 0 0 0 0 0 0 0 0 0 0 0.1 0"/>
<feBlend mode="normal" in2="BackgroundImageFix" result="effect1_dropShadow"/>
<feBlend mode="normal" in="SourceGraphic" in2="effect1_dropShadow" result="shape"/>
</filter>
<filter id="filter8_d" x="-34.7603" y="240.278" width="265.795" height="123.939" filterUnits="userSpaceOnUse" color-interpolation-filters="sRGB">
<feFlood flood-opacity="0" result="BackgroundImageFix"/>
<feColorMatrix in="SourceAlpha" type="matrix" values="0 0 0 0 0 0 0 0 0 0 0 0 0 0 0 0 0 0 127 0"/>
<feOffset dy="16"/>
<feGaussianBlur stdDeviation="16"/>
<feColorMatrix type="matrix" values="0 0 0 0 0 0 0 0 0 0 0 0 0 0 0 0 0 0 0.1 0"/>
<feBlend mode="normal" in2="BackgroundImageFix" result="effect1_dropShadow"/>
<feBlend mode="normal" in="SourceGraphic" in2="effect1_dropShadow" result="shape"/>
</filter>
<filter id="filter9_d" x="-183.566" y="315.996" width="265.795" height="123.939" filterUnits="userSpaceOnUse" color-interpolation-filters="sRGB">
<feFlood flood-opacity="0" result="BackgroundImageFix"/>
<feColorMatrix in="SourceAlpha" type="matrix" values="0 0 0 0 0 0 0 0 0 0 0 0 0 0 0 0 0 0 127 0"/>
<feOffset dy="16"/>
<feGaussianBlur stdDeviation="16"/>
<feColorMatrix type="matrix" values="0 0 0 0 0 0 0 0 0 0 0 0 0 0 0 0 0 0 0.1 0"/>
<feBlend mode="normal" in2="BackgroundImageFix" result="effect1_dropShadow"/>
<feBlend mode="normal" in="SourceGraphic" in2="effect1_dropShadow" result="shape"/>
</filter>
<filter id="filter10_d" x="145.405" y="240.278" width="263.71" height="123.939" filterUnits="userSpaceOnUse" color-interpolation-filters="sRGB">
<feFlood flood-opacity="0" result="BackgroundImageFix"/>
<feColorMatrix in="SourceAlpha" type="matrix" values="0 0 0 0 0 0 0 0 0 0 0 0 0 0 0 0 0 0 127 0"/>
<feOffset dy="16"/>
<feGaussianBlur stdDeviation="16"/>
<feColorMatrix type="matrix" values="0 0 0 0 0 0 0 0 0 0 0 0 0 0 0 0 0 0 0.1 0"/>
<feBlend mode="normal" in2="BackgroundImageFix" result="effect1_dropShadow"/>
<feBlend mode="normal" in="SourceGraphic" in2="effect1_dropShadow" result="shape"/>
</filter>
<filter id="filter11_d" x="3.1582" y="315.996" width="257.451" height="123.939" filterUnits="userSpaceOnUse" color-interpolation-filters="sRGB">
<feFlood flood-opacity="0" result="BackgroundImageFix"/>
<feColorMatrix in="SourceAlpha" type="matrix" values="0 0 0 0 0 0 0 0 0 0 0 0 0 0 0 0 0 0 127 0"/>
<feOffset dy="16"/>
<feGaussianBlur stdDeviation="16"/>
<feColorMatrix type="matrix" values="0 0 0 0 0 0 0 0 0 0 0 0 0 0 0 0 0 0 0.1 0"/>
<feBlend mode="normal" in2="BackgroundImageFix" result="effect1_dropShadow"/>
<feBlend mode="normal" in="SourceGraphic" in2="effect1_dropShadow" result="shape"/>
</filter>
<filter id="filter12_d" x="324.996" y="240.278" width="261.622" height="123.939" filterUnits="userSpaceOnUse" color-interpolation-filters="sRGB">
<feFlood flood-opacity="0" result="BackgroundImageFix"/>
<feColorMatrix in="SourceAlpha" type="matrix" values="0 0 0 0 0 0 0 0 0 0 0 0 0 0 0 0 0 0 127 0"/>
<feOffset dy="16"/>
<feGaussianBlur stdDeviation="16"/>
<feColorMatrix type="matrix" values="0 0 0 0 0 0 0 0 0 0 0 0 0 0 0 0 0 0 0.1 0"/>
<feBlend mode="normal" in2="BackgroundImageFix" result="effect1_dropShadow"/>
<feBlend mode="normal" in="SourceGraphic" in2="effect1_dropShadow" result="shape"/>
</filter>
<filter id="filter13_d" x="180.362" y="315.996" width="257.45" height="123.939" filterUnits="userSpaceOnUse" color-interpolation-filters="sRGB">
<feFlood flood-opacity="0" result="BackgroundImageFix"/>
<feColorMatrix in="SourceAlpha" type="matrix" values="0 0 0 0 0 0 0 0 0 0 0 0 0 0 0 0 0 0 127 0"/>
<feOffset dy="16"/>
<feGaussianBlur stdDeviation="16"/>
<feColorMatrix type="matrix" values="0 0 0 0 0 0 0 0 0 0 0 0 0 0 0 0 0 0 0.1 0"/>
<feBlend mode="normal" in2="BackgroundImageFix" result="effect1_dropShadow"/>
<feBlend mode="normal" in="SourceGraphic" in2="effect1_dropShadow" result="shape"/>
</filter>
<filter id="filter14_d" x="365.133" y="315.996" width="251.191" height="123.939" filterUnits="userSpaceOnUse" color-interpolation-filters="sRGB">
<feFlood flood-opacity="0" result="BackgroundImageFix"/>
<feColorMatrix in="SourceAlpha" type="matrix" values="0 0 0 0 0 0 0 0 0 0 0 0 0 0 0 0 0 0 127 0"/>
<feOffset dy="16"/>
<feGaussianBlur stdDeviation="16"/>
<feColorMatrix type="matrix" values="0 0 0 0 0 0 0 0 0 0 0 0 0 0 0 0 0 0 0.1 0"/>
<feBlend mode="normal" in2="BackgroundImageFix" result="effect1_dropShadow"/>
<feBlend mode="normal" in="SourceGraphic" in2="effect1_dropShadow" result="shape"/>
</filter>
<radialGradient id="paint0_radial" cx="0" cy="0" r="1" gradientUnits="userSpaceOnUse" gradientTransform="translate(230.5 234) rotate(90) scale(248 276.5)">
<stop offset="0.598958" stop-color="white" stop-opacity="0"/>
<stop offset="0.869792" stop-color="white"/>
</radialGradient>
<clipPath id="clip0">
<path d="M0 0H468V468H0V0Z" fill="white"/>
</clipPath>
</defs>
</svg>
