<svg width="468" height="468" viewBox="0 0 468 468" fill="none" xmlns="http://www.w3.org/2000/svg">
<g filter="url(#filter0_dd)">
<path d="M27.2056 44.2448C27.2056 42.0391 29.5078 40.251 32.3479 40.251H364.544C367.383 40.251 369.686 42.0391 369.686 44.2448V136.556C369.686 138.762 367.383 140.55 364.544 140.55H32.3479C29.5078 140.55 27.2056 138.762 27.2056 136.556V44.2448Z" fill="#F0F5FF"/>
</g>
<g style="mix-blend-mode:multiply">
<path d="M85.1895 73.7029C85.1895 72.0008 86.5708 70.6211 88.2748 70.6211H145.896C147.599 70.6211 148.981 72.0008 148.981 73.7029V105.876C148.981 107.578 147.599 108.958 145.896 108.958H88.2748C86.5708 108.958 85.1895 107.578 85.1895 105.876V73.7029Z" fill="#D6E4FF"/>
</g>
<path d="M96.8004 87.6861V89.5797H93.6857V87.6861H96.8004ZM93.6857 94.3678V92.2307H96.8004V94.3678H93.6857ZM99.752 97.127V84.9268H90.7607V98.7502H93.6857V97.127H99.752ZM104.817 93.7456C104.898 93.0964 104.925 92.4471 104.925 91.8249H109.773V93.7456H104.817ZM109.773 87.3344V89.1198H104.925V87.3344H109.773ZM112.942 84.5751H101.838V91.5004C101.838 94.5031 101.432 97.8033 97.5319 100.076C98.1273 100.536 99.265 101.78 99.6436 102.456C102.271 100.914 103.625 98.7231 104.303 96.4508H109.773V98.7772C109.773 99.156 109.638 99.2911 109.204 99.2911C108.798 99.2911 107.363 99.2911 106.117 99.2371C106.523 100.022 107.011 101.347 107.119 102.213C109.15 102.213 110.585 102.159 111.615 101.672C112.616 101.185 112.942 100.346 112.942 98.8313V84.5751ZM108.419 79.1377V77.2441H105.196V79.1377H98.4251V77.2441H95.2294V79.1377H89.894V82.0052H95.2294V83.8989H98.4251V82.0052H105.196V83.8989H108.419V82.0052H113.89V79.1377H108.419Z" fill="#4062EF"/>
<path d="M128.19 78.1914L127.675 81.3294C130.898 81.8703 135.962 82.4655 138.807 82.6819L139.239 79.5169C136.423 79.3275 131.223 78.7595 128.19 78.1914ZM140.188 86.7938L138.21 84.5485C137.912 84.6567 137.181 84.7919 136.666 84.846C134.419 85.1436 128.271 85.4141 126.998 85.4141C125.997 85.4412 125.022 85.3871 124.398 85.333L124.723 89.0661C125.292 88.985 126.104 88.8497 127.052 88.7685C128.596 88.6333 131.846 88.3357 133.742 88.2816C131.278 90.8786 125.725 96.3971 124.344 97.8038C123.613 98.5071 122.963 99.0751 122.475 99.4809L125.671 101.726C127.539 99.3457 129.571 97.1274 130.492 96.1807C131.142 95.5315 131.71 95.0986 132.279 95.0986C132.821 95.0986 133.417 95.4502 133.715 96.3971C133.904 97.0734 134.229 98.3448 134.5 99.1564C135.178 100.915 136.559 101.483 139.131 101.483C140.54 101.483 143.33 101.293 144.44 101.077L144.657 97.5332C143.302 97.8037 141.434 98.0201 139.348 98.0201C138.292 98.0201 137.696 97.5873 137.452 96.7488C137.209 96.0454 136.911 95.0174 136.666 94.2871C136.314 93.2861 135.827 92.691 135.042 92.4475C134.744 92.3394 134.256 92.2311 134.012 92.2582C134.663 91.5548 137.181 89.2284 138.427 88.1734C138.915 87.7676 139.484 87.2807 140.188 86.7938Z" fill="#4062EF"/>
<g filter="url(#filter1_dd)">
<path d="M67.1914 134.717C67.1914 131.881 69.4937 129.581 72.3338 129.581H433.324C436.164 129.581 438.466 131.881 438.466 134.717V293.945C438.466 296.782 436.164 299.082 433.324 299.082H72.3338C69.4937 299.082 67.1914 296.782 67.1914 293.945V134.717Z" fill="white"/>
<path d="M113.596 113.078C114.801 111.874 116.755 111.874 117.959 113.078L134.482 129.581H97.0732L113.596 113.078Z" fill="white"/>
</g>
<path d="M107.676 168.859V170.82H104.454V168.859H107.676ZM104.454 175.778V173.566H107.676V175.778H104.454ZM110.73 178.637V166.002H101.428V180.317H104.454V178.637H110.73ZM115.97 175.134C116.053 174.462 116.081 173.789 116.081 173.145H121.096V175.134H115.97ZM121.096 168.495V170.344H116.081V168.495H121.096ZM124.374 165.637H112.888V172.809C112.888 175.919 112.467 179.337 108.433 181.69C109.049 182.167 110.226 183.455 110.618 184.156C113.336 182.559 114.737 180.289 115.437 177.936H121.096V180.345C121.096 180.738 120.956 180.878 120.508 180.878C120.087 180.878 118.603 180.878 117.314 180.822C117.734 181.634 118.238 183.007 118.35 183.904C120.452 183.904 121.937 183.847 123.001 183.343C124.038 182.838 124.374 181.97 124.374 180.401V165.637ZM119.695 160.006V158.045H116.361V160.006H109.358V158.045H106.051V160.006H100.532V162.976H106.051V164.936H109.358V162.976H116.361V164.936H119.695V162.976H125.354V160.006H119.695Z" fill="#1D39C4"/>
<path d="M140.147 159.025L139.615 162.275C142.949 162.835 148.187 163.451 151.129 163.676L151.578 160.398C148.664 160.202 143.285 159.613 140.147 159.025ZM152.558 167.935L150.513 165.609C150.205 165.721 149.449 165.861 148.916 165.917C146.591 166.225 140.231 166.506 138.914 166.506C137.878 166.533 136.869 166.477 136.225 166.421L136.561 170.288C137.149 170.203 137.989 170.063 138.97 169.98C140.567 169.84 143.93 169.532 145.89 169.475C143.341 172.165 137.597 177.88 136.169 179.337C135.412 180.065 134.74 180.653 134.236 181.074L137.541 183.399C139.475 180.934 141.575 178.637 142.529 177.656C143.201 176.983 143.789 176.535 144.378 176.535C144.938 176.535 145.554 176.9 145.863 177.88C146.059 178.581 146.394 179.897 146.675 180.738C147.375 182.559 148.804 183.146 151.465 183.146C152.923 183.146 155.809 182.95 156.957 182.727L157.181 179.056C155.78 179.337 153.847 179.561 151.69 179.561C150.597 179.561 149.98 179.112 149.728 178.244C149.476 177.516 149.168 176.451 148.916 175.695C148.552 174.658 148.048 174.041 147.235 173.789C146.927 173.678 146.423 173.566 146.171 173.593C146.843 172.865 149.449 170.455 150.738 169.363C151.242 168.943 151.83 168.439 152.558 167.935Z" fill="#1D39C4"/>
<path d="M284.925 204.415C284.925 203.311 284.03 202.415 282.925 202.415H101.832C100.727 202.415 99.832 203.311 99.832 204.415V212.642C99.832 213.747 100.727 214.642 101.832 214.642H282.925C284.03 214.642 284.925 213.747 284.925 212.642V204.415Z" fill="#D6E4FF"/>
<path d="M374.96 230.138C374.96 229.034 374.064 228.138 372.96 228.138H101.832C100.727 228.138 99.832 229.034 99.832 230.138V238.365C99.832 239.469 100.727 240.365 101.832 240.365H372.96C374.064 240.365 374.96 239.469 374.96 238.365V230.138Z" fill="#D6E4FF"/>
<path d="M326.565 255.861C326.565 254.757 325.669 253.861 324.565 253.861H101.832C100.727 253.861 99.832 254.757 99.832 255.861V264.088C99.832 265.192 100.727 266.088 101.832 266.088H324.565C325.669 266.088 326.565 265.192 326.565 264.088V255.861Z" fill="#D6E4FF"/>
<g style="mix-blend-mode:multiply">
<g style="mix-blend-mode:multiply">
<path d="M423.489 185.879C424.621 174.88 423.508 144.105 421.967 134C412.733 134.553 410.726 138.399 409.227 140.206C407.728 142.013 414.084 191.819 415.856 196.467C417.627 201.115 427.596 203.538 428.927 200.933C432.783 193.385 425.135 190.098 423.489 185.879Z" fill="#EAEDF3"/>
</g>
</g>
<g style="mix-blend-mode:multiply">
<g style="mix-blend-mode:multiply">
<path d="M356.588 129.463C358.074 124.63 371.542 122.559 376 121.572C365.937 120.684 344.716 120.172 340.333 125.222C334.852 131.535 347.856 161.225 350.829 170.595C353.801 179.965 352.965 183.517 352.315 188.153C351.664 192.789 345.812 194.663 343.398 197.918C340.982 201.173 348.599 202.85 351.758 201.568C354.915 200.286 355.38 198.214 359.468 197.918C363.555 197.623 362.254 192.592 362.254 190.914C362.254 189.238 361.511 188.252 362.254 184.996C362.997 181.741 360.211 158.758 359.468 150.966C358.725 143.175 355.102 134.296 356.588 129.463Z" fill="#EAEDF3"/>
</g>
</g>
<path d="M359.638 190.865C357.927 192.439 356.409 194.21 355.116 196.138C352.97 199.334 347.28 199.503 347.029 203.865C346.779 208.227 354.773 208.353 358.969 206.941C363.165 205.529 363.791 201.257 366.336 200.197C368.879 199.14 370.188 198.268 369.992 196.189C369.796 194.11 368.394 190.736 368.394 190.736C367.577 190.997 366.741 191.196 365.893 191.334C364.949 191.439 361.832 191.474 359.638 190.865Z" fill="#292C47"/>
<path d="M388.391 72.6996C388.391 72.6996 386.785 82.1887 385.489 88.4559C384.961 90.9987 384.487 93.009 384.192 93.6433C383.821 94.439 380.804 97.6549 377.111 101.421C370.631 108.042 362.067 116.378 362.067 116.378L358.721 110.076C358.721 110.076 366.326 101.227 371.481 95.3215C373.869 92.5992 375.732 90.4872 376.063 90.1881C377.139 89.2308 378.389 79.8015 380.15 72.0325C381.91 64.2636 385.44 59.9737 385.44 59.9737L388.391 72.6996Z" fill="#FFC53D"/>
<path d="M377.111 101.431C370.631 108.05 362.067 116.388 362.067 116.388L358.721 110.084C358.721 110.084 366.326 101.236 371.481 95.3306C373.064 96.0995 375.963 97.9333 377.111 101.431Z" fill="#E6B1A0"/>
<path d="M418.672 188.268C418.672 188.268 420.873 190.683 422.174 192.157C423.477 193.632 428.46 196.237 428.486 200.587C428.517 205.301 424.809 204.889 421.511 204.716C418.214 204.542 415.534 202.283 414.145 199.612C412.755 196.941 409.063 196.241 408.804 194.086C408.545 191.932 410.516 188.058 410.516 188.058L418.672 188.268Z" fill="#292C47"/>
<path d="M410.941 184.035L410.516 188.05C410.516 188.05 417.397 191.042 418.672 188.268L418.371 184.678L410.941 184.035Z" fill="#B57D6B"/>
<path d="M360.012 187.96L359.638 190.865C362.495 191.72 365.549 191.676 368.38 190.736L368.472 188.151L360.012 187.96Z" fill="#B57D6B"/>
<path d="M419.061 115.107C419.299 115.951 375.001 115.107 375.001 115.107C375.001 115.107 387.257 106.255 388.05 103.889C388.842 101.524 384.93 87.3373 384.433 82.7215C384.023 79.027 382.998 62.4989 385.452 59.986C388.017 57.3475 397.249 56.2734 397.249 56.2734L410.435 55.7669C415.962 56.9454 424.634 58.4967 426.674 64.7215C428.151 69.2267 417.611 83.7056 417.611 83.7056C417.611 83.7056 417.589 84.3578 417.557 85.4228C417.517 86.8438 417.457 89.0126 417.403 91.349C417.33 94.3855 417.27 97.7299 417.27 100.171C417.258 105.902 418.822 114.262 419.061 115.107Z" fill="#FFC53D"/>
<path d="M419.061 115.107C419.061 115.107 425.089 123.891 425.171 129.885C425.253 135.88 422.941 152.507 422.76 155.8C422.579 159.094 419.468 186.541 419.468 186.541C419.468 186.541 417.056 188.764 409.822 185.98C409.822 185.98 408.228 159.954 408.056 157.162C407.885 154.371 407.887 141.541 406.269 139.683C404.649 137.825 394.868 131.997 393.59 130.899C392.313 129.802 370.091 135.061 367.761 135.659C361.732 137.212 364.478 147.625 365.811 152.301C368.044 160.115 369.997 188.334 369.997 188.334C369.997 188.334 365.7 190.15 358.502 188.615C358.502 188.615 344.368 137.663 343.916 132.596C343.463 127.528 343.237 119.172 378.067 112.821L419.061 115.107Z" fill="#292C47"/>
<path d="M400.936 25.5383C400.936 25.5383 389.246 22.9207 391.917 37.5194C394.587 52.118 397.397 53.2637 404.448 50.2423C411.498 47.2209 410.868 37.8694 411.223 33.2833C411.58 28.6974 404.661 25.6969 400.936 25.5383Z" fill="#E6B1A0"/>
<path d="M399.16 58.0753C399.16 58.0753 405.717 60.9039 411.01 57.3338C411.01 57.3338 409.37 47.0115 410.332 41.2617C411.293 35.5121 399.659 50.1705 399.659 50.1705C399.812 50.2482 399.914 50.7988 399.936 51.5795C399.954 52.3603 399.913 53.1411 399.816 53.9159C399.573 55.8275 399.449 56.5786 399.16 58.0753Z" fill="#E6B1A0"/>
<path d="M410.654 40.775C410.654 40.775 410.353 36.174 408.659 36.0304C406.965 35.8868 406.706 37.7416 406.706 37.7416L405 38.0616C405 38.0616 405.539 34.0291 403.85 33.3261C402.162 32.6231 392.901 35.5428 391.544 34.3612C390.187 33.1795 390.826 25.0007 393.277 23.8909C395.727 22.781 402.509 20.2651 407.474 23.5917C407.474 23.5917 411.345 23.1519 411.917 26.2511C412.489 29.3504 411.706 38.4685 410.654 40.775Z" fill="#131313"/>
<path d="M399.629 55.3324C408.069 52.7506 408.891 46.2906 408.9 46.2128C406.121 50.9513 399.936 51.5795 399.936 51.5795C399.954 52.3603 399.913 53.1412 399.816 53.916L399.629 55.3324Z" fill="#B57D6B"/>
<path d="M369.935 114.488C369.935 114.488 400.527 118.231 419.067 115.108L383.646 110.716C383.646 110.716 383.439 111.611 369.935 114.488Z" fill="#FFC53D"/>
<path d="M428.21 101.974C427.754 102.498 421.738 104.901 414.946 107.497C405.669 111.048 395.2 114.419 395.2 114.419L392.815 109.334C392.815 109.334 403.779 103.42 411.187 99.2729C414.687 97.3141 417.395 95.7494 417.777 95.3845C418.967 94.2597 419.284 92.4528 418.401 89.3057C417.518 86.1587 415.507 71.6826 415.281 69.9925C415.055 68.3023 415.848 63.8 420.105 63.5757C424.36 63.3513 426.524 64.542 426.524 64.542C426.524 64.542 427.592 64.9818 428.384 75.2306C429.177 85.4796 429.292 100.737 428.21 101.974Z" fill="#FFC53D"/>
<path d="M417.545 85.4017C417.505 86.8226 417.445 88.9915 417.39 91.3279C413.237 81.2255 415.636 73.1664 415.678 73.0288C415.227 75.781 417.515 85.273 417.545 85.4017Z" fill="#FAAD14"/>
<path d="M385.488 88.4559C384.961 90.9987 384.487 93.009 384.192 93.6431C382.775 86.8315 384.05 78.1083 384.05 78.1083C384.242 82.2754 385.488 88.4559 385.488 88.4559Z" fill="#FAAD14"/>
<path d="M392.156 114.811L348.675 114.177L370.627 125.24L392.156 114.811Z" fill="#A1AAB8"/>
<path d="M370.627 125.24L392.156 116.965V114.811L368.925 123.13L370.627 125.24Z" fill="#718097"/>
<path d="M392.815 109.333L390.53 110.479C390.53 110.479 391.048 114.07 392.297 115.158L394.856 114.512C394.856 114.512 394.328 110.572 392.815 109.333Z" fill="#E6B1A0"/>
<path d="M414.946 107.497C405.665 111.048 394.86 114.512 394.86 114.512L392.815 109.334C392.815 109.334 403.779 103.42 411.188 99.2731C411.188 99.2731 413.886 100.578 414.946 107.497Z" fill="#E6B1A0"/>
<path d="M391.028 110.558C391.028 110.558 388.315 110.139 386.434 109.705C384.981 109.367 381.37 109.83 380.45 110.755C379.531 111.68 376.604 118.129 376.05 118.533C375.495 118.936 376.333 119.838 377.307 119.38C377.307 119.38 378.212 122.2 380.4 121.145C382.588 120.088 384.097 117.782 385.253 117.379C386.407 116.974 393.12 114.922 393.12 114.922C393.12 114.922 392.758 109.87 391.028 110.558Z" fill="#E6B1A0"/>
<path d="M381.114 110.334C381.114 110.334 379.368 111.171 378.913 111.53C378.459 111.889 376.611 113.274 376.165 113.597C375.719 113.92 376.839 114.839 380.141 113.421C383.441 112.003 381.114 110.334 381.114 110.334Z" fill="#E6B1A0"/>
<path d="M370.628 125.24L357.693 90.1937L316 90.8699L328.326 123.166L370.628 125.24Z" fill="#BBC3D0"/>
<path d="M344.353 105.7C345.624 108.224 345.242 110.974 343.496 111.838C341.751 112.703 339.301 111.363 338.028 108.847C336.756 106.33 337.142 103.572 338.887 102.708C340.632 101.843 343.08 103.175 344.353 105.7Z" fill="white"/>
<path d="M407.202 35.584C407.357 34.2947 409.916 33.822 410.13 35.7545C410.343 37.687 408.963 41.0734 407.989 40.7413C407.016 40.4093 406.991 37.3579 407.202 35.584Z" fill="#E6B1A0"/>
<path d="M69.7443 96.6131C69.7443 95.5851 70.7734 94.9359 72.3171 94.9359C73.0484 94.9359 73.7796 95.0441 74.4838 95.2335C74.4838 95.4229 74.4838 95.5851 74.4838 95.7204C74.4838 97.3164 73.9151 98.1821 72.263 98.1821C70.8276 98.1821 69.7443 97.7222 69.7443 96.6131ZM77.7879 78.9484H73.9151C74.0233 79.4895 74.1047 80.3281 74.1047 80.7338C74.1047 81.3019 74.1317 82.411 74.1317 83.7366C73.5088 83.7636 72.8588 83.7636 72.2359 83.7636C70.6109 83.7636 69.0401 83.6824 67.4963 83.5202V86.7393C69.0943 86.8475 70.638 86.9016 72.2359 86.9016C72.8588 86.9016 73.5088 86.9015 74.1588 86.8745C74.1859 88.7952 74.2942 90.77 74.3484 92.4472C73.8067 92.366 73.2109 92.3389 72.5879 92.3389C68.9047 92.3389 66.5756 94.2326 66.5756 96.9648C66.5756 99.8052 68.9047 101.374 72.6422 101.374C76.2984 101.374 77.7609 99.5347 77.9233 96.9377C79.0067 97.6681 80.09 98.615 81.2275 99.67L83.0961 96.8295C81.7962 95.6393 80.09 94.2596 77.8421 93.3399C77.7337 91.5003 77.5983 89.3362 77.5442 86.7123C79.0338 86.604 80.4421 86.4417 81.742 86.2523V82.8709C80.4421 83.1414 79.0338 83.3579 77.5442 83.493C77.5713 82.3028 77.5983 81.3019 77.6254 80.7067C77.6525 80.1116 77.7066 79.4624 77.7879 78.9484ZM64.5713 79.2459L60.8339 78.9214C60.8068 79.787 60.6714 80.815 60.5631 81.5724C60.2652 83.6554 59.4526 88.7681 59.4526 92.853C59.4526 96.532 59.9672 99.6158 60.536 101.509L63.5964 101.266C63.5693 100.887 63.5422 100.427 63.5422 100.157C63.5422 99.8592 63.5964 99.2642 63.6777 98.8854C64.0026 97.4246 64.8693 94.6654 65.6276 92.4472L63.9756 91.0946C63.5693 92.0144 63.1089 92.9341 62.7568 93.8809C62.6756 93.3399 62.6484 92.6636 62.6484 92.1225C62.6484 89.4174 63.5422 83.466 63.9485 81.6536C64.0297 81.1666 64.3547 79.787 64.5713 79.2459Z" fill="#CBD4F7"/>
<path d="M164.318 78.4343L160.744 78.1367C160.689 79.1106 160.5 80.1656 160.202 81.2476C159.769 81.2476 159.308 81.2476 158.902 81.2476C157.521 81.2476 155.517 81.1394 154.135 80.923V84.088C155.625 84.1963 157.602 84.2503 158.713 84.2503C158.821 84.2503 158.929 84.2503 159.065 84.2503C157.846 86.6849 155.923 89.0926 153.079 91.7166L155.977 93.8807C156.898 92.6905 157.683 91.7166 158.496 90.905C159.525 89.9042 161.204 89.0385 162.72 89.0385C163.479 89.0385 164.21 89.282 164.617 89.9582C161.529 91.5542 158.279 93.7184 158.279 97.181C158.279 100.671 161.421 101.699 165.673 101.699C168.218 101.699 171.549 101.482 173.337 101.239L173.445 97.7491C171.062 98.209 168.056 98.5065 165.754 98.5065C163.1 98.5065 161.827 98.1007 161.827 96.6129C161.827 95.2603 162.91 94.2053 164.941 93.0421C164.915 94.2324 164.887 95.5308 164.806 96.3424H168.056C168.029 95.098 167.975 93.0962 167.948 91.5814C169.599 90.8239 171.143 90.2287 172.362 89.7418C173.283 89.3901 174.719 88.8491 175.585 88.6056L174.231 85.4677C173.229 85.9816 172.281 86.4144 171.225 86.8743C170.114 87.3613 168.977 87.8212 167.569 88.4704C166.973 87.0907 165.619 86.3874 163.966 86.3874C163.073 86.3874 161.61 86.6038 160.906 86.9285C161.447 86.144 161.99 85.1701 162.45 84.1692C165.375 84.088 168.706 83.8716 171.279 83.4928L171.306 80.3549C168.923 80.7607 166.214 81.0042 163.642 81.1394C163.994 80.0032 164.183 79.1106 164.318 78.4343Z" fill="#CBD4F7"/>
<path d="M194.408 90.6347H191.943V88.9305H194.408V90.6347ZM188.639 82.2757H197.549C197.983 84.8998 198.687 87.2803 199.581 89.228C198.795 90.0125 197.955 90.7158 197.034 91.311V86.8745H189.37V92.7176H194.732L192.891 94.2596C194.38 95.1523 196.141 96.5319 196.927 97.5598L199.147 95.6662C198.335 94.7195 196.737 93.5021 195.301 92.7176H197.034V92.2307C197.631 92.7718 198.308 93.4751 198.632 93.9349C199.527 93.3398 200.366 92.6365 201.179 91.8519C202.343 93.3127 203.724 94.1784 205.268 94.1784C207.407 94.1784 208.356 93.2857 208.816 89.4444C208.058 89.2009 207.055 88.6328 206.378 88.0377C206.243 90.3641 206.026 91.2569 205.431 91.2839C204.673 91.2839 203.914 90.6617 203.183 89.5797C204.482 87.8213 205.566 85.8465 206.324 83.6554L203.345 82.9521C202.939 84.2235 202.37 85.4137 201.693 86.5228C201.26 85.2514 200.854 83.8177 200.582 82.2757H207.95V79.7328H205.457L206.27 78.759C205.431 78.0828 203.779 77.3523 202.506 76.9736L200.908 78.732C201.612 79.0025 202.397 79.3542 203.101 79.7328H200.204C200.122 78.9214 200.068 78.0556 200.041 77.217H197.034C197.062 78.0556 197.116 78.8942 197.197 79.7328H185.687V83.7906C185.687 86.5228 185.443 90.31 183.223 92.9882C183.846 93.3127 185.091 94.3678 185.551 94.9359C188.124 91.8791 188.639 87.172 188.639 83.8447V82.2757ZM197.225 83.5201H189.262V85.576H197.225V83.5201ZM186.12 101.915C187.962 100.481 189.018 98.2361 189.641 95.9909L186.771 94.9629C186.229 96.9647 185.064 98.8854 183.466 100.13L186.12 101.915ZM195.058 99.2641C193.812 99.2641 193.596 99.183 193.596 98.4525V94.99H190.4V98.4797C190.4 101.266 191.212 102.132 194.706 102.132H199.039C201.666 102.132 202.56 101.32 202.912 97.9927C202.072 97.8033 200.691 97.3434 200.095 96.8565C199.959 98.9936 199.77 99.2641 198.741 99.2641H195.058ZM201.748 95.9098C203.507 97.614 205.268 99.9945 205.864 101.645L208.789 100.184C208.085 98.4255 206.216 96.1532 204.456 94.5571L201.748 95.9098Z" fill="#CBD4F7"/>
<path d="M230.618 81.0044L228.262 82.0052C229.237 83.3849 229.941 84.6834 230.753 86.4146L233.164 85.3596C232.568 84.1152 231.376 82.1405 230.618 81.0044ZM234.247 79.5165L231.917 80.5986C232.92 81.9511 233.651 83.1955 234.518 84.8998L236.874 83.7636C236.278 82.5463 235.033 80.6256 234.247 79.5165ZM223.63 78.8403L219.27 78.7861C219.487 79.8411 219.595 81.1396 219.595 82.438C219.595 84.7645 219.351 91.8791 219.351 95.504C219.351 100.103 222.195 102.05 226.636 102.05C232.812 102.05 236.657 98.4526 238.418 95.8557L235.953 92.853C233.976 95.8015 231.159 98.3985 226.69 98.3985C224.578 98.3985 222.927 97.5058 222.927 94.7736C222.927 91.3922 223.142 85.3596 223.278 82.438C223.333 81.356 223.468 79.9764 223.63 78.8403Z" fill="#CBD4F7"/>
<path d="M249.91 99.8289C249.91 101.101 248.878 102.131 247.605 102.131C246.331 102.131 245.299 101.101 245.299 99.8289C245.299 98.5572 246.331 97.5264 247.605 97.5264C248.878 97.5264 249.91 98.5572 249.91 99.8289Z" fill="#CBD4F7"/>
<path d="M260.188 99.8289C260.188 101.101 259.156 102.131 257.882 102.131C256.609 102.131 255.577 101.101 255.577 99.8289C255.577 98.5572 256.609 97.5264 257.882 97.5264C259.156 97.5264 260.188 98.5572 260.188 99.8289Z" fill="#CBD4F7"/>
<path d="M270.465 99.8289C270.465 101.101 269.432 102.131 268.16 102.131C266.886 102.131 265.854 101.101 265.854 99.8289C265.854 98.5572 266.886 97.5264 268.16 97.5264C269.432 97.5264 270.465 98.5572 270.465 99.8289Z" fill="#CBD4F7"/>
<g style="mix-blend-mode:multiply">
<g style="mix-blend-mode:multiply">
<path d="M74 448.882C107.137 448.882 134 444.329 134 438.713C134 433.097 107.137 428.545 74 428.545C40.8629 428.545 14 433.097 14 438.713C14 444.329 40.8629 448.882 74 448.882Z" fill="#F0F5FF"/>
</g>
</g>
<path d="M107.165 184.869C111.666 193.33 108.428 203.861 99.9313 208.391C91.435 212.922 80.8985 209.736 76.3975 201.275C71.8965 192.816 75.1354 182.283 83.6316 177.753C92.128 173.222 102.664 176.408 107.165 184.869Z" fill="#E3EBF7" fill-opacity="0.8"/>
<path fill-rule="evenodd" clip-rule="evenodd" d="M84.3715 178.304C76.3632 182.582 73.3104 192.528 77.5529 200.516C81.7953 208.505 91.7264 211.513 99.7348 207.236C107.743 202.958 110.796 193.012 106.553 185.023C102.311 177.034 92.3797 174.025 84.3715 178.304ZM72.8197 203.045C67.1925 192.448 71.2417 179.257 81.864 173.583C92.4864 167.907 105.659 171.898 111.287 182.495C116.914 193.091 112.864 206.283 102.242 211.957C91.6199 217.633 78.4469 213.642 72.8197 203.045Z" fill="#292C47"/>
<path fill-rule="evenodd" clip-rule="evenodd" d="M112.39 231.211C111.076 231.914 109.446 231.42 108.75 230.108L97.894 209.651L102.653 207.106L113.509 227.564C114.206 228.875 113.705 230.508 112.39 231.211Z" fill="#292C47"/>
<path d="M41.6166 417.372L38.4248 425.452L39.3941 429.928L47.0164 435.425L51.1682 434.38L45.0724 424.727L47.0164 419.533L41.6166 417.372Z" fill="#E6B1A0"/>
<path d="M88.1675 415.248L86.2124 423.45L87.562 427.806L97.0891 432.239L100.018 430.025L92.6382 421.737L93.7827 416.49L88.1675 415.248Z" fill="#E6B1A0"/>
<path d="M37.8406 433.706C35.6291 432.672 34.6398 430.04 35.6127 427.78L36.4822 425.759C37.2094 424.071 39.214 423.146 40.7266 424.174C42.8511 425.614 41.2137 426.489 44.0349 429.871C44.6733 430.715 45.5186 431.375 46.4869 431.787C47.4552 432.198 48.5131 432.348 49.5558 432.22C49.5558 432.22 55.4942 438.168 56.3025 439.726C56.6307 440.358 56.4545 441.116 56.1296 441.795C55.5655 442.971 54.078 443.136 52.9667 442.466L40.3868 434.899L37.8406 433.706Z" fill="#23242A"/>
<path d="M87.1514 431.513C84.8446 430.751 83.5727 428.295 84.2869 425.985L84.9254 423.918C85.4593 422.191 87.3444 421.068 88.9575 421.899C91.2232 423.068 89.6968 424.102 92.8676 427.085C93.5939 427.836 94.5049 428.386 95.5103 428.679C96.5159 428.972 97.5811 429 98.6005 428.759C98.6005 428.759 105.146 433.896 106.119 435.323C106.515 435.903 106.424 436.661 106.177 437.359C105.748 438.569 104.291 438.895 103.116 438.366L89.8075 432.392L87.1514 431.513Z" fill="#23242A"/>
<path d="M63.4745 257.207L60.7256 265.513C64.0927 264.887 67.5369 264.794 70.9327 265.237C71.4825 265.237 73.9686 258.045 73.9686 258.045C73.9686 258.045 79.4785 256.115 81.9645 253.623C81.9645 247.809 70.6578 238.965 70.6578 238.965L61.2753 251.729L63.4745 257.207Z" fill="#E6B1A0"/>
<path d="M69.0717 246.752C69.0717 246.752 65.8054 248.163 66.1003 250.085C66.395 252.008 70.7344 255.147 70.7344 255.147C70.7344 255.147 66.9021 258.604 64.4494 259.115C61.9966 259.626 56.0062 252.653 54.6502 249.562C53.2941 246.472 56.8199 240.57 60.6405 238.611C64.4612 236.652 66.1003 226.528 70.7108 232.149C75.3215 237.771 69.0717 246.752 69.0717 246.752Z" fill="#131313"/>
<path d="M25.7071 333.478C25.7071 333.478 23.617 345.58 25.2321 347.073C26.8472 348.565 29.9467 341.628 29.9467 341.628C29.9467 341.628 29.9467 346.081 31.2412 346.081C32.5358 346.081 31.8944 334.714 31.8944 334.714L25.7071 333.478Z" fill="#E6B1A0"/>
<path d="M102.142 228.963C102.142 228.963 102.719 221.112 103.927 220.819C104.23 221.669 104.866 222.478 105.192 222.912C105.67 223.546 106.409 223.112 106.409 223.112C106.409 223.112 107.544 219.983 107.966 218.107C108.092 217.548 109.164 217.501 109.269 218.668C109.356 219.625 108.972 220.974 108.193 223.112C108.614 221.672 109.304 219.04 109.604 218.626C109.847 218.292 110.951 218.27 110.658 219.915C110.281 222.037 109.522 223.37 109.425 223.832C109.604 223.029 109.824 221.476 110.658 220.736C111.032 220.454 111.494 220.598 111.551 221.104C111.712 222.543 110.895 224.101 110.837 224.284C110.991 223.832 111.311 223.053 111.506 222.239C112.708 226.274 107.901 231.531 107.901 231.531L102.142 228.963Z" fill="#E6B1A0"/>
<path d="M71.1206 265.173C67.6406 264.376 64.0131 264.472 60.5814 265.455C55.7313 267.145 46.3274 277.898 46.3274 277.898L24.6196 306.481L25.4712 334.757L32.3081 335.602L36.8619 309.885L44.5627 300.565C44.5627 300.565 42.5634 322.045 42.8473 325.438C56.2373 326.283 75.0451 319.217 75.0451 319.217C75.0451 319.217 75.329 300.271 76.7605 294.344C78.1921 288.417 100.974 255.891 100.974 255.891L109.575 229.83L102.455 227.283L89.6323 251.028L71.1206 265.173Z" fill="#FA541C"/>
<path d="M45.8583 291L44.7882 300.842L36.3008 310.115L45.8583 291Z" fill="#D4380D"/>
<path d="M43.0349 326.163C43.0349 326.163 41.9086 335.918 45.2629 344.367C47.6889 350.478 53.529 365.122 56.5758 372.76C57.8013 375.832 57.6825 379.279 56.2515 382.26L39.4868 417.181L47.6848 420.558L70.2613 385.574C71.3383 383.905 71.977 381.987 72.1174 380.002L74.5311 345.867L64.2745 323.92L43.0349 326.163Z" fill="#23242A"/>
<path d="M42.6724 325.475C42.6724 325.475 42.6852 337.666 49.6399 342.421C54.7639 345.924 75.5201 360.878 86.092 368.507C89.8994 371.255 91.7175 376.012 90.7769 380.647C89.7095 385.907 88.3642 392.696 87.6402 396.97C86.3202 404.763 86.5157 416.73 86.5157 416.73L94.4116 418.434L106.95 376.376C107.944 373.042 107.444 369.434 105.583 366.504L74.4764 317.549L42.6724 325.475Z" fill="#404257"/>
<defs>
<filter id="filter0_dd" x="7.20557" y="30.251" width="382.481" height="140.299" filterUnits="userSpaceOnUse" color-interpolation-filters="sRGB">
<feFlood flood-opacity="0" result="BackgroundImageFix"/>
<feColorMatrix in="SourceAlpha" type="matrix" values="0 0 0 0 0 0 0 0 0 0 0 0 0 0 0 0 0 0 127 0"/>
<feOffset/>
<feGaussianBlur stdDeviation="2"/>
<feColorMatrix type="matrix" values="0 0 0 0 0 0 0 0 0 0 0 0 0 0 0 0 0 0 0.1 0"/>
<feBlend mode="normal" in2="BackgroundImageFix" result="effect1_dropShadow"/>
<feColorMatrix in="SourceAlpha" type="matrix" values="0 0 0 0 0 0 0 0 0 0 0 0 0 0 0 0 0 0 127 0"/>
<feOffset dy="10"/>
<feGaussianBlur stdDeviation="10"/>
<feColorMatrix type="matrix" values="0 0 0 0 0 0 0 0 0 0 0 0 0 0 0 0 0 0 0.1 0"/>
<feBlend mode="normal" in2="effect1_dropShadow" result="effect2_dropShadow"/>
<feBlend mode="normal" in="SourceGraphic" in2="effect2_dropShadow" result="shape"/>
</filter>
<filter id="filter1_dd" x="47.1914" y="102.175" width="411.275" height="226.907" filterUnits="userSpaceOnUse" color-interpolation-filters="sRGB">
<feFlood flood-opacity="0" result="BackgroundImageFix"/>
<feColorMatrix in="SourceAlpha" type="matrix" values="0 0 0 0 0 0 0 0 0 0 0 0 0 0 0 0 0 0 127 0"/>
<feOffset dy="10"/>
<feGaussianBlur stdDeviation="10"/>
<feColorMatrix type="matrix" values="0 0 0 0 0 0 0 0 0 0 0 0 0 0 0 0 0 0 0.1 0"/>
<feBlend mode="normal" in2="BackgroundImageFix" result="effect1_dropShadow"/>
<feColorMatrix in="SourceAlpha" type="matrix" values="0 0 0 0 0 0 0 0 0 0 0 0 0 0 0 0 0 0 127 0"/>
<feOffset/>
<feGaussianBlur stdDeviation="2"/>
<feColorMatrix type="matrix" values="0 0 0 0 0 0 0 0 0 0 0 0 0 0 0 0 0 0 0.1 0"/>
<feBlend mode="normal" in2="effect1_dropShadow" result="effect2_dropShadow"/>
<feBlend mode="normal" in="SourceGraphic" in2="effect2_dropShadow" result="shape"/>
</filter>
</defs>
</svg>
