<svg width="990" height="608" viewBox="0 0 990 608" fill="none" xmlns="http://www.w3.org/2000/svg">
<g filter="url(#filter0_d)">
<path fill-rule="evenodd" clip-rule="evenodd" d="M950 59H688.989C688.457 35.1613 668.966 16 645 16H347C323.034 16 303.543 35.1613 303.011 59H40C31.7157 59 25 65.7157 25 74V509C25 517.284 31.7158 524 40 524H303.038C304.089 551.792 326.951 574 355 574H637C665.049 574 687.911 551.792 688.962 524H950C958.284 524 965 517.284 965 509V74C965 65.7157 958.284 59 950 59Z" fill="white"/>
</g>
<rect x="61" y="146" width="868" height="280" rx="15" fill="#F5F8FF"/>
<path d="M483.377 177.1H486.727V174.425H476.477V177.1H480.177V178.225C480.177 182.175 478.977 186.3 475.627 188.425L477.577 190.85C479.652 189.55 481.002 187.3 481.802 184.675C482.552 187.1 483.852 189.1 485.902 190.3L487.827 187.9C484.502 185.95 483.377 182.075 483.377 178.225V177.1ZM488.052 179.975H485.127V182.65H488.052V194.1H491.127V172.5H488.052V179.975ZM492.702 172.1V195.125H495.827V172.1H492.702ZM512.825 182.65C509.2 181.475 507.625 178.75 507.55 176.1H512.05V173.475H499.6V176.1H504.175C504.1 178.95 502.475 181.825 498.725 183.05L500.45 185.625C503.1 184.75 504.9 182.975 505.925 180.75C506.925 182.775 508.65 184.4 511.15 185.2L512.825 182.65ZM501.825 189.65H513.9V195.175H517.2V187.025H501.825V189.65ZM520.25 177.675H517.2V172.125H513.9V186H517.2V180.4H520.25V177.675Z" fill="#061178"/>
<path d="M101.86 364.134H98.0102V361.274H101.86V364.134ZM104.698 362.352H108.306V369.59H111.21V354.652H108.306V360.02H104.698V355.994H101.86V359.052H98.0102V355.972H95.1282V366.444H104.698V362.352ZM100.738 372.23V368.138H97.8342V374.54H111.65V372.23H100.738ZM117.655 369.832H128.545V374.914H131.449V367.544H117.655V369.832ZM125.333 361.758C125.399 361.406 125.443 361.054 125.443 360.702C125.443 360.328 125.399 359.998 125.333 359.668H128.545V361.758H125.333ZM120.097 363.254C118.623 363.254 117.523 362.308 117.523 360.702C117.523 359.118 118.623 358.172 120.097 358.172C121.593 358.172 122.693 359.118 122.693 360.702C122.693 362.308 121.593 363.254 120.097 363.254ZM128.545 354.63V357.358H124.167C123.199 356.324 121.747 355.686 120.097 355.686C117.105 355.686 114.773 357.798 114.773 360.702C114.773 363.628 117.105 365.74 120.097 365.74C121.725 365.74 123.177 365.102 124.145 364.068H128.545V366.62H131.449V354.63H128.545ZM157.635 354.652H154.731V366.136H157.635V354.652ZM148.835 362.154H144.699V358.128H148.835V362.154ZM151.673 355.84H141.839V364.42H151.673V355.84ZM157.965 369.37V367.214H152.311V365.564H149.363V367.214H143.687V369.37H149.297C149.011 370.778 146.965 372.318 142.917 372.67L143.819 374.826C147.229 374.54 149.605 373.352 150.837 371.79C152.069 373.33 154.423 374.54 157.789 374.826L158.713 372.67C154.709 372.34 152.685 370.712 152.377 369.37H157.965ZM172.117 371.13H183.293V365.432H169.191V367.676H180.389V368.996H169.213V374.738H183.799V372.494H172.117V371.13ZM182.963 361.758C183.337 359.734 183.337 358.106 183.337 356.808V355.422H169.411V357.732H180.477C180.455 358.854 180.389 360.13 180.059 361.758H167.145V364.046H185.493V361.758H182.963ZM203.312 361.56C203.928 359.316 203.928 357.534 203.928 356.302V355.158H196.69V357.468H201.09C201.046 358.48 200.914 359.69 200.496 361.252L203.312 361.56ZM194.094 361.648C195.15 359.36 195.15 357.446 195.15 356.214V355.158H188.88V357.468H192.29C192.224 358.414 191.982 359.58 191.278 361.208L194.094 361.648ZM192.642 371.284H203.334V365.828H189.738V368.072H200.474V369.172H189.76V374.738H204.016V372.494H192.642V371.284ZM198.296 362.396V359.58H195.436V362.396H187.406V364.706H205.688V362.396H198.296Z" fill="#061178"/>
<g filter="url(#filter1_d)">
<circle cx="151" cy="284" r="50" fill="white"/>
</g>
<path d="M172.562 260.562H129.438C128.4 260.562 127.562 261.4 127.562 262.438V305.562C127.562 306.6 128.4 307.438 129.438 307.438H172.562C173.6 307.438 174.438 306.6 174.438 305.562V262.438C174.438 261.4 173.6 260.562 172.562 260.562ZM170.219 303.219H131.781V264.781H170.219V303.219ZM149.828 277.438H160.609C160.867 277.438 161.078 277.227 161.078 276.969V274.156C161.078 273.898 160.867 273.688 160.609 273.688H149.828C149.57 273.688 149.359 273.898 149.359 274.156V276.969C149.359 277.227 149.57 277.438 149.828 277.438ZM149.828 285.875H160.609C160.867 285.875 161.078 285.664 161.078 285.406V282.594C161.078 282.336 160.867 282.125 160.609 282.125H149.828C149.57 282.125 149.359 282.336 149.359 282.594V285.406C149.359 285.664 149.57 285.875 149.828 285.875ZM149.828 294.312H160.609C160.867 294.312 161.078 294.102 161.078 293.844V291.031C161.078 290.773 160.867 290.562 160.609 290.562H149.828C149.57 290.562 149.359 290.773 149.359 291.031V293.844C149.359 294.102 149.57 294.312 149.828 294.312ZM140.922 275.562C140.922 276.184 141.169 276.78 141.608 277.22C142.048 277.659 142.644 277.906 143.266 277.906C143.887 277.906 144.483 277.659 144.923 277.22C145.362 276.78 145.609 276.184 145.609 275.562C145.609 274.941 145.362 274.345 144.923 273.905C144.483 273.466 143.887 273.219 143.266 273.219C142.644 273.219 142.048 273.466 141.608 273.905C141.169 274.345 140.922 274.941 140.922 275.562ZM140.922 284C140.922 284.622 141.169 285.218 141.608 285.657C142.048 286.097 142.644 286.344 143.266 286.344C143.887 286.344 144.483 286.097 144.923 285.657C145.362 285.218 145.609 284.622 145.609 284C145.609 283.378 145.362 282.782 144.923 282.343C144.483 281.903 143.887 281.656 143.266 281.656C142.644 281.656 142.048 281.903 141.608 282.343C141.169 282.782 140.922 283.378 140.922 284ZM140.922 292.438C140.922 293.059 141.169 293.655 141.608 294.095C142.048 294.534 142.644 294.781 143.266 294.781C143.887 294.781 144.483 294.534 144.923 294.095C145.362 293.655 145.609 293.059 145.609 292.438C145.609 291.816 145.362 291.22 144.923 290.78C144.483 290.341 143.887 290.094 143.266 290.094C142.644 290.094 142.048 290.341 141.608 290.78C141.169 291.22 140.922 291.816 140.922 292.438Z" fill="#10239E"/>
<path d="M304.956 352.796V355.106H311.38C310.962 357.768 308.498 359.99 303.988 361.112L305.132 363.4C311.138 361.838 314.548 358.186 314.548 352.796H304.956ZM309.862 366.018H317.298V369.384H309.862V366.018ZM307.024 371.65H320.158V363.73H307.024V371.65ZM322.842 356.03H320.158V351.63H317.254V362.916H320.158V358.406H322.842V356.03ZM342.112 358.824C337.514 358.186 335.182 355.546 335.182 353.192V352.224H332.08V353.192C332.08 355.568 329.77 358.186 325.15 358.824L326.25 361.156C329.792 360.628 332.344 358.978 333.642 356.8C334.94 358.978 337.47 360.628 341.012 361.156L342.112 358.824ZM342.772 362.652H324.468V365.006H332.102V371.914H335.006V365.006H342.772V362.652Z" fill="#061178"/>
<g filter="url(#filter2_d)">
<circle cx="323" cy="284" r="50" fill="white"/>
</g>
<path d="M333.313 272.281V269.469C333.313 269.211 333.102 269 332.844 269H310.344C310.086 269 309.875 269.211 309.875 269.469V272.281C309.875 272.539 310.086 272.75 310.344 272.75H332.844C333.102 272.75 333.313 272.539 333.313 272.281ZM310.344 277.438C310.086 277.438 309.875 277.648 309.875 277.906V280.719C309.875 280.977 310.086 281.188 310.344 281.188H321.125C321.383 281.188 321.594 280.977 321.594 280.719V277.906C321.594 277.648 321.383 277.438 321.125 277.438H310.344ZM318.781 303.922H305.188V262.672H338V282.828C338 283.086 338.211 283.297 338.469 283.297H341.75C342.008 283.297 342.219 283.086 342.219 282.828V260.328C342.219 259.291 341.381 258.453 340.344 258.453H302.844C301.807 258.453 300.969 259.291 300.969 260.328V306.266C300.969 307.303 301.807 308.141 302.844 308.141H318.781C319.039 308.141 319.25 307.93 319.25 307.672V304.391C319.25 304.133 319.039 303.922 318.781 303.922ZM344.896 306.939L339.43 301.473C340.736 299.744 341.516 297.588 341.516 295.25C341.516 289.555 336.898 284.938 331.203 284.938C325.508 284.938 320.891 289.555 320.891 295.25C320.891 300.945 325.508 305.562 331.203 305.562C333.301 305.562 335.246 304.936 336.875 303.863L342.424 309.412C342.518 309.506 342.635 309.547 342.752 309.547C342.869 309.547 342.992 309.5 343.08 309.412L344.896 307.596C344.94 307.553 344.974 307.502 344.997 307.445C345.021 307.389 345.033 307.329 345.033 307.268C345.033 307.207 345.021 307.146 344.997 307.09C344.974 307.034 344.94 306.982 344.896 306.939ZM331.203 301.812C327.576 301.812 324.641 298.877 324.641 295.25C324.641 291.623 327.576 288.688 331.203 288.688C334.83 288.688 337.766 291.623 337.766 295.25C337.766 298.877 334.83 301.812 331.203 301.812Z" fill="#10239E"/>
<path d="M463.649 361.548H459.491V358.49H463.649V361.548ZM456.609 361.548H454.167V363.858H468.951V361.548H466.531V358.49H469.105V356.18H454.035V358.49H456.609V361.548ZM465.695 373.384H457.401V371.338H465.695V373.384ZM470.733 367.422V365.112H452.429V367.422H460.129V369.072H454.563V375.672H468.555V369.072H463.033V367.422H470.733ZM489.476 355.63H486.572V366.014H489.476V355.63ZM485.296 363.594C482.26 362.78 480.786 360.822 480.566 358.864H484.548V356.554H473.526V358.864H477.574C477.376 360.998 475.88 363.11 472.756 363.99L474.098 366.256C476.54 365.574 478.212 364.056 479.136 362.142C480.06 363.858 481.644 365.2 483.976 365.816L485.296 363.594ZM478.894 373.538V372.262H489.498V366.828H475.99V369.006H486.616V370.216H476.012V375.738H490.004V373.538H478.894ZM509.81 364.32C510.272 361.768 510.272 359.766 510.272 358.358V357.104H499.866V359.414H507.412C507.39 360.624 507.302 362.098 506.972 363.99L509.81 364.32ZM511.152 365.134C509.26 365.398 507.236 365.552 505.234 365.64V361.812H502.396V365.75C501.076 365.772 499.822 365.772 498.7 365.772L498.964 368.082C502.44 368.06 507.148 367.972 511.328 367.202L511.152 365.134ZM504.552 369.446H501.648V375.54H515.794V373.23H504.552V369.446ZM515.156 361.79V355.608H512.252V370.788H515.156V364.188H517.576V361.79H515.156ZM523.272 365.178H529.85V357.346H520.28V359.656H526.88V362.89H520.302V371.228H522.128C525.802 371.228 528.772 371.096 532.072 370.524L531.764 368.17C528.904 368.654 526.352 368.808 523.272 368.83V365.178ZM533.172 355.608V375.936H536.076V355.608H533.172Z" fill="#061178"/>
<g filter="url(#filter3_d)">
<circle cx="496" cy="284" r="50" fill="white"/>
</g>
<path d="M516.795 263.955L496.885 257.17C496.645 257.088 496.322 257.047 496 257.047C495.678 257.047 495.355 257.088 495.115 257.17L475.205 263.955C474.719 264.119 474.32 264.682 474.32 265.197V293.463C474.32 293.979 474.654 294.658 475.059 294.98L495.256 310.719C495.461 310.877 495.725 310.959 495.994 310.959C496.264 310.959 496.533 310.877 496.732 310.719L516.93 294.98C517.334 294.664 517.668 293.984 517.668 293.463V265.197C517.68 264.682 517.281 264.125 516.795 263.955ZM513.461 292.338L496 305.943L478.539 292.338V267.283L496 261.33L513.461 267.283V292.338ZM489.684 280.561C489.508 280.32 489.227 280.174 488.922 280.174H485.687C485.307 280.174 485.084 280.607 485.307 280.918L492.713 291.113C492.8 291.233 492.915 291.331 493.047 291.398C493.18 291.465 493.326 291.5 493.475 291.5C493.623 291.5 493.769 291.465 493.902 291.398C494.034 291.331 494.149 291.233 494.236 291.113L506.693 273.963C506.916 273.652 506.693 273.219 506.312 273.219H503.078C502.779 273.219 502.492 273.365 502.316 273.605L493.475 285.781L489.684 280.561Z" fill="#10239E"/>
<path d="M650.836 364.914C654.554 364.65 657.084 363.594 658.36 361.988C659.614 363.594 662.122 364.65 665.84 364.914L666.698 362.758C662.298 362.472 660.34 361.174 660.01 359.766H665.752V357.522H659.79V355.696H656.886V357.522H650.946V359.766H656.688C656.358 361.174 654.378 362.472 649.978 362.758L650.836 364.914ZM651.232 371.778H662.408V375.914H665.312V369.49H651.232V371.778ZM649.208 365.684V367.994H667.512V365.684H649.208ZM680.446 360.514V362.868H683.482V367.686H686.386V355.63H683.482V360.514H680.446ZM681.656 364.87C678.576 363.858 677.168 361.482 677.08 359.172H681.018V356.84H670.128V359.172H674.11C674.022 361.702 672.548 364.276 669.336 365.398L670.81 367.686C673.164 366.894 674.77 365.244 675.65 363.198C676.53 364.98 678.048 366.41 680.248 367.136L681.656 364.87ZM679.544 373.714C676.882 373.714 675.496 373.164 675.496 372.02C675.496 370.876 676.882 370.326 679.544 370.326C682.184 370.326 683.57 370.876 683.57 372.02C683.57 373.164 682.184 373.714 679.544 373.714ZM679.544 368.126C675.232 368.126 672.592 369.556 672.592 372.02C672.592 374.484 675.232 375.914 679.544 375.914C683.834 375.914 686.474 374.484 686.474 372.02C686.474 369.556 683.834 368.126 679.544 368.126Z" fill="#061178"/>
<g filter="url(#filter4_d)">
<circle cx="668" cy="284" r="50" fill="white"/>
</g>
<path d="M690.031 300.406H649.719V263.844C649.719 263.586 649.508 263.375 649.25 263.375H645.969C645.711 263.375 645.5 263.586 645.5 263.844V304.156C645.5 304.414 645.711 304.625 645.969 304.625H690.031C690.289 304.625 690.5 304.414 690.5 304.156V300.875C690.5 300.617 690.289 300.406 690.031 300.406ZM654.875 295.719H658.156C658.414 295.719 658.625 295.508 658.625 295.25V286.812C658.625 286.555 658.414 286.344 658.156 286.344H654.875C654.617 286.344 654.406 286.555 654.406 286.812V295.25C654.406 295.508 654.617 295.719 654.875 295.719ZM663.781 295.719H667.062C667.32 295.719 667.531 295.508 667.531 295.25V276.5C667.531 276.242 667.32 276.031 667.062 276.031H663.781C663.523 276.031 663.312 276.242 663.312 276.5V295.25C663.312 295.508 663.523 295.719 663.781 295.719ZM672.688 295.719H675.969C676.227 295.719 676.438 295.508 676.438 295.25V281.07C676.438 280.812 676.227 280.602 675.969 280.602H672.688C672.43 280.602 672.219 280.812 672.219 281.07V295.25C672.219 295.508 672.43 295.719 672.688 295.719ZM681.594 295.719H684.875C685.133 295.719 685.344 295.508 685.344 295.25V271.812C685.344 271.555 685.133 271.344 684.875 271.344H681.594C681.336 271.344 681.125 271.555 681.125 271.812V295.25C681.125 295.508 681.336 295.719 681.594 295.719Z" fill="#10239E"/>
<path d="M823.056 367.598C826.576 366.96 829.128 365.2 830.382 362.78C831.658 365.156 834.232 366.85 837.796 367.488L838.896 365.2C834.54 364.562 832.186 362.12 831.922 359.48H837.994V357.17H822.726V359.48H828.798C828.534 362.12 826.18 364.65 821.934 365.31L823.056 367.598ZM831.834 371.184V366.718H828.93V371.184H821.208V373.538H839.556V371.184H831.834ZM852.446 360.514V362.868H855.482V367.686H858.386V355.63H855.482V360.514H852.446ZM853.656 364.87C850.576 363.858 849.168 361.482 849.08 359.172H853.018V356.84H842.128V359.172H846.11C846.022 361.702 844.548 364.276 841.336 365.398L842.81 367.686C845.164 366.894 846.77 365.244 847.65 363.198C848.53 364.98 850.048 366.41 852.248 367.136L853.656 364.87ZM851.544 373.714C848.882 373.714 847.496 373.164 847.496 372.02C847.496 370.876 848.882 370.326 851.544 370.326C854.184 370.326 855.57 370.876 855.57 372.02C855.57 373.164 854.184 373.714 851.544 373.714ZM851.544 368.126C847.232 368.126 844.592 369.556 844.592 372.02C844.592 374.484 847.232 375.914 851.544 375.914C855.834 375.914 858.474 374.484 858.474 372.02C858.474 369.556 855.834 368.126 851.544 368.126Z" fill="#061178"/>
<g filter="url(#filter5_d)">
<circle cx="840" cy="284" r="50" fill="white"/>
</g>
<path d="M862.969 284H859.688C859.43 284 859.219 284.211 859.219 284.469V303.219H820.781V264.781H839.531C839.789 264.781 840 264.57 840 264.312V261.031C840 260.773 839.789 260.562 839.531 260.562H818.438C817.4 260.562 816.562 261.4 816.562 262.438V305.562C816.562 306.6 817.4 307.438 818.438 307.438H861.562C862.6 307.438 863.438 306.6 863.438 305.562V284.469C863.438 284.211 863.227 284 862.969 284Z" fill="#10239E"/>
<path d="M830.853 285.342L830.742 292.309C830.736 292.83 831.158 293.258 831.68 293.258H831.703L838.617 293.088C838.734 293.082 838.851 293.035 838.933 292.953L863.303 268.637C863.484 268.455 863.484 268.156 863.303 267.975L856.019 260.697C855.926 260.604 855.808 260.562 855.685 260.562C855.562 260.562 855.445 260.609 855.351 260.697L830.988 285.014C830.903 285.102 830.855 285.219 830.853 285.342ZM834.574 286.725L855.685 265.66L858.334 268.303L837.211 289.379L834.533 289.443L834.574 286.725Z" fill="#10239E"/>
<path d="M241.777 283.566L232.852 275.869C232.519 275.583 232.031 275.841 232.031 276.302V291.696C232.031 292.158 232.519 292.416 232.852 292.13L241.777 284.433C242.032 284.213 242.032 283.786 241.777 283.566Z" fill="#10239E"/>
<path d="M413.777 283.566L404.852 275.869C404.519 275.583 404.031 275.841 404.031 276.302V291.696C404.031 292.158 404.519 292.416 404.852 292.13L413.777 284.433C414.032 284.213 414.032 283.786 413.777 283.566Z" fill="#10239E"/>
<path d="M586.777 283.566L577.852 275.869C577.519 275.583 577.031 275.841 577.031 276.302V291.696C577.031 292.158 577.519 292.416 577.852 292.13L586.777 284.433C587.032 284.213 587.032 283.786 586.777 283.566Z" fill="#10239E"/>
<path d="M758.777 283.566L749.852 275.869C749.519 275.583 749.031 275.841 749.031 276.302V291.696C749.031 292.158 749.519 292.416 749.852 292.13L758.777 284.433C759.032 284.213 759.032 283.786 758.777 283.566Z" fill="#10239E"/>
<rect x="315" y="28" width="362" height="64" rx="32" fill="#F5F8FF"/>
<path d="M400.177 58.5C404.477 58.025 407.302 56.25 408.477 53.9C409.702 56.25 412.502 58.025 416.777 58.5L417.977 55.925C413.477 55.425 411.202 53.575 410.827 51.725H417.027V49.1H399.977V51.725H406.152C405.752 53.55 403.452 55.425 399.002 55.925L400.177 58.5ZM403.777 64.125H400.477V70.75H416.602V68.125H403.777V64.125ZM398.052 59.6V62.2H407.127V66.1H410.427V62.2H418.927V59.6H398.052ZM436.85 48.1V71.2H440.15V48.1H436.85ZM422.2 49.95V65.825H433.55V49.95H430.275V55.525H425.475V49.95H422.2ZM425.475 58.1H430.275V63.2H425.475V58.1Z" fill="#061178"/>
<path d="M564.027 54.175V56.7H558.877V59.35H564.027V64.075H567.327V47.125H564.027V51.55H560.102C560.277 50.7 560.377 49.8 560.377 48.85H549.602V51.475H556.802C556.277 54.825 553.252 57.575 548.377 59.075L549.727 61.7C554.352 60.275 557.652 57.675 559.252 54.175H564.027ZM555.577 67.125V62.425H552.277V69.75H567.902V67.125H555.577ZM584.95 57.625C581.4 56.425 579.8 53.65 579.75 51.025H584.225V48.4H571.85V51.025H576.375C576.325 53.875 574.65 56.8 570.95 58.05L572.625 60.65C575.3 59.775 577.1 57.925 578.125 55.675C579.1 57.725 580.825 59.375 583.35 60.2L584.95 57.625ZM574.625 64.475H587.025V70.175H590.325V61.85H574.625V64.475ZM587.025 47.15V52.625H583.625V55.275H587.025V60.825H590.325V47.15H587.025Z" fill="#061178"/>
<path d="M497.777 59.5667L488.852 51.8699C488.519 51.5839 488.031 51.8417 488.031 52.3035V67.6972C488.031 68.1589 488.519 68.4167 488.852 68.1308L497.777 60.4339C498.032 60.2136 498.032 59.7871 497.777 59.5667Z" fill="#10239E"/>
<rect x="315" y="482" width="362" height="80" rx="40" fill="#F5F8FF"/>
<path d="M487.102 507.925C484.002 508.525 481.052 508.775 478.302 508.825V501.1H475.002V511.55H476.952C480.202 511.55 483.727 511.325 487.477 510.575L487.102 507.925ZM488.927 520.275H480.377V518.15H488.927V520.275ZM488.927 515.6H480.377V513.3H477.102V522.9H492.202V513.3H488.927V515.6ZM495.252 504.825H492.202V500.125H488.902V512.2H492.202V507.525H495.252V504.825ZM509.825 506.85H505.1V503.375H509.825V506.85ZM501.825 506.85H499.05V509.475H515.85V506.85H513.1V503.375H516.025V500.75H498.9V503.375H501.825V506.85ZM512.15 520.3H502.725V517.975H512.15V520.3ZM517.875 513.525V510.9H497.075V513.525H505.825V515.4H499.5V522.9H515.4V515.4H509.125V513.525H517.875Z" fill="#061178"/>
<path d="M465.189 539.517L461.222 538.941L459.449 535.345C459.4 535.247 459.32 535.167 459.222 535.119C458.975 534.997 458.675 535.098 458.552 535.345L456.778 538.941L452.811 539.517C452.702 539.533 452.602 539.584 452.525 539.662C452.433 539.758 452.382 539.886 452.383 540.018C452.385 540.151 452.439 540.278 452.535 540.37L455.405 543.169L454.727 547.12C454.711 547.212 454.721 547.307 454.756 547.393C454.791 547.48 454.85 547.554 454.925 547.609C455.001 547.664 455.09 547.697 455.183 547.703C455.276 547.71 455.369 547.69 455.452 547.647L459 545.781L462.549 547.647C462.645 547.698 462.758 547.716 462.866 547.697C463.138 547.65 463.32 547.392 463.274 547.12L462.595 543.169L465.466 540.37C465.544 540.294 465.595 540.194 465.611 540.084C465.653 539.811 465.463 539.558 465.189 539.517Z" fill="#10239E"/>
<path d="M502.523 539.517L498.556 538.941L496.782 535.345C496.734 535.247 496.654 535.167 496.556 535.119C496.309 534.997 496.009 535.098 495.885 535.345L494.112 538.941L490.145 539.517C490.035 539.533 489.935 539.584 489.859 539.662C489.766 539.758 489.715 539.886 489.717 540.018C489.719 540.151 489.773 540.278 489.868 540.37L492.739 543.169L492.06 547.12C492.045 547.212 492.055 547.307 492.09 547.393C492.125 547.48 492.184 547.554 492.259 547.609C492.334 547.664 492.424 547.697 492.517 547.703C492.61 547.71 492.703 547.69 492.785 547.647L496.334 545.781L499.882 547.647C499.979 547.698 500.092 547.716 500.2 547.697C500.471 547.65 500.654 547.392 500.607 547.12L499.929 543.169L502.8 540.37C502.878 540.294 502.929 540.194 502.945 540.084C502.987 539.811 502.796 539.558 502.523 539.517Z" fill="#10239E"/>
<path d="M539.855 539.517L535.888 538.941L534.115 535.345C534.066 535.247 533.987 535.167 533.888 535.119C533.641 534.997 533.341 535.098 533.218 535.345L531.445 538.941L527.477 539.517C527.368 539.533 527.268 539.584 527.191 539.662C527.099 539.758 527.048 539.886 527.05 540.018C527.051 540.151 527.106 540.278 527.201 540.37L530.071 543.169L529.393 547.12C529.377 547.212 529.387 547.307 529.422 547.393C529.457 547.48 529.516 547.554 529.592 547.609C529.667 547.664 529.756 547.697 529.849 547.703C529.942 547.71 530.035 547.69 530.118 547.647L533.666 545.781L537.215 547.647C537.312 547.698 537.424 547.716 537.532 547.697C537.804 547.65 537.987 547.392 537.94 547.12L537.262 543.169L540.132 540.37C540.21 540.294 540.262 540.194 540.277 540.084C540.32 539.811 540.129 539.558 539.855 539.517Z" fill="#10239E"/>
<path d="M483.855 539.517L479.888 538.941L478.115 535.345C478.066 535.247 477.987 535.167 477.888 535.119C477.641 534.997 477.341 535.098 477.218 535.345L475.445 538.941L471.477 539.517C471.368 539.533 471.268 539.584 471.191 539.662C471.099 539.758 471.048 539.886 471.05 540.018C471.051 540.151 471.106 540.278 471.201 540.37L474.071 543.169L473.393 547.12C473.377 547.212 473.387 547.307 473.422 547.393C473.457 547.48 473.516 547.554 473.592 547.609C473.667 547.664 473.756 547.697 473.849 547.703C473.942 547.71 474.035 547.69 474.118 547.647L477.666 545.781L481.215 547.647C481.312 547.698 481.424 547.716 481.532 547.697C481.804 547.65 481.987 547.392 481.94 547.12L481.262 543.169L484.132 540.37C484.21 540.294 484.262 540.194 484.277 540.084C484.32 539.811 484.129 539.558 483.855 539.517Z" fill="#10239E"/>
<path d="M521.189 539.517L517.222 538.941L515.449 535.345C515.4 535.247 515.32 535.167 515.222 535.119C514.975 534.997 514.675 535.098 514.552 535.345L512.778 538.941L508.811 539.517C508.702 539.533 508.602 539.584 508.525 539.662C508.433 539.758 508.382 539.886 508.383 540.018C508.385 540.151 508.439 540.278 508.535 540.37L511.405 543.169L510.727 547.12C510.711 547.212 510.721 547.307 510.756 547.393C510.791 547.48 510.85 547.554 510.925 547.609C511.001 547.664 511.09 547.697 511.183 547.703C511.276 547.71 511.369 547.69 511.452 547.647L515 545.781L518.549 547.647C518.645 547.698 518.758 547.716 518.866 547.697C519.138 547.65 519.32 547.392 519.274 547.12L518.595 543.169L521.466 540.37C521.544 540.294 521.595 540.194 521.611 540.084C521.653 539.811 521.463 539.558 521.189 539.517Z" fill="#10239E"/>
<path d="M505.254 121.632H502.881C502.746 121.632 502.617 121.69 502.526 121.793L496.113 129.185V112.688C496.113 112.559 496.008 112.453 495.879 112.453H494.121C493.992 112.453 493.886 112.559 493.886 112.688V129.185L487.473 121.793C487.385 121.69 487.257 121.632 487.119 121.632H484.746C484.547 121.632 484.438 121.869 484.57 122.019L494.294 133.225C494.382 133.326 494.49 133.407 494.612 133.463C494.734 133.519 494.867 133.548 495.001 133.548C495.135 133.548 495.268 133.519 495.39 133.463C495.512 133.407 495.621 133.326 495.709 133.225L505.429 122.019C505.561 121.866 505.453 121.632 505.254 121.632Z" fill="#10239E"/>
<path d="M505.254 455.632H502.881C502.746 455.632 502.617 455.69 502.526 455.793L496.113 463.185V446.688C496.113 446.559 496.008 446.453 495.879 446.453H494.121C493.992 446.453 493.886 446.559 493.886 446.688V463.185L487.473 455.793C487.385 455.69 487.257 455.632 487.119 455.632H484.746C484.547 455.632 484.438 455.869 484.57 456.019L494.294 467.225C494.382 467.326 494.49 467.407 494.612 467.463C494.734 467.519 494.867 467.548 495.001 467.548C495.135 467.548 495.268 467.519 495.39 467.463C495.512 467.407 495.621 467.326 495.709 467.225L505.429 456.019C505.561 455.866 505.453 455.632 505.254 455.632Z" fill="#10239E"/>
<defs>
<filter id="filter0_d" x="0" y="0" width="990" height="608" filterUnits="userSpaceOnUse" color-interpolation-filters="sRGB">
<feFlood flood-opacity="0" result="BackgroundImageFix"/>
<feColorMatrix in="SourceAlpha" type="matrix" values="0 0 0 0 0 0 0 0 0 0 0 0 0 0 0 0 0 0 127 0"/>
<feOffset dy="9"/>
<feGaussianBlur stdDeviation="12.5"/>
<feColorMatrix type="matrix" values="0 0 0 0 0.0627451 0 0 0 0 0.137255 0 0 0 0 0.619608 0 0 0 0.15 0"/>
<feBlend mode="normal" in2="BackgroundImageFix" result="effect1_dropShadow"/>
<feBlend mode="normal" in="SourceGraphic" in2="effect1_dropShadow" result="shape"/>
</filter>
<filter id="filter1_d" x="86" y="219" width="130" height="130" filterUnits="userSpaceOnUse" color-interpolation-filters="sRGB">
<feFlood flood-opacity="0" result="BackgroundImageFix"/>
<feColorMatrix in="SourceAlpha" type="matrix" values="0 0 0 0 0 0 0 0 0 0 0 0 0 0 0 0 0 0 127 0"/>
<feOffset/>
<feGaussianBlur stdDeviation="7.5"/>
<feColorMatrix type="matrix" values="0 0 0 0 0.0627451 0 0 0 0 0.137255 0 0 0 0 0.619608 0 0 0 0.1 0"/>
<feBlend mode="normal" in2="BackgroundImageFix" result="effect1_dropShadow"/>
<feBlend mode="normal" in="SourceGraphic" in2="effect1_dropShadow" result="shape"/>
</filter>
<filter id="filter2_d" x="258" y="219" width="130" height="130" filterUnits="userSpaceOnUse" color-interpolation-filters="sRGB">
<feFlood flood-opacity="0" result="BackgroundImageFix"/>
<feColorMatrix in="SourceAlpha" type="matrix" values="0 0 0 0 0 0 0 0 0 0 0 0 0 0 0 0 0 0 127 0"/>
<feOffset/>
<feGaussianBlur stdDeviation="7.5"/>
<feColorMatrix type="matrix" values="0 0 0 0 0.0627451 0 0 0 0 0.137255 0 0 0 0 0.619608 0 0 0 0.1 0"/>
<feBlend mode="normal" in2="BackgroundImageFix" result="effect1_dropShadow"/>
<feBlend mode="normal" in="SourceGraphic" in2="effect1_dropShadow" result="shape"/>
</filter>
<filter id="filter3_d" x="431" y="219" width="130" height="130" filterUnits="userSpaceOnUse" color-interpolation-filters="sRGB">
<feFlood flood-opacity="0" result="BackgroundImageFix"/>
<feColorMatrix in="SourceAlpha" type="matrix" values="0 0 0 0 0 0 0 0 0 0 0 0 0 0 0 0 0 0 127 0"/>
<feOffset/>
<feGaussianBlur stdDeviation="7.5"/>
<feColorMatrix type="matrix" values="0 0 0 0 0.0627451 0 0 0 0 0.137255 0 0 0 0 0.619608 0 0 0 0.1 0"/>
<feBlend mode="normal" in2="BackgroundImageFix" result="effect1_dropShadow"/>
<feBlend mode="normal" in="SourceGraphic" in2="effect1_dropShadow" result="shape"/>
</filter>
<filter id="filter4_d" x="603" y="219" width="130" height="130" filterUnits="userSpaceOnUse" color-interpolation-filters="sRGB">
<feFlood flood-opacity="0" result="BackgroundImageFix"/>
<feColorMatrix in="SourceAlpha" type="matrix" values="0 0 0 0 0 0 0 0 0 0 0 0 0 0 0 0 0 0 127 0"/>
<feOffset/>
<feGaussianBlur stdDeviation="7.5"/>
<feColorMatrix type="matrix" values="0 0 0 0 0.0627451 0 0 0 0 0.137255 0 0 0 0 0.619608 0 0 0 0.1 0"/>
<feBlend mode="normal" in2="BackgroundImageFix" result="effect1_dropShadow"/>
<feBlend mode="normal" in="SourceGraphic" in2="effect1_dropShadow" result="shape"/>
</filter>
<filter id="filter5_d" x="775" y="219" width="130" height="130" filterUnits="userSpaceOnUse" color-interpolation-filters="sRGB">
<feFlood flood-opacity="0" result="BackgroundImageFix"/>
<feColorMatrix in="SourceAlpha" type="matrix" values="0 0 0 0 0 0 0 0 0 0 0 0 0 0 0 0 0 0 127 0"/>
<feOffset/>
<feGaussianBlur stdDeviation="7.5"/>
<feColorMatrix type="matrix" values="0 0 0 0 0.0627451 0 0 0 0 0.137255 0 0 0 0 0.619608 0 0 0 0.1 0"/>
<feBlend mode="normal" in2="BackgroundImageFix" result="effect1_dropShadow"/>
<feBlend mode="normal" in="SourceGraphic" in2="effect1_dropShadow" result="shape"/>
</filter>
</defs>
</svg>
