<svg width="375" height="590" viewBox="0 0 375 590" fill="none" xmlns="http://www.w3.org/2000/svg">
<g filter="url(#filter0_d)">
<path fill-rule="evenodd" clip-rule="evenodd" d="M72 42C72 27.6406 83.6406 16 98 16H278C292.359 16 304 27.6406 304 42H340C348.284 42 355 48.7157 355 57V517C355 525.284 348.284 532 340 532H303.924C302.903 545.425 291.686 556 278 556H98C84.3135 556 73.097 545.425 72.0758 532H35C26.7157 532 20 525.284 20 517V57C20 48.7157 26.7157 42 35 42H72Z" fill="white"/>
</g>
<rect x="78" y="22" width="220" height="40" rx="20" fill="#F5F8FF"/>
<rect x="78" y="510" width="220" height="40" rx="20" fill="#F5F8FF"/>
<rect x="32" y="94" width="311" height="384" rx="5" fill="#F5F8FF"/>
<path d="M188.217 202.388L192.066 197.926C192.209 197.759 192.08 197.516 191.849 197.516L184.152 197.516C183.921 197.516 183.792 197.759 183.935 197.926L187.784 202.388C187.894 202.516 188.107 202.516 188.217 202.388Z" fill="#10239E"/>
<path d="M188.217 270.388L192.066 265.926C192.209 265.759 192.08 265.516 191.849 265.516L184.152 265.516C183.921 265.516 183.792 265.759 183.935 265.926L187.784 270.388C187.894 270.516 188.107 270.516 188.217 270.388Z" fill="#10239E"/>
<path d="M188.217 338.388L192.066 333.926C192.209 333.759 192.08 333.516 191.849 333.516L184.152 333.516C183.921 333.516 183.792 333.759 183.935 333.926L187.784 338.388C187.894 338.516 188.107 338.516 188.217 338.388Z" fill="#10239E"/>
<path d="M188.217 406.388L192.066 401.926C192.209 401.759 192.08 401.516 191.849 401.516L184.152 401.516C183.921 401.516 183.792 401.759 183.935 401.926L187.784 406.388C187.894 406.516 188.107 406.516 188.217 406.388Z" fill="#10239E"/>
<path d="M156.582 115.2C157.45 115.2 158.201 115.345 158.836 115.634C159.48 115.923 159.974 116.334 160.32 116.866C160.665 117.398 160.838 118.028 160.838 118.756C160.838 119.475 160.665 120.105 160.32 120.646C159.974 121.178 159.48 121.589 158.836 121.878C158.201 122.158 157.45 122.298 156.582 122.298H154.608V125H152.34V115.2H156.582ZM156.456 120.45C157.137 120.45 157.655 120.305 158.01 120.016C158.364 119.717 158.542 119.297 158.542 118.756C158.542 118.205 158.364 117.785 158.01 117.496C157.655 117.197 157.137 117.048 156.456 117.048H154.608V120.45H156.456ZM168.561 125L166.671 122.27H166.559H164.585V125H162.317V115.2H166.559C167.427 115.2 168.178 115.345 168.813 115.634C169.457 115.923 169.952 116.334 170.297 116.866C170.642 117.398 170.815 118.028 170.815 118.756C170.815 119.484 170.638 120.114 170.283 120.646C169.938 121.169 169.443 121.57 168.799 121.85L170.997 125H168.561ZM168.519 118.756C168.519 118.205 168.342 117.785 167.987 117.496C167.632 117.197 167.114 117.048 166.433 117.048H164.585V120.464H166.433C167.114 120.464 167.632 120.315 167.987 120.016C168.342 119.717 168.519 119.297 168.519 118.756ZM177.218 125.168C176.201 125.168 175.281 124.949 174.46 124.51C173.648 124.071 173.009 123.469 172.542 122.704C172.085 121.929 171.856 121.061 171.856 120.1C171.856 119.139 172.085 118.275 172.542 117.51C173.009 116.735 173.648 116.129 174.46 115.69C175.281 115.251 176.201 115.032 177.218 115.032C178.235 115.032 179.15 115.251 179.962 115.69C180.774 116.129 181.413 116.735 181.88 117.51C182.347 118.275 182.58 119.139 182.58 120.1C182.58 121.061 182.347 121.929 181.88 122.704C181.413 123.469 180.774 124.071 179.962 124.51C179.15 124.949 178.235 125.168 177.218 125.168ZM177.218 123.236C177.797 123.236 178.319 123.105 178.786 122.844C179.253 122.573 179.617 122.2 179.878 121.724C180.149 121.248 180.284 120.707 180.284 120.1C180.284 119.493 180.149 118.952 179.878 118.476C179.617 118 179.253 117.631 178.786 117.37C178.319 117.099 177.797 116.964 177.218 116.964C176.639 116.964 176.117 117.099 175.65 117.37C175.183 117.631 174.815 118 174.544 118.476C174.283 118.952 174.152 119.493 174.152 120.1C174.152 120.707 174.283 121.248 174.544 121.724C174.815 122.2 175.183 122.573 175.65 122.844C176.117 123.105 176.639 123.236 177.218 123.236ZM184.144 115.2H188.596C189.66 115.2 190.598 115.405 191.41 115.816C192.232 116.217 192.866 116.787 193.314 117.524C193.772 118.261 194 119.12 194 120.1C194 121.08 193.772 121.939 193.314 122.676C192.866 123.413 192.232 123.987 191.41 124.398C190.598 124.799 189.66 125 188.596 125H184.144V115.2ZM188.484 123.138C189.464 123.138 190.244 122.867 190.822 122.326C191.41 121.775 191.704 121.033 191.704 120.1C191.704 119.167 191.41 118.429 190.822 117.888C190.244 117.337 189.464 117.062 188.484 117.062H186.412V123.138H188.484ZM199.925 125.168C198.525 125.168 197.433 124.781 196.649 124.006C195.874 123.231 195.487 122.125 195.487 120.688V115.2H197.755V120.604C197.755 122.359 198.483 123.236 199.939 123.236C200.648 123.236 201.189 123.026 201.563 122.606C201.936 122.177 202.123 121.509 202.123 120.604V115.2H204.363V120.688C204.363 122.125 203.971 123.231 203.187 124.006C202.412 124.781 201.325 125.168 199.925 125.168ZM211.154 125.168C210.155 125.168 209.25 124.953 208.438 124.524C207.635 124.085 207.001 123.483 206.534 122.718C206.077 121.943 205.848 121.071 205.848 120.1C205.848 119.129 206.077 118.261 206.534 117.496C207.001 116.721 207.635 116.119 208.438 115.69C209.25 115.251 210.16 115.032 211.168 115.032C212.017 115.032 212.783 115.181 213.464 115.48C214.155 115.779 214.733 116.208 215.2 116.768L213.744 118.112C213.081 117.347 212.26 116.964 211.28 116.964C210.673 116.964 210.132 117.099 209.656 117.37C209.18 117.631 208.807 118 208.536 118.476C208.275 118.952 208.144 119.493 208.144 120.1C208.144 120.707 208.275 121.248 208.536 121.724C208.807 122.2 209.18 122.573 209.656 122.844C210.132 123.105 210.673 123.236 211.28 123.236C212.26 123.236 213.081 122.849 213.744 122.074L215.2 123.418C214.733 123.987 214.155 124.421 213.464 124.72C212.773 125.019 212.003 125.168 211.154 125.168ZM224.18 123.18V125H216.592V115.2H223.998V117.02H218.846V119.148H223.396V120.912H218.846V123.18H224.18Z" fill="#061178"/>
<path d="M103.406 37.2C104.274 37.2 105.025 37.3447 105.66 37.634C106.304 37.9233 106.799 38.334 107.144 38.866C107.489 39.398 107.662 40.028 107.662 40.756C107.662 41.4747 107.489 42.1047 107.144 42.646C106.799 43.178 106.304 43.5887 105.66 43.878C105.025 44.158 104.274 44.298 103.406 44.298H101.432V47H99.164V37.2H103.406ZM103.28 42.45C103.961 42.45 104.479 42.3053 104.834 42.016C105.189 41.7173 105.366 41.2973 105.366 40.756C105.366 40.2053 105.189 39.7853 104.834 39.496C104.479 39.1973 103.961 39.048 103.28 39.048H101.432V42.45H103.28ZM115.385 47L113.495 44.27H113.383H111.409V47H109.141V37.2H113.383C114.251 37.2 115.003 37.3447 115.637 37.634C116.281 37.9233 116.776 38.334 117.121 38.866C117.467 39.398 117.639 40.028 117.639 40.756C117.639 41.484 117.462 42.114 117.107 42.646C116.762 43.1687 116.267 43.57 115.623 43.85L117.821 47H115.385ZM115.343 40.756C115.343 40.2053 115.166 39.7853 114.811 39.496C114.457 39.1973 113.939 39.048 113.257 39.048H111.409V42.464H113.257C113.939 42.464 114.457 42.3147 114.811 42.016C115.166 41.7173 115.343 41.2973 115.343 40.756ZM126.884 45.18V47H119.296V37.2H126.702V39.02H121.55V41.148H126.1V42.912H121.55V45.18H126.884ZM132.791 37.2C133.659 37.2 134.41 37.3447 135.045 37.634C135.689 37.9233 136.183 38.334 136.529 38.866C136.874 39.398 137.047 40.028 137.047 40.756C137.047 41.4747 136.874 42.1047 136.529 42.646C136.183 43.178 135.689 43.5887 135.045 43.878C134.41 44.158 133.659 44.298 132.791 44.298H130.817V47H128.549V37.2H132.791ZM132.665 42.45C133.346 42.45 133.864 42.3053 134.219 42.016C134.573 41.7173 134.751 41.2973 134.751 40.756C134.751 40.2053 134.573 39.7853 134.219 39.496C133.864 39.1973 133.346 39.048 132.665 39.048H130.817V42.45H132.665ZM144.488 44.9H139.938L139.07 47H136.746L141.114 37.2H143.354L147.736 47H145.356L144.488 44.9ZM143.774 43.178L142.22 39.426L140.666 43.178H143.774ZM154.856 47L152.966 44.27H152.854H150.88V47H148.612V37.2H152.854C153.722 37.2 154.474 37.3447 155.108 37.634C155.752 37.9233 156.247 38.334 156.592 38.866C156.938 39.398 157.11 40.028 157.11 40.756C157.11 41.484 156.933 42.114 156.578 42.646C156.233 43.1687 155.738 43.57 155.094 43.85L157.292 47H154.856ZM154.814 40.756C154.814 40.2053 154.637 39.7853 154.282 39.496C153.928 39.1973 153.41 39.048 152.728 39.048H150.88V42.464H152.728C153.41 42.464 153.928 42.3147 154.282 42.016C154.637 41.7173 154.814 41.2973 154.814 40.756ZM166.355 45.18V47H158.767V37.2H166.173V39.02H161.021V41.148H165.571V42.912H161.021V45.18H166.355Z" fill="#061178"/>
<path d="M157.645 526.2H162.097C163.161 526.2 164.099 526.405 164.911 526.816C165.732 527.217 166.367 527.787 166.815 528.524C167.272 529.261 167.501 530.12 167.501 531.1C167.501 532.08 167.272 532.939 166.815 533.676C166.367 534.413 165.732 534.987 164.911 535.398C164.099 535.799 163.161 536 162.097 536H157.645V526.2ZM161.985 534.138C162.965 534.138 163.744 533.867 164.323 533.326C164.911 532.775 165.205 532.033 165.205 531.1C165.205 530.167 164.911 529.429 164.323 528.888C163.744 528.337 162.965 528.062 161.985 528.062H159.913V534.138H161.985ZM176.659 534.18V536H169.071V526.2H176.477V528.02H171.325V530.148H175.875V531.912H171.325V534.18H176.659ZM178.323 526.2H180.591V534.152H185.505V536H178.323V526.2ZM186.633 526.2H188.901V536H186.633V526.2ZM200.454 526.2L196.212 536H193.972L189.744 526.2H192.194L195.176 533.2L198.2 526.2H200.454ZM208.72 534.18V536H201.132V526.2H208.538V528.02H203.386V530.148H207.936V531.912H203.386V534.18H208.72ZM216.629 536L214.739 533.27H214.627H212.653V536H210.385V526.2H214.627C215.495 526.2 216.246 526.345 216.881 526.634C217.525 526.923 218.019 527.334 218.365 527.866C218.71 528.398 218.883 529.028 218.883 529.756C218.883 530.484 218.705 531.114 218.351 531.646C218.005 532.169 217.511 532.57 216.867 532.85L219.065 536H216.629ZM216.587 529.756C216.587 529.205 216.409 528.785 216.055 528.496C215.7 528.197 215.182 528.048 214.501 528.048H212.653V531.464H214.501C215.182 531.464 215.7 531.315 216.055 531.016C216.409 530.717 216.587 530.297 216.587 529.756Z" fill="#061178"/>
<path d="M212.202 45.18V47H204.614V37.2H212.02V39.02H206.868V41.148H211.418V42.912H206.868V45.18H212.202ZM217.086 47.168C216.312 47.168 215.56 47.0653 214.832 46.86C214.114 46.6453 213.535 46.37 213.096 46.034L213.866 44.326C214.286 44.634 214.786 44.8813 215.364 45.068C215.943 45.2547 216.522 45.348 217.1 45.348C217.744 45.348 218.22 45.2547 218.528 45.068C218.836 44.872 218.99 44.6153 218.99 44.298C218.99 44.0647 218.897 43.8733 218.71 43.724C218.533 43.5653 218.3 43.4393 218.01 43.346C217.73 43.2527 217.348 43.15 216.862 43.038C216.116 42.8607 215.504 42.6833 215.028 42.506C214.552 42.3287 214.142 42.044 213.796 41.652C213.46 41.26 213.292 40.7373 213.292 40.084C213.292 39.5147 213.446 39.0013 213.754 38.544C214.062 38.0773 214.524 37.7087 215.14 37.438C215.766 37.1673 216.526 37.032 217.422 37.032C218.048 37.032 218.659 37.1067 219.256 37.256C219.854 37.4053 220.376 37.62 220.824 37.9L220.124 39.622C219.219 39.1087 218.314 38.852 217.408 38.852C216.774 38.852 216.302 38.9547 215.994 39.16C215.696 39.3653 215.546 39.636 215.546 39.972C215.546 40.308 215.719 40.56 216.064 40.728C216.419 40.8867 216.956 41.0453 217.674 41.204C218.421 41.3813 219.032 41.5587 219.508 41.736C219.984 41.9133 220.39 42.1933 220.726 42.576C221.072 42.9587 221.244 43.4767 221.244 44.13C221.244 44.69 221.086 45.2033 220.768 45.67C220.46 46.1273 219.994 46.4913 219.368 46.762C218.743 47.0327 217.982 47.168 217.086 47.168ZM224.548 39.048H221.412V37.2H229.952V39.048H226.816V47H224.548V39.048ZM231.032 37.2H233.3V47H231.032V37.2ZM244.404 47L244.39 41.12L241.506 45.964H240.484L237.614 41.246V47H235.486V37.2H237.362L241.03 43.29L244.642 37.2H246.504L246.532 47H244.404ZM255.171 44.9H250.621L249.753 47H247.429L251.797 37.2H254.037L258.419 47H256.039L255.171 44.9ZM254.457 43.178L252.903 39.426L251.349 43.178H254.457ZM260.833 39.048H257.697V37.2H266.237V39.048H263.101V47H260.833V39.048ZM274.906 45.18V47H267.318V37.2H274.724V39.02H269.572V41.148H274.122V42.912H269.572V45.18H274.906Z" fill="#061178"/>
<path d="M187.388 41.7834L182.926 37.9349C182.759 37.792 182.516 37.9209 182.516 38.1517V45.8486C182.516 46.0795 182.759 46.2084 182.926 46.0654L187.388 42.217C187.516 42.1068 187.516 41.8935 187.388 41.7834Z" fill="#10239E"/>
<rect x="78" y="142" width="220" height="40" rx="20" fill="white"/>
<rect x="78" y="215" width="220" height="40" rx="20" fill="white"/>
<rect x="78" y="282" width="220" height="40" rx="20" fill="white"/>
<rect x="78" y="351" width="220" height="40" rx="20" fill="white"/>
<rect x="78" y="418" width="220" height="40" rx="20" fill="white"/>
<path d="M193.469 77.2703H192.203C192.131 77.2703 192.063 77.3016 192.014 77.3562L188.594 81.2984V72.5C188.594 72.4312 188.538 72.375 188.469 72.375H187.531C187.463 72.375 187.406 72.4312 187.406 72.5V81.2984L183.986 77.3562C183.939 77.3016 183.87 77.2703 183.797 77.2703H182.531C182.425 77.2703 182.367 77.3969 182.438 77.4766L187.624 83.4531C187.67 83.5072 187.728 83.5506 187.793 83.5803C187.859 83.61 187.929 83.6254 188.001 83.6254C188.072 83.6254 188.143 83.61 188.208 83.5803C188.273 83.5506 188.331 83.5072 188.378 83.4531L193.563 77.4766C193.633 77.3953 193.575 77.2703 193.469 77.2703Z" fill="#10239E"/>
<path d="M193.469 493.27H192.203C192.131 493.27 192.063 493.302 192.014 493.356L188.594 497.298V488.5C188.594 488.431 188.538 488.375 188.469 488.375H187.531C187.463 488.375 187.406 488.431 187.406 488.5V497.298L183.986 493.356C183.939 493.302 183.87 493.27 183.797 493.27H182.531C182.425 493.27 182.367 493.397 182.438 493.477L187.624 499.453C187.67 499.507 187.728 499.551 187.793 499.58C187.859 499.61 187.929 499.625 188.001 499.625C188.072 499.625 188.143 499.61 188.208 499.58C188.273 499.551 188.331 499.507 188.378 499.453L193.563 493.477C193.633 493.395 193.575 493.27 193.469 493.27Z" fill="#10239E"/>
<path d="M157.678 230.2C158.527 230.2 159.264 230.34 159.89 230.62C160.524 230.9 161.01 231.301 161.346 231.824C161.682 232.347 161.85 232.967 161.85 233.686C161.85 234.395 161.682 235.016 161.346 235.548C161.01 236.071 160.524 236.472 159.89 236.752C159.264 237.032 158.527 237.172 157.678 237.172H155.466V240H153.646V230.2H157.678ZM157.594 235.632C158.387 235.632 158.989 235.464 159.4 235.128C159.81 234.792 160.016 234.311 160.016 233.686C160.016 233.061 159.81 232.58 159.4 232.244C158.989 231.908 158.387 231.74 157.594 231.74H155.466V235.632H157.594ZM164.957 233.616C165.461 232.832 166.347 232.44 167.617 232.44V234.106C167.467 234.078 167.332 234.064 167.211 234.064C166.529 234.064 165.997 234.265 165.615 234.666C165.232 235.058 165.041 235.627 165.041 236.374V240H163.291V232.524H164.957V233.616ZM172.253 240.098C171.497 240.098 170.816 239.935 170.209 239.608C169.602 239.281 169.126 238.829 168.781 238.25C168.445 237.662 168.277 236.999 168.277 236.262C168.277 235.525 168.445 234.867 168.781 234.288C169.126 233.709 169.602 233.257 170.209 232.93C170.816 232.603 171.497 232.44 172.253 232.44C173.018 232.44 173.704 232.603 174.311 232.93C174.918 233.257 175.389 233.709 175.725 234.288C176.07 234.867 176.243 235.525 176.243 236.262C176.243 236.999 176.07 237.662 175.725 238.25C175.389 238.829 174.918 239.281 174.311 239.608C173.704 239.935 173.018 240.098 172.253 240.098ZM172.253 238.6C172.897 238.6 173.429 238.385 173.849 237.956C174.269 237.527 174.479 236.962 174.479 236.262C174.479 235.562 174.269 234.997 173.849 234.568C173.429 234.139 172.897 233.924 172.253 233.924C171.609 233.924 171.077 234.139 170.657 234.568C170.246 234.997 170.041 235.562 170.041 236.262C170.041 236.962 170.246 237.527 170.657 237.956C171.077 238.385 171.609 238.6 172.253 238.6ZM181.136 240.098C180.38 240.098 179.699 239.935 179.092 239.608C178.486 239.281 178.01 238.829 177.664 238.25C177.328 237.662 177.16 236.999 177.16 236.262C177.16 235.525 177.328 234.867 177.664 234.288C178.01 233.709 178.486 233.257 179.092 232.93C179.699 232.603 180.38 232.44 181.136 232.44C181.902 232.44 182.588 232.603 183.194 232.93C183.801 233.257 184.272 233.709 184.608 234.288C184.954 234.867 185.126 235.525 185.126 236.262C185.126 236.999 184.954 237.662 184.608 238.25C184.272 238.829 183.801 239.281 183.194 239.608C182.588 239.935 181.902 240.098 181.136 240.098ZM181.136 238.6C181.78 238.6 182.312 238.385 182.732 237.956C183.152 237.527 183.362 236.962 183.362 236.262C183.362 235.562 183.152 234.997 182.732 234.568C182.312 234.139 181.78 233.924 181.136 233.924C180.492 233.924 179.96 234.139 179.54 234.568C179.13 234.997 178.924 235.562 178.924 236.262C178.924 236.962 179.13 237.527 179.54 237.956C179.96 238.385 180.492 238.6 181.136 238.6ZM189.698 230.928C188.96 230.928 188.592 231.329 188.592 232.132V232.58H190.65V233.98H188.648V240H186.898V233.98H185.666V232.58H186.898V232.104C186.898 231.301 187.131 230.671 187.598 230.214C188.064 229.747 188.722 229.514 189.572 229.514C190.244 229.514 190.771 229.649 191.154 229.92L190.664 231.236C190.365 231.031 190.043 230.928 189.698 230.928ZM194.475 233.616C194.979 232.832 195.865 232.44 197.135 232.44V234.106C196.985 234.078 196.85 234.064 196.729 234.064C196.047 234.064 195.515 234.265 195.133 234.666C194.75 235.058 194.559 235.627 194.559 236.374V240H192.809V232.524H194.475V233.616ZM205.439 236.304C205.439 236.425 205.43 236.598 205.411 236.822H199.545C199.648 237.373 199.914 237.811 200.343 238.138C200.782 238.455 201.323 238.614 201.967 238.614C202.788 238.614 203.465 238.343 203.997 237.802L204.935 238.88C204.599 239.281 204.174 239.585 203.661 239.79C203.148 239.995 202.569 240.098 201.925 240.098C201.104 240.098 200.38 239.935 199.755 239.608C199.13 239.281 198.644 238.829 198.299 238.25C197.963 237.662 197.795 236.999 197.795 236.262C197.795 235.534 197.958 234.881 198.285 234.302C198.621 233.714 199.083 233.257 199.671 232.93C200.259 232.603 200.922 232.44 201.659 232.44C202.387 232.44 203.036 232.603 203.605 232.93C204.184 233.247 204.632 233.7 204.949 234.288C205.276 234.867 205.439 235.539 205.439 236.304ZM201.659 233.84C201.099 233.84 200.623 234.008 200.231 234.344C199.848 234.671 199.615 235.109 199.531 235.66H203.773C203.698 235.119 203.47 234.68 203.087 234.344C202.704 234.008 202.228 233.84 201.659 233.84ZM209.631 232.44C210.732 232.44 211.572 232.706 212.151 233.238C212.739 233.761 213.033 234.554 213.033 235.618V240H211.381V239.09C211.166 239.417 210.858 239.669 210.457 239.846C210.065 240.014 209.589 240.098 209.029 240.098C208.469 240.098 207.979 240.005 207.559 239.818C207.139 239.622 206.812 239.356 206.579 239.02C206.355 238.675 206.243 238.287 206.243 237.858C206.243 237.186 206.49 236.649 206.985 236.248C207.489 235.837 208.278 235.632 209.351 235.632H211.283V235.52C211.283 234.997 211.124 234.596 210.807 234.316C210.499 234.036 210.037 233.896 209.421 233.896C209.001 233.896 208.586 233.961 208.175 234.092C207.774 234.223 207.433 234.405 207.153 234.638L206.467 233.364C206.859 233.065 207.33 232.837 207.881 232.678C208.432 232.519 209.015 232.44 209.631 232.44ZM209.393 238.824C209.832 238.824 210.219 238.726 210.555 238.53C210.9 238.325 211.143 238.035 211.283 237.662V236.794H209.477C208.469 236.794 207.965 237.125 207.965 237.788C207.965 238.105 208.091 238.357 208.343 238.544C208.595 238.731 208.945 238.824 209.393 238.824ZM222.529 229.612V240H220.849V239.034C220.56 239.389 220.2 239.655 219.771 239.832C219.351 240.009 218.884 240.098 218.371 240.098C217.652 240.098 217.004 239.939 216.425 239.622C215.856 239.305 215.408 238.857 215.081 238.278C214.754 237.69 214.591 237.018 214.591 236.262C214.591 235.506 214.754 234.839 215.081 234.26C215.408 233.681 215.856 233.233 216.425 232.916C217.004 232.599 217.652 232.44 218.371 232.44C218.866 232.44 219.318 232.524 219.729 232.692C220.14 232.86 220.49 233.112 220.779 233.448V229.612H222.529ZM218.581 238.6C219.001 238.6 219.379 238.507 219.715 238.32C220.051 238.124 220.317 237.849 220.513 237.494C220.709 237.139 220.807 236.729 220.807 236.262C220.807 235.795 220.709 235.385 220.513 235.03C220.317 234.675 220.051 234.405 219.715 234.218C219.379 234.022 219.001 233.924 218.581 233.924C218.161 233.924 217.783 234.022 217.447 234.218C217.111 234.405 216.845 234.675 216.649 235.03C216.453 235.385 216.355 235.795 216.355 236.262C216.355 236.729 216.453 237.139 216.649 237.494C216.845 237.849 217.111 238.124 217.447 238.32C217.783 238.507 218.161 238.6 218.581 238.6Z" fill="#061178"/>
<path d="M115.567 158.74H112.319V157.2H120.635V158.74H117.387V167H115.567V158.74ZM123.181 160.616C123.685 159.832 124.572 159.44 125.841 159.44V161.106C125.692 161.078 125.557 161.064 125.435 161.064C124.754 161.064 124.222 161.265 123.839 161.666C123.457 162.058 123.265 162.627 123.265 163.374V167H121.515V159.524H123.181V160.616ZM130.001 159.44C131.102 159.44 131.942 159.706 132.521 160.238C133.109 160.761 133.403 161.554 133.403 162.618V167H131.751V166.09C131.536 166.417 131.228 166.669 130.827 166.846C130.435 167.014 129.959 167.098 129.399 167.098C128.839 167.098 128.349 167.005 127.929 166.818C127.509 166.622 127.182 166.356 126.949 166.02C126.725 165.675 126.613 165.287 126.613 164.858C126.613 164.186 126.86 163.649 127.355 163.248C127.859 162.837 128.648 162.632 129.721 162.632H131.653V162.52C131.653 161.997 131.494 161.596 131.177 161.316C130.869 161.036 130.407 160.896 129.791 160.896C129.371 160.896 128.956 160.961 128.545 161.092C128.144 161.223 127.803 161.405 127.523 161.638L126.837 160.364C127.229 160.065 127.7 159.837 128.251 159.678C128.802 159.519 129.385 159.44 130.001 159.44ZM129.763 165.824C130.202 165.824 130.589 165.726 130.925 165.53C131.27 165.325 131.513 165.035 131.653 164.662V163.794H129.847C128.839 163.794 128.335 164.125 128.335 164.788C128.335 165.105 128.461 165.357 128.713 165.544C128.965 165.731 129.315 165.824 129.763 165.824ZM139.751 159.44C140.694 159.44 141.45 159.715 142.019 160.266C142.588 160.817 142.873 161.633 142.873 162.716V167H141.123V162.94C141.123 162.287 140.969 161.797 140.661 161.47C140.353 161.134 139.914 160.966 139.345 160.966C138.701 160.966 138.192 161.162 137.819 161.554C137.446 161.937 137.259 162.492 137.259 163.22V167H135.509V159.524H137.175V160.49C137.464 160.145 137.828 159.883 138.267 159.706C138.706 159.529 139.2 159.44 139.751 159.44ZM147.263 167.098C146.656 167.098 146.064 167.019 145.485 166.86C144.906 166.701 144.444 166.501 144.099 166.258L144.771 164.928C145.107 165.152 145.508 165.334 145.975 165.474C146.451 165.605 146.918 165.67 147.375 165.67C148.42 165.67 148.943 165.395 148.943 164.844C148.943 164.583 148.808 164.401 148.537 164.298C148.276 164.195 147.851 164.097 147.263 164.004C146.647 163.911 146.143 163.803 145.751 163.682C145.368 163.561 145.032 163.351 144.743 163.052C144.463 162.744 144.323 162.319 144.323 161.778C144.323 161.069 144.617 160.504 145.205 160.084C145.802 159.655 146.605 159.44 147.613 159.44C148.126 159.44 148.64 159.501 149.153 159.622C149.666 159.734 150.086 159.888 150.413 160.084L149.741 161.414C149.106 161.041 148.392 160.854 147.599 160.854C147.086 160.854 146.694 160.933 146.423 161.092C146.162 161.241 146.031 161.442 146.031 161.694C146.031 161.974 146.171 162.175 146.451 162.296C146.74 162.408 147.184 162.515 147.781 162.618C148.378 162.711 148.868 162.819 149.251 162.94C149.634 163.061 149.96 163.267 150.231 163.556C150.511 163.845 150.651 164.256 150.651 164.788C150.651 165.488 150.348 166.048 149.741 166.468C149.134 166.888 148.308 167.098 147.263 167.098ZM152.018 156.612H153.768V167H152.018V156.612ZM158.781 159.44C159.882 159.44 160.722 159.706 161.301 160.238C161.889 160.761 162.183 161.554 162.183 162.618V167H160.531V166.09C160.316 166.417 160.008 166.669 159.607 166.846C159.215 167.014 158.739 167.098 158.179 167.098C157.619 167.098 157.129 167.005 156.709 166.818C156.289 166.622 155.962 166.356 155.729 166.02C155.505 165.675 155.393 165.287 155.393 164.858C155.393 164.186 155.64 163.649 156.135 163.248C156.639 162.837 157.427 162.632 158.501 162.632H160.433V162.52C160.433 161.997 160.274 161.596 159.957 161.316C159.649 161.036 159.187 160.896 158.571 160.896C158.151 160.896 157.735 160.961 157.325 161.092C156.923 161.223 156.583 161.405 156.303 161.638L155.617 160.364C156.009 160.065 156.48 159.837 157.031 159.678C157.581 159.519 158.165 159.44 158.781 159.44ZM158.543 165.824C158.981 165.824 159.369 165.726 159.705 165.53C160.05 165.325 160.293 165.035 160.433 164.662V163.794H158.627C157.619 163.794 157.115 164.125 157.115 164.788C157.115 165.105 157.241 165.357 157.493 165.544C157.745 165.731 158.095 165.824 158.543 165.824ZM168.783 166.594C168.577 166.762 168.325 166.888 168.027 166.972C167.737 167.056 167.429 167.098 167.103 167.098C166.281 167.098 165.647 166.883 165.199 166.454C164.751 166.025 164.527 165.399 164.527 164.578V160.98H163.295V159.58H164.527V157.872H166.277V159.58H168.279V160.98H166.277V164.536C166.277 164.9 166.365 165.18 166.543 165.376C166.72 165.563 166.977 165.656 167.313 165.656C167.705 165.656 168.031 165.553 168.293 165.348L168.783 166.594ZM170.082 159.524H171.832V167H170.082V159.524ZM170.964 158.292C170.647 158.292 170.381 158.194 170.166 157.998C169.952 157.793 169.844 157.541 169.844 157.242C169.844 156.943 169.952 156.696 170.166 156.5C170.381 156.295 170.647 156.192 170.964 156.192C171.282 156.192 171.548 156.29 171.762 156.486C171.977 156.673 172.084 156.911 172.084 157.2C172.084 157.508 171.977 157.769 171.762 157.984C171.557 158.189 171.291 158.292 170.964 158.292ZM177.349 167.098C176.593 167.098 175.912 166.935 175.305 166.608C174.699 166.281 174.223 165.829 173.877 165.25C173.541 164.662 173.373 163.999 173.373 163.262C173.373 162.525 173.541 161.867 173.877 161.288C174.223 160.709 174.699 160.257 175.305 159.93C175.912 159.603 176.593 159.44 177.349 159.44C178.115 159.44 178.801 159.603 179.407 159.93C180.014 160.257 180.485 160.709 180.821 161.288C181.167 161.867 181.339 162.525 181.339 163.262C181.339 163.999 181.167 164.662 180.821 165.25C180.485 165.829 180.014 166.281 179.407 166.608C178.801 166.935 178.115 167.098 177.349 167.098ZM177.349 165.6C177.993 165.6 178.525 165.385 178.945 164.956C179.365 164.527 179.575 163.962 179.575 163.262C179.575 162.562 179.365 161.997 178.945 161.568C178.525 161.139 177.993 160.924 177.349 160.924C176.705 160.924 176.173 161.139 175.753 161.568C175.343 161.997 175.137 162.562 175.137 163.262C175.137 163.962 175.343 164.527 175.753 164.956C176.173 165.385 176.705 165.6 177.349 165.6ZM187.115 159.44C188.057 159.44 188.813 159.715 189.383 160.266C189.952 160.817 190.237 161.633 190.237 162.716V167H188.487V162.94C188.487 162.287 188.333 161.797 188.025 161.47C187.717 161.134 187.278 160.966 186.709 160.966C186.065 160.966 185.556 161.162 185.183 161.554C184.809 161.937 184.623 162.492 184.623 163.22V167H182.873V159.524H184.539V160.49C184.828 160.145 185.192 159.883 185.631 159.706C186.069 159.529 186.564 159.44 187.115 159.44ZM203.564 167.154L202.332 165.964C201.417 166.748 200.32 167.14 199.042 167.14C198.36 167.14 197.749 167.028 197.208 166.804C196.666 166.58 196.242 166.272 195.934 165.88C195.626 165.479 195.472 165.026 195.472 164.522C195.472 163.915 195.649 163.383 196.004 162.926C196.358 162.459 196.937 162.002 197.74 161.554C197.348 161.162 197.068 160.798 196.9 160.462C196.732 160.117 196.648 159.762 196.648 159.398C196.648 158.707 196.904 158.152 197.418 157.732C197.94 157.303 198.631 157.088 199.49 157.088C200.283 157.088 200.918 157.284 201.394 157.676C201.87 158.059 202.108 158.581 202.108 159.244C202.108 159.748 201.949 160.196 201.632 160.588C201.324 160.98 200.815 161.377 200.106 161.778L202.22 163.794C202.453 163.337 202.635 162.786 202.766 162.142L204.18 162.604C203.993 163.472 203.699 164.219 203.298 164.844L204.53 166.02L203.564 167.154ZM199.49 158.334C199.107 158.334 198.804 158.432 198.58 158.628C198.356 158.815 198.244 159.062 198.244 159.37C198.244 159.594 198.304 159.809 198.426 160.014C198.547 160.21 198.78 160.481 199.126 160.826C199.686 160.518 200.073 160.252 200.288 160.028C200.512 159.795 200.624 159.543 200.624 159.272C200.624 158.983 200.521 158.754 200.316 158.586C200.12 158.418 199.844 158.334 199.49 158.334ZM199.168 165.712C199.98 165.712 200.689 165.465 201.296 164.97L198.706 162.492C198.146 162.8 197.749 163.099 197.516 163.388C197.292 163.668 197.18 163.985 197.18 164.34C197.18 164.751 197.362 165.082 197.726 165.334C198.09 165.586 198.57 165.712 199.168 165.712ZM211.676 158.74H208.428V157.2H216.744V158.74H213.496V167H211.676V158.74ZM224.337 159.524L220.837 167.602C220.51 168.414 220.113 168.983 219.647 169.31C219.18 169.646 218.615 169.814 217.953 169.814C217.579 169.814 217.211 169.753 216.847 169.632C216.483 169.511 216.184 169.343 215.951 169.128L216.651 167.84C216.819 167.999 217.015 168.125 217.239 168.218C217.472 168.311 217.705 168.358 217.939 168.358C218.247 168.358 218.499 168.279 218.695 168.12C218.9 167.961 219.087 167.695 219.255 167.322L219.381 167.028L216.119 159.524H217.939L220.291 165.054L222.657 159.524H224.337ZM229.434 159.44C230.162 159.44 230.811 159.599 231.38 159.916C231.959 160.233 232.412 160.681 232.738 161.26C233.065 161.839 233.228 162.506 233.228 163.262C233.228 164.018 233.065 164.69 232.738 165.278C232.412 165.857 231.959 166.305 231.38 166.622C230.811 166.939 230.162 167.098 229.434 167.098C228.426 167.098 227.628 166.762 227.04 166.09V169.716H225.29V159.524H226.956V160.504C227.246 160.149 227.6 159.883 228.02 159.706C228.45 159.529 228.921 159.44 229.434 159.44ZM229.238 165.6C229.882 165.6 230.41 165.385 230.82 164.956C231.24 164.527 231.45 163.962 231.45 163.262C231.45 162.562 231.24 161.997 230.82 161.568C230.41 161.139 229.882 160.924 229.238 160.924C228.818 160.924 228.44 161.022 228.104 161.218C227.768 161.405 227.502 161.675 227.306 162.03C227.11 162.385 227.012 162.795 227.012 163.262C227.012 163.729 227.11 164.139 227.306 164.494C227.502 164.849 227.768 165.124 228.104 165.32C228.44 165.507 228.818 165.6 229.238 165.6ZM241.776 163.304C241.776 163.425 241.767 163.598 241.748 163.822H235.882C235.985 164.373 236.251 164.811 236.68 165.138C237.119 165.455 237.66 165.614 238.304 165.614C239.125 165.614 239.802 165.343 240.334 164.802L241.272 165.88C240.936 166.281 240.511 166.585 239.998 166.79C239.485 166.995 238.906 167.098 238.262 167.098C237.441 167.098 236.717 166.935 236.092 166.608C235.467 166.281 234.981 165.829 234.636 165.25C234.3 164.662 234.132 163.999 234.132 163.262C234.132 162.534 234.295 161.881 234.622 161.302C234.958 160.714 235.42 160.257 236.008 159.93C236.596 159.603 237.259 159.44 237.996 159.44C238.724 159.44 239.373 159.603 239.942 159.93C240.521 160.247 240.969 160.7 241.286 161.288C241.613 161.867 241.776 162.539 241.776 163.304ZM237.996 160.84C237.436 160.84 236.96 161.008 236.568 161.344C236.185 161.671 235.952 162.109 235.868 162.66H240.11C240.035 162.119 239.807 161.68 239.424 161.344C239.041 161.008 238.565 160.84 237.996 160.84ZM245.627 167.098C245.02 167.098 244.428 167.019 243.849 166.86C243.27 166.701 242.808 166.501 242.463 166.258L243.135 164.928C243.471 165.152 243.872 165.334 244.339 165.474C244.815 165.605 245.282 165.67 245.739 165.67C246.784 165.67 247.307 165.395 247.307 164.844C247.307 164.583 247.172 164.401 246.901 164.298C246.64 164.195 246.215 164.097 245.627 164.004C245.011 163.911 244.507 163.803 244.115 163.682C243.732 163.561 243.396 163.351 243.107 163.052C242.827 162.744 242.687 162.319 242.687 161.778C242.687 161.069 242.981 160.504 243.569 160.084C244.166 159.655 244.969 159.44 245.977 159.44C246.49 159.44 247.004 159.501 247.517 159.622C248.03 159.734 248.45 159.888 248.777 160.084L248.105 161.414C247.47 161.041 246.756 160.854 245.963 160.854C245.45 160.854 245.058 160.933 244.787 161.092C244.526 161.241 244.395 161.442 244.395 161.694C244.395 161.974 244.535 162.175 244.815 162.296C245.104 162.408 245.548 162.515 246.145 162.618C246.742 162.711 247.232 162.819 247.615 162.94C247.998 163.061 248.324 163.267 248.595 163.556C248.875 163.845 249.015 164.256 249.015 164.788C249.015 165.488 248.712 166.048 248.105 166.468C247.498 166.888 246.672 167.098 245.627 167.098ZM257.41 163.304C257.41 163.425 257.401 163.598 257.382 163.822H251.516C251.619 164.373 251.885 164.811 252.314 165.138C252.753 165.455 253.294 165.614 253.938 165.614C254.759 165.614 255.436 165.343 255.968 164.802L256.906 165.88C256.57 166.281 256.145 166.585 255.632 166.79C255.119 166.995 254.54 167.098 253.896 167.098C253.075 167.098 252.351 166.935 251.726 166.608C251.101 166.281 250.615 165.829 250.27 165.25C249.934 164.662 249.766 163.999 249.766 163.262C249.766 162.534 249.929 161.881 250.256 161.302C250.592 160.714 251.054 160.257 251.642 159.93C252.23 159.603 252.893 159.44 253.63 159.44C254.358 159.44 255.007 159.603 255.576 159.93C256.155 160.247 256.603 160.7 256.92 161.288C257.247 161.867 257.41 162.539 257.41 163.304ZM253.63 160.84C253.07 160.84 252.594 161.008 252.202 161.344C251.819 161.671 251.586 162.109 251.502 162.66H255.744C255.669 162.119 255.441 161.68 255.058 161.344C254.675 161.008 254.199 160.84 253.63 160.84ZM263.445 166.594C263.24 166.762 262.988 166.888 262.689 166.972C262.4 167.056 262.092 167.098 261.765 167.098C260.944 167.098 260.309 166.883 259.861 166.454C259.413 166.025 259.189 165.399 259.189 164.578V160.98H257.957V159.58H259.189V157.872H260.939V159.58H262.941V160.98H260.939V164.536C260.939 164.9 261.028 165.18 261.205 165.376C261.382 165.563 261.639 165.656 261.975 165.656C262.367 165.656 262.694 165.553 262.955 165.348L263.445 166.594Z" fill="#061178"/>
<path d="M135.437 307.98C135.111 308.363 134.728 308.652 134.289 308.848C133.86 309.044 133.389 309.142 132.875 309.142C132.203 309.142 131.587 308.988 131.027 308.68C130.467 308.381 129.828 307.859 129.109 307.112C128.204 307.037 127.392 306.776 126.673 306.328C125.955 305.871 125.395 305.278 124.993 304.55C124.592 303.813 124.391 302.996 124.391 302.1C124.391 301.148 124.62 300.289 125.077 299.524C125.535 298.749 126.165 298.147 126.967 297.718C127.77 297.279 128.671 297.06 129.669 297.06C130.668 297.06 131.569 297.279 132.371 297.718C133.174 298.147 133.804 298.745 134.261 299.51C134.719 300.275 134.947 301.139 134.947 302.1C134.947 302.875 134.793 303.593 134.485 304.256C134.177 304.909 133.748 305.469 133.197 305.936C132.647 306.393 132.007 306.725 131.279 306.93C131.55 307.219 131.816 307.429 132.077 307.56C132.339 307.691 132.619 307.756 132.917 307.756C133.561 307.756 134.121 307.495 134.597 306.972L135.437 307.98ZM126.225 302.1C126.225 302.753 126.375 303.346 126.673 303.878C126.972 304.401 127.383 304.811 127.905 305.11C128.428 305.399 129.016 305.544 129.669 305.544C130.323 305.544 130.911 305.399 131.433 305.11C131.956 304.811 132.367 304.401 132.665 303.878C132.964 303.346 133.113 302.753 133.113 302.1C133.113 301.447 132.964 300.859 132.665 300.336C132.367 299.804 131.956 299.393 131.433 299.104C130.911 298.805 130.323 298.656 129.669 298.656C129.016 298.656 128.428 298.805 127.905 299.104C127.383 299.393 126.972 299.804 126.673 300.336C126.375 300.859 126.225 301.447 126.225 302.1ZM143.806 299.524V307H142.14V306.048C141.86 306.384 141.51 306.645 141.09 306.832C140.67 307.009 140.218 307.098 139.732 307.098C138.734 307.098 137.945 306.823 137.366 306.272C136.797 305.712 136.512 304.886 136.512 303.794V299.524H138.262V303.556C138.262 304.228 138.412 304.732 138.71 305.068C139.018 305.395 139.452 305.558 140.012 305.558C140.638 305.558 141.132 305.367 141.496 304.984C141.87 304.592 142.056 304.032 142.056 303.304V299.524H143.806ZM148.814 299.44C149.915 299.44 150.755 299.706 151.334 300.238C151.922 300.761 152.216 301.554 152.216 302.618V307H150.564V306.09C150.349 306.417 150.041 306.669 149.64 306.846C149.248 307.014 148.772 307.098 148.212 307.098C147.652 307.098 147.162 307.005 146.742 306.818C146.322 306.622 145.995 306.356 145.762 306.02C145.538 305.675 145.426 305.287 145.426 304.858C145.426 304.186 145.673 303.649 146.168 303.248C146.672 302.837 147.46 302.632 148.534 302.632H150.466V302.52C150.466 301.997 150.307 301.596 149.99 301.316C149.682 301.036 149.22 300.896 148.604 300.896C148.184 300.896 147.768 300.961 147.358 301.092C146.956 301.223 146.616 301.405 146.336 301.638L145.65 300.364C146.042 300.065 146.513 299.837 147.064 299.678C147.614 299.519 148.198 299.44 148.814 299.44ZM148.576 305.824C149.014 305.824 149.402 305.726 149.738 305.53C150.083 305.325 150.326 305.035 150.466 304.662V303.794H148.66C147.652 303.794 147.148 304.125 147.148 304.788C147.148 305.105 147.274 305.357 147.526 305.544C147.778 305.731 148.128 305.824 148.576 305.824ZM154.322 296.612H156.072V307H154.322V296.612ZM158.229 299.524H159.979V307H158.229V299.524ZM159.111 298.292C158.793 298.292 158.527 298.194 158.313 297.998C158.098 297.793 157.991 297.541 157.991 297.242C157.991 296.943 158.098 296.696 158.313 296.5C158.527 296.295 158.793 296.192 159.111 296.192C159.428 296.192 159.694 296.29 159.909 296.486C160.123 296.673 160.231 296.911 160.231 297.2C160.231 297.508 160.123 297.769 159.909 297.984C159.703 298.189 159.437 298.292 159.111 298.292ZM166.629 306.594C166.424 306.762 166.172 306.888 165.873 306.972C165.584 307.056 165.276 307.098 164.949 307.098C164.128 307.098 163.493 306.883 163.045 306.454C162.597 306.025 162.373 305.399 162.373 304.578V300.98H161.141V299.58H162.373V297.872H164.123V299.58H166.125V300.98H164.123V304.536C164.123 304.9 164.212 305.18 164.389 305.376C164.567 305.563 164.823 305.656 165.159 305.656C165.551 305.656 165.878 305.553 166.139 305.348L166.629 306.594ZM174.792 299.524L171.292 307.602C170.966 308.414 170.569 308.983 170.102 309.31C169.636 309.646 169.071 309.814 168.408 309.814C168.035 309.814 167.666 309.753 167.302 309.632C166.938 309.511 166.64 309.343 166.406 309.128L167.106 307.84C167.274 307.999 167.47 308.125 167.694 308.218C167.928 308.311 168.161 308.358 168.394 308.358C168.702 308.358 168.954 308.279 169.15 308.12C169.356 307.961 169.542 307.695 169.71 307.322L169.836 307.028L166.574 299.524H168.394L170.746 305.054L173.112 299.524H174.792ZM185.999 304.732H181.099L180.133 307H178.257L182.667 297.2H184.459L188.883 307H186.979L185.999 304.732ZM185.397 303.304L183.549 299.02L181.715 303.304H185.397ZM192.063 307.098C191.456 307.098 190.864 307.019 190.285 306.86C189.706 306.701 189.244 306.501 188.899 306.258L189.571 304.928C189.907 305.152 190.308 305.334 190.775 305.474C191.251 305.605 191.718 305.67 192.175 305.67C193.22 305.67 193.743 305.395 193.743 304.844C193.743 304.583 193.608 304.401 193.337 304.298C193.076 304.195 192.651 304.097 192.063 304.004C191.447 303.911 190.943 303.803 190.551 303.682C190.168 303.561 189.832 303.351 189.543 303.052C189.263 302.744 189.123 302.319 189.123 301.778C189.123 301.069 189.417 300.504 190.005 300.084C190.602 299.655 191.405 299.44 192.413 299.44C192.926 299.44 193.44 299.501 193.953 299.622C194.466 299.734 194.886 299.888 195.213 300.084L194.541 301.414C193.906 301.041 193.192 300.854 192.399 300.854C191.886 300.854 191.494 300.933 191.223 301.092C190.962 301.241 190.831 301.442 190.831 301.694C190.831 301.974 190.971 302.175 191.251 302.296C191.54 302.408 191.984 302.515 192.581 302.618C193.178 302.711 193.668 302.819 194.051 302.94C194.434 303.061 194.76 303.267 195.031 303.556C195.311 303.845 195.451 304.256 195.451 304.788C195.451 305.488 195.148 306.048 194.541 306.468C193.934 306.888 193.108 307.098 192.063 307.098ZM199.128 307.098C198.522 307.098 197.929 307.019 197.35 306.86C196.772 306.701 196.31 306.501 195.964 306.258L196.636 304.928C196.972 305.152 197.374 305.334 197.84 305.474C198.316 305.605 198.783 305.67 199.24 305.67C200.286 305.67 200.808 305.395 200.808 304.844C200.808 304.583 200.673 304.401 200.402 304.298C200.141 304.195 199.716 304.097 199.128 304.004C198.512 303.911 198.008 303.803 197.616 303.682C197.234 303.561 196.898 303.351 196.608 303.052C196.328 302.744 196.188 302.319 196.188 301.778C196.188 301.069 196.482 300.504 197.07 300.084C197.668 299.655 198.47 299.44 199.478 299.44C199.992 299.44 200.505 299.501 201.018 299.622C201.532 299.734 201.952 299.888 202.278 300.084L201.606 301.414C200.972 301.041 200.258 300.854 199.464 300.854C198.951 300.854 198.559 300.933 198.288 301.092C198.027 301.241 197.896 301.442 197.896 301.694C197.896 301.974 198.036 302.175 198.316 302.296C198.606 302.408 199.049 302.515 199.646 302.618C200.244 302.711 200.734 302.819 201.116 302.94C201.499 303.061 201.826 303.267 202.096 303.556C202.376 303.845 202.516 304.256 202.516 304.788C202.516 305.488 202.213 306.048 201.606 306.468C201 306.888 200.174 307.098 199.128 307.098ZM211.121 299.524V307H209.455V306.048C209.175 306.384 208.825 306.645 208.405 306.832C207.985 307.009 207.533 307.098 207.047 307.098C206.049 307.098 205.26 306.823 204.681 306.272C204.112 305.712 203.827 304.886 203.827 303.794V299.524H205.577V303.556C205.577 304.228 205.727 304.732 206.025 305.068C206.333 305.395 206.767 305.558 207.327 305.558C207.953 305.558 208.447 305.367 208.811 304.984C209.185 304.592 209.371 304.032 209.371 303.304V299.524H211.121ZM214.939 300.616C215.443 299.832 216.329 299.44 217.599 299.44V301.106C217.449 301.078 217.314 301.064 217.193 301.064C216.511 301.064 215.979 301.265 215.597 301.666C215.214 302.058 215.023 302.627 215.023 303.374V307H213.273V299.524H214.939V300.616ZM221.758 299.44C222.859 299.44 223.699 299.706 224.278 300.238C224.866 300.761 225.16 301.554 225.16 302.618V307H223.508V306.09C223.293 306.417 222.985 306.669 222.584 306.846C222.192 307.014 221.716 307.098 221.156 307.098C220.596 307.098 220.106 307.005 219.686 306.818C219.266 306.622 218.939 306.356 218.706 306.02C218.482 305.675 218.37 305.287 218.37 304.858C218.37 304.186 218.617 303.649 219.112 303.248C219.616 302.837 220.405 302.632 221.478 302.632H223.41V302.52C223.41 301.997 223.251 301.596 222.934 301.316C222.626 301.036 222.164 300.896 221.548 300.896C221.128 300.896 220.713 300.961 220.302 301.092C219.901 301.223 219.56 301.405 219.28 301.638L218.594 300.364C218.986 300.065 219.457 299.837 220.008 299.678C220.559 299.519 221.142 299.44 221.758 299.44ZM221.52 305.824C221.959 305.824 222.346 305.726 222.682 305.53C223.027 305.325 223.27 305.035 223.41 304.662V303.794H221.604C220.596 303.794 220.092 304.125 220.092 304.788C220.092 305.105 220.218 305.357 220.47 305.544C220.722 305.731 221.072 305.824 221.52 305.824ZM231.508 299.44C232.451 299.44 233.207 299.715 233.776 300.266C234.345 300.817 234.63 301.633 234.63 302.716V307H232.88V302.94C232.88 302.287 232.726 301.797 232.418 301.47C232.11 301.134 231.671 300.966 231.102 300.966C230.458 300.966 229.949 301.162 229.576 301.554C229.203 301.937 229.016 302.492 229.016 303.22V307H227.266V299.524H228.932V300.49C229.221 300.145 229.585 299.883 230.024 299.706C230.463 299.529 230.957 299.44 231.508 299.44ZM240.208 307.098C239.434 307.098 238.738 306.935 238.122 306.608C237.506 306.281 237.026 305.829 236.68 305.25C236.335 304.662 236.162 303.999 236.162 303.262C236.162 302.525 236.335 301.867 236.68 301.288C237.026 300.709 237.502 300.257 238.108 299.93C238.724 299.603 239.424 299.44 240.208 299.44C240.946 299.44 241.59 299.589 242.14 299.888C242.7 300.187 243.12 300.616 243.4 301.176L242.056 301.96C241.842 301.615 241.571 301.358 241.244 301.19C240.927 301.013 240.577 300.924 240.194 300.924C239.541 300.924 239 301.139 238.57 301.568C238.141 301.988 237.926 302.553 237.926 303.262C237.926 303.971 238.136 304.541 238.556 304.97C238.986 305.39 239.532 305.6 240.194 305.6C240.577 305.6 240.927 305.516 241.244 305.348C241.571 305.171 241.842 304.909 242.056 304.564L243.4 305.348C243.111 305.908 242.686 306.342 242.126 306.65C241.576 306.949 240.936 307.098 240.208 307.098ZM251.692 303.304C251.692 303.425 251.682 303.598 251.664 303.822H245.798C245.9 304.373 246.166 304.811 246.596 305.138C247.034 305.455 247.576 305.614 248.22 305.614C249.041 305.614 249.718 305.343 250.25 304.802L251.188 305.88C250.852 306.281 250.427 306.585 249.914 306.79C249.4 306.995 248.822 307.098 248.178 307.098C247.356 307.098 246.633 306.935 246.008 306.608C245.382 306.281 244.897 305.829 244.552 305.25C244.216 304.662 244.048 303.999 244.048 303.262C244.048 302.534 244.211 301.881 244.538 301.302C244.874 300.714 245.336 300.257 245.924 299.93C246.512 299.603 247.174 299.44 247.912 299.44C248.64 299.44 249.288 299.603 249.858 299.93C250.436 300.247 250.884 300.7 251.202 301.288C251.528 301.867 251.692 302.539 251.692 303.304ZM247.912 300.84C247.352 300.84 246.876 301.008 246.484 301.344C246.101 301.671 245.868 302.109 245.784 302.66H250.026C249.951 302.119 249.722 301.68 249.34 301.344C248.957 301.008 248.481 300.84 247.912 300.84Z" fill="#061178"/>
<path d="M168.456 376L168.442 369.504L165.222 374.88H164.41L161.19 369.588V376H159.454V366.2H160.952L164.844 372.696L168.666 366.2H170.164L170.178 376H168.456ZM179.545 372.304C179.545 372.425 179.536 372.598 179.517 372.822H173.651C173.754 373.373 174.02 373.811 174.449 374.138C174.888 374.455 175.429 374.614 176.073 374.614C176.894 374.614 177.571 374.343 178.103 373.802L179.041 374.88C178.705 375.281 178.28 375.585 177.767 375.79C177.254 375.995 176.675 376.098 176.031 376.098C175.21 376.098 174.486 375.935 173.861 375.608C173.236 375.281 172.75 374.829 172.405 374.25C172.069 373.662 171.901 372.999 171.901 372.262C171.901 371.534 172.064 370.881 172.391 370.302C172.727 369.714 173.189 369.257 173.777 368.93C174.365 368.603 175.028 368.44 175.765 368.44C176.493 368.44 177.142 368.603 177.711 368.93C178.29 369.247 178.738 369.7 179.055 370.288C179.382 370.867 179.545 371.539 179.545 372.304ZM175.765 369.84C175.205 369.84 174.729 370.008 174.337 370.344C173.954 370.671 173.721 371.109 173.637 371.66H177.879C177.804 371.119 177.576 370.68 177.193 370.344C176.81 370.008 176.334 369.84 175.765 369.84ZM183.737 368.44C184.838 368.44 185.678 368.706 186.257 369.238C186.845 369.761 187.139 370.554 187.139 371.618V376H185.487V375.09C185.272 375.417 184.964 375.669 184.563 375.846C184.171 376.014 183.695 376.098 183.135 376.098C182.575 376.098 182.085 376.005 181.665 375.818C181.245 375.622 180.918 375.356 180.685 375.02C180.461 374.675 180.349 374.287 180.349 373.858C180.349 373.186 180.596 372.649 181.091 372.248C181.595 371.837 182.383 371.632 183.457 371.632H185.389V371.52C185.389 370.997 185.23 370.596 184.913 370.316C184.605 370.036 184.143 369.896 183.527 369.896C183.107 369.896 182.691 369.961 182.281 370.092C181.879 370.223 181.539 370.405 181.259 370.638L180.573 369.364C180.965 369.065 181.436 368.837 181.987 368.678C182.537 368.519 183.121 368.44 183.737 368.44ZM183.499 374.824C183.937 374.824 184.325 374.726 184.661 374.53C185.006 374.325 185.249 374.035 185.389 373.662V372.794H183.583C182.575 372.794 182.071 373.125 182.071 373.788C182.071 374.105 182.197 374.357 182.449 374.544C182.701 374.731 183.051 374.824 183.499 374.824ZM191.555 376.098C190.948 376.098 190.355 376.019 189.777 375.86C189.198 375.701 188.736 375.501 188.391 375.258L189.063 373.928C189.399 374.152 189.8 374.334 190.267 374.474C190.743 374.605 191.209 374.67 191.667 374.67C192.712 374.67 193.235 374.395 193.235 373.844C193.235 373.583 193.099 373.401 192.829 373.298C192.567 373.195 192.143 373.097 191.555 373.004C190.939 372.911 190.435 372.803 190.043 372.682C189.66 372.561 189.324 372.351 189.035 372.052C188.755 371.744 188.615 371.319 188.615 370.778C188.615 370.069 188.909 369.504 189.497 369.084C190.094 368.655 190.897 368.44 191.905 368.44C192.418 368.44 192.931 368.501 193.445 368.622C193.958 368.734 194.378 368.888 194.705 369.084L194.033 370.414C193.398 370.041 192.684 369.854 191.891 369.854C191.377 369.854 190.985 369.933 190.715 370.092C190.453 370.241 190.323 370.442 190.323 370.694C190.323 370.974 190.463 371.175 190.743 371.296C191.032 371.408 191.475 371.515 192.073 371.618C192.67 371.711 193.16 371.819 193.543 371.94C193.925 372.061 194.252 372.267 194.523 372.556C194.803 372.845 194.943 373.256 194.943 373.788C194.943 374.488 194.639 375.048 194.033 375.468C193.426 375.888 192.6 376.098 191.555 376.098ZM203.548 368.524V376H201.882V375.048C201.602 375.384 201.252 375.645 200.832 375.832C200.412 376.009 199.959 376.098 199.474 376.098C198.475 376.098 197.686 375.823 197.108 375.272C196.538 374.712 196.254 373.886 196.254 372.794V368.524H198.004V372.556C198.004 373.228 198.153 373.732 198.452 374.068C198.76 374.395 199.194 374.558 199.754 374.558C200.379 374.558 200.874 374.367 201.238 373.984C201.611 373.592 201.798 373.032 201.798 372.304V368.524H203.548ZM207.365 369.616C207.869 368.832 208.756 368.44 210.025 368.44V370.106C209.876 370.078 209.74 370.064 209.619 370.064C208.938 370.064 208.406 370.265 208.023 370.666C207.64 371.058 207.449 371.627 207.449 372.374V376H205.699V368.524H207.365V369.616ZM218.329 372.304C218.329 372.425 218.32 372.598 218.301 372.822H212.435C212.538 373.373 212.804 373.811 213.233 374.138C213.672 374.455 214.213 374.614 214.857 374.614C215.679 374.614 216.355 374.343 216.887 373.802L217.825 374.88C217.489 375.281 217.065 375.585 216.551 375.79C216.038 375.995 215.459 376.098 214.815 376.098C213.994 376.098 213.271 375.935 212.645 375.608C212.02 375.281 211.535 374.829 211.189 374.25C210.853 373.662 210.685 372.999 210.685 372.262C210.685 371.534 210.849 370.881 211.175 370.302C211.511 369.714 211.973 369.257 212.561 368.93C213.149 368.603 213.812 368.44 214.549 368.44C215.277 368.44 215.926 368.603 216.495 368.93C217.074 369.247 217.522 369.7 217.839 370.288C218.166 370.867 218.329 371.539 218.329 372.304ZM214.549 369.84C213.989 369.84 213.513 370.008 213.121 370.344C212.739 370.671 212.505 371.109 212.421 371.66H216.663C216.589 371.119 216.36 370.68 215.977 370.344C215.595 370.008 215.119 369.84 214.549 369.84Z" fill="#061178"/>
<path d="M173.109 440.732H168.209L167.243 443H165.367L169.777 433.2H171.569L175.993 443H174.089L173.109 440.732ZM172.507 439.304L170.659 435.02L168.825 439.304H172.507ZM184.185 432.612V443H182.505V442.034C182.216 442.389 181.856 442.655 181.427 442.832C181.007 443.009 180.54 443.098 180.027 443.098C179.308 443.098 178.66 442.939 178.081 442.622C177.512 442.305 177.064 441.857 176.737 441.278C176.41 440.69 176.247 440.018 176.247 439.262C176.247 438.506 176.41 437.839 176.737 437.26C177.064 436.681 177.512 436.233 178.081 435.916C178.66 435.599 179.308 435.44 180.027 435.44C180.522 435.44 180.974 435.524 181.385 435.692C181.796 435.86 182.146 436.112 182.435 436.448V432.612H184.185ZM180.237 441.6C180.657 441.6 181.035 441.507 181.371 441.32C181.707 441.124 181.973 440.849 182.169 440.494C182.365 440.139 182.463 439.729 182.463 439.262C182.463 438.795 182.365 438.385 182.169 438.03C181.973 437.675 181.707 437.405 181.371 437.218C181.035 437.022 180.657 436.924 180.237 436.924C179.817 436.924 179.439 437.022 179.103 437.218C178.767 437.405 178.501 437.675 178.305 438.03C178.109 438.385 178.011 438.795 178.011 439.262C178.011 439.729 178.109 440.139 178.305 440.494C178.501 440.849 178.767 441.124 179.103 441.32C179.439 441.507 179.817 441.6 180.237 441.6ZM185.564 445.814C184.827 445.814 184.267 445.669 183.884 445.38L184.388 444.078C184.65 444.274 184.99 444.372 185.41 444.372C185.737 444.372 185.984 444.269 186.152 444.064C186.33 443.868 186.418 443.574 186.418 443.182V435.524H188.168V443.14C188.168 443.971 187.94 444.624 187.482 445.1C187.025 445.576 186.386 445.814 185.564 445.814ZM187.286 434.292C186.969 434.292 186.703 434.194 186.488 433.998C186.274 433.793 186.166 433.541 186.166 433.242C186.166 432.943 186.274 432.696 186.488 432.5C186.703 432.295 186.969 432.192 187.286 432.192C187.604 432.192 187.87 432.29 188.084 432.486C188.299 432.673 188.406 432.911 188.406 433.2C188.406 433.508 188.299 433.769 188.084 433.984C187.879 434.189 187.613 434.292 187.286 434.292ZM197.561 435.524V443H195.895V442.048C195.615 442.384 195.265 442.645 194.845 442.832C194.425 443.009 193.972 443.098 193.487 443.098C192.488 443.098 191.7 442.823 191.121 442.272C190.552 441.712 190.267 440.886 190.267 439.794V435.524H192.017V439.556C192.017 440.228 192.166 440.732 192.465 441.068C192.773 441.395 193.207 441.558 193.767 441.558C194.392 441.558 194.887 441.367 195.251 440.984C195.624 440.592 195.811 440.032 195.811 439.304V435.524H197.561ZM202.022 443.098C201.416 443.098 200.823 443.019 200.244 442.86C199.666 442.701 199.204 442.501 198.858 442.258L199.53 440.928C199.866 441.152 200.268 441.334 200.734 441.474C201.21 441.605 201.677 441.67 202.134 441.67C203.18 441.67 203.702 441.395 203.702 440.844C203.702 440.583 203.567 440.401 203.296 440.298C203.035 440.195 202.61 440.097 202.022 440.004C201.406 439.911 200.902 439.803 200.51 439.682C200.128 439.561 199.792 439.351 199.502 439.052C199.222 438.744 199.082 438.319 199.082 437.778C199.082 437.069 199.376 436.504 199.964 436.084C200.562 435.655 201.364 435.44 202.372 435.44C202.886 435.44 203.399 435.501 203.912 435.622C204.426 435.734 204.846 435.888 205.172 436.084L204.5 437.414C203.866 437.041 203.152 436.854 202.358 436.854C201.845 436.854 201.453 436.933 201.182 437.092C200.921 437.241 200.79 437.442 200.79 437.694C200.79 437.974 200.93 438.175 201.21 438.296C201.5 438.408 201.943 438.515 202.54 438.618C203.138 438.711 203.628 438.819 204.01 438.94C204.393 439.061 204.72 439.267 204.99 439.556C205.27 439.845 205.41 440.256 205.41 440.788C205.41 441.488 205.107 442.048 204.5 442.468C203.894 442.888 203.068 443.098 202.022 443.098ZM211.271 442.594C211.066 442.762 210.814 442.888 210.515 442.972C210.226 443.056 209.918 443.098 209.591 443.098C208.77 443.098 208.135 442.883 207.687 442.454C207.239 442.025 207.015 441.399 207.015 440.578V436.98H205.783V435.58H207.015V433.872H208.765V435.58H210.767V436.98H208.765V440.536C208.765 440.9 208.854 441.18 209.031 441.376C209.209 441.563 209.465 441.656 209.801 441.656C210.193 441.656 210.52 441.553 210.781 441.348L211.271 442.594Z" fill="#061178"/>
<defs>
<filter id="filter0_d" x="-5" y="0" width="385" height="590" filterUnits="userSpaceOnUse" color-interpolation-filters="sRGB">
<feFlood flood-opacity="0" result="BackgroundImageFix"/>
<feColorMatrix in="SourceAlpha" type="matrix" values="0 0 0 0 0 0 0 0 0 0 0 0 0 0 0 0 0 0 127 0"/>
<feOffset dy="9"/>
<feGaussianBlur stdDeviation="12.5"/>
<feColorMatrix type="matrix" values="0 0 0 0 0.0627451 0 0 0 0 0.137255 0 0 0 0 0.619608 0 0 0 0.15 0"/>
<feBlend mode="normal" in2="BackgroundImageFix" result="effect1_dropShadow"/>
<feBlend mode="normal" in="SourceGraphic" in2="effect1_dropShadow" result="shape"/>
</filter>
</defs>
</svg>
