<svg width="385" height="590" viewBox="0 0 385 590" fill="none" xmlns="http://www.w3.org/2000/svg">
<g filter="url(#filter0_d)">
<path fill-rule="evenodd" clip-rule="evenodd" d="M77 42C77 27.6406 88.6406 16 103 16H283C297.359 16 309 27.6406 309 42H345C353.284 42 360 48.7157 360 57V517C360 525.284 353.284 532 345 532H308.924C307.903 545.425 296.686 556 283 556H103C89.3135 556 78.097 545.425 77.0758 532H40C31.7157 532 25 525.284 25 517V57C25 48.7157 31.7157 42 40 42H77Z" fill="white"/>
</g>
<rect x="83" y="22" width="220" height="40" rx="20" fill="#F5F8FF"/>
<rect x="83" y="510" width="220" height="40" rx="20" fill="#F5F8FF"/>
<rect x="37" y="94" width="311" height="384" rx="5" fill="#F5F8FF"/>
<path d="M193.217 202.388L197.066 197.926C197.209 197.759 197.08 197.516 196.849 197.516L189.152 197.516C188.921 197.516 188.792 197.759 188.935 197.926L192.784 202.388C192.894 202.516 193.107 202.516 193.217 202.388Z" fill="#10239E"/>
<path d="M193.217 270.388L197.066 265.926C197.209 265.759 197.08 265.516 196.849 265.516L189.152 265.516C188.921 265.516 188.792 265.759 188.935 265.926L192.784 270.388C192.894 270.516 193.107 270.516 193.217 270.388Z" fill="#10239E"/>
<path d="M193.217 338.388L197.066 333.926C197.209 333.759 197.08 333.516 196.849 333.516L189.152 333.516C188.921 333.516 188.792 333.759 188.935 333.926L192.784 338.388C192.894 338.516 193.107 338.516 193.217 338.388Z" fill="#10239E"/>
<path d="M193.217 406.388L197.066 401.926C197.209 401.759 197.08 401.516 196.849 401.516L189.152 401.516C188.921 401.516 188.792 401.759 188.935 401.926L192.784 406.388C192.894 406.516 193.107 406.516 193.217 406.388Z" fill="#10239E"/>
<path d="M184.38 127.84V123.82H190.36V121.52H184.38V118H191.12V115.68H184.38V112.08H181.88V115.68H178.8C179.14 114.76 179.46 113.82 179.74 112.86L177.28 112.32C176.6 115.04 175.3 117.8 173.74 119.48C174.34 119.8 175.4 120.52 175.88 120.9C176.54 120.12 177.16 119.1 177.74 118H181.88V121.52H176.46V123.82H181.88V127.84H174.16V130.18H192.14V127.84H184.38ZM211.58 119.58H207.36C207.86 118.88 208.44 118.06 209 117.24L206.34 116.42C206 117.38 205.4 118.7 204.86 119.58H200.22L201.64 118.94C201.34 118.22 200.66 117.2 200.06 116.4H211.16V114.14H204.7C204.44 113.48 203.94 112.62 203.44 111.98L200.98 112.58C201.3 113.04 201.64 113.6 201.88 114.14H195V116.4H199.56L197.86 117.14C198.38 117.88 198.94 118.84 199.28 119.58H195.16V122.34C195.16 124.38 195.02 127.24 193.44 129.28C193.98 129.58 195.04 130.52 195.44 130.98C197.28 128.64 197.66 124.88 197.66 122.4V121.9H211.58V119.58Z" fill="#061178"/>
<path d="M122.56 37.6C122.04 36.34 120.88 34.34 119.96 32.86L117.82 33.82C118.7 35.36 119.78 37.44 120.24 38.72L122.56 37.6ZM120.34 49.84C121.2 47.84 122.16 45.4 122.98 43.04L120.78 41.96C119.86 44.48 118.7 47.14 117.84 48.8L120.34 49.84ZM126.26 45.4H129.86V47.34H126.26V45.4ZM129.86 39.46H126.26V37.54H129.86V39.46ZM129.86 43.36H126.26V41.5H129.86V43.36ZM136.44 47.34H132.18V45.4H135.7V43.36H132.18V41.5H135.74V39.46H132.18V37.54H136.12V35.5H131.78L132.82 34.96C132.46 34.18 131.76 33 131.12 32.12L129.08 33.04C129.54 33.78 130.08 34.72 130.44 35.5H126.86C127.26 34.6 127.62 33.68 127.94 32.74L125.74 32.2C124.78 35.36 123.06 38.42 121 40.3C121.46 40.7 122.3 41.58 122.66 42.04C123.14 41.54 123.62 40.96 124.08 40.36V50.76H126.26V49.46H136.44V47.34ZM143.82 35.72H149.68C148.86 36.44 147.9 37.06 146.8 37.6C145.58 37.08 144.52 36.48 143.74 35.8L143.82 35.72ZM145.6 43.94V45.02H142.38V43.94H145.6ZM151.06 45.02H148.06V43.94H151.06V45.02ZM148.06 48.16V46.86H151.06V48.16H148.06ZM142.38 48.16V46.86H145.6V48.16H142.38ZM152.02 33.56L151.62 33.66H145.8C146.12 33.28 146.4 32.88 146.68 32.5L144.1 31.98C143.06 33.64 141.08 35.44 138.12 36.7C138.64 37.06 139.36 37.9 139.7 38.46C140.54 38.04 141.28 37.6 141.98 37.12C142.64 37.68 143.38 38.18 144.14 38.66C142.04 39.32 139.68 39.78 137.28 40.04C137.68 40.58 138.14 41.6 138.32 42.26C138.86 42.18 139.36 42.1 139.9 42V50.76H142.38V50.18H151.06V50.74H153.68V41.92H140.36C142.64 41.48 144.86 40.86 146.84 39.98C149.32 40.98 152.16 41.66 155.12 42.02C155.42 41.36 156.08 40.34 156.58 39.8C154.08 39.58 151.64 39.16 149.52 38.56C151.18 37.46 152.58 36.12 153.58 34.48L152.02 33.56Z" fill="#061178"/>
<path d="M191.86 525.58H184.78L184.84 525.56C184.58 524.8 183.92 523.66 183.38 522.8L181.1 523.6C181.46 524.2 181.84 524.92 182.12 525.58H174.32V527.9H191.86V525.58ZM185 529.3C186.78 530.6 189 532.48 189.98 533.72L192.02 532.18C190.92 530.9 188.6 529.14 186.88 527.96L185 529.3ZM179.06 528.08C177.9 529.52 175.96 530.98 174.18 531.88C174.72 532.28 175.62 533.14 176.06 533.62C177.84 532.54 180 530.72 181.36 528.96L179.06 528.08ZM185.72 531.52C185.14 533.08 184.26 534.38 183.12 535.46C182.02 534.38 181.16 533.08 180.56 531.62L178.42 532.28C179.18 534.06 180.16 535.6 181.34 536.88C179.38 538.18 176.92 539.04 174.02 539.6C174.48 540.12 175.18 541.18 175.46 541.72C178.4 541 180.98 539.98 183.1 538.48C185.12 540 187.62 541.02 190.78 541.62C191.08 540.98 191.7 540 192.22 539.48C189.28 539.04 186.88 538.18 184.96 536.92C186.26 535.64 187.32 534.08 188.12 532.22L185.72 531.52ZM198.24 523.16C197.18 526.1 195.36 528.98 193.46 530.8C193.88 531.38 194.6 532.7 194.86 533.28C195.32 532.8 195.8 532.26 196.26 531.68V541.7H198.7V527.96C199.44 526.62 200.06 525.26 200.6 523.92L198.24 523.16ZM212.22 527.36H210.02V523.28H207.54V527.36H199.92V529.76H207.54V538.84C207.54 539.28 207.36 539.44 206.86 539.44C206.4 539.46 204.64 539.46 203.1 539.4C203.46 540.02 203.88 541.08 204.02 541.76C206.22 541.78 207.72 541.74 208.7 541.36C209.66 541 210.02 540.38 210.02 538.84V529.76H212.22V527.36ZM205.68 535.82C205.08 534.62 203.84 532.66 202.94 531.2L200.82 532.18C201.72 533.7 202.9 535.76 203.42 536.98L205.68 535.82Z" fill="#061178"/>
<path d="M233.86 36.36V45.94H236.08V38.48H240.38V45.86H242.7V36.36H239.14C239.3 35.9 239.46 35.42 239.62 34.92H243.48V32.82H233.22V34.92H237.08C237.02 35.4 236.94 35.9 236.84 36.36H233.86ZM232.22 44.44C232.66 43.26 233.2 41.38 233.64 39.72L232.18 39.38L231.86 39.46H230.92L231.44 38.78C231.06 38.5 230.56 38.16 229.98 37.8C231.1 36.72 232.3 35.16 233.1 33.8L231.68 32.78L231.28 32.9H225.14V34.96H229.8C229.34 35.62 228.8 36.3 228.32 36.8L226.72 35.86L225.5 37.42C226.46 38 227.66 38.78 228.7 39.46H224.66V41.56H227.64V48.14C227.64 48.36 227.56 48.42 227.28 48.44C227 48.44 226.08 48.44 225.22 48.42C225.54 49.06 225.86 50.02 225.94 50.7C227.28 50.7 228.28 50.64 229 50.28C229.76 49.92 229.94 49.3 229.94 48.18V41.56H231.14C230.92 42.48 230.68 43.4 230.46 44.06L232.22 44.44ZM239.32 39.46H237.1V43.1C237.1 44.96 236.52 47.5 232.12 48.96C232.66 49.38 233.3 50.14 233.6 50.62C238.52 48.74 239.32 45.74 239.32 43.14V39.46ZM238.54 47.62C239.66 48.6 241.24 49.96 241.94 50.82L243.6 49.22C242.8 48.4 241.2 47.1 240.08 46.22L238.54 47.62ZM248.78 32.14C247.78 35 246.04 37.82 244.22 39.62C244.64 40.2 245.3 41.5 245.52 42.1C245.92 41.66 246.34 41.16 246.76 40.64V50.72H249.04V37.12C249.8 35.72 250.48 34.28 251 32.86L248.78 32.14ZM259.68 47.66H253.76V44.14H259.68V47.66ZM263.24 38.44V36.14H257.96V32.06H255.46V36.14H250.5V38.44H255.46V41.9H251.4V50.76H253.76V49.9H259.68V50.68H262.14V41.9H257.96V38.44H263.24Z" fill="#061178"/>
<path d="M192.388 41.7834L187.926 37.9349C187.759 37.792 187.516 37.9209 187.516 38.1517V45.8486C187.516 46.0795 187.759 46.2084 187.926 46.0654L192.388 42.217C192.516 42.1068 192.516 41.8935 192.388 41.7834Z" fill="#10239E"/>
<rect x="83" y="142" width="220" height="40" rx="20" fill="white"/>
<rect x="83" y="215" width="220" height="40" rx="20" fill="white"/>
<rect x="83" y="282" width="220" height="40" rx="20" fill="white"/>
<rect x="83" y="351" width="220" height="40" rx="20" fill="white"/>
<rect x="83" y="418" width="220" height="40" rx="20" fill="white"/>
<path d="M198.469 77.2703H197.203C197.131 77.2703 197.062 77.3016 197.014 77.3562L193.594 81.2984V72.5C193.594 72.4312 193.537 72.375 193.469 72.375H192.531C192.462 72.375 192.406 72.4312 192.406 72.5V81.2984L188.986 77.3562C188.939 77.3016 188.87 77.2703 188.797 77.2703H187.531C187.425 77.2703 187.367 77.3969 187.437 77.4766L192.623 83.4531C192.67 83.5072 192.728 83.5506 192.793 83.5803C192.858 83.61 192.929 83.6254 193.001 83.6254C193.072 83.6254 193.143 83.61 193.208 83.5803C193.273 83.5506 193.331 83.5072 193.378 83.4531L198.562 77.4766C198.633 77.3953 198.575 77.2703 198.469 77.2703Z" fill="#10239E"/>
<path d="M198.469 493.27H197.203C197.131 493.27 197.062 493.302 197.014 493.356L193.594 497.298V488.5C193.594 488.431 193.537 488.375 193.469 488.375H192.531C192.462 488.375 192.406 488.431 192.406 488.5V497.298L188.986 493.356C188.939 493.302 188.87 493.27 188.797 493.27H187.531C187.425 493.27 187.367 493.397 187.437 493.477L192.623 499.453C192.67 499.507 192.728 499.551 192.793 499.58C192.858 499.61 192.929 499.625 193.001 499.625C193.072 499.625 193.143 499.61 193.208 499.58C193.273 499.551 193.331 499.507 193.378 499.453L198.562 493.477C198.633 493.395 198.575 493.27 198.469 493.27Z" fill="#10239E"/>
<path d="M182.362 236.384C182.038 235.862 180.598 233.468 180.13 232.856V232.28H181.912V230.3H180.13V226.754H178.168V230.3H176.026V232.28H177.808C177.34 234.458 176.476 237.014 175.468 238.436C175.792 238.976 176.26 239.966 176.458 240.56C177.106 239.516 177.682 237.968 178.168 236.294V243.566H180.13V235.628C180.526 236.492 180.922 237.392 181.138 238.004L182.362 236.384ZM192.424 234.602C191.848 233.612 190.57 232.244 189.472 231.218H192.298V229.256H187.402L188.536 228.77C188.284 228.14 187.726 227.222 187.168 226.556L185.278 227.258C185.71 227.852 186.16 228.626 186.412 229.256H182.362V231.218H189.058L187.834 232.244C188.662 233.036 189.58 234.062 190.228 234.98L188.41 234.494C188.104 235.646 187.618 236.69 186.988 237.608C186.322 236.69 185.764 235.646 185.368 234.512L184.324 234.782C185.062 233.954 185.8 233.018 186.376 232.1L184.486 231.236C183.784 232.424 182.614 233.882 181.48 234.746C181.948 235.088 182.632 235.682 182.956 236.078C183.19 235.88 183.442 235.682 183.676 235.448C184.216 236.852 184.846 238.112 185.656 239.246C184.504 240.362 183.064 241.262 181.354 241.91C181.786 242.27 182.434 243.098 182.704 243.584C184.414 242.882 185.836 241.982 187.024 240.848C188.176 241.964 189.598 242.846 191.308 243.44C191.614 242.846 192.244 241.964 192.73 241.514C191.038 241.028 189.616 240.236 188.446 239.21C189.292 238.058 189.94 236.726 190.408 235.232C190.588 235.484 190.732 235.718 190.858 235.952L192.424 234.602ZM200.002 228.806L199.642 228.878H194.116V230.93H199.084C198.85 232.352 198.526 233.702 198.13 234.962C197.266 234.152 196.402 233.378 195.574 232.676L194.098 234.044C195.142 234.962 196.258 236.024 197.266 237.122C196.312 239.138 195.034 240.758 193.522 241.784C194.026 242.18 194.692 242.972 195.016 243.53C196.564 242.36 197.842 240.83 198.832 238.94C199.516 239.786 200.074 240.614 200.47 241.316L202.126 239.714C201.622 238.814 200.776 237.752 199.822 236.708C200.596 234.566 201.136 232.064 201.424 229.202L200.002 228.806ZM201.532 235.052C202.324 236.276 203.116 237.914 203.386 238.958L205.24 238.022C204.952 236.96 204.088 235.394 203.242 234.224L201.532 235.052ZM210.262 230.75H208.336V226.736H206.212V230.75H201.676V232.802H206.212V240.884C206.212 241.19 206.104 241.28 205.78 241.28C205.474 241.28 204.502 241.298 203.512 241.244C203.8 241.892 204.106 242.918 204.178 243.548C205.672 243.548 206.752 243.458 207.418 243.08C208.102 242.72 208.336 242.108 208.336 240.884V232.802H210.262V230.75Z" fill="#061178"/>
<path d="M152.554 164.896V165.778H151.204V164.896H152.554ZM155.236 165.778H153.994V164.896H155.236V165.778ZM153.994 168.118V167.146H155.236V168.118H153.994ZM151.204 167.146H152.554V168.118H151.204V167.146ZM152.41 163.042H154.192V160.936C154.93 161.62 155.722 162.376 156.136 162.862L157.18 161.206C156.838 160.936 155.596 160.108 154.714 159.55H157V157.984H156.046C156.298 157.444 156.568 156.832 156.856 156.202L155.29 155.77C155.128 156.418 154.804 157.318 154.534 157.984H154.192V155.68C155.218 155.554 156.226 155.41 157.054 155.23L156.01 153.79C154.318 154.186 151.546 154.456 149.188 154.6C149.386 154.978 149.584 155.572 149.638 155.968C150.502 155.95 151.456 155.896 152.41 155.824V157.984H150.952L151.798 157.732C151.69 157.282 151.384 156.544 151.15 155.968L149.782 156.328C149.98 156.85 150.214 157.516 150.34 157.984H149.134V159.55H151.528C150.79 160.45 149.764 161.386 148.846 161.926C149.116 162.412 149.476 163.222 149.638 163.762V170.566H151.204V169.702H155.236V170.332H156.892V163.33H150.286C151.042 162.664 151.78 161.782 152.41 160.882V163.042ZM165.406 154.546H161.644V156.328H163.66V160.954C163.498 160.072 163.12 158.704 162.778 157.66L161.428 157.93C161.77 159.082 162.112 160.594 162.256 161.494L163.66 161.152V162.16C162.778 163.078 161.878 163.978 161.284 164.518V154.492H157.486V156.292H159.574V160.738C159.34 159.856 158.926 158.668 158.548 157.714L157.216 158.056C157.63 159.19 158.08 160.72 158.26 161.62L159.574 161.206V162.304C158.62 163.33 157.684 164.302 157.054 164.914L157.9 166.372C158.44 165.85 158.998 165.238 159.574 164.608V168.424C159.574 168.658 159.502 168.73 159.286 168.73C159.088 168.748 158.458 168.748 157.828 168.712C158.062 169.198 158.332 169.99 158.368 170.476C159.394 170.476 160.114 170.422 160.636 170.116C161.14 169.828 161.284 169.306 161.284 168.46V164.662L162.076 166.066C162.598 165.544 163.12 164.986 163.66 164.41V168.388C163.66 168.64 163.57 168.712 163.336 168.712C163.102 168.712 162.382 168.73 161.662 168.694C161.932 169.18 162.202 170.026 162.256 170.512C163.372 170.512 164.164 170.476 164.704 170.152C165.262 169.846 165.406 169.324 165.406 168.406V154.546ZM171.31 157.192C170.914 156.31 169.978 154.978 169.204 154.006L167.584 155.05C168.304 156.076 169.204 157.498 169.564 158.38L171.31 157.192ZM178.744 164.788H182.146V162.934H178.744V161.53H176.638V162.934H173.416V164.788H176.638V166.138H172.48C172.336 165.796 172.192 165.454 172.084 165.148L171.04 165.994V159.244H166.918V161.296H168.952V166.822C168.952 167.776 168.43 168.46 168.052 168.802C168.376 169.108 168.952 169.882 169.15 170.314C169.42 169.9 169.924 169.414 172.408 167.308V168.028H176.638V170.584H178.744V168.028H183.352V166.138H178.744V164.788ZM179.68 156.328C179.158 156.94 178.528 157.516 177.808 158.02C177.106 157.534 176.476 156.958 175.954 156.328H179.68ZM181.426 154.384L181.084 154.474H172.462V156.328H173.83C174.46 157.372 175.252 158.272 176.152 159.064C174.73 159.838 173.11 160.414 171.49 160.792C171.886 161.224 172.354 162.088 172.588 162.61C174.442 162.106 176.26 161.35 177.862 160.342C179.23 161.206 180.778 161.854 182.488 162.25C182.776 161.728 183.352 160.882 183.802 160.45C182.29 160.18 180.886 159.712 179.644 159.1C180.958 158.002 182.056 156.688 182.812 155.158L181.426 154.384ZM190.21 161.08H192.82V159.1H190.21V156.346C191.164 156.13 192.1 155.878 192.892 155.59L191.506 153.916C189.868 154.564 187.24 155.14 184.9 155.464C185.134 155.932 185.386 156.652 185.476 157.138C186.304 157.03 187.168 156.904 188.05 156.76V159.1H184.846V161.08H187.528C186.826 163.06 185.674 165.13 184.45 166.426C184.81 166.966 185.332 167.812 185.53 168.442C186.484 167.38 187.33 165.832 188.05 164.14V170.548H190.21V163.906C190.804 164.752 191.38 165.652 191.722 166.264L192.946 164.482C192.55 163.996 190.93 162.106 190.21 161.386V161.08ZM195.394 166.228V157.498H198.274V166.228H195.394ZM193.288 155.446V169.702H195.394V168.28H198.274V169.576H200.488V155.446H193.288ZM208.3 161.44L206.698 161.854V159.154H208.318V157.174H206.698V153.772H204.646V157.174H202.612V159.154H204.646V162.358C203.8 162.556 203.026 162.736 202.378 162.862L202.702 164.95C203.314 164.806 203.962 164.626 204.646 164.446V168.19C204.646 168.424 204.574 168.496 204.34 168.496C204.124 168.496 203.458 168.496 202.828 168.478C203.08 169.018 203.35 169.846 203.422 170.386C204.574 170.386 205.384 170.332 205.942 170.008C206.518 169.684 206.698 169.18 206.698 168.172V163.906C207.328 163.744 207.94 163.564 208.552 163.402L208.3 161.44ZM211.216 156.598H208.894V158.47H211.216V160.414H208.948V162.268H211.216V164.212H208.498V166.138H211.216V170.53H213.268V153.97H211.216V156.598ZM219.226 164.248H216.544V162.268H218.866V160.414H216.544V158.47H218.992V156.598H216.544V153.952H214.492V170.566H216.544V166.174H219.226V164.248ZM223.24 162.376C223.258 161.962 223.258 161.548 223.258 161.17V160.378H227.65V158.488H226.408V153.754H224.482V158.488H223.258V154.222H221.296V161.17C221.296 163.708 221.17 167.146 220.126 169.324C220.558 169.612 221.278 170.242 221.62 170.656C222.61 168.964 223.024 166.606 223.168 164.266H224.806V170.512H226.75V162.376H223.24ZM229.324 168.748C230.044 166.516 230.224 163.816 230.26 161.548C230.71 163.348 231.268 165.004 232.024 166.444C231.25 167.416 230.368 168.208 229.324 168.748ZM234.418 160.648C234.13 162.106 233.698 163.438 233.14 164.59C232.546 163.384 232.06 162.052 231.718 160.648H234.418ZM235.354 158.632L235.012 158.704H230.26V156.562C232.546 156.418 234.976 156.148 236.92 155.716L235.732 153.844C233.77 154.294 230.854 154.654 228.226 154.834V160.864C228.226 163.42 228.064 167.182 226.75 169.558C227.254 169.81 228.064 170.386 228.442 170.746C228.766 170.224 229.018 169.666 229.234 169.036C229.63 169.486 230.098 170.17 230.35 170.638C231.43 170.026 232.384 169.252 233.176 168.316C233.878 169.234 234.706 170.026 235.642 170.638C235.984 170.08 236.614 169.306 237.082 168.928C236.056 168.37 235.156 167.56 234.4 166.588C235.534 164.626 236.29 162.106 236.632 158.956L235.354 158.632Z" fill="#061178"/>
<path d="M161.68 297.552V296.688C163.318 296.598 165.01 296.49 166.666 296.328C166.666 296.724 166.648 297.138 166.63 297.552H161.68ZM161.68 299.406H166.522C166.486 299.874 166.45 300.288 166.414 300.684H162.58V306.966H164.74V302.646H171.148V307.11H173.398V300.684H168.484C168.538 300.288 168.61 299.874 168.664 299.406H174.46V297.552H168.862C168.898 297.048 168.952 296.544 168.97 296.076C170.572 295.878 172.102 295.644 173.452 295.356L171.778 293.664C168.862 294.312 163.894 294.762 159.574 294.924V300.018C159.574 302.754 159.43 306.642 157.738 309.288C158.26 309.486 159.196 310.026 159.61 310.368C161.41 307.506 161.68 303.042 161.68 300.018V299.406ZM169.15 303.24H166.9V304.608C166.9 305.796 166.558 307.65 161.05 308.91C161.59 309.342 162.238 310.098 162.526 310.548C168.34 308.928 169.15 306.444 169.15 304.662V303.24ZM168.088 308.208C169.762 308.838 171.904 309.846 173.074 310.548L174.586 309.126C173.326 308.496 171.238 307.56 169.6 306.948L168.088 308.208ZM187.762 295.986H180.292V295.41H187.762V295.986ZM187.762 297.642H180.292V297.048H187.762V297.642ZM189.922 294.294H178.222V298.74H189.922V294.294ZM192.262 299.28H175.972V300.81H192.262V299.28ZM179.914 304.806V304.176H183.046V304.806H179.914ZM179.914 302.484H183.046V303.114H179.914V302.484ZM188.248 303.114H185.098V302.484H188.248V303.114ZM188.248 304.806H185.098V304.176H188.248V304.806ZM185.098 308.568V307.92H190.678V306.534H185.098V305.958H190.336V301.35H177.898V305.958H183.046V306.534H177.538V307.92H183.046V308.568H175.936V310.116H192.298V308.568H185.098ZM197.482 296.508C197.914 297.174 198.346 297.93 198.526 298.452L200.344 297.786C200.2 297.444 199.912 296.976 199.606 296.508H201.82V295.032H197.518C197.68 294.69 197.806 294.348 197.932 294.024L195.826 293.628C195.358 295.122 194.494 296.67 193.468 297.642C193.972 297.858 194.89 298.326 195.322 298.596C195.826 298.038 196.33 297.318 196.798 296.508H197.482ZM206.212 307.506V308.514H198.616V307.506H206.212ZM205.312 302.646V303.582H198.616V302.646H205.312ZM198.616 305.112H207.4V301.116H196.438V310.584H198.616V310.098H206.212V310.584H208.354V305.94H198.616V305.112ZM200.506 297.75C200.686 298.038 200.848 298.416 200.974 298.758H194.278V301.908H196.348V300.36H207.454V301.908H209.65V298.758H203.134C202.954 298.308 202.684 297.768 202.414 297.354L200.506 297.75ZM205.222 295.05C205.366 294.708 205.492 294.348 205.6 294.006L203.53 293.628C203.188 294.906 202.558 296.166 201.73 297.012C202.216 297.228 203.098 297.66 203.494 297.948C203.854 297.57 204.196 297.066 204.52 296.508H205.222C205.78 297.174 206.338 297.966 206.536 298.506L208.336 297.696C208.156 297.372 207.85 296.94 207.508 296.508H210.01V295.05H205.222ZM217.192 304.95C216.616 305.148 216.022 305.328 215.428 305.508V301.908H217.048V299.946H215.428V296.778H217.354V294.78H211.414V296.778H213.394V299.946H211.576V301.908H213.394V306.138C212.566 306.372 211.828 306.57 211.198 306.732L211.684 308.91C213.412 308.352 215.572 307.668 217.552 306.966L217.192 304.95ZM219.964 299.514H221.818V301.062H219.964V299.514ZM219.964 296.328H221.818V297.84H219.964V296.328ZM225.4 297.84H223.618V296.328H225.4V297.84ZM225.4 301.062H223.618V299.514H225.4V301.062ZM223.816 308.064V306.354H227.632V304.428H223.816V302.88H227.434V294.51H218.038V302.88H221.638V304.428H217.912V306.354H221.638V308.064H216.67V310.008H228.244V308.064H223.816Z" fill="#061178"/>
<path d="M182.7 365.22H185.814V375.354H187.488V363.708H181.098V375.462H182.7V365.22ZM181.08 364.662C180.396 364.14 179.028 363.366 178.092 362.898L176.832 364.464C177.804 365.004 179.154 365.832 179.784 366.39L181.08 364.662ZM180.342 369.378C179.658 368.892 178.29 368.154 177.354 367.686L176.148 369.252C177.102 369.774 178.434 370.584 179.082 371.106L180.342 369.378ZM178.758 372.492C178.056 374.598 177.12 376.866 176.454 378.27L178.398 379.368C179.118 377.604 179.892 375.534 180.486 373.608L178.758 372.492ZM184.428 376.47C184.896 375.372 185.004 374.202 185.004 373.086V366.21H183.456V373.068C183.456 375.048 183.168 376.992 180.342 378.27C180.612 378.522 181.098 379.206 181.26 379.566C182.88 378.828 183.834 377.784 184.356 376.632C185.148 377.496 186.066 378.684 186.498 379.422L187.866 378.576C187.398 377.802 186.39 376.65 185.58 375.786L184.428 376.47ZM189.954 364.392H188.334V375.426H189.954V364.392ZM190.8 363.042V377.406C190.8 377.676 190.692 377.766 190.422 377.766C190.152 377.766 189.306 377.784 188.442 377.748C188.658 378.252 188.91 379.026 188.982 379.494C190.278 379.512 191.16 379.44 191.718 379.152C192.294 378.864 192.474 378.378 192.474 377.406V363.042H190.8ZM206.082 364.986H198.612V364.41H206.082V364.986ZM206.082 366.642H198.612V366.048H206.082V366.642ZM208.242 363.294H196.542V367.74H208.242V363.294ZM210.582 368.28H194.292V369.81H210.582V368.28ZM198.234 373.806V373.176H201.366V373.806H198.234ZM198.234 371.484H201.366V372.114H198.234V371.484ZM206.568 372.114H203.418V371.484H206.568V372.114ZM206.568 373.806H203.418V373.176H206.568V373.806ZM203.418 377.568V376.92H208.998V375.534H203.418V374.958H208.656V370.35H196.218V374.958H201.366V375.534H195.858V376.92H201.366V377.568H194.256V379.116H210.618V377.568H203.418Z" fill="#061178"/>
<path d="M181.35 432.742C180.738 431.95 179.424 430.798 178.434 430.006L177.066 431.32C178.056 432.166 179.334 433.408 179.874 434.236L181.35 432.742ZM184.662 436.54V438.052H190.008V436.54H188.1V435.316H189.648V433.822H188.1V432.616H186.444V433.822H184.986V435.316H186.444V436.54H184.662ZM188.082 440.626V442.102H186.336V440.626H188.082ZM189.648 443.596V439.15H184.788V444.388H186.336V443.596H189.648ZM192.348 430.402H182.304V437.386C182.304 438.898 182.268 440.662 181.908 442.3C181.71 441.922 181.53 441.472 181.404 441.13L180.468 441.922V435.28H176.256V437.332H178.38V442.516C178.38 443.614 177.714 444.46 177.264 444.856C177.624 445.144 178.308 445.828 178.56 446.242C178.848 445.864 179.316 445.432 181.584 443.452C181.386 444.136 181.08 444.802 180.666 445.396C181.098 445.594 181.872 446.206 182.178 446.548C183.888 444.118 184.158 440.176 184.158 437.386V432.274H190.458V444.28C190.458 444.532 190.368 444.622 190.116 444.64C189.864 444.64 189.072 444.658 188.316 444.604C188.604 445.108 188.874 446.008 188.928 446.548C190.188 446.548 191.016 446.494 191.574 446.17C192.186 445.828 192.348 445.27 192.348 444.316V430.402ZM203.418 443.452H208.062V441.886H203.418V440.986H209.502V439.258H195.3V440.986H201.312V444.37H198.936V441.67H196.884V444.37H194.22V446.134H210.618V444.37H203.418V443.452ZM207.36 433.3C207.144 433.948 206.874 434.506 206.514 435.01C206.028 434.452 205.632 433.894 205.344 433.3H207.36ZM199.53 436.72V436.126H200.016L199.53 436.72ZM196.452 433.966H197.658V434.884H196.452V433.966ZM200.628 433.966V434.884H199.53V433.966H200.628ZM210.546 433.3V431.59H206.046C206.208 431.14 206.37 430.69 206.514 430.222L204.606 429.772C204.192 431.32 203.4 432.778 202.374 433.768V432.706H199.53V432.094H202.644V430.6H199.53V429.736H197.658V430.6H194.382V432.094H197.658V432.706H194.796V436.126H196.902C196.11 436.846 195.03 437.494 194.004 437.872C194.4 438.178 194.94 438.808 195.21 439.222C196.038 438.808 196.92 438.178 197.658 437.44V438.862H199.53V437.026C200.232 437.44 201.042 438.016 201.456 438.43L202.338 437.242C201.96 436.918 201.294 436.486 200.664 436.126H202.374V434.29C202.77 434.686 203.256 435.226 203.472 435.514C203.742 435.28 203.994 434.992 204.246 434.686C204.552 435.226 204.912 435.748 205.308 436.252C204.498 436.9 203.454 437.368 202.23 437.71C202.608 438.07 203.238 438.844 203.418 439.24C204.66 438.808 205.704 438.25 206.604 437.53C207.45 438.268 208.494 438.862 209.718 439.276C209.97 438.79 210.492 437.998 210.888 437.62C209.718 437.314 208.692 436.828 207.882 436.234C208.512 435.424 209.016 434.452 209.358 433.3H210.546Z" fill="#061178"/>
<defs>
<filter id="filter0_d" x="0" y="0" width="385" height="590" filterUnits="userSpaceOnUse" color-interpolation-filters="sRGB">
<feFlood flood-opacity="0" result="BackgroundImageFix"/>
<feColorMatrix in="SourceAlpha" type="matrix" values="0 0 0 0 0 0 0 0 0 0 0 0 0 0 0 0 0 0 127 0"/>
<feOffset dy="9"/>
<feGaussianBlur stdDeviation="12.5"/>
<feColorMatrix type="matrix" values="0 0 0 0 0.0627451 0 0 0 0 0.137255 0 0 0 0 0.619608 0 0 0 0.15 0"/>
<feBlend mode="normal" in2="BackgroundImageFix" result="effect1_dropShadow"/>
<feBlend mode="normal" in="SourceGraphic" in2="effect1_dropShadow" result="shape"/>
</filter>
</defs>
</svg>
