<svg width="990" height="608" viewBox="0 0 990 608" fill="none" xmlns="http://www.w3.org/2000/svg">
<g filter="url(#filter0_d)">
<path fill-rule="evenodd" clip-rule="evenodd" d="M950 59H688.989C688.457 35.1613 668.966 16 645 16H347C323.034 16 303.543 35.1613 303.011 59H40C31.7157 59 25 65.7157 25 74V509C25 517.284 31.7158 524 40 524H303.038C304.089 551.792 326.951 574 355 574H637C665.049 574 687.911 551.792 688.962 524H950C958.284 524 965 517.284 965 509V74C965 65.7157 958.284 59 950 59Z" fill="white"/>
</g>
<rect x="61" y="146" width="868" height="280" rx="15" fill="#F5F8FF"/>
<path d="M453.117 177C454.357 177 455.43 177.207 456.337 177.62C457.257 178.033 457.964 178.62 458.457 179.38C458.95 180.14 459.197 181.04 459.197 182.08C459.197 183.107 458.95 184.007 458.457 184.78C457.964 185.54 457.257 186.127 456.337 186.54C455.43 186.94 454.357 187.14 453.117 187.14H450.297V191H447.057V177H453.117ZM452.937 184.5C453.91 184.5 454.65 184.293 455.157 183.88C455.664 183.453 455.917 182.853 455.917 182.08C455.917 181.293 455.664 180.693 455.157 180.28C454.65 179.853 453.91 179.64 452.937 179.64H450.297V184.5H452.937ZM470.23 191L467.53 187.1H467.37H464.55V191H461.31V177H467.37C468.61 177 469.683 177.207 470.59 177.62C471.51 178.033 472.217 178.62 472.71 179.38C473.203 180.14 473.45 181.04 473.45 182.08C473.45 183.12 473.197 184.02 472.69 184.78C472.197 185.527 471.49 186.1 470.57 186.5L473.71 191H470.23ZM470.17 182.08C470.17 181.293 469.917 180.693 469.41 180.28C468.903 179.853 468.163 179.64 467.19 179.64H464.55V184.52H467.19C468.163 184.52 468.903 184.307 469.41 183.88C469.917 183.453 470.17 182.853 470.17 182.08ZM482.597 191.24C481.144 191.24 479.83 190.927 478.657 190.3C477.497 189.673 476.584 188.813 475.917 187.72C475.264 186.613 474.937 185.373 474.937 184C474.937 182.627 475.264 181.393 475.917 180.3C476.584 179.193 477.497 178.327 478.657 177.7C479.83 177.073 481.144 176.76 482.597 176.76C484.05 176.76 485.357 177.073 486.517 177.7C487.677 178.327 488.59 179.193 489.257 180.3C489.924 181.393 490.257 182.627 490.257 184C490.257 185.373 489.924 186.613 489.257 187.72C488.59 188.813 487.677 189.673 486.517 190.3C485.357 190.927 484.05 191.24 482.597 191.24ZM482.597 188.48C483.424 188.48 484.17 188.293 484.837 187.92C485.504 187.533 486.024 187 486.397 186.32C486.784 185.64 486.977 184.867 486.977 184C486.977 183.133 486.784 182.36 486.397 181.68C486.024 181 485.504 180.473 484.837 180.1C484.17 179.713 483.424 179.52 482.597 179.52C481.77 179.52 481.024 179.713 480.357 180.1C479.69 180.473 479.164 181 478.777 181.68C478.404 182.36 478.217 183.133 478.217 184C478.217 184.867 478.404 185.64 478.777 186.32C479.164 187 479.69 187.533 480.357 187.92C481.024 188.293 481.77 188.48 482.597 188.48ZM492.492 177H498.852C500.372 177 501.712 177.293 502.872 177.88C504.045 178.453 504.952 179.267 505.592 180.32C506.245 181.373 506.572 182.6 506.572 184C506.572 185.4 506.245 186.627 505.592 187.68C504.952 188.733 504.045 189.553 502.872 190.14C501.712 190.713 500.372 191 498.852 191H492.492V177ZM498.692 188.34C500.092 188.34 501.205 187.953 502.032 187.18C502.872 186.393 503.292 185.333 503.292 184C503.292 182.667 502.872 181.613 502.032 180.84C501.205 180.053 500.092 179.66 498.692 179.66H495.732V188.34H498.692ZM515.035 191.24C513.035 191.24 511.475 190.687 510.355 189.58C509.249 188.473 508.695 186.893 508.695 184.84V177H511.935V184.72C511.935 187.227 512.975 188.48 515.055 188.48C516.069 188.48 516.842 188.18 517.375 187.58C517.909 186.967 518.175 186.013 518.175 184.72V177H521.375V184.84C521.375 186.893 520.815 188.473 519.695 189.58C518.589 190.687 517.035 191.24 515.035 191.24ZM531.077 191.24C529.651 191.24 528.357 190.933 527.197 190.32C526.051 189.693 525.144 188.833 524.477 187.74C523.824 186.633 523.497 185.387 523.497 184C523.497 182.613 523.824 181.373 524.477 180.28C525.144 179.173 526.051 178.313 527.197 177.7C528.357 177.073 529.657 176.76 531.097 176.76C532.311 176.76 533.404 176.973 534.377 177.4C535.364 177.827 536.191 178.44 536.857 179.24L534.777 181.16C533.831 180.067 532.657 179.52 531.257 179.52C530.391 179.52 529.617 179.713 528.937 180.1C528.257 180.473 527.724 181 527.337 181.68C526.964 182.36 526.777 183.133 526.777 184C526.777 184.867 526.964 185.64 527.337 186.32C527.724 187 528.257 187.533 528.937 187.92C529.617 188.293 530.391 188.48 531.257 188.48C532.657 188.48 533.831 187.927 534.777 186.82L536.857 188.74C536.191 189.553 535.364 190.173 534.377 190.6C533.391 191.027 532.291 191.24 531.077 191.24ZM549.685 188.4V191H538.845V177H549.425V179.6H542.065V182.64H548.565V185.16H542.065V188.4H549.685Z" fill="#061178"/>
<path d="M96.0954 348.2H91.4554V346H103.335V348.2H98.6954V360H96.0954V348.2ZM106.973 350.88C107.693 349.76 108.959 349.2 110.773 349.2V351.58C110.559 351.54 110.366 351.52 110.193 351.52C109.219 351.52 108.459 351.807 107.913 352.38C107.366 352.94 107.093 353.753 107.093 354.82V360H104.593V349.32H106.973V350.88ZM116.715 349.2C118.288 349.2 119.488 349.58 120.315 350.34C121.155 351.087 121.575 352.22 121.575 353.74V360H119.215V358.7C118.908 359.167 118.468 359.527 117.895 359.78C117.335 360.02 116.655 360.14 115.855 360.14C115.055 360.14 114.355 360.007 113.755 359.74C113.155 359.46 112.688 359.08 112.355 358.6C112.035 358.107 111.875 357.553 111.875 356.94C111.875 355.98 112.228 355.213 112.935 354.64C113.655 354.053 114.782 353.76 116.315 353.76H119.075V353.6C119.075 352.853 118.848 352.28 118.395 351.88C117.955 351.48 117.295 351.28 116.415 351.28C115.815 351.28 115.222 351.373 114.635 351.56C114.062 351.747 113.575 352.007 113.175 352.34L112.195 350.52C112.755 350.093 113.428 349.767 114.215 349.54C115.002 349.313 115.835 349.2 116.715 349.2ZM116.375 358.32C117.002 358.32 117.555 358.18 118.035 357.9C118.528 357.607 118.875 357.193 119.075 356.66V355.42H116.495C115.055 355.42 114.335 355.893 114.335 356.84C114.335 357.293 114.515 357.653 114.875 357.92C115.235 358.187 115.735 358.32 116.375 358.32ZM130.643 349.2C131.99 349.2 133.07 349.593 133.883 350.38C134.697 351.167 135.103 352.333 135.103 353.88V360H132.603V354.2C132.603 353.267 132.383 352.567 131.943 352.1C131.503 351.62 130.877 351.38 130.063 351.38C129.143 351.38 128.417 351.66 127.883 352.22C127.35 352.767 127.083 353.56 127.083 354.6V360H124.583V349.32H126.963V350.7C127.377 350.207 127.897 349.833 128.523 349.58C129.15 349.327 129.857 349.2 130.643 349.2ZM141.375 360.14C140.508 360.14 139.661 360.027 138.835 359.8C138.008 359.573 137.348 359.287 136.855 358.94L137.815 357.04C138.295 357.36 138.868 357.62 139.535 357.82C140.215 358.007 140.881 358.1 141.535 358.1C143.028 358.1 143.775 357.707 143.775 356.92C143.775 356.547 143.581 356.287 143.195 356.14C142.821 355.993 142.215 355.853 141.375 355.72C140.495 355.587 139.775 355.433 139.215 355.26C138.668 355.087 138.188 354.787 137.775 354.36C137.375 353.92 137.175 353.313 137.175 352.54C137.175 351.527 137.595 350.72 138.435 350.12C139.288 349.507 140.435 349.2 141.875 349.2C142.608 349.2 143.341 349.287 144.075 349.46C144.808 349.62 145.408 349.84 145.875 350.12L144.915 352.02C144.008 351.487 142.988 351.22 141.855 351.22C141.121 351.22 140.561 351.333 140.175 351.56C139.801 351.773 139.615 352.06 139.615 352.42C139.615 352.82 139.815 353.107 140.215 353.28C140.628 353.44 141.261 353.593 142.115 353.74C142.968 353.873 143.668 354.027 144.215 354.2C144.761 354.373 145.228 354.667 145.615 355.08C146.015 355.493 146.215 356.08 146.215 356.84C146.215 357.84 145.781 358.64 144.915 359.24C144.048 359.84 142.868 360.14 141.375 360.14ZM148.168 345.16H150.668V360H148.168V345.16ZM157.829 349.2C159.402 349.2 160.602 349.58 161.429 350.34C162.269 351.087 162.689 352.22 162.689 353.74V360H160.329V358.7C160.022 359.167 159.582 359.527 159.009 359.78C158.449 360.02 157.769 360.14 156.969 360.14C156.169 360.14 155.469 360.007 154.869 359.74C154.269 359.46 153.802 359.08 153.469 358.6C153.149 358.107 152.989 357.553 152.989 356.94C152.989 355.98 153.342 355.213 154.049 354.64C154.769 354.053 155.896 353.76 157.429 353.76H160.189V353.6C160.189 352.853 159.962 352.28 159.509 351.88C159.069 351.48 158.409 351.28 157.529 351.28C156.929 351.28 156.336 351.373 155.749 351.56C155.176 351.747 154.689 352.007 154.289 352.34L153.309 350.52C153.869 350.093 154.542 349.767 155.329 349.54C156.116 349.313 156.949 349.2 157.829 349.2ZM157.489 358.32C158.116 358.32 158.669 358.18 159.149 357.9C159.642 357.607 159.989 357.193 160.189 356.66V355.42H157.609C156.169 355.42 155.449 355.893 155.449 356.84C155.449 357.293 155.629 357.653 155.989 357.92C156.349 358.187 156.849 358.32 157.489 358.32ZM172.117 359.42C171.824 359.66 171.464 359.84 171.037 359.96C170.624 360.08 170.184 360.14 169.717 360.14C168.544 360.14 167.637 359.833 166.997 359.22C166.357 358.607 166.037 357.713 166.037 356.54V351.4H164.277V349.4H166.037V346.96H168.537V349.4H171.397V351.4H168.537V356.48C168.537 357 168.664 357.4 168.917 357.68C169.171 357.947 169.537 358.08 170.017 358.08C170.577 358.08 171.044 357.933 171.417 357.64L172.117 359.42ZM173.974 349.32H176.474V360H173.974V349.32ZM175.234 347.56C174.781 347.56 174.401 347.42 174.094 347.14C173.787 346.847 173.634 346.487 173.634 346.06C173.634 345.633 173.787 345.28 174.094 345C174.401 344.707 174.781 344.56 175.234 344.56C175.687 344.56 176.067 344.7 176.374 344.98C176.681 345.247 176.834 345.587 176.834 346C176.834 346.44 176.681 346.813 176.374 347.12C176.081 347.413 175.701 347.56 175.234 347.56ZM184.355 360.14C183.275 360.14 182.302 359.907 181.435 359.44C180.569 358.973 179.889 358.327 179.395 357.5C178.915 356.66 178.675 355.713 178.675 354.66C178.675 353.607 178.915 352.667 179.395 351.84C179.889 351.013 180.569 350.367 181.435 349.9C182.302 349.433 183.275 349.2 184.355 349.2C185.449 349.2 186.429 349.433 187.295 349.9C188.162 350.367 188.835 351.013 189.315 351.84C189.809 352.667 190.055 353.607 190.055 354.66C190.055 355.713 189.809 356.66 189.315 357.5C188.835 358.327 188.162 358.973 187.295 359.44C186.429 359.907 185.449 360.14 184.355 360.14ZM184.355 358C185.275 358 186.035 357.693 186.635 357.08C187.235 356.467 187.535 355.66 187.535 354.66C187.535 353.66 187.235 352.853 186.635 352.24C186.035 351.627 185.275 351.32 184.355 351.32C183.435 351.32 182.675 351.627 182.075 352.24C181.489 352.853 181.195 353.66 181.195 354.66C181.195 355.66 181.489 356.467 182.075 357.08C182.675 357.693 183.435 358 184.355 358ZM198.306 349.2C199.653 349.2 200.733 349.593 201.546 350.38C202.359 351.167 202.766 352.333 202.766 353.88V360H200.266V354.2C200.266 353.267 200.046 352.567 199.606 352.1C199.166 351.62 198.539 351.38 197.726 351.38C196.806 351.38 196.079 351.66 195.546 352.22C195.013 352.767 194.746 353.56 194.746 354.6V360H192.246V349.32H194.626V350.7C195.039 350.207 195.559 349.833 196.186 349.58C196.813 349.327 197.519 349.2 198.306 349.2ZM113.709 384.22L111.949 382.52C110.643 383.64 109.076 384.2 107.249 384.2C106.276 384.2 105.403 384.04 104.629 383.72C103.856 383.4 103.249 382.96 102.809 382.4C102.369 381.827 102.149 381.18 102.149 380.46C102.149 379.593 102.403 378.833 102.909 378.18C103.416 377.513 104.243 376.86 105.389 376.22C104.829 375.66 104.429 375.14 104.189 374.66C103.949 374.167 103.829 373.66 103.829 373.14C103.829 372.153 104.196 371.36 104.929 370.76C105.676 370.147 106.663 369.84 107.889 369.84C109.023 369.84 109.929 370.12 110.609 370.68C111.289 371.227 111.629 371.973 111.629 372.92C111.629 373.64 111.403 374.28 110.949 374.84C110.509 375.4 109.783 375.967 108.769 376.54L111.789 379.42C112.123 378.767 112.383 377.98 112.569 377.06L114.589 377.72C114.323 378.96 113.903 380.027 113.329 380.92L115.089 382.6L113.709 384.22ZM107.889 371.62C107.343 371.62 106.909 371.76 106.589 372.04C106.269 372.307 106.109 372.66 106.109 373.1C106.109 373.42 106.196 373.727 106.369 374.02C106.543 374.3 106.876 374.687 107.369 375.18C108.169 374.74 108.723 374.36 109.029 374.04C109.349 373.707 109.509 373.347 109.509 372.96C109.509 372.547 109.363 372.22 109.069 371.98C108.789 371.74 108.396 371.62 107.889 371.62ZM107.429 382.16C108.589 382.16 109.603 381.807 110.469 381.1L106.769 377.56C105.969 378 105.403 378.427 105.069 378.84C104.749 379.24 104.589 379.693 104.589 380.2C104.589 380.787 104.849 381.26 105.369 381.62C105.889 381.98 106.576 382.16 107.429 382.16ZM125.298 372.2H120.658V370H132.538V372.2H127.898V384H125.298V372.2ZM143.385 373.32L138.385 384.86C137.918 386.02 137.352 386.833 136.685 387.3C136.018 387.78 135.212 388.02 134.265 388.02C133.732 388.02 133.205 387.933 132.685 387.76C132.165 387.587 131.738 387.347 131.405 387.04L132.405 385.2C132.645 385.427 132.925 385.607 133.245 385.74C133.578 385.873 133.912 385.94 134.245 385.94C134.685 385.94 135.045 385.827 135.325 385.6C135.618 385.373 135.885 384.993 136.125 384.46L136.305 384.04L131.645 373.32H134.245L137.605 381.22L140.985 373.32H143.385ZM150.667 373.2C151.707 373.2 152.634 373.427 153.447 373.88C154.274 374.333 154.921 374.973 155.387 375.8C155.854 376.627 156.087 377.58 156.087 378.66C156.087 379.74 155.854 380.7 155.387 381.54C154.921 382.367 154.274 383.007 153.447 383.46C152.634 383.913 151.707 384.14 150.667 384.14C149.227 384.14 148.087 383.66 147.247 382.7V387.88H144.747V373.32H147.127V374.72C147.541 374.213 148.047 373.833 148.647 373.58C149.261 373.327 149.934 373.2 150.667 373.2ZM150.387 382C151.307 382 152.061 381.693 152.647 381.08C153.247 380.467 153.547 379.66 153.547 378.66C153.547 377.66 153.247 376.853 152.647 376.24C152.061 375.627 151.307 375.32 150.387 375.32C149.787 375.32 149.247 375.46 148.767 375.74C148.287 376.007 147.907 376.393 147.627 376.9C147.347 377.407 147.207 377.993 147.207 378.66C147.207 379.327 147.347 379.913 147.627 380.42C147.907 380.927 148.287 381.32 148.767 381.6C149.247 381.867 149.787 382 150.387 382ZM168.298 378.72C168.298 378.893 168.285 379.14 168.258 379.46H159.878C160.025 380.247 160.405 380.873 161.018 381.34C161.645 381.793 162.418 382.02 163.338 382.02C164.512 382.02 165.478 381.633 166.238 380.86L167.578 382.4C167.098 382.973 166.492 383.407 165.758 383.7C165.025 383.993 164.198 384.14 163.278 384.14C162.105 384.14 161.072 383.907 160.178 383.44C159.285 382.973 158.592 382.327 158.098 381.5C157.618 380.66 157.378 379.713 157.378 378.66C157.378 377.62 157.612 376.687 158.078 375.86C158.558 375.02 159.218 374.367 160.058 373.9C160.898 373.433 161.845 373.2 162.898 373.2C163.938 373.2 164.865 373.433 165.678 373.9C166.505 374.353 167.145 375 167.598 375.84C168.065 376.667 168.298 377.627 168.298 378.72ZM162.898 375.2C162.098 375.2 161.418 375.44 160.858 375.92C160.312 376.387 159.978 377.013 159.858 377.8H165.918C165.812 377.027 165.485 376.4 164.938 375.92C164.392 375.44 163.712 375.2 162.898 375.2ZM173.8 384.14C172.933 384.14 172.086 384.027 171.26 383.8C170.433 383.573 169.773 383.287 169.28 382.94L170.24 381.04C170.72 381.36 171.293 381.62 171.96 381.82C172.64 382.007 173.306 382.1 173.96 382.1C175.453 382.1 176.2 381.707 176.2 380.92C176.2 380.547 176.006 380.287 175.62 380.14C175.246 379.993 174.64 379.853 173.8 379.72C172.92 379.587 172.2 379.433 171.64 379.26C171.093 379.087 170.613 378.787 170.2 378.36C169.8 377.92 169.6 377.313 169.6 376.54C169.6 375.527 170.02 374.72 170.86 374.12C171.713 373.507 172.86 373.2 174.3 373.2C175.033 373.2 175.766 373.287 176.5 373.46C177.233 373.62 177.833 373.84 178.3 374.12L177.34 376.02C176.433 375.487 175.413 375.22 174.28 375.22C173.546 375.22 172.986 375.333 172.6 375.56C172.226 375.773 172.04 376.06 172.04 376.42C172.04 376.82 172.24 377.107 172.64 377.28C173.053 377.44 173.686 377.593 174.54 377.74C175.393 377.873 176.093 378.027 176.64 378.2C177.186 378.373 177.653 378.667 178.04 379.08C178.44 379.493 178.64 380.08 178.64 380.84C178.64 381.84 178.206 382.64 177.34 383.24C176.473 383.84 175.293 384.14 173.8 384.14ZM190.633 378.72C190.633 378.893 190.619 379.14 190.593 379.46H182.213C182.359 380.247 182.739 380.873 183.353 381.34C183.979 381.793 184.753 382.02 185.673 382.02C186.846 382.02 187.813 381.633 188.573 380.86L189.913 382.4C189.433 382.973 188.826 383.407 188.093 383.7C187.359 383.993 186.533 384.14 185.613 384.14C184.439 384.14 183.406 383.907 182.513 383.44C181.619 382.973 180.926 382.327 180.433 381.5C179.953 380.66 179.713 379.713 179.713 378.66C179.713 377.62 179.946 376.687 180.413 375.86C180.893 375.02 181.553 374.367 182.393 373.9C183.233 373.433 184.179 373.2 185.233 373.2C186.273 373.2 187.199 373.433 188.013 373.9C188.839 374.353 189.479 375 189.933 375.84C190.399 376.667 190.633 377.627 190.633 378.72ZM185.233 375.2C184.433 375.2 183.753 375.44 183.193 375.92C182.646 376.387 182.313 377.013 182.193 377.8H188.253C188.146 377.027 187.819 376.4 187.273 375.92C186.726 375.44 186.046 375.2 185.233 375.2ZM199.254 383.42C198.961 383.66 198.601 383.84 198.174 383.96C197.761 384.08 197.321 384.14 196.854 384.14C195.681 384.14 194.774 383.833 194.134 383.22C193.494 382.607 193.174 381.713 193.174 380.54V375.4H191.414V373.4H193.174V370.96H195.674V373.4H198.534V375.4H195.674V380.48C195.674 381 195.801 381.4 196.054 381.68C196.307 381.947 196.674 382.08 197.154 382.08C197.714 382.08 198.181 381.933 198.554 381.64L199.254 383.42Z" fill="#061178"/>
<g filter="url(#filter1_d)">
<circle cx="151" cy="284" r="50" fill="white"/>
</g>
<path d="M172.562 260.562H129.438C128.4 260.562 127.562 261.4 127.562 262.438V305.562C127.562 306.6 128.4 307.438 129.438 307.438H172.562C173.6 307.438 174.438 306.6 174.438 305.562V262.438C174.438 261.4 173.6 260.562 172.562 260.562ZM170.219 303.219H131.781V264.781H170.219V303.219ZM149.828 277.438H160.609C160.867 277.438 161.078 277.227 161.078 276.969V274.156C161.078 273.898 160.867 273.688 160.609 273.688H149.828C149.57 273.688 149.359 273.898 149.359 274.156V276.969C149.359 277.227 149.57 277.438 149.828 277.438ZM149.828 285.875H160.609C160.867 285.875 161.078 285.664 161.078 285.406V282.594C161.078 282.336 160.867 282.125 160.609 282.125H149.828C149.57 282.125 149.359 282.336 149.359 282.594V285.406C149.359 285.664 149.57 285.875 149.828 285.875ZM149.828 294.312H160.609C160.867 294.312 161.078 294.102 161.078 293.844V291.031C161.078 290.773 160.867 290.562 160.609 290.562H149.828C149.57 290.562 149.359 290.773 149.359 291.031V293.844C149.359 294.102 149.57 294.312 149.828 294.312ZM140.922 275.562C140.922 276.184 141.169 276.78 141.608 277.22C142.048 277.659 142.644 277.906 143.266 277.906C143.887 277.906 144.483 277.659 144.923 277.22C145.362 276.78 145.609 276.184 145.609 275.562C145.609 274.941 145.362 274.345 144.923 273.905C144.483 273.466 143.887 273.219 143.266 273.219C142.644 273.219 142.048 273.466 141.608 273.905C141.169 274.345 140.922 274.941 140.922 275.562ZM140.922 284C140.922 284.622 141.169 285.218 141.608 285.657C142.048 286.097 142.644 286.344 143.266 286.344C143.887 286.344 144.483 286.097 144.923 285.657C145.362 285.218 145.609 284.622 145.609 284C145.609 283.378 145.362 282.782 144.923 282.343C144.483 281.903 143.887 281.656 143.266 281.656C142.644 281.656 142.048 281.903 141.608 282.343C141.169 282.782 140.922 283.378 140.922 284ZM140.922 292.438C140.922 293.059 141.169 293.655 141.608 294.095C142.048 294.534 142.644 294.781 143.266 294.781C143.887 294.781 144.483 294.534 144.923 294.095C145.362 293.655 145.609 293.059 145.609 292.438C145.609 291.816 145.362 291.22 144.923 290.78C144.483 290.341 143.887 290.094 143.266 290.094C142.644 290.094 142.048 290.341 141.608 290.78C141.169 291.22 140.922 291.816 140.922 292.438Z" fill="#10239E"/>
<path d="M279.682 349C280.896 349 281.949 349.2 282.842 349.6C283.749 350 284.442 350.573 284.922 351.32C285.402 352.067 285.642 352.953 285.642 353.98C285.642 354.993 285.402 355.88 284.922 356.64C284.442 357.387 283.749 357.96 282.842 358.36C281.949 358.76 280.896 358.96 279.682 358.96H276.522V363H273.922V349H279.682ZM279.562 356.76C280.696 356.76 281.556 356.52 282.142 356.04C282.729 355.56 283.022 354.873 283.022 353.98C283.022 353.087 282.729 352.4 282.142 351.92C281.556 351.44 280.696 351.2 279.562 351.2H276.522V356.76H279.562ZM290.081 353.88C290.801 352.76 292.068 352.2 293.881 352.2V354.58C293.668 354.54 293.474 354.52 293.301 354.52C292.328 354.52 291.568 354.807 291.021 355.38C290.474 355.94 290.201 356.753 290.201 357.82V363H287.701V352.32H290.081V353.88ZM300.504 363.14C299.424 363.14 298.451 362.907 297.584 362.44C296.717 361.973 296.037 361.327 295.544 360.5C295.064 359.66 294.824 358.713 294.824 357.66C294.824 356.607 295.064 355.667 295.544 354.84C296.037 354.013 296.717 353.367 297.584 352.9C298.451 352.433 299.424 352.2 300.504 352.2C301.597 352.2 302.577 352.433 303.444 352.9C304.311 353.367 304.984 354.013 305.464 354.84C305.957 355.667 306.204 356.607 306.204 357.66C306.204 358.713 305.957 359.66 305.464 360.5C304.984 361.327 304.311 361.973 303.444 362.44C302.577 362.907 301.597 363.14 300.504 363.14ZM300.504 361C301.424 361 302.184 360.693 302.784 360.08C303.384 359.467 303.684 358.66 303.684 357.66C303.684 356.66 303.384 355.853 302.784 355.24C302.184 354.627 301.424 354.32 300.504 354.32C299.584 354.32 298.824 354.627 298.224 355.24C297.637 355.853 297.344 356.66 297.344 357.66C297.344 358.66 297.637 359.467 298.224 360.08C298.824 360.693 299.584 361 300.504 361ZM313.195 363.14C312.115 363.14 311.141 362.907 310.275 362.44C309.408 361.973 308.728 361.327 308.235 360.5C307.755 359.66 307.515 358.713 307.515 357.66C307.515 356.607 307.755 355.667 308.235 354.84C308.728 354.013 309.408 353.367 310.275 352.9C311.141 352.433 312.115 352.2 313.195 352.2C314.288 352.2 315.268 352.433 316.135 352.9C317.001 353.367 317.675 354.013 318.155 354.84C318.648 355.667 318.895 356.607 318.895 357.66C318.895 358.713 318.648 359.66 318.155 360.5C317.675 361.327 317.001 361.973 316.135 362.44C315.268 362.907 314.288 363.14 313.195 363.14ZM313.195 361C314.115 361 314.875 360.693 315.475 360.08C316.075 359.467 316.375 358.66 316.375 357.66C316.375 356.66 316.075 355.853 315.475 355.24C314.875 354.627 314.115 354.32 313.195 354.32C312.275 354.32 311.515 354.627 310.915 355.24C310.328 355.853 310.035 356.66 310.035 357.66C310.035 358.66 310.328 359.467 310.915 360.08C311.515 360.693 312.275 361 313.195 361ZM325.425 350.04C324.372 350.04 323.845 350.613 323.845 351.76V352.4H326.785V354.4H323.925V363H321.425V354.4H319.665V352.4H321.425V351.72C321.425 350.573 321.759 349.673 322.425 349.02C323.092 348.353 324.032 348.02 325.245 348.02C326.205 348.02 326.959 348.213 327.505 348.6L326.805 350.48C326.379 350.187 325.919 350.04 325.425 350.04ZM332.25 353.88C332.97 352.76 334.236 352.2 336.05 352.2V354.58C335.836 354.54 335.643 354.52 335.47 354.52C334.496 354.52 333.736 354.807 333.19 355.38C332.643 355.94 332.37 356.753 332.37 357.82V363H329.87V352.32H332.25V353.88ZM347.913 357.72C347.913 357.893 347.899 358.14 347.873 358.46H339.493C339.639 359.247 340.019 359.873 340.633 360.34C341.259 360.793 342.033 361.02 342.953 361.02C344.126 361.02 345.093 360.633 345.853 359.86L347.193 361.4C346.713 361.973 346.106 362.407 345.373 362.7C344.639 362.993 343.813 363.14 342.893 363.14C341.719 363.14 340.686 362.907 339.793 362.44C338.899 361.973 338.206 361.327 337.713 360.5C337.233 359.66 336.993 358.713 336.993 357.66C336.993 356.62 337.226 355.687 337.693 354.86C338.173 354.02 338.833 353.367 339.673 352.9C340.513 352.433 341.459 352.2 342.513 352.2C343.553 352.2 344.479 352.433 345.293 352.9C346.119 353.353 346.759 354 347.213 354.84C347.679 355.667 347.913 356.627 347.913 357.72ZM342.513 354.2C341.713 354.2 341.033 354.44 340.473 354.92C339.926 355.387 339.593 356.013 339.473 356.8H345.533C345.426 356.027 345.099 355.4 344.553 354.92C344.006 354.44 343.326 354.2 342.513 354.2ZM353.901 352.2C355.475 352.2 356.675 352.58 357.501 353.34C358.341 354.087 358.761 355.22 358.761 356.74V363H356.401V361.7C356.095 362.167 355.655 362.527 355.081 362.78C354.521 363.02 353.841 363.14 353.041 363.14C352.241 363.14 351.541 363.007 350.941 362.74C350.341 362.46 349.875 362.08 349.541 361.6C349.221 361.107 349.061 360.553 349.061 359.94C349.061 358.98 349.415 358.213 350.121 357.64C350.841 357.053 351.968 356.76 353.501 356.76H356.261V356.6C356.261 355.853 356.035 355.28 355.581 354.88C355.141 354.48 354.481 354.28 353.601 354.28C353.001 354.28 352.408 354.373 351.821 354.56C351.248 354.747 350.761 355.007 350.361 355.34L349.381 353.52C349.941 353.093 350.615 352.767 351.401 352.54C352.188 352.313 353.021 352.2 353.901 352.2ZM353.561 361.32C354.188 361.32 354.741 361.18 355.221 360.9C355.715 360.607 356.061 360.193 356.261 359.66V358.42H353.681C352.241 358.42 351.521 358.893 351.521 359.84C351.521 360.293 351.701 360.653 352.061 360.92C352.421 361.187 352.921 361.32 353.561 361.32ZM372.327 348.16V363H369.927V361.62C369.514 362.127 369.001 362.507 368.387 362.76C367.787 363.013 367.121 363.14 366.387 363.14C365.361 363.14 364.434 362.913 363.607 362.46C362.794 362.007 362.154 361.367 361.687 360.54C361.221 359.7 360.987 358.74 360.987 357.66C360.987 356.58 361.221 355.627 361.687 354.8C362.154 353.973 362.794 353.333 363.607 352.88C364.434 352.427 365.361 352.2 366.387 352.2C367.094 352.2 367.741 352.32 368.327 352.56C368.914 352.8 369.414 353.16 369.827 353.64V348.16H372.327ZM366.687 361C367.287 361 367.827 360.867 368.307 360.6C368.787 360.32 369.167 359.927 369.447 359.42C369.727 358.913 369.867 358.327 369.867 357.66C369.867 356.993 369.727 356.407 369.447 355.9C369.167 355.393 368.787 355.007 368.307 354.74C367.827 354.46 367.287 354.32 366.687 354.32C366.087 354.32 365.547 354.46 365.067 354.74C364.587 355.007 364.207 355.393 363.927 355.9C363.647 356.407 363.507 356.993 363.507 357.66C363.507 358.327 363.647 358.913 363.927 359.42C364.207 359.927 364.587 360.32 365.067 360.6C365.547 360.867 366.087 361 366.687 361Z" fill="#061178"/>
<g filter="url(#filter2_d)">
<circle cx="323" cy="284" r="50" fill="white"/>
</g>
<path d="M333.313 272.281V269.469C333.313 269.211 333.102 269 332.844 269H310.344C310.086 269 309.875 269.211 309.875 269.469V272.281C309.875 272.539 310.086 272.75 310.344 272.75H332.844C333.102 272.75 333.313 272.539 333.313 272.281ZM310.344 277.438C310.086 277.438 309.875 277.648 309.875 277.906V280.719C309.875 280.977 310.086 281.188 310.344 281.188H321.125C321.383 281.188 321.594 280.977 321.594 280.719V277.906C321.594 277.648 321.383 277.438 321.125 277.438H310.344ZM318.781 303.922H305.188V262.672H338V282.828C338 283.086 338.211 283.297 338.469 283.297H341.75C342.008 283.297 342.219 283.086 342.219 282.828V260.328C342.219 259.291 341.381 258.453 340.344 258.453H302.844C301.807 258.453 300.969 259.291 300.969 260.328V306.266C300.969 307.303 301.807 308.141 302.844 308.141H318.781C319.039 308.141 319.25 307.93 319.25 307.672V304.391C319.25 304.133 319.039 303.922 318.781 303.922ZM344.896 306.939L339.43 301.473C340.736 299.744 341.516 297.588 341.516 295.25C341.516 289.555 336.898 284.938 331.203 284.938C325.508 284.938 320.891 289.555 320.891 295.25C320.891 300.945 325.508 305.562 331.203 305.562C333.301 305.562 335.246 304.936 336.875 303.863L342.424 309.412C342.518 309.506 342.635 309.547 342.752 309.547C342.869 309.547 342.992 309.5 343.08 309.412L344.896 307.596C344.94 307.553 344.974 307.502 344.997 307.445C345.021 307.389 345.033 307.329 345.033 307.268C345.033 307.207 345.021 307.146 344.997 307.09C344.974 307.034 344.94 306.982 344.896 306.939ZM331.203 301.812C327.576 301.812 324.641 298.877 324.641 295.25C324.641 291.623 327.576 288.688 331.203 288.688C334.83 288.688 337.766 291.623 337.766 295.25C337.766 298.877 334.83 301.812 331.203 301.812Z" fill="#10239E"/>
<path d="M475.358 364.4C474.891 364.947 474.345 365.36 473.718 365.64C473.105 365.92 472.431 366.06 471.698 366.06C470.738 366.06 469.858 365.84 469.058 365.4C468.258 364.973 467.345 364.227 466.318 363.16C465.025 363.053 463.865 362.68 462.838 362.04C461.811 361.387 461.011 360.54 460.438 359.5C459.865 358.447 459.578 357.28 459.578 356C459.578 354.64 459.905 353.413 460.558 352.32C461.211 351.213 462.111 350.353 463.258 349.74C464.405 349.113 465.691 348.8 467.118 348.8C468.545 348.8 469.831 349.113 470.978 349.74C472.125 350.353 473.025 351.207 473.678 352.3C474.331 353.393 474.658 354.627 474.658 356C474.658 357.107 474.438 358.133 473.998 359.08C473.558 360.013 472.945 360.813 472.158 361.48C471.371 362.133 470.458 362.607 469.418 362.9C469.805 363.313 470.185 363.613 470.558 363.8C470.931 363.987 471.331 364.08 471.758 364.08C472.678 364.08 473.478 363.707 474.158 362.96L475.358 364.4ZM462.198 356C462.198 356.933 462.411 357.78 462.838 358.54C463.265 359.287 463.851 359.873 464.598 360.3C465.345 360.713 466.185 360.92 467.118 360.92C468.051 360.92 468.891 360.713 469.638 360.3C470.385 359.873 470.971 359.287 471.398 358.54C471.825 357.78 472.038 356.933 472.038 356C472.038 355.067 471.825 354.227 471.398 353.48C470.971 352.72 470.385 352.133 469.638 351.72C468.891 351.293 468.051 351.08 467.118 351.08C466.185 351.08 465.345 351.293 464.598 351.72C463.851 352.133 463.265 352.72 462.838 353.48C462.411 354.227 462.198 355.067 462.198 356ZM487.314 352.32V363H484.934V361.64C484.534 362.12 484.034 362.493 483.434 362.76C482.834 363.013 482.187 363.14 481.494 363.14C480.067 363.14 478.941 362.747 478.114 361.96C477.301 361.16 476.894 359.98 476.894 358.42V352.32H479.394V358.08C479.394 359.04 479.607 359.76 480.034 360.24C480.474 360.707 481.094 360.94 481.894 360.94C482.787 360.94 483.494 360.667 484.014 360.12C484.547 359.56 484.814 358.76 484.814 357.72V352.32H487.314ZM494.467 352.2C496.041 352.2 497.241 352.58 498.067 353.34C498.907 354.087 499.327 355.22 499.327 356.74V363H496.967V361.7C496.661 362.167 496.221 362.527 495.647 362.78C495.087 363.02 494.407 363.14 493.607 363.14C492.807 363.14 492.107 363.007 491.507 362.74C490.907 362.46 490.441 362.08 490.107 361.6C489.787 361.107 489.627 360.553 489.627 359.94C489.627 358.98 489.981 358.213 490.687 357.64C491.407 357.053 492.534 356.76 494.067 356.76H496.827V356.6C496.827 355.853 496.601 355.28 496.147 354.88C495.707 354.48 495.047 354.28 494.167 354.28C493.567 354.28 492.974 354.373 492.387 354.56C491.814 354.747 491.327 355.007 490.927 355.34L489.947 353.52C490.507 353.093 491.181 352.767 491.967 352.54C492.754 352.313 493.587 352.2 494.467 352.2ZM494.127 361.32C494.754 361.32 495.307 361.18 495.787 360.9C496.281 360.607 496.627 360.193 496.827 359.66V358.42H494.247C492.807 358.42 492.087 358.893 492.087 359.84C492.087 360.293 492.267 360.653 492.627 360.92C492.987 361.187 493.487 361.32 494.127 361.32ZM502.336 348.16H504.836V363H502.336V348.16ZM507.917 352.32H510.417V363H507.917V352.32ZM509.177 350.56C508.724 350.56 508.344 350.42 508.037 350.14C507.73 349.847 507.577 349.487 507.577 349.06C507.577 348.633 507.73 348.28 508.037 348C508.344 347.707 508.724 347.56 509.177 347.56C509.63 347.56 510.01 347.7 510.317 347.98C510.624 348.247 510.777 348.587 510.777 349C510.777 349.44 510.624 349.813 510.317 350.12C510.024 350.413 509.644 350.56 509.177 350.56ZM519.918 362.42C519.625 362.66 519.265 362.84 518.838 362.96C518.425 363.08 517.985 363.14 517.518 363.14C516.345 363.14 515.438 362.833 514.798 362.22C514.158 361.607 513.838 360.713 513.838 359.54V354.4H512.078V352.4H513.838V349.96H516.338V352.4H519.198V354.4H516.338V359.48C516.338 360 516.465 360.4 516.718 360.68C516.972 360.947 517.338 361.08 517.818 361.08C518.378 361.08 518.845 360.933 519.218 360.64L519.918 362.42ZM531.579 352.32L526.579 363.86C526.113 365.02 525.546 365.833 524.879 366.3C524.213 366.78 523.406 367.02 522.459 367.02C521.926 367.02 521.399 366.933 520.879 366.76C520.359 366.587 519.933 366.347 519.599 366.04L520.599 364.2C520.839 364.427 521.119 364.607 521.439 364.74C521.773 364.873 522.106 364.94 522.439 364.94C522.879 364.94 523.239 364.827 523.519 364.6C523.813 364.373 524.079 363.993 524.319 363.46L524.499 363.04L519.839 352.32H522.439L525.799 360.22L529.179 352.32H531.579ZM453.176 379.76H446.176L444.796 383H442.116L448.416 369H450.976L457.296 383H454.576L453.176 379.76ZM452.316 377.72L449.676 371.6L447.056 377.72H452.316ZM461.839 383.14C460.972 383.14 460.125 383.027 459.299 382.8C458.472 382.573 457.812 382.287 457.319 381.94L458.279 380.04C458.759 380.36 459.332 380.62 459.999 380.82C460.679 381.007 461.345 381.1 461.999 381.1C463.492 381.1 464.239 380.707 464.239 379.92C464.239 379.547 464.045 379.287 463.659 379.14C463.285 378.993 462.679 378.853 461.839 378.72C460.959 378.587 460.239 378.433 459.679 378.26C459.132 378.087 458.652 377.787 458.239 377.36C457.839 376.92 457.639 376.313 457.639 375.54C457.639 374.527 458.059 373.72 458.899 373.12C459.752 372.507 460.899 372.2 462.339 372.2C463.072 372.2 463.805 372.287 464.539 372.46C465.272 372.62 465.872 372.84 466.339 373.12L465.379 375.02C464.472 374.487 463.452 374.22 462.319 374.22C461.585 374.22 461.025 374.333 460.639 374.56C460.265 374.773 460.079 375.06 460.079 375.42C460.079 375.82 460.279 376.107 460.679 376.28C461.092 376.44 461.725 376.593 462.579 376.74C463.432 376.873 464.132 377.027 464.679 377.2C465.225 377.373 465.692 377.667 466.079 378.08C466.479 378.493 466.679 379.08 466.679 379.84C466.679 380.84 466.245 381.64 465.379 382.24C464.512 382.84 463.332 383.14 461.839 383.14ZM471.932 383.14C471.065 383.14 470.218 383.027 469.392 382.8C468.565 382.573 467.905 382.287 467.412 381.94L468.372 380.04C468.852 380.36 469.425 380.62 470.092 380.82C470.772 381.007 471.438 381.1 472.092 381.1C473.585 381.1 474.332 380.707 474.332 379.92C474.332 379.547 474.138 379.287 473.752 379.14C473.378 378.993 472.772 378.853 471.932 378.72C471.052 378.587 470.332 378.433 469.772 378.26C469.225 378.087 468.745 377.787 468.332 377.36C467.932 376.92 467.732 376.313 467.732 375.54C467.732 374.527 468.152 373.72 468.992 373.12C469.845 372.507 470.992 372.2 472.432 372.2C473.165 372.2 473.898 372.287 474.632 372.46C475.365 372.62 475.965 372.84 476.432 373.12L475.472 375.02C474.565 374.487 473.545 374.22 472.412 374.22C471.678 374.22 471.118 374.333 470.732 374.56C470.358 374.773 470.172 375.06 470.172 375.42C470.172 375.82 470.372 376.107 470.772 376.28C471.185 376.44 471.818 376.593 472.672 376.74C473.525 376.873 474.225 377.027 474.772 377.2C475.318 377.373 475.785 377.667 476.172 378.08C476.572 378.493 476.772 379.08 476.772 379.84C476.772 380.84 476.338 381.64 475.472 382.24C474.605 382.84 473.425 383.14 471.932 383.14ZM489.065 372.32V383H486.685V381.64C486.285 382.12 485.785 382.493 485.185 382.76C484.585 383.013 483.938 383.14 483.245 383.14C481.818 383.14 480.691 382.747 479.865 381.96C479.051 381.16 478.645 379.98 478.645 378.42V372.32H481.145V378.08C481.145 379.04 481.358 379.76 481.785 380.24C482.225 380.707 482.845 380.94 483.645 380.94C484.538 380.94 485.245 380.667 485.765 380.12C486.298 379.56 486.565 378.76 486.565 377.72V372.32H489.065ZM494.518 373.88C495.238 372.76 496.505 372.2 498.318 372.2V374.58C498.105 374.54 497.911 374.52 497.738 374.52C496.765 374.52 496.005 374.807 495.458 375.38C494.911 375.94 494.638 376.753 494.638 377.82V383H492.138V372.32H494.518V373.88ZM504.26 372.2C505.834 372.2 507.034 372.58 507.86 373.34C508.7 374.087 509.12 375.22 509.12 376.74V383H506.76V381.7C506.454 382.167 506.014 382.527 505.44 382.78C504.88 383.02 504.2 383.14 503.4 383.14C502.6 383.14 501.9 383.007 501.3 382.74C500.7 382.46 500.234 382.08 499.9 381.6C499.58 381.107 499.42 380.553 499.42 379.94C499.42 378.98 499.774 378.213 500.48 377.64C501.2 377.053 502.327 376.76 503.86 376.76H506.62V376.6C506.62 375.853 506.394 375.28 505.94 374.88C505.5 374.48 504.84 374.28 503.96 374.28C503.36 374.28 502.767 374.373 502.18 374.56C501.607 374.747 501.12 375.007 500.72 375.34L499.74 373.52C500.3 373.093 500.974 372.767 501.76 372.54C502.547 372.313 503.38 372.2 504.26 372.2ZM503.92 381.32C504.547 381.32 505.1 381.18 505.58 380.9C506.074 380.607 506.42 380.193 506.62 379.66V378.42H504.04C502.6 378.42 501.88 378.893 501.88 379.84C501.88 380.293 502.06 380.653 502.42 380.92C502.78 381.187 503.28 381.32 503.92 381.32ZM518.189 372.2C519.535 372.2 520.615 372.593 521.429 373.38C522.242 374.167 522.649 375.333 522.649 376.88V383H520.149V377.2C520.149 376.267 519.929 375.567 519.489 375.1C519.049 374.62 518.422 374.38 517.609 374.38C516.689 374.38 515.962 374.66 515.429 375.22C514.895 375.767 514.629 376.56 514.629 377.6V383H512.129V372.32H514.509V373.7C514.922 373.207 515.442 372.833 516.069 372.58C516.695 372.327 517.402 372.2 518.189 372.2ZM530.618 383.14C529.511 383.14 528.518 382.907 527.638 382.44C526.758 381.973 526.071 381.327 525.578 380.5C525.084 379.66 524.838 378.713 524.838 377.66C524.838 376.607 525.084 375.667 525.578 374.84C526.071 374.013 526.751 373.367 527.618 372.9C528.498 372.433 529.498 372.2 530.618 372.2C531.671 372.2 532.591 372.413 533.378 372.84C534.178 373.267 534.778 373.88 535.178 374.68L533.258 375.8C532.951 375.307 532.564 374.94 532.098 374.7C531.644 374.447 531.144 374.32 530.598 374.32C529.664 374.32 528.891 374.627 528.278 375.24C527.664 375.84 527.358 376.647 527.358 377.66C527.358 378.673 527.658 379.487 528.258 380.1C528.871 380.7 529.651 381 530.598 381C531.144 381 531.644 380.88 532.098 380.64C532.564 380.387 532.951 380.013 533.258 379.52L535.178 380.64C534.764 381.44 534.158 382.06 533.358 382.5C532.571 382.927 531.658 383.14 530.618 383.14ZM547.023 377.72C547.023 377.893 547.009 378.14 546.983 378.46H538.603C538.749 379.247 539.129 379.873 539.743 380.34C540.369 380.793 541.143 381.02 542.063 381.02C543.236 381.02 544.203 380.633 544.963 379.86L546.303 381.4C545.823 381.973 545.216 382.407 544.483 382.7C543.749 382.993 542.923 383.14 542.003 383.14C540.829 383.14 539.796 382.907 538.903 382.44C538.009 381.973 537.316 381.327 536.823 380.5C536.343 379.66 536.103 378.713 536.103 377.66C536.103 376.62 536.336 375.687 536.803 374.86C537.283 374.02 537.943 373.367 538.783 372.9C539.623 372.433 540.569 372.2 541.623 372.2C542.663 372.2 543.589 372.433 544.403 372.9C545.229 373.353 545.869 374 546.323 374.84C546.789 375.667 547.023 376.627 547.023 377.72ZM541.623 374.2C540.823 374.2 540.143 374.44 539.583 374.92C539.036 375.387 538.703 376.013 538.583 376.8H544.643C544.536 376.027 544.209 375.4 543.663 374.92C543.116 374.44 542.436 374.2 541.623 374.2Z" fill="#061178"/>
<g filter="url(#filter3_d)">
<circle cx="496" cy="284" r="50" fill="white"/>
</g>
<path d="M516.795 263.955L496.885 257.17C496.645 257.088 496.322 257.047 496 257.047C495.678 257.047 495.355 257.088 495.115 257.17L475.205 263.955C474.719 264.119 474.32 264.682 474.32 265.197V293.463C474.32 293.979 474.654 294.658 475.059 294.98L495.256 310.719C495.461 310.877 495.725 310.959 495.994 310.959C496.264 310.959 496.533 310.877 496.732 310.719L516.93 294.98C517.334 294.664 517.668 293.984 517.668 293.463V265.197C517.68 264.682 517.281 264.125 516.795 263.955ZM513.461 292.338L496 305.943L478.539 292.338V267.283L496 261.33L513.461 267.283V292.338ZM489.684 280.561C489.508 280.32 489.227 280.174 488.922 280.174H485.687C485.307 280.174 485.084 280.607 485.307 280.918L492.713 291.113C492.8 291.233 492.915 291.331 493.047 291.398C493.18 291.465 493.326 291.5 493.475 291.5C493.623 291.5 493.769 291.465 493.902 291.398C494.034 291.331 494.149 291.233 494.236 291.113L506.693 273.963C506.916 273.652 506.693 273.219 506.312 273.219H503.078C502.779 273.219 502.492 273.365 502.316 273.605L493.475 285.781L489.684 280.561Z" fill="#10239E"/>
<path d="M639.865 373L639.845 363.72L635.245 371.4H634.085L629.485 363.84V373H627.005V359H629.145L634.705 368.28L640.165 359H642.305L642.325 373H639.865ZM655.707 367.72C655.707 367.893 655.694 368.14 655.667 368.46H647.287C647.434 369.247 647.814 369.873 648.427 370.34C649.054 370.793 649.827 371.02 650.747 371.02C651.92 371.02 652.887 370.633 653.647 369.86L654.987 371.4C654.507 371.973 653.9 372.407 653.167 372.7C652.434 372.993 651.607 373.14 650.687 373.14C649.514 373.14 648.48 372.907 647.587 372.44C646.694 371.973 646 371.327 645.507 370.5C645.027 369.66 644.787 368.713 644.787 367.66C644.787 366.62 645.02 365.687 645.487 364.86C645.967 364.02 646.627 363.367 647.467 362.9C648.307 362.433 649.254 362.2 650.307 362.2C651.347 362.2 652.274 362.433 653.087 362.9C653.914 363.353 654.554 364 655.007 364.84C655.474 365.667 655.707 366.627 655.707 367.72ZM650.307 364.2C649.507 364.2 648.827 364.44 648.267 364.92C647.72 365.387 647.387 366.013 647.267 366.8H653.327C653.22 366.027 652.894 365.4 652.347 364.92C651.8 364.44 651.12 364.2 650.307 364.2ZM661.695 362.2C663.269 362.2 664.469 362.58 665.295 363.34C666.135 364.087 666.555 365.22 666.555 366.74V373H664.195V371.7C663.889 372.167 663.449 372.527 662.875 372.78C662.315 373.02 661.635 373.14 660.835 373.14C660.035 373.14 659.335 373.007 658.735 372.74C658.135 372.46 657.669 372.08 657.335 371.6C657.015 371.107 656.855 370.553 656.855 369.94C656.855 368.98 657.209 368.213 657.915 367.64C658.635 367.053 659.762 366.76 661.295 366.76H664.055V366.6C664.055 365.853 663.829 365.28 663.375 364.88C662.935 364.48 662.275 364.28 661.395 364.28C660.795 364.28 660.202 364.373 659.615 364.56C659.042 364.747 658.555 365.007 658.155 365.34L657.175 363.52C657.735 363.093 658.409 362.767 659.195 362.54C659.982 362.313 660.815 362.2 661.695 362.2ZM661.355 371.32C661.982 371.32 662.535 371.18 663.015 370.9C663.509 370.607 663.855 370.193 664.055 369.66V368.42H661.475C660.035 368.42 659.315 368.893 659.315 369.84C659.315 370.293 659.495 370.653 659.855 370.92C660.215 371.187 660.715 371.32 661.355 371.32ZM672.864 373.14C671.997 373.14 671.15 373.027 670.324 372.8C669.497 372.573 668.837 372.287 668.344 371.94L669.304 370.04C669.784 370.36 670.357 370.62 671.024 370.82C671.704 371.007 672.37 371.1 673.024 371.1C674.517 371.1 675.264 370.707 675.264 369.92C675.264 369.547 675.07 369.287 674.684 369.14C674.31 368.993 673.704 368.853 672.864 368.72C671.984 368.587 671.264 368.433 670.704 368.26C670.157 368.087 669.677 367.787 669.264 367.36C668.864 366.92 668.664 366.313 668.664 365.54C668.664 364.527 669.084 363.72 669.924 363.12C670.777 362.507 671.924 362.2 673.364 362.2C674.097 362.2 674.83 362.287 675.564 362.46C676.297 362.62 676.897 362.84 677.364 363.12L676.404 365.02C675.497 364.487 674.477 364.22 673.344 364.22C672.61 364.22 672.05 364.333 671.664 364.56C671.29 364.773 671.104 365.06 671.104 365.42C671.104 365.82 671.304 366.107 671.704 366.28C672.117 366.44 672.75 366.593 673.604 366.74C674.457 366.873 675.157 367.027 675.704 367.2C676.25 367.373 676.717 367.667 677.104 368.08C677.504 368.493 677.704 369.08 677.704 369.84C677.704 370.84 677.27 371.64 676.404 372.24C675.537 372.84 674.357 373.14 672.864 373.14ZM689.997 362.32V373H687.617V371.64C687.217 372.12 686.717 372.493 686.117 372.76C685.517 373.013 684.87 373.14 684.177 373.14C682.75 373.14 681.623 372.747 680.797 371.96C679.983 371.16 679.577 369.98 679.577 368.42V362.32H682.077V368.08C682.077 369.04 682.29 369.76 682.717 370.24C683.157 370.707 683.777 370.94 684.577 370.94C685.47 370.94 686.177 370.667 686.697 370.12C687.23 369.56 687.497 368.76 687.497 367.72V362.32H689.997ZM695.45 363.88C696.17 362.76 697.437 362.2 699.25 362.2V364.58C699.037 364.54 698.843 364.52 698.67 364.52C697.697 364.52 696.937 364.807 696.39 365.38C695.843 365.94 695.57 366.753 695.57 367.82V373H693.07V362.32H695.45V363.88ZM711.113 367.72C711.113 367.893 711.1 368.14 711.073 368.46H702.693C702.84 369.247 703.22 369.873 703.833 370.34C704.46 370.793 705.233 371.02 706.153 371.02C707.327 371.02 708.293 370.633 709.053 369.86L710.393 371.4C709.913 371.973 709.307 372.407 708.573 372.7C707.84 372.993 707.013 373.14 706.093 373.14C704.92 373.14 703.887 372.907 702.993 372.44C702.1 371.973 701.407 371.327 700.913 370.5C700.433 369.66 700.193 368.713 700.193 367.66C700.193 366.62 700.427 365.687 700.893 364.86C701.373 364.02 702.033 363.367 702.873 362.9C703.713 362.433 704.66 362.2 705.713 362.2C706.753 362.2 707.68 362.433 708.493 362.9C709.32 363.353 709.96 364 710.413 364.84C710.88 365.667 711.113 366.627 711.113 367.72ZM705.713 364.2C704.913 364.2 704.233 364.44 703.673 364.92C703.127 365.387 702.793 366.013 702.673 366.8H708.733C708.627 366.027 708.3 365.4 707.753 364.92C707.207 364.44 706.527 364.2 705.713 364.2Z" fill="#061178"/>
<g filter="url(#filter4_d)">
<circle cx="668" cy="284" r="50" fill="white"/>
</g>
<path d="M690.031 300.406H649.719V263.844C649.719 263.586 649.508 263.375 649.25 263.375H645.969C645.711 263.375 645.5 263.586 645.5 263.844V304.156C645.5 304.414 645.711 304.625 645.969 304.625H690.031C690.289 304.625 690.5 304.414 690.5 304.156V300.875C690.5 300.617 690.289 300.406 690.031 300.406ZM654.875 295.719H658.156C658.414 295.719 658.625 295.508 658.625 295.25V286.812C658.625 286.555 658.414 286.344 658.156 286.344H654.875C654.617 286.344 654.406 286.555 654.406 286.812V295.25C654.406 295.508 654.617 295.719 654.875 295.719ZM663.781 295.719H667.062C667.32 295.719 667.531 295.508 667.531 295.25V276.5C667.531 276.242 667.32 276.031 667.062 276.031H663.781C663.523 276.031 663.312 276.242 663.312 276.5V295.25C663.312 295.508 663.523 295.719 663.781 295.719ZM672.688 295.719H675.969C676.227 295.719 676.438 295.508 676.438 295.25V281.07C676.438 280.812 676.227 280.602 675.969 280.602H672.688C672.43 280.602 672.219 280.812 672.219 281.07V295.25C672.219 295.508 672.43 295.719 672.688 295.719ZM681.594 295.719H684.875C685.133 295.719 685.344 295.508 685.344 295.25V271.812C685.344 271.555 685.133 271.344 684.875 271.344H681.594C681.336 271.344 681.125 271.555 681.125 271.812V295.25C681.125 295.508 681.336 295.719 681.594 295.719Z" fill="#10239E"/>
<path d="M818.013 369.76H811.013L809.633 373H806.953L813.253 359H815.813L822.133 373H819.413L818.013 369.76ZM817.153 367.72L814.513 361.6L811.893 367.72H817.153ZM833.836 358.16V373H831.436V371.62C831.022 372.127 830.509 372.507 829.896 372.76C829.296 373.013 828.629 373.14 827.896 373.14C826.869 373.14 825.942 372.913 825.116 372.46C824.302 372.007 823.662 371.367 823.196 370.54C822.729 369.7 822.496 368.74 822.496 367.66C822.496 366.58 822.729 365.627 823.196 364.8C823.662 363.973 824.302 363.333 825.116 362.88C825.942 362.427 826.869 362.2 827.896 362.2C828.602 362.2 829.249 362.32 829.836 362.56C830.422 362.8 830.922 363.16 831.336 363.64V358.16H833.836ZM828.196 371C828.796 371 829.336 370.867 829.816 370.6C830.296 370.32 830.676 369.927 830.956 369.42C831.236 368.913 831.376 368.327 831.376 367.66C831.376 366.993 831.236 366.407 830.956 365.9C830.676 365.393 830.296 365.007 829.816 364.74C829.336 364.46 828.796 364.32 828.196 364.32C827.596 364.32 827.056 364.46 826.576 364.74C826.096 365.007 825.716 365.393 825.436 365.9C825.156 366.407 825.016 366.993 825.016 367.66C825.016 368.327 825.156 368.913 825.436 369.42C825.716 369.927 826.096 370.32 826.576 370.6C827.056 370.867 827.596 371 828.196 371ZM835.806 377.02C834.753 377.02 833.953 376.813 833.406 376.4L834.126 374.54C834.499 374.82 834.986 374.96 835.586 374.96C836.053 374.96 836.406 374.813 836.646 374.52C836.899 374.24 837.026 373.82 837.026 373.26V362.32H839.526V373.2C839.526 374.387 839.199 375.32 838.546 376C837.893 376.68 836.979 377.02 835.806 377.02ZM838.266 360.56C837.813 360.56 837.433 360.42 837.126 360.14C836.819 359.847 836.666 359.487 836.666 359.06C836.666 358.633 836.819 358.28 837.126 358C837.433 357.707 837.813 357.56 838.266 357.56C838.719 357.56 839.099 357.7 839.406 357.98C839.713 358.247 839.866 358.587 839.866 359C839.866 359.44 839.713 359.813 839.406 360.12C839.113 360.413 838.733 360.56 838.266 360.56ZM852.944 362.32V373H850.564V371.64C850.164 372.12 849.664 372.493 849.064 372.76C848.464 373.013 847.818 373.14 847.124 373.14C845.698 373.14 844.571 372.747 843.744 371.96C842.931 371.16 842.524 369.98 842.524 368.42V362.32H845.024V368.08C845.024 369.04 845.238 369.76 845.664 370.24C846.104 370.707 846.724 370.94 847.524 370.94C848.418 370.94 849.124 370.667 849.644 370.12C850.178 369.56 850.444 368.76 850.444 367.72V362.32H852.944ZM859.318 373.14C858.451 373.14 857.604 373.027 856.778 372.8C855.951 372.573 855.291 372.287 854.798 371.94L855.758 370.04C856.238 370.36 856.811 370.62 857.478 370.82C858.158 371.007 858.824 371.1 859.478 371.1C860.971 371.1 861.718 370.707 861.718 369.92C861.718 369.547 861.524 369.287 861.138 369.14C860.764 368.993 860.158 368.853 859.318 368.72C858.438 368.587 857.718 368.433 857.158 368.26C856.611 368.087 856.131 367.787 855.718 367.36C855.318 366.92 855.118 366.313 855.118 365.54C855.118 364.527 855.538 363.72 856.378 363.12C857.231 362.507 858.378 362.2 859.818 362.2C860.551 362.2 861.284 362.287 862.018 362.46C862.751 362.62 863.351 362.84 863.818 363.12L862.858 365.02C861.951 364.487 860.931 364.22 859.798 364.22C859.064 364.22 858.504 364.333 858.118 364.56C857.744 364.773 857.558 365.06 857.558 365.42C857.558 365.82 857.758 366.107 858.158 366.28C858.571 366.44 859.204 366.593 860.058 366.74C860.911 366.873 861.611 367.027 862.158 367.2C862.704 367.373 863.171 367.667 863.558 368.08C863.958 368.493 864.158 369.08 864.158 369.84C864.158 370.84 863.724 371.64 862.858 372.24C861.991 372.84 860.811 373.14 859.318 373.14ZM872.531 372.42C872.237 372.66 871.877 372.84 871.451 372.96C871.037 373.08 870.597 373.14 870.131 373.14C868.957 373.14 868.051 372.833 867.411 372.22C866.771 371.607 866.451 370.713 866.451 369.54V364.4H864.691V362.4H866.451V359.96H868.951V362.4H871.811V364.4H868.951V369.48C868.951 370 869.077 370.4 869.331 370.68C869.584 370.947 869.951 371.08 870.431 371.08C870.991 371.08 871.457 370.933 871.831 370.64L872.531 372.42Z" fill="#061178"/>
<g filter="url(#filter5_d)">
<circle cx="840" cy="284" r="50" fill="white"/>
</g>
<path d="M862.969 284H859.688C859.43 284 859.219 284.211 859.219 284.469V303.219H820.781V264.781H839.531C839.789 264.781 840 264.57 840 264.312V261.031C840 260.773 839.789 260.562 839.531 260.562H818.438C817.4 260.562 816.562 261.4 816.562 262.438V305.562C816.562 306.6 817.4 307.438 818.438 307.438H861.562C862.6 307.438 863.438 306.6 863.438 305.562V284.469C863.438 284.211 863.227 284 862.969 284Z" fill="#10239E"/>
<path d="M830.854 285.342L830.742 292.309C830.736 292.83 831.158 293.258 831.68 293.258H831.703L838.617 293.088C838.734 293.082 838.852 293.035 838.934 292.953L863.303 268.637C863.484 268.455 863.484 268.156 863.303 267.975L856.02 260.697C855.926 260.604 855.809 260.562 855.686 260.562C855.563 260.562 855.445 260.609 855.352 260.697L830.988 285.014C830.904 285.102 830.856 285.219 830.854 285.342ZM834.574 286.725L855.686 265.66L858.334 268.303L837.211 289.379L834.533 289.443L834.574 286.725Z" fill="#10239E"/>
<path d="M241.777 283.566L232.852 275.869C232.519 275.583 232.031 275.841 232.031 276.302V291.696C232.031 292.158 232.519 292.416 232.852 292.13L241.777 284.433C242.032 284.213 242.032 283.786 241.777 283.566Z" fill="#10239E"/>
<path d="M413.777 283.566L404.852 275.869C404.519 275.583 404.031 275.841 404.031 276.302V291.696C404.031 292.158 404.519 292.416 404.852 292.13L413.777 284.433C414.032 284.213 414.032 283.786 413.777 283.566Z" fill="#10239E"/>
<path d="M586.777 283.566L577.852 275.869C577.519 275.583 577.031 275.841 577.031 276.302V291.696C577.031 292.158 577.519 292.416 577.852 292.13L586.777 284.433C587.032 284.213 587.032 283.786 586.777 283.566Z" fill="#10239E"/>
<path d="M758.777 283.566L749.852 275.869C749.519 275.583 749.031 275.841 749.031 276.302V291.696C749.031 292.158 749.519 292.416 749.852 292.13L758.777 284.433C759.032 284.213 759.032 283.786 758.777 283.566Z" fill="#10239E"/>
<rect x="315" y="28" width="362" height="64" rx="32" fill="#F5F8FF"/>
<path d="M378.937 53C380.177 53 381.251 53.2067 382.157 53.62C383.077 54.0333 383.784 54.62 384.277 55.38C384.771 56.14 385.017 57.04 385.017 58.08C385.017 59.1067 384.771 60.0067 384.277 60.78C383.784 61.54 383.077 62.1267 382.157 62.54C381.251 62.94 380.177 63.14 378.937 63.14H376.117V67H372.877V53H378.937ZM378.757 60.5C379.731 60.5 380.471 60.2933 380.977 59.88C381.484 59.4533 381.737 58.8533 381.737 58.08C381.737 57.2933 381.484 56.6933 380.977 56.28C380.471 55.8533 379.731 55.64 378.757 55.64H376.117V60.5H378.757ZM396.05 67L393.35 63.1H393.19H390.37V67H387.13V53H393.19C394.43 53 395.504 53.2067 396.41 53.62C397.33 54.0333 398.037 54.62 398.53 55.38C399.024 56.14 399.27 57.04 399.27 58.08C399.27 59.12 399.017 60.02 398.51 60.78C398.017 61.5267 397.31 62.1 396.39 62.5L399.53 67H396.05ZM395.99 58.08C395.99 57.2933 395.737 56.6933 395.23 56.28C394.724 55.8533 393.984 55.64 393.01 55.64H390.37V60.52H393.01C393.984 60.52 394.724 60.3067 395.23 59.88C395.737 59.4533 395.99 58.8533 395.99 58.08ZM412.477 64.4V67H401.637V53H412.217V55.6H404.857V58.64H411.357V61.16H404.857V64.4H412.477ZM420.915 53C422.155 53 423.229 53.2067 424.135 53.62C425.055 54.0333 425.762 54.62 426.255 55.38C426.749 56.14 426.995 57.04 426.995 58.08C426.995 59.1067 426.749 60.0067 426.255 60.78C425.762 61.54 425.055 62.1267 424.135 62.54C423.229 62.94 422.155 63.14 420.915 63.14H418.095V67H414.855V53H420.915ZM420.735 60.5C421.709 60.5 422.449 60.2933 422.955 59.88C423.462 59.4533 423.715 58.8533 423.715 58.08C423.715 57.2933 423.462 56.6933 422.955 56.28C422.449 55.8533 421.709 55.64 420.735 55.64H418.095V60.5H420.735ZM437.625 64H431.125L429.885 67H426.565L432.805 53H436.005L442.265 67H438.865L437.625 64ZM436.605 61.54L434.385 56.18L432.165 61.54H436.605ZM452.438 67L449.738 63.1H449.578H446.758V67H443.518V53H449.578C450.818 53 451.891 53.2067 452.798 53.62C453.718 54.0333 454.424 54.62 454.918 55.38C455.411 56.14 455.658 57.04 455.658 58.08C455.658 59.12 455.404 60.02 454.898 60.78C454.404 61.5267 453.698 62.1 452.778 62.5L455.918 67H452.438ZM452.378 58.08C452.378 57.2933 452.124 56.6933 451.618 56.28C451.111 55.8533 450.371 55.64 449.398 55.64H446.758V60.52H449.398C450.371 60.52 451.111 60.3067 451.618 59.88C452.124 59.4533 452.378 58.8533 452.378 58.08ZM468.865 64.4V67H458.025V53H468.605V55.6H461.245V58.64H467.745V61.16H461.245V64.4H468.865Z" fill="#061178"/>
<path d="M531.503 63.4V66H520.663V52H531.243V54.6H523.883V57.64H530.383V60.16H523.883V63.4H531.503ZM538.481 66.24C537.374 66.24 536.301 66.0933 535.261 65.8C534.234 65.4933 533.407 65.1 532.781 64.62L533.881 62.18C534.481 62.62 535.194 62.9733 536.021 63.24C536.847 63.5067 537.674 63.64 538.501 63.64C539.421 63.64 540.101 63.5067 540.541 63.24C540.981 62.96 541.201 62.5933 541.201 62.14C541.201 61.8067 541.067 61.5333 540.801 61.32C540.547 61.0933 540.214 60.9133 539.801 60.78C539.401 60.6467 538.854 60.5 538.161 60.34C537.094 60.0867 536.221 59.8333 535.541 59.58C534.861 59.3267 534.274 58.92 533.781 58.36C533.301 57.8 533.061 57.0533 533.061 56.12C533.061 55.3067 533.281 54.5733 533.721 53.92C534.161 53.2533 534.821 52.7267 535.701 52.34C536.594 51.9533 537.681 51.76 538.961 51.76C539.854 51.76 540.727 51.8667 541.581 52.08C542.434 52.2933 543.181 52.6 543.821 53L542.821 55.46C541.527 54.7267 540.234 54.36 538.941 54.36C538.034 54.36 537.361 54.5067 536.921 54.8C536.494 55.0933 536.281 55.48 536.281 55.96C536.281 56.44 536.527 56.8 537.021 57.04C537.527 57.2667 538.294 57.4933 539.321 57.72C540.387 57.9733 541.261 58.2267 541.941 58.48C542.621 58.7333 543.201 59.1333 543.681 59.68C544.174 60.2267 544.421 60.9667 544.421 61.9C544.421 62.7 544.194 63.4333 543.741 64.1C543.301 64.7533 542.634 65.2733 541.741 65.66C540.847 66.0467 539.761 66.24 538.481 66.24ZM549.139 54.64H544.659V52H556.859V54.64H552.379V66H549.139V54.64ZM558.403 52H561.643V66H558.403V52ZM577.505 66L577.485 57.6L573.365 64.52H571.905L567.805 57.78V66H564.765V52H567.445L572.685 60.7L577.845 52H580.505L580.545 66H577.505ZM592.887 63H586.387L585.147 66H581.827L588.067 52H591.267L597.527 66H594.127L592.887 63ZM591.867 60.54L589.647 55.18L587.427 60.54H591.867ZM600.976 54.64H596.496V52H608.696V54.64H604.216V66H600.976V54.64ZM621.079 63.4V66H610.239V52H620.819V54.6H613.459V57.64H619.959V60.16H613.459V63.4H621.079Z" fill="#061178"/>
<path d="M497.777 59.5667L488.852 51.8699C488.519 51.5839 488.031 51.8417 488.031 52.3035V67.6972C488.031 68.1589 488.519 68.4167 488.852 68.1308L497.777 60.4339C498.032 60.2136 498.032 59.7871 497.777 59.5667Z" fill="#10239E"/>
<rect x="315" y="482" width="362" height="80" rx="40" fill="#F5F8FF"/>
<path d="M453.135 505H459.495C461.015 505 462.355 505.293 463.515 505.88C464.688 506.453 465.595 507.267 466.235 508.32C466.888 509.373 467.215 510.6 467.215 512C467.215 513.4 466.888 514.627 466.235 515.68C465.595 516.733 464.688 517.553 463.515 518.14C462.355 518.713 461.015 519 459.495 519H453.135V505ZM459.335 516.34C460.735 516.34 461.848 515.953 462.675 515.18C463.515 514.393 463.935 513.333 463.935 512C463.935 510.667 463.515 509.613 462.675 508.84C461.848 508.053 460.735 507.66 459.335 507.66H456.375V516.34H459.335ZM480.298 516.4V519H469.458V505H480.038V507.6H472.678V510.64H479.178V513.16H472.678V516.4H480.298ZM482.676 505H485.916V516.36H492.936V519H482.676V505ZM494.547 505H497.787V519H494.547V505ZM514.291 505L508.231 519H505.031L498.991 505H502.491L506.751 515L511.071 505H514.291ZM526.1 516.4V519H515.26V505H525.84V507.6H518.48V510.64H524.98V513.16H518.48V516.4H526.1ZM537.398 519L534.698 515.1H534.538H531.718V519H528.478V505H534.538C535.778 505 536.851 505.207 537.758 505.62C538.678 506.033 539.385 506.62 539.878 507.38C540.371 508.14 540.618 509.04 540.618 510.08C540.618 511.12 540.365 512.02 539.858 512.78C539.365 513.527 538.658 514.1 537.738 514.5L540.878 519H537.398ZM537.338 510.08C537.338 509.293 537.085 508.693 536.578 508.28C536.071 507.853 535.331 507.64 534.358 507.64H531.718V512.52H534.358C535.331 512.52 536.071 512.307 536.578 511.88C537.085 511.453 537.338 510.853 537.338 510.08Z" fill="#061178"/>
<path d="M465.189 531.517L461.222 530.941L459.449 527.345C459.4 527.247 459.32 527.167 459.222 527.119C458.975 526.997 458.675 527.098 458.552 527.345L456.778 530.941L452.811 531.517C452.702 531.533 452.602 531.584 452.525 531.662C452.433 531.758 452.382 531.886 452.383 532.018C452.385 532.151 452.439 532.278 452.535 532.37L455.405 535.169L454.727 539.12C454.711 539.212 454.721 539.307 454.756 539.393C454.791 539.48 454.85 539.554 454.925 539.609C455.001 539.664 455.09 539.697 455.183 539.703C455.276 539.71 455.369 539.69 455.452 539.647L459 537.781L462.549 539.647C462.645 539.698 462.758 539.716 462.866 539.697C463.138 539.65 463.32 539.392 463.274 539.12L462.595 535.169L465.466 532.37C465.544 532.294 465.595 532.194 465.611 532.084C465.653 531.811 465.463 531.558 465.189 531.517Z" fill="#10239E"/>
<path d="M502.523 531.517L498.556 530.941L496.783 527.345C496.734 527.247 496.654 527.167 496.556 527.119C496.309 526.997 496.009 527.098 495.886 527.345L494.112 530.941L490.145 531.517C490.036 531.533 489.936 531.584 489.859 531.662C489.767 531.758 489.716 531.886 489.717 532.018C489.719 532.151 489.773 532.278 489.869 532.37L492.739 535.169L492.061 539.12C492.045 539.212 492.055 539.307 492.09 539.393C492.125 539.48 492.184 539.554 492.259 539.609C492.335 539.664 492.424 539.697 492.517 539.703C492.61 539.71 492.703 539.69 492.786 539.647L496.334 537.781L499.883 539.647C499.979 539.698 500.092 539.716 500.2 539.697C500.472 539.65 500.654 539.392 500.608 539.12L499.929 535.169L502.8 532.37C502.878 532.294 502.929 532.194 502.945 532.084C502.987 531.811 502.797 531.558 502.523 531.517Z" fill="#10239E"/>
<path d="M539.855 531.517L535.888 530.941L534.115 527.345C534.066 527.247 533.986 527.167 533.888 527.119C533.641 526.997 533.341 527.098 533.218 527.345L531.444 530.941L527.477 531.517C527.368 531.533 527.268 531.584 527.191 531.662C527.099 531.758 527.048 531.886 527.049 532.018C527.051 532.151 527.105 532.278 527.201 532.37L530.071 535.169L529.393 539.12C529.377 539.212 529.387 539.307 529.422 539.393C529.457 539.48 529.516 539.554 529.591 539.609C529.667 539.664 529.756 539.697 529.849 539.703C529.942 539.71 530.035 539.69 530.118 539.647L533.666 537.781L537.215 539.647C537.311 539.698 537.424 539.716 537.532 539.697C537.804 539.65 537.986 539.392 537.94 539.12L537.261 535.169L540.132 532.37C540.21 532.294 540.261 532.194 540.277 532.084C540.319 531.811 540.129 531.558 539.855 531.517Z" fill="#10239E"/>
<path d="M483.855 531.517L479.888 530.941L478.115 527.345C478.066 527.247 477.986 527.167 477.888 527.119C477.641 526.997 477.341 527.098 477.218 527.345L475.444 530.941L471.477 531.517C471.368 531.533 471.268 531.584 471.191 531.662C471.099 531.758 471.048 531.886 471.049 532.018C471.051 532.151 471.105 532.278 471.201 532.37L474.071 535.169L473.393 539.12C473.377 539.212 473.387 539.307 473.422 539.393C473.457 539.48 473.516 539.554 473.591 539.609C473.667 539.664 473.756 539.697 473.849 539.703C473.942 539.71 474.035 539.69 474.118 539.647L477.666 537.781L481.215 539.647C481.311 539.698 481.424 539.716 481.532 539.697C481.804 539.65 481.986 539.392 481.94 539.12L481.261 535.169L484.132 532.37C484.21 532.294 484.261 532.194 484.277 532.084C484.319 531.811 484.129 531.558 483.855 531.517Z" fill="#10239E"/>
<path d="M521.189 531.517L517.222 530.941L515.449 527.345C515.4 527.247 515.32 527.167 515.222 527.119C514.975 526.997 514.675 527.098 514.552 527.345L512.778 530.941L508.811 531.517C508.702 531.533 508.602 531.584 508.525 531.662C508.433 531.758 508.382 531.886 508.383 532.018C508.385 532.151 508.439 532.278 508.535 532.37L511.405 535.169L510.727 539.12C510.711 539.212 510.721 539.307 510.756 539.393C510.791 539.48 510.85 539.554 510.925 539.609C511.001 539.664 511.09 539.697 511.183 539.703C511.276 539.71 511.369 539.69 511.452 539.647L515 537.781L518.549 539.647C518.645 539.698 518.758 539.716 518.866 539.697C519.138 539.65 519.32 539.392 519.274 539.12L518.595 535.169L521.466 532.37C521.544 532.294 521.595 532.194 521.611 532.084C521.653 531.811 521.463 531.558 521.189 531.517Z" fill="#10239E"/>
<path d="M505.254 121.632H502.881C502.746 121.632 502.617 121.69 502.526 121.793L496.113 129.185V112.688C496.113 112.559 496.008 112.453 495.879 112.453H494.121C493.992 112.453 493.886 112.559 493.886 112.688V129.185L487.473 121.793C487.385 121.69 487.257 121.632 487.119 121.632H484.746C484.547 121.632 484.438 121.869 484.57 122.019L494.294 133.225C494.382 133.326 494.49 133.407 494.612 133.463C494.734 133.519 494.867 133.548 495.001 133.548C495.135 133.548 495.268 133.519 495.39 133.463C495.512 133.407 495.621 133.326 495.709 133.225L505.429 122.019C505.561 121.866 505.453 121.632 505.254 121.632Z" fill="#10239E"/>
<path d="M505.254 455.632H502.881C502.746 455.632 502.617 455.69 502.526 455.793L496.113 463.185V446.688C496.113 446.559 496.008 446.453 495.879 446.453H494.121C493.992 446.453 493.886 446.559 493.886 446.688V463.185L487.473 455.793C487.385 455.69 487.257 455.632 487.119 455.632H484.746C484.547 455.632 484.438 455.869 484.57 456.019L494.294 467.225C494.382 467.326 494.49 467.407 494.612 467.463C494.734 467.519 494.867 467.548 495.001 467.548C495.135 467.548 495.268 467.519 495.39 467.463C495.512 467.407 495.621 467.326 495.709 467.225L505.429 456.019C505.561 455.866 505.453 455.632 505.254 455.632Z" fill="#10239E"/>
<defs>
<filter id="filter0_d" x="0" y="0" width="990" height="608" filterUnits="userSpaceOnUse" color-interpolation-filters="sRGB">
<feFlood flood-opacity="0" result="BackgroundImageFix"/>
<feColorMatrix in="SourceAlpha" type="matrix" values="0 0 0 0 0 0 0 0 0 0 0 0 0 0 0 0 0 0 127 0"/>
<feOffset dy="9"/>
<feGaussianBlur stdDeviation="12.5"/>
<feColorMatrix type="matrix" values="0 0 0 0 0.0627451 0 0 0 0 0.137255 0 0 0 0 0.619608 0 0 0 0.15 0"/>
<feBlend mode="normal" in2="BackgroundImageFix" result="effect1_dropShadow"/>
<feBlend mode="normal" in="SourceGraphic" in2="effect1_dropShadow" result="shape"/>
</filter>
<filter id="filter1_d" x="86" y="219" width="130" height="130" filterUnits="userSpaceOnUse" color-interpolation-filters="sRGB">
<feFlood flood-opacity="0" result="BackgroundImageFix"/>
<feColorMatrix in="SourceAlpha" type="matrix" values="0 0 0 0 0 0 0 0 0 0 0 0 0 0 0 0 0 0 127 0"/>
<feOffset/>
<feGaussianBlur stdDeviation="7.5"/>
<feColorMatrix type="matrix" values="0 0 0 0 0.0627451 0 0 0 0 0.137255 0 0 0 0 0.619608 0 0 0 0.1 0"/>
<feBlend mode="normal" in2="BackgroundImageFix" result="effect1_dropShadow"/>
<feBlend mode="normal" in="SourceGraphic" in2="effect1_dropShadow" result="shape"/>
</filter>
<filter id="filter2_d" x="258" y="219" width="130" height="130" filterUnits="userSpaceOnUse" color-interpolation-filters="sRGB">
<feFlood flood-opacity="0" result="BackgroundImageFix"/>
<feColorMatrix in="SourceAlpha" type="matrix" values="0 0 0 0 0 0 0 0 0 0 0 0 0 0 0 0 0 0 127 0"/>
<feOffset/>
<feGaussianBlur stdDeviation="7.5"/>
<feColorMatrix type="matrix" values="0 0 0 0 0.0627451 0 0 0 0 0.137255 0 0 0 0 0.619608 0 0 0 0.1 0"/>
<feBlend mode="normal" in2="BackgroundImageFix" result="effect1_dropShadow"/>
<feBlend mode="normal" in="SourceGraphic" in2="effect1_dropShadow" result="shape"/>
</filter>
<filter id="filter3_d" x="431" y="219" width="130" height="130" filterUnits="userSpaceOnUse" color-interpolation-filters="sRGB">
<feFlood flood-opacity="0" result="BackgroundImageFix"/>
<feColorMatrix in="SourceAlpha" type="matrix" values="0 0 0 0 0 0 0 0 0 0 0 0 0 0 0 0 0 0 127 0"/>
<feOffset/>
<feGaussianBlur stdDeviation="7.5"/>
<feColorMatrix type="matrix" values="0 0 0 0 0.0627451 0 0 0 0 0.137255 0 0 0 0 0.619608 0 0 0 0.1 0"/>
<feBlend mode="normal" in2="BackgroundImageFix" result="effect1_dropShadow"/>
<feBlend mode="normal" in="SourceGraphic" in2="effect1_dropShadow" result="shape"/>
</filter>
<filter id="filter4_d" x="603" y="219" width="130" height="130" filterUnits="userSpaceOnUse" color-interpolation-filters="sRGB">
<feFlood flood-opacity="0" result="BackgroundImageFix"/>
<feColorMatrix in="SourceAlpha" type="matrix" values="0 0 0 0 0 0 0 0 0 0 0 0 0 0 0 0 0 0 127 0"/>
<feOffset/>
<feGaussianBlur stdDeviation="7.5"/>
<feColorMatrix type="matrix" values="0 0 0 0 0.0627451 0 0 0 0 0.137255 0 0 0 0 0.619608 0 0 0 0.1 0"/>
<feBlend mode="normal" in2="BackgroundImageFix" result="effect1_dropShadow"/>
<feBlend mode="normal" in="SourceGraphic" in2="effect1_dropShadow" result="shape"/>
</filter>
<filter id="filter5_d" x="775" y="219" width="130" height="130" filterUnits="userSpaceOnUse" color-interpolation-filters="sRGB">
<feFlood flood-opacity="0" result="BackgroundImageFix"/>
<feColorMatrix in="SourceAlpha" type="matrix" values="0 0 0 0 0 0 0 0 0 0 0 0 0 0 0 0 0 0 127 0"/>
<feOffset/>
<feGaussianBlur stdDeviation="7.5"/>
<feColorMatrix type="matrix" values="0 0 0 0 0.0627451 0 0 0 0 0.137255 0 0 0 0 0.619608 0 0 0 0.1 0"/>
<feBlend mode="normal" in2="BackgroundImageFix" result="effect1_dropShadow"/>
<feBlend mode="normal" in="SourceGraphic" in2="effect1_dropShadow" result="shape"/>
</filter>
</defs>
</svg>
