<svg width="385" height="590" viewBox="0 0 385 590" fill="none" xmlns="http://www.w3.org/2000/svg">
<g filter="url(#filter0_d)">
<path fill-rule="evenodd" clip-rule="evenodd" d="M77 42C77 27.6406 88.6406 16 103 16H283C297.359 16 309 27.6406 309 42H345C353.284 42 360 48.7157 360 57V517C360 525.284 353.284 532 345 532H308.924C307.903 545.425 296.686 556 283 556H103C89.3135 556 78.097 545.425 77.0758 532H40C31.7157 532 25 525.284 25 517V57C25 48.7157 31.7157 42 40 42H77Z" fill="white"/>
</g>
<rect x="83" y="22" width="220" height="40" rx="20" fill="#F5F8FF"/>
<rect x="83" y="510" width="220" height="40" rx="20" fill="#F5F8FF"/>
<rect x="37" y="94" width="311" height="384" rx="5" fill="#F5F8FF"/>
<path d="M193.217 202.388L197.066 197.926C197.209 197.759 197.08 197.516 196.849 197.516L189.152 197.516C188.921 197.516 188.792 197.759 188.935 197.926L192.784 202.388C192.894 202.516 193.107 202.516 193.217 202.388Z" fill="#10239E"/>
<path d="M193.217 270.388L197.066 265.926C197.209 265.759 197.08 265.516 196.849 265.516L189.152 265.516C188.921 265.516 188.792 265.759 188.935 265.926L192.784 270.388C192.894 270.516 193.107 270.516 193.217 270.388Z" fill="#10239E"/>
<path d="M193.217 338.388L197.066 333.926C197.209 333.759 197.08 333.516 196.849 333.516L189.152 333.516C188.921 333.516 188.792 333.759 188.935 333.926L192.784 338.388C192.894 338.516 193.107 338.516 193.217 338.388Z" fill="#10239E"/>
<path d="M193.217 406.388L197.066 401.926C197.209 401.759 197.08 401.516 196.849 401.516L189.152 401.516C188.921 401.516 188.792 401.759 188.935 401.926L192.784 406.388C192.894 406.516 193.107 406.516 193.217 406.388Z" fill="#10239E"/>
<path d="M181.902 114.28H184.582V112.14H176.382V114.28H179.342V115.18C179.342 118.34 178.382 121.64 175.702 123.34L177.262 125.28C178.922 124.24 180.002 122.44 180.642 120.34C181.242 122.28 182.282 123.88 183.922 124.84L185.462 122.92C182.802 121.36 181.902 118.26 181.902 115.18V114.28ZM185.642 116.58H183.302V118.72H185.642V127.88H188.102V110.6H185.642V116.58ZM189.362 110.28V128.7H191.862V110.28H189.362ZM205.26 118.72C202.36 117.78 201.1 115.6 201.04 113.48H204.64V111.38H194.68V113.48H198.34C198.28 115.76 196.98 118.06 193.98 119.04L195.36 121.1C197.48 120.4 198.92 118.98 199.74 117.2C200.54 118.82 201.92 120.12 203.92 120.76L205.26 118.72ZM196.46 124.32H206.12V128.74H208.76V122.22H196.46V124.32ZM211.2 114.74H208.76V110.3H206.12V121.4H208.76V116.92H211.2V114.74Z" fill="#061178"/>
<path d="M121.742 40.6C125.182 40.22 127.442 38.8 128.382 36.92C129.362 38.8 131.602 40.22 135.022 40.6L135.982 38.54C132.382 38.14 130.562 36.66 130.262 35.18H135.222V33.08H121.582V35.18H126.522C126.202 36.64 124.362 38.14 120.802 38.54L121.742 40.6ZM124.622 45.1H121.982V50.4H134.882V48.3H124.622V45.1ZM120.042 41.48V43.56H127.302V46.68H129.942V43.56H136.742V41.48H120.042ZM150.88 32.28V50.76H153.52V32.28H150.88ZM139.16 33.76V46.46H148.24V33.76H145.62V38.22H141.78V33.76H139.16ZM141.78 40.28H145.62V44.36H141.78V40.28Z" fill="#061178"/>
<path d="M186.482 527.54C184.002 528.02 181.642 528.22 179.442 528.26V522.08H176.802V530.44H178.362C180.962 530.44 183.782 530.26 186.782 529.66L186.482 527.54ZM187.942 537.42H181.102V535.72H187.942V537.42ZM187.942 533.68H181.102V531.84H178.482V539.52H190.562V531.84H187.942V533.68ZM193.002 525.06H190.562V521.3H187.922V530.96H190.562V527.22H193.002V525.06ZM204.46 526.68H200.68V523.9H204.46V526.68ZM198.06 526.68H195.84V528.78H209.28V526.68H207.08V523.9H209.42V521.8H195.72V523.9H198.06V526.68ZM206.32 537.44H198.78V535.58H206.32V537.44ZM210.9 532.02V529.92H194.26V532.02H201.26V533.52H196.2V539.52H208.92V533.52H203.9V532.02H210.9Z" fill="#061178"/>
<path d="M239.822 37.94V39.96H235.702V42.08H239.822V45.86H242.462V32.3H239.822V35.84H236.682C236.822 35.16 236.902 34.44 236.902 33.68H228.282V35.78H234.042C233.622 38.46 231.202 40.66 227.302 41.86L228.382 43.96C232.082 42.82 234.722 40.74 236.002 37.94H239.822ZM233.062 48.3V44.54H230.422V50.4H242.922V48.3H233.062ZM256.36 40.7C253.52 39.74 252.24 37.52 252.2 35.42H255.78V33.32H245.88V35.42H249.5C249.46 37.7 248.12 40.04 245.16 41.04L246.5 43.12C248.64 42.42 250.08 40.94 250.9 39.14C251.68 40.78 253.06 42.1 255.08 42.76L256.36 40.7ZM248.1 46.18H258.02V50.74H260.66V44.08H248.1V46.18ZM258.02 32.32V36.7H255.3V38.82H258.02V43.26H260.66V32.32H258.02Z" fill="#061178"/>
<path d="M192.388 41.7834L187.926 37.9349C187.759 37.792 187.516 37.9209 187.516 38.1517V45.8486C187.516 46.0795 187.759 46.2084 187.926 46.0654L192.388 42.217C192.516 42.1068 192.516 41.8935 192.388 41.7834Z" fill="#10239E"/>
<rect x="83" y="142" width="220" height="40" rx="20" fill="white"/>
<rect x="83" y="215" width="220" height="40" rx="20" fill="white"/>
<rect x="83" y="282" width="220" height="40" rx="20" fill="white"/>
<rect x="83" y="351" width="220" height="40" rx="20" fill="white"/>
<rect x="83" y="418" width="220" height="40" rx="20" fill="white"/>
<path d="M198.469 77.2703H197.203C197.131 77.2703 197.062 77.3016 197.014 77.3562L193.594 81.2984V72.5C193.594 72.4312 193.537 72.375 193.469 72.375H192.531C192.462 72.375 192.406 72.4312 192.406 72.5V81.2984L188.986 77.3562C188.939 77.3016 188.87 77.2703 188.797 77.2703H187.531C187.425 77.2703 187.367 77.3969 187.437 77.4766L192.623 83.4531C192.67 83.5072 192.728 83.5506 192.793 83.5803C192.858 83.61 192.929 83.6254 193.001 83.6254C193.072 83.6254 193.143 83.61 193.208 83.5803C193.273 83.5506 193.331 83.5072 193.378 83.4531L198.562 77.4766C198.633 77.3953 198.575 77.2703 198.469 77.2703Z" fill="#10239E"/>
<path d="M198.469 493.27H197.203C197.131 493.27 197.062 493.302 197.014 493.356L193.594 497.298V488.5C193.594 488.431 193.537 488.375 193.469 488.375H192.531C192.462 488.375 192.406 488.431 192.406 488.5V497.298L188.986 493.356C188.939 493.302 188.87 493.27 188.797 493.27H187.531C187.425 493.27 187.367 493.397 187.437 493.477L192.623 499.453C192.67 499.507 192.728 499.551 192.793 499.58C192.858 499.61 192.929 499.625 193.001 499.625C193.072 499.625 193.143 499.61 193.208 499.58C193.273 499.551 193.331 499.507 193.378 499.453L198.562 493.477C198.633 493.395 198.575 493.27 198.469 493.27Z" fill="#10239E"/>
<path d="M177.917 226.924V228.814H183.173C182.831 230.992 180.815 232.81 177.125 233.728L178.061 235.6C182.975 234.322 185.765 231.334 185.765 226.924H177.917ZM181.931 237.742H188.015V240.496H181.931V237.742ZM179.609 242.35H190.355V235.87H179.609V242.35ZM192.551 229.57H190.355V225.97H187.979V235.204H190.355V231.514H192.551V229.57ZM208.138 231.856C204.376 231.334 202.468 229.174 202.468 227.248V226.456H199.93V227.248C199.93 229.192 198.04 231.334 194.26 231.856L195.16 233.764C198.058 233.332 200.146 231.982 201.208 230.2C202.27 231.982 204.34 233.332 207.238 233.764L208.138 231.856ZM208.678 234.988H193.702V236.914H199.948V242.566H202.324V236.914H208.678V234.988Z" fill="#061178"/>
<path d="M154.153 160.746H151.003V158.406H154.153V160.746ZM156.475 159.288H159.427V165.21H161.803V152.988H159.427V157.38H156.475V154.086H154.153V156.588H151.003V154.068H148.645V162.636H156.475V159.288ZM153.235 167.37V164.022H150.859V169.26H162.163V167.37H153.235ZM166.896 165.408H175.806V169.566H178.182V163.536H166.896V165.408ZM173.178 158.802C173.232 158.514 173.268 158.226 173.268 157.938C173.268 157.632 173.232 157.362 173.178 157.092H175.806V158.802H173.178ZM168.894 160.026C167.688 160.026 166.788 159.252 166.788 157.938C166.788 156.642 167.688 155.868 168.894 155.868C170.118 155.868 171.018 156.642 171.018 157.938C171.018 159.252 170.118 160.026 168.894 160.026ZM175.806 152.97V155.202H172.224C171.432 154.356 170.244 153.834 168.894 153.834C166.446 153.834 164.538 155.562 164.538 157.938C164.538 160.332 166.446 162.06 168.894 162.06C170.226 162.06 171.414 161.538 172.206 160.692H175.806V162.78H178.182V152.97H175.806ZM199.247 152.988H196.871V162.384H199.247V152.988ZM192.047 159.126H188.663V155.832H192.047V159.126ZM194.369 153.96H186.323V160.98H194.369V153.96ZM199.517 165.03V163.266H194.891V161.916H192.479V163.266H187.835V165.03H192.425C192.191 166.182 190.517 167.442 187.205 167.73L187.943 169.494C190.733 169.26 192.677 168.288 193.685 167.01C194.693 168.27 196.619 169.26 199.373 169.494L200.129 167.73C196.853 167.46 195.197 166.128 194.945 165.03H199.517ZM210.736 166.47H219.88V161.808H208.342V163.644H217.504V164.724H208.36V169.422H220.294V167.586H210.736V166.47ZM219.61 158.802C219.916 157.146 219.916 155.814 219.916 154.752V153.618H208.522V155.508H217.576C217.558 156.426 217.504 157.47 217.234 158.802H206.668V160.674H221.68V158.802H219.61ZM236.078 158.64C236.582 156.804 236.582 155.346 236.582 154.338V153.402H230.66V155.292H234.26C234.224 156.12 234.117 157.11 233.775 158.388L236.078 158.64ZM228.536 158.712C229.4 156.84 229.4 155.274 229.4 154.266V153.402H224.27V155.292H227.06C227.006 156.066 226.808 157.02 226.232 158.352L228.536 158.712ZM227.348 166.596H236.096V162.132H224.972V163.968H233.756V164.868H224.99V169.422H236.654V167.586H227.348V166.596ZM231.974 159.324V157.02H229.634V159.324H223.064V161.214H238.023V159.324H231.974Z" fill="#061178"/>
<path d="M167.71 297.812H164.308V295.31H167.71V297.812ZM161.95 297.812H159.952V299.702H172.048V297.812H170.068V295.31H172.174V293.42H159.844V295.31H161.95V297.812ZM169.384 307.496H162.598V305.822H169.384V307.496ZM173.506 302.618V300.728H158.53V302.618H164.83V303.968H160.276V309.368H171.724V303.968H167.206V302.618H173.506ZM188.66 292.97H186.284V301.466H188.66V292.97ZM185.24 299.486C182.756 298.82 181.55 297.218 181.37 295.616H184.628V293.726H175.61V295.616H178.922C178.76 297.362 177.536 299.09 174.98 299.81L176.078 301.664C178.076 301.106 179.444 299.864 180.2 298.298C180.956 299.702 182.252 300.8 184.16 301.304L185.24 299.486ZM180.002 307.622V306.578H188.678V302.132H177.626V303.914H186.32V304.904H177.644V309.422H189.092V307.622H180.002ZM204.937 300.08C205.315 297.992 205.315 296.354 205.315 295.202V294.176H196.801V296.066H202.975C202.957 297.056 202.885 298.262 202.615 299.81L204.937 300.08ZM206.035 300.746C204.487 300.962 202.831 301.088 201.193 301.16V298.028H198.871V301.25C197.791 301.268 196.765 301.268 195.847 301.268L196.063 303.158C198.907 303.14 202.759 303.068 206.179 302.438L206.035 300.746ZM200.635 304.274H198.259V309.26H209.833V307.37H200.635V304.274ZM209.311 298.01V292.952H206.935V305.372H209.311V299.972H211.291V298.01H209.311ZM215.772 300.782H221.154V294.374H213.324V296.264H218.724V298.91H213.342V305.732H214.836C217.842 305.732 220.272 305.624 222.972 305.156L222.72 303.23C220.38 303.626 218.292 303.752 215.772 303.77V300.782ZM223.872 292.952V309.584H226.248V292.952H223.872Z" fill="#061178"/>
<path d="M179.137 369.566C182.179 369.35 184.249 368.486 185.293 367.172C186.319 368.486 188.371 369.35 191.413 369.566L192.115 367.802C188.515 367.568 186.913 366.506 186.643 365.354H191.341V363.518H186.463V362.024H184.087V363.518H179.227V365.354H183.925C183.655 366.506 182.035 367.568 178.435 367.802L179.137 369.566ZM179.461 375.182H188.605V378.566H190.981V373.31H179.461V375.182ZM177.805 370.196V372.086H192.781V370.196H177.805ZM203.184 365.966V367.892H205.668V371.834H208.044V361.97H205.668V365.966H203.184ZM204.174 369.53C201.654 368.702 200.502 366.758 200.43 364.868H203.652V362.96H194.742V364.868H198C197.928 366.938 196.722 369.044 194.094 369.962L195.3 371.834C197.226 371.186 198.54 369.836 199.26 368.162C199.98 369.62 201.222 370.79 203.022 371.384L204.174 369.53ZM202.446 376.766C200.268 376.766 199.134 376.316 199.134 375.38C199.134 374.444 200.268 373.994 202.446 373.994C204.606 373.994 205.74 374.444 205.74 375.38C205.74 376.316 204.606 376.766 202.446 376.766ZM202.446 372.194C198.918 372.194 196.758 373.364 196.758 375.38C196.758 377.396 198.918 378.566 202.446 378.566C205.956 378.566 208.116 377.396 208.116 375.38C208.116 373.364 205.956 372.194 202.446 372.194Z" fill="#061178"/>
<path d="M179.317 438.762C182.197 438.24 184.285 436.8 185.311 434.82C186.355 436.764 188.461 438.15 191.377 438.672L192.277 436.8C188.713 436.278 186.787 434.28 186.571 432.12H191.539V430.23H179.047V432.12H184.015C183.799 434.28 181.873 436.35 178.399 436.89L179.317 438.762ZM186.499 441.696V438.042H184.123V441.696H177.805V443.622H192.817V441.696H186.499ZM203.184 432.966V434.892H205.668V438.834H208.044V428.97H205.668V432.966H203.184ZM204.174 436.53C201.654 435.702 200.502 433.758 200.43 431.868H203.652V429.96H194.742V431.868H198C197.928 433.938 196.722 436.044 194.094 436.962L195.3 438.834C197.226 438.186 198.54 436.836 199.26 435.162C199.98 436.62 201.222 437.79 203.022 438.384L204.174 436.53ZM202.446 443.766C200.268 443.766 199.134 443.316 199.134 442.38C199.134 441.444 200.268 440.994 202.446 440.994C204.606 440.994 205.74 441.444 205.74 442.38C205.74 443.316 204.606 443.766 202.446 443.766ZM202.446 439.194C198.918 439.194 196.758 440.364 196.758 442.38C196.758 444.396 198.918 445.566 202.446 445.566C205.956 445.566 208.116 444.396 208.116 442.38C208.116 440.364 205.956 439.194 202.446 439.194Z" fill="#061178"/>
<defs>
<filter id="filter0_d" x="0" y="0" width="385" height="590" filterUnits="userSpaceOnUse" color-interpolation-filters="sRGB">
<feFlood flood-opacity="0" result="BackgroundImageFix"/>
<feColorMatrix in="SourceAlpha" type="matrix" values="0 0 0 0 0 0 0 0 0 0 0 0 0 0 0 0 0 0 127 0"/>
<feOffset dy="9"/>
<feGaussianBlur stdDeviation="12.5"/>
<feColorMatrix type="matrix" values="0 0 0 0 0.0627451 0 0 0 0 0.137255 0 0 0 0 0.619608 0 0 0 0.15 0"/>
<feBlend mode="normal" in2="BackgroundImageFix" result="effect1_dropShadow"/>
<feBlend mode="normal" in="SourceGraphic" in2="effect1_dropShadow" result="shape"/>
</filter>
</defs>
</svg>
