<svg width="990" height="608" viewBox="0 0 990 608" fill="none" xmlns="http://www.w3.org/2000/svg">
<g filter="url(#filter0_d)">
<path fill-rule="evenodd" clip-rule="evenodd" d="M950 59H688.989C688.457 35.1613 668.966 16 645 16H347C323.034 16 303.543 35.1613 303.011 59H40C31.7157 59 25 65.7157 25 74V509C25 517.284 31.7158 524 40 524H303.038C304.089 551.792 326.951 574 355 574H637C665.049 574 687.911 551.792 688.962 524H950C958.284 524 965 517.284 965 509V74C965 65.7157 958.284 59 950 59Z" fill="white"/>
</g>
<rect x="61" y="146" width="868" height="280" rx="15" fill="#F5F8FF"/>
<path d="M487.1 193.55V188.525H494.575V185.65H487.1V181.25H495.525V178.35H487.1V173.85H483.975V178.35H480.125C480.55 177.2 480.95 176.025 481.3 174.825L478.225 174.15C477.375 177.55 475.75 181 473.8 183.1C474.55 183.5 475.875 184.4 476.475 184.875C477.3 183.9 478.075 182.625 478.8 181.25H483.975V185.65H477.2V188.525H483.975V193.55H474.325V196.475H496.8V193.55H487.1ZM521.35 183.225H516.075C516.7 182.35 517.425 181.325 518.125 180.3L514.8 179.275C514.375 180.475 513.625 182.125 512.95 183.225H507.15L508.925 182.425C508.55 181.525 507.7 180.25 506.95 179.25H520.825V176.425H512.75C512.425 175.6 511.8 174.525 511.175 173.725L508.1 174.475C508.5 175.05 508.925 175.75 509.225 176.425H500.625V179.25H506.325L504.2 180.175C504.85 181.1 505.55 182.3 505.975 183.225H500.825V186.675C500.825 189.225 500.65 192.8 498.675 195.35C499.35 195.725 500.675 196.9 501.175 197.475C503.475 194.55 503.95 189.85 503.95 186.75V186.125H521.35V183.225Z" fill="#061178"/>
<path d="M100.126 369.984V371.062H98.476V369.984H100.126ZM103.404 371.062H101.886V369.984H103.404V371.062ZM101.886 373.922V372.734H103.404V373.922H101.886ZM98.476 372.734H100.126V373.922H98.476V372.734ZM99.95 367.718H102.128V365.144C103.03 365.98 103.998 366.904 104.504 367.498L105.78 365.474C105.362 365.144 103.844 364.132 102.766 363.45H105.56V361.536H104.394C104.702 360.876 105.032 360.128 105.384 359.358L103.47 358.83C103.272 359.622 102.876 360.722 102.546 361.536H102.128V358.72C103.382 358.566 104.614 358.39 105.626 358.17L104.35 356.41C102.282 356.894 98.894 357.224 96.012 357.4C96.254 357.862 96.496 358.588 96.562 359.072C97.618 359.05 98.784 358.984 99.95 358.896V361.536H98.168L99.202 361.228C99.07 360.678 98.696 359.776 98.41 359.072L96.738 359.512C96.98 360.15 97.266 360.964 97.42 361.536H95.946V363.45H98.872C97.97 364.55 96.716 365.694 95.594 366.354C95.924 366.948 96.364 367.938 96.562 368.598V376.914H98.476V375.858H103.404V376.628H105.428V368.07H97.354C98.278 367.256 99.18 366.178 99.95 365.078V367.718ZM115.834 357.334H111.236V359.512H113.7V365.166C113.502 364.088 113.04 362.416 112.622 361.14L110.972 361.47C111.39 362.878 111.808 364.726 111.984 365.826L113.7 365.408V366.64C112.622 367.762 111.522 368.862 110.796 369.522V357.268H106.154V359.468H108.706V364.902C108.42 363.824 107.914 362.372 107.452 361.206L105.824 361.624C106.33 363.01 106.88 364.88 107.1 365.98L108.706 365.474V366.816C107.54 368.07 106.396 369.258 105.626 370.006L106.66 371.788C107.32 371.15 108.002 370.402 108.706 369.632V374.296C108.706 374.582 108.618 374.67 108.354 374.67C108.112 374.692 107.342 374.692 106.572 374.648C106.858 375.242 107.188 376.21 107.232 376.804C108.486 376.804 109.366 376.738 110.004 376.364C110.62 376.012 110.796 375.374 110.796 374.34V369.698L111.764 371.414C112.402 370.776 113.04 370.094 113.7 369.39V374.252C113.7 374.56 113.59 374.648 113.304 374.648C113.018 374.648 112.138 374.67 111.258 374.626C111.588 375.22 111.918 376.254 111.984 376.848C113.348 376.848 114.316 376.804 114.976 376.408C115.658 376.034 115.834 375.396 115.834 374.274V357.334ZM123.27 360.568C122.786 359.49 121.642 357.862 120.696 356.674L118.716 357.95C119.596 359.204 120.696 360.942 121.136 362.02L123.27 360.568ZM132.356 369.852H136.514V367.586H132.356V365.87H129.782V367.586H125.844V369.852H129.782V371.502H124.7C124.524 371.084 124.348 370.666 124.216 370.292L122.94 371.326V363.076H117.902V365.584H120.388V372.338C120.388 373.504 119.75 374.34 119.288 374.758C119.684 375.132 120.388 376.078 120.63 376.606C120.96 376.1 121.576 375.506 124.612 372.932V373.812H129.782V376.936H132.356V373.812H137.988V371.502H132.356V369.852ZM133.5 359.512C132.862 360.26 132.092 360.964 131.212 361.58C130.354 360.986 129.584 360.282 128.946 359.512H133.5ZM135.634 357.136L135.216 357.246H124.678V359.512H126.35C127.12 360.788 128.088 361.888 129.188 362.856C127.45 363.802 125.47 364.506 123.49 364.968C123.974 365.496 124.546 366.552 124.832 367.19C127.098 366.574 129.32 365.65 131.278 364.418C132.95 365.474 134.842 366.266 136.932 366.75C137.284 366.112 137.988 365.078 138.538 364.55C136.69 364.22 134.974 363.648 133.456 362.9C135.062 361.558 136.404 359.952 137.328 358.082L135.634 357.136ZM146.59 365.32H149.78V362.9H146.59V359.534C147.756 359.27 148.9 358.962 149.868 358.61L148.174 356.564C146.172 357.356 142.96 358.06 140.1 358.456C140.386 359.028 140.694 359.908 140.804 360.502C141.816 360.37 142.872 360.216 143.95 360.04V362.9H140.034V365.32H143.312C142.454 367.74 141.046 370.27 139.55 371.854C139.99 372.514 140.628 373.548 140.87 374.318C142.036 373.02 143.07 371.128 143.95 369.06V376.892H146.59V368.774C147.316 369.808 148.02 370.908 148.438 371.656L149.934 369.478C149.45 368.884 147.47 366.574 146.59 365.694V365.32ZM152.926 371.612V360.942H156.446V371.612H152.926ZM150.352 358.434V375.858H152.926V374.12H156.446V375.704H159.152V358.434H150.352ZM168.92 365.76L166.962 366.266V362.966H168.942V360.546H166.962V356.388H164.454V360.546H161.968V362.966H164.454V366.882C163.42 367.124 162.474 367.344 161.682 367.498L162.078 370.05C162.826 369.874 163.618 369.654 164.454 369.434V374.01C164.454 374.296 164.366 374.384 164.08 374.384C163.816 374.384 163.002 374.384 162.232 374.362C162.54 375.022 162.87 376.034 162.958 376.694C164.366 376.694 165.356 376.628 166.038 376.232C166.742 375.836 166.962 375.22 166.962 373.988V368.774C167.732 368.576 168.48 368.356 169.228 368.158L168.92 365.76ZM172.484 359.842H169.646V362.13H172.484V364.506H169.712V366.772H172.484V369.148H169.162V371.502H172.484V376.87H174.992V356.63H172.484V359.842ZM182.274 369.192H178.996V366.772H181.834V364.506H178.996V362.13H181.988V359.842H178.996V356.608H176.488V376.914H178.996V371.546H182.274V369.192ZM187.4 366.904C187.422 366.398 187.422 365.892 187.422 365.43V364.462H192.79V362.152H191.272V356.366H188.918V362.152H187.422V356.938H185.024V365.43C185.024 368.532 184.87 372.734 183.594 375.396C184.122 375.748 185.002 376.518 185.42 377.024C186.63 374.956 187.136 372.074 187.312 369.214H189.314V376.848H191.69V366.904H187.4ZM194.836 374.692C195.716 371.964 195.936 368.664 195.98 365.892C196.53 368.092 197.212 370.116 198.136 371.876C197.19 373.064 196.112 374.032 194.836 374.692ZM201.062 364.792C200.71 366.574 200.182 368.202 199.5 369.61C198.774 368.136 198.18 366.508 197.762 364.792H201.062ZM202.206 362.328L201.788 362.416H195.98V359.798C198.774 359.622 201.744 359.292 204.12 358.764L202.668 356.476C200.27 357.026 196.706 357.466 193.494 357.686V365.056C193.494 368.18 193.296 372.778 191.69 375.682C192.306 375.99 193.296 376.694 193.758 377.134C194.154 376.496 194.462 375.814 194.726 375.044C195.21 375.594 195.782 376.43 196.09 377.002C197.41 376.254 198.576 375.308 199.544 374.164C200.402 375.286 201.414 376.254 202.558 377.002C202.976 376.32 203.746 375.374 204.318 374.912C203.064 374.23 201.964 373.24 201.04 372.052C202.426 369.654 203.35 366.574 203.768 362.724L202.206 362.328Z" fill="#061178"/>
<g filter="url(#filter1_d)">
<circle cx="151" cy="284" r="50" fill="white"/>
</g>
<path d="M172.562 260.562H129.438C128.4 260.562 127.562 261.4 127.562 262.438V305.562C127.562 306.6 128.4 307.438 129.438 307.438H172.562C173.6 307.438 174.438 306.6 174.438 305.562V262.438C174.438 261.4 173.6 260.562 172.562 260.562ZM170.219 303.219H131.781V264.781H170.219V303.219ZM149.828 277.438H160.609C160.867 277.438 161.078 277.227 161.078 276.969V274.156C161.078 273.898 160.867 273.688 160.609 273.688H149.828C149.57 273.688 149.359 273.898 149.359 274.156V276.969C149.359 277.227 149.57 277.438 149.828 277.438ZM149.828 285.875H160.609C160.867 285.875 161.078 285.664 161.078 285.406V282.594C161.078 282.336 160.867 282.125 160.609 282.125H149.828C149.57 282.125 149.359 282.336 149.359 282.594V285.406C149.359 285.664 149.57 285.875 149.828 285.875ZM149.828 294.312H160.609C160.867 294.312 161.078 294.102 161.078 293.844V291.031C161.078 290.773 160.867 290.562 160.609 290.562H149.828C149.57 290.562 149.359 290.773 149.359 291.031V293.844C149.359 294.102 149.57 294.312 149.828 294.312ZM140.922 275.562C140.922 276.184 141.169 276.78 141.608 277.22C142.048 277.659 142.644 277.906 143.266 277.906C143.887 277.906 144.483 277.659 144.923 277.22C145.362 276.78 145.609 276.184 145.609 275.562C145.609 274.941 145.362 274.345 144.923 273.905C144.483 273.466 143.887 273.219 143.266 273.219C142.644 273.219 142.048 273.466 141.608 273.905C141.169 274.345 140.922 274.941 140.922 275.562ZM140.922 284C140.922 284.622 141.169 285.218 141.608 285.657C142.048 286.097 142.644 286.344 143.266 286.344C143.887 286.344 144.483 286.097 144.923 285.657C145.362 285.218 145.609 284.622 145.609 284C145.609 283.378 145.362 282.782 144.923 282.343C144.483 281.903 143.887 281.656 143.266 281.656C142.644 281.656 142.048 281.903 141.608 282.343C141.169 282.782 140.922 283.378 140.922 284ZM140.922 292.438C140.922 293.059 141.169 293.655 141.608 294.095C142.048 294.534 142.644 294.781 143.266 294.781C143.887 294.781 144.483 294.534 144.923 294.095C145.362 293.655 145.609 293.059 145.609 292.438C145.609 291.816 145.362 291.22 144.923 290.78C144.483 290.341 143.887 290.094 143.266 290.094C142.644 290.094 142.048 290.341 141.608 290.78C141.169 291.22 140.922 291.816 140.922 292.438Z" fill="#10239E"/>
<path d="M309.888 369.136C309.492 368.498 307.732 365.572 307.16 364.824V364.12H309.338V361.7H307.16V357.366H304.762V361.7H302.144V364.12H304.322C303.75 366.782 302.694 369.906 301.462 371.644C301.858 372.304 302.43 373.514 302.672 374.24C303.464 372.964 304.168 371.072 304.762 369.026V377.914H307.16V368.212C307.644 369.268 308.128 370.368 308.392 371.116L309.888 369.136ZM322.186 366.958C321.482 365.748 319.92 364.076 318.578 362.822H322.032V360.424H316.048L317.434 359.83C317.126 359.06 316.444 357.938 315.762 357.124L313.452 357.982C313.98 358.708 314.53 359.654 314.838 360.424H309.888V362.822H318.072L316.576 364.076C317.588 365.044 318.71 366.298 319.502 367.42L317.28 366.826C316.906 368.234 316.312 369.51 315.542 370.632C314.728 369.51 314.046 368.234 313.562 366.848L312.286 367.178C313.188 366.166 314.09 365.022 314.794 363.9L312.484 362.844C311.626 364.296 310.196 366.078 308.81 367.134C309.382 367.552 310.218 368.278 310.614 368.762C310.9 368.52 311.208 368.278 311.494 367.992C312.154 369.708 312.924 371.248 313.914 372.634C312.506 373.998 310.746 375.098 308.656 375.89C309.184 376.33 309.976 377.342 310.306 377.936C312.396 377.078 314.134 375.978 315.586 374.592C316.994 375.956 318.732 377.034 320.822 377.76C321.196 377.034 321.966 375.956 322.56 375.406C320.492 374.812 318.754 373.844 317.324 372.59C318.358 371.182 319.15 369.554 319.722 367.728C319.942 368.036 320.118 368.322 320.272 368.608L322.186 366.958ZM331.668 359.874L331.228 359.962H324.474V362.47H330.546C330.26 364.208 329.864 365.858 329.38 367.398C328.324 366.408 327.268 365.462 326.256 364.604L324.452 366.276C325.728 367.398 327.092 368.696 328.324 370.038C327.158 372.502 325.596 374.482 323.748 375.736C324.364 376.22 325.178 377.188 325.574 377.87C327.466 376.44 329.028 374.57 330.238 372.26C331.074 373.294 331.756 374.306 332.24 375.164L334.264 373.206C333.648 372.106 332.614 370.808 331.448 369.532C332.394 366.914 333.054 363.856 333.406 360.358L331.668 359.874ZM333.538 367.508C334.506 369.004 335.474 371.006 335.804 372.282L338.07 371.138C337.718 369.84 336.662 367.926 335.628 366.496L333.538 367.508ZM344.208 362.25H341.854V357.344H339.258V362.25H333.714V364.758H339.258V374.636C339.258 375.01 339.126 375.12 338.73 375.12C338.356 375.12 337.168 375.142 335.958 375.076C336.31 375.868 336.684 377.122 336.772 377.892C338.598 377.892 339.918 377.782 340.732 377.32C341.568 376.88 341.854 376.132 341.854 374.636V364.758H344.208V362.25Z" fill="#061178"/>
<g filter="url(#filter2_d)">
<circle cx="323" cy="284" r="50" fill="white"/>
</g>
<path d="M333.313 272.281V269.469C333.313 269.211 333.102 269 332.844 269H310.344C310.086 269 309.875 269.211 309.875 269.469V272.281C309.875 272.539 310.086 272.75 310.344 272.75H332.844C333.102 272.75 333.313 272.539 333.313 272.281ZM310.344 277.438C310.086 277.438 309.875 277.648 309.875 277.906V280.719C309.875 280.977 310.086 281.188 310.344 281.188H321.125C321.383 281.188 321.594 280.977 321.594 280.719V277.906C321.594 277.648 321.383 277.438 321.125 277.438H310.344ZM318.781 303.922H305.188V262.672H338V282.828C338 283.086 338.211 283.297 338.469 283.297H341.75C342.008 283.297 342.219 283.086 342.219 282.828V260.328C342.219 259.291 341.381 258.453 340.344 258.453H302.844C301.807 258.453 300.969 259.291 300.969 260.328V306.266C300.969 307.303 301.807 308.141 302.844 308.141H318.781C319.039 308.141 319.25 307.93 319.25 307.672V304.391C319.25 304.133 319.039 303.922 318.781 303.922ZM344.896 306.939L339.43 301.473C340.736 299.744 341.516 297.588 341.516 295.25C341.516 289.555 336.898 284.938 331.203 284.938C325.508 284.938 320.891 289.555 320.891 295.25C320.891 300.945 325.508 305.562 331.203 305.562C333.301 305.562 335.246 304.936 336.875 303.863L342.424 309.412C342.518 309.506 342.635 309.547 342.752 309.547C342.869 309.547 342.992 309.5 343.08 309.412L344.896 307.596C344.94 307.553 344.974 307.502 344.997 307.445C345.021 307.389 345.033 307.329 345.033 307.268C345.033 307.207 345.021 307.146 344.997 307.09C344.974 307.034 344.94 306.982 344.896 306.939ZM331.203 301.812C327.576 301.812 324.641 298.877 324.641 295.25C324.641 291.623 327.576 288.688 331.203 288.688C334.83 288.688 337.766 291.623 337.766 295.25C337.766 298.877 334.83 301.812 331.203 301.812Z" fill="#10239E"/>
<path d="M456.39 362.008V360.952C458.392 360.842 460.46 360.71 462.484 360.512C462.484 360.996 462.462 361.502 462.44 362.008H456.39ZM456.39 364.274H462.308C462.264 364.846 462.22 365.352 462.176 365.836H457.49V373.514H460.13V368.234H467.962V373.69H470.712V365.836H464.706C464.772 365.352 464.86 364.846 464.926 364.274H472.01V362.008H465.168C465.212 361.392 465.278 360.776 465.3 360.204C467.258 359.962 469.128 359.676 470.778 359.324L468.732 357.256C465.168 358.048 459.096 358.598 453.816 358.796V365.022C453.816 368.366 453.64 373.118 451.572 376.352C452.21 376.594 453.354 377.254 453.86 377.672C456.06 374.174 456.39 368.718 456.39 365.022V364.274ZM465.52 368.96H462.77V370.632C462.77 372.084 462.352 374.35 455.62 375.89C456.28 376.418 457.072 377.342 457.424 377.892C464.53 375.912 465.52 372.876 465.52 370.698V368.96ZM464.222 375.032C466.268 375.802 468.886 377.034 470.316 377.892L472.164 376.154C470.624 375.384 468.072 374.24 466.07 373.492L464.222 375.032ZM488.488 360.094H479.358V359.39H488.488V360.094ZM488.488 362.118H479.358V361.392H488.488V362.118ZM491.128 358.026H476.828V363.46H491.128V358.026ZM493.988 364.12H474.078V365.99H493.988V364.12ZM478.896 370.874V370.104H482.724V370.874H478.896ZM478.896 368.036H482.724V368.806H478.896V368.036ZM489.082 368.806H485.232V368.036H489.082V368.806ZM489.082 370.874H485.232V370.104H489.082V370.874ZM485.232 375.472V374.68H492.052V372.986H485.232V372.282H491.634V366.65H476.432V372.282H482.724V372.986H475.992V374.68H482.724V375.472H474.034V377.364H494.032V375.472H485.232ZM500.588 360.732C501.116 361.546 501.644 362.47 501.864 363.108L504.086 362.294C503.91 361.876 503.558 361.304 503.184 360.732H505.89V358.928H500.632C500.83 358.51 500.984 358.092 501.138 357.696L498.564 357.212C497.992 359.038 496.936 360.93 495.682 362.118C496.298 362.382 497.42 362.954 497.948 363.284C498.564 362.602 499.18 361.722 499.752 360.732H500.588ZM511.258 374.174V375.406H501.974V374.174H511.258ZM510.158 368.234V369.378H501.974V368.234H510.158ZM501.974 371.248H512.71V366.364H499.312V377.936H501.974V377.342H511.258V377.936H513.876V372.26H501.974V371.248ZM504.284 362.25C504.504 362.602 504.702 363.064 504.856 363.482H496.672V367.332H499.202V365.44H512.776V367.332H515.46V363.482H507.496C507.276 362.932 506.946 362.272 506.616 361.766L504.284 362.25ZM510.048 358.95C510.224 358.532 510.378 358.092 510.51 357.674L507.98 357.212C507.562 358.774 506.792 360.314 505.78 361.348C506.374 361.612 507.452 362.14 507.936 362.492C508.376 362.03 508.794 361.414 509.19 360.732H510.048C510.73 361.546 511.412 362.514 511.654 363.174L513.854 362.184C513.634 361.788 513.26 361.26 512.842 360.732H515.9V358.95H510.048ZM524.898 371.05C524.194 371.292 523.468 371.512 522.742 371.732V367.332H524.722V364.934H522.742V361.062H525.096V358.62H517.836V361.062H520.256V364.934H518.034V367.332H520.256V372.502C519.244 372.788 518.342 373.03 517.572 373.228L518.166 375.89C520.278 375.208 522.918 374.372 525.338 373.514L524.898 371.05ZM528.286 364.406H530.552V366.298H528.286V364.406ZM528.286 360.512H530.552V362.36H528.286V360.512ZM534.93 362.36H532.752V360.512H534.93V362.36ZM534.93 366.298H532.752V364.406H534.93V366.298ZM532.994 374.856V372.766H537.658V370.412H532.994V368.52H537.416V358.29H525.932V368.52H530.332V370.412H525.778V372.766H530.332V374.856H524.26V377.232H538.406V374.856H532.994Z" fill="#061178"/>
<g filter="url(#filter3_d)">
<circle cx="496" cy="284" r="50" fill="white"/>
</g>
<path d="M516.795 263.955L496.885 257.17C496.645 257.088 496.322 257.047 496 257.047C495.678 257.047 495.355 257.088 495.115 257.17L475.205 263.955C474.719 264.119 474.32 264.682 474.32 265.197V293.463C474.32 293.979 474.654 294.658 475.059 294.98L495.256 310.719C495.461 310.877 495.725 310.959 495.994 310.959C496.264 310.959 496.533 310.877 496.732 310.719L516.93 294.98C517.334 294.664 517.668 293.984 517.668 293.463V265.197C517.68 264.682 517.281 264.125 516.795 263.955ZM513.461 292.338L496 305.943L478.539 292.338V267.283L496 261.33L513.461 267.283V292.338ZM489.684 280.561C489.508 280.32 489.227 280.174 488.922 280.174H485.687C485.307 280.174 485.084 280.607 485.307 280.918L492.713 291.113C492.8 291.233 492.915 291.331 493.047 291.398C493.18 291.465 493.326 291.5 493.475 291.5C493.623 291.5 493.769 291.465 493.902 291.398C494.034 291.331 494.149 291.233 494.236 291.113L506.693 273.963C506.916 273.652 506.693 273.219 506.312 273.219H503.078C502.779 273.219 502.492 273.365 502.316 273.605L493.475 285.781L489.684 280.561Z" fill="#10239E"/>
<path d="M654.69 360.38H658.496V372.766H660.542V358.532H652.732V372.898H654.69V360.38ZM652.71 359.698C651.874 359.06 650.202 358.114 649.058 357.542L647.518 359.456C648.706 360.116 650.356 361.128 651.126 361.81L652.71 359.698ZM651.808 365.462C650.972 364.868 649.3 363.966 648.156 363.394L646.682 365.308C647.848 365.946 649.476 366.936 650.268 367.574L651.808 365.462ZM649.872 369.268C649.014 371.842 647.87 374.614 647.056 376.33L649.432 377.672C650.312 375.516 651.258 372.986 651.984 370.632L649.872 369.268ZM656.802 374.13C657.374 372.788 657.506 371.358 657.506 369.994V361.59H655.614V369.972C655.614 372.392 655.262 374.768 651.808 376.33C652.138 376.638 652.732 377.474 652.93 377.914C654.91 377.012 656.076 375.736 656.714 374.328C657.682 375.384 658.804 376.836 659.332 377.738L661.004 376.704C660.432 375.758 659.2 374.35 658.21 373.294L656.802 374.13ZM663.556 359.368H661.576V372.854H663.556V359.368ZM664.59 357.718V375.274C664.59 375.604 664.458 375.714 664.128 375.714C663.798 375.714 662.764 375.736 661.708 375.692C661.972 376.308 662.28 377.254 662.368 377.826C663.952 377.848 665.03 377.76 665.712 377.408C666.416 377.056 666.636 376.462 666.636 375.274V357.718H664.59ZM683.488 360.094H674.358V359.39H683.488V360.094ZM683.488 362.118H674.358V361.392H683.488V362.118ZM686.128 358.026H671.828V363.46H686.128V358.026ZM688.988 364.12H669.078V365.99H688.988V364.12ZM673.896 370.874V370.104H677.724V370.874H673.896ZM673.896 368.036H677.724V368.806H673.896V368.036ZM684.082 368.806H680.232V368.036H684.082V368.806ZM684.082 370.874H680.232V370.104H684.082V370.874ZM680.232 375.472V374.68H687.052V372.986H680.232V372.282H686.634V366.65H671.432V372.282H677.724V372.986H670.992V374.68H677.724V375.472H669.034V377.364H689.032V375.472H680.232Z" fill="#061178"/>
<g filter="url(#filter4_d)">
<circle cx="668" cy="284" r="50" fill="white"/>
</g>
<path d="M690.031 300.406H649.719V263.844C649.719 263.586 649.508 263.375 649.25 263.375H645.969C645.711 263.375 645.5 263.586 645.5 263.844V304.156C645.5 304.414 645.711 304.625 645.969 304.625H690.031C690.289 304.625 690.5 304.414 690.5 304.156V300.875C690.5 300.617 690.289 300.406 690.031 300.406ZM654.875 295.719H658.156C658.414 295.719 658.625 295.508 658.625 295.25V286.812C658.625 286.555 658.414 286.344 658.156 286.344H654.875C654.617 286.344 654.406 286.555 654.406 286.812V295.25C654.406 295.508 654.617 295.719 654.875 295.719ZM663.781 295.719H667.062C667.32 295.719 667.531 295.508 667.531 295.25V276.5C667.531 276.242 667.32 276.031 667.062 276.031H663.781C663.523 276.031 663.312 276.242 663.312 276.5V295.25C663.312 295.508 663.523 295.719 663.781 295.719ZM672.688 295.719H675.969C676.227 295.719 676.438 295.508 676.438 295.25V281.07C676.438 280.812 676.227 280.602 675.969 280.602H672.688C672.43 280.602 672.219 280.812 672.219 281.07V295.25C672.219 295.508 672.43 295.719 672.688 295.719ZM681.594 295.719H684.875C685.133 295.719 685.344 295.508 685.344 295.25V271.812C685.344 271.555 685.133 271.344 684.875 271.344H681.594C681.336 271.344 681.125 271.555 681.125 271.812V295.25C681.125 295.508 681.336 295.719 681.594 295.719Z" fill="#10239E"/>
<path d="M825.04 361.018C824.292 360.05 822.686 358.642 821.476 357.674L819.804 359.28C821.014 360.314 822.576 361.832 823.236 362.844L825.04 361.018ZM829.088 365.66V367.508H835.622V365.66H833.29V364.164H835.182V362.338H833.29V360.864H831.266V362.338H829.484V364.164H831.266V365.66H829.088ZM833.268 370.654V372.458H831.134V370.654H833.268ZM835.182 374.284V368.85H829.242V375.252H831.134V374.284H835.182ZM838.482 358.158H826.206V366.694C826.206 368.542 826.162 370.698 825.722 372.7C825.48 372.238 825.26 371.688 825.106 371.27L823.962 372.238V364.12H818.814V366.628H821.41V372.964C821.41 374.306 820.596 375.34 820.046 375.824C820.486 376.176 821.322 377.012 821.63 377.518C821.982 377.056 822.554 376.528 825.326 374.108C825.084 374.944 824.71 375.758 824.204 376.484C824.732 376.726 825.678 377.474 826.052 377.892C828.142 374.922 828.472 370.104 828.472 366.694V360.446H836.172V375.12C836.172 375.428 836.062 375.538 835.754 375.56C835.446 375.56 834.478 375.582 833.554 375.516C833.906 376.132 834.236 377.232 834.302 377.892C835.842 377.892 836.854 377.826 837.536 377.43C838.284 377.012 838.482 376.33 838.482 375.164V358.158ZM852.232 374.108H857.908V372.194H852.232V371.094H859.668V368.982H842.31V371.094H849.658V375.23H846.754V371.93H844.246V375.23H840.99V377.386H861.032V375.23H852.232V374.108ZM857.05 361.7C856.786 362.492 856.456 363.174 856.016 363.79C855.422 363.108 854.938 362.426 854.586 361.7H857.05ZM847.48 365.88V365.154H848.074L847.48 365.88ZM843.718 362.514H845.192V363.636H843.718V362.514ZM848.822 362.514V363.636H847.48V362.514H848.822ZM860.944 361.7V359.61H855.444C855.642 359.06 855.84 358.51 856.016 357.938L853.684 357.388C853.178 359.28 852.21 361.062 850.956 362.272V360.974H847.48V360.226H851.286V358.4H847.48V357.344H845.192V358.4H841.188V360.226H845.192V360.974H841.694V365.154H844.268C843.3 366.034 841.98 366.826 840.726 367.288C841.21 367.662 841.87 368.432 842.2 368.938C843.212 368.432 844.29 367.662 845.192 366.76V368.498H847.48V366.254C848.338 366.76 849.328 367.464 849.834 367.97L850.912 366.518C850.45 366.122 849.636 365.594 848.866 365.154H850.956V362.91C851.44 363.394 852.034 364.054 852.298 364.406C852.628 364.12 852.936 363.768 853.244 363.394C853.618 364.054 854.058 364.692 854.542 365.308C853.552 366.1 852.276 366.672 850.78 367.09C851.242 367.53 852.012 368.476 852.232 368.96C853.75 368.432 855.026 367.75 856.126 366.87C857.16 367.772 858.436 368.498 859.932 369.004C860.24 368.41 860.878 367.442 861.362 366.98C859.932 366.606 858.678 366.012 857.688 365.286C858.458 364.296 859.074 363.108 859.492 361.7H860.944Z" fill="#061178"/>
<g filter="url(#filter5_d)">
<circle cx="840" cy="284" r="50" fill="white"/>
</g>
<path d="M862.969 284H859.688C859.43 284 859.219 284.211 859.219 284.469V303.219H820.781V264.781H839.531C839.789 264.781 840 264.57 840 264.312V261.031C840 260.773 839.789 260.562 839.531 260.562H818.438C817.4 260.562 816.562 261.4 816.562 262.438V305.562C816.562 306.6 817.4 307.438 818.438 307.438H861.562C862.6 307.438 863.438 306.6 863.438 305.562V284.469C863.438 284.211 863.227 284 862.969 284Z" fill="#10239E"/>
<path d="M830.853 285.342L830.742 292.309C830.736 292.83 831.158 293.258 831.68 293.258H831.703L838.617 293.088C838.734 293.082 838.851 293.035 838.933 292.953L863.303 268.637C863.484 268.455 863.484 268.156 863.303 267.975L856.019 260.697C855.926 260.604 855.808 260.562 855.685 260.562C855.562 260.562 855.445 260.609 855.351 260.697L830.988 285.014C830.903 285.102 830.855 285.219 830.853 285.342ZM834.574 286.725L855.685 265.66L858.334 268.303L837.211 289.379L834.533 289.443L834.574 286.725Z" fill="#10239E"/>
<path d="M241.777 283.566L232.852 275.869C232.519 275.583 232.031 275.841 232.031 276.302V291.696C232.031 292.158 232.519 292.416 232.852 292.13L241.777 284.433C242.032 284.213 242.032 283.786 241.777 283.566Z" fill="#10239E"/>
<path d="M413.777 283.566L404.852 275.869C404.519 275.583 404.031 275.841 404.031 276.302V291.696C404.031 292.158 404.519 292.416 404.852 292.13L413.777 284.433C414.032 284.213 414.032 283.786 413.777 283.566Z" fill="#10239E"/>
<path d="M586.777 283.566L577.852 275.869C577.519 275.583 577.031 275.841 577.031 276.302V291.696C577.031 292.158 577.519 292.416 577.852 292.13L586.777 284.433C587.032 284.213 587.032 283.786 586.777 283.566Z" fill="#10239E"/>
<path d="M758.777 283.566L749.852 275.869C749.519 275.583 749.031 275.841 749.031 276.302V291.696C749.031 292.158 749.519 292.416 749.852 292.13L758.777 284.433C759.032 284.213 759.032 283.786 758.777 283.566Z" fill="#10239E"/>
<rect x="315" y="28" width="362" height="64" rx="32" fill="#F5F8FF"/>
<path d="M401.825 56.75C401.175 55.175 399.725 52.675 398.575 50.825L395.9 52.025C397 53.95 398.35 56.55 398.925 58.15L401.825 56.75ZM399.05 72.05C400.125 69.55 401.325 66.5 402.35 63.55L399.6 62.2C398.45 65.35 397 68.675 395.925 70.75L399.05 72.05ZM406.45 66.5H410.95V68.925H406.45V66.5ZM410.95 59.075H406.45V56.675H410.95V59.075ZM410.95 63.95H406.45V61.625H410.95V63.95ZM419.175 68.925H413.85V66.5H418.25V63.95H413.85V61.625H418.3V59.075H413.85V56.675H418.775V54.125H413.35L414.65 53.45C414.2 52.475 413.325 51 412.525 49.9L409.975 51.05C410.55 51.975 411.225 53.15 411.675 54.125H407.2C407.7 53 408.15 51.85 408.55 50.675L405.8 50C404.6 53.95 402.45 57.775 399.875 60.125C400.45 60.625 401.5 61.725 401.95 62.3C402.55 61.675 403.15 60.95 403.725 60.2V73.2H406.45V71.575H419.175V68.925ZM428.65 54.4H435.975C434.95 55.3 433.75 56.075 432.375 56.75C430.85 56.1 429.525 55.35 428.55 54.5L428.65 54.4ZM430.875 64.675V66.025H426.85V64.675H430.875ZM437.7 66.025H433.95V64.675H437.7V66.025ZM433.95 69.95V68.325H437.7V69.95H433.95ZM426.85 69.95V68.325H430.875V69.95H426.85ZM438.9 51.7L438.4 51.825H431.125C431.525 51.35 431.875 50.85 432.225 50.375L429 49.725C427.7 51.8 425.225 54.05 421.525 55.625C422.175 56.075 423.075 57.125 423.5 57.825C424.55 57.3 425.475 56.75 426.35 56.15C427.175 56.85 428.1 57.475 429.05 58.075C426.425 58.9 423.475 59.475 420.475 59.8C420.975 60.475 421.55 61.75 421.775 62.575C422.45 62.475 423.075 62.375 423.75 62.25V73.2H426.85V72.475H437.7V73.175H440.975V62.15H424.325C427.175 61.6 429.95 60.825 432.425 59.725C435.525 60.975 439.075 61.825 442.775 62.275C443.15 61.45 443.975 60.175 444.6 59.5C441.475 59.225 438.425 58.7 435.775 57.95C437.85 56.575 439.6 54.9 440.85 52.85L438.9 51.7Z" fill="#061178"/>
<path d="M557.2 54.2V66.175H559.975V56.85H565.35V66.075H568.25V54.2H563.8C564 53.625 564.2 53.025 564.4 52.4H569.225V49.775H556.4V52.4H561.225C561.15 53 561.05 53.625 560.925 54.2H557.2ZM555.15 64.3C555.7 62.825 556.375 60.475 556.925 58.4L555.1 57.975L554.7 58.075H553.525L554.175 57.225C553.7 56.875 553.075 56.45 552.35 56C553.75 54.65 555.25 52.7 556.25 51L554.475 49.725L553.975 49.875H546.3V52.45H552.125C551.55 53.275 550.875 54.125 550.275 54.75L548.275 53.575L546.75 55.525C547.95 56.25 549.45 57.225 550.75 58.075H545.7V60.7H549.425V68.925C549.425 69.2 549.325 69.275 548.975 69.3C548.625 69.3 547.475 69.3 546.4 69.275C546.8 70.075 547.2 71.275 547.3 72.125C548.975 72.125 550.225 72.05 551.125 71.6C552.075 71.15 552.3 70.375 552.3 68.975V60.7H553.8C553.525 61.85 553.225 63 552.95 63.825L555.15 64.3ZM564.025 58.075H561.25V62.625C561.25 64.95 560.525 68.125 555.025 69.95C555.7 70.475 556.5 71.425 556.875 72.025C563.025 69.675 564.025 65.925 564.025 62.675V58.075ZM563.05 68.275C564.45 69.5 566.425 71.2 567.3 72.275L569.375 70.275C568.375 69.25 566.375 67.625 564.975 66.525L563.05 68.275ZM576.1 48.925C574.85 52.5 572.675 56.025 570.4 58.275C570.925 59 571.75 60.625 572.025 61.375C572.525 60.825 573.05 60.2 573.575 59.55V72.15H576.425V55.15C577.375 53.4 578.225 51.6 578.875 49.825L576.1 48.925ZM589.725 68.325H582.325V63.925H589.725V68.325ZM594.175 56.8V53.925H587.575V48.825H584.45V53.925H578.25V56.8H584.45V61.125H579.375V72.2H582.325V71.125H589.725V72.1H592.8V61.125H587.575V56.8H594.175Z" fill="#061178"/>
<path d="M497.777 59.5667L488.852 51.8699C488.519 51.5839 488.031 51.8417 488.031 52.3035V67.6972C488.031 68.1589 488.519 68.4167 488.852 68.1308L497.777 60.4339C498.032 60.2136 498.032 59.7871 497.777 59.5667Z" fill="#10239E"/>
<rect x="315" y="482" width="362" height="80" rx="40" fill="#F5F8FF"/>
<path d="M494.45 503.975H485.6L485.675 503.95C485.35 503 484.525 501.575 483.85 500.5L481 501.5C481.45 502.25 481.925 503.15 482.275 503.975H472.525V506.875H494.45V503.975ZM485.875 508.625C488.1 510.25 490.875 512.6 492.1 514.15L494.65 512.225C493.275 510.625 490.375 508.425 488.225 506.95L485.875 508.625ZM478.45 507.1C477 508.9 474.575 510.725 472.35 511.85C473.025 512.35 474.15 513.425 474.7 514.025C476.925 512.675 479.625 510.4 481.325 508.2L478.45 507.1ZM486.775 511.4C486.05 513.35 484.95 514.975 483.525 516.325C482.15 514.975 481.075 513.35 480.325 511.525L477.65 512.35C478.6 514.575 479.825 516.5 481.3 518.1C478.85 519.725 475.775 520.8 472.15 521.5C472.725 522.15 473.6 523.475 473.95 524.15C477.625 523.25 480.85 521.975 483.5 520.1C486.025 522 489.15 523.275 493.1 524.025C493.475 523.225 494.25 522 494.9 521.35C491.225 520.8 488.225 519.725 485.825 518.15C487.45 516.55 488.775 514.6 489.775 512.275L486.775 511.4ZM502.675 500.95C501.35 504.625 499.075 508.225 496.7 510.5C497.225 511.225 498.125 512.875 498.45 513.6C499.025 513 499.625 512.325 500.2 511.6V524.125H503.25V506.95C504.175 505.275 504.95 503.575 505.625 501.9L502.675 500.95ZM520.15 506.2H517.4V501.1H514.3V506.2H504.775V509.2H514.3V520.55C514.3 521.1 514.075 521.3 513.45 521.3C512.875 521.325 510.675 521.325 508.75 521.25C509.2 522.025 509.725 523.35 509.9 524.2C512.65 524.225 514.525 524.175 515.75 523.7C516.95 523.25 517.4 522.475 517.4 520.55V509.2H520.15V506.2ZM511.975 516.775C511.225 515.275 509.675 512.825 508.55 511L505.9 512.225C507.025 514.125 508.5 516.7 509.15 518.225L511.975 516.775Z" fill="#061178"/>
<path d="M465.189 538.517L461.222 537.94L459.449 534.345C459.4 534.247 459.32 534.167 459.222 534.119C458.975 533.997 458.675 534.098 458.552 534.345L456.778 537.94L452.811 538.517C452.702 538.533 452.602 538.584 452.525 538.662C452.433 538.757 452.382 538.885 452.383 539.018C452.385 539.151 452.439 539.277 452.535 539.37L455.405 542.169L454.727 546.12C454.711 546.212 454.721 546.307 454.756 546.393C454.791 546.479 454.85 546.554 454.925 546.609C455.001 546.664 455.09 546.697 455.183 546.703C455.276 546.71 455.369 546.69 455.452 546.647L459 544.781L462.549 546.647C462.645 546.698 462.758 546.715 462.866 546.697C463.138 546.65 463.32 546.392 463.274 546.12L462.595 542.169L465.466 539.37C465.544 539.294 465.595 539.194 465.611 539.084C465.653 538.811 465.463 538.558 465.189 538.517Z" fill="#10239E"/>
<path d="M502.523 538.517L498.556 537.94L496.782 534.345C496.734 534.247 496.654 534.167 496.556 534.119C496.309 533.997 496.009 534.098 495.885 534.345L494.112 537.94L490.145 538.517C490.035 538.533 489.935 538.584 489.859 538.662C489.766 538.757 489.715 538.885 489.717 539.018C489.719 539.151 489.773 539.277 489.868 539.37L492.739 542.169L492.06 546.12C492.045 546.212 492.055 546.307 492.09 546.393C492.125 546.479 492.184 546.554 492.259 546.609C492.334 546.664 492.424 546.697 492.517 546.703C492.61 546.71 492.703 546.69 492.785 546.647L496.334 544.781L499.882 546.647C499.979 546.698 500.092 546.715 500.2 546.697C500.471 546.65 500.654 546.392 500.607 546.12L499.929 542.169L502.8 539.37C502.878 539.294 502.929 539.194 502.945 539.084C502.987 538.811 502.796 538.558 502.523 538.517Z" fill="#10239E"/>
<path d="M539.855 538.517L535.888 537.94L534.115 534.345C534.066 534.247 533.987 534.167 533.888 534.119C533.641 533.997 533.341 534.098 533.218 534.345L531.445 537.94L527.477 538.517C527.368 538.533 527.268 538.584 527.191 538.662C527.099 538.757 527.048 538.885 527.05 539.018C527.051 539.151 527.106 539.277 527.201 539.37L530.071 542.169L529.393 546.12C529.377 546.212 529.387 546.307 529.422 546.393C529.457 546.479 529.516 546.554 529.592 546.609C529.667 546.664 529.756 546.697 529.849 546.703C529.942 546.71 530.035 546.69 530.118 546.647L533.666 544.781L537.215 546.647C537.312 546.698 537.424 546.715 537.532 546.697C537.804 546.65 537.987 546.392 537.94 546.12L537.262 542.169L540.132 539.37C540.21 539.294 540.262 539.194 540.277 539.084C540.32 538.811 540.129 538.558 539.855 538.517Z" fill="#10239E"/>
<path d="M483.855 538.517L479.888 537.94L478.115 534.345C478.066 534.247 477.987 534.167 477.888 534.119C477.641 533.997 477.341 534.098 477.218 534.345L475.445 537.94L471.477 538.517C471.368 538.533 471.268 538.584 471.191 538.662C471.099 538.757 471.048 538.885 471.05 539.018C471.051 539.151 471.106 539.277 471.201 539.37L474.071 542.169L473.393 546.12C473.377 546.212 473.387 546.307 473.422 546.393C473.457 546.479 473.516 546.554 473.592 546.609C473.667 546.664 473.756 546.697 473.849 546.703C473.942 546.71 474.035 546.69 474.118 546.647L477.666 544.781L481.215 546.647C481.312 546.698 481.424 546.715 481.532 546.697C481.804 546.65 481.987 546.392 481.94 546.12L481.262 542.169L484.132 539.37C484.21 539.294 484.262 539.194 484.277 539.084C484.32 538.811 484.129 538.558 483.855 538.517Z" fill="#10239E"/>
<path d="M521.189 538.517L517.222 537.94L515.449 534.345C515.4 534.247 515.32 534.167 515.222 534.119C514.975 533.997 514.675 534.098 514.552 534.345L512.778 537.94L508.811 538.517C508.702 538.533 508.602 538.584 508.525 538.662C508.433 538.757 508.382 538.885 508.383 539.018C508.385 539.151 508.439 539.277 508.535 539.37L511.405 542.169L510.727 546.12C510.711 546.212 510.721 546.307 510.756 546.393C510.791 546.479 510.85 546.554 510.925 546.609C511.001 546.664 511.09 546.697 511.183 546.703C511.276 546.71 511.369 546.69 511.452 546.647L515 544.781L518.549 546.647C518.645 546.698 518.758 546.715 518.866 546.697C519.138 546.65 519.32 546.392 519.274 546.12L518.595 542.169L521.466 539.37C521.544 539.294 521.595 539.194 521.611 539.084C521.653 538.811 521.463 538.558 521.189 538.517Z" fill="#10239E"/>
<path d="M505.254 121.632H502.881C502.746 121.632 502.617 121.69 502.526 121.793L496.113 129.185V112.688C496.113 112.559 496.008 112.453 495.879 112.453H494.121C493.992 112.453 493.886 112.559 493.886 112.688V129.185L487.473 121.793C487.385 121.69 487.257 121.632 487.119 121.632H484.746C484.547 121.632 484.438 121.869 484.57 122.019L494.294 133.225C494.382 133.326 494.49 133.407 494.612 133.463C494.734 133.519 494.867 133.548 495.001 133.548C495.135 133.548 495.268 133.519 495.39 133.463C495.512 133.407 495.621 133.326 495.709 133.225L505.429 122.019C505.561 121.866 505.453 121.632 505.254 121.632Z" fill="#10239E"/>
<path d="M505.254 455.632H502.881C502.746 455.632 502.617 455.69 502.526 455.793L496.113 463.185V446.688C496.113 446.559 496.008 446.453 495.879 446.453H494.121C493.992 446.453 493.886 446.559 493.886 446.688V463.185L487.473 455.793C487.385 455.69 487.257 455.632 487.119 455.632H484.746C484.547 455.632 484.438 455.869 484.57 456.019L494.294 467.225C494.382 467.326 494.49 467.407 494.612 467.463C494.734 467.519 494.867 467.548 495.001 467.548C495.135 467.548 495.268 467.519 495.39 467.463C495.512 467.407 495.621 467.326 495.709 467.225L505.429 456.019C505.561 455.866 505.453 455.632 505.254 455.632Z" fill="#10239E"/>
<defs>
<filter id="filter0_d" x="0" y="0" width="990" height="608" filterUnits="userSpaceOnUse" color-interpolation-filters="sRGB">
<feFlood flood-opacity="0" result="BackgroundImageFix"/>
<feColorMatrix in="SourceAlpha" type="matrix" values="0 0 0 0 0 0 0 0 0 0 0 0 0 0 0 0 0 0 127 0"/>
<feOffset dy="9"/>
<feGaussianBlur stdDeviation="12.5"/>
<feColorMatrix type="matrix" values="0 0 0 0 0.0627451 0 0 0 0 0.137255 0 0 0 0 0.619608 0 0 0 0.15 0"/>
<feBlend mode="normal" in2="BackgroundImageFix" result="effect1_dropShadow"/>
<feBlend mode="normal" in="SourceGraphic" in2="effect1_dropShadow" result="shape"/>
</filter>
<filter id="filter1_d" x="86" y="219" width="130" height="130" filterUnits="userSpaceOnUse" color-interpolation-filters="sRGB">
<feFlood flood-opacity="0" result="BackgroundImageFix"/>
<feColorMatrix in="SourceAlpha" type="matrix" values="0 0 0 0 0 0 0 0 0 0 0 0 0 0 0 0 0 0 127 0"/>
<feOffset/>
<feGaussianBlur stdDeviation="7.5"/>
<feColorMatrix type="matrix" values="0 0 0 0 0.0627451 0 0 0 0 0.137255 0 0 0 0 0.619608 0 0 0 0.1 0"/>
<feBlend mode="normal" in2="BackgroundImageFix" result="effect1_dropShadow"/>
<feBlend mode="normal" in="SourceGraphic" in2="effect1_dropShadow" result="shape"/>
</filter>
<filter id="filter2_d" x="258" y="219" width="130" height="130" filterUnits="userSpaceOnUse" color-interpolation-filters="sRGB">
<feFlood flood-opacity="0" result="BackgroundImageFix"/>
<feColorMatrix in="SourceAlpha" type="matrix" values="0 0 0 0 0 0 0 0 0 0 0 0 0 0 0 0 0 0 127 0"/>
<feOffset/>
<feGaussianBlur stdDeviation="7.5"/>
<feColorMatrix type="matrix" values="0 0 0 0 0.0627451 0 0 0 0 0.137255 0 0 0 0 0.619608 0 0 0 0.1 0"/>
<feBlend mode="normal" in2="BackgroundImageFix" result="effect1_dropShadow"/>
<feBlend mode="normal" in="SourceGraphic" in2="effect1_dropShadow" result="shape"/>
</filter>
<filter id="filter3_d" x="431" y="219" width="130" height="130" filterUnits="userSpaceOnUse" color-interpolation-filters="sRGB">
<feFlood flood-opacity="0" result="BackgroundImageFix"/>
<feColorMatrix in="SourceAlpha" type="matrix" values="0 0 0 0 0 0 0 0 0 0 0 0 0 0 0 0 0 0 127 0"/>
<feOffset/>
<feGaussianBlur stdDeviation="7.5"/>
<feColorMatrix type="matrix" values="0 0 0 0 0.0627451 0 0 0 0 0.137255 0 0 0 0 0.619608 0 0 0 0.1 0"/>
<feBlend mode="normal" in2="BackgroundImageFix" result="effect1_dropShadow"/>
<feBlend mode="normal" in="SourceGraphic" in2="effect1_dropShadow" result="shape"/>
</filter>
<filter id="filter4_d" x="603" y="219" width="130" height="130" filterUnits="userSpaceOnUse" color-interpolation-filters="sRGB">
<feFlood flood-opacity="0" result="BackgroundImageFix"/>
<feColorMatrix in="SourceAlpha" type="matrix" values="0 0 0 0 0 0 0 0 0 0 0 0 0 0 0 0 0 0 127 0"/>
<feOffset/>
<feGaussianBlur stdDeviation="7.5"/>
<feColorMatrix type="matrix" values="0 0 0 0 0.0627451 0 0 0 0 0.137255 0 0 0 0 0.619608 0 0 0 0.1 0"/>
<feBlend mode="normal" in2="BackgroundImageFix" result="effect1_dropShadow"/>
<feBlend mode="normal" in="SourceGraphic" in2="effect1_dropShadow" result="shape"/>
</filter>
<filter id="filter5_d" x="775" y="219" width="130" height="130" filterUnits="userSpaceOnUse" color-interpolation-filters="sRGB">
<feFlood flood-opacity="0" result="BackgroundImageFix"/>
<feColorMatrix in="SourceAlpha" type="matrix" values="0 0 0 0 0 0 0 0 0 0 0 0 0 0 0 0 0 0 127 0"/>
<feOffset/>
<feGaussianBlur stdDeviation="7.5"/>
<feColorMatrix type="matrix" values="0 0 0 0 0.0627451 0 0 0 0 0.137255 0 0 0 0 0.619608 0 0 0 0.1 0"/>
<feBlend mode="normal" in2="BackgroundImageFix" result="effect1_dropShadow"/>
<feBlend mode="normal" in="SourceGraphic" in2="effect1_dropShadow" result="shape"/>
</filter>
</defs>
</svg>
