<svg width="184" height="184" viewBox="0 0 184 184" fill="none" xmlns="http://www.w3.org/2000/svg">
<path d="M0 0H184V184H0V0Z" fill="white"/>
<path d="M60.5024 125.455C44.5316 125.455 32.0513 113.869 32.0513 99.4528C32.0513 88.4442 38.45 78.9028 48.7621 74.6041C48.6572 51.2236 65.632 34.3428 87.2614 34.3428C101.593 34.3428 111.799 41.9439 118.146 51.1185C131.154 47.3442 145.328 57.1473 145.592 71.825C157.543 73.7128 165 84.302 165 97.0932C165 112.506 151.41 125.455 133.323 125.455H60.5024Z" fill="#2F54EB"/>
<g filter="url(#filter0_d)">
<path d="M19.5 104.955C19.5 100.873 22.7145 97.5632 26.6797 97.5632H73.1905C77.1557 97.5632 80.3702 100.873 80.3702 104.955V136.657C80.3702 140.739 77.1557 144.049 73.1905 144.049H26.6797C22.7145 144.049 19.5 140.739 19.5 136.657V104.955Z" fill="white"/>
</g>
<g filter="url(#filter1_d)">
<path d="M110.147 123.762C110.147 121.102 108.085 118.947 105.541 118.947H75.7048C73.1613 118.947 71.0991 121.102 71.0991 123.762V144.413C71.0991 147.073 73.1613 149.229 75.7048 149.229H105.541C108.085 149.229 110.147 147.073 110.147 144.413V123.762Z" fill="white"/>
</g>
<path d="M45.726 120.814C44.1452 119.052 42.8494 117.118 41.8574 115.077H43.6416C44.5145 116.73 45.5981 118.3 46.8925 119.74L47.2647 120.154L47.6365 119.739C49.7502 117.383 51.3071 114.687 52.2925 111.843L52.5225 111.18H51.8201H36.27V109.313H45.828H46.328V108.813V106.431H48.2006V108.813V109.313H48.7006H58.2586V111.195H54.5485H54.1793L54.0706 111.548C53.0461 114.875 51.3036 118.019 48.857 120.76L48.8261 120.79L48.4609 121.145L48.8229 121.503L52.2447 124.893L51.5362 126.8L47.6184 122.87L47.2643 122.515L46.9102 122.87L40.0808 129.72L38.7486 128.385L45.7055 121.504L46.044 121.169L45.726 120.814ZM56.0578 129.929H55.7104L55.5892 130.254L54.1022 134.252H52.2959L58.3882 117.959H60.5671L66.6595 134.252H64.8522L63.3518 130.253L63.2301 129.929H62.8837H56.0578ZM56.6819 127.372L56.4302 128.046H57.1504H61.805H62.5252L62.2734 127.372L59.9462 121.133L59.4777 119.877L59.0092 121.133L56.6819 127.372Z" fill="#FA541C" stroke="#FA541C" stroke-linecap="round"/>
<path d="M84.2121 140.33C87.2225 140.33 89.6699 137.813 89.8913 134.728C90.2885 134.571 90.7223 134.512 91.0917 134.512C91.4521 134.512 91.886 134.571 92.2921 134.728C92.5045 137.841 94.952 140.33 97.9713 140.33C100.872 140.33 103.253 138.037 103.633 135.09H104.833C105.314 135.09 105.498 134.786 105.498 134.365V133.787C105.498 133.356 105.314 133.081 104.833 133.081H103.568C103.042 130.33 100.732 128.244 97.9713 128.244C95.3681 128.244 93.1787 130.095 92.4956 132.612C92.0429 132.425 91.5255 132.357 91.0917 132.357C90.6578 132.357 90.1316 132.425 89.6788 132.612C88.9958 130.095 86.8075 128.244 84.2121 128.244C81.4887 128.244 79.2171 130.261 78.6352 132.945H77.3414C76.8619 132.945 76.6772 133.229 76.6772 133.65V134.365C76.6772 134.786 76.8619 135.09 77.3414 135.09H78.5429C78.9211 138.028 81.2941 140.33 84.2121 140.33ZM84.2121 138.087C82.2363 138.087 80.6299 136.392 80.6299 134.286C80.6299 132.181 82.2363 130.487 84.2121 130.487C86.179 130.487 87.7954 132.181 87.7954 134.286C87.7954 136.392 86.2068 138.087 84.2121 138.087ZM97.9713 138.087C95.9677 138.087 94.3791 136.392 94.3791 134.286C94.3791 132.181 95.9677 130.487 97.9713 130.487C99.9482 130.487 101.546 132.181 101.546 134.286C101.546 136.392 99.9482 138.087 97.9713 138.087Z" fill="#FFC53D"/>
<g filter="url(#filter2_d)">
<path d="M107.358 54.1428C107.358 51.4231 109.617 49.2183 112.402 49.2183H145.08C147.866 49.2183 150.125 51.4231 150.125 54.1428V75.2627C150.125 77.9825 147.866 80.1873 145.08 80.1873H112.402C109.617 80.1873 107.358 77.9825 107.358 75.2627V54.1428Z" fill="white"/>
</g>
<path d="M140.848 59.5974L141.474 59.0326C141.82 58.7145 141.865 58.2665 141.519 57.9615L141.285 57.7537C140.984 57.4875 140.449 57.5524 140.103 57.8446L139.448 58.3899L140.848 59.5974ZM132.534 65.8949L134.229 65.3041L140.314 60.0519L138.913 58.8509L132.828 64.103L132.127 65.5378C132.022 65.765 132.301 65.9728 132.534 65.8949ZM119.829 70.6017H137.121C138.551 70.6017 139.365 69.9135 139.365 68.693V62.6293L137.302 64.4081V68.2775C137.302 68.719 137 68.9852 136.473 68.9852H120.476C119.95 68.9852 119.656 68.719 119.656 68.2775V62.9604C119.656 62.4995 119.95 62.2592 120.476 62.2592H132.881L134.763 60.6362H119.829C118.398 60.6362 117.584 61.3244 117.584 62.5514V68.693C117.584 69.9135 118.398 70.6017 119.829 70.6017ZM122.571 66.6674C123.241 66.6674 123.79 66.1805 123.79 65.6222C123.79 65.0444 123.241 64.5704 122.571 64.5704C121.878 64.5704 121.35 65.025 121.35 65.6222C121.35 66.1805 121.915 66.6674 122.571 66.6674ZM125.899 66.6674C126.577 66.6674 127.119 66.1805 127.119 65.6222C127.119 65.0444 126.577 64.5704 125.899 64.5704C125.206 64.5704 124.679 65.025 124.679 65.6222C124.679 66.1805 125.244 66.6674 125.899 66.6674ZM129.228 66.6674C129.898 66.6674 130.44 66.1805 130.44 65.6222C130.44 65.0444 129.898 64.5704 129.228 64.5704C128.535 64.5704 128.008 65.025 128.008 65.6222C128.008 66.1805 128.573 66.6674 129.228 66.6674Z" fill="#CF1322"/>
<defs>
<filter id="filter0_d" x="9.5" y="87.5632" width="84.8702" height="70.4856" filterUnits="userSpaceOnUse" color-interpolation-filters="sRGB">
<feFlood flood-opacity="0" result="BackgroundImageFix"/>
<feColorMatrix in="SourceAlpha" type="matrix" values="0 0 0 0 0 0 0 0 0 0 0 0 0 0 0 0 0 0 127 0"/>
<feOffset dx="2" dy="2"/>
<feGaussianBlur stdDeviation="6"/>
<feColorMatrix type="matrix" values="0 0 0 0 0 0 0 0 0 0 0 0 0 0 0 0 0 0 0.12 0"/>
<feBlend mode="normal" in2="BackgroundImageFix" result="effect1_dropShadow"/>
<feBlend mode="normal" in="SourceGraphic" in2="effect1_dropShadow" result="shape"/>
</filter>
<filter id="filter1_d" x="61.0991" y="108.947" width="63.0479" height="54.2821" filterUnits="userSpaceOnUse" color-interpolation-filters="sRGB">
<feFlood flood-opacity="0" result="BackgroundImageFix"/>
<feColorMatrix in="SourceAlpha" type="matrix" values="0 0 0 0 0 0 0 0 0 0 0 0 0 0 0 0 0 0 127 0"/>
<feOffset dx="2" dy="2"/>
<feGaussianBlur stdDeviation="6"/>
<feColorMatrix type="matrix" values="0 0 0 0 0 0 0 0 0 0 0 0 0 0 0 0 0 0 0.12 0"/>
<feBlend mode="normal" in2="BackgroundImageFix" result="effect1_dropShadow"/>
<feBlend mode="normal" in="SourceGraphic" in2="effect1_dropShadow" result="shape"/>
</filter>
<filter id="filter2_d" x="97.3579" y="39.2183" width="66.7668" height="54.969" filterUnits="userSpaceOnUse" color-interpolation-filters="sRGB">
<feFlood flood-opacity="0" result="BackgroundImageFix"/>
<feColorMatrix in="SourceAlpha" type="matrix" values="0 0 0 0 0 0 0 0 0 0 0 0 0 0 0 0 0 0 127 0"/>
<feOffset dx="2" dy="2"/>
<feGaussianBlur stdDeviation="6"/>
<feColorMatrix type="matrix" values="0 0 0 0 0 0 0 0 0 0 0 0 0 0 0 0 0 0 0.12 0"/>
<feBlend mode="normal" in2="BackgroundImageFix" result="effect1_dropShadow"/>
<feBlend mode="normal" in="SourceGraphic" in2="effect1_dropShadow" result="shape"/>
</filter>
</defs>
</svg>
