<svg width="184" height="184" viewBox="0 0 184 184" fill="none" xmlns="http://www.w3.org/2000/svg">
<path d="M0 0H184V184H0V0Z" fill="white"/>
<path fill-rule="evenodd" clip-rule="evenodd" d="M92.5 147.5C116.801 147.5 136.5 127.801 136.5 103.5C136.5 79.1995 116.801 59.5 92.5 59.5C68.1995 59.5 48.5 79.1995 48.5 103.5C48.5 127.801 68.1995 147.5 92.5 147.5ZM92.5 151C118.734 151 140 129.734 140 103.5C140 77.2665 118.734 56 92.5 56C66.2665 56 45 77.2665 45 103.5C45 129.734 66.2665 151 92.5 151Z" fill="#ADC6FF"/>
<path d="M58.9793 154.936C75.5127 150.506 85.3244 133.511 80.8943 116.978C76.4641 100.445 59.4698 90.6329 42.9364 95.063C26.403 99.4932 16.5913 116.487 21.0214 133.021C25.4516 149.554 42.4459 159.366 58.9793 154.936Z" fill="#FF7A45"/>
<path d="M59.175 154.929C65.8028 153.175 71.6575 149.263 75.8139 143.811C74.366 141.167 72.4193 138.828 70.0816 136.925C65.4806 133.003 66.3555 119.343 66.3555 119.343L49.8976 114.274L32.8514 121.447C32.8514 121.447 34.4052 130.287 30.385 134.76C29.6307 135.575 26.757 137.709 24.1548 140.56C27.6162 146.457 32.9161 151.055 39.2417 153.651C45.5673 156.246 52.5696 156.695 59.175 154.929Z" fill="#A8071A"/>
<path d="M46.2284 153.403L45.9536 138.31C45.9536 138.31 48.8631 138.557 51.4897 138.667C54.1163 138.777 55.9994 137.645 57.0096 138.825L58.8038 137L60.8001 153.513L60.9536 154L46.4062 153.931C46.2941 153.771 46.2329 153.589 46.2284 153.403Z" fill="#FFBB96"/>
<path d="M59.9536 145.676C59.9536 145.676 51.2487 148.408 45.9536 138H59.1667L59.9536 145.676Z" fill="#FF9C6E"/>
<path d="M32.2708 119.773C33.176 129.85 44.339 135.899 53.9935 134.458C59.1451 133.704 69.3954 123.688 67.8945 113.686C66.3935 103.685 58.3531 98.2314 48.691 99.574C39.7229 100.818 31.2073 107.924 32.2708 119.773Z" fill="#A8071A"/>
<path d="M63.0652 126.51C63.2388 127.481 63.6329 128.399 64.2165 129.19C64.7417 129.909 65.4583 130.462 66.2826 130.785C67.0212 131.072 67.8387 131.072 68.5774 130.785C69.3263 130.475 69.9452 129.911 70.328 129.19C70.7653 128.367 70.9802 127.443 70.951 126.51C70.9243 125.525 70.6762 124.56 70.2255 123.686C69.8091 122.848 69.184 122.133 68.4118 121.613C67.7348 121.152 66.9218 120.941 66.1091 121.014C65.5889 121.073 65.0922 121.265 64.666 121.573C64.2156 121.9 63.8437 122.325 63.5778 122.817C63.2841 123.356 63.0916 123.946 63.01 124.556C62.9214 125.211 62.9373 125.876 63.0573 126.526L63.0652 126.51Z" fill="#FF9C6E"/>
<path d="M39.2722 119.462C40.0759 124.564 41.4267 129.566 43.3011 134.379C44.0157 136.076 45.0622 137.613 46.3792 138.9C47.6701 140.16 49.2097 141.137 50.8996 141.769L51.5361 142.059C53.3703 142.877 55.3954 143.17 57.3861 142.905C59.3647 142.637 61.2274 141.815 62.7606 140.536C64.2775 139.41 65.5199 137.955 66.3946 136.281C67.3063 134.558 67.8341 132.658 67.9417 130.712C68.0189 125.593 67.72 120.475 67.0473 115.4C67.0473 115.4 65.887 99.7657 50.9076 102.272C35.9282 104.778 39.2722 119.462 39.2722 119.462Z" fill="#FFBB96"/>
<path d="M59.9536 105.72C59.9536 105.72 56.7267 118.266 36.6347 125C36.6347 125 31.9216 104.313 47.2921 100.55C47.2581 100.476 54.748 97.6116 59.9536 105.72Z" fill="#A8071A"/>
<path d="M54.5798 107.036C54.5798 107.036 60.3946 116.309 69.9536 118C69.9536 118 68.9461 101.291 52.9536 100.126C52.9615 100.182 55.2541 98.3453 54.5798 107.036Z" fill="#A8071A"/>
<path d="M62.1221 124.809C62.2735 125.383 62.549 125.923 62.9316 126.393C63.0496 126.566 63.2084 126.71 63.3956 126.815C63.5829 126.921 63.7934 126.984 64.0109 127C64.3578 127 64.6373 126.737 64.8011 126.312C64.969 125.783 64.9988 125.224 64.8878 124.682C64.8295 124.332 64.7326 123.989 64.5987 123.659C64.4748 123.339 64.3097 123.035 64.1072 122.753C63.947 122.525 63.7447 122.326 63.5098 122.165C63.3257 122.047 63.1056 121.99 62.8834 122.002C62.7851 122.008 62.6893 122.033 62.6015 122.075C62.5137 122.117 62.4359 122.175 62.3726 122.246C62.2116 122.427 62.0992 122.641 62.045 122.871C61.9706 123.167 61.9414 123.472 61.9583 123.776C61.9729 124.125 62.0279 124.471 62.1221 124.809Z" fill="#610B00"/>
<path d="M48.7077 125.681C48.7203 126.275 48.8619 126.864 49.1236 127.411C49.198 127.606 49.3186 127.784 49.4759 127.93C49.6333 128.076 49.8232 128.187 50.0308 128.253C50.3681 128.335 50.7013 128.145 50.9602 127.769C51.2474 127.295 51.4072 126.758 51.4262 126.205C51.4514 125.852 51.4375 125.495 51.3848 125.143C51.3391 124.803 51.2499 124.469 51.119 124.147C51.0167 123.888 50.8667 123.647 50.676 123.435C50.5246 123.278 50.324 123.17 50.1052 123.13C50.0082 123.113 49.9091 123.115 49.814 123.135C49.7188 123.155 49.6295 123.194 49.5514 123.248C49.3526 123.386 49.1932 123.568 49.0866 123.779C48.9448 124.049 48.845 124.339 48.7902 124.639C48.7228 124.981 48.6952 125.33 48.7077 125.681Z" fill="#610B00"/>
<path d="M57.3766 127.04C57.4557 127.008 57.5395 126.995 57.623 127.002C57.7065 127.008 57.7882 127.033 57.8632 127.076C57.9382 127.119 58.0051 127.179 58.06 127.253C58.1149 127.326 58.1567 127.411 58.1831 127.503L58.9368 130.172C58.9397 130.212 58.9397 130.253 58.9368 130.294C58.967 130.508 58.9564 130.727 58.9056 130.936C58.8548 131.144 58.7651 131.337 58.6428 131.501C58.5231 131.661 58.3747 131.788 58.208 131.874C58.0413 131.961 57.8605 132.003 57.6781 132H56.5249C56.3679 131.98 56.2228 131.894 56.1174 131.757C56.0119 131.621 55.9536 131.444 55.9536 131.261C55.9536 131.077 56.0119 130.901 56.1174 130.764C56.2228 130.628 56.3679 130.541 56.5249 130.521H57.6931L56.9394 127.976C56.913 127.881 56.9034 127.781 56.9112 127.682C56.9191 127.583 56.9442 127.487 56.9851 127.399C57.026 127.311 57.0818 127.235 57.1491 127.173C57.2164 127.111 57.2938 127.066 57.3766 127.04Z" fill="#610B00"/>
<path d="M54.297 123.109L45.6292 120.662C45.6292 120.662 47.1109 119.154 50.6423 120.184C54.1738 121.215 54.297 123.109 54.297 123.109Z" fill="#610B00"/>
<path d="M59.989 123L65.9536 119.58C65.348 119.184 64.6477 118.983 63.9372 119.001C63.2267 119.019 62.5363 119.256 61.9493 119.682C59.5262 121.119 59.989 123 59.989 123Z" fill="#610B00"/>
<path d="M53.0312 134.486C53.0689 134.378 53.1257 134.282 53.1976 134.204C53.2695 134.126 53.3548 134.068 53.4473 134.034C53.5398 134 53.6374 133.991 53.7331 134.008C53.8288 134.025 53.9203 134.067 54.0011 134.131C54.7339 134.695 55.5806 135.007 56.4497 135.033C57.2938 135.049 58.1232 134.766 58.8347 134.217C58.9209 134.158 59.0164 134.122 59.1149 134.11C59.2134 134.098 59.3129 134.111 59.407 134.148C59.5012 134.185 59.588 134.246 59.6619 134.325C59.7358 134.405 59.7952 134.502 59.8364 134.61C59.9423 134.827 59.9781 135.083 59.937 135.329C59.8959 135.575 59.7808 135.794 59.6138 135.944C58.6959 136.651 57.6261 137.018 56.5371 136.999C55.4088 136.973 54.3084 136.571 53.3571 135.838C53.1794 135.695 53.0493 135.481 52.9897 135.234C52.93 134.986 52.9447 134.721 53.0312 134.486Z" fill="#610B00"/>
<path d="M42.9536 117L41.5382 129L36.9536 118.894L42.9536 117Z" fill="#A8071A"/>
<path d="M35.0932 129.349C35.3275 130.298 35.7476 131.207 36.3361 132.039C37.1228 132.773 38.0752 133.365 39.137 133.781C39.4386 133.911 39.7696 133.985 40.1078 133.998C40.446 134.011 40.7835 133.962 41.0976 133.855C41.744 133.603 42.2537 133.153 42.5243 132.595C42.8659 131.892 43.0068 131.13 42.9357 130.372C42.8745 129.536 42.6249 128.718 42.2004 127.963C41.9132 127.261 41.4401 126.625 40.8175 126.102C40.237 125.75 39.6221 125.44 38.9794 125.176C38.0872 124.908 37.1063 124.948 36.2485 125.287C35.8666 125.559 35.5665 125.905 35.3733 126.295C35.1443 126.752 35.0082 127.238 34.9706 127.733C34.9267 128.274 34.9679 128.817 35.0932 129.349Z" fill="#FFBB96"/>
<path d="M99.9788 88.8944C116.512 84.4642 126.324 67.4699 121.894 50.9365C117.464 34.4031 100.469 24.5914 83.9359 29.0215C67.4025 33.4516 57.5908 50.446 62.0209 66.9794C66.4511 83.5128 83.4454 93.3245 99.9788 88.8944Z" fill="#F5222D"/>
<path d="M86.1334 87.4032L85.877 72.3103C85.877 72.3103 88.5925 72.5573 91.044 72.6671C93.4955 72.7768 95.253 71.6449 96.1959 72.8249L97.8705 71L99.7336 87.5129L99.877 88L86.2994 87.9314C86.1948 87.7713 86.1376 87.5893 86.1334 87.4032Z" fill="#FFCCC7"/>
<path d="M99.415 82.5943C99.415 82.5943 90.7101 85.6675 85.415 73.9585H98.6282L99.415 82.5943Z" fill="#FFA39E"/>
<path d="M71.0106 57.4991C71.9697 68.6333 83.7981 75.3171 94.0281 73.7253C99.4867 72.8919 110.348 61.8244 108.758 50.7736C107.167 39.7228 98.6476 33.6973 88.4096 35.1808C78.9069 36.5559 69.8837 44.4065 71.0106 57.4991Z" fill="#820014"/>
<path d="M103.027 62.4683C103.2 63.4396 103.594 64.357 104.178 65.1482C104.703 65.8674 105.42 66.4206 106.244 66.7434C106.983 67.0302 107.8 67.0302 108.539 66.7434C109.288 66.4334 109.907 65.8694 110.289 65.1482C110.727 64.3259 110.942 63.4015 110.912 62.4683C110.886 61.4836 110.638 60.518 110.187 59.6448C109.771 58.8061 109.145 58.0914 108.373 57.5711C107.696 57.1104 106.883 56.8992 106.071 56.9729C105.55 57.0317 105.054 57.2239 104.627 57.5312C104.177 57.8582 103.805 58.2834 103.539 58.7754C103.246 59.3147 103.053 59.9042 102.971 60.5142C102.883 61.1692 102.899 61.8344 103.019 62.4842L103.027 62.4683Z" fill="#FFA39E"/>
<path d="M79.2336 55.8462C80.0374 61.0733 81.3881 66.1965 83.2625 71.1272C83.9772 72.8657 85.0237 74.4403 86.3406 75.7586C87.6315 77.0496 89.1711 78.0505 90.861 78.6975L91.4976 78.9947C93.3317 79.8326 95.3568 80.1326 97.3475 79.8615C99.3261 79.5862 101.189 78.745 102.722 77.4344C104.239 76.2811 105.481 74.7909 106.356 73.0755C107.268 71.3107 107.796 69.3646 107.903 67.3709C107.98 62.1271 107.681 56.8845 107.009 51.6855C107.009 51.6855 105.848 35.6697 90.869 38.2372C75.8897 40.8047 79.2336 55.8462 79.2336 55.8462Z" fill="#FFCCC7"/>
<path d="M98.915 41.7203C98.915 41.7203 95.8225 54.2661 76.5677 61C76.5677 61 72.051 40.3126 86.7811 36.5505C86.7485 36.4764 93.9264 33.6116 98.915 41.7203Z" fill="#820014"/>
<path d="M94.5413 43.9943C94.5413 43.9943 100.356 53.2673 109.915 54.9585C109.915 54.9585 108.908 38.2492 92.915 37.084C92.923 37.1407 95.2156 35.3038 94.5413 43.9943Z" fill="#820014"/>
<path d="M90.0269 63.7783C90.18 64.3502 90.4587 64.8868 90.8456 65.3549C90.9649 65.5264 91.1255 65.6701 91.3149 65.7748C91.5042 65.8795 91.7171 65.9424 91.937 65.9585C92.2879 65.9585 92.5705 65.6972 92.7362 65.2738C92.919 64.7506 92.9625 64.1943 92.8629 63.6522C92.8039 63.3044 92.7059 62.9632 92.5705 62.6342C92.4451 62.3163 92.2782 62.0137 92.0735 61.7333C91.9115 61.5063 91.7068 61.308 91.4693 61.1477C91.2921 61.0249 91.0767 60.9585 90.8553 60.9585C90.7559 60.9649 90.659 60.9897 90.5702 61.0315C90.4815 61.0733 90.4028 61.1312 90.3388 61.2017C90.176 61.3813 90.0623 61.5946 90.0074 61.8234C89.9322 62.1183 89.9027 62.4216 89.9197 62.7243C89.9346 63.0711 89.9901 63.4155 90.0854 63.7513L90.0269 63.7783Z" fill="#5C0011"/>
<path d="M102.027 62.7783C102.18 63.3502 102.459 63.8868 102.846 64.3549C102.965 64.5264 103.126 64.6701 103.315 64.7748C103.504 64.8795 103.717 64.9424 103.937 64.9585C104.288 64.9585 104.57 64.6972 104.736 64.2738C104.919 63.7506 104.962 63.1943 104.863 62.6522C104.804 62.3044 104.706 61.9632 104.57 61.6342C104.445 61.3163 104.278 61.0137 104.073 60.7333C103.911 60.5063 103.707 60.308 103.469 60.1477C103.292 60.0249 103.077 59.9585 102.855 59.9585C102.756 59.9649 102.659 59.9897 102.57 60.0315C102.481 60.0733 102.403 60.1312 102.339 60.2017C102.176 60.3813 102.062 60.5946 102.007 60.8234C101.932 61.1183 101.903 61.4216 101.92 61.7243C101.935 62.0711 101.99 62.4155 102.085 62.7513L102.027 62.7783Z" fill="#5C0011"/>
<path d="M97.338 63.9983C97.4172 63.9668 97.5009 63.9538 97.5845 63.96C97.668 63.9663 97.7496 63.9917 97.8246 64.0348C97.8996 64.078 97.9665 64.1379 98.0214 64.2112C98.0763 64.2845 98.1181 64.3697 98.1445 64.4619L98.8982 67.13C98.9011 67.1708 98.9011 67.2117 98.8982 67.2525C98.9285 67.4664 98.9178 67.6854 98.867 67.8941C98.8162 68.1027 98.7265 68.2958 98.6043 68.4597C98.4845 68.6194 98.3361 68.7468 98.1694 68.8329C98.0028 68.919 97.8219 68.9618 97.6395 68.9583H96.4863C96.3293 68.9384 96.1842 68.852 96.0788 68.7156C95.9734 68.5792 95.915 68.4024 95.915 68.2191C95.915 68.0358 95.9734 67.859 96.0788 67.7226C96.1842 67.5862 96.3293 67.4998 96.4863 67.4799H97.6546L96.9009 64.9343C96.8744 64.8396 96.8648 64.7396 96.8726 64.6405C96.8805 64.5413 96.9056 64.4451 96.9465 64.3575C96.9874 64.27 97.0432 64.193 97.1105 64.1313C97.1778 64.0695 97.2552 64.0243 97.338 63.9983Z" fill="#5C0011"/>
<path d="M94.915 59.9585L84.915 59.4339C84.915 59.4339 86.1232 56.714 90.206 56.9763C94.2889 57.2386 94.915 59.9585 94.915 59.9585Z" fill="#5C0011"/>
<path d="M99.9563 59.9585L106.915 55.6833C106.209 55.1884 105.392 54.9372 104.563 54.9599C103.734 54.9827 102.928 55.2784 102.243 55.8115C99.4164 57.6071 99.9563 59.9585 99.9563 59.9585Z" fill="#5C0011"/>
<path d="M93.9926 71.4442C94.0303 71.3368 94.0871 71.2407 94.1591 71.1626C94.231 71.0846 94.3162 71.0266 94.4087 70.9928C94.5012 70.9589 94.5988 70.95 94.6945 70.9667C94.7902 70.9833 94.8817 71.0252 94.9625 71.0893C95.6954 71.6535 96.5421 71.9653 97.4111 71.9911C98.2552 72.0076 99.0846 71.724 99.7961 71.1756C99.8824 71.117 99.9778 71.0806 100.076 71.0688C100.175 71.057 100.274 71.07 100.368 71.1069C100.463 71.1439 100.549 71.2041 100.623 71.2836C100.697 71.3631 100.757 71.4603 100.798 71.5689C100.904 71.7852 100.94 72.041 100.898 72.2872C100.857 72.5335 100.742 72.7526 100.575 72.9025C99.6573 73.61 98.5876 73.9769 97.4985 73.9578C96.3702 73.9315 95.2698 73.5298 94.3186 72.7969C94.1409 72.654 94.0107 72.4398 93.9511 72.1924C93.8914 71.9449 93.9062 71.6799 93.9926 71.4442Z" fill="#5C0011"/>
<path d="M82.915 53.9585L81.4996 65.9585L76.915 55.8524L82.915 53.9585Z" fill="#820014"/>
<path d="M75.0546 65.7903C75.2889 66.8451 75.709 67.8555 76.2975 68.7799C77.0843 69.5947 78.0367 70.2528 79.0984 70.7154C79.4 70.8599 79.731 70.9421 80.0692 70.9563C80.4074 70.9705 80.7449 70.9164 81.059 70.7977C81.7054 70.5173 82.2151 70.0171 82.4857 69.3976C82.8273 68.6159 82.9682 67.7694 82.8971 66.9269C82.836 65.9987 82.5864 65.0901 82.1619 64.2503C81.8746 63.4709 81.4016 62.7638 80.7789 62.1831C80.1984 61.7914 79.5835 61.447 78.9408 61.1536C78.0486 60.8559 77.0677 60.9003 76.21 61.2771C75.828 61.5799 75.528 61.9639 75.3347 62.3972C75.1058 62.9046 74.9696 63.4448 74.932 63.9949C74.8881 64.5959 74.9293 65.1996 75.0546 65.7903Z" fill="#FFCCC7"/>
<path d="M133.916 122L117.639 106.324C117.132 106.63 116.527 106.746 115.938 106.649C115.35 106.553 114.818 106.251 114.445 105.801C114.073 105.351 113.886 104.784 113.919 104.21C113.953 103.635 114.205 103.093 114.628 102.686C115.05 102.279 115.613 102.036 116.209 102.004C116.807 101.971 117.394 102.152 117.862 102.511C118.329 102.869 118.643 103.381 118.742 103.948C118.843 104.516 118.723 105.099 118.405 105.586L133.916 120.499V122Z" fill="#D6E4FF"/>
<path d="M132.958 155.916C150.055 155.916 163.916 142.055 163.916 124.958C163.916 107.86 150.055 94 132.958 94C115.86 94 102 107.86 102 124.958C102 142.055 115.86 155.916 132.958 155.916Z" fill="#FFC53D"/>
<path d="M116.709 110C116.709 110 117.255 115.771 115.668 119.075C114.08 122.38 110.11 123.571 110.784 132.738C111.457 141.904 110.613 141.518 109.916 144C109.916 144 137.5 173 160.5 136L158.84 132.853C156.098 126.688 155.916 116.962 155.916 116.962L142.611 110.101L116.709 110Z" fill="#873800"/>
<path d="M127.052 104.248C126.669 104.072 128.51 101.881 128.923 101.797C135.454 100.471 149.212 99.3075 154.789 111.387C158.899 120.262 152.114 135.279 140.999 138.771C130.434 142.092 135.962 108.255 135.962 108.255L127.052 104.248Z" fill="#873800"/>
<path opacity="0.5" d="M126.914 126.041C126.936 127.031 126.664 127.995 126.132 128.813C125.6 129.631 124.833 130.266 123.927 130.636C123.02 131.007 122.017 131.097 121.042 130.895C120.068 130.693 119.167 130.208 118.453 129.501C117.739 128.795 117.245 127.899 117.032 126.927C116.82 125.954 116.899 124.949 117.259 124.039C117.62 123.129 118.245 122.354 119.057 121.813C119.869 121.272 120.83 120.989 121.82 121C122.476 121.006 123.128 121.14 123.739 121.397C124.35 121.653 124.908 122.026 125.382 122.495C125.856 122.963 126.234 123.517 126.498 124.126C126.76 124.734 126.902 125.385 126.914 126.041Z" fill="#FA8C16"/>
<path d="M127 141.516L127.06 150.918C127.072 154.223 129.479 155.996 133.306 156C136.581 155.998 139.632 154.555 140 151.806L139.061 137L127 141.516Z" fill="#FFBB96"/>
<path opacity="0.5" d="M126.971 145.996C134.151 146.217 138.916 137 138.916 137L126.916 138.991L126.971 145.996Z" fill="#FA8C16"/>
<path d="M129.596 141.965C122.941 141.574 117.771 136.086 117.919 130.737L118.35 118.101C118.435 114.877 119.797 111.811 122.145 109.552C124.493 107.294 127.644 106.02 130.931 106C137.935 105.949 144.869 111.473 144.916 118.345L144.461 128.501C144.445 130.36 144.041 132.197 143.273 133.898C142.506 135.599 141.391 137.128 139.997 138.389C138.605 139.651 136.962 140.62 135.174 141.234C133.385 141.85 131.486 142.098 129.596 141.965Z" fill="#FFBB96"/>
<path d="M140.256 116.824C136.905 120.628 140.893 127 140.893 127L150.916 117.67C150.916 117.67 142.237 114.564 140.256 116.824Z" fill="#873800"/>
<path d="M149.603 124.551C150.242 125.755 149.876 128.249 148.741 129.905C148.199 130.697 147.157 131.764 145.43 131.971C144.412 132.093 143.259 131.828 142.516 131.154C141.774 130.479 141.259 129.623 141.038 128.693C140.816 127.763 140.897 126.8 141.272 125.927C141.646 125.055 142.297 124.311 143.141 123.79C143.985 123.269 144.985 122.994 146.015 123C147.246 123.008 148.964 123.347 149.603 124.551Z" fill="#FFBB96"/>
<path fill-rule="evenodd" clip-rule="evenodd" d="M125.825 128.013C126.23 128.077 126.507 128.369 126.443 128.664L125.512 130.712L127.246 130.912C127.653 130.959 127.952 131.239 127.912 131.538C127.871 131.836 127.509 132.04 127.101 131.993L124.586 131.703C124.382 131.68 124.196 131.596 124.071 131.471C123.946 131.347 123.893 131.193 123.924 131.046L124.978 128.431C125.04 128.136 125.42 127.948 125.825 128.013Z" fill="#612500"/>
<path d="M132.772 121.176C132.772 121.176 129.775 121.566 129.921 122.583C129.921 122.583 130.019 123.26 132.606 122.889C135.194 122.518 135.794 122.235 135.911 121.554C136.026 120.874 134.123 120.914 132.772 121.176Z" fill="#612500"/>
<path d="M122.524 120.257C122.524 120.257 124.984 120.823 124.914 121.708C124.914 121.708 124.836 122.309 122.693 121.787C120.548 121.265 119.939 120.855 119.916 120.346C119.892 119.837 121.373 119.962 122.524 120.257Z" fill="#612500"/>
<path fill-rule="evenodd" clip-rule="evenodd" d="M130.932 127.25C130.71 127.578 130.341 127.619 130.104 127.34C129.866 127.059 129.851 126.561 130.073 126.228L130.504 126.736C130.073 126.228 130.073 126.228 130.073 126.228L130.074 126.227L130.075 126.225L130.078 126.22L130.086 126.209L130.11 126.175C130.129 126.149 130.154 126.115 130.187 126.075C130.251 125.994 130.341 125.889 130.457 125.775C130.688 125.549 131.027 125.282 131.458 125.127C132.366 124.802 133.521 125.032 134.748 126.633C134.975 126.93 134.971 127.429 134.738 127.748C134.506 128.067 134.134 128.086 133.907 127.789C132.916 126.496 132.16 126.489 131.71 126.65C131.463 126.739 131.262 126.895 131.122 127.032C131.052 127.1 131.001 127.161 130.968 127.202C130.952 127.222 130.941 127.237 130.936 127.245L130.932 127.25Z" fill="#612500"/>
<path fill-rule="evenodd" clip-rule="evenodd" d="M120.135 126.25C119.868 126.578 119.425 126.619 119.141 126.34C118.855 126.059 118.839 125.562 119.104 125.228L119.622 125.737C119.104 125.228 119.104 125.228 119.104 125.228L119.105 125.227L119.107 125.225L119.11 125.22L119.121 125.209L119.148 125.175C119.171 125.149 119.201 125.115 119.24 125.075C119.317 124.994 119.426 124.889 119.566 124.775C119.842 124.549 120.249 124.282 120.766 124.127C121.855 123.802 123.241 124.032 124.714 125.633C124.987 125.93 124.982 126.429 124.703 126.748C124.424 127.067 123.977 127.086 123.705 126.789C122.516 125.496 121.608 125.489 121.069 125.65C120.772 125.739 120.531 125.895 120.363 126.032C120.28 126.101 120.217 126.161 120.178 126.202C120.159 126.222 120.146 126.237 120.139 126.245L120.135 126.25Z" fill="#612500"/>
<path fill-rule="evenodd" clip-rule="evenodd" d="M132.683 134.201C132.97 134.48 132.995 134.946 132.739 135.242C132.087 135.995 131.247 136.537 130.311 136.806C129.375 137.076 128.379 137.064 127.434 136.771C127.062 136.656 126.84 136.247 126.939 135.856C127.039 135.466 127.42 135.243 127.792 135.358C128.488 135.573 129.222 135.582 129.911 135.383C130.6 135.184 131.22 134.786 131.699 134.232C131.955 133.935 132.396 133.921 132.683 134.201Z" fill="#612500"/>
<path d="M127.964 102.034C127.964 102.034 113.965 105.735 116.146 111.599C117.76 115.944 130.99 120.101 144.129 118.736C144.129 118.736 150.551 114.223 143.897 107.902C143.89 107.963 140.649 101.479 127.964 102.034Z" fill="#873800"/>
<path fill-rule="evenodd" clip-rule="evenodd" d="M92 87C107.464 87 120 74.464 120 59C120 43.536 107.464 31 92 31C76.536 31 64 43.536 64 59C64 74.464 76.536 87 92 87ZM92 90C109.121 90 123 76.1208 123 59C123 41.8792 109.121 28 92 28C74.8792 28 61 41.8792 61 59C61 76.1208 74.8792 90 92 90Z" fill="#597EF7"/>
<path fill-rule="evenodd" clip-rule="evenodd" d="M51 153C66.464 153 79 140.464 79 125C79 109.536 66.464 97 51 97C35.536 97 23 109.536 23 125C23 140.464 35.536 153 51 153ZM51 156C68.1208 156 82 142.121 82 125C82 107.879 68.1208 94 51 94C33.8792 94 20 107.879 20 125C20 142.121 33.8792 156 51 156Z" fill="#597EF7"/>
<path fill-rule="evenodd" clip-rule="evenodd" d="M133 153C148.464 153 161 140.464 161 125C161 109.536 148.464 97 133 97C117.536 97 105 109.536 105 125C105 140.464 117.536 153 133 153ZM133 156C150.121 156 164 142.121 164 125C164 107.879 150.121 94 133 94C115.879 94 102 107.879 102 125C102 142.121 115.879 156 133 156Z" fill="#597EF7"/>
</svg>
