<svg width="184" height="184" viewBox="0 0 184 184" fill="none" xmlns="http://www.w3.org/2000/svg">
<path d="M0 0H184V184H0V0Z" fill="white"/>
<path d="M82.3535 85.2188C98.8128 85.2188 112.156 78.7121 112.156 70.6857C112.156 62.6593 98.8128 56.1526 82.3535 56.1526C65.8942 56.1526 52.5513 62.6593 52.5513 70.6857C52.5513 78.7121 65.8942 85.2188 82.3535 85.2188Z" fill="#597EF7"/>
<path fill-rule="evenodd" clip-rule="evenodd" d="M81.8424 91.0101C110.459 91.0101 133.658 80.8313 133.658 68.2749C133.658 55.7186 110.459 45.5397 81.8424 45.5397C53.2258 45.5397 30.0273 55.7186 30.0273 68.2749C30.0273 80.8313 53.2258 91.0101 81.8424 91.0101ZM81.8425 63.6554C87.657 63.6554 92.3707 65.7236 92.3707 68.275C92.3707 70.8262 87.657 72.8945 81.8425 72.8945C76.028 72.8945 71.3143 70.8262 71.3143 68.275C71.3143 65.7236 76.028 63.6554 81.8425 63.6554Z" fill="#ADC6FF"/>
<mask id="mask0" mask-type="alpha" maskUnits="userSpaceOnUse" x="30" y="68" width="104" height="64">
<path fill-rule="evenodd" clip-rule="evenodd" d="M30.0273 68.2751V108.956C30.0273 121.512 53.2258 131.691 81.8424 131.691C110.459 131.691 133.658 121.512 133.658 108.956V68.2751C133.657 80.8314 110.459 91.0101 81.8424 91.0101C53.2259 91.0101 30.0277 80.8314 30.0273 68.2751Z" fill="#85A5FF"/>
</mask>
<g mask="url(#mask0)">
<path d="M133.658 108.956C133.658 121.512 110.459 131.691 81.8424 131.691C53.2258 131.691 30.0273 121.512 30.0273 108.956C30.0273 96.3996 53.2258 86.2207 81.8424 86.2207C110.459 86.2207 133.658 96.3996 133.658 108.956Z" fill="#597EF7"/>
<path d="M30.0273 68.2751H133.658V108.956H30.0273V68.2751Z" fill="#597EF7"/>
<path d="M41.4352 98.9722C41.4352 97.9828 40.6323 97.1808 39.6419 97.1808C38.6515 97.1808 37.8486 97.9828 37.8486 98.9722V124.105C37.8486 125.094 38.6515 125.896 39.6419 125.896C40.6323 125.896 41.4352 125.094 41.4352 124.105V98.9722Z" fill="#ADC6FF"/>
<path d="M66.4904 106.563C66.4904 105.574 65.6875 104.772 64.6971 104.772C63.7067 104.772 62.9038 105.574 62.9038 106.563V131.695C62.9038 132.685 63.7067 133.487 64.6971 133.487C65.6875 133.487 66.4904 132.685 66.4904 131.695V106.563Z" fill="#ADC6FF"/>
<path d="M78.7194 120.82C78.7194 119.831 77.9165 119.029 76.9261 119.029C75.9357 119.029 75.1328 119.831 75.1328 120.82V131.601C75.1328 132.591 75.9357 133.393 76.9261 133.393C77.9165 133.393 78.7194 132.591 78.7194 131.601V120.82Z" fill="#ADC6FF"/>
<path d="M53.174 117.215C53.174 116.226 52.3711 115.424 51.3807 115.424C50.3903 115.424 49.5874 116.226 49.5874 117.215V127.996C49.5874 128.985 50.3903 129.787 51.3807 129.787C52.3711 129.787 53.174 128.985 53.174 127.996V117.215Z" fill="#ADC6FF"/>
<path fill-rule="evenodd" clip-rule="evenodd" d="M81.8428 131.691C81.8428 131.691 81.8428 131.691 81.8429 131.691C110.46 131.691 133.658 121.512 133.658 108.956V68.2751C133.658 80.8314 110.459 91.0101 81.8429 91.0101C81.8428 91.0101 81.8428 91.0101 81.8428 91.0101V131.691Z" fill="#1D39C4"/>
</g>
<mask id="mask1" mask-type="alpha" maskUnits="userSpaceOnUse" x="81" y="89" width="73" height="50">
<path d="M81.8428 91.0102C113.691 91.0103 132.792 85.5078 153.148 98.1919C153.148 109.371 153.148 128.192 153.148 138.873C132.442 125.067 111.139 131.691 81.8428 131.691C81.8429 123.845 81.8427 99.9794 81.8428 91.0102Z" fill="#85A5FF"/>
</mask>
<g mask="url(#mask1)">
<path d="M81.8428 91.0102C113.691 91.0103 132.792 85.5078 153.148 98.1919C153.148 109.371 153.148 128.192 153.148 138.873C132.442 125.067 111.139 131.691 81.8428 131.691C81.8429 123.845 81.8427 99.9794 81.8428 91.0102Z" fill="#597EF7"/>
<path d="M91.6212 106.563C91.6212 105.574 90.8184 104.771 89.828 104.771C88.8375 104.771 88.0347 105.574 88.0347 106.563V131.695C88.0347 132.685 88.8375 133.487 89.828 133.487C90.8184 133.487 91.6212 132.685 91.6212 131.695V106.563Z" fill="#ADC6FF"/>
<path d="M116.067 102.976H116.067C115.076 102.976 114.273 103.778 114.273 104.767V129.9C114.273 130.889 115.076 131.691 116.067 131.691C117.057 131.691 117.86 130.889 117.86 129.9V104.767C117.86 103.778 117.057 102.976 116.067 102.976Z" fill="#ADC6FF"/>
<path d="M131.176 119.437H131.176C130.186 119.437 129.383 120.239 129.383 121.229V132.01C129.383 132.999 130.186 133.801 131.176 133.801H131.176C132.166 133.801 132.969 132.999 132.969 132.01V121.229C132.969 120.239 132.166 119.437 131.176 119.437Z" fill="#ADC6FF"/>
<path d="M104.74 119.868C104.74 118.879 103.937 118.077 102.947 118.077C101.957 118.077 101.154 118.879 101.154 119.868V130.649C101.154 131.638 101.957 132.44 102.947 132.44C103.937 132.44 104.74 131.638 104.74 130.649V119.868Z" fill="#ADC6FF"/>
</g>
</svg>
