<svg width="184" height="184" viewBox="0 0 184 184" fill="none" xmlns="http://www.w3.org/2000/svg">
<path d="M0 0H184V184H0V0Z" fill="white"/>
<path d="M54.1341 52.7449L71.2523 69.8052C71.7296 70.2807 72 70.923 72 71.5965V120.464C72 121.867 70.8625 123 69.4546 123H18.5455C17.1375 123 16 121.867 16 120.464V54.5357C16 53.1332 17.1375 52 18.5455 52H52.3284C53.0045 52 53.6568 52.2695 54.1341 52.7449Z" fill="#2F54EB"/>
<path d="M60.4531 62.7239L77.2656 79.3037C77.7343 79.7657 78 80.39 78 81.0445V128.536C78 129.899 76.8828 131 75.5 131H25.5C24.1172 131 23 129.899 23 128.536V64.4643C23 63.1012 24.1172 62 25.5 62H58.6797C59.3437 62 59.9844 62.2619 60.4531 62.7239Z" fill="#85A5FF"/>
<path d="M40.8774 85C42.7769 85 44.3154 86.4003 44.3154 88.1293C44.3154 89.8582 42.7769 91.2585 40.8774 91.2585C38.9779 91.2585 37.4394 89.8582 37.4394 88.1293C37.4394 86.4003 38.9779 85 40.8774 85ZM66.3187 108H34.689C34.1131 108 33.7951 107.398 34.1475 106.991L42.7253 97.0398C42.7897 96.965 42.8718 96.9045 42.9657 96.8629C43.0595 96.8213 43.1625 96.7997 43.2668 96.7997C43.3712 96.7997 43.4742 96.8213 43.568 96.8629C43.6618 96.9045 43.744 96.965 43.8083 97.0398L47.3409 101.139L54.0278 93.3786C54.0921 93.3038 54.1743 93.2433 54.2681 93.2017C54.3619 93.1601 54.4649 93.1384 54.5693 93.1384C54.6736 93.1384 54.7766 93.1601 54.8705 93.2017C54.9643 93.2433 55.0464 93.3038 55.1108 93.3786L66.843 106.991C67.2126 107.398 66.886 108 66.3187 108Z" fill="#4062EF"/>
<path fill-rule="evenodd" clip-rule="evenodd" d="M100.394 50.25C99.9231 50.25 99.4832 50.3674 99.0984 50.5735L97.918 48.3697C98.6569 47.9739 99.5012 47.75 100.394 47.75H102.749V50.25H100.394ZM110.284 50.25H105.575V47.75H110.284V50.25ZM117.819 50.25H113.11V47.75H117.819V50.25ZM123 50.25H120.645V47.75H123V50.25ZM97.9676 51.7043C97.7615 52.0891 97.6441 52.529 97.6441 53V55.7344L95.1441 55.7344V53C95.1441 52.1071 95.368 51.2628 95.7638 50.5239L97.9676 51.7043ZM97.6441 59.0156V64.4844H95.1441V59.0156H97.6441ZM97.6441 67.7656V73.2344H95.1441V67.7656H97.6441ZM97.6441 76.5156V81.9844H95.1441V76.5156H97.6441ZM97.6441 85.2656V88C97.6441 88.8929 97.4202 89.7372 97.0244 90.4761L94.8206 89.2957C95.0267 88.9109 95.1441 88.471 95.1441 88V85.2656H97.6441ZM94.8702 92.6303C94.1313 93.0261 93.287 93.25 92.3941 93.25H90.145V90.75H92.3941C92.8651 90.75 93.305 90.6326 93.6898 90.4265L94.8702 92.6303ZM80.2491 93.25H78V90.75H80.2491V93.25ZM87.4461 93.25H82.948V90.75H87.4461V93.25Z" fill="#1D39C4"/>
<path fill-rule="evenodd" clip-rule="evenodd" d="M100.394 133.75C99.9231 133.75 99.4832 133.633 99.0984 133.427L97.918 135.63C98.6569 136.026 99.5012 136.25 100.394 136.25H102.749V133.75H100.394ZM110.284 133.75H105.575V136.25H110.284V133.75ZM117.819 133.75H113.11V136.25H117.819V133.75ZM123 133.75H120.645V136.25H123V133.75ZM97.9676 132.296C97.7615 131.911 97.6441 131.471 97.6441 131V128.266H95.1441V131C95.1441 131.893 95.368 132.737 95.7638 133.476L97.9676 132.296ZM97.6441 124.984V119.516H95.1441V124.984H97.6441ZM97.6441 116.234V110.766H95.1441V116.234H97.6441ZM97.6441 107.484V102.016H95.1441V107.484H97.6441ZM97.6441 98.7344V96C97.6441 95.1071 97.4202 94.2628 97.0244 93.5239L94.8206 94.7043C95.0267 95.0891 95.1441 95.529 95.1441 96V98.7344H97.6441ZM94.8702 91.3697C94.1313 90.9739 93.287 90.75 92.3941 90.75H90.145V93.25H92.3941C92.8651 93.25 93.305 93.3674 93.6898 93.5735L94.8702 91.3697ZM80.2491 90.75H78V93.25H80.2491V90.75ZM87.4461 90.75H82.948V93.25H87.4461V90.75Z" fill="#1D39C4"/>
<g filter="url(#filter0_d)">
<path d="M161.188 39.9965H140.091C139.363 39.9965 138.679 39.6463 138.252 39.0552L135.205 34.8275C134.779 34.2365 134.095 33.8862 133.366 33.8862H118.436C117.593 33.8862 116.91 34.5627 116.91 35.3981V72.6953C116.971 72.697 117.032 72.7005 117.091 72.7041L125.912 48.8616C126.074 48.2655 126.62 47.8526 127.242 47.8526H162.714V41.5084C162.714 40.673 162.031 39.9965 161.188 39.9965Z" fill="#FA541C"/>
</g>
<path d="M116.91 58.8247L127.378 47.7922L116.91 74.2701V58.8247Z" fill="#D4380D"/>
<path d="M157.715 74.9126H118.289C117.382 74.9126 116.722 74.059 116.959 73.1904L125.914 48.8618C126.075 48.2665 126.621 47.8528 127.243 47.8528H166.669C167.577 47.8528 168 48.7117 168 49.575L159.045 73.9036C158.883 74.4989 158.338 74.9126 157.715 74.9126Z" fill="#FFBB96"/>
<g filter="url(#filter1_d)">
<path d="M161.188 116.031H140.091C139.363 116.031 138.679 115.681 138.252 115.09L135.205 110.862C134.779 110.271 134.095 109.921 133.366 109.921H118.436C117.593 109.921 116.91 110.597 116.91 111.433V148.73C116.971 148.731 117.032 148.735 117.091 148.738L125.912 124.896C126.074 124.3 126.62 123.887 127.242 123.887H162.714V117.543C162.714 116.707 162.031 116.031 161.188 116.031Z" fill="#FA541C"/>
</g>
<path d="M116.91 134.859L127.378 123.827L116.91 150.305V134.859Z" fill="#D4380D"/>
<path d="M157.715 150.947H118.289C117.382 150.947 116.722 150.094 116.959 149.225L125.914 124.896C126.075 124.301 126.621 123.887 127.243 123.887H166.669C167.577 123.887 168 124.746 168 125.61L159.045 149.938C158.883 150.533 158.338 150.947 157.715 150.947Z" fill="#FFBB96"/>
<defs>
<filter id="filter0_d" x="108.91" y="29.8862" width="61.8043" height="54.8178" filterUnits="userSpaceOnUse" color-interpolation-filters="sRGB">
<feFlood flood-opacity="0" result="BackgroundImageFix"/>
<feColorMatrix in="SourceAlpha" type="matrix" values="0 0 0 0 0 0 0 0 0 0 0 0 0 0 0 0 0 0 127 0"/>
<feOffset dy="4"/>
<feGaussianBlur stdDeviation="4"/>
<feColorMatrix type="matrix" values="0 0 0 0 0 0 0 0 0 0 0 0 0 0 0 0 0 0 0.1 0"/>
<feBlend mode="normal" in2="BackgroundImageFix" result="effect1_dropShadow"/>
<feBlend mode="normal" in="SourceGraphic" in2="effect1_dropShadow" result="shape"/>
</filter>
<filter id="filter1_d" x="108.91" y="105.921" width="61.8043" height="54.8178" filterUnits="userSpaceOnUse" color-interpolation-filters="sRGB">
<feFlood flood-opacity="0" result="BackgroundImageFix"/>
<feColorMatrix in="SourceAlpha" type="matrix" values="0 0 0 0 0 0 0 0 0 0 0 0 0 0 0 0 0 0 127 0"/>
<feOffset dy="4"/>
<feGaussianBlur stdDeviation="4"/>
<feColorMatrix type="matrix" values="0 0 0 0 0 0 0 0 0 0 0 0 0 0 0 0 0 0 0.1 0"/>
<feBlend mode="normal" in2="BackgroundImageFix" result="effect1_dropShadow"/>
<feBlend mode="normal" in="SourceGraphic" in2="effect1_dropShadow" result="shape"/>
</filter>
</defs>
</svg>
