<svg width="184" height="184" viewBox="0 0 184 184" fill="none" xmlns="http://www.w3.org/2000/svg">
<path d="M0 0H184V184H0V0Z" fill="white"/>
<rect x="27" y="95.6509" width="65.0001" height="45.3969" rx="4" fill="#1AC4A5"/>
<rect x="45.5713" y="42" width="76.3493" height="59.8413" rx="4" fill="#2F54EB"/>
<rect x="112.635" y="58.5079" width="44.3651" height="34.0476" rx="4" fill="#FA541C"/>
<rect x="85.8096" y="89.4604" width="55.7143" height="42.3016" rx="4" fill="#FFC53D"/>
<path d="M85.7991 65.6263H82.7489V62.3875H85.7991V65.6263ZM93.3195 72.2229C92.8362 72.0149 92.3829 71.8068 92.0811 71.5692C92.021 72.9062 91.8996 73.1143 91.3862 73.1143H89.8461C89.2726 73.1143 89.1811 73.0251 89.1811 72.2526V68.8651H93.3195V72.2229ZM75.6818 80.0674V75.8479C76.4068 76.4125 77.3121 77.2148 77.6752 77.72C81.8423 75.5806 82.7489 72.1337 82.7489 69.192V68.8651H85.7691V72.2822C85.7691 75.2239 86.3425 76.2046 89.2726 76.2046H91.8094C92.4129 76.2046 92.8963 76.1451 93.3195 75.9668V80.0674H75.6818ZM79.3969 68.8651V69.1326C79.3969 71.1234 78.9136 73.3818 75.6818 75.1349V68.8651H79.3969ZM98 62.3875V59H71V62.3875H79.2153V65.6263H72.2083V85H75.6818V83.3063H93.3195V84.9406H96.9733V65.6263H89.3627V62.3875H98Z" fill="white"/>
<path d="M111.621 98.746H107.604C107.691 99.2409 107.807 100.588 107.807 101.166C107.807 101.633 107.807 102.431 107.778 103.393C107.196 103.421 106.614 103.448 106.09 103.448C105.042 103.448 103.79 103.421 102.072 103.228L102.13 106.555C103.12 106.665 104.256 106.693 106.206 106.693C106.672 106.693 107.196 106.665 107.749 106.638C107.749 107.408 107.749 108.178 107.749 108.947C107.749 109.58 107.749 110.24 107.778 110.9C104.197 112.357 101.286 114.859 101.286 117.252C101.286 120.166 105.275 122.476 108.098 122.476C110.02 122.476 111.301 121.569 111.301 118.159C111.301 117.224 111.243 115.079 111.184 112.907C112.96 112.412 114.853 112.137 116.658 112.137C119.19 112.137 120.937 113.237 120.937 115.107C120.937 117.114 119.074 118.214 116.716 118.627C115.697 118.792 114.445 118.819 113.135 118.819L114.474 122.366C115.668 122.284 116.949 122.201 118.288 121.926C122.917 120.826 124.722 118.379 124.722 115.134C124.722 111.34 121.199 109.14 116.716 109.14C115.115 109.14 113.106 109.387 111.126 109.855C111.126 109.497 111.126 109.167 111.126 108.837C111.126 108.04 111.126 107.188 111.155 106.363C113.048 106.143 115.056 105.868 116.716 105.51L116.628 102.101C115.115 102.513 113.193 102.871 111.272 103.091C111.301 102.403 111.33 101.743 111.359 101.138C111.417 100.423 111.534 99.2409 111.621 98.746ZM119.918 101.716L118.317 104.383C120.122 105.208 123.936 107.27 125.333 108.398L127.08 105.593C125.537 104.548 122.16 102.733 119.918 101.716ZM104.867 117.114C104.867 116.152 106.061 115.024 107.836 114.117C107.895 115.602 107.924 116.867 107.924 117.554C107.924 118.489 107.516 118.709 106.992 118.709C106.235 118.709 104.867 117.967 104.867 117.114Z" fill="white"/>
<path d="M134.376 70.7343H138.194V68.5364H127.823V70.7343H131.682V71.7627C131.682 74.9285 130.175 78.3363 127.08 79.7277L128.587 81.845C130.758 80.8569 132.245 78.8202 133.069 76.4005C133.893 78.6388 135.36 80.4536 137.511 81.3811L138.958 79.2841C135.863 77.9935 134.376 74.7874 134.376 71.7627V70.7343ZM139.903 66.762V85.3334H142.556V66.762H139.903Z" fill="white"/>
<path d="M63.2697 124.202H55.7157L54.2795 128.667H49.6982L57.482 107H61.4745L69.3014 128.667H64.7203L63.2697 124.202ZM56.8789 120.586H62.1065L59.4783 112.476L56.8789 120.586Z" fill="white"/>
</svg>
