<svg width="184" height="184" viewBox="0 0 184 184" fill="none" xmlns="http://www.w3.org/2000/svg">
<path d="M0 0H184V184H0V0Z" fill="white"/>
<path d="M105.787 137.339C134.118 129.748 150.93 100.628 143.339 72.2971C135.748 43.9665 106.628 27.1539 78.2971 34.745C49.9665 42.3362 33.1539 71.4566 40.745 99.7872C48.3362 128.118 77.4566 144.93 105.787 137.339Z" fill="#2F54EB"/>
<path d="M106.123 137.327C117.48 134.323 127.512 127.619 134.634 118.277C132.153 113.746 128.817 109.738 124.811 106.477C116.927 99.7559 118.427 76.3497 118.427 76.3497L90.2255 67.6644L61.0162 79.9556C61.0162 79.9556 63.6786 95.1031 56.7899 102.767C55.4974 104.163 50.5732 107.821 46.1143 112.706C52.0456 122.81 61.127 130.69 71.9662 135.137C82.8054 139.584 94.8041 140.354 106.123 137.327Z" fill="#030852"/>
<path fill-rule="evenodd" clip-rule="evenodd" d="M108.647 136.592C107.814 136.857 106.972 137.103 106.123 137.327C98.8663 139.267 91.3303 139.647 83.9996 138.498L83.5469 109.247C83.5469 109.247 88.5324 109.745 93.0332 109.966C94.7637 110.051 96.3058 109.766 97.647 109.518C99.7941 109.122 101.426 108.82 102.492 110.284L105.566 106.606L108.647 136.592Z" fill="#FFD8BF"/>
<path d="M107.536 121.473C107.536 121.473 92.6202 126.154 83.5469 108.319H106.188L107.536 121.473Z" fill="#FFBB96"/>
<path d="M60.0212 77.0864C61.5722 94.3535 80.7004 104.719 97.2437 102.25C106.071 100.958 123.636 83.7942 121.064 66.6563C118.492 49.5185 104.714 40.1741 88.1578 42.4746C72.7906 44.6072 58.1989 56.782 60.0212 77.0864Z" fill="#030852"/>
<path d="M112.788 88.6302C113.086 90.2947 113.761 91.8666 114.761 93.2223C115.661 94.4546 116.889 95.4026 118.301 95.9558C119.567 96.4472 120.968 96.4472 122.234 95.9558C123.517 95.4245 124.578 94.4581 125.233 93.2223C125.983 91.8133 126.351 90.2293 126.301 88.6302C126.255 86.9429 125.83 85.2883 125.058 83.792C124.344 82.3549 123.273 81.1302 121.95 80.2386C120.79 79.4493 119.397 79.0874 118.004 79.2136C117.113 79.3144 116.262 79.6437 115.531 80.1703C114.76 80.7306 114.122 81.4593 113.667 82.3023C113.164 83.2263 112.834 84.2364 112.694 85.2818C112.542 86.4042 112.569 87.5439 112.775 88.6575L112.788 88.6302Z" fill="#FFBB96"/>
<path d="M72.0186 76.5533C73.3958 85.2967 75.7104 93.8665 78.9222 102.114C80.1468 105.022 81.94 107.656 84.1966 109.861C86.4087 112.021 89.0468 113.695 91.9425 114.777L93.0332 115.275C96.1761 116.676 99.6462 117.178 103.057 116.725C106.448 116.264 109.64 114.857 112.267 112.665C114.866 110.735 116.995 108.243 118.494 105.373C120.056 102.421 120.96 99.166 121.145 95.8311C121.277 87.0594 120.765 78.2899 119.612 69.5934C119.612 69.5934 117.624 42.8033 91.9563 47.098C66.2886 51.3927 72.0186 76.5533 72.0186 76.5533Z" fill="#FFD8BF"/>
<path d="M107.457 53.0066C107.457 53.0066 101.927 74.5043 67.499 86.0431C67.499 86.0431 59.4231 50.5944 85.7609 44.1479C85.7027 44.021 98.537 39.1121 107.457 53.0066Z" fill="#030852"/>
<path d="M98.2485 55.2608C98.2485 55.2608 108.212 71.1505 124.592 74.0484C124.592 74.0484 122.866 45.4164 95.4619 43.4198C95.4755 43.5168 99.4039 40.3694 98.2485 55.2608Z" fill="#030852"/>
<path d="M111.172 85.7152C111.432 86.7001 111.904 87.6243 112.56 88.4305C112.762 88.7259 113.034 88.9735 113.355 89.1538C113.676 89.3341 114.036 89.4424 114.409 89.4701C115.003 89.4701 115.482 89.0202 115.763 88.2909C116.051 87.3847 116.102 86.4266 115.912 85.4979C115.812 84.8989 115.646 84.3113 115.416 83.7446C115.204 83.1971 114.921 82.676 114.574 82.193C114.3 81.8021 113.953 81.4605 113.55 81.1844C113.235 80.9829 112.858 80.8847 112.477 80.9051C112.309 80.916 112.144 80.9588 111.994 81.0308C111.844 81.1028 111.71 81.2025 111.602 81.324C111.326 81.6334 111.133 82.0006 111.04 82.3947C110.913 82.9027 110.863 83.4251 110.892 83.9463C110.917 84.5437 111.011 85.1368 111.172 85.7152Z" fill="black"/>
<path d="M88.1863 87.2094C88.2079 88.2276 88.4505 89.2368 88.899 90.1741C89.0264 90.5086 89.2331 90.813 89.5027 91.0634C89.7724 91.3138 90.0978 91.5036 90.4535 91.6179C91.0315 91.7571 91.6024 91.4317 92.0461 90.7885C92.5381 89.9749 92.812 89.0554 92.8446 88.108C92.8877 87.5022 92.8639 86.8921 92.7736 86.2874C92.6953 85.7054 92.5424 85.1325 92.3182 84.5817C92.1429 84.1374 91.8858 83.7241 91.5591 83.3614C91.2997 83.0917 90.9559 82.9079 90.581 82.8385C90.4147 82.8098 90.245 82.8128 90.082 82.8476C89.9189 82.8824 89.7659 82.9481 89.632 83.0409C89.2914 83.277 89.0182 83.5889 88.8355 83.9503C88.5926 84.4143 88.4216 84.9105 88.3277 85.424C88.2122 86.0107 88.1648 86.6093 88.1863 87.2094Z" fill="black"/>
<path d="M103.041 89.5384C103.177 89.4843 103.32 89.462 103.463 89.4728C103.606 89.4835 103.746 89.5271 103.875 89.601C104.003 89.6749 104.118 89.7776 104.212 89.9032C104.306 90.0288 104.378 90.1748 104.423 90.3328L105.714 94.9047C105.719 94.9745 105.719 95.0447 105.714 95.1145C105.766 95.4811 105.748 95.8564 105.661 96.2139C105.574 96.5714 105.42 96.9022 105.211 97.1831C105.005 97.4568 104.751 97.6751 104.466 97.8226C104.18 97.9702 103.87 98.0436 103.557 98.0375H101.581C101.312 98.0035 101.064 97.8554 100.883 97.6216C100.702 97.3878 100.603 97.0849 100.603 96.7709C100.603 96.4568 100.702 96.1539 100.883 95.9201C101.064 95.6863 101.312 95.5383 101.581 95.5042H103.583L102.292 91.1423C102.246 90.98 102.23 90.8087 102.243 90.6388C102.257 90.4688 102.3 90.3039 102.37 90.1539C102.44 90.0039 102.536 89.872 102.651 89.7662C102.766 89.6604 102.899 89.5829 103.041 89.5384Z" fill="black"/>
<path d="M97.7637 82.8034L82.911 78.6094C82.911 78.6094 85.45 76.025 91.5013 77.7908C97.5526 79.5566 97.7637 82.8034 97.7637 82.8034Z" fill="black"/>
<path d="M107.517 82.616L117.738 76.7554C116.7 76.077 115.5 75.7327 114.283 75.7638C113.065 75.795 111.882 76.2005 110.876 76.9313C106.724 79.3927 107.517 82.616 107.517 82.616Z" fill="black"/>
<path d="M95.5949 102.297C95.6595 102.113 95.7568 101.948 95.88 101.815C96.0032 101.681 96.1493 101.582 96.3078 101.524C96.4664 101.466 96.6336 101.45 96.7976 101.479C96.9616 101.507 97.1183 101.579 97.2568 101.689C98.5126 102.656 99.9634 103.19 101.453 103.234C102.899 103.263 104.32 102.777 105.539 101.837C105.687 101.736 105.851 101.674 106.019 101.654C106.188 101.634 106.359 101.656 106.52 101.719C106.681 101.783 106.83 101.886 106.957 102.022C107.083 102.158 107.185 102.325 107.256 102.511C107.437 102.881 107.499 103.32 107.428 103.742C107.358 104.164 107.16 104.539 106.874 104.796C105.301 106.008 103.468 106.637 101.602 106.604C99.6689 106.559 97.7833 105.871 96.1534 104.615C95.8489 104.37 95.6259 104.003 95.5237 103.579C95.4215 103.155 95.4467 102.701 95.5949 102.297Z" fill="black"/>
<path d="M78.3266 72.3348L75.9012 92.8973L68.0454 75.5801L78.3266 72.3348Z" fill="#030852"/>
<path d="M64.8573 93.4947C65.2589 95.1213 65.9787 96.6796 66.987 98.1052C68.3352 99.3617 69.9672 100.377 71.7865 101.09C72.3033 101.313 72.8706 101.44 73.45 101.461C74.0295 101.483 74.6078 101.4 75.1461 101.217C76.2537 100.784 77.1271 100.013 77.5908 99.0578C78.1761 97.8522 78.4176 96.5468 78.2957 95.2474C78.1909 93.816 77.7633 92.4148 77.0359 91.1196C76.5437 89.9177 75.7331 88.8271 74.6661 87.9316C73.6715 87.3275 72.6178 86.7964 71.5165 86.344C69.9876 85.8849 68.3069 85.9533 66.8371 86.5345C66.1825 87.0015 65.6684 87.5935 65.3372 88.2618C64.945 89.0444 64.7117 89.8775 64.6473 90.7259C64.5721 91.6526 64.6427 92.5837 64.8573 93.4947Z" fill="#FFD8BF"/>
<g filter="url(#filter0_d)">
<path d="M30 33.7705C30 31.1359 32.1651 29 34.8359 29H66.1635C68.8344 29 71 31.1359 71 33.7705V44.0002V54.2298C71 56.8647 68.8344 59 66.1635 59H34.8359C32.1651 59 30 56.8647 30 54.2298V33.7705Z" fill="white"/>
</g>
<g filter="url(#filter1_d)">
<path d="M102 126.073C102 122.167 105.132 119 108.995 119H154.31C158.173 119 161.305 122.167 161.305 126.073V141.239V156.406C161.305 160.312 158.173 163.479 154.31 163.479H108.995C105.132 163.479 102 160.312 102 156.406V126.073Z" fill="white"/>
</g>
<path d="M135.923 148.643H127.06L125.375 154H120L129.133 128H133.817L143 154H137.625L135.923 148.643ZM128.425 144.304H134.558L131.475 134.571L128.425 144.304Z" fill="#FA541C"/>
<path d="M49.4108 37H46.9187C46.9729 37.3129 47.0451 38.1645 47.0451 38.5295C47.0451 38.825 47.0452 39.3291 47.0271 39.9374C46.6659 39.9548 46.3047 39.9722 45.9797 39.9722C45.3296 39.9722 44.553 39.9548 43.4876 39.8331L43.5237 41.9363C44.1377 42.0058 44.842 42.0232 46.0519 42.0232C46.3409 42.0232 46.6659 42.0058 47.009 41.9884C47.009 42.4751 47.009 42.9618 47.009 43.4484C47.009 43.8482 47.009 44.2654 47.0271 44.6825C44.8059 45.6037 43 47.1854 43 48.6976C43 50.54 45.474 52 47.2257 52C48.4176 52 49.2122 51.4264 49.2122 49.2711C49.2122 48.6802 49.1761 47.3245 49.14 45.9513C50.2415 45.6385 51.4153 45.4647 52.535 45.4647C54.1061 45.4647 55.1896 46.1599 55.1896 47.3418C55.1896 48.6107 54.0339 49.3059 52.5711 49.5666C51.9391 49.6709 51.1625 49.6883 50.3499 49.6883L51.1806 51.9305C51.921 51.8783 52.7156 51.8262 53.5463 51.6524C56.4176 50.9571 57.5372 49.4102 57.5372 47.3592C57.5372 44.9606 55.3521 43.5701 52.5711 43.5701C51.5779 43.5701 50.3318 43.7265 49.1038 44.022C49.1038 43.7961 49.1038 43.5875 49.1038 43.3789C49.1038 42.8749 49.1038 42.336 49.1219 41.8146C50.2957 41.6756 51.5418 41.5017 52.5711 41.2758L52.5169 39.1205C51.5779 39.3812 50.386 39.6072 49.1941 39.7462C49.2122 39.3117 49.2302 38.8946 49.2483 38.5122C49.2844 38.0603 49.3567 37.3129 49.4108 37ZM54.5576 38.8772L53.5643 40.5632C54.684 41.0846 57.0497 42.3882 57.9165 43.1008L59 41.3279C58.0429 40.6674 55.9481 39.5203 54.5576 38.8772ZM45.2212 48.6107C45.2212 48.0023 45.9616 47.2897 47.0632 46.7161C47.0993 47.6547 47.1174 48.4542 47.1174 48.8888C47.1174 49.4797 46.8646 49.6188 46.5395 49.6188C46.07 49.6188 45.2212 49.1495 45.2212 48.6107Z" fill="#FAAD14"/>
<defs>
<filter id="filter0_d" x="20" y="19" width="65" height="54" filterUnits="userSpaceOnUse" color-interpolation-filters="sRGB">
<feFlood flood-opacity="0" result="BackgroundImageFix"/>
<feColorMatrix in="SourceAlpha" type="matrix" values="0 0 0 0 0 0 0 0 0 0 0 0 0 0 0 0 0 0 127 0"/>
<feOffset dx="2" dy="2"/>
<feGaussianBlur stdDeviation="6"/>
<feColorMatrix type="matrix" values="0 0 0 0 0 0 0 0 0 0 0 0 0 0 0 0 0 0 0.12 0"/>
<feBlend mode="normal" in2="BackgroundImageFix" result="effect1_dropShadow"/>
<feBlend mode="normal" in="SourceGraphic" in2="effect1_dropShadow" result="shape"/>
</filter>
<filter id="filter1_d" x="92" y="109" width="83.3051" height="68.4789" filterUnits="userSpaceOnUse" color-interpolation-filters="sRGB">
<feFlood flood-opacity="0" result="BackgroundImageFix"/>
<feColorMatrix in="SourceAlpha" type="matrix" values="0 0 0 0 0 0 0 0 0 0 0 0 0 0 0 0 0 0 127 0"/>
<feOffset dx="2" dy="2"/>
<feGaussianBlur stdDeviation="6"/>
<feColorMatrix type="matrix" values="0 0 0 0 0 0 0 0 0 0 0 0 0 0 0 0 0 0 0.12 0"/>
<feBlend mode="normal" in2="BackgroundImageFix" result="effect1_dropShadow"/>
<feBlend mode="normal" in="SourceGraphic" in2="effect1_dropShadow" result="shape"/>
</filter>
</defs>
</svg>
