<svg width="468" height="468" viewBox="0 0 468 468" fill="none" xmlns="http://www.w3.org/2000/svg">
<g filter="url(#filter0_d)">
<path d="M248.705 73.9946C248.705 71.7855 250.496 69.9946 252.705 69.9946H390.925C393.134 69.9946 394.925 71.7855 394.925 73.9946V106.07C394.925 108.279 393.134 110.07 390.925 110.07H252.705C250.496 110.07 248.705 108.279 248.705 106.07V73.9946Z" fill="#ADC6FF"/>
</g>
<g filter="url(#filter1_d)">
<path d="M248.705 171.475C248.705 169.265 250.496 167.475 252.705 167.475H390.925C393.134 167.475 394.925 169.265 394.925 171.475V203.55C394.925 205.759 393.134 207.55 390.925 207.55H252.705C250.496 207.55 248.705 205.759 248.705 203.55V171.475Z" fill="#ADC6FF"/>
</g>
<g filter="url(#filter2_d)">
<path d="M287.697 122.734C287.697 120.525 289.488 118.734 291.697 118.734H429.917C432.126 118.734 433.917 120.525 433.917 122.734V154.809C433.917 157.019 432.126 158.809 429.917 158.809H291.697C289.488 158.809 287.697 157.019 287.697 154.809V122.734Z" fill="#ADC6FF"/>
</g>
<path d="M339.955 79.5864H288.702C288.147 79.5864 287.697 80.0364 287.697 80.5914V86.6211C287.697 87.1761 288.147 87.626 288.702 87.626H339.955C340.51 87.626 340.959 87.1761 340.959 86.6211V80.5914C340.959 80.0364 340.51 79.5864 339.955 79.5864Z" fill="#D6E4FF"/>
<path d="M339.955 177.066H288.702C288.147 177.066 287.697 177.516 287.697 178.071V184.101C287.697 184.656 288.147 185.106 288.702 185.106H339.955C340.51 185.106 340.959 184.656 340.959 184.101V178.071C340.959 177.516 340.51 177.066 339.955 177.066Z" fill="#D6E4FF"/>
<path d="M378.946 128.327H327.694C327.139 128.327 326.689 128.777 326.689 129.332V135.361C326.689 135.916 327.139 136.366 327.694 136.366H378.946C379.501 136.366 379.951 135.916 379.951 135.361V129.332C379.951 128.777 379.501 128.327 378.946 128.327Z" fill="#D6E4FF"/>
<path d="M386.236 92.7397H288.804C288.193 92.7397 287.697 93.1641 287.697 93.6875V99.3738C287.697 99.8972 288.193 100.322 288.804 100.322H386.236C386.848 100.322 387.343 99.8972 387.343 99.3738V93.6875C387.343 93.1641 386.848 92.7397 386.236 92.7397Z" fill="#D6E4FF"/>
<path d="M386.236 190.22H288.804C288.193 190.22 287.697 190.644 287.697 191.167V196.854C287.697 197.377 288.193 197.801 288.804 197.801H386.236C386.848 197.801 387.343 197.377 387.343 196.854V191.167C387.343 190.644 386.848 190.22 386.236 190.22Z" fill="#D6E4FF"/>
<path d="M425.228 141.48H327.796C327.185 141.48 326.689 141.904 326.689 142.428V148.114C326.689 148.637 327.185 149.062 327.796 149.062H425.228C425.839 149.062 426.335 148.637 426.335 148.114V142.428C426.335 141.904 425.839 141.48 425.228 141.48Z" fill="#D6E4FF"/>
<path d="M277.391 77.5762H260.307C258.087 77.5762 256.287 79.3759 256.287 81.596V98.6801C256.287 100.9 258.087 102.7 260.307 102.7H277.391C279.611 102.7 281.411 100.9 281.411 98.6801V81.596C281.411 79.3759 279.611 77.5762 277.391 77.5762Z" fill="#D6E4FF"/>
<path d="M277.391 175.056H260.307C258.087 175.056 256.287 176.856 256.287 179.076V196.16C256.287 198.38 258.087 200.18 260.307 200.18H277.391C279.611 200.18 281.411 198.38 281.411 196.16V179.076C281.411 176.856 279.611 175.056 277.391 175.056Z" fill="#D6E4FF"/>
<path d="M316.383 126.316H299.299C297.079 126.316 295.279 128.116 295.279 130.336V147.42C295.279 149.64 297.079 151.44 299.299 151.44H316.383C318.603 151.44 320.402 149.64 320.402 147.42V130.336C320.402 128.116 318.603 126.316 316.383 126.316Z" fill="#D6E4FF"/>
<path d="M270.508 83.3052V96.671H267.415V85.7874H264.742V83.3052H270.508Z" fill="#ADC6FF"/>
<path d="M312.489 142.806V145.327H302.388V143.322L307.544 138.453C308.09 137.931 308.46 137.485 308.651 137.116C308.842 136.735 308.938 136.359 308.938 135.99C308.938 135.455 308.753 135.048 308.384 134.768C308.027 134.475 307.499 134.329 306.799 134.329C306.213 134.329 305.685 134.443 305.214 134.672C304.743 134.888 304.348 135.22 304.03 135.665L301.777 134.214C302.299 133.437 303.018 132.833 303.935 132.4C304.851 131.955 305.902 131.732 307.085 131.732C308.078 131.732 308.944 131.898 309.682 132.228C310.433 132.547 311.012 133.005 311.42 133.603C311.84 134.189 312.05 134.882 312.05 135.684C312.05 136.41 311.897 137.091 311.592 137.727C311.286 138.364 310.694 139.089 309.816 139.904L306.742 142.806H312.489Z" fill="#ADC6FF"/>
<path d="M269.793 186.997C270.964 187.188 271.861 187.627 272.485 188.314C273.109 188.989 273.421 189.829 273.421 190.835C273.421 191.612 273.217 192.33 272.81 192.992C272.403 193.642 271.779 194.163 270.939 194.558C270.112 194.953 269.093 195.15 267.884 195.15C266.942 195.15 266.013 195.03 265.096 194.787C264.193 194.533 263.422 194.176 262.786 193.718L263.989 191.35C264.498 191.732 265.083 192.032 265.745 192.248C266.42 192.452 267.107 192.553 267.807 192.553C268.584 192.553 269.195 192.407 269.64 192.114C270.086 191.809 270.309 191.383 270.309 190.835C270.309 189.74 269.475 189.193 267.807 189.193H266.394V187.15L269.144 184.037H263.454V181.555H272.81V183.56L269.793 186.997Z" fill="#ADC6FF"/>
<g filter="url(#filter3_dd)">
<path d="M151.463 44H34.0116C32.3483 44 31 45.3472 31 47.0091V220.787C31 222.449 32.3483 223.796 34.0116 223.796H151.463C153.126 223.796 154.475 222.449 154.475 220.787V47.0091C154.475 45.3472 153.126 44 151.463 44Z" fill="white"/>
</g>
<path d="M143.934 51.5229H41.5404C39.8771 51.5229 38.5288 52.8702 38.5288 54.5321V129.008C38.5288 130.67 39.8771 132.018 41.5404 132.018H143.934C145.597 132.018 146.945 130.67 146.945 129.008V54.5321C146.945 52.8702 145.597 51.5229 143.934 51.5229Z" fill="#F5F5F5"/>
<path d="M38.5288 138.788C38.5288 137.126 39.8772 135.779 41.5404 135.779H91.684C93.7061 135.779 95.1539 137.731 94.5652 139.664L71.8757 214.141C71.4897 215.407 70.32 216.273 68.9946 216.273H41.5404C39.8772 216.273 38.5288 214.926 38.5288 213.264V138.788Z" fill="#F5F5F5"/>
<path d="M146.946 213.264C146.946 214.926 145.597 216.273 143.934 216.273H78.7803C76.7438 216.273 75.2944 214.296 75.9093 212.355L99.5117 137.879C99.9085 136.629 101.07 135.779 102.382 135.779H143.934C145.597 135.779 146.946 137.126 146.946 138.788V213.264Z" fill="#F5F5F5"/>
<g filter="url(#filter4_d)">
<path d="M146.945 174.145H105.536C103.873 174.145 102.524 175.492 102.524 177.154V198.218C102.524 199.88 103.873 201.227 105.536 201.227H146.945C148.608 201.227 149.957 199.88 149.957 198.218V177.154C149.957 175.492 148.608 174.145 146.945 174.145Z" fill="white"/>
</g>
<g filter="url(#filter5_d)">
<path fill-rule="evenodd" clip-rule="evenodd" d="M114.194 121.485C132.282 121.485 146.945 109.697 146.945 95.1552C146.945 80.6135 132.282 68.8252 114.194 68.8252C96.1067 68.8252 81.4434 80.6135 81.4434 95.1552C81.4434 103.913 86.7618 111.672 94.9435 116.459C95.0647 116.53 95.1385 116.662 95.1287 116.801C94.9811 118.865 94.0054 120.931 91.3792 122.193C91.0131 122.369 91.0779 122.947 91.4838 122.965C94.6732 123.103 99.9811 122.716 105.219 120.555C105.291 120.526 105.371 120.518 105.447 120.536C108.231 121.154 111.165 121.485 114.194 121.485Z" fill="white"/>
</g>
<path d="M125.111 82.3662H92.7368C92.321 82.3662 91.9839 82.703 91.9839 83.1185V87.6322C91.9839 88.0477 92.321 88.3845 92.7368 88.3845H125.111C125.527 88.3845 125.864 88.0477 125.864 87.6322V83.1185C125.864 82.703 125.527 82.3662 125.111 82.3662Z" fill="#D6E4FF"/>
<path d="M140.922 92.146H92.7368C92.321 92.146 91.9839 92.4828 91.9839 92.8983V97.412C91.9839 97.8275 92.321 98.1643 92.7368 98.1643H140.922C141.338 98.1643 141.675 97.8275 141.675 97.412V92.8983C141.675 92.4828 141.338 92.146 140.922 92.146Z" fill="#D6E4FF"/>
<path d="M131.134 101.926H92.7368C92.321 101.926 91.9839 102.263 91.9839 102.678V107.192C91.9839 107.607 92.321 107.944 92.7368 107.944H131.134C131.55 107.944 131.887 107.607 131.887 107.192V102.678C131.887 102.263 131.55 101.926 131.134 101.926Z" fill="#D6E4FF"/>
<path d="M134.146 180.164H108.548C108.132 180.164 107.795 180.5 107.795 180.916V185.43C107.795 185.845 108.132 186.182 108.548 186.182H134.146C134.562 186.182 134.899 185.845 134.899 185.43V180.916C134.899 180.5 134.562 180.164 134.146 180.164Z" fill="#D6E4FF"/>
<path d="M143.934 189.943H108.548C108.132 189.943 107.795 190.28 107.795 190.696V195.209C107.795 195.625 108.132 195.962 108.548 195.962H143.934C144.35 195.962 144.687 195.625 144.687 195.209V190.696C144.687 190.28 144.35 189.943 143.934 189.943Z" fill="#D6E4FF"/>
<g filter="url(#filter6_d)">
<path fill-rule="evenodd" clip-rule="evenodd" d="M58.1037 183.804C48.9558 183.804 41.54 176.758 41.54 168.067C41.54 159.375 48.9558 152.329 58.1037 152.329C67.2516 152.329 74.6674 159.375 74.6674 168.067C74.6674 173.271 72.0083 177.886 67.9104 180.75C67.8044 180.825 67.7412 180.947 67.7507 181.076C67.8278 182.122 68.2123 183.163 69.1581 183.904C69.4661 184.145 69.3777 184.704 68.9862 184.703C67.3705 184.703 65.0326 184.396 62.7142 183.283C62.632 183.244 62.538 183.234 62.4497 183.257C61.0647 183.614 59.6076 183.804 58.1037 183.804Z" fill="white"/>
</g>
<path d="M66.3854 169.631H49.8217C49.4059 169.631 49.0688 169.968 49.0688 170.384V174.897C49.0688 175.313 49.4059 175.65 49.8217 175.65H66.3854C66.8012 175.65 67.1383 175.313 67.1383 174.897V170.384C67.1383 169.968 66.8012 169.631 66.3854 169.631Z" fill="#D6E4FF"/>
<path d="M60.3623 159.852H49.8217C49.4059 159.852 49.0688 160.188 49.0688 160.604V165.118C49.0688 165.533 49.4059 165.87 49.8217 165.87H60.3623C60.7781 165.87 61.1151 165.533 61.1151 165.118V160.604C61.1151 160.188 60.7781 159.852 60.3623 159.852Z" fill="#D6E4FF"/>
<path fill-rule="evenodd" clip-rule="evenodd" d="M248.275 98.1555C247.584 98.1462 246.911 98.3725 246.368 98.7965C245.826 99.2205 245.447 99.8162 245.296 100.484H227.358L206.064 121.483H194.674C194.509 120.768 194.085 120.138 193.482 119.713C192.878 119.289 192.137 119.099 191.401 119.181C190.666 119.263 189.987 119.611 189.493 120.158C188.999 120.704 188.727 121.411 188.727 122.145C188.727 122.878 188.999 123.586 189.493 124.133C189.987 124.679 190.666 125.027 191.401 125.108C192.137 125.19 192.878 125 193.482 124.576C194.085 124.151 194.509 123.522 194.674 122.806H206.595L227.889 101.808H245.296C245.421 102.356 245.699 102.858 246.099 103.257C246.499 103.655 247.005 103.934 247.559 104.06C248.111 104.186 248.689 104.155 249.225 103.97C249.761 103.785 250.233 103.453 250.588 103.014C250.941 102.575 251.163 102.045 251.226 101.487C251.29 100.928 251.192 100.363 250.946 99.8572C250.699 99.351 250.312 98.9241 249.831 98.6259C249.351 98.3277 248.795 98.1702 248.226 98.1716L248.275 98.1555ZM248.088 182.602C247.397 182.612 246.724 182.385 246.181 181.961C245.639 181.537 245.261 180.941 245.109 180.273H226.242L206.665 159.592H204.575C204.411 160.308 203.986 160.937 203.383 161.362C202.779 161.786 202.038 161.976 201.303 161.894C200.567 161.812 199.888 161.465 199.394 160.918C198.9 160.372 198.628 159.664 198.628 158.93C198.628 158.197 198.9 157.49 199.394 156.943C199.888 156.397 200.567 156.049 201.303 155.967C202.038 155.885 202.779 156.075 203.383 156.499C203.986 156.924 204.411 157.554 204.575 158.269H207.196L226.773 178.95H245.109C245.234 178.402 245.512 177.899 245.913 177.501C246.312 177.102 246.818 176.824 247.372 176.698C247.924 176.572 248.503 176.602 249.038 176.788C249.574 176.973 250.046 177.304 250.401 177.744C250.754 178.183 250.976 178.712 251.04 179.271C251.103 179.829 251.005 180.394 250.759 180.9C250.512 181.406 250.125 181.833 249.645 182.132C249.164 182.43 248.608 182.587 248.039 182.586L248.088 182.602ZM186.366 138.779H285.106C285.268 139.448 285.69 140.037 286.288 140.434C286.886 140.832 287.621 141.009 288.35 140.932C289.08 140.856 289.754 140.53 290.243 140.019C290.732 139.507 291.003 138.846 291.003 138.16C291.003 137.473 290.732 136.812 290.243 136.3C289.754 135.789 289.08 135.463 288.35 135.387C287.621 135.31 286.886 135.487 286.288 135.885C285.69 136.282 285.268 136.871 285.106 137.54H186.366C186.204 136.871 185.782 136.282 185.183 135.885C184.585 135.487 183.851 135.31 183.122 135.387C182.392 135.463 181.718 135.789 181.229 136.3C180.74 136.812 180.469 137.473 180.469 138.16C180.469 138.846 180.74 139.507 181.229 140.019C181.718 140.53 182.392 140.856 183.122 140.932C183.851 141.009 184.585 140.832 185.183 140.434C185.782 140.037 186.204 139.448 186.366 138.779Z" fill="#2F54EB"/>
<path d="M144.625 101.405C145.357 101.396 146.07 101.619 146.645 102.037C147.22 102.454 147.621 103.041 147.781 103.699H166.791L199.213 133.557H222.907C223.081 132.852 223.531 132.231 224.17 131.813C224.81 131.395 225.595 131.208 226.374 131.289C227.154 131.369 227.874 131.712 228.397 132.25C228.92 132.789 229.209 133.486 229.209 134.209C229.209 134.931 228.92 135.629 228.397 136.167C227.874 136.706 227.154 137.048 226.374 137.129C225.595 137.21 224.81 137.023 224.17 136.605C223.531 136.186 223.081 135.566 222.907 134.861H198.649L166.228 105.004H147.781C147.65 105.544 147.355 106.039 146.93 106.432C146.506 106.824 145.97 107.099 145.384 107.223C144.798 107.347 144.186 107.317 143.618 107.134C143.05 106.952 142.549 106.626 142.174 106.193C141.799 105.76 141.564 105.238 141.497 104.688C141.43 104.137 141.533 103.581 141.794 103.082C142.056 102.583 142.465 102.162 142.975 101.869C143.485 101.575 144.074 101.419 144.676 101.421L144.625 101.405Z" fill="#2F54EB"/>
<path d="M220.632 152.326C219.904 152.328 219.199 152.552 218.631 152.961C218.064 153.37 217.668 153.94 217.508 154.578H171.347L149.653 174.069C149.14 173.774 148.544 173.619 147.936 173.622C147.301 173.622 146.681 173.791 146.153 174.108C145.625 174.424 145.214 174.875 144.971 175.402C144.728 175.929 144.664 176.508 144.788 177.068C144.912 177.627 145.218 178.141 145.667 178.544C146.115 178.947 146.687 179.222 147.31 179.333C147.933 179.445 148.578 179.388 149.164 179.169C149.751 178.951 150.252 178.581 150.605 178.107C150.957 177.633 151.146 177.076 151.146 176.505C151.149 175.959 150.976 175.423 150.648 174.963L171.931 155.842H217.456C217.592 156.371 217.891 156.855 218.319 157.238C218.747 157.621 219.287 157.887 219.876 158.007C220.465 158.127 221.08 158.095 221.649 157.915C222.219 157.734 222.721 157.414 223.097 156.989C223.473 156.564 223.707 156.052 223.774 155.513C223.841 154.974 223.737 154.428 223.474 153.94C223.211 153.451 222.8 153.039 222.288 152.751C221.776 152.463 221.184 152.31 220.58 152.311L220.632 152.326Z" fill="#2F54EB"/>
<path d="M223.881 137.163C223.153 137.164 222.448 137.388 221.88 137.797C221.313 138.206 220.917 138.776 220.757 139.414H98.7788L77.0842 158.905C76.5719 158.611 75.9759 158.456 75.3678 158.458C74.733 158.458 74.1124 158.627 73.5846 158.944C73.0568 159.261 72.6455 159.711 72.4026 160.238C72.1596 160.765 72.096 161.345 72.2199 161.904C72.3437 162.464 72.6494 162.977 73.0983 163.381C73.5471 163.784 74.1191 164.059 74.7417 164.17C75.3643 164.281 76.0095 164.224 76.596 164.006C77.1825 163.787 77.6837 163.418 78.0364 162.944C78.3891 162.469 78.5774 161.912 78.5774 161.342C78.5802 160.795 78.4074 160.26 78.0797 159.8L99.3623 140.679H220.706C220.841 141.207 221.141 141.691 221.568 142.074C221.996 142.457 222.536 142.724 223.125 142.843C223.714 142.963 224.329 142.931 224.899 142.751C225.469 142.571 225.97 142.25 226.346 141.825C226.722 141.4 226.957 140.889 227.023 140.349C227.09 139.81 226.986 139.265 226.723 138.776C226.46 138.288 226.049 137.876 225.537 137.587C225.026 137.299 224.434 137.147 223.83 137.147L223.881 137.163Z" fill="#2F54EB"/>
<path d="M237.874 139.855C237.874 156.305 224.538 169.641 208.088 169.641C191.638 169.641 178.303 156.305 178.303 139.855C178.303 123.405 191.638 110.07 208.088 110.07C224.538 110.07 237.874 123.405 237.874 139.855Z" fill="#2F54EB"/>
<path d="M205.408 145.058H198.436L197.14 148.272H192.383L199.661 131.732H204.253L211.554 148.272H206.701L205.408 145.058ZM204.041 141.609L201.922 136.316L199.802 141.609H204.041Z" fill="white"/>
<path d="M215.7 131.732H220.363V148.272H215.7V131.732Z" fill="white"/>
<path d="M356.532 164.622C356.532 164.622 342.944 156.575 340.278 176.69C337.613 196.805 340.665 199.413 350.757 198.262C360.849 197.111 363.913 184.654 366.249 178.808C368.585 172.963 361.142 166.305 356.532 164.622Z" fill="#E6B1A0"/>
<path d="M338.756 206.292C338.756 206.292 343.129 215.557 355.677 212.353C355.677 212.353 358.234 196.081 361.856 188.903C365.478 181.725 344.467 196.306 344.467 196.306C344.632 196.471 344.535 197.237 344.237 198.273C343.937 199.308 343.56 200.319 343.112 201.299C342.008 203.717 340.396 206.13 338.756 206.292Z" fill="#E6B1A0"/>
<path d="M363.238 188.451C363.238 188.451 364.754 182.286 362.615 181.404C360.476 180.521 359.371 182.85 359.371 182.85L357.025 182.572C357.025 182.572 359.396 177.498 357.497 175.884C355.598 174.269 342.369 174.308 341.099 172.201C339.828 170.094 344.048 159.618 347.688 159.164C351.327 158.711 361.171 158.187 366.234 164.588C366.234 164.588 371.438 165.596 370.897 169.9C370.355 174.203 365.559 185.853 363.238 188.451Z" fill="#000103"/>
<path d="M344.495 201.368C355.326 200.93 358.223 194.308 358.266 194.206C353.032 199.634 345.636 198.237 345.636 198.237C345.323 199.305 344.941 200.351 344.495 201.368Z" fill="#B57D6B"/>
<path d="M360.607 180.743C361.338 179.263 365.502 179.95 365.099 182.388C364.695 184.826 361.256 188.235 359.867 187.356C358.477 186.477 359.603 182.781 360.607 180.743Z" fill="#E6B1A0"/>
<path d="M323.548 339.842C323.548 339.842 327.976 344.839 328.189 345.843C328.399 346.848 323.63 350.037 321.789 350.107C319.95 350.177 320.295 346.013 317.534 345.024C314.773 344.035 323.548 339.842 323.548 339.842Z" fill="#B57D6B"/>
<path d="M388.855 341.109C386.975 340.29 385.043 339.572 383.074 338.959C380.454 338.21 378.433 346.067 378.599 346.61C378.764 347.153 385.043 348.004 386.364 349.085C387.685 350.167 388.855 341.109 388.855 341.109Z" fill="#B57D6B"/>
<path d="M390.648 128.004C391.001 128.049 391.335 128.175 391.622 128.373C391.765 128.471 391.899 128.579 392.024 128.696C392.124 128.79 392.183 128.854 392.242 128.919L392.45 128.786C392.665 128.673 392.898 128.591 393.137 128.544C393.371 128.493 393.612 128.475 393.852 128.493C394.112 128.512 394.37 128.566 394.614 128.652C394.837 128.728 395.052 128.823 395.253 128.938C395.493 129.066 395.719 129.214 395.93 129.38C396.207 129.62 396.46 129.881 396.688 130.162C396.92 130.093 397.163 130.049 397.409 130.039C397.532 130.037 397.655 130.045 397.776 130.063C398.053 130.082 398.325 130.136 398.588 130.219C398.938 130.34 399.261 130.519 399.543 130.747C399.842 130.994 400.097 131.283 400.302 131.605C400.671 132.221 400.897 132.905 400.965 133.611C401.034 134.316 400.942 135.026 400.697 135.696C400.486 136.286 400.184 136.843 399.802 137.353C399.434 137.86 399.027 138.347 398.589 138.805L398.194 139.24C397.46 139.977 396.809 140.784 396.253 141.649C396.038 142.027 395.873 142.428 395.755 142.842C395.747 142.956 395.738 143.077 395.686 143.192C395.673 143.31 395.619 143.419 395.53 143.503C395.442 143.586 395.325 143.637 395.201 143.649C395.078 143.66 394.953 143.631 394.85 143.564C394.745 143.5 394.67 143.401 394.634 143.288C394.376 143.425 394.102 143.534 393.82 143.615C393.189 143.811 392.524 143.893 391.861 143.856C391.652 143.841 391.445 143.81 391.242 143.767C390.852 143.689 390.481 143.541 390.153 143.33C389.778 143.063 389.465 142.726 389.234 142.342C388.973 141.908 388.737 141.462 388.525 141.005C388.329 140.608 388.125 140.199 387.906 139.815C387.748 139.586 387.57 139.37 387.373 139.168C387.242 139.034 387.117 138.898 386.999 138.76C386.717 138.41 386.458 138.043 386.224 137.661C385.742 136.894 385.398 136.056 385.206 135.184C385.122 134.784 385.101 134.376 385.143 133.972C385.189 133.563 385.334 133.169 385.565 132.82C385.807 132.482 386.139 132.211 386.529 132.035C386.653 131.976 386.783 131.926 386.917 131.886L387.083 131.851L387.142 131.821L387.265 131.797C387.366 131.769 387.47 131.75 387.575 131.737C387.575 131.601 387.586 131.465 387.606 131.331C387.665 130.988 387.758 130.65 387.883 130.323C388.107 129.679 388.484 129.092 388.988 128.608C389.199 128.404 389.453 128.244 389.735 128.139C390.017 128.035 390.319 127.988 390.62 128.003L390.648 128.004Z" fill="#E6B1A0"/>
<path d="M306.234 138.266C305.899 138.263 305.569 138.345 305.273 138.504C305.124 138.582 304.982 138.672 304.848 138.774C304.762 138.835 304.681 138.899 304.605 138.97C304.552 138.91 304.496 138.855 304.434 138.806C304.248 138.661 304.043 138.542 303.823 138.458C303.611 138.376 303.387 138.327 303.158 138.313C302.912 138.299 302.663 138.315 302.42 138.362C302.2 138.413 301.985 138.482 301.777 138.569C301.535 138.665 301.3 138.781 301.076 138.915C300.766 139.113 300.47 139.334 300.191 139.577C299.981 139.479 299.76 139.403 299.532 139.35C299.419 139.335 299.305 139.326 299.19 139.324C298.927 139.307 298.662 139.324 298.403 139.377C298.058 139.448 297.726 139.584 297.43 139.778C297.109 139.983 296.824 140.241 296.584 140.539C296.151 141.113 295.84 141.772 295.673 142.475C295.507 143.178 295.488 143.91 295.619 144.621C295.737 145.247 295.94 145.853 296.218 146.424C296.496 146.991 296.805 147.541 297.148 148.072L297.464 148.568C298.047 149.416 298.542 150.325 298.938 151.279C299.084 151.69 299.182 152.117 299.232 152.55C299.224 152.673 299.215 152.79 299.207 152.912C299.204 153.047 299.251 153.177 299.339 153.278C299.427 153.379 299.55 153.442 299.68 153.455C299.785 153.458 299.888 153.433 299.978 153.379C300.067 153.327 300.14 153.25 300.188 153.156C300.411 153.333 300.651 153.485 300.906 153.608C301.471 153.893 302.085 154.067 302.713 154.119C302.911 154.133 303.11 154.135 303.308 154.122C303.685 154.093 304.054 153.995 304.395 153.831C304.784 153.613 305.125 153.316 305.396 152.957C305.706 152.565 305.996 152.156 306.26 151.731C306.51 151.352 306.76 150.965 307.014 150.613C307.198 150.401 307.396 150.205 307.611 150.025C307.746 149.913 307.883 149.791 308.014 149.664C308.335 149.355 308.632 149.02 308.903 148.666C309.472 147.958 309.917 147.158 310.219 146.299C310.361 145.907 310.442 145.496 310.462 145.081C310.478 144.657 310.4 144.237 310.232 143.848C310.054 143.474 309.78 143.156 309.441 142.925C309.33 142.848 309.216 142.778 309.098 142.714L308.947 142.662L308.886 142.657L308.782 142.608C308.687 142.601 308.59 142.54 308.498 142.505C308.407 142.47 308.517 142.238 308.528 142.096C308.523 141.737 308.485 141.38 308.414 141.029C308.329 140.329 308.09 139.658 307.718 139.062C307.544 138.835 307.326 138.645 307.077 138.509C306.826 138.372 306.552 138.291 306.268 138.269L306.234 138.266Z" fill="#E6B1A0"/>
<path d="M306.593 142.934C306.413 142.922 306.227 142.962 306.041 142.991C305.858 143.018 305.534 143.083 305.271 143.139C304.844 143.246 304.429 143.385 304.028 143.552C304.007 143.563 303.988 143.577 303.972 143.595C303.956 143.611 303.944 143.631 303.939 143.652C303.932 143.673 303.93 143.694 303.933 143.717C303.935 143.738 303.944 143.759 303.956 143.777C303.984 143.813 304.024 143.839 304.072 143.85C304.117 143.866 304.168 143.869 304.215 143.859L304.537 143.729C304.811 143.634 305.084 143.554 305.364 143.478C305.651 143.405 305.945 143.352 306.243 143.319L306.204 143.316C306.325 143.323 306.449 143.285 306.572 143.279C306.598 143.279 306.625 143.275 306.649 143.267C306.672 143.258 306.695 143.246 306.714 143.23C306.723 143.213 306.73 143.193 306.731 143.175C306.731 143.156 306.73 143.136 306.723 143.118C306.724 143.079 306.709 143.039 306.679 143.009C306.649 142.978 306.607 142.958 306.561 142.952L306.593 142.934Z" fill="#E6B1A0"/>
<path d="M326.748 340.124C320.5 330.83 312.469 319.205 309.076 308.62C308.856 307.967 308.717 307.288 308.661 306.602C308.597 305.612 308.799 304.623 309.244 303.736C309.551 303.165 309.92 302.628 310.345 302.139L310.266 302.25C311.204 301.266 312.253 300.393 313.392 299.651L313.288 299.742L313.484 299.61C315.211 298.497 317.003 297.488 318.849 296.588C320.143 295.949 321.468 295.334 322.744 294.736L324.702 293.821C328.082 292.343 331.285 290.491 334.251 288.299C333.791 290.813 333.385 293.43 332.977 296.292C332.651 298.673 332.331 301.274 332.002 304.254L331.839 305.742C331.646 307.447 331.459 309.167 331.247 310.843L331.156 311.528C330.584 315.257 330.293 319.024 330.287 322.797C330.402 327.411 331.335 331.064 333.146 333.957C333.67 334.807 334.27 335.61 334.938 336.352C335.706 337.198 336.522 338.001 337.381 338.754C339.061 340.228 340.896 341.517 342.856 342.597C346.788 344.681 350.995 346.204 355.351 347.123C356.401 347.356 357.512 347.59 358.654 347.803L360.219 348.083L361.237 348.267C366.427 349.183 375.653 350.003 381 351.041L385.122 337.106C383.987 336.816 364.648 330.697 363.453 330.362C361.328 329.8 359.263 329.034 357.284 328.077C356.294 327.58 355.367 326.968 354.522 326.254C353.956 325.735 353.451 325.151 353.021 324.515C352.563 323.799 352.186 323.032 351.899 322.231C351.523 321.098 351.298 319.92 351.226 318.728L351.233 318.639C351.156 316.36 351.368 314.08 351.865 311.855L351.854 311.992C352.068 310.965 352.342 309.859 352.683 308.6C353.071 307.171 353.483 305.785 353.898 304.461C354.727 301.835 355.676 299.064 357.02 295.426C357.487 294.162 357.959 292.897 358.426 291.634C358.89 290.368 359.37 289.113 359.836 287.847C360.363 286.415 360.939 284.972 361.49 283.575C361.821 282.75 362.144 281.931 362.466 281.111C363.054 279.593 363.736 277.751 364.282 275.939L364.79 274.098C365.403 271.795 365.675 269.416 365.595 267.036C365.598 266.9 365.552 266.766 365.462 266.659C365.421 266.607 365.367 266.563 365.306 266.531C365.245 266.499 365.178 266.48 365.109 266.475C365.041 266.47 364.97 266.48 364.903 266.502C364.838 266.524 364.777 266.559 364.726 266.607C364.672 266.648 364.627 266.702 364.597 266.763C364.566 266.825 364.549 266.892 364.547 266.96C364.624 268.855 364.464 270.752 364.075 272.609C364.019 272.344 363.947 272.075 363.876 271.808C363.597 270.603 362.95 269.514 362.025 268.689C361.395 268.189 360.684 267.796 359.922 267.529C359.108 267.236 358.269 267.019 357.415 266.877C356.346 266.699 355.268 266.574 354.187 266.505C353.499 266.456 352.865 266.41 352.21 266.362C349.869 266.192 347.523 266.167 345.303 266.116L341.888 266.041L341.302 265.998C340.473 265.981 339.643 265.962 338.814 265.928L338.953 265.939L338.498 265.906C337.581 265.839 336.672 265.774 335.746 265.658C334.82 265.542 333.903 265.469 332.994 265.404L332.306 265.353C330.918 265.254 329.525 265.285 328.144 265.445C328.099 265.37 328.038 265.308 327.963 265.264C327.89 265.218 327.805 265.192 327.719 265.186C327.628 265.178 327.535 265.194 327.452 265.237L327.136 265.399L326.294 265.836C326.181 265.87 326.061 265.901 325.954 265.943C325.85 265.976 325.761 266.043 325.697 266.132C322.712 267.662 319.539 269.303 316.437 271.026C312.595 273.132 308.88 275.461 305.314 278.002C301.808 280.466 298.584 283.301 295.696 286.461C294.109 288.164 292.726 290.046 291.576 292.068C291.015 293.083 290.535 294.14 290.142 295.231C289.774 296.262 289.493 297.324 289.302 298.402C288.939 300.497 288.904 302.634 289.193 304.741C289.407 306.921 289.952 309.056 290.809 311.073C296.929 324.245 307.954 337.282 316.404 348.593L326.748 340.124Z" fill="#292C47"/>
<path d="M384.189 348.959C384.189 348.959 386.359 353.104 386.69 356.375C387.02 359.645 385.811 364.085 386.658 366.285C387.236 367.881 390.675 372.841 395.285 361.719C399.895 350.598 402.91 345.581 401.621 343.645C400.331 341.709 387.589 339.842 387.589 339.842C387.589 339.842 387.451 342.858 384.189 348.959Z" fill="#2E3048"/>
<path d="M318.787 348.545C318.787 348.545 317.857 353.126 316.043 355.876C314.23 358.626 310.497 361.326 309.758 363.57C309.226 365.181 308.741 371.158 319.317 365.362C329.893 359.565 335.437 357.566 335.657 355.23C335.876 352.894 327.199 343.575 327.199 343.575C327.199 343.575 325.165 345.821 318.787 348.545Z" fill="#2E3048"/>
<path d="M327.17 196.407C325.758 192.048 314.187 183.218 312.164 179.612C310.14 176.007 304.902 162.832 304.504 159.711C304.103 156.591 305.189 153.077 303.719 151.335C302.251 149.593 298.901 150.481 298.535 152.346C298.168 154.213 298.122 162.403 299.948 168.144C301.775 173.884 306.028 185.533 309.435 189.675C312.843 193.817 318.418 203.212 320.215 204.381C322.011 205.552 328.078 199.239 327.17 196.407Z" fill="#E6B1A0"/>
<path d="M389.561 142.251C389.561 142.251 389.41 162.471 385.841 170.136C382.273 177.8 371.694 193.974 369.542 195.753C367.389 197.532 378.124 206.535 379.322 206.389C380.517 206.244 387.193 195.501 389.759 188.455C393.13 179.086 395.163 169.308 395.802 159.396C396.135 154.04 396.592 145.387 396.115 142.773C395.739 142.289 395.265 141.888 394.721 141.596C394.176 141.305 393.577 141.128 392.957 141.079C392.338 141.031 391.717 141.109 391.131 141.311C390.546 141.512 390.011 141.833 389.561 142.251Z" fill="#E6B1A0"/>
<path d="M356.407 202.658C356.407 202.658 347.559 205.249 344.012 203.504C340.463 201.759 333.338 231.143 333.256 234.366C333.177 237.587 328.195 264.677 328.195 264.677C328.195 264.677 366.542 273.094 366.69 271.521C366.839 269.949 368.524 208.542 366.063 205.939C363.601 203.336 356.407 202.658 356.407 202.658Z" fill="#FA541C"/>
<path d="M313.264 203.507C314.317 204.762 315.367 205.948 316.381 207.054L316.614 207.301C317.066 207.793 317.539 208.309 318.026 208.798C318.513 209.286 318.991 209.711 319.477 210.13C320.133 210.693 320.832 211.24 321.506 211.77L322.467 212.537C323.382 213.253 324.241 214.037 325.037 214.885C325.596 215.514 326.075 216.209 326.463 216.955C326.776 217.602 327.013 218.284 327.165 218.987C327.305 219.694 327.378 220.415 327.379 221.135C327.389 221.777 327.365 222.48 327.328 223.279L327.323 223.356L327.214 265.028L329.343 265.184C330.092 263.607 332.176 254.967 332.698 253.428C333.221 251.89 333.518 249.535 333.997 247.729C334.949 244.228 334.068 240.511 334.759 237.234L336.332 235.257C337.617 229.133 338.007 222.857 337.494 216.621L337.499 216.552C338.213 214.403 339.033 212.292 339.959 210.225C340.119 209.875 340.273 209.551 340.44 209.18C340.636 208.692 340.845 208.212 341.067 207.732L341.323 207.208C341.853 206.039 342.431 204.903 343.035 203.777L343.042 203.693C343.04 203.672 343.042 203.652 343.045 203.631L343.127 203.469C343.079 203.385 343.006 203.319 342.918 203.279C342.878 203.257 342.834 203.242 342.789 203.236C342.696 203.167 342.59 203.116 342.479 203.088C340.022 202.207 337.689 201.018 335.533 199.55C334.018 198.523 332.584 197.383 331.241 196.141C330.111 195.097 328.973 193.885 327.638 192.393L313.264 203.507Z" fill="#FA541C"/>
<path d="M384.189 205.47C383.354 206.615 382.499 207.743 381.644 208.88C380.444 210.467 379.2 212.109 378.031 213.754C375.939 216.585 374.153 219.631 372.704 222.841L372.71 222.758C372.333 223.68 372.006 224.563 371.751 225.409C371.535 226.131 371.371 226.866 371.261 227.61L366.95 271.717L354.919 266.171C355.123 263.922 358.445 261.637 358.629 259.386C358.883 255.865 359.108 252.75 359.172 249.867C359.236 246.985 359.239 243.792 359.102 240.333C358.992 237.464 358.788 234.361 358.484 230.848C358.353 229.308 358.202 227.773 358.042 226.238C357.885 224.703 357.713 223.084 357.522 221.506L357.528 221.429C357.306 219.724 356.996 217.997 356.701 216.335C356.496 215.17 356.282 214.011 356.105 212.828C355.814 210.944 353.076 209.836 353.128 207.396C353.15 207.093 352.426 205.848 352.461 205.547C352.496 205.244 353.896 204.806 353.921 204.441C353.988 204.203 354.801 204.041 354.864 203.817C355.774 203.191 357.808 202.273 358.688 201.686C360.406 200.537 362.192 199.359 363.873 198.089C365.112 197.145 366.292 196.125 367.407 195.036C368.545 193.917 369.606 192.722 370.582 191.459L384.189 205.47Z" fill="#FA541C"/>
<g style="mix-blend-mode:multiply">
<g style="mix-blend-mode:multiply">
<path d="M351.4 424.859C384.316 424.859 411 419.258 411 412.35C411 405.441 384.316 399.841 351.4 399.841C318.484 399.841 291.8 405.441 291.8 412.35C291.8 419.258 318.484 424.859 351.4 424.859Z" fill="#F0F5FF"/>
</g>
</g>
<path fill-rule="evenodd" clip-rule="evenodd" d="M346.523 190.697C346.322 190.47 345.986 190.459 345.772 190.673C345.321 191.125 344.768 191.445 344.167 191.604C343.566 191.763 342.936 191.755 342.339 191.58C342.056 191.498 341.764 191.675 341.686 191.976C341.608 192.276 341.775 192.587 342.058 192.67C342.831 192.896 343.645 192.906 344.423 192.701C345.201 192.495 345.916 192.08 346.5 191.496C346.713 191.282 346.724 190.924 346.523 190.697Z" fill="black"/>
<path d="M344.29 183.484C344.542 183.58 344.807 183.551 345.048 183.402C345.289 183.253 345.494 182.99 345.634 182.651C345.775 182.312 345.844 181.913 345.832 181.51C345.82 181.107 345.728 180.72 345.568 180.402C345.408 180.085 345.188 179.853 344.939 179.739C344.69 179.625 344.425 179.634 344.18 179.766C343.935 179.897 343.722 180.145 343.571 180.473C343.421 180.802 343.34 181.195 343.34 181.599C343.309 182.043 343.392 182.489 343.569 182.841C343.747 183.192 344.005 183.423 344.29 183.484Z" fill="black"/>
<path d="M340 178.104C341.104 176.667 342.794 175.669 344.713 175.32C345.581 175.038 346.511 174.941 347.429 175.035C348.347 175.129 349.227 175.411 350 175.861C346.756 176.704 340 178.104 340 178.104Z" fill="black"/>
<defs>
<filter id="filter0_d" x="228.705" y="59.9946" width="186.22" height="80.0751" filterUnits="userSpaceOnUse" color-interpolation-filters="sRGB">
<feFlood flood-opacity="0" result="BackgroundImageFix"/>
<feColorMatrix in="SourceAlpha" type="matrix" values="0 0 0 0 0 0 0 0 0 0 0 0 0 0 0 0 0 0 127 0"/>
<feOffset dy="10"/>
<feGaussianBlur stdDeviation="10"/>
<feColorMatrix type="matrix" values="0 0 0 0 0 0 0 0 0 0 0 0 0 0 0 0 0 0 0.1 0"/>
<feBlend mode="normal" in2="BackgroundImageFix" result="effect1_dropShadow"/>
<feBlend mode="normal" in="SourceGraphic" in2="effect1_dropShadow" result="shape"/>
</filter>
<filter id="filter1_d" x="228.705" y="157.475" width="186.22" height="80.0751" filterUnits="userSpaceOnUse" color-interpolation-filters="sRGB">
<feFlood flood-opacity="0" result="BackgroundImageFix"/>
<feColorMatrix in="SourceAlpha" type="matrix" values="0 0 0 0 0 0 0 0 0 0 0 0 0 0 0 0 0 0 127 0"/>
<feOffset dy="10"/>
<feGaussianBlur stdDeviation="10"/>
<feColorMatrix type="matrix" values="0 0 0 0 0 0 0 0 0 0 0 0 0 0 0 0 0 0 0.1 0"/>
<feBlend mode="normal" in2="BackgroundImageFix" result="effect1_dropShadow"/>
<feBlend mode="normal" in="SourceGraphic" in2="effect1_dropShadow" result="shape"/>
</filter>
<filter id="filter2_d" x="267.697" y="108.734" width="186.22" height="80.0751" filterUnits="userSpaceOnUse" color-interpolation-filters="sRGB">
<feFlood flood-opacity="0" result="BackgroundImageFix"/>
<feColorMatrix in="SourceAlpha" type="matrix" values="0 0 0 0 0 0 0 0 0 0 0 0 0 0 0 0 0 0 127 0"/>
<feOffset dy="10"/>
<feGaussianBlur stdDeviation="10"/>
<feColorMatrix type="matrix" values="0 0 0 0 0 0 0 0 0 0 0 0 0 0 0 0 0 0 0.1 0"/>
<feBlend mode="normal" in2="BackgroundImageFix" result="effect1_dropShadow"/>
<feBlend mode="normal" in="SourceGraphic" in2="effect1_dropShadow" result="shape"/>
</filter>
<filter id="filter3_dd" x="11" y="34" width="163.475" height="219.796" filterUnits="userSpaceOnUse" color-interpolation-filters="sRGB">
<feFlood flood-opacity="0" result="BackgroundImageFix"/>
<feColorMatrix in="SourceAlpha" type="matrix" values="0 0 0 0 0 0 0 0 0 0 0 0 0 0 0 0 0 0 127 0"/>
<feOffset dy="10"/>
<feGaussianBlur stdDeviation="10"/>
<feColorMatrix type="matrix" values="0 0 0 0 0 0 0 0 0 0 0 0 0 0 0 0 0 0 0.1 0"/>
<feBlend mode="normal" in2="BackgroundImageFix" result="effect1_dropShadow"/>
<feColorMatrix in="SourceAlpha" type="matrix" values="0 0 0 0 0 0 0 0 0 0 0 0 0 0 0 0 0 0 127 0"/>
<feOffset/>
<feGaussianBlur stdDeviation="2"/>
<feColorMatrix type="matrix" values="0 0 0 0 0 0 0 0 0 0 0 0 0 0 0 0 0 0 0.1 0"/>
<feBlend mode="normal" in2="effect1_dropShadow" result="effect2_dropShadow"/>
<feBlend mode="normal" in="SourceGraphic" in2="effect2_dropShadow" result="shape"/>
</filter>
<filter id="filter4_d" x="70.5244" y="158.145" width="111.432" height="91.0823" filterUnits="userSpaceOnUse" color-interpolation-filters="sRGB">
<feFlood flood-opacity="0" result="BackgroundImageFix"/>
<feColorMatrix in="SourceAlpha" type="matrix" values="0 0 0 0 0 0 0 0 0 0 0 0 0 0 0 0 0 0 127 0"/>
<feOffset dy="16"/>
<feGaussianBlur stdDeviation="16"/>
<feColorMatrix type="matrix" values="0 0 0 0 0 0 0 0 0 0 0 0 0 0 0 0 0 0 0.1 0"/>
<feBlend mode="normal" in2="BackgroundImageFix" result="effect1_dropShadow"/>
<feBlend mode="normal" in="SourceGraphic" in2="effect1_dropShadow" result="shape"/>
</filter>
<filter id="filter5_d" x="49.4434" y="52.8252" width="129.502" height="118.165" filterUnits="userSpaceOnUse" color-interpolation-filters="sRGB">
<feFlood flood-opacity="0" result="BackgroundImageFix"/>
<feColorMatrix in="SourceAlpha" type="matrix" values="0 0 0 0 0 0 0 0 0 0 0 0 0 0 0 0 0 0 127 0"/>
<feOffset dy="16"/>
<feGaussianBlur stdDeviation="16"/>
<feColorMatrix type="matrix" values="0 0 0 0 0 0 0 0 0 0 0 0 0 0 0 0 0 0 0.1 0"/>
<feBlend mode="normal" in2="BackgroundImageFix" result="effect1_dropShadow"/>
<feBlend mode="normal" in="SourceGraphic" in2="effect1_dropShadow" result="shape"/>
</filter>
<filter id="filter6_d" x="9.54004" y="136.329" width="97.1273" height="96.3739" filterUnits="userSpaceOnUse" color-interpolation-filters="sRGB">
<feFlood flood-opacity="0" result="BackgroundImageFix"/>
<feColorMatrix in="SourceAlpha" type="matrix" values="0 0 0 0 0 0 0 0 0 0 0 0 0 0 0 0 0 0 127 0"/>
<feOffset dy="16"/>
<feGaussianBlur stdDeviation="16"/>
<feColorMatrix type="matrix" values="0 0 0 0 0 0 0 0 0 0 0 0 0 0 0 0 0 0 0.1 0"/>
<feBlend mode="normal" in2="BackgroundImageFix" result="effect1_dropShadow"/>
<feBlend mode="normal" in="SourceGraphic" in2="effect1_dropShadow" result="shape"/>
</filter>
</defs>
</svg>
