<svg width="468" height="468" viewBox="0 0 468 468" fill="none" xmlns="http://www.w3.org/2000/svg">
<g filter="url(#filter0_dd)">
<path d="M380.89 129.209H115.433C112.671 129.209 110.433 131.448 110.433 134.209V322.28C110.433 325.041 112.671 327.28 115.433 327.28H380.89C383.651 327.28 385.89 325.041 385.89 322.28V134.209C385.89 131.448 383.651 129.209 380.89 129.209Z" fill="white"/>
</g>
<mask id="mask0" mask-type="alpha" maskUnits="userSpaceOnUse" x="254" y="279" width="105" height="139">
<path fill-rule="evenodd" clip-rule="evenodd" d="M351.547 355.669C352.55 357.069 353.473 358.553 354.304 360.115C364.464 379.204 357.226 402.915 338.137 413.075C319.048 423.234 295.338 415.996 285.179 396.907C284.347 395.345 283.632 393.751 283.03 392.136L282.919 392.195L254.302 295.759L284.392 279.744L347.218 350.603C348.454 351.821 349.618 353.131 350.699 354.53L351.657 355.61L351.547 355.669Z" fill="#1AC4A5"/>
</mask>
<g mask="url(#mask0)">
<path d="M343.26 433.062C371.091 419.22 374.213 368.914 350.234 320.7C326.255 272.486 284.255 244.622 256.424 258.464C228.594 272.305 225.471 322.611 249.45 370.825C273.429 419.039 315.429 446.903 343.26 433.062Z" fill="url(#paint0_radial)"/>
</g>
<path d="M110.7 134C110.7 131.239 112.939 129 115.7 129H380.7C383.462 129 385.7 131.239 385.7 134V149H110.7V134Z" fill="#F5F5F5"/>
<path d="M120.432 142.209C122.089 142.209 123.432 140.866 123.432 139.209C123.432 137.552 122.089 136.209 120.432 136.209C118.775 136.209 117.432 137.552 117.432 139.209C117.432 140.866 118.775 142.209 120.432 142.209Z" fill="#F5222D"/>
<path d="M129.432 142.209C131.089 142.209 132.432 140.866 132.432 139.209C132.432 137.552 131.089 136.209 129.432 136.209C127.775 136.209 126.432 137.552 126.432 139.209C126.432 140.866 127.775 142.209 129.432 142.209Z" fill="#FA8C16"/>
<path d="M138.432 142.209C140.089 142.209 141.432 140.866 141.432 139.209C141.432 137.552 140.089 136.209 138.432 136.209C136.775 136.209 135.432 137.552 135.432 139.209C135.432 140.866 136.775 142.209 138.432 142.209Z" fill="#52C41A"/>
<path d="M300.107 214.9C298.201 214.9 296.298 215.09 294.43 215.467C293.022 208.439 288.468 202.444 282.074 199.199C275.682 195.954 268.153 195.818 261.646 198.829C255.757 182.613 237.835 174.241 221.614 180.128C205.394 186.015 197.019 203.934 202.907 220.148C188.699 220.597 177.475 232.355 177.687 246.565C177.901 260.776 189.473 272.19 203.69 272.213H300.107C315.936 272.213 328.771 259.383 328.771 243.556C328.771 227.73 315.936 214.9 300.107 214.9Z" fill="#F0F5FF"/>
<path d="M227.079 226.918C228.562 225.717 230.737 225.949 231.936 227.435L238.748 235.88V229.61C238.748 227.699 240.295 226.15 242.203 226.15C244.11 226.15 245.657 227.699 245.657 229.61V245.666C245.657 247.133 244.734 248.44 243.354 248.929C241.974 249.417 240.436 248.982 239.516 247.841L232.704 239.396V245.695C232.704 247.606 231.157 249.155 229.249 249.155C227.342 249.155 225.795 247.606 225.795 245.695V229.692C225.795 229.678 225.795 229.664 225.796 229.649C225.785 228.627 226.224 227.611 227.079 226.918Z" fill="#ADC6FF"/>
<path d="M222.503 229.692C222.503 227.781 220.957 226.232 219.049 226.232C217.142 226.232 215.595 227.781 215.595 229.692V245.695C215.595 247.606 217.142 249.155 219.049 249.155C220.957 249.155 222.503 247.606 222.503 245.695V229.692Z" fill="#ADC6FF"/>
<path d="M262.724 227.435C263.923 225.949 266.097 225.717 267.581 226.918C269.065 228.119 269.296 230.298 268.097 231.784L255.144 247.841C254.224 248.982 252.686 249.417 251.306 248.929C249.926 248.44 249.003 247.133 249.003 245.666V229.61C249.003 227.699 250.55 226.15 252.457 226.15C254.365 226.15 255.911 227.699 255.911 229.61V235.88L262.724 227.435Z" fill="#ADC6FF"/>
<path d="M265.602 249.18C263.367 249.18 261.47 247.545 261.47 245.07C261.47 242.596 265.602 238.368 265.602 238.368C265.602 238.368 269.566 242.646 269.566 245.07C269.566 247.495 267.838 249.18 265.602 249.18Z" fill="#ADC6FF"/>
<path d="M275.341 226.582H275.365H280.305C280.324 226.582 280.342 226.582 280.36 226.582C284.444 226.582 287.754 229.899 287.754 233.989C287.754 236.493 286.514 238.707 284.615 240.047L287.669 243.889C288.784 245.291 288.553 247.331 287.154 248.447C285.755 249.564 283.718 249.332 282.603 247.931L278.579 242.869V245.937C278.579 247.729 277.129 249.181 275.341 249.181C273.552 249.181 272.102 247.729 272.102 245.937V229.826C272.102 228.035 273.552 226.582 275.341 226.582Z" fill="#ADC6FF"/>
<mask id="mask1" mask-type="alpha" maskUnits="userSpaceOnUse" x="319" y="154" width="146" height="79">
<path fill-rule="evenodd" clip-rule="evenodd" d="M427.603 232.244C429.323 232.136 431.055 231.913 432.791 231.569C454.003 227.369 467.795 206.769 463.595 185.556C459.395 164.344 438.795 150.553 417.583 154.753C415.847 155.097 414.16 155.551 412.529 156.106L412.504 155.982L319.7 194.793L326.32 228.231L420.942 232.094C422.667 232.282 424.418 232.355 426.185 232.308L427.627 232.367L427.603 232.244Z" fill="#1AC4A5"/>
</mask>
<g mask="url(#mask1)">
<path d="M482.24 176.544C489.225 206.832 452.351 241.194 399.881 253.294C347.41 265.394 299.212 250.65 292.227 220.363C285.243 190.075 322.116 155.712 374.587 143.612C427.058 131.512 475.256 146.256 482.24 176.544Z" fill="url(#paint1_radial)"/>
</g>
<mask id="mask2" mask-type="alpha" maskUnits="userSpaceOnUse" x="24" y="145" width="146" height="79">
<path fill-rule="evenodd" clip-rule="evenodd" d="M61.4459 223.244C59.7263 223.136 57.9939 222.913 56.2574 222.569C35.0454 218.369 21.2534 197.769 25.4534 176.556C29.6534 155.344 50.2534 141.553 71.4654 145.753C73.202 146.097 74.8889 146.551 76.5202 147.106L76.5446 146.982L169.349 185.793L162.729 219.231L68.1073 223.094C66.382 223.282 64.6312 223.355 62.8641 223.308L61.4216 223.367L61.4459 223.244Z" fill="#1AC4A5"/>
</mask>
<g mask="url(#mask2)">
<path d="M0.410818 174.825C-4.31611 202.853 37.0161 233.19 92.7289 242.586C148.442 251.983 197.438 236.879 202.165 208.852C206.892 180.825 165.559 150.487 109.847 141.091C54.1338 131.695 5.13775 146.798 0.410818 174.825Z" fill="url(#paint2_radial)"/>
</g>
<mask id="mask3" mask-type="alpha" maskUnits="userSpaceOnUse" x="218" y="43" width="79" height="145">
<path fill-rule="evenodd" clip-rule="evenodd" d="M295.835 90.4531C296.168 88.7626 296.393 87.0304 296.502 85.2637C297.841 63.6813 281.43 45.0997 259.847 43.7614C238.264 42.4233 219.684 58.834 218.346 80.4164C218.236 82.1832 218.245 83.93 218.367 85.6489L218.241 85.6411L232.149 185.268L266.171 187.378L293.994 96.8568C294.614 95.2361 295.131 93.5617 295.535 91.8409L295.959 90.4609L295.835 90.4531Z" fill="#1AC4A5"/>
</mask>
<g mask="url(#mask3)">
<path d="M270.992 25.0872C301.534 30.8611 318.709 75.6568 309.354 125.141C299.999 174.626 267.657 210.06 237.115 204.286C206.573 198.512 189.398 153.717 198.753 104.232C208.108 54.7477 240.45 19.3133 270.992 25.0872Z" fill="url(#paint3_radial)"/>
</g>
<path d="M264.068 60.4242L273.661 70.1392C273.928 70.4099 274.08 70.7757 274.08 71.1593V98.9871C274.08 99.7861 273.442 100.431 272.653 100.431H244.127C243.338 100.431 242.7 99.7861 242.7 98.9871V61.444C242.7 60.6453 243.338 60 244.127 60H263.057C263.435 60 263.801 60.1534 264.068 60.4242Z" fill="white"/>
<path d="M259.597 64.8276H246.321V67.2414H259.597V64.8276Z" fill="#E8E8E8"/>
<path d="M270.459 76.897H246.321V79.3108H270.459V76.897Z" fill="#E8E8E8"/>
<path d="M262.01 76.897H252.958V79.3108H262.01V76.897Z" fill="#2F54EB"/>
<path d="M268.648 88.9653H246.321V91.3791H268.648V88.9653Z" fill="#E8E8E8"/>
<path d="M263.821 88.9653H252.355V91.3791H263.821V88.9653Z" fill="#FFC53D"/>
<path d="M268.648 69.0522H246.321V71.466H268.648V69.0522Z" fill="#E8E8E8"/>
<path d="M258.993 69.0522H251.148V71.466H258.993V69.0522Z" fill="#FA541C"/>
<path d="M265.028 81.1206H246.321V83.5344H265.028V81.1206Z" fill="#E8E8E8"/>
<path d="M254.769 81.1206H248.131V83.5344H254.769V81.1206Z" fill="#2F54EB"/>
<path d="M261.407 93.1899H246.321V95.6037H261.407V93.1899Z" fill="#E8E8E8"/>
<rect x="401.354" y="179.661" width="39.6923" height="27.6786" fill="white"/>
<path d="M401.354 179.411H401.104V179.661V207.893V208.143H401.354H441.598H441.848V207.893V179.661V179.411H441.598H401.354ZM402.363 206.824V180.729H440.588V206.824H402.363Z" fill="#FA541C" stroke="#FA541C" stroke-width="0.5"/>
<path d="M400.251 178.554H402.457V180.768H400.251V178.554Z" fill="white"/>
<path d="M400.251 206.232H402.457V208.446H400.251V206.232Z" fill="white"/>
<path d="M439.944 178.554H442.149V180.768H439.944V178.554Z" fill="white"/>
<path d="M439.944 206.232H442.149V208.446H439.944V206.232Z" fill="white"/>
<path fill-rule="evenodd" clip-rule="evenodd" d="M399.7 178H403.008V181.321H399.7V178ZM400.645 178.949V180.372H402.063V178.949H400.645Z" fill="#FA541C"/>
<path fill-rule="evenodd" clip-rule="evenodd" d="M399.7 205.679H403.008V209H399.7V205.679ZM400.645 206.628V208.051H402.063V206.628H400.645Z" fill="#FA541C"/>
<path fill-rule="evenodd" clip-rule="evenodd" d="M439.393 178H442.7V181.321H439.393V178ZM440.338 178.949V180.372H441.755V178.949H440.338Z" fill="#FA541C"/>
<path fill-rule="evenodd" clip-rule="evenodd" d="M439.393 205.679H442.7V209H439.393V205.679ZM440.338 206.628V208.051H441.755V206.628H440.338Z" fill="#FA541C"/>
<path d="M412.864 184.089C414.673 184.089 416.138 185.539 416.138 187.328C416.138 189.118 414.673 190.566 412.864 190.566C411.055 190.566 409.59 189.118 409.59 187.328C409.59 185.539 411.055 184.089 412.864 184.089ZM437.09 207.893H406.971C406.423 207.893 406.12 207.27 406.456 206.849L414.624 196.55C414.685 196.472 414.763 196.41 414.853 196.367C414.942 196.324 415.04 196.301 415.139 196.301C415.239 196.301 415.337 196.324 415.426 196.367C415.516 196.41 415.594 196.472 415.655 196.55L419.019 200.792L425.386 192.761C425.447 192.684 425.526 192.621 425.615 192.578C425.704 192.534 425.802 192.513 425.902 192.513C426.001 192.513 426.099 192.534 426.189 192.578C426.278 192.621 426.356 192.684 426.417 192.761L437.589 206.849C437.941 207.27 437.63 207.893 437.09 207.893Z" fill="#FA541C"/>
<path d="M298.383 354.696C298.383 353.591 299.278 352.696 300.383 352.696H316.428C317.532 352.696 318.428 353.591 318.428 354.696V370.741C318.428 371.845 317.532 372.741 316.428 372.741H300.383C299.278 372.741 298.383 371.845 298.383 370.741V354.696Z" fill="white"/>
<path d="M298.383 377.308C298.383 376.203 299.278 375.308 300.383 375.308H316.428C317.532 375.308 318.428 376.203 318.428 377.308V393.353C318.428 394.457 317.532 395.353 316.428 395.353H300.383C299.278 395.353 298.383 394.457 298.383 393.353V377.308Z" fill="white"/>
<path d="M320.655 365.089C320.655 363.985 321.551 363.089 322.655 363.089H338.7C339.805 363.089 340.7 363.985 340.7 365.089V381.134C340.7 382.239 339.805 383.134 338.7 383.134H322.655C321.551 383.134 320.655 382.239 320.655 381.134V365.089Z" fill="white"/>
<path d="M334.901 375.986C335.506 375.986 335.999 375.486 335.999 374.873C335.999 374.133 334.901 372.926 334.901 372.926C334.901 372.926 333.803 374.133 333.803 374.873C333.803 375.486 334.297 375.986 334.901 375.986ZM329.687 375.377C329.785 375.474 329.944 375.474 330.041 375.377L333.582 371.837C333.68 371.738 333.68 371.58 333.582 371.483L330.042 367.943C330.034 367.935 330.024 367.926 330.015 367.92L328.933 366.838C328.91 366.814 328.878 366.802 328.845 366.802C328.812 366.802 328.78 366.814 328.756 366.838L328.093 367.502C328.069 367.525 328.056 367.557 328.056 367.59C328.056 367.624 328.069 367.655 328.093 367.679L329.022 368.608L326.148 371.483C326.05 371.581 326.05 371.74 326.148 371.837L329.687 375.377ZM329.865 369.173L332.339 371.647H327.393L329.865 369.173ZM336.804 376.978H325.963C325.902 376.978 325.853 377.028 325.853 377.089V378.194C325.853 378.255 325.902 378.306 325.963 378.306H336.804C336.865 378.306 336.915 378.255 336.915 378.194V377.089C336.915 377.028 336.865 376.978 336.804 376.978Z" fill="#2F54EB"/>
<path d="M313.489 361.432H309.285C309.224 361.432 309.174 361.482 309.174 361.543V363.092C309.174 363.153 309.224 363.202 309.285 363.202H309.949C310.01 363.202 310.059 363.153 310.059 363.092V362.317H310.889V366.742H310.253C310.192 366.742 310.142 366.792 310.142 366.853V367.517C310.142 367.578 310.192 367.627 310.253 367.627H312.521C312.582 367.627 312.631 367.578 312.631 367.517V366.853C312.631 366.792 312.582 366.742 312.521 366.742H311.885V362.317H312.714V363.092C312.714 363.153 312.764 363.202 312.825 363.202H313.489C313.549 363.202 313.599 363.153 313.599 363.092V361.543C313.599 361.482 313.549 361.432 313.489 361.432ZM309.838 359.773V358.003C309.838 357.942 309.788 357.893 309.727 357.893H302.205C302.144 357.893 302.095 357.942 302.095 358.003V359.773C302.095 359.834 302.144 359.884 302.205 359.884H302.98C303.041 359.884 303.09 359.834 303.09 359.773V358.888H305.413V366.632H304.141C304.08 366.632 304.031 366.681 304.031 366.742V367.517C304.031 367.578 304.08 367.627 304.141 367.627H307.792C307.852 367.627 307.902 367.578 307.902 367.517V366.742C307.902 366.681 307.852 366.632 307.792 366.632H306.52V358.888H308.843V359.773C308.843 359.834 308.892 359.884 308.953 359.884H309.727C309.788 359.884 309.838 359.834 309.838 359.773Z" fill="#2F54EB"/>
<path d="M310.232 380.526H302.84C302.78 380.526 302.731 380.575 302.731 380.634V382.374C302.731 382.434 302.78 382.483 302.84 382.483H303.601C303.661 382.483 303.71 382.434 303.71 382.374V381.504H305.992V389.114H304.743C304.683 389.114 304.634 389.163 304.634 389.223V389.984C304.634 390.044 304.683 390.092 304.743 390.092H308.33C308.39 390.092 308.438 390.044 308.438 389.984V389.223C308.438 389.163 308.39 389.114 308.33 389.114H307.08V381.504H309.362V382.374C309.362 382.434 309.412 382.483 309.471 382.483H310.232C310.292 382.483 310.34 382.434 310.34 382.374V380.634C310.34 380.575 310.292 380.526 310.232 380.526ZM313.939 387.945H313.058V382.673H313.939C314.021 382.673 314.067 382.578 314.016 382.514L312.647 380.78C312.638 380.768 312.626 380.759 312.613 380.752C312.599 380.746 312.585 380.742 312.57 380.742C312.555 380.742 312.54 380.746 312.527 380.752C312.514 380.759 312.502 380.768 312.493 380.78L311.123 382.514C311.112 382.528 311.105 382.546 311.103 382.564C311.101 382.582 311.104 382.601 311.113 382.618C311.12 382.634 311.133 382.649 311.149 382.658C311.164 382.668 311.182 382.673 311.201 382.673H312.08V387.945H311.2C311.118 387.945 311.072 388.041 311.122 388.105L312.492 389.837C312.531 389.887 312.607 389.887 312.645 389.837L314.015 388.105C314.026 388.09 314.034 388.073 314.036 388.055C314.038 388.036 314.035 388.018 314.027 388.001C314.019 387.984 314.006 387.97 313.991 387.961C313.975 387.951 313.957 387.945 313.939 387.945Z" fill="#2F54EB"/>
<path d="M91.7003 180.709C91.7003 179.319 90.6062 178.193 89.2567 178.193H73.4265C72.077 178.193 70.9829 179.319 70.9829 180.709V191.499C70.9829 192.888 72.077 194.014 73.4265 194.014H89.2567C90.6062 194.014 91.7003 192.888 91.7003 191.499V180.709Z" fill="#FAFAFA"/>
<path d="M70.9827 183.969L69.37 185.629C69.1156 185.891 69.1156 186.316 69.37 186.578L70.9827 188.238V183.969Z" fill="#FAFAFA"/>
<path d="M48.4999 191.695C48.4999 190.305 49.594 189.179 50.9435 189.179H66.7737C68.1232 189.179 69.2173 190.305 69.2173 191.695V202.484C69.2173 203.874 68.1232 205 66.7737 205H50.9435C49.594 205 48.4999 203.874 48.4999 202.484V191.695Z" fill="#FAFAFA"/>
<path d="M69.2175 194.955L70.8302 196.615C71.0846 196.877 71.0846 197.302 70.8302 197.564L69.2175 199.224V194.955Z" fill="#FAFAFA"/>
<path d="M77.2995 190.583L76.7026 189.461L77.2812 189.171C77.3222 189.154 81.2494 187.147 83.1625 183.428L83.4518 182.862L84.6181 183.424L84.3254 183.989C82.2178 188.088 78.0538 190.206 77.879 190.294L77.2995 190.583Z" fill="#EF6749"/>
<path d="M84.4237 190.583C82.1581 189.291 80.3028 187.048 78.7856 184.887L79.802 184.149C81.2113 186.159 82.9351 188.269 85.0347 189.48L84.4237 190.583Z" fill="#EF6749"/>
<path d="M77.1191 182.434H85.8678V183.72H77.1191V182.434Z" fill="#EF6749"/>
<path d="M80.8687 181.146H82.1185V183.72H80.8687V181.146Z" fill="#EF6749"/>
<path d="M43.7002 168.046C43.7002 166.364 45.0246 165 46.6584 165H65.822C67.4558 165 68.7802 166.364 68.7802 168.046V181.108C68.7802 182.79 67.4558 184.153 65.822 184.153H46.6584C45.0246 184.153 43.7002 182.79 43.7002 181.108V168.046Z" fill="#FAFAFA"/>
<path d="M68.7803 171.992L70.7328 174.002C71.0407 174.319 71.0407 174.834 70.7328 175.151L68.7803 177.161V171.992Z" fill="#FAFAFA"/>
<path d="M57.9559 177.305H54.6553L53.893 179.642H51.7695L55.3775 169.511H57.2254L60.8539 179.642H58.7304L57.9559 177.305ZM55.1345 175.746H57.4828L56.2996 172.071L55.1345 175.746Z" fill="#4062EF"/>
<path d="M58.6718 194.471H60.6458V193.326H55.2848V194.471H57.2796V195.007C57.2796 196.655 56.5004 198.43 54.9004 199.154L55.6796 200.257C56.8017 199.743 57.5705 198.682 57.9965 197.422C58.4225 198.587 59.1809 199.532 60.2926 200.016L61.0406 198.923C59.4407 198.251 58.6718 196.582 58.6718 195.007V194.471ZM61.529 192.402V202.074H62.9004V192.402H61.529Z" fill="#FAAD14"/>
<g style="mix-blend-mode:multiply">
<g style="mix-blend-mode:multiply">
<path d="M132.66 433C203.717 433 261.32 426.384 261.32 418.222C261.32 410.061 203.717 403.444 132.66 403.444C61.6031 403.444 4 410.061 4 418.222C4 426.384 61.6031 433 132.66 433Z" fill="#F0F5FF"/>
</g>
</g>
<path d="M162.96 418.663H166.475V331.46H162.96V418.663Z" fill="#111D36"/>
<path d="M77.0928 363.986H115.907C116.529 363.979 117.142 363.827 117.697 363.542C118.251 363.259 118.731 362.85 119.101 362.348C119.469 361.847 119.716 361.267 119.822 360.653C119.928 360.04 119.889 359.41 119.71 358.815L101.215 294.983C100.98 294.154 100.482 293.424 99.7958 292.902C99.1097 292.381 98.2725 292.096 97.4103 292.092H58.5542C57.9322 292.1 57.3205 292.253 56.7676 292.537C56.2147 292.822 55.7355 293.232 55.3677 293.732C54.9999 294.234 54.7537 294.814 54.6483 295.427C54.543 296.039 54.5815 296.668 54.7607 297.263L73.2887 361.095C73.5249 361.922 74.0232 362.652 74.7091 363.173C75.3949 363.694 76.2313 363.979 77.0928 363.986Z" fill="#111D36"/>
<path d="M82.4404 363.986H116.217C116.84 363.979 117.453 363.827 118.008 363.542C118.561 363.259 119.042 362.85 119.411 362.348C119.781 361.847 120.027 361.267 120.133 360.653C120.239 360.04 120.201 359.41 120.022 358.815L101.483 294.983C101.25 294.155 100.754 293.425 100.07 292.904C99.3856 292.382 98.55 292.098 97.6893 292.092H63.9018C63.2788 292.099 62.666 292.25 62.1116 292.534C61.5573 292.819 61.0767 293.227 60.7077 293.729C60.3388 294.231 60.0917 294.811 59.9857 295.424C59.8798 296.038 59.9182 296.667 60.0976 297.263L78.6362 361.095C78.8709 361.924 79.3689 362.654 80.0551 363.175C80.7412 363.696 81.5784 363.981 82.4404 363.986Z" fill="#C1CCFF"/>
<path d="M82.3877 412.517V416.007H118.801V412.517H82.3877Z" fill="#111D36"/>
<path d="M115.522 415.3C115.414 415.95 115.501 416.618 115.773 417.218C116.045 417.818 116.488 418.324 117.049 418.672C117.609 419.021 118.259 419.195 118.919 419.174C119.578 419.152 120.215 418.935 120.751 418.552C121.287 418.167 121.697 417.633 121.929 417.017C122.161 416.4 122.205 415.729 122.054 415.087C121.904 414.445 121.566 413.863 121.084 413.413C120.603 412.963 119.998 412.667 119.347 412.56C118.476 412.417 117.585 412.626 116.867 413.14C116.15 413.654 115.666 414.431 115.522 415.3Z" fill="#111D36"/>
<path d="M98.7617 413.941H102.255V363.439H98.7617V413.941Z" fill="#111D36"/>
<path d="M79.108 415.3C79 415.95 79.0874 416.618 79.3593 417.218C79.6311 417.818 80.0752 418.324 80.6351 418.672C81.195 419.021 81.8457 419.195 82.5048 419.174C83.1639 419.152 83.8018 418.935 84.3378 418.552C84.8737 418.167 85.2836 417.633 85.5155 417.017C85.7474 416.4 85.791 415.729 85.6406 415.087C85.4903 414.445 85.1528 413.863 84.671 413.413C84.1891 412.963 83.5844 412.666 82.9336 412.56C82.5022 412.487 82.0607 412.501 81.6348 412.601C81.2087 412.7 80.8064 412.881 80.4509 413.136C80.0955 413.391 79.7939 413.714 79.5635 414.084C79.333 414.456 79.1781 414.869 79.108 415.3Z" fill="#111D36"/>
<path d="M78.1864 363.985H119.272C119.727 363.985 120.178 363.894 120.598 363.72C121.019 363.546 121.401 363.29 121.723 362.968C122.045 362.645 122.3 362.263 122.472 361.843C122.645 361.421 122.734 360.971 122.732 360.515C122.734 360.061 122.645 359.61 122.472 359.189C122.3 358.768 122.045 358.386 121.723 358.063C121.401 357.741 121.019 357.485 120.598 357.311C120.178 357.136 119.727 357.047 119.272 357.047H78.1864C77.7303 357.047 77.2789 357.136 76.8577 357.311C76.4364 357.485 76.0536 357.74 75.7312 358.063C75.4088 358.384 75.1532 358.767 74.9787 359.188C74.8041 359.609 74.7144 360.061 74.7144 360.515C74.7144 361.436 75.0801 362.318 75.7312 362.969C76.3824 363.619 77.2655 363.985 78.1864 363.985Z" fill="#111D36"/>
<path d="M93.4349 268.548C97.1426 266.161 97.7213 259.684 97.7213 259.684L111.181 257.863L121.896 264.469C121.896 264.469 118.682 273.858 121.201 277.467C123.718 281.074 126.686 287.327 120.536 292.113C114.384 296.899 105.319 292.113 105.319 292.113C105.319 292.113 89.5235 292.542 84.5406 286.546C75.4963 275.529 91.4739 269.811 93.4349 268.548Z" fill="#000103"/>
<path d="M94.8925 399.22L91.2812 407.421L96.5214 411.8L98.0001 409.594C102.647 414.263 108.795 417.145 115.36 417.731C115.36 417.731 120.44 417.474 112.146 410.622L94.8925 399.22Z" fill="#111D36"/>
<path d="M94.8931 399.22L101.944 388.566L109.659 393.341L104.43 401.564C104.43 401.564 112.146 410.332 112.114 410.622C112.082 410.911 113.185 412.389 110.967 412.142C108.749 411.896 95.2895 403.577 94.8931 399.22Z" fill="#E6B1A0"/>
<path d="M123.644 332.861L94.7109 390.012L112.81 396.628L147.97 350.463C149.146 348.898 149.871 347.04 150.065 345.092C150.259 343.143 149.915 341.18 149.07 339.414C148.225 337.647 146.911 336.147 145.272 335.074C143.632 334.002 141.73 333.399 139.772 333.333L123.644 332.861Z" fill="#E8413D"/>
<path d="M150.68 407.838L153.348 417.698H159.392V415.139C163.219 416.515 167.311 416.991 171.352 416.532C177.267 415.611 182.378 415.022 180.631 412.763C178.885 410.504 171.063 408.876 171.063 408.876L150.68 407.838Z" fill="#111D36"/>
<path d="M144.421 394.069L150.68 407.839C150.68 407.839 151.495 410.044 156.253 410.74C161.01 411.436 174.834 412.881 173.088 409.926L159.242 404.38L152.93 389.391L144.421 394.069Z" fill="#E6B1A0"/>
<path d="M83.4691 329.992C82.9509 331.225 82.5281 332.496 82.2046 333.793C81.5088 336.603 81.4636 339.534 82.0721 342.364C82.6807 345.193 83.9271 347.847 85.7166 350.123C87.5061 352.399 89.7916 354.238 92.3992 355.499C95.0068 356.76 97.8678 357.41 100.765 357.401H117.181L139.963 398.781L162.682 397.517L137.102 340.27C136.243 338.345 134.879 336.689 133.156 335.475C131.432 334.262 129.411 333.536 127.309 333.375L83.4691 329.992Z" fill="#FA584E"/>
<path d="M125.604 305.796L133.309 327.338H125.165L115.049 306.342L125.604 305.796Z" fill="#B57D6B"/>
<path d="M119.507 289.661C119.507 289.661 124.382 290.346 128.316 309.104L113.42 309.36L119.507 289.661Z" fill="#FAFAFA"/>
<path d="M113.786 287.262L119.508 289.661C120.027 289.89 120.474 290.259 120.796 290.725C121.12 291.192 121.308 291.739 121.34 292.305C121.63 297.413 121.736 311.577 114.814 319.007L108.813 327.336H85.3237L84.9165 286.706L87.0597 279.801L96.9078 282.252L113.786 287.262Z" fill="#FAFAFA"/>
<path fill-rule="evenodd" clip-rule="evenodd" d="M120.53 309.397C120.53 309.398 120.53 309.398 120.183 309.243C119.836 309.088 119.836 309.088 119.836 309.088L119.837 309.086L119.84 309.079L119.854 309.045C119.867 309.014 119.887 308.966 119.912 308.902C119.962 308.773 120.034 308.579 120.119 308.323C120.289 307.81 120.511 307.047 120.715 306.056C121.122 304.075 121.457 301.183 121.154 297.561L121.912 297.498C122.221 301.2 121.88 304.165 121.459 306.209C121.249 307.231 121.019 308.023 120.841 308.562C120.751 308.831 120.675 309.038 120.62 309.178C120.593 309.248 120.571 309.302 120.555 309.338C120.548 309.357 120.542 309.371 120.537 309.381L120.532 309.392L120.531 309.396L120.53 309.397L120.53 309.397Z" fill="#EBEFF2"/>
<path d="M102.019 315.046L133.727 316.363L134.938 321.716L102.919 325.357C100.443 325.626 97.9505 325.025 95.8698 323.658C93.7889 322.289 92.25 320.241 91.5174 317.862L90.8638 315.721L102.019 315.046Z" fill="#E6B1A0"/>
<path d="M133.727 316.363C133.727 316.363 137.779 316.192 142.943 321.353L146.758 325.764L141.464 326.202L133.727 321.267V316.363Z" fill="#E6B1A0"/>
<path d="M97.7967 300.368L102.019 315.046L90.8634 315.817L83.7373 295.774L97.7967 300.368Z" fill="#E7B1A0"/>
<path d="M92.7282 284.554L97.7861 300.367L83.2016 300.859L79.7832 288.258C79.5411 287.365 79.4866 286.432 79.6231 285.517C79.7596 284.603 80.0842 283.726 80.5764 282.943C81.0686 282.159 81.7179 281.486 82.4832 280.966C83.2484 280.444 84.1133 280.088 85.0233 279.917C86.654 279.603 88.3438 279.901 89.7666 280.758C91.1895 281.614 92.2445 282.966 92.7282 284.554Z" fill="#FAFAFA"/>
<path fill-rule="evenodd" clip-rule="evenodd" d="M95.6405 292.394L98.1481 300.251L97.4241 300.482L94.9165 292.625L95.6405 292.394Z" fill="#EBEFF2"/>
<path d="M101.141 285.047L104.13 273.57C104.13 273.57 106.016 274.255 107.742 274.791C109.466 275.326 110.957 274.791 111.385 275.861L112.96 274.791L110.817 287.638C110.817 287.777 110.817 287.906 110.817 288.034L101.173 285.487C101.098 285.272 101.13 285.165 101.141 285.047Z" fill="#E7B1A0"/>
<path d="M111.931 280.582C111.931 280.582 105.502 280.968 103.937 272.596L112.906 274.93L111.931 280.582Z" fill="#B57D6B"/>
<path d="M97.7966 259.48C96.5107 266.899 103.337 273.399 110.527 274.223C114.364 274.651 123.612 269.448 124.458 261.964C125.304 254.48 120.59 249.02 113.42 248.121C106.766 247.285 99.3075 250.755 97.7966 259.48Z" fill="#000103"/>
<path d="M116.614 268.377C116.549 269.007 116.672 269.642 116.966 270.202C117.261 270.763 117.715 271.223 118.271 271.526C118.827 271.831 119.46 271.963 120.092 271.907C120.723 271.852 121.324 271.611 121.819 271.216C122.314 270.821 122.681 270.289 122.874 269.686C123.067 269.082 123.077 268.436 122.904 267.827C122.729 267.219 122.38 266.674 121.898 266.263C121.416 265.852 120.822 265.594 120.193 265.518C119.769 265.468 119.34 265.502 118.93 265.619C118.52 265.735 118.138 265.933 117.805 266.199C117.471 266.465 117.194 266.795 116.99 267.168C116.785 267.542 116.658 267.953 116.614 268.377Z" fill="#B57D6B"/>
<path d="M102.34 259.362C101.945 262.802 101.945 266.275 102.34 269.715C102.523 270.946 102.962 272.125 103.628 273.175C104.294 274.227 105.173 275.127 106.208 275.818L106.594 276.118C107.723 276.973 109.059 277.514 110.466 277.684C111.872 277.853 113.299 277.645 114.599 277.081C115.851 276.63 116.985 275.905 117.921 274.961C118.857 274.017 119.57 272.876 120.01 271.621C121.006 268.328 121.744 264.964 122.218 261.557C122.218 261.557 124.286 251.226 113.516 250.251C102.747 249.277 102.34 259.362 102.34 259.362Z" fill="#E7B1A0"/>
<path d="M118.361 254.116C118.361 254.116 114.075 261.707 100.015 262.681C100.015 262.681 100.658 248.474 111.17 248.623C111.16 248.581 116.464 247.982 118.361 254.116Z" fill="#000103"/>
<path d="M115.329 254.169C115.329 254.169 117.471 261.075 123.247 263.806C123.247 263.806 125.391 253.013 115.446 249.491C115.446 249.534 117.203 248.763 115.329 254.169Z" fill="#000103"/>
<path d="M116.882 267.253C116.879 267.508 116.966 267.756 117.129 267.952C117.292 268.149 117.52 268.28 117.772 268.323C118.03 268.347 118.287 268.268 118.488 268.104C118.688 267.94 118.817 267.703 118.843 267.445C118.873 267.183 118.797 266.919 118.633 266.713C118.468 266.506 118.228 266.373 117.965 266.343C117.702 266.313 117.438 266.389 117.231 266.553C117.023 266.718 116.891 266.958 116.861 267.221L116.882 267.253Z" fill="#000103"/>
<path d="M108.266 266.161C108.264 266.408 108.353 266.647 108.518 266.832C108.682 267.015 108.909 267.133 109.155 267.16C109.4 267.187 109.647 267.121 109.847 266.975C110.048 266.831 110.187 266.617 110.237 266.375C110.266 266.239 110.266 266.098 110.237 265.963C110.208 265.826 110.151 265.697 110.069 265.585C109.987 265.472 109.883 265.378 109.762 265.308C109.643 265.239 109.508 265.195 109.371 265.18C109.232 265.165 109.092 265.179 108.96 265.221C108.826 265.263 108.705 265.333 108.6 265.425C108.496 265.518 108.413 265.631 108.355 265.758C108.297 265.885 108.267 266.021 108.266 266.161Z" fill="#000103"/>
<path fill-rule="evenodd" clip-rule="evenodd" d="M114.51 268.01C114.8 267.989 115.053 268.209 115.074 268.501L115.213 270.514C115.215 270.544 115.215 270.573 115.211 270.603C115.196 270.758 115.146 270.907 115.066 271.041C114.985 271.174 114.877 271.289 114.748 271.375C114.618 271.461 114.471 271.517 114.317 271.54C114.168 271.562 114.017 271.552 113.873 271.51L112.938 271.282C112.655 271.212 112.481 270.926 112.551 270.642C112.62 270.359 112.906 270.185 113.191 270.254L114.136 270.486C114.141 270.487 114.146 270.488 114.151 270.49L114.018 268.573C113.998 268.283 114.218 268.03 114.51 268.01Z" fill="black"/>
<path d="M112.452 264.642L106.524 262.746C106.524 262.746 107.65 261.459 110.061 262.258C112.471 263.057 112.452 264.642 112.452 264.642Z" fill="#000103"/>
<path d="M115.831 265.444L121.451 264.137C121.035 263.696 120.5 263.386 119.911 263.244C119.321 263.101 118.703 263.13 118.131 263.331C115.839 263.885 115.831 265.444 115.831 265.444Z" fill="#000103"/>
<path fill-rule="evenodd" clip-rule="evenodd" d="M109.355 272.388C109.554 272.175 109.89 272.165 110.102 272.366C110.551 272.789 111.102 273.088 111.7 273.237C112.3 273.386 112.926 273.379 113.522 273.214C113.804 273.138 114.094 273.303 114.172 273.585C114.249 273.867 114.084 274.157 113.801 274.235C113.032 274.446 112.22 274.457 111.445 274.264C110.67 274.071 109.959 273.683 109.378 273.135C109.164 272.935 109.155 272.601 109.355 272.388Z" fill="black"/>
<path d="M105.994 259.02L102.405 266.322L101.279 259.309L105.994 259.02Z" fill="#000103"/>
<path d="M99.5682 265.146C99.5318 265.75 99.6118 266.662 99.7822 267.198C99.9526 267.734 100.68 268.553 101 268.841C101.32 269.13 101.684 269.255 102.047 269.2C102.41 269.146 102.754 268.913 103.038 268.533C103.322 268.153 103.531 267.641 103.641 267.062C103.751 266.484 103.755 265.864 103.654 265.281C103.553 264.697 103.504 264.17 103.226 263.778C102.948 263.386 102.665 263.135 102.388 262.849C102.047 262.498 101.128 262.384 100.893 262.496C100.658 262.61 100.439 262.801 100.248 263.057C100.057 263.312 99.8988 263.628 99.7821 263.988C99.6655 264.346 99.5928 264.741 99.5682 265.146Z" fill="#E7B1A0"/>
<path d="M113.785 287.263L96.9287 282.252C96.9287 282.252 97.2395 288.109 107.259 290.336C108.828 290.7 110.459 290.7 112.028 290.336C113.227 290.037 113.603 288.292 113.785 287.263Z" fill="#E7B1A0"/>
<path d="M213.669 418.663H217.183V331.46H213.669V418.663Z" fill="#111D36"/>
<path d="M89.5664 418.663H93.0812V331.46H89.5664V418.663Z" fill="#111D36"/>
<path d="M38.8589 418.663H42.3737V331.46H38.8589V418.663Z" fill="#111D36"/>
<path d="M73.2251 335.571H228.704V327.326H73.2251V335.571Z" fill="#24385B"/>
<path d="M28.0034 335.571H73.2249V327.326H28.0034V335.571Z" fill="#111D36"/>
<path d="M125.712 327.69H151.13V324.831H125.712C125.525 324.831 125.34 324.868 125.167 324.94C124.993 325.011 124.836 325.116 124.704 325.249C124.572 325.381 124.466 325.538 124.395 325.711C124.324 325.883 124.287 326.069 124.287 326.256C124.287 326.634 124.436 326.998 124.704 327.266C124.97 327.535 125.333 327.688 125.712 327.69Z" fill="#767F8E"/>
<path d="M147.787 327.69H184.221C185.167 327.698 186.091 327.391 186.844 326.819C187.598 326.249 188.142 325.444 188.39 324.531L195.581 298.708C195.643 298.487 195.654 298.254 195.612 298.029C195.571 297.803 195.476 297.591 195.339 297.407C195.201 297.223 195.022 297.074 194.816 296.972C194.612 296.869 194.385 296.815 194.155 296.813H157.282C156.888 296.813 156.506 296.944 156.194 297.184C155.881 297.424 155.657 297.761 155.556 298.141L147.787 327.69Z" fill="#BBC3D0"/>
<path d="M170.419 312.798C170.419 313.433 170.608 314.054 170.961 314.582C171.314 315.11 171.817 315.522 172.403 315.765C172.991 316.008 173.638 316.072 174.261 315.948C174.884 315.824 175.457 315.518 175.907 315.069C176.356 314.62 176.663 314.047 176.787 313.425C176.911 312.801 176.848 312.155 176.604 311.568C176.361 310.982 175.949 310.48 175.419 310.127C174.891 309.774 174.27 309.585 173.634 309.585C172.781 309.585 171.964 309.924 171.361 310.527C170.758 311.129 170.419 311.946 170.419 312.798Z" fill="white"/>
<defs>
<filter id="filter0_dd" x="90.4326" y="119.209" width="315.457" height="238.071" filterUnits="userSpaceOnUse" color-interpolation-filters="sRGB">
<feFlood flood-opacity="0" result="BackgroundImageFix"/>
<feColorMatrix in="SourceAlpha" type="matrix" values="0 0 0 0 0 0 0 0 0 0 0 0 0 0 0 0 0 0 127 0"/>
<feOffset dy="10"/>
<feGaussianBlur stdDeviation="10"/>
<feColorMatrix type="matrix" values="0 0 0 0 0 0 0 0 0 0 0 0 0 0 0 0 0 0 0.1 0"/>
<feBlend mode="normal" in2="BackgroundImageFix" result="effect1_dropShadow"/>
<feColorMatrix in="SourceAlpha" type="matrix" values="0 0 0 0 0 0 0 0 0 0 0 0 0 0 0 0 0 0 127 0"/>
<feOffset/>
<feGaussianBlur stdDeviation="2"/>
<feColorMatrix type="matrix" values="0 0 0 0 0 0 0 0 0 0 0 0 0 0 0 0 0 0 0.1 0"/>
<feBlend mode="normal" in2="effect1_dropShadow" result="effect2_dropShadow"/>
<feBlend mode="normal" in="SourceGraphic" in2="effect2_dropShadow" result="shape"/>
</filter>
<radialGradient id="paint0_radial" cx="0" cy="0" r="1" gradientUnits="userSpaceOnUse" gradientTransform="translate(258.882 257.241) rotate(63.5567) scale(164 134.118)">
<stop offset="0.270125" stop-color="#FA541C" stop-opacity="0"/>
<stop offset="1" stop-color="#FA541C"/>
</radialGradient>
<radialGradient id="paint1_radial" cx="0" cy="0" r="1" gradientUnits="userSpaceOnUse" gradientTransform="translate(292.844 223.038) rotate(-12.0325) scale(142.467 116.508)">
<stop offset="0.270125" stop-color="#1AC4A5" stop-opacity="0"/>
<stop offset="1" stop-color="#1AC4A5"/>
</radialGradient>
<radialGradient id="paint2_radial" cx="0" cy="0" r="1" gradientUnits="userSpaceOnUse" gradientTransform="translate(182.505 207.545) rotate(-168.947) scale(156.712 111.711)">
<stop offset="0.1875" stop-color="#4062EF" stop-opacity="0"/>
<stop offset="0.515625" stop-color="#4062EF" stop-opacity="0.56"/>
<stop offset="0.84375" stop-color="#4062EF"/>
</radialGradient>
<radialGradient id="paint3_radial" cx="0" cy="0" r="1" gradientUnits="userSpaceOnUse" gradientTransform="translate(239.812 204.796) rotate(-79.2947) scale(153.38 134.118)">
<stop offset="0.270125" stop-color="#FFC53D" stop-opacity="0"/>
<stop offset="1" stop-color="#FFC53D"/>
</radialGradient>
</defs>
</svg>
