<svg width="468" height="468" viewBox="0 0 468 468" fill="none" xmlns="http://www.w3.org/2000/svg">
<g filter="url(#filter0_dd)">
<path d="M32 78.7428C32 76.1722 34.0838 74.0884 36.6544 74.0884H430.252C432.822 74.0884 434.906 76.1722 434.906 78.7428V274.083C434.906 276.653 432.822 278.737 430.252 278.737H36.6544C34.0838 278.737 32 276.653 32 274.083V78.7428Z" fill="white"/>
</g>
<path fill-rule="evenodd" clip-rule="evenodd" d="M332.367 175.252V177.865H333.02V175.252H332.367Z" fill="black"/>
<path fill-rule="evenodd" clip-rule="evenodd" d="M334 234.93C306.938 234.93 285 217.933 285 196.965C285 175.998 306.938 159 334 159C361.062 159 383 175.998 383 196.965C383 209.634 374.991 220.853 362.683 227.749C362.575 227.81 362.509 227.926 362.516 228.05C362.719 231.298 364.379 234.569 369.094 236.352C369.426 236.478 369.383 236.978 369.028 237.004C364.424 237.335 355.823 236.944 347.356 233.561C347.295 233.537 347.229 233.531 347.165 233.544C342.975 234.447 338.56 234.93 334 234.93Z" fill="#F0F5FF"/>
<path d="M356.867 181.459C356.867 181.098 356.574 180.805 356.213 180.805H310.48C310.119 180.805 309.827 181.098 309.827 181.459V188.645C309.827 189.006 310.119 189.299 310.48 189.299H356.213C356.574 189.299 356.867 189.006 356.867 188.645V181.459Z" fill="#D6E4FF"/>
<path d="M360.787 193.872C360.787 193.511 360.494 193.218 360.134 193.218H306.56C306.2 193.218 305.907 193.511 305.907 193.872V200.405C305.907 200.766 306.2 201.058 306.56 201.058H360.134C360.494 201.058 360.787 200.766 360.787 200.405V193.872Z" fill="#D6E4FF"/>
<path d="M349.68 205.632C349.68 205.271 349.387 204.979 349.027 204.979H317.667C317.306 204.979 317.014 205.271 317.014 205.632V212.819C317.014 213.179 317.306 213.472 317.667 213.472H349.027C349.387 213.472 349.68 213.179 349.68 212.819V205.632Z" fill="#D6E4FF"/>
<path fill-rule="evenodd" clip-rule="evenodd" d="M300.026 175.579H366.666V218.045H300.026V175.579ZM367.973 174.272V219.352H298.72V174.272H367.973Z" fill="#4062EF"/>
<path fill-rule="evenodd" clip-rule="evenodd" d="M332.693 169.045V174.925H334V169.045H332.693Z" fill="#4062EF"/>
<path d="M369.28 172.965H366.013V176.232H369.28V172.965Z" fill="white"/>
<path fill-rule="evenodd" clip-rule="evenodd" d="M369.934 172.312H365.36V176.885H369.934V172.312ZM368.627 173.619V175.579H366.667V173.619H368.627Z" fill="#4062EF"/>
<path d="M300.68 172.965H297.414V176.232H300.68V172.965Z" fill="white"/>
<path fill-rule="evenodd" clip-rule="evenodd" d="M301.333 172.312H296.76V176.885H301.333V172.312ZM300.027 173.619V175.579H298.067V173.619H300.027Z" fill="#4062EF"/>
<path d="M300.68 217.392H297.414V220.659H300.68V217.392Z" fill="white"/>
<path fill-rule="evenodd" clip-rule="evenodd" d="M301.333 216.738H296.76V221.312H301.333V216.738ZM300.027 218.045V220.005H298.067V218.045H300.027Z" fill="#4062EF"/>
<path d="M369.28 217.392H366.013V220.659H369.28V217.392Z" fill="white"/>
<path fill-rule="evenodd" clip-rule="evenodd" d="M369.934 216.738H365.36V221.312H369.934V216.738ZM368.627 218.045V220.005H366.667V218.045H368.627Z" fill="#4062EF"/>
<path d="M331.387 167.085C331.387 168.168 332.264 169.045 333.347 169.045C334.429 169.045 335.307 168.168 335.307 167.085C335.307 166.002 334.429 165.125 333.347 165.125C332.264 165.125 331.387 166.002 331.387 167.085Z" fill="white"/>
<path fill-rule="evenodd" clip-rule="evenodd" d="M333.347 165.778C334.069 165.778 334.653 166.363 334.653 167.085C334.653 167.807 334.069 168.392 333.347 168.392C332.625 168.392 332.04 167.807 332.04 167.085C332.04 166.363 332.625 165.778 333.347 165.778ZM335.96 167.085C335.96 165.642 334.79 164.472 333.347 164.472C331.903 164.472 330.733 165.642 330.733 167.085C330.733 168.528 331.903 169.698 333.347 169.698C334.79 169.698 335.96 168.528 335.96 167.085Z" fill="#4062EF"/>
<path d="M176.286 165H87.7143C87.3198 165 87 165.576 87 166.286V172.714C87 173.424 87.3198 174 87.7143 174H176.286C176.68 174 177 173.424 177 172.714V166.286C177 165.576 176.68 165 176.286 165Z" fill="#F0F5FF"/>
<path d="M177.226 180H94.7742C94.3466 180 94 180.64 94 181.429V188.571C94 189.36 94.3466 190 94.7742 190H177.226C177.653 190 178 189.36 178 188.571V181.429C178 180.64 177.653 180 177.226 180Z" fill="#F0F5FF"/>
<path d="M183.106 196H87.894C87.4003 196 87 196.576 87 197.286V203.714C87 204.424 87.4003 205 87.894 205H183.106C183.6 205 184 204.424 184 203.714V197.286C184 196.576 183.6 196 183.106 196Z" fill="#F0F5FF"/>
<path d="M164.465 211H107.535C107.239 211 107 211.576 107 212.286V218.714C107 219.424 107.239 220 107.535 220H164.465C164.761 220 165 219.424 165 218.714V212.286C165 211.576 164.761 211 164.465 211Z" fill="#F0F5FF"/>
<path fill-rule="evenodd" clip-rule="evenodd" d="M233 278L233 74L234 74L234 278L233 278Z" fill="#F5F5F5"/>
<path d="M32 79C32 76.2386 34.2386 74 37 74H430C432.761 74 435 76.2386 435 79V96H32V79Z" fill="#F5F5F5"/>
<path d="M45.2529 84C45.2529 85.6569 43.9098 87 42.2529 87C40.5961 87 39.2529 85.6569 39.2529 84C39.2529 82.3431 40.5961 81 42.2529 81C43.9098 81 45.2529 82.3431 45.2529 84Z" fill="#F5222D"/>
<path d="M54.2529 84C54.2529 85.6569 52.9098 87 51.2529 87C49.5961 87 48.2529 85.6569 48.2529 84C48.2529 82.3431 49.5961 81 51.2529 81C52.9098 81 54.2529 82.3431 54.2529 84Z" fill="#FA8C16"/>
<path d="M63.2529 84C63.2529 85.6569 61.9098 87 60.2529 87C58.5961 87 57.2529 85.6569 57.2529 84C57.2529 82.3431 58.5961 81 60.2529 81C61.9098 81 63.2529 82.3431 63.2529 84Z" fill="#52C41A"/>
<g style="mix-blend-mode:multiply">
<ellipse cx="227.262" cy="403.444" rx="67.9876" ry="14.1361" fill="#F0F5FF"/>
</g>
<path d="M219.235 195.499C218.945 194.422 218.494 192.251 219.575 187.136C219.117 186.909 217.667 186.229 217.853 185.341C218.575 184.397 219.719 183.157 220.624 182.174C220.901 181.12 221.239 179.989 221.649 178.777C222.262 176.673 223.469 174.79 225.125 173.354C226.782 171.917 228.818 170.988 230.989 170.678C233.161 170.368 235.375 170.69 237.369 171.605C239.362 172.52 241.048 173.99 242.227 175.838C246.29 182.836 244.92 187.19 238.927 195.09C232.709 196.98 228.993 197.587 222.597 197.587C220.515 197.587 219.525 196.576 219.235 195.499Z" fill="#E6B1A0"/>
<path d="M249.979 388.827L250.695 394.176C250.772 394.861 257.73 393.757 257.73 393.757L258.306 388.236C258.306 388.236 250.928 388.096 249.979 388.827Z" fill="#B57D6B"/>
<path d="M250.617 393.492C249.378 395.049 247.908 396.407 246.258 397.52C244.11 398.733 240.764 399.215 239.503 400.475C238.584 401.392 236.187 405.311 245.044 405.233C253.901 405.156 258.198 405.778 259.147 404.285C260.097 402.792 257.777 393.181 257.777 393.181C255.419 393.64 253.006 393.745 250.617 393.492Z" fill="#292C47"/>
<path d="M201.724 388.827C201.724 388.827 202.347 393.492 202.425 394.176C202.502 394.861 209.476 393.757 209.476 393.757L210.052 388.236C210.052 388.236 202.674 388.096 201.724 388.827Z" fill="#B57D6B"/>
<path d="M202.362 393.492C201.123 395.049 199.653 396.407 198.004 397.52C195.856 398.733 188.01 399.744 186.734 401.003C185.831 401.905 184.306 405.575 196.79 405.233C205.662 404.985 209.943 405.778 210.892 404.285C211.842 402.792 209.523 393.181 209.523 393.181C207.152 393.519 204.753 393.623 202.362 393.492Z" fill="#292C47"/>
<path d="M247.628 273.204C247.628 273.204 251.209 284.292 250.742 293.856C250.275 303.42 252.594 313.87 253.544 323.869C254.602 334.988 258.929 361.348 259.085 367.304C259.241 373.26 258.4 392.279 258.4 392.279L249.761 392.497C249.761 392.497 242.492 346.419 240.608 341.707C238.725 336.995 229.385 303.482 229.074 299.718C228.762 295.955 247.628 273.204 247.628 273.204Z" fill="#292C47"/>
<path d="M211.748 272.037C211.748 272.037 206.487 301.382 205.864 307.23C205.242 313.077 204.821 335.548 204.495 339.203C204.168 342.857 202.409 387.054 200.743 392.497H210.456C210.456 392.497 220.356 360.353 220.356 345.159C220.356 329.966 226.925 312.113 231.159 302.082C235.393 292.052 245.169 291.803 247.691 273.204C247.628 273.204 215.266 266.143 211.748 272.037Z" fill="#292C47"/>
<path d="M223.734 197.314C224.336 199.073 224.336 200.982 223.734 202.741C222.645 204.996 237.635 203.643 237.635 203.643C237.288 200.743 237.735 197.803 238.927 195.137C240.888 191.327 223.734 197.314 223.734 197.314Z" fill="#E6B1A0"/>
<path d="M199.918 202.212C202.113 202.43 212.776 204.638 214.348 204.343C219.553 206.081 217.779 219.799 214.721 220.61C210.194 217.832 205.363 215.583 200.323 213.907C194.01 211.532 188.102 208.196 182.811 204.016C181.908 203.161 180.258 196.505 179.698 193.83C179.137 191.156 178.125 181.98 177.332 178.186C176.911 176.164 181.846 174.64 182.141 177.579C182.437 180.516 187.815 194.09 188.118 194.855L188.119 194.857C188.415 195.603 197.723 201.995 199.918 202.212Z" fill="#E6B1A0"/>
<path d="M253.882 209.857C250.409 207.796 250.735 208.556 247.262 208.664C243.138 210.508 246.068 221.029 248.782 224.391C251.495 227.753 272.658 233.502 275.806 233.285C280.161 232.985 295.584 225.042 296.886 224.391C297.158 223.089 296.886 221.887 294.441 221.398C287.82 222.375 276.783 223.523 275.155 223.523C273.527 223.523 271.682 222.981 269.837 222.222C267.992 221.463 257.356 211.918 253.882 209.857Z" fill="#E6B1A0"/>
<path d="M289.646 222.902C289.646 222.902 296.094 220.017 296.707 218.857C297.342 217.354 298.161 215.936 299.144 214.635C300.382 213.277 301.517 211.367 301.861 211.512C302.205 211.657 301.869 213.42 300.821 215.221C299.774 217.021 300.078 217.912 300.483 218.185C302.002 218.112 303.49 217.739 304.863 217.087C305.641 216.592 310.233 212.981 310.763 213.733C311.294 214.486 308.721 216.875 308.212 217.251C308.212 217.251 312.905 215.649 313.033 216.505C313.16 217.361 311.397 218.717 311.397 218.717C311.397 218.717 315.216 218.981 308.576 222.354C308.576 222.354 310.722 221.733 309.897 222.898C308.852 223.516 308.478 223.723 306.587 224.808C306.018 225.135 305.354 225.245 304.701 225.183C301.575 224.887 296.274 225.2 291.38 224.571C290.725 223.882 289.646 222.902 289.646 222.902Z" fill="#E6B1A0"/>
<path d="M204.012 218.495C205.482 219.533 206.721 220.863 207.653 222.401C208.586 223.94 209.19 225.654 209.429 227.436C210.016 233.38 211.057 239.271 212.542 245.056C213.445 248.166 211.748 270.233 211.53 271.82C211.312 273.406 242.849 277.154 247.706 273.375C247.706 273.375 249.06 252.707 249.621 246.844C250.181 240.982 253.225 230.112 254.128 228.199C257.584 228.682 262.815 231.311 266.587 232.281C266.587 232.281 270.71 226.58 271.176 222.401C271.176 222.401 258.121 208.664 253.266 206.577C251.31 205.736 241.636 203.456 237.581 203.052C234.791 203.419 227.802 203.52 223.937 201.87C223.937 201.87 215.002 202.866 213.554 203.052C211.795 203.285 199.545 201.497 199.545 201.497C199.545 201.497 194.641 209.77 195.497 213.938L204.012 218.495Z" fill="#FFC53D"/>
<path d="M182.437 179.352C182.437 179.352 181.332 174.112 182.671 172.619C183.434 171.763 185.255 169.508 185.426 169.166C185.597 168.824 187.543 167.704 187.543 167.16C187.543 166.616 185.628 165.963 183.963 167.502C182.297 169.042 181.254 169.368 180.585 169.197C179.916 169.026 179.028 163.506 178.873 162.137C178.717 160.769 178.266 157.145 177.41 157.394C176.553 157.643 176.585 159.214 176.585 159.214C176.585 159.214 175.588 156.477 174.919 157.021C174.25 157.565 174.343 158.887 174.343 158.887C174.343 158.887 173.098 157.332 172.786 158.467C172.593 159.164 172.593 159.901 172.786 160.598C172.786 160.598 171.494 159.882 171.417 161.624C171.362 164.578 171.799 167.521 172.709 170.333C173.627 172.152 177.052 176.942 177.378 178.808C177.705 180.674 182.437 179.352 182.437 179.352Z" fill="#E6B1A0"/>
<path d="M238.504 196.193C236.514 196.01 233.466 195.638 231.487 194.833C230.797 192.456 228.171 185.028 227.253 185.899C226.969 186.221 226.611 186.47 226.211 186.624C225.81 186.778 225.3 186.596 224.873 186.547C224.873 184.213 225.375 182.925 225.636 179.634C225.292 177.045 223.995 176.131 223.039 175.519C223.039 175.519 223.413 165.467 238.024 171.343C253.839 178.979 238.504 196.193 238.504 196.193Z" fill="#000103"/>
<path d="M225.867 184.095C226.645 182.789 229.54 181.918 229.883 185.651C230.147 188.496 224.699 191.622 224.653 188.963C224.525 187.252 224.951 185.546 225.867 184.095Z" fill="#E6B1A0"/>
<path d="M301.656 122.38H297.48V120.4H308.172V122.38H303.996V133H301.656V122.38Z" fill="#ADC6FF"/>
<path d="M317.934 123.388L313.434 133.774C313.014 134.818 312.504 135.55 311.904 135.97C311.304 136.402 310.578 136.618 309.726 136.618C309.246 136.618 308.772 136.54 308.304 136.384C307.836 136.228 307.452 136.012 307.152 135.736L308.052 134.08C308.268 134.284 308.52 134.446 308.808 134.566C309.108 134.686 309.408 134.746 309.708 134.746C310.104 134.746 310.428 134.644 310.68 134.44C310.944 134.236 311.184 133.894 311.4 133.414L311.562 133.036L307.368 123.388H309.708L312.732 130.498L315.774 123.388H317.934Z" fill="#ADC6FF"/>
<path d="M324.489 123.28C325.425 123.28 326.259 123.484 326.991 123.892C327.735 124.3 328.317 124.876 328.737 125.62C329.157 126.364 329.367 127.222 329.367 128.194C329.367 129.166 329.157 130.03 328.737 130.786C328.317 131.53 327.735 132.106 326.991 132.514C326.259 132.922 325.425 133.126 324.489 133.126C323.193 133.126 322.167 132.694 321.411 131.83V136.492H319.161V123.388H321.303V124.648C321.675 124.192 322.131 123.85 322.671 123.622C323.223 123.394 323.829 123.28 324.489 123.28ZM324.237 131.2C325.065 131.2 325.743 130.924 326.271 130.372C326.811 129.82 327.081 129.094 327.081 128.194C327.081 127.294 326.811 126.568 326.271 126.016C325.743 125.464 325.065 125.188 324.237 125.188C323.697 125.188 323.211 125.314 322.779 125.566C322.347 125.806 322.005 126.154 321.753 126.61C321.501 127.066 321.375 127.594 321.375 128.194C321.375 128.794 321.501 129.322 321.753 129.778C322.005 130.234 322.347 130.588 322.779 130.84C323.211 131.08 323.697 131.2 324.237 131.2Z" fill="#ADC6FF"/>
<path d="M340.357 128.248C340.357 128.404 340.345 128.626 340.321 128.914H332.779C332.911 129.622 333.253 130.186 333.805 130.606C334.369 131.014 335.065 131.218 335.893 131.218C336.949 131.218 337.819 130.87 338.503 130.174L339.709 131.56C339.277 132.076 338.731 132.466 338.071 132.73C337.411 132.994 336.667 133.126 335.839 133.126C334.783 133.126 333.853 132.916 333.049 132.496C332.245 132.076 331.621 131.494 331.177 130.75C330.745 129.994 330.529 129.142 330.529 128.194C330.529 127.258 330.739 126.418 331.159 125.674C331.591 124.918 332.185 124.33 332.941 123.91C333.697 123.49 334.549 123.28 335.497 123.28C336.433 123.28 337.267 123.49 337.999 123.91C338.743 124.318 339.319 124.9 339.727 125.656C340.147 126.4 340.357 127.264 340.357 128.248ZM335.497 125.08C334.777 125.08 334.165 125.296 333.661 125.728C333.169 126.148 332.869 126.712 332.761 127.42H338.215C338.119 126.724 337.825 126.16 337.333 125.728C336.841 125.296 336.229 125.08 335.497 125.08Z" fill="#ADC6FF"/>
<path d="M345.308 133.126C344.528 133.126 343.766 133.024 343.022 132.82C342.278 132.616 341.684 132.358 341.24 132.046L342.104 130.336C342.536 130.624 343.052 130.858 343.652 131.038C344.264 131.206 344.864 131.29 345.452 131.29C346.796 131.29 347.468 130.936 347.468 130.228C347.468 129.892 347.294 129.658 346.946 129.526C346.61 129.394 346.064 129.268 345.308 129.148C344.516 129.028 343.868 128.89 343.364 128.734C342.872 128.578 342.44 128.308 342.068 127.924C341.708 127.528 341.528 126.982 341.528 126.286C341.528 125.374 341.906 124.648 342.662 124.108C343.43 123.556 344.462 123.28 345.758 123.28C346.418 123.28 347.078 123.358 347.738 123.514C348.398 123.658 348.938 123.856 349.358 124.108L348.494 125.818C347.678 125.338 346.76 125.098 345.74 125.098C345.08 125.098 344.576 125.2 344.228 125.404C343.892 125.596 343.724 125.854 343.724 126.178C343.724 126.538 343.904 126.796 344.264 126.952C344.636 127.096 345.206 127.234 345.974 127.366C346.742 127.486 347.372 127.624 347.864 127.78C348.356 127.936 348.776 128.2 349.124 128.572C349.484 128.944 349.664 129.472 349.664 130.156C349.664 131.056 349.274 131.776 348.494 132.316C347.714 132.856 346.652 133.126 345.308 133.126Z" fill="#ADC6FF"/>
<path d="M360.457 128.248C360.457 128.404 360.445 128.626 360.421 128.914H352.879C353.011 129.622 353.353 130.186 353.905 130.606C354.469 131.014 355.165 131.218 355.993 131.218C357.049 131.218 357.919 130.87 358.603 130.174L359.809 131.56C359.377 132.076 358.831 132.466 358.171 132.73C357.511 132.994 356.767 133.126 355.939 133.126C354.883 133.126 353.953 132.916 353.149 132.496C352.345 132.076 351.721 131.494 351.277 130.75C350.845 129.994 350.629 129.142 350.629 128.194C350.629 127.258 350.839 126.418 351.259 125.674C351.691 124.918 352.285 124.33 353.041 123.91C353.797 123.49 354.649 123.28 355.597 123.28C356.533 123.28 357.367 123.49 358.099 123.91C358.843 124.318 359.419 124.9 359.827 125.656C360.247 126.4 360.457 127.264 360.457 128.248ZM355.597 125.08C354.877 125.08 354.265 125.296 353.761 125.728C353.269 126.148 352.969 126.712 352.861 127.42H358.315C358.219 126.724 357.925 126.16 357.433 125.728C356.941 125.296 356.329 125.08 355.597 125.08Z" fill="#ADC6FF"/>
<path d="M368.217 132.478C367.953 132.694 367.629 132.856 367.245 132.964C366.873 133.072 366.477 133.126 366.057 133.126C365.001 133.126 364.185 132.85 363.609 132.298C363.033 131.746 362.745 130.942 362.745 129.886V125.26H361.161V123.46H362.745V121.264H364.995V123.46H367.569V125.26H364.995V129.832C364.995 130.3 365.109 130.66 365.337 130.912C365.565 131.152 365.895 131.272 366.327 131.272C366.831 131.272 367.251 131.14 367.587 130.876L368.217 132.478Z" fill="#ADC6FF"/>
<path d="M98.3762 122.38H94.2002V120.4H104.892V122.38H100.716V133H98.3762V122.38Z" fill="#ADC6FF"/>
<path d="M108.166 124.792C108.814 123.784 109.954 123.28 111.586 123.28V125.422C111.394 125.386 111.22 125.368 111.064 125.368C110.188 125.368 109.504 125.626 109.012 126.142C108.52 126.646 108.274 127.378 108.274 128.338V133H106.024V123.388H108.166V124.792Z" fill="#ADC6FF"/>
<path d="M116.934 123.28C118.35 123.28 119.43 123.622 120.174 124.306C120.93 124.978 121.308 125.998 121.308 127.366V133H119.184V131.83C118.908 132.25 118.512 132.574 117.996 132.802C117.492 133.018 116.88 133.126 116.16 133.126C115.44 133.126 114.81 133.006 114.27 132.766C113.73 132.514 113.31 132.172 113.01 131.74C112.722 131.296 112.578 130.798 112.578 130.246C112.578 129.382 112.896 128.692 113.532 128.176C114.18 127.648 115.194 127.384 116.574 127.384H119.058V127.24C119.058 126.568 118.854 126.052 118.446 125.692C118.05 125.332 117.456 125.152 116.664 125.152C116.124 125.152 115.59 125.236 115.062 125.404C114.546 125.572 114.108 125.806 113.748 126.106L112.866 124.468C113.37 124.084 113.976 123.79 114.684 123.586C115.392 123.382 116.142 123.28 116.934 123.28ZM116.628 131.488C117.192 131.488 117.69 131.362 118.122 131.11C118.566 130.846 118.878 130.474 119.058 129.994V128.878H116.736C115.44 128.878 114.792 129.304 114.792 130.156C114.792 130.564 114.954 130.888 115.278 131.128C115.602 131.368 116.052 131.488 116.628 131.488Z" fill="#ADC6FF"/>
<path d="M129.469 123.28C130.681 123.28 131.653 123.634 132.385 124.342C133.117 125.05 133.483 126.1 133.483 127.492V133H131.233V127.78C131.233 126.94 131.035 126.31 130.639 125.89C130.243 125.458 129.679 125.242 128.947 125.242C128.119 125.242 127.465 125.494 126.985 125.998C126.505 126.49 126.265 127.204 126.265 128.14V133H124.015V123.388H126.157V124.63C126.529 124.186 126.997 123.85 127.561 123.622C128.125 123.394 128.761 123.28 129.469 123.28Z" fill="#ADC6FF"/>
<path d="M139.128 133.126C138.348 133.126 137.586 133.024 136.842 132.82C136.098 132.616 135.504 132.358 135.06 132.046L135.924 130.336C136.356 130.624 136.872 130.858 137.472 131.038C138.084 131.206 138.684 131.29 139.272 131.29C140.616 131.29 141.288 130.936 141.288 130.228C141.288 129.892 141.114 129.658 140.766 129.526C140.43 129.394 139.884 129.268 139.128 129.148C138.336 129.028 137.688 128.89 137.184 128.734C136.692 128.578 136.26 128.308 135.888 127.924C135.528 127.528 135.348 126.982 135.348 126.286C135.348 125.374 135.726 124.648 136.482 124.108C137.25 123.556 138.282 123.28 139.578 123.28C140.238 123.28 140.898 123.358 141.558 123.514C142.218 123.658 142.758 123.856 143.178 124.108L142.314 125.818C141.498 125.338 140.58 125.098 139.56 125.098C138.9 125.098 138.396 125.2 138.048 125.404C137.712 125.596 137.544 125.854 137.544 126.178C137.544 126.538 137.724 126.796 138.084 126.952C138.456 127.096 139.026 127.234 139.794 127.366C140.562 127.486 141.192 127.624 141.684 127.78C142.176 127.936 142.596 128.2 142.944 128.572C143.304 128.944 143.484 129.472 143.484 130.156C143.484 131.056 143.094 131.776 142.314 132.316C141.534 132.856 140.472 133.126 139.128 133.126Z" fill="#ADC6FF"/>
<path d="M145.241 119.644H147.491V133H145.241V119.644Z" fill="#ADC6FF"/>
<path d="M153.936 123.28C155.352 123.28 156.432 123.622 157.176 124.306C157.932 124.978 158.31 125.998 158.31 127.366V133H156.186V131.83C155.91 132.25 155.514 132.574 154.998 132.802C154.494 133.018 153.882 133.126 153.162 133.126C152.442 133.126 151.812 133.006 151.272 132.766C150.732 132.514 150.312 132.172 150.012 131.74C149.724 131.296 149.58 130.798 149.58 130.246C149.58 129.382 149.898 128.692 150.534 128.176C151.182 127.648 152.196 127.384 153.576 127.384H156.06V127.24C156.06 126.568 155.856 126.052 155.448 125.692C155.052 125.332 154.458 125.152 153.666 125.152C153.126 125.152 152.592 125.236 152.064 125.404C151.548 125.572 151.11 125.806 150.75 126.106L149.868 124.468C150.372 124.084 150.978 123.79 151.686 123.586C152.394 123.382 153.144 123.28 153.936 123.28ZM153.63 131.488C154.194 131.488 154.692 131.362 155.124 131.11C155.568 130.846 155.88 130.474 156.06 129.994V128.878H153.738C152.442 128.878 151.794 129.304 151.794 130.156C151.794 130.564 151.956 130.888 152.28 131.128C152.604 131.368 153.054 131.488 153.63 131.488Z" fill="#ADC6FF"/>
<path d="M166.796 132.478C166.532 132.694 166.208 132.856 165.824 132.964C165.452 133.072 165.056 133.126 164.636 133.126C163.58 133.126 162.764 132.85 162.188 132.298C161.612 131.746 161.324 130.942 161.324 129.886V125.26H159.74V123.46H161.324V121.264H163.574V123.46H166.148V125.26H163.574V129.832C163.574 130.3 163.688 130.66 163.916 130.912C164.144 131.152 164.474 131.272 164.906 131.272C165.41 131.272 165.83 131.14 166.166 130.876L166.796 132.478Z" fill="#ADC6FF"/>
<path d="M177.187 128.248C177.187 128.404 177.175 128.626 177.151 128.914H169.609C169.741 129.622 170.083 130.186 170.635 130.606C171.199 131.014 171.895 131.218 172.723 131.218C173.779 131.218 174.649 130.87 175.333 130.174L176.539 131.56C176.107 132.076 175.561 132.466 174.901 132.73C174.241 132.994 173.497 133.126 172.669 133.126C171.613 133.126 170.683 132.916 169.879 132.496C169.075 132.076 168.451 131.494 168.007 130.75C167.575 129.994 167.359 129.142 167.359 128.194C167.359 127.258 167.569 126.418 167.989 125.674C168.421 124.918 169.015 124.33 169.771 123.91C170.527 123.49 171.379 123.28 172.327 123.28C173.263 123.28 174.097 123.49 174.829 123.91C175.573 124.318 176.149 124.9 176.557 125.656C176.977 126.4 177.187 127.264 177.187 128.248ZM172.327 125.08C171.607 125.08 170.995 125.296 170.491 125.728C169.999 126.148 169.699 126.712 169.591 127.42H175.045C174.949 126.724 174.655 126.16 174.163 125.728C173.671 125.296 173.059 125.08 172.327 125.08Z" fill="#ADC6FF"/>
<defs>
<filter id="filter0_dd" x="12" y="64.0884" width="442.906" height="244.649" filterUnits="userSpaceOnUse" color-interpolation-filters="sRGB">
<feFlood flood-opacity="0" result="BackgroundImageFix"/>
<feColorMatrix in="SourceAlpha" type="matrix" values="0 0 0 0 0 0 0 0 0 0 0 0 0 0 0 0 0 0 127 0"/>
<feOffset dy="10"/>
<feGaussianBlur stdDeviation="10"/>
<feColorMatrix type="matrix" values="0 0 0 0 0 0 0 0 0 0 0 0 0 0 0 0 0 0 0.1 0"/>
<feBlend mode="normal" in2="BackgroundImageFix" result="effect1_dropShadow"/>
<feColorMatrix in="SourceAlpha" type="matrix" values="0 0 0 0 0 0 0 0 0 0 0 0 0 0 0 0 0 0 127 0"/>
<feOffset/>
<feGaussianBlur stdDeviation="2"/>
<feColorMatrix type="matrix" values="0 0 0 0 0 0 0 0 0 0 0 0 0 0 0 0 0 0 0.1 0"/>
<feBlend mode="normal" in2="effect1_dropShadow" result="effect2_dropShadow"/>
<feBlend mode="normal" in="SourceGraphic" in2="effect2_dropShadow" result="shape"/>
</filter>
</defs>
</svg>
