<svg width="1440" height="669" viewBox="0 0 1440 669" fill="none" xmlns="http://www.w3.org/2000/svg">
<g filter="url(#filter0_i)">
<rect width="1440" height="669" fill="#FAFAFA"/>
</g>
<mask id="mask0" mask-type="alpha" maskUnits="userSpaceOnUse" x="0" y="0" width="1440" height="669">
<rect width="1440" height="669" fill="#FAFAFA"/>
</mask>
<g mask="url(#mask0)">
<g opacity="0.8">
<rect width="29.9896" height="29.9896" transform="matrix(-0.707107 -0.707107 -0.707107 0.707107 1395.41 135.206)" fill="#13C2C2"/>
<path d="M1193 608C1193 471.586 1303.59 361 1440 361C1576.41 361 1687 471.586 1687 608C1687 744.414 1576.41 855 1440 855C1303.59 855 1193 744.414 1193 608Z" stroke="#D6E4FF" stroke-width="100"/>
<path d="M1276.39 608.115C1276.39 517.69 1349.69 444.385 1440.11 444.385C1530.54 444.385 1603.84 517.689 1603.84 608.115C1603.84 698.54 1530.54 771.844 1440.11 771.844C1349.69 771.844 1276.39 698.54 1276.39 608.115Z" stroke="#85A5FF" stroke-width="100"/>
<path d="M1306 608C1306 533.994 1365.99 474 1440 474C1514.01 474 1574 533.994 1574 608C1574 682.006 1514.01 742 1440 742C1365.99 742 1306 682.006 1306 608Z" fill="#10239E"/>
<mask id="mask1" mask-type="alpha" maskUnits="userSpaceOnUse" x="1216" y="135" width="108" height="107">
<circle cx="1270.5" cy="188.5" r="53.5" transform="rotate(-90 1270.5 188.5)" fill="#FF0025"/>
</mask>
<g mask="url(#mask1)">
<ellipse rx="1.22895" ry="1.23073" transform="matrix(0.0174776 -0.999847 0.999848 0.0174273 1219.17 241.103)" fill="#FFC901"/>
<ellipse rx="1.22896" ry="1.23073" transform="matrix(0.0174775 -0.999847 0.999848 0.0174274 1219.17 236.18)" fill="#FFC901"/>
<ellipse rx="1.22894" ry="1.23073" transform="matrix(0.0174777 -0.999847 0.999848 0.0174271 1219.17 231.258)" fill="#FFC901"/>
<ellipse rx="1.22896" ry="1.23073" transform="matrix(0.0174775 -0.999847 0.999848 0.0174274 1219.17 226.335)" fill="#FFC901"/>
<ellipse rx="1.22896" ry="1.23073" transform="matrix(0.0174775 -0.999847 0.999848 0.0174274 1219.17 221.411)" fill="#FFC901"/>
<ellipse rx="1.22896" ry="1.23073" transform="matrix(0.0174774 -0.999847 0.999848 0.0174274 1219.17 216.488)" fill="#FFC901"/>
<ellipse rx="1.22896" ry="1.23073" transform="matrix(0.0174775 -0.999847 0.999848 0.0174274 1219.17 211.566)" fill="#FFC901"/>
<ellipse rx="1.22895" ry="1.23073" transform="matrix(0.0174775 -0.999847 0.999848 0.0174274 1219.17 206.642)" fill="#FFC901"/>
<ellipse rx="1.22895" ry="1.23073" transform="matrix(0.0174776 -0.999847 0.999848 0.0174272 1219.17 201.719)" fill="#FFC901"/>
<ellipse rx="1.22896" ry="1.23073" transform="matrix(0.0174774 -0.999847 0.999848 0.0174275 1219.17 196.796)" fill="#FFC901"/>
<ellipse rx="1.22896" ry="1.23073" transform="matrix(0.0174775 -0.999847 0.999848 0.0174274 1219.17 191.873)" fill="#FFC901"/>
<ellipse rx="1.22896" ry="1.23073" transform="matrix(0.0174775 -0.999847 0.999848 0.0174274 1219.17 186.95)" fill="#FFC901"/>
<ellipse rx="1.22895" ry="1.23073" transform="matrix(0.0174776 -0.999847 0.999848 0.0174273 1219.17 182.028)" fill="#FFC901"/>
<ellipse rx="1.22895" ry="1.23073" transform="matrix(0.0174776 -0.999847 0.999848 0.0174273 1219.17 177.104)" fill="#FFC901"/>
<ellipse rx="1.22893" ry="1.23073" transform="matrix(0.0174779 -0.999847 0.999848 0.017427 1219.17 172.181)" fill="#FFC901"/>
<ellipse rx="1.22896" ry="1.23073" transform="matrix(0.0174775 -0.999847 0.999848 0.0174274 1219.17 167.258)" fill="#FFC901"/>
<ellipse rx="1.22896" ry="1.23073" transform="matrix(0.0174774 -0.999847 0.999848 0.0174275 1219.17 162.336)" fill="#FFC901"/>
<ellipse rx="1.22899" ry="1.23073" transform="matrix(0.017477 -0.999847 0.999848 0.0174278 1219.17 157.412)" fill="#FFC901"/>
<ellipse rx="1.22896" ry="1.23073" transform="matrix(0.0174775 -0.999847 0.999848 0.0174274 1219.17 152.488)" fill="#FFC901"/>
<ellipse rx="1.22895" ry="1.23073" transform="matrix(0.0174776 -0.999847 0.999848 0.0174273 1219.17 147.566)" fill="#FFC901"/>
<ellipse rx="1.22894" ry="1.23073" transform="matrix(0.0174777 -0.999847 0.999848 0.0174271 1219.17 142.643)" fill="#FFC901"/>
<ellipse rx="1.22894" ry="1.23073" transform="matrix(0.0174777 -0.999847 0.999848 0.0174271 1219.17 137.72)" fill="#FFC901"/>
<ellipse rx="1.22895" ry="1.23072" transform="matrix(0.0174775 -0.999847 0.999848 0.0174274 1224.1 241.104)" fill="#FFC901"/>
<ellipse rx="1.22896" ry="1.23072" transform="matrix(0.0174774 -0.999847 0.999848 0.0174275 1224.1 236.18)" fill="#FFC901"/>
<ellipse rx="1.22894" ry="1.23072" transform="matrix(0.0174777 -0.999847 0.999848 0.0174272 1224.1 231.258)" fill="#FFC901"/>
<ellipse rx="1.22896" ry="1.23072" transform="matrix(0.0174774 -0.999847 0.999848 0.0174275 1224.1 226.335)" fill="#FFC901"/>
<ellipse rx="1.22896" ry="1.23072" transform="matrix(0.0174774 -0.999847 0.999848 0.0174274 1224.1 221.411)" fill="#FFC901"/>
<ellipse rx="1.22895" ry="1.23072" transform="matrix(0.0174775 -0.999847 0.999848 0.0174274 1224.1 216.488)" fill="#FFC901"/>
<ellipse rx="1.22896" ry="1.23072" transform="matrix(0.0174774 -0.999847 0.999848 0.0174275 1224.1 211.566)" fill="#FFC901"/>
<ellipse rx="1.22895" ry="1.23072" transform="matrix(0.0174775 -0.999847 0.999848 0.0174273 1224.1 206.642)" fill="#FFC901"/>
<ellipse rx="1.22895" ry="1.23072" transform="matrix(0.0174775 -0.999847 0.999848 0.0174274 1224.1 201.719)" fill="#FFC901"/>
<ellipse rx="1.22896" ry="1.23072" transform="matrix(0.0174773 -0.999847 0.999848 0.0174276 1224.1 196.796)" fill="#FFC901"/>
<ellipse rx="1.22895" ry="1.23072" transform="matrix(0.0174775 -0.999847 0.999848 0.0174274 1224.1 191.873)" fill="#FFC901"/>
<ellipse rx="1.22896" ry="1.23072" transform="matrix(0.0174773 -0.999847 0.999848 0.0174275 1224.1 186.95)" fill="#FFC901"/>
<ellipse rx="1.22895" ry="1.23072" transform="matrix(0.0174776 -0.999847 0.999848 0.0174273 1224.1 182.028)" fill="#FFC901"/>
<ellipse rx="1.22896" ry="1.23072" transform="matrix(0.0174774 -0.999847 0.999848 0.0174274 1224.1 177.104)" fill="#FFC901"/>
<ellipse rx="1.22895" ry="1.23072" transform="matrix(0.0174776 -0.999847 0.999848 0.0174273 1224.1 172.181)" fill="#FFC901"/>
<ellipse rx="1.22897" ry="1.23072" transform="matrix(0.0174773 -0.999847 0.999848 0.0174276 1224.1 167.258)" fill="#FFC901"/>
<ellipse rx="1.22896" ry="1.23072" transform="matrix(0.0174774 -0.999847 0.999848 0.0174275 1224.1 162.336)" fill="#FFC901"/>
<ellipse rx="1.22897" ry="1.23072" transform="matrix(0.0174773 -0.999847 0.999848 0.0174276 1224.1 157.412)" fill="#FFC901"/>
<ellipse rx="1.22896" ry="1.23072" transform="matrix(0.0174774 -0.999847 0.999848 0.0174275 1224.1 152.489)" fill="#FFC901"/>
<ellipse rx="1.22895" ry="1.23072" transform="matrix(0.0174775 -0.999847 0.999848 0.0174273 1224.1 147.566)" fill="#FFC901"/>
<ellipse rx="1.22894" ry="1.23072" transform="matrix(0.0174777 -0.999847 0.999848 0.0174272 1224.1 142.643)" fill="#FFC901"/>
<ellipse rx="1.22895" ry="1.23072" transform="matrix(0.0174775 -0.999847 0.999848 0.0174274 1224.1 137.72)" fill="#FFC901"/>
<ellipse rx="1.22895" ry="1.23073" transform="matrix(0.0174775 -0.999847 0.999848 0.0174274 1229.02 241.104)" fill="#FFC901"/>
<ellipse rx="1.22896" ry="1.23073" transform="matrix(0.0174774 -0.999847 0.999848 0.0174274 1229.02 236.18)" fill="#FFC901"/>
<ellipse rx="1.22895" ry="1.23073" transform="matrix(0.0174775 -0.999847 0.999848 0.0174273 1229.02 231.258)" fill="#FFC901"/>
<ellipse rx="1.22896" ry="1.23073" transform="matrix(0.0174775 -0.999847 0.999848 0.0174274 1229.02 226.335)" fill="#FFC901"/>
<ellipse rx="1.22896" ry="1.23073" transform="matrix(0.0174775 -0.999847 0.999848 0.0174274 1229.02 221.411)" fill="#FFC901"/>
<ellipse rx="1.22895" ry="1.23073" transform="matrix(0.0174775 -0.999847 0.999848 0.0174273 1229.02 216.488)" fill="#FFC901"/>
<ellipse rx="1.22896" ry="1.23073" transform="matrix(0.0174775 -0.999847 0.999848 0.0174274 1229.02 211.566)" fill="#FFC901"/>
<ellipse rx="1.22896" ry="1.23073" transform="matrix(0.0174775 -0.999847 0.999848 0.0174274 1229.02 206.642)" fill="#FFC901"/>
<ellipse rx="1.22895" ry="1.23073" transform="matrix(0.0174776 -0.999847 0.999848 0.0174272 1229.02 201.719)" fill="#FFC901"/>
<ellipse rx="1.22896" ry="1.23073" transform="matrix(0.0174774 -0.999847 0.999848 0.0174275 1229.02 196.796)" fill="#FFC901"/>
<ellipse rx="1.22895" ry="1.23073" transform="matrix(0.0174775 -0.999847 0.999848 0.0174273 1229.02 191.873)" fill="#FFC901"/>
<ellipse rx="1.22897" ry="1.23073" transform="matrix(0.0174773 -0.999847 0.999848 0.0174276 1229.02 186.95)" fill="#FFC901"/>
<ellipse rx="1.22893" ry="1.23073" transform="matrix(0.0174779 -0.999847 0.999848 0.017427 1229.02 182.028)" fill="#FFC901"/>
<ellipse rx="1.22895" ry="1.23073" transform="matrix(0.0174775 -0.999847 0.999848 0.0174273 1229.02 177.104)" fill="#FFC901"/>
<ellipse rx="1.22895" ry="1.23072" transform="matrix(0.0174776 -0.999847 0.999848 0.0174273 1229.02 172.181)" fill="#FFC901"/>
<ellipse rx="1.22898" ry="1.23073" transform="matrix(0.0174772 -0.999847 0.999848 0.0174277 1229.02 167.258)" fill="#FFC901"/>
<ellipse rx="1.22896" ry="1.23072" transform="matrix(0.0174774 -0.999847 0.999848 0.0174275 1229.02 162.336)" fill="#FFC901"/>
<ellipse rx="1.22898" ry="1.23073" transform="matrix(0.0174771 -0.999847 0.999848 0.0174277 1229.02 157.412)" fill="#FFC901"/>
<ellipse rx="1.22896" ry="1.23073" transform="matrix(0.0174775 -0.999847 0.999848 0.0174274 1229.02 152.489)" fill="#FFC901"/>
<ellipse rx="1.22895" ry="1.23073" transform="matrix(0.0174776 -0.999847 0.999848 0.0174273 1229.02 147.566)" fill="#FFC901"/>
<ellipse rx="1.22895" ry="1.23073" transform="matrix(0.0174776 -0.999847 0.999848 0.0174272 1229.02 142.643)" fill="#FFC901"/>
<ellipse rx="1.22895" ry="1.23073" transform="matrix(0.0174776 -0.999847 0.999848 0.0174272 1229.02 137.72)" fill="#FFC901"/>
<ellipse rx="1.22896" ry="1.23073" transform="matrix(0.0174775 -0.999847 0.999848 0.0174274 1233.94 241.103)" fill="#FFC901"/>
<ellipse rx="1.22896" ry="1.23073" transform="matrix(0.0174775 -0.999847 0.999848 0.0174274 1233.94 236.18)" fill="#FFC901"/>
<ellipse rx="1.22895" ry="1.23073" transform="matrix(0.0174776 -0.999847 0.999848 0.0174273 1233.94 231.258)" fill="#FFC901"/>
<ellipse rx="1.22896" ry="1.23073" transform="matrix(0.0174775 -0.999847 0.999848 0.0174274 1233.94 226.335)" fill="#FFC901"/>
<ellipse rx="1.22896" ry="1.23073" transform="matrix(0.0174775 -0.999847 0.999848 0.0174274 1233.94 221.411)" fill="#FFC901"/>
<ellipse rx="1.22896" ry="1.23073" transform="matrix(0.0174775 -0.999847 0.999848 0.0174274 1233.94 216.488)" fill="#FFC901"/>
<ellipse rx="1.22896" ry="1.23073" transform="matrix(0.0174775 -0.999847 0.999848 0.0174274 1233.94 211.566)" fill="#FFC901"/>
<ellipse rx="1.22895" ry="1.23073" transform="matrix(0.0174776 -0.999847 0.999848 0.0174273 1233.94 206.642)" fill="#FFC901"/>
<ellipse rx="1.22895" ry="1.23073" transform="matrix(0.0174777 -0.999847 0.999848 0.0174272 1233.94 201.719)" fill="#FFC901"/>
<ellipse rx="1.22896" ry="1.23073" transform="matrix(0.0174774 -0.999847 0.999848 0.0174275 1233.94 196.796)" fill="#FFC901"/>
<ellipse rx="1.22896" ry="1.23073" transform="matrix(0.0174774 -0.999847 0.999848 0.0174275 1233.94 191.874)" fill="#FFC901"/>
<ellipse rx="1.22897" ry="1.23073" transform="matrix(0.0174773 -0.999847 0.999848 0.0174276 1233.94 186.95)" fill="#FFC901"/>
<ellipse rx="1.22893" ry="1.23073" transform="matrix(0.0174779 -0.999847 0.999848 0.017427 1233.94 182.028)" fill="#FFC901"/>
<ellipse rx="1.22895" ry="1.23073" transform="matrix(0.0174775 -0.999847 0.999848 0.0174274 1233.94 177.104)" fill="#FFC901"/>
<ellipse rx="1.22896" ry="1.23072" transform="matrix(0.0174773 -0.999847 0.999848 0.0174275 1233.94 172.181)" fill="#FFC901"/>
<ellipse rx="1.22898" ry="1.23073" transform="matrix(0.0174772 -0.999847 0.999848 0.0174277 1233.94 167.258)" fill="#FFC901"/>
<ellipse rx="1.22895" ry="1.23072" transform="matrix(0.0174776 -0.999847 0.999848 0.0174273 1233.94 162.336)" fill="#FFC901"/>
<ellipse rx="1.22898" ry="1.23073" transform="matrix(0.0174772 -0.999847 0.999848 0.0174277 1233.94 157.412)" fill="#FFC901"/>
<ellipse rx="1.22896" ry="1.23073" transform="matrix(0.0174775 -0.999847 0.999848 0.0174274 1233.94 152.488)" fill="#FFC901"/>
<ellipse rx="1.22894" ry="1.23072" transform="matrix(0.0174777 -0.999847 0.999848 0.0174272 1233.94 147.566)" fill="#FFC901"/>
<ellipse rx="1.22894" ry="1.23073" transform="matrix(0.0174777 -0.999847 0.999848 0.0174272 1233.94 142.643)" fill="#FFC901"/>
<ellipse rx="1.22895" ry="1.23073" transform="matrix(0.0174775 -0.999847 0.999848 0.0174273 1233.94 137.72)" fill="#FFC901"/>
<ellipse rx="1.22895" ry="1.23073" transform="matrix(0.0174775 -0.999847 0.999848 0.0174274 1238.87 241.103)" fill="#FFC901"/>
<ellipse rx="1.22895" ry="1.23073" transform="matrix(0.0174776 -0.999847 0.999848 0.0174273 1238.87 236.18)" fill="#FFC901"/>
<ellipse rx="1.22895" ry="1.23072" transform="matrix(0.0174775 -0.999847 0.999848 0.0174273 1238.87 231.258)" fill="#FFC901"/>
<ellipse rx="1.22895" ry="1.23073" transform="matrix(0.0174776 -0.999847 0.999848 0.0174273 1238.87 226.335)" fill="#FFC901"/>
<ellipse rx="1.22896" ry="1.23073" transform="matrix(0.0174775 -0.999847 0.999848 0.0174274 1238.87 221.411)" fill="#FFC901"/>
<ellipse rx="1.22895" ry="1.23072" transform="matrix(0.0174775 -0.999847 0.999848 0.0174274 1238.87 216.488)" fill="#FFC901"/>
<ellipse rx="1.22896" ry="1.23072" transform="matrix(0.0174774 -0.999847 0.999848 0.0174275 1238.87 211.566)" fill="#FFC901"/>
<ellipse rx="1.22895" ry="1.23072" transform="matrix(0.0174775 -0.999847 0.999848 0.0174274 1238.87 206.642)" fill="#FFC901"/>
<ellipse rx="1.22895" ry="1.23072" transform="matrix(0.0174776 -0.999847 0.999848 0.0174273 1238.87 201.719)" fill="#FFC901"/>
<ellipse rx="1.22896" ry="1.23072" transform="matrix(0.0174773 -0.999847 0.999848 0.0174276 1238.87 196.796)" fill="#FFC901"/>
<ellipse rx="1.22897" ry="1.23073" transform="matrix(0.0174773 -0.999847 0.999848 0.0174275 1238.87 191.874)" fill="#FFC901"/>
<ellipse rx="1.22896" ry="1.23072" transform="matrix(0.0174774 -0.999847 0.999848 0.0174275 1238.87 186.95)" fill="#FFC901"/>
<ellipse rx="1.22894" ry="1.23073" transform="matrix(0.0174777 -0.999847 0.999848 0.0174271 1238.87 182.028)" fill="#FFC901"/>
<ellipse rx="1.22894" ry="1.23073" transform="matrix(0.0174777 -0.999847 0.999848 0.0174272 1238.87 177.104)" fill="#FFC901"/>
<ellipse rx="1.22895" ry="1.23072" transform="matrix(0.0174776 -0.999847 0.999848 0.0174273 1238.87 172.181)" fill="#FFC901"/>
<ellipse rx="1.22897" ry="1.23072" transform="matrix(0.0174772 -0.999847 0.999848 0.0174276 1238.87 167.258)" fill="#FFC901"/>
<ellipse rx="1.22895" ry="1.23072" transform="matrix(0.0174776 -0.999847 0.999848 0.0174273 1238.87 162.336)" fill="#FFC901"/>
<ellipse rx="1.22898" ry="1.23072" transform="matrix(0.0174771 -0.999847 0.999848 0.0174278 1238.87 157.412)" fill="#FFC901"/>
<ellipse rx="1.22897" ry="1.23073" transform="matrix(0.0174773 -0.999847 0.999848 0.0174276 1238.87 152.489)" fill="#FFC901"/>
<ellipse rx="1.22894" ry="1.23072" transform="matrix(0.0174776 -0.999847 0.999848 0.0174272 1238.87 147.566)" fill="#FFC901"/>
<ellipse rx="1.22894" ry="1.23073" transform="matrix(0.0174777 -0.999847 0.999848 0.0174272 1238.87 142.643)" fill="#FFC901"/>
<ellipse rx="1.22895" ry="1.23072" transform="matrix(0.0174776 -0.999847 0.999848 0.0174273 1238.87 137.72)" fill="#FFC901"/>
<ellipse rx="1.22895" ry="1.23073" transform="matrix(0.0174776 -0.999847 0.999848 0.0174273 1243.79 241.104)" fill="#FFC901"/>
<ellipse rx="1.22895" ry="1.23073" transform="matrix(0.0174775 -0.999847 0.999848 0.0174273 1243.79 236.18)" fill="#FFC901"/>
<ellipse rx="1.22895" ry="1.23073" transform="matrix(0.0174776 -0.999847 0.999848 0.0174273 1243.79 231.258)" fill="#FFC901"/>
<ellipse rx="1.22896" ry="1.23073" transform="matrix(0.0174775 -0.999847 0.999848 0.0174273 1243.79 226.335)" fill="#FFC901"/>
<ellipse rx="1.22895" ry="1.23073" transform="matrix(0.0174776 -0.999847 0.999848 0.0174273 1243.79 221.411)" fill="#FFC901"/>
<ellipse rx="1.22895" ry="1.23073" transform="matrix(0.0174775 -0.999847 0.999848 0.0174273 1243.79 216.488)" fill="#FFC901"/>
<ellipse rx="1.22897" ry="1.23073" transform="matrix(0.0174774 -0.999847 0.999848 0.0174275 1243.79 211.566)" fill="#FFC901"/>
<ellipse rx="1.22895" ry="1.23072" transform="matrix(0.0174775 -0.999847 0.999848 0.0174274 1243.79 206.642)" fill="#FFC901"/>
<ellipse rx="1.22895" ry="1.23073" transform="matrix(0.0174776 -0.999847 0.999848 0.0174272 1243.79 201.719)" fill="#FFC901"/>
<ellipse rx="1.22896" ry="1.23073" transform="matrix(0.0174774 -0.999847 0.999848 0.0174275 1243.79 196.796)" fill="#FFC901"/>
<ellipse rx="1.22896" ry="1.23073" transform="matrix(0.0174774 -0.999847 0.999848 0.0174275 1243.79 191.873)" fill="#FFC901"/>
<ellipse rx="1.22896" ry="1.23072" transform="matrix(0.0174773 -0.999847 0.999848 0.0174276 1243.79 186.95)" fill="#FFC901"/>
<ellipse rx="1.22894" ry="1.23073" transform="matrix(0.0174778 -0.999847 0.999848 0.0174271 1243.79 182.028)" fill="#FFC901"/>
<ellipse rx="1.22897" ry="1.23072" transform="matrix(0.0174772 -0.999847 0.999848 0.0174277 1243.79 177.104)" fill="#FFC901"/>
<ellipse rx="1.22897" ry="1.23073" transform="matrix(0.0174773 -0.999847 0.999848 0.0174276 1243.79 172.181)" fill="#FFC901"/>
<ellipse rx="1.22897" ry="1.23073" transform="matrix(0.0174773 -0.999847 0.999848 0.0174276 1243.79 167.258)" fill="#FFC901"/>
<ellipse rx="1.22895" ry="1.23073" transform="matrix(0.0174776 -0.999847 0.999848 0.0174273 1243.79 162.336)" fill="#FFC901"/>
<ellipse rx="1.22896" ry="1.23072" transform="matrix(0.0174774 -0.999847 0.999848 0.0174274 1243.79 157.412)" fill="#FFC901"/>
<ellipse rx="1.22896" ry="1.23073" transform="matrix(0.0174775 -0.999847 0.999848 0.0174274 1243.79 152.488)" fill="#FFC901"/>
<ellipse rx="1.22895" ry="1.23073" transform="matrix(0.0174776 -0.999847 0.999848 0.0174273 1243.79 147.566)" fill="#FFC901"/>
<ellipse rx="1.22895" ry="1.23073" transform="matrix(0.0174777 -0.999847 0.999848 0.0174272 1243.79 142.643)" fill="#FFC901"/>
<ellipse rx="1.22895" ry="1.23073" transform="matrix(0.0174775 -0.999847 0.999848 0.0174274 1243.79 137.72)" fill="#FFC901"/>
<ellipse rx="1.22896" ry="1.23073" transform="matrix(0.0174775 -0.999847 0.999848 0.0174274 1248.71 241.104)" fill="#FFC901"/>
<ellipse rx="1.22895" ry="1.23073" transform="matrix(0.0174775 -0.999847 0.999848 0.0174273 1248.71 236.18)" fill="#FFC901"/>
<ellipse rx="1.22895" ry="1.23073" transform="matrix(0.0174776 -0.999847 0.999848 0.0174273 1248.71 231.258)" fill="#FFC901"/>
<ellipse rx="1.22896" ry="1.23073" transform="matrix(0.0174775 -0.999847 0.999848 0.0174274 1248.71 226.335)" fill="#FFC901"/>
<ellipse rx="1.22895" ry="1.23073" transform="matrix(0.0174776 -0.999847 0.999848 0.0174273 1248.71 221.411)" fill="#FFC901"/>
<ellipse rx="1.22896" ry="1.23073" transform="matrix(0.0174775 -0.999847 0.999848 0.0174274 1248.71 216.488)" fill="#FFC901"/>
<ellipse rx="1.22896" ry="1.23073" transform="matrix(0.0174774 -0.999847 0.999848 0.0174275 1248.71 211.566)" fill="#FFC901"/>
<ellipse rx="1.22895" ry="1.23073" transform="matrix(0.0174776 -0.999847 0.999848 0.0174273 1248.71 206.642)" fill="#FFC901"/>
<ellipse rx="1.22895" ry="1.23073" transform="matrix(0.0174777 -0.999847 0.999848 0.0174272 1248.71 201.719)" fill="#FFC901"/>
<ellipse rx="1.22896" ry="1.23073" transform="matrix(0.0174775 -0.999847 0.999848 0.0174274 1248.71 196.796)" fill="#FFC901"/>
<ellipse rx="1.22896" ry="1.23073" transform="matrix(0.0174774 -0.999847 0.999848 0.0174275 1248.71 191.874)" fill="#FFC901"/>
<ellipse rx="1.22896" ry="1.23073" transform="matrix(0.0174774 -0.999847 0.999848 0.0174275 1248.71 186.95)" fill="#FFC901"/>
<ellipse rx="1.22893" ry="1.23073" transform="matrix(0.0174778 -0.999847 0.999848 0.017427 1248.71 182.028)" fill="#FFC901"/>
<ellipse rx="1.22897" ry="1.23073" transform="matrix(0.0174772 -0.999847 0.999848 0.0174276 1248.71 177.104)" fill="#FFC901"/>
<ellipse rx="1.22895" ry="1.23073" transform="matrix(0.0174775 -0.999847 0.999848 0.0174273 1248.71 172.181)" fill="#FFC901"/>
<ellipse rx="1.22897" ry="1.23073" transform="matrix(0.0174773 -0.999847 0.999848 0.0174275 1248.71 167.258)" fill="#FFC901"/>
<ellipse rx="1.22894" ry="1.23072" transform="matrix(0.0174776 -0.999847 0.999848 0.0174273 1248.71 162.336)" fill="#FFC901"/>
<ellipse rx="1.22896" ry="1.23073" transform="matrix(0.0174775 -0.999847 0.999848 0.0174274 1248.71 157.412)" fill="#FFC901"/>
<ellipse rx="1.22896" ry="1.23073" transform="matrix(0.0174774 -0.999847 0.999848 0.0174275 1248.71 152.489)" fill="#FFC901"/>
<ellipse rx="1.22895" ry="1.23073" transform="matrix(0.0174776 -0.999847 0.999848 0.0174273 1248.71 147.566)" fill="#FFC901"/>
<ellipse rx="1.22895" ry="1.23073" transform="matrix(0.0174776 -0.999847 0.999848 0.0174272 1248.71 142.643)" fill="#FFC901"/>
<ellipse rx="1.22895" ry="1.23072" transform="matrix(0.0174775 -0.999847 0.999848 0.0174273 1248.71 137.72)" fill="#FFC901"/>
<ellipse rx="1.22895" ry="1.23072" transform="matrix(0.0174775 -0.999847 0.999848 0.0174274 1253.63 241.104)" fill="#FFC901"/>
<ellipse rx="1.22895" ry="1.23073" transform="matrix(0.0174776 -0.999847 0.999848 0.0174273 1253.63 236.18)" fill="#FFC901"/>
<ellipse rx="1.22895" ry="1.23073" transform="matrix(0.0174776 -0.999847 0.999848 0.0174272 1253.63 231.258)" fill="#FFC901"/>
<ellipse rx="1.22896" ry="1.23072" transform="matrix(0.0174774 -0.999847 0.999848 0.0174274 1253.63 226.335)" fill="#FFC901"/>
<ellipse rx="1.22895" ry="1.23073" transform="matrix(0.0174775 -0.999847 0.999848 0.0174273 1253.63 221.411)" fill="#FFC901"/>
<ellipse rx="1.22896" ry="1.23073" transform="matrix(0.0174774 -0.999847 0.999848 0.0174275 1253.63 216.488)" fill="#FFC901"/>
<ellipse rx="1.22896" ry="1.23073" transform="matrix(0.0174775 -0.999847 0.999848 0.0174274 1253.63 211.566)" fill="#FFC901"/>
<ellipse rx="1.22895" ry="1.23073" transform="matrix(0.0174777 -0.999847 0.999848 0.0174272 1253.63 206.642)" fill="#FFC901"/>
<ellipse rx="1.22895" ry="1.23073" transform="matrix(0.0174776 -0.999847 0.999848 0.0174272 1253.63 201.719)" fill="#FFC901"/>
<ellipse rx="1.22896" ry="1.23073" transform="matrix(0.0174774 -0.999847 0.999848 0.0174275 1253.63 196.796)" fill="#FFC901"/>
<ellipse rx="1.22895" ry="1.23072" transform="matrix(0.0174775 -0.999847 0.999848 0.0174274 1253.63 191.873)" fill="#FFC901"/>
<ellipse rx="1.22896" ry="1.23072" transform="matrix(0.0174774 -0.999847 0.999848 0.0174275 1253.63 186.95)" fill="#FFC901"/>
<ellipse rx="1.22893" ry="1.23072" transform="matrix(0.0174777 -0.999847 0.999848 0.0174272 1253.63 182.028)" fill="#FFC901"/>
<ellipse rx="1.22896" ry="1.23073" transform="matrix(0.0174774 -0.999847 0.999848 0.0174274 1253.63 177.104)" fill="#FFC901"/>
<ellipse rx="1.22894" ry="1.23073" transform="matrix(0.0174777 -0.999847 0.999848 0.0174272 1253.63 172.181)" fill="#FFC901"/>
<ellipse rx="1.22896" ry="1.23072" transform="matrix(0.0174773 -0.999847 0.999848 0.0174276 1253.63 167.258)" fill="#FFC901"/>
<ellipse rx="1.22895" ry="1.23073" transform="matrix(0.0174775 -0.999847 0.999848 0.0174273 1253.63 162.335)" fill="#FFC901"/>
<ellipse rx="1.22897" ry="1.23073" transform="matrix(0.0174773 -0.999847 0.999848 0.0174276 1253.63 157.412)" fill="#FFC901"/>
<ellipse rx="1.22896" ry="1.23073" transform="matrix(0.0174774 -0.999847 0.999848 0.0174275 1253.63 152.489)" fill="#FFC901"/>
<ellipse rx="1.22895" ry="1.23072" transform="matrix(0.0174775 -0.999847 0.999848 0.0174274 1253.63 147.566)" fill="#FFC901"/>
<ellipse rx="1.22895" ry="1.23073" transform="matrix(0.0174776 -0.999847 0.999848 0.0174272 1253.63 142.643)" fill="#FFC901"/>
<ellipse rx="1.22895" ry="1.23072" transform="matrix(0.0174776 -0.999847 0.999848 0.0174273 1253.63 137.719)" fill="#FFC901"/>
<ellipse rx="1.22896" ry="1.23074" transform="matrix(0.0174777 -0.999847 0.999848 0.0174272 1258.56 241.104)" fill="#FFC901"/>
<ellipse rx="1.22895" ry="1.23074" transform="matrix(0.0174778 -0.999847 0.999848 0.0174271 1258.56 236.18)" fill="#FFC901"/>
<ellipse rx="1.22895" ry="1.23073" transform="matrix(0.0174777 -0.999847 0.999848 0.0174272 1258.56 231.258)" fill="#FFC901"/>
<ellipse rx="1.22896" ry="1.23074" transform="matrix(0.0174777 -0.999847 0.999848 0.0174272 1258.56 226.335)" fill="#FFC901"/>
<ellipse rx="1.22894" ry="1.23074" transform="matrix(0.0174778 -0.999847 0.999848 0.0174271 1258.56 221.411)" fill="#FFC901"/>
<ellipse rx="1.22896" ry="1.23074" transform="matrix(0.0174776 -0.999847 0.999848 0.0174273 1258.56 216.488)" fill="#FFC901"/>
<ellipse rx="1.22896" ry="1.23073" transform="matrix(0.0174775 -0.999847 0.999848 0.0174273 1258.56 211.566)" fill="#FFC901"/>
<ellipse rx="1.22895" ry="1.23074" transform="matrix(0.0174777 -0.999847 0.999848 0.0174272 1258.56 206.642)" fill="#FFC901"/>
<ellipse rx="1.22895" ry="1.23074" transform="matrix(0.0174778 -0.999847 0.999848 0.0174271 1258.56 201.719)" fill="#FFC901"/>
<ellipse rx="1.22896" ry="1.23074" transform="matrix(0.0174775 -0.999847 0.999848 0.0174273 1258.56 196.796)" fill="#FFC901"/>
<ellipse rx="1.22896" ry="1.23074" transform="matrix(0.0174775 -0.999847 0.999848 0.0174273 1258.56 191.874)" fill="#FFC901"/>
<ellipse rx="1.22896" ry="1.23073" transform="matrix(0.0174775 -0.999847 0.999848 0.0174274 1258.56 186.95)" fill="#FFC901"/>
<ellipse rx="1.22895" ry="1.23074" transform="matrix(0.0174777 -0.999847 0.999848 0.0174272 1258.56 182.028)" fill="#FFC901"/>
<ellipse rx="1.22896" ry="1.23074" transform="matrix(0.0174775 -0.999847 0.999848 0.0174273 1258.56 177.104)" fill="#FFC901"/>
<ellipse rx="1.22896" ry="1.23074" transform="matrix(0.0174776 -0.999847 0.999848 0.0174273 1258.56 172.181)" fill="#FFC901"/>
<ellipse rx="1.22898" ry="1.23074" transform="matrix(0.0174772 -0.999847 0.999848 0.0174277 1258.56 167.258)" fill="#FFC901"/>
<ellipse rx="1.22894" ry="1.23074" transform="matrix(0.0174778 -0.999847 0.999848 0.0174271 1258.56 162.336)" fill="#FFC901"/>
<ellipse rx="1.22896" ry="1.23074" transform="matrix(0.0174775 -0.999847 0.999848 0.0174273 1258.56 157.412)" fill="#FFC901"/>
<ellipse rx="1.22894" ry="1.23073" transform="matrix(0.0174778 -0.999847 0.999848 0.0174271 1258.56 152.488)" fill="#FFC901"/>
<ellipse rx="1.22895" ry="1.23074" transform="matrix(0.0174777 -0.999847 0.999848 0.0174271 1258.56 147.566)" fill="#FFC901"/>
<ellipse rx="1.22895" ry="1.23074" transform="matrix(0.0174777 -0.999847 0.999848 0.0174271 1258.56 142.643)" fill="#FFC901"/>
<ellipse rx="1.22895" ry="1.23074" transform="matrix(0.0174777 -0.999847 0.999848 0.0174271 1258.56 137.72)" fill="#FFC901"/>
<ellipse rx="1.22895" ry="1.23072" transform="matrix(0.0174775 -0.999847 0.999848 0.0174273 1263.48 241.104)" fill="#FFC901"/>
<ellipse rx="1.22895" ry="1.23072" transform="matrix(0.0174775 -0.999847 0.999848 0.0174274 1263.48 236.18)" fill="#FFC901"/>
<ellipse rx="1.22895" ry="1.23072" transform="matrix(0.0174775 -0.999847 0.999848 0.0174274 1263.48 231.258)" fill="#FFC901"/>
<ellipse rx="1.22895" ry="1.23072" transform="matrix(0.0174774 -0.999847 0.999848 0.0174275 1263.48 226.335)" fill="#FFC901"/>
<ellipse rx="1.22896" ry="1.23072" transform="matrix(0.0174773 -0.999847 0.999848 0.0174275 1263.48 221.411)" fill="#FFC901"/>
<ellipse rx="1.22896" ry="1.23072" transform="matrix(0.0174773 -0.999847 0.999848 0.0174276 1263.48 216.488)" fill="#FFC901"/>
<ellipse rx="1.22896" ry="1.23072" transform="matrix(0.0174773 -0.999847 0.999848 0.0174276 1263.48 211.566)" fill="#FFC901"/>
<ellipse rx="1.22896" ry="1.23072" transform="matrix(0.0174773 -0.999847 0.999848 0.0174275 1263.48 206.642)" fill="#FFC901"/>
<ellipse rx="1.22895" ry="1.23072" transform="matrix(0.0174775 -0.999847 0.999848 0.0174273 1263.48 201.719)" fill="#FFC901"/>
<ellipse rx="1.22896" ry="1.23072" transform="matrix(0.0174774 -0.999847 0.999848 0.0174275 1263.48 196.796)" fill="#FFC901"/>
<ellipse rx="1.22896" ry="1.23072" transform="matrix(0.0174773 -0.999847 0.999848 0.0174275 1263.48 191.873)" fill="#FFC901"/>
<ellipse rx="1.22896" ry="1.23072" transform="matrix(0.0174773 -0.999847 0.999848 0.0174276 1263.48 186.95)" fill="#FFC901"/>
<ellipse rx="1.22894" ry="1.23073" transform="matrix(0.0174778 -0.999847 0.999848 0.017427 1263.48 182.028)" fill="#FFC901"/>
<ellipse rx="1.22896" ry="1.23072" transform="matrix(0.0174773 -0.999847 0.999848 0.0174276 1263.48 177.104)" fill="#FFC901"/>
<ellipse rx="1.22896" ry="1.23072" transform="matrix(0.0174774 -0.999847 0.999848 0.0174275 1263.48 172.181)" fill="#FFC901"/>
<ellipse rx="1.22896" ry="1.23072" transform="matrix(0.0174773 -0.999847 0.999848 0.0174276 1263.48 167.258)" fill="#FFC901"/>
<ellipse rx="1.22896" ry="1.23072" transform="matrix(0.0174773 -0.999847 0.999848 0.0174276 1263.48 162.336)" fill="#FFC901"/>
<ellipse rx="1.22896" ry="1.23072" transform="matrix(0.0174774 -0.999847 0.999848 0.0174275 1263.48 157.412)" fill="#FFC901"/>
<ellipse rx="1.22894" ry="1.23072" transform="matrix(0.0174776 -0.999847 0.999848 0.0174273 1263.48 152.489)" fill="#FFC901"/>
<ellipse rx="1.22895" ry="1.23073" transform="matrix(0.0174776 -0.999847 0.999848 0.0174273 1263.48 147.566)" fill="#FFC901"/>
<ellipse rx="1.22895" ry="1.23073" transform="matrix(0.0174776 -0.999847 0.999848 0.0174273 1263.48 142.643)" fill="#FFC901"/>
<ellipse rx="1.22896" ry="1.23072" transform="matrix(0.0174773 -0.999847 0.999848 0.0174276 1263.48 137.72)" fill="#FFC901"/>
<ellipse rx="1.22895" ry="1.23073" transform="matrix(0.0174776 -0.999847 0.999848 0.0174273 1268.4 241.104)" fill="#FFC901"/>
<ellipse rx="1.22895" ry="1.23073" transform="matrix(0.0174776 -0.999847 0.999848 0.0174273 1268.4 236.18)" fill="#FFC901"/>
<ellipse rx="1.22893" ry="1.23073" transform="matrix(0.0174778 -0.999847 0.999848 0.0174271 1268.4 231.258)" fill="#FFC901"/>
<ellipse rx="1.22896" ry="1.23073" transform="matrix(0.0174775 -0.999847 0.999848 0.0174273 1268.4 226.335)" fill="#FFC901"/>
<ellipse rx="1.22896" ry="1.23073" transform="matrix(0.0174775 -0.999847 0.999848 0.0174273 1268.4 221.411)" fill="#FFC901"/>
<ellipse rx="1.22896" ry="1.23074" transform="matrix(0.0174776 -0.999847 0.999848 0.0174273 1268.4 216.488)" fill="#FFC901"/>
<ellipse rx="1.22896" ry="1.23074" transform="matrix(0.0174776 -0.999847 0.999848 0.0174273 1268.4 211.566)" fill="#FFC901"/>
<ellipse rx="1.22895" ry="1.23073" transform="matrix(0.0174776 -0.999847 0.999848 0.0174273 1268.4 206.642)" fill="#FFC901"/>
<ellipse rx="1.22895" ry="1.23072" transform="matrix(0.0174776 -0.999847 0.999848 0.0174273 1268.4 201.719)" fill="#FFC901"/>
<ellipse rx="1.22896" ry="1.23073" transform="matrix(0.0174774 -0.999847 0.999848 0.0174275 1268.4 196.796)" fill="#FFC901"/>
<ellipse rx="1.22895" ry="1.23073" transform="matrix(0.0174777 -0.999847 0.999848 0.0174272 1268.4 191.873)" fill="#FFC901"/>
<ellipse rx="1.22897" ry="1.23073" transform="matrix(0.0174773 -0.999847 0.999848 0.0174276 1268.4 186.95)" fill="#FFC901"/>
<ellipse rx="1.22895" ry="1.23073" transform="matrix(0.0174776 -0.999847 0.999848 0.0174273 1268.4 182.028)" fill="#FFC901"/>
<ellipse rx="1.22896" ry="1.23074" transform="matrix(0.0174775 -0.999847 0.999848 0.0174273 1268.4 177.104)" fill="#FFC901"/>
<ellipse rx="1.22895" ry="1.23073" transform="matrix(0.0174775 -0.999847 0.999848 0.0174274 1268.4 172.181)" fill="#FFC901"/>
<ellipse rx="1.22896" ry="1.23073" transform="matrix(0.0174774 -0.999847 0.999848 0.0174275 1268.4 167.258)" fill="#FFC901"/>
<ellipse rx="1.22896" ry="1.23072" transform="matrix(0.0174774 -0.999847 0.999848 0.0174275 1268.4 162.336)" fill="#FFC901"/>
<ellipse rx="1.22896" ry="1.23074" transform="matrix(0.0174776 -0.999847 0.999848 0.0174273 1268.4 157.412)" fill="#FFC901"/>
<ellipse rx="1.22895" ry="1.23073" transform="matrix(0.0174775 -0.999847 0.999848 0.0174274 1268.4 152.489)" fill="#FFC901"/>
<ellipse rx="1.22895" ry="1.23073" transform="matrix(0.0174777 -0.999847 0.999848 0.0174272 1268.4 147.566)" fill="#FFC901"/>
<ellipse rx="1.22894" ry="1.23073" transform="matrix(0.0174778 -0.999847 0.999848 0.0174271 1268.4 142.643)" fill="#FFC901"/>
<ellipse rx="1.22895" ry="1.23073" transform="matrix(0.0174776 -0.999847 0.999848 0.0174273 1268.4 137.72)" fill="#FFC901"/>
<ellipse rx="1.22895" ry="1.23072" transform="matrix(0.0174775 -0.999847 0.999848 0.0174274 1273.33 241.104)" fill="#FFC901"/>
<ellipse rx="1.22895" ry="1.23071" transform="matrix(0.0174774 -0.999847 0.999848 0.0174275 1273.33 236.18)" fill="#FFC901"/>
<ellipse rx="1.22894" ry="1.23071" transform="matrix(0.0174775 -0.999847 0.999848 0.0174273 1273.33 231.258)" fill="#FFC901"/>
<ellipse rx="1.22896" ry="1.23071" transform="matrix(0.0174773 -0.999847 0.999848 0.0174276 1273.33 226.335)" fill="#FFC901"/>
<ellipse rx="1.22896" ry="1.23072" transform="matrix(0.0174774 -0.999847 0.999848 0.0174275 1273.33 221.411)" fill="#FFC901"/>
<ellipse rx="1.22896" ry="1.23071" transform="matrix(0.0174773 -0.999847 0.999848 0.0174276 1273.33 216.488)" fill="#FFC901"/>
<ellipse rx="1.22896" ry="1.23072" transform="matrix(0.0174773 -0.999847 0.999848 0.0174275 1273.33 211.565)" fill="#FFC901"/>
<ellipse rx="1.22896" ry="1.23071" transform="matrix(0.0174772 -0.999847 0.999848 0.0174276 1273.33 206.642)" fill="#FFC901"/>
<ellipse rx="1.22895" ry="1.23072" transform="matrix(0.0174775 -0.999847 0.999848 0.0174274 1273.33 201.719)" fill="#FFC901"/>
<ellipse rx="1.22896" ry="1.23072" transform="matrix(0.0174773 -0.999847 0.999848 0.0174276 1273.33 196.796)" fill="#FFC901"/>
<ellipse rx="1.22894" ry="1.23071" transform="matrix(0.0174775 -0.999847 0.999848 0.0174274 1273.33 191.873)" fill="#FFC901"/>
<ellipse rx="1.22897" ry="1.23071" transform="matrix(0.0174771 -0.999847 0.999848 0.0174278 1273.33 186.95)" fill="#FFC901"/>
<ellipse rx="1.22893" ry="1.23071" transform="matrix(0.0174777 -0.999847 0.999848 0.0174272 1273.33 182.027)" fill="#FFC901"/>
<ellipse rx="1.22896" ry="1.23072" transform="matrix(0.0174773 -0.999847 0.999848 0.0174276 1273.33 177.104)" fill="#FFC901"/>
<ellipse rx="1.22895" ry="1.23071" transform="matrix(0.0174773 -0.999847 0.999848 0.0174275 1273.33 172.181)" fill="#FFC901"/>
<ellipse rx="1.22898" ry="1.23071" transform="matrix(0.017477 -0.999847 0.999848 0.0174279 1273.33 167.258)" fill="#FFC901"/>
<ellipse rx="1.22895" ry="1.23071" transform="matrix(0.0174773 -0.999847 0.999848 0.0174276 1273.33 162.336)" fill="#FFC901"/>
<ellipse rx="1.22898" ry="1.23071" transform="matrix(0.017477 -0.999847 0.999848 0.0174279 1273.33 157.412)" fill="#FFC901"/>
<ellipse rx="1.22896" ry="1.23072" transform="matrix(0.0174773 -0.999847 0.999848 0.0174276 1273.33 152.488)" fill="#FFC901"/>
<ellipse rx="1.22893" ry="1.23071" transform="matrix(0.0174776 -0.999847 0.999848 0.0174273 1273.33 147.566)" fill="#FFC901"/>
<ellipse rx="1.22895" ry="1.23071" transform="matrix(0.0174774 -0.999847 0.999848 0.0174274 1273.33 142.643)" fill="#FFC901"/>
<ellipse rx="1.22895" ry="1.23071" transform="matrix(0.0174773 -0.999847 0.999848 0.0174276 1273.33 137.72)" fill="#FFC901"/>
<ellipse rx="1.22896" ry="1.23071" transform="matrix(0.0174773 -0.999847 0.999848 0.0174276 1278.25 241.103)" fill="#FFC901"/>
<ellipse rx="1.22895" ry="1.23071" transform="matrix(0.0174774 -0.999847 0.999848 0.0174275 1278.25 236.18)" fill="#FFC901"/>
<ellipse rx="1.22894" ry="1.23072" transform="matrix(0.0174776 -0.999847 0.999848 0.0174273 1278.25 231.258)" fill="#FFC901"/>
<ellipse rx="1.22895" ry="1.23071" transform="matrix(0.0174773 -0.999847 0.999848 0.0174275 1278.25 226.335)" fill="#FFC901"/>
<ellipse rx="1.22895" ry="1.23071" transform="matrix(0.0174773 -0.999847 0.999848 0.0174276 1278.25 221.411)" fill="#FFC901"/>
<ellipse rx="1.22896" ry="1.23071" transform="matrix(0.0174773 -0.999847 0.999848 0.0174276 1278.25 216.488)" fill="#FFC901"/>
<ellipse rx="1.22896" ry="1.23072" transform="matrix(0.0174774 -0.999847 0.999848 0.0174275 1278.25 211.566)" fill="#FFC901"/>
<ellipse rx="1.22896" ry="1.23072" transform="matrix(0.0174774 -0.999847 0.999848 0.0174275 1278.25 206.642)" fill="#FFC901"/>
<ellipse rx="1.22895" ry="1.23072" transform="matrix(0.0174775 -0.999847 0.999848 0.0174274 1278.25 201.719)" fill="#FFC901"/>
<ellipse rx="1.22896" ry="1.23071" transform="matrix(0.0174772 -0.999847 0.999848 0.0174277 1278.25 196.796)" fill="#FFC901"/>
<ellipse rx="1.22896" ry="1.23071" transform="matrix(0.0174772 -0.999847 0.999848 0.0174276 1278.25 191.873)" fill="#FFC901"/>
<ellipse rx="1.22897" ry="1.23072" transform="matrix(0.0174772 -0.999847 0.999848 0.0174277 1278.25 186.95)" fill="#FFC901"/>
<ellipse rx="1.22893" ry="1.23072" transform="matrix(0.0174778 -0.999847 0.999848 0.0174271 1278.25 182.028)" fill="#FFC901"/>
<ellipse rx="1.22897" ry="1.23072" transform="matrix(0.0174772 -0.999847 0.999848 0.0174276 1278.25 177.104)" fill="#FFC901"/>
<ellipse rx="1.22893" ry="1.23071" transform="matrix(0.0174776 -0.999847 0.999848 0.0174272 1278.25 172.181)" fill="#FFC901"/>
<ellipse rx="1.22897" ry="1.23072" transform="matrix(0.0174772 -0.999847 0.999848 0.0174277 1278.25 167.258)" fill="#FFC901"/>
<ellipse rx="1.22894" ry="1.23072" transform="matrix(0.0174776 -0.999847 0.999848 0.0174273 1278.25 162.335)" fill="#FFC901"/>
<ellipse rx="1.22898" ry="1.23072" transform="matrix(0.017477 -0.999847 0.999848 0.0174279 1278.25 157.412)" fill="#FFC901"/>
<ellipse rx="1.22896" ry="1.23071" transform="matrix(0.0174772 -0.999847 0.999848 0.0174277 1278.25 152.488)" fill="#FFC901"/>
<ellipse rx="1.22893" ry="1.23072" transform="matrix(0.0174778 -0.999847 0.999848 0.0174271 1278.25 147.566)" fill="#FFC901"/>
<ellipse rx="1.22896" ry="1.23071" transform="matrix(0.0174772 -0.999847 0.999848 0.0174277 1278.25 142.643)" fill="#FFC901"/>
<ellipse rx="1.22895" ry="1.23072" transform="matrix(0.0174774 -0.999847 0.999848 0.0174275 1278.25 137.72)" fill="#FFC901"/>
<ellipse rx="1.22895" ry="1.23072" transform="matrix(0.0174775 -0.999847 0.999848 0.0174274 1283.17 241.104)" fill="#FFC901"/>
<ellipse rx="1.22895" ry="1.23072" transform="matrix(0.0174775 -0.999847 0.999848 0.0174274 1283.17 236.18)" fill="#FFC901"/>
<ellipse rx="1.22895" ry="1.23073" transform="matrix(0.0174776 -0.999847 0.999848 0.0174272 1283.17 231.258)" fill="#FFC901"/>
<ellipse rx="1.22895" ry="1.23072" transform="matrix(0.0174775 -0.999847 0.999848 0.0174274 1283.17 226.335)" fill="#FFC901"/>
<ellipse rx="1.22896" ry="1.23072" transform="matrix(0.0174774 -0.999847 0.999848 0.0174275 1283.17 221.411)" fill="#FFC901"/>
<ellipse rx="1.22896" ry="1.23073" transform="matrix(0.0174774 -0.999847 0.999848 0.0174275 1283.17 216.488)" fill="#FFC901"/>
<ellipse rx="1.22896" ry="1.23073" transform="matrix(0.0174774 -0.999847 0.999848 0.0174274 1283.17 211.566)" fill="#FFC901"/>
<ellipse rx="1.22895" ry="1.23073" transform="matrix(0.0174775 -0.999847 0.999848 0.0174274 1283.17 206.642)" fill="#FFC901"/>
<ellipse rx="1.22895" ry="1.23071" transform="matrix(0.0174773 -0.999847 0.999848 0.0174275 1283.17 201.719)" fill="#FFC901"/>
<ellipse rx="1.22896" ry="1.23073" transform="matrix(0.0174775 -0.999847 0.999848 0.0174274 1283.17 196.796)" fill="#FFC901"/>
<ellipse rx="1.22895" ry="1.23073" transform="matrix(0.0174776 -0.999847 0.999848 0.0174273 1283.17 191.873)" fill="#FFC901"/>
<ellipse rx="1.22898" ry="1.23073" transform="matrix(0.0174772 -0.999847 0.999848 0.0174277 1283.17 186.95)" fill="#FFC901"/>
<ellipse rx="1.22893" ry="1.23073" transform="matrix(0.0174778 -0.999847 0.999848 0.017427 1283.17 182.028)" fill="#FFC901"/>
<ellipse rx="1.22897" ry="1.23073" transform="matrix(0.0174773 -0.999847 0.999848 0.0174276 1283.17 177.104)" fill="#FFC901"/>
<ellipse rx="1.22896" ry="1.23073" transform="matrix(0.0174774 -0.999847 0.999848 0.0174275 1283.17 172.181)" fill="#FFC901"/>
<ellipse rx="1.22897" ry="1.23073" transform="matrix(0.0174772 -0.999847 0.999848 0.0174276 1283.17 167.258)" fill="#FFC901"/>
<ellipse rx="1.22895" ry="1.23073" transform="matrix(0.0174776 -0.999847 0.999848 0.0174273 1283.17 162.336)" fill="#FFC901"/>
<ellipse rx="1.22898" ry="1.23072" transform="matrix(0.0174771 -0.999847 0.999848 0.0174278 1283.17 157.412)" fill="#FFC901"/>
<ellipse rx="1.22895" ry="1.23072" transform="matrix(0.0174775 -0.999847 0.999848 0.0174274 1283.17 152.489)" fill="#FFC901"/>
<ellipse rx="1.22895" ry="1.23073" transform="matrix(0.0174776 -0.999847 0.999848 0.0174273 1283.17 147.566)" fill="#FFC901"/>
<ellipse rx="1.22895" ry="1.23073" transform="matrix(0.0174776 -0.999847 0.999848 0.0174273 1283.17 142.643)" fill="#FFC901"/>
<ellipse rx="1.22895" ry="1.23072" transform="matrix(0.0174776 -0.999847 0.999848 0.0174273 1283.17 137.72)" fill="#FFC901"/>
<ellipse rx="1.22895" ry="1.23073" transform="matrix(0.0174775 -0.999847 0.999848 0.0174274 1288.09 241.104)" fill="#FFC901"/>
<ellipse rx="1.22895" ry="1.23073" transform="matrix(0.0174776 -0.999847 0.999848 0.0174273 1288.09 236.18)" fill="#FFC901"/>
<ellipse rx="1.22894" ry="1.23073" transform="matrix(0.0174777 -0.999847 0.999848 0.0174272 1288.09 231.258)" fill="#FFC901"/>
<ellipse rx="1.22895" ry="1.23073" transform="matrix(0.0174777 -0.999847 0.999848 0.0174272 1288.09 226.335)" fill="#FFC901"/>
<ellipse rx="1.22896" ry="1.23072" transform="matrix(0.0174773 -0.999847 0.999848 0.0174276 1288.09 221.411)" fill="#FFC901"/>
<ellipse rx="1.22896" ry="1.23073" transform="matrix(0.0174774 -0.999847 0.999848 0.0174274 1288.09 216.488)" fill="#FFC901"/>
<ellipse rx="1.22896" ry="1.23073" transform="matrix(0.0174774 -0.999847 0.999848 0.0174275 1288.09 211.566)" fill="#FFC901"/>
<ellipse rx="1.22895" ry="1.23072" transform="matrix(0.0174775 -0.999847 0.999848 0.0174274 1288.09 206.642)" fill="#FFC901"/>
<ellipse rx="1.22895" ry="1.23073" transform="matrix(0.0174777 -0.999847 0.999848 0.0174272 1288.09 201.719)" fill="#FFC901"/>
<ellipse rx="1.22896" ry="1.23073" transform="matrix(0.0174775 -0.999847 0.999848 0.0174274 1288.09 196.796)" fill="#FFC901"/>
<ellipse rx="1.22894" ry="1.23072" transform="matrix(0.0174776 -0.999847 0.999848 0.0174273 1288.09 191.873)" fill="#FFC901"/>
<ellipse rx="1.22897" ry="1.23073" transform="matrix(0.0174773 -0.999847 0.999848 0.0174276 1288.09 186.95)" fill="#FFC901"/>
<ellipse rx="1.22895" ry="1.23072" transform="matrix(0.0174775 -0.999847 0.999848 0.0174274 1288.09 182.027)" fill="#FFC901"/>
<ellipse rx="1.22897" ry="1.23072" transform="matrix(0.0174772 -0.999847 0.999848 0.0174276 1288.09 177.104)" fill="#FFC901"/>
<ellipse rx="1.22896" ry="1.23072" transform="matrix(0.0174772 -0.999847 0.999848 0.0174276 1288.09 172.181)" fill="#FFC901"/>
<ellipse rx="1.22898" ry="1.23072" transform="matrix(0.017477 -0.999847 0.999848 0.0174279 1288.09 167.258)" fill="#FFC901"/>
<ellipse rx="1.22894" ry="1.23072" transform="matrix(0.0174776 -0.999847 0.999848 0.0174273 1288.09 162.336)" fill="#FFC901"/>
<ellipse rx="1.22898" ry="1.23072" transform="matrix(0.0174771 -0.999847 0.999848 0.0174278 1288.09 157.412)" fill="#FFC901"/>
<ellipse rx="1.22896" ry="1.23073" transform="matrix(0.0174775 -0.999847 0.999848 0.0174274 1288.09 152.489)" fill="#FFC901"/>
<ellipse rx="1.22895" ry="1.23072" transform="matrix(0.0174776 -0.999847 0.999848 0.0174273 1288.09 147.566)" fill="#FFC901"/>
<ellipse rx="1.22894" ry="1.23072" transform="matrix(0.0174777 -0.999847 0.999848 0.0174272 1288.09 142.643)" fill="#FFC901"/>
<ellipse rx="1.22896" ry="1.23072" transform="matrix(0.0174773 -0.999847 0.999848 0.0174275 1288.09 137.72)" fill="#FFC901"/>
<ellipse rx="1.22895" ry="1.23074" transform="matrix(0.0174777 -0.999847 0.999848 0.0174272 1293.02 241.104)" fill="#FFC901"/>
<ellipse rx="1.22895" ry="1.23073" transform="matrix(0.0174776 -0.999847 0.999848 0.0174272 1293.02 236.18)" fill="#FFC901"/>
<ellipse rx="1.22895" ry="1.23073" transform="matrix(0.0174776 -0.999847 0.999848 0.0174273 1293.02 231.258)" fill="#FFC901"/>
<ellipse rx="1.22896" ry="1.23073" transform="matrix(0.0174775 -0.999847 0.999848 0.0174273 1293.02 226.335)" fill="#FFC901"/>
<ellipse rx="1.22896" ry="1.23073" transform="matrix(0.0174776 -0.999847 0.999848 0.0174273 1293.02 221.411)" fill="#FFC901"/>
<ellipse rx="1.22896" ry="1.23073" transform="matrix(0.0174774 -0.999847 0.999848 0.0174275 1293.02 216.488)" fill="#FFC901"/>
<ellipse rx="1.22896" ry="1.23073" transform="matrix(0.0174775 -0.999847 0.999848 0.0174274 1293.02 211.566)" fill="#FFC901"/>
<ellipse rx="1.22895" ry="1.23073" transform="matrix(0.0174777 -0.999847 0.999848 0.0174272 1293.02 206.642)" fill="#FFC901"/>
<ellipse rx="1.22895" ry="1.23073" transform="matrix(0.0174777 -0.999847 0.999848 0.0174272 1293.02 201.719)" fill="#FFC901"/>
<ellipse rx="1.22897" ry="1.23073" transform="matrix(0.0174773 -0.999847 0.999848 0.0174275 1293.02 196.796)" fill="#FFC901"/>
<ellipse rx="1.22896" ry="1.23073" transform="matrix(0.0174774 -0.999847 0.999848 0.0174274 1293.02 191.874)" fill="#FFC901"/>
<ellipse rx="1.22898" ry="1.23073" transform="matrix(0.0174772 -0.999847 0.999848 0.0174277 1293.02 186.95)" fill="#FFC901"/>
<ellipse rx="1.22893" ry="1.23073" transform="matrix(0.0174779 -0.999847 0.999848 0.017427 1293.02 182.028)" fill="#FFC901"/>
<ellipse rx="1.22896" ry="1.23073" transform="matrix(0.0174775 -0.999847 0.999848 0.0174274 1293.02 177.104)" fill="#FFC901"/>
<ellipse rx="1.22895" ry="1.23073" transform="matrix(0.0174776 -0.999847 0.999848 0.0174273 1293.02 172.181)" fill="#FFC901"/>
<ellipse rx="1.22897" ry="1.23073" transform="matrix(0.0174773 -0.999847 0.999848 0.0174276 1293.02 167.258)" fill="#FFC901"/>
<ellipse rx="1.22895" ry="1.23072" transform="matrix(0.0174775 -0.999847 0.999848 0.0174274 1293.02 162.336)" fill="#FFC901"/>
<ellipse rx="1.22897" ry="1.23073" transform="matrix(0.0174773 -0.999847 0.999848 0.0174275 1293.02 157.412)" fill="#FFC901"/>
<ellipse rx="1.22895" ry="1.23073" transform="matrix(0.0174776 -0.999847 0.999848 0.0174273 1293.02 152.489)" fill="#FFC901"/>
<ellipse rx="1.22895" ry="1.23073" transform="matrix(0.0174776 -0.999847 0.999848 0.0174273 1293.02 147.566)" fill="#FFC901"/>
<ellipse rx="1.22895" ry="1.23072" transform="matrix(0.0174776 -0.999847 0.999848 0.0174273 1293.02 142.643)" fill="#FFC901"/>
<ellipse rx="1.22895" ry="1.23073" transform="matrix(0.0174777 -0.999847 0.999848 0.0174272 1293.02 137.72)" fill="#FFC901"/>
<ellipse rx="1.22896" ry="1.23074" transform="matrix(0.0174777 -0.999847 0.999848 0.0174271 1297.94 241.104)" fill="#FFC901"/>
<ellipse rx="1.22895" ry="1.23074" transform="matrix(0.0174778 -0.999847 0.999848 0.0174271 1297.94 236.18)" fill="#FFC901"/>
<ellipse rx="1.22895" ry="1.23074" transform="matrix(0.0174778 -0.999847 0.999848 0.0174271 1297.94 231.258)" fill="#FFC901"/>
<ellipse rx="1.22896" ry="1.23074" transform="matrix(0.0174776 -0.999847 0.999848 0.0174273 1297.94 226.335)" fill="#FFC901"/>
<ellipse rx="1.22895" ry="1.23074" transform="matrix(0.0174778 -0.999847 0.999848 0.0174271 1297.94 221.411)" fill="#FFC901"/>
<ellipse rx="1.22896" ry="1.23074" transform="matrix(0.0174777 -0.999847 0.999848 0.0174272 1297.94 216.488)" fill="#FFC901"/>
<ellipse rx="1.22896" ry="1.23075" transform="matrix(0.0174778 -0.999847 0.999848 0.0174271 1297.94 211.566)" fill="#FFC901"/>
<ellipse rx="1.22895" ry="1.23074" transform="matrix(0.0174778 -0.999847 0.999848 0.0174271 1297.94 206.642)" fill="#FFC901"/>
<ellipse rx="1.22895" ry="1.23073" transform="matrix(0.0174775 -0.999847 0.999848 0.0174274 1297.94 201.719)" fill="#FFC901"/>
<ellipse rx="1.22896" ry="1.23074" transform="matrix(0.0174776 -0.999847 0.999848 0.0174273 1297.94 196.796)" fill="#FFC901"/>
<ellipse rx="1.22896" ry="1.23074" transform="matrix(0.0174776 -0.999847 0.999848 0.0174273 1297.94 191.874)" fill="#FFC901"/>
<ellipse rx="1.22897" ry="1.23073" transform="matrix(0.0174774 -0.999847 0.999848 0.0174275 1297.94 186.95)" fill="#FFC901"/>
<ellipse rx="1.22893" ry="1.23073" transform="matrix(0.0174779 -0.999847 0.999848 0.0174269 1297.94 182.027)" fill="#FFC901"/>
<ellipse rx="1.22897" ry="1.23074" transform="matrix(0.0174775 -0.999847 0.999848 0.0174274 1297.94 177.104)" fill="#FFC901"/>
<ellipse rx="1.22896" ry="1.23075" transform="matrix(0.0174778 -0.999847 0.999848 0.0174271 1297.94 172.181)" fill="#FFC901"/>
<ellipse rx="1.22898" ry="1.23073" transform="matrix(0.0174772 -0.999847 0.999848 0.0174277 1297.94 167.258)" fill="#FFC901"/>
<ellipse rx="1.22895" ry="1.23075" transform="matrix(0.0174779 -0.999847 0.999848 0.0174269 1297.94 162.336)" fill="#FFC901"/>
<ellipse rx="1.22898" ry="1.23074" transform="matrix(0.0174773 -0.999847 0.999848 0.0174275 1297.94 157.412)" fill="#FFC901"/>
<ellipse rx="1.22895" ry="1.23074" transform="matrix(0.0174778 -0.999847 0.999848 0.0174271 1297.94 152.489)" fill="#FFC901"/>
<ellipse rx="1.22895" ry="1.23074" transform="matrix(0.0174778 -0.999847 0.999848 0.0174271 1297.94 147.566)" fill="#FFC901"/>
<ellipse rx="1.22894" ry="1.23074" transform="matrix(0.017478 -0.999847 0.999848 0.0174269 1297.94 142.643)" fill="#FFC901"/>
<ellipse rx="1.22895" ry="1.23074" transform="matrix(0.0174778 -0.999847 0.999848 0.0174271 1297.94 137.72)" fill="#FFC901"/>
<ellipse rx="1.22895" ry="1.23072" transform="matrix(0.0174775 -0.999847 0.999848 0.0174274 1302.86 241.103)" fill="#FFC901"/>
<ellipse rx="1.22895" ry="1.23072" transform="matrix(0.0174775 -0.999847 0.999848 0.0174274 1302.86 236.18)" fill="#FFC901"/>
<ellipse rx="1.22895" ry="1.23072" transform="matrix(0.0174775 -0.999847 0.999848 0.0174274 1302.86 231.258)" fill="#FFC901"/>
<ellipse rx="1.22895" ry="1.23073" transform="matrix(0.0174775 -0.999847 0.999848 0.0174274 1302.86 226.335)" fill="#FFC901"/>
<ellipse rx="1.22896" ry="1.23072" transform="matrix(0.0174774 -0.999847 0.999848 0.0174275 1302.86 221.411)" fill="#FFC901"/>
<ellipse rx="1.22896" ry="1.23072" transform="matrix(0.0174773 -0.999847 0.999848 0.0174276 1302.86 216.488)" fill="#FFC901"/>
<ellipse rx="1.22896" ry="1.23072" transform="matrix(0.0174773 -0.999847 0.999848 0.0174276 1302.86 211.566)" fill="#FFC901"/>
<ellipse rx="1.22895" ry="1.23071" transform="matrix(0.0174774 -0.999847 0.999848 0.0174275 1302.86 206.642)" fill="#FFC901"/>
<ellipse rx="1.22895" ry="1.23072" transform="matrix(0.0174776 -0.999847 0.999848 0.0174273 1302.86 201.719)" fill="#FFC901"/>
<ellipse rx="1.22896" ry="1.23072" transform="matrix(0.0174773 -0.999847 0.999848 0.0174275 1302.86 196.796)" fill="#FFC901"/>
<ellipse rx="1.22896" ry="1.23072" transform="matrix(0.0174773 -0.999847 0.999848 0.0174275 1302.86 191.874)" fill="#FFC901"/>
<ellipse rx="1.22898" ry="1.23071" transform="matrix(0.017477 -0.999847 0.999848 0.0174279 1302.86 186.95)" fill="#FFC901"/>
<ellipse rx="1.22895" ry="1.23071" transform="matrix(0.0174774 -0.999847 0.999848 0.0174275 1302.86 182.027)" fill="#FFC901"/>
<ellipse rx="1.22896" ry="1.23072" transform="matrix(0.0174773 -0.999847 0.999848 0.0174276 1302.86 177.104)" fill="#FFC901"/>
<ellipse rx="1.22895" ry="1.23072" transform="matrix(0.0174776 -0.999847 0.999848 0.0174273 1302.86 172.181)" fill="#FFC901"/>
<ellipse rx="1.22897" ry="1.23072" transform="matrix(0.0174771 -0.999847 0.999848 0.0174277 1302.86 167.258)" fill="#FFC901"/>
<ellipse rx="1.22895" ry="1.23072" transform="matrix(0.0174775 -0.999847 0.999848 0.0174274 1302.86 162.336)" fill="#FFC901"/>
<ellipse rx="1.22898" ry="1.23071" transform="matrix(0.017477 -0.999847 0.999848 0.0174279 1302.86 157.412)" fill="#FFC901"/>
<ellipse rx="1.22896" ry="1.23072" transform="matrix(0.0174773 -0.999847 0.999848 0.0174275 1302.86 152.489)" fill="#FFC901"/>
<ellipse rx="1.22895" ry="1.23073" transform="matrix(0.0174777 -0.999847 0.999848 0.0174272 1302.86 147.566)" fill="#FFC901"/>
<ellipse rx="1.22893" ry="1.23072" transform="matrix(0.0174778 -0.999847 0.999848 0.0174271 1302.86 142.643)" fill="#FFC901"/>
<ellipse rx="1.22895" ry="1.23072" transform="matrix(0.0174774 -0.999847 0.999848 0.0174275 1302.86 137.72)" fill="#FFC901"/>
<ellipse rx="1.22896" ry="1.23073" transform="matrix(0.0174775 -0.999847 0.999848 0.0174274 1307.79 241.104)" fill="#FFC901"/>
<ellipse rx="1.22895" ry="1.23074" transform="matrix(0.0174779 -0.999847 0.999848 0.017427 1307.79 236.18)" fill="#FFC901"/>
<ellipse rx="1.22895" ry="1.23073" transform="matrix(0.0174776 -0.999847 0.999848 0.0174273 1307.79 231.258)" fill="#FFC901"/>
<ellipse rx="1.22895" ry="1.23074" transform="matrix(0.0174778 -0.999847 0.999848 0.0174271 1307.79 226.335)" fill="#FFC901"/>
<ellipse rx="1.22895" ry="1.23073" transform="matrix(0.0174775 -0.999847 0.999848 0.0174274 1307.79 221.411)" fill="#FFC901"/>
<ellipse rx="1.22896" ry="1.23073" transform="matrix(0.0174774 -0.999847 0.999848 0.0174275 1307.79 216.488)" fill="#FFC901"/>
<ellipse rx="1.22896" ry="1.23073" transform="matrix(0.0174774 -0.999847 0.999848 0.0174275 1307.79 211.566)" fill="#FFC901"/>
<ellipse rx="1.22895" ry="1.23072" transform="matrix(0.0174774 -0.999847 0.999848 0.0174274 1307.79 206.642)" fill="#FFC901"/>
<ellipse rx="1.22895" ry="1.23072" transform="matrix(0.0174775 -0.999847 0.999848 0.0174274 1307.79 201.719)" fill="#FFC901"/>
<ellipse rx="1.22896" ry="1.23074" transform="matrix(0.0174776 -0.999847 0.999848 0.0174273 1307.79 196.796)" fill="#FFC901"/>
<ellipse rx="1.22895" ry="1.23075" transform="matrix(0.0174778 -0.999847 0.999848 0.0174271 1307.79 191.873)" fill="#FFC901"/>
<ellipse rx="1.22897" ry="1.23073" transform="matrix(0.0174773 -0.999847 0.999848 0.0174276 1307.79 186.95)" fill="#FFC901"/>
<ellipse rx="1.22894" ry="1.23073" transform="matrix(0.0174777 -0.999847 0.999848 0.0174272 1307.79 182.028)" fill="#FFC901"/>
<ellipse rx="1.22896" ry="1.23073" transform="matrix(0.0174775 -0.999847 0.999848 0.0174274 1307.79 177.104)" fill="#FFC901"/>
<ellipse rx="1.22895" ry="1.23073" transform="matrix(0.0174775 -0.999847 0.999848 0.0174274 1307.79 172.181)" fill="#FFC901"/>
<ellipse rx="1.22898" ry="1.23072" transform="matrix(0.0174771 -0.999847 0.999848 0.0174278 1307.79 167.258)" fill="#FFC901"/>
<ellipse rx="1.22895" ry="1.23072" transform="matrix(0.0174775 -0.999847 0.999848 0.0174274 1307.79 162.336)" fill="#FFC901"/>
<ellipse rx="1.22897" ry="1.23074" transform="matrix(0.0174775 -0.999847 0.999848 0.0174274 1307.79 157.412)" fill="#FFC901"/>
<ellipse rx="1.22896" ry="1.23073" transform="matrix(0.0174775 -0.999847 0.999848 0.0174274 1307.79 152.489)" fill="#FFC901"/>
<ellipse rx="1.22895" ry="1.23073" transform="matrix(0.0174776 -0.999847 0.999848 0.0174273 1307.79 147.566)" fill="#FFC901"/>
<ellipse rx="1.22895" ry="1.23073" transform="matrix(0.0174776 -0.999847 0.999848 0.0174273 1307.79 142.643)" fill="#FFC901"/>
<ellipse rx="1.22894" ry="1.23073" transform="matrix(0.0174778 -0.999847 0.999848 0.0174271 1307.79 137.72)" fill="#FFC901"/>
<ellipse rx="1.22896" ry="1.23071" transform="matrix(0.0174773 -0.999847 0.999848 0.0174276 1312.71 241.104)" fill="#FFC901"/>
<ellipse rx="1.22895" ry="1.23071" transform="matrix(0.0174774 -0.999847 0.999848 0.0174275 1312.71 236.18)" fill="#FFC901"/>
<ellipse rx="1.22895" ry="1.23072" transform="matrix(0.0174776 -0.999847 0.999848 0.0174273 1312.71 231.258)" fill="#FFC901"/>
<ellipse rx="1.22895" ry="1.23072" transform="matrix(0.0174775 -0.999847 0.999848 0.0174274 1312.71 226.335)" fill="#FFC901"/>
<ellipse rx="1.22895" ry="1.23073" transform="matrix(0.0174776 -0.999847 0.999848 0.0174273 1312.71 221.411)" fill="#FFC901"/>
<ellipse rx="1.22896" ry="1.23073" transform="matrix(0.0174775 -0.999847 0.999848 0.0174274 1312.71 216.488)" fill="#FFC901"/>
<ellipse rx="1.22896" ry="1.23072" transform="matrix(0.0174774 -0.999847 0.999848 0.0174275 1312.71 211.566)" fill="#FFC901"/>
<ellipse rx="1.22895" ry="1.23073" transform="matrix(0.0174776 -0.999847 0.999848 0.0174273 1312.71 206.642)" fill="#FFC901"/>
<ellipse rx="1.22895" ry="1.23072" transform="matrix(0.0174774 -0.999847 0.999848 0.0174275 1312.71 201.719)" fill="#FFC901"/>
<ellipse rx="1.22896" ry="1.23072" transform="matrix(0.0174773 -0.999847 0.999848 0.0174276 1312.71 196.796)" fill="#FFC901"/>
<ellipse rx="1.22895" ry="1.23072" transform="matrix(0.0174775 -0.999847 0.999848 0.0174274 1312.71 191.873)" fill="#FFC901"/>
<ellipse rx="1.22897" ry="1.23073" transform="matrix(0.0174772 -0.999847 0.999848 0.0174276 1312.71 186.95)" fill="#FFC901"/>
<ellipse rx="1.22894" ry="1.23072" transform="matrix(0.0174776 -0.999847 0.999848 0.0174273 1312.71 182.028)" fill="#FFC901"/>
<ellipse rx="1.22896" ry="1.23072" transform="matrix(0.0174773 -0.999847 0.999848 0.0174276 1312.71 177.104)" fill="#FFC901"/>
<ellipse rx="1.22895" ry="1.23072" transform="matrix(0.0174774 -0.999847 0.999848 0.0174274 1312.71 172.181)" fill="#FFC901"/>
<ellipse rx="1.22898" ry="1.2307" transform="matrix(0.0174768 -0.999847 0.999848 0.0174281 1312.71 167.258)" fill="#FFC901"/>
<ellipse rx="1.22895" ry="1.23072" transform="matrix(0.0174775 -0.999847 0.999848 0.0174274 1312.71 162.336)" fill="#FFC901"/>
<ellipse rx="1.22898" ry="1.23073" transform="matrix(0.0174772 -0.999847 0.999848 0.0174277 1312.71 157.412)" fill="#FFC901"/>
<ellipse rx="1.22896" ry="1.23072" transform="matrix(0.0174773 -0.999847 0.999848 0.0174275 1312.71 152.488)" fill="#FFC901"/>
<ellipse rx="1.22895" ry="1.23072" transform="matrix(0.0174775 -0.999847 0.999848 0.0174274 1312.71 147.566)" fill="#FFC901"/>
<ellipse rx="1.22895" ry="1.23071" transform="matrix(0.0174775 -0.999847 0.999848 0.0174274 1312.71 142.643)" fill="#FFC901"/>
<ellipse rx="1.22896" ry="1.2307" transform="matrix(0.0174771 -0.999847 0.999848 0.0174278 1312.71 137.72)" fill="#FFC901"/>
<ellipse rx="1.22896" ry="1.23071" transform="matrix(0.0174773 -0.999847 0.999848 0.0174276 1317.63 241.104)" fill="#FFC901"/>
<ellipse rx="1.22895" ry="1.23071" transform="matrix(0.0174773 -0.999847 0.999848 0.0174276 1317.63 236.18)" fill="#FFC901"/>
<ellipse rx="1.22895" ry="1.23071" transform="matrix(0.0174774 -0.999847 0.999848 0.0174275 1317.63 231.257)" fill="#FFC901"/>
<ellipse rx="1.22895" ry="1.23073" transform="matrix(0.0174777 -0.999847 0.999848 0.0174272 1317.63 226.335)" fill="#FFC901"/>
<ellipse rx="1.22896" ry="1.23072" transform="matrix(0.0174774 -0.999847 0.999848 0.0174275 1317.63 221.411)" fill="#FFC901"/>
<ellipse rx="1.22895" ry="1.23071" transform="matrix(0.0174773 -0.999847 0.999848 0.0174276 1317.63 216.488)" fill="#FFC901"/>
<ellipse rx="1.22896" ry="1.23073" transform="matrix(0.0174775 -0.999847 0.999848 0.0174274 1317.63 211.566)" fill="#FFC901"/>
<ellipse rx="1.22896" ry="1.23071" transform="matrix(0.0174772 -0.999847 0.999848 0.0174277 1317.63 206.642)" fill="#FFC901"/>
<ellipse rx="1.22895" ry="1.23071" transform="matrix(0.0174774 -0.999847 0.999848 0.0174274 1317.63 201.719)" fill="#FFC901"/>
<ellipse rx="1.22896" ry="1.23071" transform="matrix(0.0174771 -0.999847 0.999848 0.0174278 1317.63 196.796)" fill="#FFC901"/>
<ellipse rx="1.22895" ry="1.23071" transform="matrix(0.0174772 -0.999847 0.999848 0.0174276 1317.63 191.873)" fill="#FFC901"/>
<ellipse rx="1.22896" ry="1.23071" transform="matrix(0.0174772 -0.999847 0.999848 0.0174276 1317.63 186.95)" fill="#FFC901"/>
<ellipse rx="1.22893" ry="1.23073" transform="matrix(0.0174779 -0.999847 0.999848 0.017427 1317.63 182.028)" fill="#FFC901"/>
<ellipse rx="1.22896" ry="1.23071" transform="matrix(0.0174772 -0.999847 0.999848 0.0174276 1317.63 177.104)" fill="#FFC901"/>
<ellipse rx="1.22895" ry="1.23071" transform="matrix(0.0174773 -0.999847 0.999848 0.0174276 1317.63 172.181)" fill="#FFC901"/>
<ellipse rx="1.22898" ry="1.23071" transform="matrix(0.0174769 -0.999847 0.999848 0.017428 1317.63 167.258)" fill="#FFC901"/>
<ellipse rx="1.22895" ry="1.23071" transform="matrix(0.0174773 -0.999847 0.999848 0.0174275 1317.63 162.336)" fill="#FFC901"/>
<ellipse rx="1.22898" ry="1.23071" transform="matrix(0.0174769 -0.999847 0.999848 0.017428 1317.63 157.412)" fill="#FFC901"/>
<ellipse rx="1.22895" ry="1.23073" transform="matrix(0.0174776 -0.999847 0.999848 0.0174273 1317.63 152.488)" fill="#FFC901"/>
<ellipse rx="1.22893" ry="1.23071" transform="matrix(0.0174777 -0.999847 0.999848 0.0174272 1317.63 147.566)" fill="#FFC901"/>
<ellipse rx="1.22895" ry="1.23074" transform="matrix(0.0174778 -0.999847 0.999848 0.0174271 1317.63 142.643)" fill="#FFC901"/>
<ellipse rx="1.22896" ry="1.23071" transform="matrix(0.0174772 -0.999847 0.999848 0.0174277 1317.63 137.72)" fill="#FFC901"/>
<ellipse rx="1.22896" ry="1.23072" transform="matrix(0.0174773 -0.999847 0.999848 0.0174276 1322.55 241.104)" fill="#FFC901"/>
<ellipse rx="1.22895" ry="1.23071" transform="matrix(0.0174773 -0.999847 0.999848 0.0174275 1322.55 236.18)" fill="#FFC901"/>
<ellipse rx="1.22894" ry="1.23073" transform="matrix(0.0174777 -0.999847 0.999848 0.0174272 1322.55 231.258)" fill="#FFC901"/>
<ellipse rx="1.22895" ry="1.23072" transform="matrix(0.0174775 -0.999847 0.999848 0.0174274 1322.55 226.335)" fill="#FFC901"/>
<ellipse rx="1.22895" ry="1.23073" transform="matrix(0.0174776 -0.999847 0.999848 0.0174273 1322.55 221.411)" fill="#FFC901"/>
<ellipse rx="1.22895" ry="1.23073" transform="matrix(0.0174777 -0.999847 0.999848 0.0174272 1322.55 216.488)" fill="#FFC901"/>
<ellipse rx="1.22896" ry="1.23073" transform="matrix(0.0174775 -0.999847 0.999848 0.0174273 1322.55 211.566)" fill="#FFC901"/>
<ellipse rx="1.22896" ry="1.23071" transform="matrix(0.0174772 -0.999847 0.999848 0.0174276 1322.55 206.642)" fill="#FFC901"/>
<ellipse rx="1.22895" ry="1.23071" transform="matrix(0.0174774 -0.999847 0.999848 0.0174275 1322.55 201.719)" fill="#FFC901"/>
<ellipse rx="1.22896" ry="1.23073" transform="matrix(0.0174774 -0.999847 0.999848 0.0174274 1322.55 196.796)" fill="#FFC901"/>
<ellipse rx="1.22895" ry="1.23072" transform="matrix(0.0174774 -0.999847 0.999848 0.0174275 1322.55 191.873)" fill="#FFC901"/>
<ellipse rx="1.22895" ry="1.23071" transform="matrix(0.0174772 -0.999847 0.999848 0.0174276 1322.55 186.95)" fill="#FFC901"/>
<ellipse rx="1.22894" ry="1.23072" transform="matrix(0.0174776 -0.999847 0.999848 0.0174273 1322.55 182.028)" fill="#FFC901"/>
<ellipse rx="1.22896" ry="1.23072" transform="matrix(0.0174772 -0.999847 0.999848 0.0174276 1322.55 177.104)" fill="#FFC901"/>
<ellipse rx="1.22895" ry="1.23072" transform="matrix(0.0174774 -0.999847 0.999848 0.0174274 1322.55 172.181)" fill="#FFC901"/>
<ellipse rx="1.22898" ry="1.23071" transform="matrix(0.0174769 -0.999847 0.999848 0.017428 1322.55 167.258)" fill="#FFC901"/>
<ellipse rx="1.22895" ry="1.23072" transform="matrix(0.0174774 -0.999847 0.999848 0.0174274 1322.55 162.336)" fill="#FFC901"/>
<ellipse rx="1.22897" ry="1.23072" transform="matrix(0.0174772 -0.999847 0.999848 0.0174277 1322.55 157.412)" fill="#FFC901"/>
<ellipse rx="1.22895" ry="1.23071" transform="matrix(0.0174773 -0.999847 0.999848 0.0174275 1322.55 152.489)" fill="#FFC901"/>
<ellipse rx="1.22895" ry="1.23071" transform="matrix(0.0174773 -0.999847 0.999848 0.0174275 1322.55 147.566)" fill="#FFC901"/>
<ellipse rx="1.22894" ry="1.23073" transform="matrix(0.0174778 -0.999847 0.999848 0.0174271 1322.55 142.643)" fill="#FFC901"/>
<ellipse rx="1.22897" ry="1.2307" transform="matrix(0.017477 -0.999847 0.999848 0.0174279 1322.55 137.72)" fill="#FFC901"/>
</g>
<path d="M1288.95 189L1339.57 355.589L1207.94 276.79L1288.95 189Z" fill="#FB5315"/>
</g>
</g>
<defs>
<filter id="filter0_i" x="0" y="0" width="1440" height="669" filterUnits="userSpaceOnUse" color-interpolation-filters="sRGB">
<feFlood flood-opacity="0" result="BackgroundImageFix"/>
<feBlend mode="normal" in="SourceGraphic" in2="BackgroundImageFix" result="shape"/>
<feColorMatrix in="SourceAlpha" type="matrix" values="0 0 0 0 0 0 0 0 0 0 0 0 0 0 0 0 0 0 127 0" result="hardAlpha"/>
<feOffset dy="-1"/>
<feComposite in2="hardAlpha" operator="arithmetic" k2="-1" k3="1"/>
<feColorMatrix type="matrix" values="0 0 0 0 0.85098 0 0 0 0 0.85098 0 0 0 0 0.85098 0 0 0 1 0"/>
<feBlend mode="normal" in2="shape" result="effect1_innerShadow"/>
</filter>
</defs>
</svg>
