<svg width="424" height="467" viewBox="0 0 424 467" fill="none" xmlns="http://www.w3.org/2000/svg">
<g opacity="0.8">
<rect x="405.642" y="270.735" width="17.1446" height="81.2326" transform="rotate(120 405.642 270.735)" fill="#13C2C2"/>
<rect width="20.4753" height="20.4753" transform="matrix(-0.5 0.866025 0.866025 0.5 368.573 207.547)" fill="#13C2C2"/>
<path fill-rule="evenodd" clip-rule="evenodd" d="M344.994 269.489C344.921 269.607 344.849 269.726 344.778 269.846C331.867 291.388 338.864 319.318 360.407 332.229C381.949 345.14 409.879 338.143 422.79 316.6C423.196 315.923 423.582 315.239 423.949 314.55L422.953 316.211L405.846 305.959C405.777 306.079 405.706 306.199 405.635 306.319C398.402 318.387 382.756 322.307 370.688 315.074C358.62 307.841 354.7 292.195 361.933 280.127C362.004 280.008 362.077 279.889 362.15 279.771L344.994 269.489Z" fill="#10239E"/>
<circle cx="124.034" cy="124.034" r="94.034" stroke="#FAAD14" stroke-width="60"/>
<mask id="mask0" mask-type="alpha" maskUnits="userSpaceOnUse" x="135" y="102" width="163" height="163">
<circle cx="216.539" cy="183.424" r="81.1422" transform="rotate(90 216.539 183.424)" fill="#FF0025"/>
</mask>
<g mask="url(#mask0)">
<ellipse rx="1.86393" ry="1.86661" transform="matrix(-0.0174776 0.999847 -0.999848 -0.0174274 294.385 103.643)" fill="#FFC901"/>
<ellipse rx="1.86393" ry="1.86662" transform="matrix(-0.0174776 0.999847 -0.999848 -0.0174275 294.385 111.109)" fill="#FFC901"/>
<ellipse rx="1.86392" ry="1.86661" transform="matrix(-0.0174777 0.999847 -0.999848 -0.0174273 294.385 118.576)" fill="#FFC901"/>
<ellipse rx="1.86393" ry="1.86661" transform="matrix(-0.0174776 0.999847 -0.999848 -0.0174275 294.385 126.042)" fill="#FFC901"/>
<ellipse rx="1.86393" ry="1.86661" transform="matrix(-0.0174776 0.999847 -0.999848 -0.0174275 294.385 133.509)" fill="#FFC901"/>
<ellipse rx="1.86394" ry="1.86661" transform="matrix(-0.0174775 0.999847 -0.999848 -0.0174276 294.385 140.975)" fill="#FFC901"/>
<ellipse rx="1.86393" ry="1.86661" transform="matrix(-0.0174776 0.999847 -0.999848 -0.0174275 294.385 148.442)" fill="#FFC901"/>
<ellipse rx="1.86392" ry="1.86661" transform="matrix(-0.0174777 0.999847 -0.999848 -0.0174274 294.385 155.909)" fill="#FFC901"/>
<ellipse rx="1.86391" ry="1.86661" transform="matrix(-0.0174778 0.999847 -0.999848 -0.0174273 294.385 163.375)" fill="#FFC901"/>
<ellipse rx="1.86395" ry="1.86661" transform="matrix(-0.0174775 0.999847 -0.999848 -0.0174276 294.385 170.842)" fill="#FFC901"/>
<ellipse rx="1.86393" ry="1.86661" transform="matrix(-0.0174776 0.999847 -0.999848 -0.0174275 294.385 178.309)" fill="#FFC901"/>
<ellipse rx="1.86393" ry="1.86661" transform="matrix(-0.0174776 0.999847 -0.999848 -0.0174274 294.385 185.775)" fill="#FFC901"/>
<ellipse rx="1.8639" ry="1.86661" transform="matrix(-0.0174778 0.999847 -0.999848 -0.0174272 294.385 193.242)" fill="#FFC901"/>
<ellipse rx="1.86393" ry="1.86661" transform="matrix(-0.0174776 0.999847 -0.999848 -0.0174275 294.385 200.709)" fill="#FFC901"/>
<ellipse rx="1.8639" ry="1.86661" transform="matrix(-0.0174778 0.999847 -0.999848 -0.0174272 294.385 208.175)" fill="#FFC901"/>
<ellipse rx="1.86393" ry="1.86661" transform="matrix(-0.0174776 0.999847 -0.999848 -0.0174275 294.385 215.642)" fill="#FFC901"/>
<ellipse rx="1.86393" ry="1.86661" transform="matrix(-0.0174776 0.999847 -0.999848 -0.0174274 294.385 223.108)" fill="#FFC901"/>
<ellipse rx="1.86396" ry="1.86661" transform="matrix(-0.0174773 0.999847 -0.999848 -0.0174278 294.385 230.575)" fill="#FFC901"/>
<ellipse rx="1.86394" ry="1.86661" transform="matrix(-0.0174775 0.999847 -0.999848 -0.0174276 294.385 238.042)" fill="#FFC901"/>
<ellipse rx="1.86392" ry="1.86661" transform="matrix(-0.0174777 0.999847 -0.999848 -0.0174274 294.385 245.508)" fill="#FFC901"/>
<ellipse rx="1.8639" ry="1.86661" transform="matrix(-0.0174779 0.999847 -0.999848 -0.0174272 294.385 252.975)" fill="#FFC901"/>
<ellipse rx="1.8639" ry="1.86661" transform="matrix(-0.0174779 0.999847 -0.999848 -0.0174272 294.385 260.442)" fill="#FFC901"/>
<ellipse rx="1.86393" ry="1.86661" transform="matrix(-0.0174776 0.999847 -0.999848 -0.0174275 286.918 103.643)" fill="#FFC901"/>
<ellipse rx="1.86393" ry="1.86661" transform="matrix(-0.0174776 0.999847 -0.999848 -0.0174275 286.918 111.109)" fill="#FFC901"/>
<ellipse rx="1.86392" ry="1.86661" transform="matrix(-0.0174777 0.999847 -0.999848 -0.0174274 286.918 118.576)" fill="#FFC901"/>
<ellipse rx="1.86393" ry="1.86661" transform="matrix(-0.0174776 0.999847 -0.999848 -0.0174275 286.918 126.042)" fill="#FFC901"/>
<ellipse rx="1.86393" ry="1.86661" transform="matrix(-0.0174776 0.999847 -0.999848 -0.0174275 286.918 133.509)" fill="#FFC901"/>
<ellipse rx="1.86393" ry="1.86661" transform="matrix(-0.0174776 0.999847 -0.999848 -0.0174275 286.918 140.975)" fill="#FFC901"/>
<ellipse rx="1.86393" ry="1.86661" transform="matrix(-0.0174776 0.999847 -0.999848 -0.0174275 286.918 148.442)" fill="#FFC901"/>
<ellipse rx="1.86392" ry="1.86661" transform="matrix(-0.0174777 0.999847 -0.999848 -0.0174274 286.918 155.909)" fill="#FFC901"/>
<ellipse rx="1.86391" ry="1.86661" transform="matrix(-0.0174777 0.999847 -0.999848 -0.0174273 286.918 163.375)" fill="#FFC901"/>
<ellipse rx="1.86395" ry="1.86661" transform="matrix(-0.0174774 0.999847 -0.999848 -0.0174277 286.918 170.842)" fill="#FFC901"/>
<ellipse rx="1.86392" ry="1.86661" transform="matrix(-0.0174777 0.999847 -0.999848 -0.0174274 286.918 178.309)" fill="#FFC901"/>
<ellipse rx="1.86393" ry="1.86661" transform="matrix(-0.0174776 0.999847 -0.999848 -0.0174275 286.918 185.775)" fill="#FFC901"/>
<ellipse rx="1.8639" ry="1.86661" transform="matrix(-0.0174778 0.999847 -0.999848 -0.0174273 286.918 193.242)" fill="#FFC901"/>
<ellipse rx="1.86393" ry="1.86661" transform="matrix(-0.0174775 0.999847 -0.999848 -0.0174275 286.918 200.709)" fill="#FFC901"/>
<ellipse rx="1.86391" ry="1.86661" transform="matrix(-0.0174777 0.999847 -0.999848 -0.0174273 286.918 208.175)" fill="#FFC901"/>
<ellipse rx="1.86393" ry="1.86661" transform="matrix(-0.0174775 0.999847 -0.999848 -0.0174276 286.918 215.642)" fill="#FFC901"/>
<ellipse rx="1.86393" ry="1.86661" transform="matrix(-0.0174775 0.999847 -0.999848 -0.0174276 286.918 223.108)" fill="#FFC901"/>
<ellipse rx="1.86395" ry="1.86661" transform="matrix(-0.0174774 0.999847 -0.999848 -0.0174277 286.918 230.575)" fill="#FFC901"/>
<ellipse rx="1.86394" ry="1.86661" transform="matrix(-0.0174775 0.999847 -0.999848 -0.0174276 286.918 238.042)" fill="#FFC901"/>
<ellipse rx="1.86392" ry="1.86661" transform="matrix(-0.0174777 0.999847 -0.999848 -0.0174274 286.918 245.508)" fill="#FFC901"/>
<ellipse rx="1.8639" ry="1.86661" transform="matrix(-0.0174778 0.999847 -0.999848 -0.0174273 286.918 252.975)" fill="#FFC901"/>
<ellipse rx="1.8639" ry="1.86661" transform="matrix(-0.0174778 0.999847 -0.999848 -0.0174273 286.918 260.442)" fill="#FFC901"/>
<ellipse rx="1.86393" ry="1.86661" transform="matrix(-0.0174776 0.999847 -0.999848 -0.0174275 279.452 103.643)" fill="#FFC901"/>
<ellipse rx="1.86393" ry="1.86661" transform="matrix(-0.0174776 0.999847 -0.999848 -0.0174275 279.452 111.109)" fill="#FFC901"/>
<ellipse rx="1.86392" ry="1.86661" transform="matrix(-0.0174777 0.999847 -0.999848 -0.0174274 279.452 118.576)" fill="#FFC901"/>
<ellipse rx="1.86393" ry="1.86661" transform="matrix(-0.0174776 0.999847 -0.999848 -0.0174275 279.452 126.042)" fill="#FFC901"/>
<ellipse rx="1.86393" ry="1.86661" transform="matrix(-0.0174776 0.999847 -0.999848 -0.0174275 279.452 133.509)" fill="#FFC901"/>
<ellipse rx="1.86393" ry="1.86661" transform="matrix(-0.0174775 0.999847 -0.999848 -0.0174275 279.452 140.975)" fill="#FFC901"/>
<ellipse rx="1.86394" ry="1.86661" transform="matrix(-0.0174775 0.999847 -0.999848 -0.0174276 279.452 148.442)" fill="#FFC901"/>
<ellipse rx="1.86393" ry="1.86661" transform="matrix(-0.0174776 0.999847 -0.999848 -0.0174275 279.452 155.909)" fill="#FFC901"/>
<ellipse rx="1.86391" ry="1.86662" transform="matrix(-0.0174778 0.999847 -0.999848 -0.0174273 279.452 163.375)" fill="#FFC901"/>
<ellipse rx="1.86395" ry="1.86661" transform="matrix(-0.0174774 0.999847 -0.999848 -0.0174276 279.452 170.842)" fill="#FFC901"/>
<ellipse rx="1.86392" ry="1.86661" transform="matrix(-0.0174777 0.999847 -0.999848 -0.0174274 279.452 178.309)" fill="#FFC901"/>
<ellipse rx="1.86393" ry="1.86661" transform="matrix(-0.0174776 0.999847 -0.999848 -0.0174275 279.452 185.775)" fill="#FFC901"/>
<ellipse rx="1.8639" ry="1.86661" transform="matrix(-0.0174779 0.999847 -0.999848 -0.0174272 279.452 193.242)" fill="#FFC901"/>
<ellipse rx="1.86393" ry="1.86662" transform="matrix(-0.0174776 0.999847 -0.999848 -0.0174275 279.452 200.709)" fill="#FFC901"/>
<ellipse rx="1.86392" ry="1.86661" transform="matrix(-0.0174777 0.999847 -0.999848 -0.0174274 279.452 208.175)" fill="#FFC901"/>
<ellipse rx="1.86395" ry="1.86662" transform="matrix(-0.0174774 0.999847 -0.999848 -0.0174276 279.452 215.642)" fill="#FFC901"/>
<ellipse rx="1.86392" ry="1.86661" transform="matrix(-0.0174777 0.999847 -0.999848 -0.0174274 279.452 223.108)" fill="#FFC901"/>
<ellipse rx="1.86394" ry="1.86661" transform="matrix(-0.0174775 0.999847 -0.999848 -0.0174276 279.452 230.575)" fill="#FFC901"/>
<ellipse rx="1.86394" ry="1.86661" transform="matrix(-0.0174775 0.999847 -0.999848 -0.0174276 279.452 238.042)" fill="#FFC901"/>
<ellipse rx="1.86392" ry="1.86661" transform="matrix(-0.0174777 0.999847 -0.999848 -0.0174274 279.452 245.508)" fill="#FFC901"/>
<ellipse rx="1.8639" ry="1.86661" transform="matrix(-0.0174778 0.999847 -0.999848 -0.0174272 279.452 252.975)" fill="#FFC901"/>
<ellipse rx="1.8639" ry="1.86661" transform="matrix(-0.0174778 0.999847 -0.999848 -0.0174273 279.452 260.442)" fill="#FFC901"/>
<ellipse rx="1.86393" ry="1.86662" transform="matrix(-0.0174777 0.999847 -0.999848 -0.0174274 271.986 103.643)" fill="#FFC901"/>
<ellipse rx="1.86393" ry="1.86661" transform="matrix(-0.0174776 0.999847 -0.999848 -0.0174275 271.986 111.109)" fill="#FFC901"/>
<ellipse rx="1.86392" ry="1.86661" transform="matrix(-0.0174777 0.999847 -0.999848 -0.0174274 271.986 118.576)" fill="#FFC901"/>
<ellipse rx="1.86393" ry="1.86661" transform="matrix(-0.0174776 0.999847 -0.999848 -0.0174275 271.986 126.042)" fill="#FFC901"/>
<ellipse rx="1.86393" ry="1.86662" transform="matrix(-0.0174776 0.999847 -0.999848 -0.0174274 271.986 133.509)" fill="#FFC901"/>
<ellipse rx="1.86393" ry="1.86661" transform="matrix(-0.0174775 0.999847 -0.999848 -0.0174275 271.986 140.975)" fill="#FFC901"/>
<ellipse rx="1.86393" ry="1.86661" transform="matrix(-0.0174776 0.999847 -0.999848 -0.0174275 271.986 148.441)" fill="#FFC901"/>
<ellipse rx="1.86393" ry="1.86661" transform="matrix(-0.0174776 0.999847 -0.999848 -0.0174274 271.986 155.909)" fill="#FFC901"/>
<ellipse rx="1.86392" ry="1.86661" transform="matrix(-0.0174777 0.999847 -0.999848 -0.0174274 271.986 163.375)" fill="#FFC901"/>
<ellipse rx="1.86393" ry="1.86661" transform="matrix(-0.0174776 0.999847 -0.999848 -0.0174275 271.986 170.842)" fill="#FFC901"/>
<ellipse rx="1.86393" ry="1.86661" transform="matrix(-0.0174776 0.999847 -0.999848 -0.0174275 271.986 178.309)" fill="#FFC901"/>
<ellipse rx="1.86393" ry="1.86661" transform="matrix(-0.0174776 0.999847 -0.999848 -0.0174274 271.986 185.775)" fill="#FFC901"/>
<ellipse rx="1.86389" ry="1.86661" transform="matrix(-0.017478 0.999847 -0.999848 -0.0174271 271.986 193.242)" fill="#FFC901"/>
<ellipse rx="1.86393" ry="1.86661" transform="matrix(-0.0174776 0.999847 -0.999848 -0.0174275 271.986 200.709)" fill="#FFC901"/>
<ellipse rx="1.86395" ry="1.86661" transform="matrix(-0.0174774 0.999847 -0.999848 -0.0174277 271.986 208.175)" fill="#FFC901"/>
<ellipse rx="1.86395" ry="1.86661" transform="matrix(-0.0174774 0.999847 -0.999848 -0.0174277 271.986 215.642)" fill="#FFC901"/>
<ellipse rx="1.86391" ry="1.86661" transform="matrix(-0.0174778 0.999847 -0.999848 -0.0174273 271.986 223.108)" fill="#FFC901"/>
<ellipse rx="1.86394" ry="1.86661" transform="matrix(-0.0174775 0.999847 -0.999848 -0.0174276 271.986 230.575)" fill="#FFC901"/>
<ellipse rx="1.86393" ry="1.86662" transform="matrix(-0.0174776 0.999847 -0.999848 -0.0174275 271.986 238.042)" fill="#FFC901"/>
<ellipse rx="1.86392" ry="1.86661" transform="matrix(-0.0174777 0.999847 -0.999848 -0.0174274 271.986 245.508)" fill="#FFC901"/>
<ellipse rx="1.8639" ry="1.86662" transform="matrix(-0.0174779 0.999847 -0.999848 -0.0174272 271.986 252.975)" fill="#FFC901"/>
<ellipse rx="1.8639" ry="1.86662" transform="matrix(-0.0174779 0.999847 -0.999848 -0.0174272 271.986 260.442)" fill="#FFC901"/>
<ellipse rx="1.86393" ry="1.86661" transform="matrix(-0.0174776 0.999847 -0.999848 -0.0174275 264.519 103.643)" fill="#FFC901"/>
<ellipse rx="1.86393" ry="1.86662" transform="matrix(-0.0174776 0.999847 -0.999848 -0.0174275 264.519 111.109)" fill="#FFC901"/>
<ellipse rx="1.86393" ry="1.86661" transform="matrix(-0.0174776 0.999847 -0.999848 -0.0174275 264.519 118.576)" fill="#FFC901"/>
<ellipse rx="1.86393" ry="1.86662" transform="matrix(-0.0174776 0.999847 -0.999848 -0.0174275 264.519 126.042)" fill="#FFC901"/>
<ellipse rx="1.86393" ry="1.86662" transform="matrix(-0.0174776 0.999847 -0.999848 -0.0174275 264.519 133.509)" fill="#FFC901"/>
<ellipse rx="1.86393" ry="1.86661" transform="matrix(-0.0174775 0.999847 -0.999848 -0.0174276 264.519 140.975)" fill="#FFC901"/>
<ellipse rx="1.86393" ry="1.86661" transform="matrix(-0.0174775 0.999847 -0.999848 -0.0174276 264.519 148.442)" fill="#FFC901"/>
<ellipse rx="1.86393" ry="1.86661" transform="matrix(-0.0174776 0.999847 -0.999848 -0.0174275 264.519 155.909)" fill="#FFC901"/>
<ellipse rx="1.86391" ry="1.86661" transform="matrix(-0.0174777 0.999847 -0.999848 -0.0174274 264.519 163.375)" fill="#FFC901"/>
<ellipse rx="1.86393" ry="1.86661" transform="matrix(-0.0174775 0.999847 -0.999848 -0.0174276 264.519 170.842)" fill="#FFC901"/>
<ellipse rx="1.86393" ry="1.86662" transform="matrix(-0.0174776 0.999847 -0.999848 -0.0174275 264.519 178.309)" fill="#FFC901"/>
<ellipse rx="1.86393" ry="1.86661" transform="matrix(-0.0174775 0.999847 -0.999848 -0.0174276 264.519 185.775)" fill="#FFC901"/>
<ellipse rx="1.86389" ry="1.86662" transform="matrix(-0.017478 0.999847 -0.999848 -0.0174271 264.519 193.242)" fill="#FFC901"/>
<ellipse rx="1.86393" ry="1.86661" transform="matrix(-0.0174775 0.999847 -0.999848 -0.0174276 264.519 200.709)" fill="#FFC901"/>
<ellipse rx="1.8639" ry="1.86661" transform="matrix(-0.0174779 0.999847 -0.999848 -0.0174272 264.519 208.175)" fill="#FFC901"/>
<ellipse rx="1.86395" ry="1.86661" transform="matrix(-0.0174774 0.999847 -0.999848 -0.0174277 264.519 215.642)" fill="#FFC901"/>
<ellipse rx="1.86391" ry="1.86661" transform="matrix(-0.0174777 0.999847 -0.999848 -0.0174274 264.519 223.108)" fill="#FFC901"/>
<ellipse rx="1.86395" ry="1.86661" transform="matrix(-0.0174774 0.999847 -0.999848 -0.0174277 264.519 230.575)" fill="#FFC901"/>
<ellipse rx="1.86393" ry="1.86662" transform="matrix(-0.0174777 0.999847 -0.999848 -0.0174274 264.519 238.042)" fill="#FFC901"/>
<ellipse rx="1.86391" ry="1.86661" transform="matrix(-0.0174777 0.999847 -0.999848 -0.0174273 264.519 245.508)" fill="#FFC901"/>
<ellipse rx="1.8639" ry="1.86662" transform="matrix(-0.0174779 0.999847 -0.999848 -0.0174272 264.519 252.975)" fill="#FFC901"/>
<ellipse rx="1.8639" ry="1.86661" transform="matrix(-0.0174778 0.999847 -0.999848 -0.0174273 264.519 260.442)" fill="#FFC901"/>
<ellipse rx="1.86393" ry="1.86662" transform="matrix(-0.0174776 0.999847 -0.999848 -0.0174274 257.053 103.643)" fill="#FFC901"/>
<ellipse rx="1.86393" ry="1.86662" transform="matrix(-0.0174776 0.999847 -0.999848 -0.0174274 257.053 111.109)" fill="#FFC901"/>
<ellipse rx="1.86392" ry="1.86662" transform="matrix(-0.0174777 0.999847 -0.999848 -0.0174274 257.053 118.576)" fill="#FFC901"/>
<ellipse rx="1.86393" ry="1.86662" transform="matrix(-0.0174776 0.999847 -0.999848 -0.0174275 257.053 126.042)" fill="#FFC901"/>
<ellipse rx="1.86392" ry="1.86661" transform="matrix(-0.0174777 0.999847 -0.999848 -0.0174274 257.053 133.509)" fill="#FFC901"/>
<ellipse rx="1.86393" ry="1.86662" transform="matrix(-0.0174776 0.999847 -0.999848 -0.0174275 257.053 140.975)" fill="#FFC901"/>
<ellipse rx="1.86394" ry="1.86661" transform="matrix(-0.0174775 0.999847 -0.999848 -0.0174276 257.053 148.441)" fill="#FFC901"/>
<ellipse rx="1.86393" ry="1.86661" transform="matrix(-0.0174776 0.999847 -0.999848 -0.0174275 257.053 155.909)" fill="#FFC901"/>
<ellipse rx="1.86392" ry="1.86661" transform="matrix(-0.0174777 0.999847 -0.999848 -0.0174274 257.053 163.375)" fill="#FFC901"/>
<ellipse rx="1.86393" ry="1.86661" transform="matrix(-0.0174775 0.999847 -0.999848 -0.0174275 257.053 170.842)" fill="#FFC901"/>
<ellipse rx="1.86393" ry="1.86662" transform="matrix(-0.0174776 0.999847 -0.999848 -0.0174275 257.053 178.309)" fill="#FFC901"/>
<ellipse rx="1.86393" ry="1.86661" transform="matrix(-0.0174775 0.999847 -0.999848 -0.0174275 257.053 185.775)" fill="#FFC901"/>
<ellipse rx="1.86389" ry="1.86662" transform="matrix(-0.017478 0.999847 -0.999848 -0.0174271 257.053 193.242)" fill="#FFC901"/>
<ellipse rx="1.86394" ry="1.86661" transform="matrix(-0.0174775 0.999847 -0.999848 -0.0174276 257.053 200.709)" fill="#FFC901"/>
<ellipse rx="1.86395" ry="1.86662" transform="matrix(-0.0174774 0.999847 -0.999848 -0.0174276 257.053 208.175)" fill="#FFC901"/>
<ellipse rx="1.86393" ry="1.86661" transform="matrix(-0.0174776 0.999847 -0.999848 -0.0174275 257.053 215.642)" fill="#FFC901"/>
<ellipse rx="1.86391" ry="1.86662" transform="matrix(-0.0174778 0.999847 -0.999848 -0.0174273 257.053 223.108)" fill="#FFC901"/>
<ellipse rx="1.86393" ry="1.86662" transform="matrix(-0.0174776 0.999847 -0.999848 -0.0174275 257.053 230.575)" fill="#FFC901"/>
<ellipse rx="1.86393" ry="1.86662" transform="matrix(-0.0174776 0.999847 -0.999848 -0.0174274 257.053 238.042)" fill="#FFC901"/>
<ellipse rx="1.86392" ry="1.86662" transform="matrix(-0.0174777 0.999847 -0.999848 -0.0174273 257.053 245.508)" fill="#FFC901"/>
<ellipse rx="1.86393" ry="1.86662" transform="matrix(-0.0174776 0.999847 -0.999848 -0.0174274 257.053 252.975)" fill="#FFC901"/>
<ellipse rx="1.8639" ry="1.86662" transform="matrix(-0.0174779 0.999847 -0.999848 -0.0174272 257.053 260.442)" fill="#FFC901"/>
<ellipse rx="1.86393" ry="1.86662" transform="matrix(-0.0174776 0.999847 -0.999848 -0.0174275 249.586 103.643)" fill="#FFC901"/>
<ellipse rx="1.86393" ry="1.86662" transform="matrix(-0.0174777 0.999847 -0.999848 -0.0174274 249.586 111.109)" fill="#FFC901"/>
<ellipse rx="1.86393" ry="1.86662" transform="matrix(-0.0174777 0.999847 -0.999848 -0.0174274 249.586 118.576)" fill="#FFC901"/>
<ellipse rx="1.86393" ry="1.86662" transform="matrix(-0.0174776 0.999847 -0.999848 -0.0174275 249.586 126.042)" fill="#FFC901"/>
<ellipse rx="1.86392" ry="1.86662" transform="matrix(-0.0174777 0.999847 -0.999848 -0.0174274 249.586 133.509)" fill="#FFC901"/>
<ellipse rx="1.86393" ry="1.86662" transform="matrix(-0.0174776 0.999847 -0.999848 -0.0174275 249.586 140.975)" fill="#FFC901"/>
<ellipse rx="1.86394" ry="1.86662" transform="matrix(-0.0174776 0.999847 -0.999848 -0.0174275 249.586 148.441)" fill="#FFC901"/>
<ellipse rx="1.86393" ry="1.86662" transform="matrix(-0.0174776 0.999847 -0.999848 -0.0174275 249.586 155.909)" fill="#FFC901"/>
<ellipse rx="1.86392" ry="1.86662" transform="matrix(-0.0174778 0.999847 -0.999848 -0.0174273 249.586 163.375)" fill="#FFC901"/>
<ellipse rx="1.86393" ry="1.86662" transform="matrix(-0.0174776 0.999847 -0.999848 -0.0174275 249.586 170.842)" fill="#FFC901"/>
<ellipse rx="1.86393" ry="1.86662" transform="matrix(-0.0174776 0.999847 -0.999848 -0.0174275 249.586 178.309)" fill="#FFC901"/>
<ellipse rx="1.86393" ry="1.86662" transform="matrix(-0.0174776 0.999847 -0.999848 -0.0174275 249.586 185.775)" fill="#FFC901"/>
<ellipse rx="1.86389" ry="1.86662" transform="matrix(-0.017478 0.999847 -0.999848 -0.017427 249.586 193.242)" fill="#FFC901"/>
<ellipse rx="1.86394" ry="1.86662" transform="matrix(-0.0174775 0.999847 -0.999848 -0.0174276 249.586 200.709)" fill="#FFC901"/>
<ellipse rx="1.86394" ry="1.86662" transform="matrix(-0.0174775 0.999847 -0.999848 -0.0174275 249.586 208.175)" fill="#FFC901"/>
<ellipse rx="1.86394" ry="1.86662" transform="matrix(-0.0174776 0.999847 -0.999848 -0.0174275 249.586 215.642)" fill="#FFC901"/>
<ellipse rx="1.8639" ry="1.86661" transform="matrix(-0.0174778 0.999847 -0.999848 -0.0174273 249.586 223.108)" fill="#FFC901"/>
<ellipse rx="1.86393" ry="1.86662" transform="matrix(-0.0174776 0.999847 -0.999848 -0.0174275 249.586 230.575)" fill="#FFC901"/>
<ellipse rx="1.86393" ry="1.86662" transform="matrix(-0.0174776 0.999847 -0.999848 -0.0174275 249.586 238.042)" fill="#FFC901"/>
<ellipse rx="1.8639" ry="1.86662" transform="matrix(-0.017478 0.999847 -0.999848 -0.0174271 249.586 245.508)" fill="#FFC901"/>
<ellipse rx="1.86392" ry="1.86662" transform="matrix(-0.0174777 0.999847 -0.999848 -0.0174274 249.586 252.975)" fill="#FFC901"/>
<ellipse rx="1.8639" ry="1.8666" transform="matrix(-0.0174777 0.999847 -0.999848 -0.0174273 249.586 260.442)" fill="#FFC901"/>
<ellipse rx="1.86393" ry="1.86662" transform="matrix(-0.0174776 0.999847 -0.999848 -0.0174274 242.12 103.643)" fill="#FFC901"/>
<ellipse rx="1.86393" ry="1.86662" transform="matrix(-0.0174776 0.999847 -0.999848 -0.0174274 242.12 111.109)" fill="#FFC901"/>
<ellipse rx="1.86392" ry="1.86662" transform="matrix(-0.0174778 0.999847 -0.999848 -0.0174273 242.12 118.576)" fill="#FFC901"/>
<ellipse rx="1.86393" ry="1.86662" transform="matrix(-0.0174776 0.999847 -0.999848 -0.0174275 242.12 126.042)" fill="#FFC901"/>
<ellipse rx="1.86392" ry="1.86662" transform="matrix(-0.0174777 0.999847 -0.999848 -0.0174274 242.12 133.509)" fill="#FFC901"/>
<ellipse rx="1.86394" ry="1.86662" transform="matrix(-0.0174776 0.999847 -0.999848 -0.0174275 242.12 140.975)" fill="#FFC901"/>
<ellipse rx="1.86394" ry="1.86662" transform="matrix(-0.0174776 0.999847 -0.999848 -0.0174275 242.12 148.441)" fill="#FFC901"/>
<ellipse rx="1.86392" ry="1.86662" transform="matrix(-0.0174777 0.999847 -0.999848 -0.0174273 242.12 155.909)" fill="#FFC901"/>
<ellipse rx="1.86392" ry="1.86662" transform="matrix(-0.0174778 0.999847 -0.999848 -0.0174273 242.12 163.375)" fill="#FFC901"/>
<ellipse rx="1.86394" ry="1.86662" transform="matrix(-0.0174776 0.999847 -0.999848 -0.0174275 242.12 170.842)" fill="#FFC901"/>
<ellipse rx="1.86392" ry="1.86662" transform="matrix(-0.0174777 0.999847 -0.999848 -0.0174274 242.12 178.309)" fill="#FFC901"/>
<ellipse rx="1.86393" ry="1.86662" transform="matrix(-0.0174776 0.999847 -0.999848 -0.0174275 242.12 185.775)" fill="#FFC901"/>
<ellipse rx="1.8639" ry="1.86662" transform="matrix(-0.0174779 0.999847 -0.999848 -0.0174272 242.12 193.242)" fill="#FFC901"/>
<ellipse rx="1.86393" ry="1.86662" transform="matrix(-0.0174776 0.999847 -0.999848 -0.0174275 242.12 200.709)" fill="#FFC901"/>
<ellipse rx="1.86391" ry="1.86662" transform="matrix(-0.0174778 0.999847 -0.999848 -0.0174273 242.12 208.175)" fill="#FFC901"/>
<ellipse rx="1.86394" ry="1.86662" transform="matrix(-0.0174775 0.999847 -0.999848 -0.0174276 242.12 215.642)" fill="#FFC901"/>
<ellipse rx="1.86391" ry="1.86662" transform="matrix(-0.0174778 0.999847 -0.999848 -0.0174273 242.12 223.108)" fill="#FFC901"/>
<ellipse rx="1.86393" ry="1.86662" transform="matrix(-0.0174776 0.999847 -0.999848 -0.0174275 242.12 230.575)" fill="#FFC901"/>
<ellipse rx="1.86393" ry="1.86662" transform="matrix(-0.0174776 0.999847 -0.999848 -0.0174274 242.12 238.042)" fill="#FFC901"/>
<ellipse rx="1.86392" ry="1.86662" transform="matrix(-0.0174777 0.999847 -0.999848 -0.0174274 242.12 245.508)" fill="#FFC901"/>
<ellipse rx="1.86392" ry="1.86662" transform="matrix(-0.0174777 0.999847 -0.999848 -0.0174273 242.12 252.975)" fill="#FFC901"/>
<ellipse rx="1.8639" ry="1.86662" transform="matrix(-0.0174779 0.999847 -0.999848 -0.0174272 242.12 260.442)" fill="#FFC901"/>
<ellipse rx="1.86393" ry="1.86663" transform="matrix(-0.0174777 0.999847 -0.999848 -0.0174274 234.654 103.643)" fill="#FFC901"/>
<ellipse rx="1.86393" ry="1.86663" transform="matrix(-0.0174778 0.999847 -0.999848 -0.0174273 234.654 111.109)" fill="#FFC901"/>
<ellipse rx="1.86392" ry="1.86662" transform="matrix(-0.0174778 0.999847 -0.999848 -0.0174273 234.654 118.576)" fill="#FFC901"/>
<ellipse rx="1.86393" ry="1.86663" transform="matrix(-0.0174777 0.999847 -0.999848 -0.0174274 234.654 126.042)" fill="#FFC901"/>
<ellipse rx="1.86391" ry="1.86662" transform="matrix(-0.0174778 0.999847 -0.999848 -0.0174272 234.654 133.509)" fill="#FFC901"/>
<ellipse rx="1.86393" ry="1.86662" transform="matrix(-0.0174776 0.999847 -0.999848 -0.0174275 234.654 140.975)" fill="#FFC901"/>
<ellipse rx="1.86393" ry="1.86663" transform="matrix(-0.0174777 0.999847 -0.999848 -0.0174274 234.654 148.441)" fill="#FFC901"/>
<ellipse rx="1.86392" ry="1.86663" transform="matrix(-0.0174778 0.999847 -0.999848 -0.0174273 234.654 155.909)" fill="#FFC901"/>
<ellipse rx="1.86392" ry="1.86663" transform="matrix(-0.0174778 0.999847 -0.999848 -0.0174272 234.654 163.375)" fill="#FFC901"/>
<ellipse rx="1.86394" ry="1.86663" transform="matrix(-0.0174777 0.999847 -0.999848 -0.0174274 234.654 170.842)" fill="#FFC901"/>
<ellipse rx="1.86393" ry="1.86661" transform="matrix(-0.0174776 0.999847 -0.999848 -0.0174275 234.653 178.309)" fill="#FFC901"/>
<ellipse rx="1.86393" ry="1.86663" transform="matrix(-0.0174777 0.999847 -0.999848 -0.0174274 234.654 185.775)" fill="#FFC901"/>
<ellipse rx="1.8639" ry="1.86662" transform="matrix(-0.0174779 0.999847 -0.999848 -0.0174271 234.654 193.242)" fill="#FFC901"/>
<ellipse rx="1.86393" ry="1.86662" transform="matrix(-0.0174776 0.999847 -0.999848 -0.0174275 234.654 200.709)" fill="#FFC901"/>
<ellipse rx="1.86394" ry="1.86662" transform="matrix(-0.0174775 0.999847 -0.999848 -0.0174276 234.654 208.175)" fill="#FFC901"/>
<ellipse rx="1.86395" ry="1.86662" transform="matrix(-0.0174774 0.999847 -0.999848 -0.0174276 234.654 215.642)" fill="#FFC901"/>
<ellipse rx="1.8639" ry="1.86662" transform="matrix(-0.0174779 0.999847 -0.999848 -0.0174272 234.654 223.108)" fill="#FFC901"/>
<ellipse rx="1.86393" ry="1.86661" transform="matrix(-0.0174776 0.999847 -0.999848 -0.0174275 234.653 230.575)" fill="#FFC901"/>
<ellipse rx="1.86391" ry="1.86662" transform="matrix(-0.0174779 0.999847 -0.999848 -0.0174272 234.654 238.042)" fill="#FFC901"/>
<ellipse rx="1.86392" ry="1.86663" transform="matrix(-0.0174778 0.999847 -0.999848 -0.0174272 234.654 245.508)" fill="#FFC901"/>
<ellipse rx="1.86393" ry="1.86663" transform="matrix(-0.0174778 0.999847 -0.999848 -0.0174273 234.654 252.975)" fill="#FFC901"/>
<ellipse rx="1.8639" ry="1.86662" transform="matrix(-0.0174779 0.999847 -0.999848 -0.0174272 234.654 260.442)" fill="#FFC901"/>
<ellipse rx="1.86392" ry="1.86662" transform="matrix(-0.0174777 0.999847 -0.999848 -0.0174274 227.187 103.643)" fill="#FFC901"/>
<ellipse rx="1.86393" ry="1.86662" transform="matrix(-0.0174777 0.999847 -0.999848 -0.0174274 227.187 111.109)" fill="#FFC901"/>
<ellipse rx="1.86392" ry="1.86662" transform="matrix(-0.0174777 0.999847 -0.999848 -0.0174274 227.187 118.576)" fill="#FFC901"/>
<ellipse rx="1.86393" ry="1.86661" transform="matrix(-0.0174776 0.999847 -0.999848 -0.0174275 227.187 126.042)" fill="#FFC901"/>
<ellipse rx="1.86392" ry="1.86662" transform="matrix(-0.0174778 0.999847 -0.999848 -0.0174273 227.187 133.509)" fill="#FFC901"/>
<ellipse rx="1.86393" ry="1.86662" transform="matrix(-0.0174776 0.999847 -0.999848 -0.0174275 227.187 140.975)" fill="#FFC901"/>
<ellipse rx="1.86394" ry="1.86662" transform="matrix(-0.0174776 0.999847 -0.999848 -0.0174275 227.187 148.441)" fill="#FFC901"/>
<ellipse rx="1.86393" ry="1.86662" transform="matrix(-0.0174777 0.999847 -0.999848 -0.0174274 227.187 155.909)" fill="#FFC901"/>
<ellipse rx="1.86392" ry="1.86661" transform="matrix(-0.0174777 0.999847 -0.999848 -0.0174274 227.187 163.375)" fill="#FFC901"/>
<ellipse rx="1.86394" ry="1.86662" transform="matrix(-0.0174776 0.999847 -0.999848 -0.0174275 227.187 170.842)" fill="#FFC901"/>
<ellipse rx="1.86393" ry="1.86661" transform="matrix(-0.0174776 0.999847 -0.999848 -0.0174275 227.187 178.309)" fill="#FFC901"/>
<ellipse rx="1.86393" ry="1.86662" transform="matrix(-0.0174776 0.999847 -0.999848 -0.0174275 227.187 185.775)" fill="#FFC901"/>
<ellipse rx="1.8639" ry="1.86663" transform="matrix(-0.017478 0.999847 -0.999848 -0.017427 227.187 193.242)" fill="#FFC901"/>
<ellipse rx="1.86393" ry="1.86662" transform="matrix(-0.0174776 0.999847 -0.999848 -0.0174275 227.187 200.709)" fill="#FFC901"/>
<ellipse rx="1.86394" ry="1.86662" transform="matrix(-0.0174776 0.999847 -0.999848 -0.0174275 227.187 208.175)" fill="#FFC901"/>
<ellipse rx="1.86394" ry="1.86662" transform="matrix(-0.0174775 0.999847 -0.999848 -0.0174275 227.187 215.642)" fill="#FFC901"/>
<ellipse rx="1.86392" ry="1.86661" transform="matrix(-0.0174777 0.999847 -0.999848 -0.0174274 227.187 223.108)" fill="#FFC901"/>
<ellipse rx="1.86393" ry="1.86662" transform="matrix(-0.0174776 0.999847 -0.999848 -0.0174275 227.187 230.575)" fill="#FFC901"/>
<ellipse rx="1.86391" ry="1.86662" transform="matrix(-0.0174778 0.999847 -0.999848 -0.0174272 227.187 238.042)" fill="#FFC901"/>
<ellipse rx="1.86392" ry="1.86662" transform="matrix(-0.0174778 0.999847 -0.999848 -0.0174273 227.187 245.508)" fill="#FFC901"/>
<ellipse rx="1.86393" ry="1.86662" transform="matrix(-0.0174777 0.999847 -0.999848 -0.0174274 227.187 252.975)" fill="#FFC901"/>
<ellipse rx="1.8639" ry="1.86662" transform="matrix(-0.0174779 0.999847 -0.999848 -0.0174272 227.187 260.442)" fill="#FFC901"/>
<ellipse rx="1.86393" ry="1.86661" transform="matrix(-0.0174775 0.999847 -0.999848 -0.0174275 219.72 103.643)" fill="#FFC901"/>
<ellipse rx="1.86392" ry="1.86661" transform="matrix(-0.0174776 0.999847 -0.999848 -0.0174275 219.72 111.109)" fill="#FFC901"/>
<ellipse rx="1.86391" ry="1.86661" transform="matrix(-0.0174777 0.999847 -0.999848 -0.0174274 219.72 118.576)" fill="#FFC901"/>
<ellipse rx="1.86393" ry="1.86662" transform="matrix(-0.0174777 0.999847 -0.999848 -0.0174274 219.72 126.042)" fill="#FFC901"/>
<ellipse rx="1.86392" ry="1.86662" transform="matrix(-0.0174777 0.999847 -0.999848 -0.0174273 219.72 133.509)" fill="#FFC901"/>
<ellipse rx="1.86394" ry="1.86662" transform="matrix(-0.0174775 0.999847 -0.999848 -0.0174276 219.72 140.975)" fill="#FFC901"/>
<ellipse rx="1.86393" ry="1.86662" transform="matrix(-0.0174776 0.999847 -0.999848 -0.0174274 219.72 148.442)" fill="#FFC901"/>
<ellipse rx="1.86393" ry="1.86662" transform="matrix(-0.0174777 0.999847 -0.999848 -0.0174274 219.72 155.909)" fill="#FFC901"/>
<ellipse rx="1.86392" ry="1.86661" transform="matrix(-0.0174777 0.999847 -0.999848 -0.0174274 219.72 163.375)" fill="#FFC901"/>
<ellipse rx="1.86394" ry="1.86661" transform="matrix(-0.0174774 0.999847 -0.999848 -0.0174277 219.72 170.842)" fill="#FFC901"/>
<ellipse rx="1.86391" ry="1.86661" transform="matrix(-0.0174777 0.999847 -0.999848 -0.0174274 219.72 178.309)" fill="#FFC901"/>
<ellipse rx="1.86393" ry="1.86661" transform="matrix(-0.0174775 0.999847 -0.999848 -0.0174276 219.72 185.775)" fill="#FFC901"/>
<ellipse rx="1.8639" ry="1.86661" transform="matrix(-0.0174778 0.999847 -0.999848 -0.0174273 219.72 193.242)" fill="#FFC901"/>
<ellipse rx="1.86393" ry="1.86662" transform="matrix(-0.0174776 0.999847 -0.999848 -0.0174275 219.72 200.709)" fill="#FFC901"/>
<ellipse rx="1.86394" ry="1.86661" transform="matrix(-0.0174775 0.999847 -0.999848 -0.0174276 219.72 208.175)" fill="#FFC901"/>
<ellipse rx="1.86394" ry="1.86661" transform="matrix(-0.0174775 0.999847 -0.999848 -0.0174276 219.72 215.642)" fill="#FFC901"/>
<ellipse rx="1.86391" ry="1.86661" transform="matrix(-0.0174778 0.999847 -0.999848 -0.0174273 219.72 223.108)" fill="#FFC901"/>
<ellipse rx="1.86393" ry="1.86662" transform="matrix(-0.0174776 0.999847 -0.999848 -0.0174275 219.72 230.575)" fill="#FFC901"/>
<ellipse rx="1.86393" ry="1.86661" transform="matrix(-0.0174776 0.999847 -0.999848 -0.0174275 219.72 238.042)" fill="#FFC901"/>
<ellipse rx="1.86392" ry="1.86662" transform="matrix(-0.0174778 0.999847 -0.999848 -0.0174273 219.72 245.508)" fill="#FFC901"/>
<ellipse rx="1.8639" ry="1.86661" transform="matrix(-0.0174778 0.999847 -0.999848 -0.0174273 219.72 252.975)" fill="#FFC901"/>
<ellipse rx="1.8639" ry="1.86661" transform="matrix(-0.0174778 0.999847 -0.999848 -0.0174273 219.72 260.442)" fill="#FFC901"/>
<ellipse rx="1.86393" ry="1.8666" transform="matrix(-0.0174775 0.999847 -0.999848 -0.0174276 212.253 103.643)" fill="#FFC901"/>
<ellipse rx="1.86393" ry="1.8666" transform="matrix(-0.0174775 0.999847 -0.999848 -0.0174276 212.254 111.109)" fill="#FFC901"/>
<ellipse rx="1.86392" ry="1.8666" transform="matrix(-0.0174776 0.999847 -0.999848 -0.0174275 212.254 118.576)" fill="#FFC901"/>
<ellipse rx="1.86393" ry="1.8666" transform="matrix(-0.0174775 0.999847 -0.999848 -0.0174276 212.253 126.042)" fill="#FFC901"/>
<ellipse rx="1.86392" ry="1.86661" transform="matrix(-0.0174776 0.999847 -0.999848 -0.0174275 212.254 133.509)" fill="#FFC901"/>
<ellipse rx="1.86394" ry="1.8666" transform="matrix(-0.0174774 0.999847 -0.999848 -0.0174277 212.254 140.975)" fill="#FFC901"/>
<ellipse rx="1.86393" ry="1.86661" transform="matrix(-0.0174775 0.999847 -0.999848 -0.0174276 212.254 148.442)" fill="#FFC901"/>
<ellipse rx="1.86393" ry="1.86659" transform="matrix(-0.0174774 0.999847 -0.999848 -0.0174277 212.253 155.909)" fill="#FFC901"/>
<ellipse rx="1.86392" ry="1.86661" transform="matrix(-0.0174776 0.999847 -0.999848 -0.0174275 212.254 163.375)" fill="#FFC901"/>
<ellipse rx="1.86394" ry="1.8666" transform="matrix(-0.0174774 0.999847 -0.999848 -0.0174277 212.253 170.842)" fill="#FFC901"/>
<ellipse rx="1.86391" ry="1.8666" transform="matrix(-0.0174776 0.999847 -0.999848 -0.0174275 212.253 178.309)" fill="#FFC901"/>
<ellipse rx="1.86393" ry="1.8666" transform="matrix(-0.0174774 0.999847 -0.999848 -0.0174277 212.253 185.775)" fill="#FFC901"/>
<ellipse rx="1.86389" ry="1.8666" transform="matrix(-0.0174779 0.999847 -0.999848 -0.0174272 212.254 193.242)" fill="#FFC901"/>
<ellipse rx="1.86393" ry="1.86661" transform="matrix(-0.0174775 0.999847 -0.999848 -0.0174276 212.254 200.709)" fill="#FFC901"/>
<ellipse rx="1.86391" ry="1.8666" transform="matrix(-0.0174777 0.999847 -0.999848 -0.0174274 212.254 208.175)" fill="#FFC901"/>
<ellipse rx="1.86395" ry="1.8666" transform="matrix(-0.0174773 0.999847 -0.999848 -0.0174278 212.254 215.642)" fill="#FFC901"/>
<ellipse rx="1.86392" ry="1.8666" transform="matrix(-0.0174776 0.999847 -0.999848 -0.0174275 212.254 223.108)" fill="#FFC901"/>
<ellipse rx="1.86395" ry="1.8666" transform="matrix(-0.0174773 0.999847 -0.999848 -0.0174278 212.253 230.575)" fill="#FFC901"/>
<ellipse rx="1.86393" ry="1.86661" transform="matrix(-0.0174776 0.999847 -0.999848 -0.0174275 212.254 238.042)" fill="#FFC901"/>
<ellipse rx="1.8639" ry="1.8666" transform="matrix(-0.0174778 0.999847 -0.999848 -0.0174273 212.254 245.508)" fill="#FFC901"/>
<ellipse rx="1.86393" ry="1.8666" transform="matrix(-0.0174775 0.999847 -0.999848 -0.0174276 212.254 252.975)" fill="#FFC901"/>
<ellipse rx="1.8639" ry="1.8666" transform="matrix(-0.0174777 0.999847 -0.999848 -0.0174273 212.254 260.442)" fill="#FFC901"/>
<ellipse rx="1.86393" ry="1.8666" transform="matrix(-0.0174774 0.999847 -0.999848 -0.0174276 204.787 103.643)" fill="#FFC901"/>
<ellipse rx="1.86392" ry="1.8666" transform="matrix(-0.0174775 0.999847 -0.999848 -0.0174275 204.787 111.109)" fill="#FFC901"/>
<ellipse rx="1.86392" ry="1.8666" transform="matrix(-0.0174776 0.999847 -0.999848 -0.0174275 204.787 118.576)" fill="#FFC901"/>
<ellipse rx="1.86393" ry="1.8666" transform="matrix(-0.0174775 0.999847 -0.999848 -0.0174276 204.787 126.042)" fill="#FFC901"/>
<ellipse rx="1.86392" ry="1.8666" transform="matrix(-0.0174775 0.999847 -0.999848 -0.0174276 204.787 133.509)" fill="#FFC901"/>
<ellipse rx="1.86393" ry="1.8666" transform="matrix(-0.0174774 0.999847 -0.999848 -0.0174277 204.787 140.975)" fill="#FFC901"/>
<ellipse rx="1.86394" ry="1.8666" transform="matrix(-0.0174774 0.999847 -0.999848 -0.0174277 204.787 148.441)" fill="#FFC901"/>
<ellipse rx="1.86393" ry="1.86661" transform="matrix(-0.0174775 0.999847 -0.999848 -0.0174276 204.787 155.909)" fill="#FFC901"/>
<ellipse rx="1.86392" ry="1.86661" transform="matrix(-0.0174776 0.999847 -0.999848 -0.0174275 204.787 163.375)" fill="#FFC901"/>
<ellipse rx="1.86394" ry="1.8666" transform="matrix(-0.0174773 0.999847 -0.999848 -0.0174277 204.787 170.842)" fill="#FFC901"/>
<ellipse rx="1.86393" ry="1.8666" transform="matrix(-0.0174774 0.999847 -0.999848 -0.0174277 204.787 178.309)" fill="#FFC901"/>
<ellipse rx="1.86395" ry="1.8666" transform="matrix(-0.0174773 0.999847 -0.999848 -0.0174278 204.787 185.775)" fill="#FFC901"/>
<ellipse rx="1.86389" ry="1.86661" transform="matrix(-0.0174779 0.999847 -0.999848 -0.0174271 204.787 193.242)" fill="#FFC901"/>
<ellipse rx="1.86394" ry="1.86661" transform="matrix(-0.0174774 0.999847 -0.999848 -0.0174277 204.787 200.709)" fill="#FFC901"/>
<ellipse rx="1.86392" ry="1.86659" transform="matrix(-0.0174775 0.999847 -0.999848 -0.0174276 204.787 208.175)" fill="#FFC901"/>
<ellipse rx="1.86394" ry="1.86661" transform="matrix(-0.0174774 0.999847 -0.999848 -0.0174277 204.787 215.642)" fill="#FFC901"/>
<ellipse rx="1.86391" ry="1.86661" transform="matrix(-0.0174777 0.999847 -0.999848 -0.0174273 204.787 223.108)" fill="#FFC901"/>
<ellipse rx="1.86393" ry="1.8666" transform="matrix(-0.0174774 0.999847 -0.999848 -0.0174277 204.787 230.575)" fill="#FFC901"/>
<ellipse rx="1.86393" ry="1.8666" transform="matrix(-0.0174775 0.999847 -0.999848 -0.0174276 204.787 238.042)" fill="#FFC901"/>
<ellipse rx="1.8639" ry="1.86661" transform="matrix(-0.0174778 0.999847 -0.999848 -0.0174272 204.787 245.508)" fill="#FFC901"/>
<ellipse rx="1.86393" ry="1.8666" transform="matrix(-0.0174775 0.999847 -0.999848 -0.0174276 204.787 252.975)" fill="#FFC901"/>
<ellipse rx="1.86391" ry="1.8666" transform="matrix(-0.0174776 0.999847 -0.999848 -0.0174275 204.787 260.442)" fill="#FFC901"/>
<ellipse rx="1.86393" ry="1.86661" transform="matrix(-0.0174776 0.999847 -0.999848 -0.0174275 197.321 103.643)" fill="#FFC901"/>
<ellipse rx="1.86392" ry="1.86661" transform="matrix(-0.0174776 0.999847 -0.999848 -0.0174274 197.321 111.109)" fill="#FFC901"/>
<ellipse rx="1.86392" ry="1.86662" transform="matrix(-0.0174777 0.999847 -0.999848 -0.0174274 197.321 118.576)" fill="#FFC901"/>
<ellipse rx="1.86393" ry="1.86662" transform="matrix(-0.0174777 0.999847 -0.999848 -0.0174274 197.321 126.042)" fill="#FFC901"/>
<ellipse rx="1.86392" ry="1.86662" transform="matrix(-0.0174777 0.999847 -0.999848 -0.0174274 197.321 133.509)" fill="#FFC901"/>
<ellipse rx="1.86393" ry="1.86662" transform="matrix(-0.0174776 0.999847 -0.999848 -0.0174275 197.321 140.975)" fill="#FFC901"/>
<ellipse rx="1.86394" ry="1.86662" transform="matrix(-0.0174776 0.999847 -0.999848 -0.0174275 197.321 148.442)" fill="#FFC901"/>
<ellipse rx="1.86392" ry="1.86662" transform="matrix(-0.0174777 0.999847 -0.999848 -0.0174274 197.321 155.909)" fill="#FFC901"/>
<ellipse rx="1.86391" ry="1.86662" transform="matrix(-0.0174778 0.999847 -0.999848 -0.0174273 197.321 163.375)" fill="#FFC901"/>
<ellipse rx="1.86394" ry="1.86662" transform="matrix(-0.0174776 0.999847 -0.999848 -0.0174275 197.321 170.842)" fill="#FFC901"/>
<ellipse rx="1.86391" ry="1.86662" transform="matrix(-0.0174778 0.999847 -0.999848 -0.0174273 197.321 178.309)" fill="#FFC901"/>
<ellipse rx="1.86395" ry="1.86662" transform="matrix(-0.0174775 0.999847 -0.999848 -0.0174276 197.321 185.775)" fill="#FFC901"/>
<ellipse rx="1.86389" ry="1.86662" transform="matrix(-0.017478 0.999847 -0.999848 -0.0174271 197.321 193.242)" fill="#FFC901"/>
<ellipse rx="1.86393" ry="1.86662" transform="matrix(-0.0174776 0.999847 -0.999848 -0.0174275 197.321 200.709)" fill="#FFC901"/>
<ellipse rx="1.86394" ry="1.86662" transform="matrix(-0.0174775 0.999847 -0.999848 -0.0174276 197.321 208.175)" fill="#FFC901"/>
<ellipse rx="1.86395" ry="1.86662" transform="matrix(-0.0174774 0.999847 -0.999848 -0.0174276 197.321 215.642)" fill="#FFC901"/>
<ellipse rx="1.86391" ry="1.86662" transform="matrix(-0.0174778 0.999847 -0.999848 -0.0174273 197.321 223.108)" fill="#FFC901"/>
<ellipse rx="1.86395" ry="1.86662" transform="matrix(-0.0174774 0.999847 -0.999848 -0.0174276 197.321 230.575)" fill="#FFC901"/>
<ellipse rx="1.86393" ry="1.86662" transform="matrix(-0.0174777 0.999847 -0.999848 -0.0174274 197.321 238.042)" fill="#FFC901"/>
<ellipse rx="1.8639" ry="1.86662" transform="matrix(-0.0174779 0.999847 -0.999848 -0.0174271 197.321 245.508)" fill="#FFC901"/>
<ellipse rx="1.86393" ry="1.86662" transform="matrix(-0.0174777 0.999847 -0.999848 -0.0174274 197.321 252.975)" fill="#FFC901"/>
<ellipse rx="1.86391" ry="1.86662" transform="matrix(-0.0174778 0.999847 -0.999848 -0.0174273 197.321 260.442)" fill="#FFC901"/>
<ellipse rx="1.86393" ry="1.86662" transform="matrix(-0.0174777 0.999847 -0.999848 -0.0174274 189.854 103.643)" fill="#FFC901"/>
<ellipse rx="1.86392" ry="1.86662" transform="matrix(-0.0174777 0.999847 -0.999848 -0.0174273 189.855 111.109)" fill="#FFC901"/>
<ellipse rx="1.86392" ry="1.86662" transform="matrix(-0.0174778 0.999847 -0.999848 -0.0174273 189.854 118.576)" fill="#FFC901"/>
<ellipse rx="1.86393" ry="1.86662" transform="matrix(-0.0174777 0.999847 -0.999848 -0.0174273 189.854 126.042)" fill="#FFC901"/>
<ellipse rx="1.86393" ry="1.86662" transform="matrix(-0.0174777 0.999847 -0.999848 -0.0174274 189.854 133.509)" fill="#FFC901"/>
<ellipse rx="1.86393" ry="1.86662" transform="matrix(-0.0174777 0.999847 -0.999848 -0.0174274 189.854 140.975)" fill="#FFC901"/>
<ellipse rx="1.86394" ry="1.86662" transform="matrix(-0.0174776 0.999847 -0.999848 -0.0174275 189.854 148.442)" fill="#FFC901"/>
<ellipse rx="1.86393" ry="1.86662" transform="matrix(-0.0174777 0.999847 -0.999848 -0.0174273 189.854 155.909)" fill="#FFC901"/>
<ellipse rx="1.86391" ry="1.86662" transform="matrix(-0.0174779 0.999847 -0.999848 -0.0174272 189.854 163.375)" fill="#FFC901"/>
<ellipse rx="1.86394" ry="1.86662" transform="matrix(-0.0174776 0.999847 -0.999848 -0.0174275 189.854 170.842)" fill="#FFC901"/>
<ellipse rx="1.86391" ry="1.86662" transform="matrix(-0.0174779 0.999847 -0.999848 -0.0174272 189.854 178.309)" fill="#FFC901"/>
<ellipse rx="1.86395" ry="1.86661" transform="matrix(-0.0174774 0.999847 -0.999848 -0.0174277 189.855 185.775)" fill="#FFC901"/>
<ellipse rx="1.86392" ry="1.86662" transform="matrix(-0.0174778 0.999847 -0.999848 -0.0174273 189.854 193.242)" fill="#FFC901"/>
<ellipse rx="1.86393" ry="1.86661" transform="matrix(-0.0174775 0.999847 -0.999848 -0.0174276 189.855 200.709)" fill="#FFC901"/>
<ellipse rx="1.86394" ry="1.86661" transform="matrix(-0.0174775 0.999847 -0.999848 -0.0174276 189.855 208.175)" fill="#FFC901"/>
<ellipse rx="1.86395" ry="1.86661" transform="matrix(-0.0174774 0.999847 -0.999848 -0.0174277 189.855 215.642)" fill="#FFC901"/>
<ellipse rx="1.8639" ry="1.86661" transform="matrix(-0.0174778 0.999847 -0.999848 -0.0174272 189.855 223.108)" fill="#FFC901"/>
<ellipse rx="1.86395" ry="1.86661" transform="matrix(-0.0174774 0.999847 -0.999848 -0.0174277 189.855 230.575)" fill="#FFC901"/>
<ellipse rx="1.86393" ry="1.86662" transform="matrix(-0.0174777 0.999847 -0.999848 -0.0174274 189.855 238.042)" fill="#FFC901"/>
<ellipse rx="1.86392" ry="1.86661" transform="matrix(-0.0174777 0.999847 -0.999848 -0.0174274 189.855 245.508)" fill="#FFC901"/>
<ellipse rx="1.86391" ry="1.86661" transform="matrix(-0.0174778 0.999847 -0.999848 -0.0174273 189.855 252.975)" fill="#FFC901"/>
<ellipse rx="1.86391" ry="1.86661" transform="matrix(-0.0174778 0.999847 -0.999848 -0.0174273 189.855 260.442)" fill="#FFC901"/>
<ellipse rx="1.86393" ry="1.86663" transform="matrix(-0.0174777 0.999847 -0.999848 -0.0174273 182.388 103.643)" fill="#FFC901"/>
<ellipse rx="1.86392" ry="1.86662" transform="matrix(-0.0174777 0.999847 -0.999848 -0.0174274 182.388 111.109)" fill="#FFC901"/>
<ellipse rx="1.86392" ry="1.86662" transform="matrix(-0.0174778 0.999847 -0.999848 -0.0174273 182.388 118.576)" fill="#FFC901"/>
<ellipse rx="1.86393" ry="1.86663" transform="matrix(-0.0174777 0.999847 -0.999848 -0.0174274 182.388 126.042)" fill="#FFC901"/>
<ellipse rx="1.86393" ry="1.86663" transform="matrix(-0.0174778 0.999847 -0.999848 -0.0174273 182.388 133.509)" fill="#FFC901"/>
<ellipse rx="1.86393" ry="1.86662" transform="matrix(-0.0174776 0.999847 -0.999848 -0.0174275 182.388 140.975)" fill="#FFC901"/>
<ellipse rx="1.86394" ry="1.86663" transform="matrix(-0.0174776 0.999847 -0.999848 -0.0174275 182.388 148.441)" fill="#FFC901"/>
<ellipse rx="1.86393" ry="1.86663" transform="matrix(-0.0174778 0.999847 -0.999848 -0.0174273 182.388 155.909)" fill="#FFC901"/>
<ellipse rx="1.86392" ry="1.86662" transform="matrix(-0.0174778 0.999847 -0.999848 -0.0174273 182.388 163.375)" fill="#FFC901"/>
<ellipse rx="1.86394" ry="1.86662" transform="matrix(-0.0174775 0.999847 -0.999848 -0.0174276 182.388 170.842)" fill="#FFC901"/>
<ellipse rx="1.86393" ry="1.86663" transform="matrix(-0.0174778 0.999847 -0.999848 -0.0174273 182.388 178.309)" fill="#FFC901"/>
<ellipse rx="1.86395" ry="1.86662" transform="matrix(-0.0174774 0.999847 -0.999848 -0.0174276 182.388 185.775)" fill="#FFC901"/>
<ellipse rx="1.86391" ry="1.86662" transform="matrix(-0.0174778 0.999847 -0.999848 -0.0174273 182.388 193.242)" fill="#FFC901"/>
<ellipse rx="1.86393" ry="1.86663" transform="matrix(-0.0174777 0.999847 -0.999848 -0.0174274 182.388 200.709)" fill="#FFC901"/>
<ellipse rx="1.86393" ry="1.86662" transform="matrix(-0.0174777 0.999847 -0.999848 -0.0174274 182.388 208.175)" fill="#FFC901"/>
<ellipse rx="1.86395" ry="1.86663" transform="matrix(-0.0174775 0.999847 -0.999848 -0.0174275 182.388 215.642)" fill="#FFC901"/>
<ellipse rx="1.8639" ry="1.86662" transform="matrix(-0.0174779 0.999847 -0.999848 -0.0174272 182.388 223.108)" fill="#FFC901"/>
<ellipse rx="1.86393" ry="1.86663" transform="matrix(-0.0174777 0.999847 -0.999848 -0.0174274 182.388 230.575)" fill="#FFC901"/>
<ellipse rx="1.86393" ry="1.86663" transform="matrix(-0.0174778 0.999847 -0.999848 -0.0174273 182.388 238.042)" fill="#FFC901"/>
<ellipse rx="1.86392" ry="1.86662" transform="matrix(-0.0174777 0.999847 -0.999848 -0.0174273 182.388 245.508)" fill="#FFC901"/>
<ellipse rx="1.86391" ry="1.86662" transform="matrix(-0.0174778 0.999847 -0.999848 -0.0174273 182.388 252.975)" fill="#FFC901"/>
<ellipse rx="1.86391" ry="1.86662" transform="matrix(-0.0174778 0.999847 -0.999848 -0.0174273 182.388 260.442)" fill="#FFC901"/>
<ellipse rx="1.86393" ry="1.86664" transform="matrix(-0.0174778 0.999847 -0.999848 -0.0174272 174.922 103.643)" fill="#FFC901"/>
<ellipse rx="1.86393" ry="1.86665" transform="matrix(-0.0174779 0.999847 -0.999848 -0.0174272 174.922 111.109)" fill="#FFC901"/>
<ellipse rx="1.86392" ry="1.86665" transform="matrix(-0.017478 0.999847 -0.999848 -0.0174271 174.922 118.576)" fill="#FFC901"/>
<ellipse rx="1.86393" ry="1.86664" transform="matrix(-0.0174778 0.999847 -0.999848 -0.0174273 174.922 126.042)" fill="#FFC901"/>
<ellipse rx="1.86392" ry="1.86665" transform="matrix(-0.017478 0.999847 -0.999848 -0.0174271 174.922 133.509)" fill="#FFC901"/>
<ellipse rx="1.86394" ry="1.86665" transform="matrix(-0.0174778 0.999847 -0.999848 -0.0174272 174.922 140.975)" fill="#FFC901"/>
<ellipse rx="1.86395" ry="1.86665" transform="matrix(-0.0174778 0.999847 -0.999848 -0.0174273 174.922 148.441)" fill="#FFC901"/>
<ellipse rx="1.86392" ry="1.86664" transform="matrix(-0.0174779 0.999847 -0.999848 -0.0174271 174.922 155.909)" fill="#FFC901"/>
<ellipse rx="1.86393" ry="1.86663" transform="matrix(-0.0174778 0.999847 -0.999848 -0.0174273 174.922 163.375)" fill="#FFC901"/>
<ellipse rx="1.86394" ry="1.86664" transform="matrix(-0.0174777 0.999847 -0.999848 -0.0174273 174.922 170.842)" fill="#FFC901"/>
<ellipse rx="1.86393" ry="1.86664" transform="matrix(-0.0174779 0.999847 -0.999848 -0.0174272 174.922 178.309)" fill="#FFC901"/>
<ellipse rx="1.86395" ry="1.86664" transform="matrix(-0.0174777 0.999847 -0.999848 -0.0174274 174.922 185.775)" fill="#FFC901"/>
<ellipse rx="1.8639" ry="1.86664" transform="matrix(-0.0174781 0.999847 -0.999848 -0.0174269 174.922 193.242)" fill="#FFC901"/>
<ellipse rx="1.86393" ry="1.86665" transform="matrix(-0.0174779 0.999847 -0.999848 -0.0174272 174.922 200.709)" fill="#FFC901"/>
<ellipse rx="1.86393" ry="1.86665" transform="matrix(-0.0174779 0.999847 -0.999848 -0.0174271 174.922 208.175)" fill="#FFC901"/>
<ellipse rx="1.86395" ry="1.86664" transform="matrix(-0.0174777 0.999847 -0.999848 -0.0174274 174.922 215.642)" fill="#FFC901"/>
<ellipse rx="1.8639" ry="1.86665" transform="matrix(-0.0174782 0.999847 -0.999848 -0.0174269 174.922 223.108)" fill="#FFC901"/>
<ellipse rx="1.86395" ry="1.86664" transform="matrix(-0.0174777 0.999847 -0.999848 -0.0174274 174.922 230.575)" fill="#FFC901"/>
<ellipse rx="1.86392" ry="1.86665" transform="matrix(-0.017478 0.999847 -0.999848 -0.0174271 174.922 238.042)" fill="#FFC901"/>
<ellipse rx="1.86392" ry="1.86664" transform="matrix(-0.0174779 0.999847 -0.999848 -0.0174271 174.922 245.508)" fill="#FFC901"/>
<ellipse rx="1.86393" ry="1.86665" transform="matrix(-0.0174779 0.999847 -0.999848 -0.0174271 174.922 252.975)" fill="#FFC901"/>
<ellipse rx="1.86391" ry="1.86665" transform="matrix(-0.0174781 0.999847 -0.999848 -0.017427 174.922 260.442)" fill="#FFC901"/>
<ellipse rx="1.86393" ry="1.8666" transform="matrix(-0.0174775 0.999847 -0.999848 -0.0174276 167.455 103.643)" fill="#FFC901"/>
<ellipse rx="1.86393" ry="1.8666" transform="matrix(-0.0174775 0.999847 -0.999848 -0.0174276 167.455 111.109)" fill="#FFC901"/>
<ellipse rx="1.86392" ry="1.86662" transform="matrix(-0.0174778 0.999847 -0.999848 -0.0174273 167.455 118.576)" fill="#FFC901"/>
<ellipse rx="1.86394" ry="1.86662" transform="matrix(-0.0174776 0.999847 -0.999848 -0.0174275 167.455 126.042)" fill="#FFC901"/>
<ellipse rx="1.86393" ry="1.86662" transform="matrix(-0.0174776 0.999847 -0.999848 -0.0174275 167.455 133.509)" fill="#FFC901"/>
<ellipse rx="1.86394" ry="1.86662" transform="matrix(-0.0174776 0.999847 -0.999848 -0.0174275 167.455 140.975)" fill="#FFC901"/>
<ellipse rx="1.86394" ry="1.86662" transform="matrix(-0.0174775 0.999847 -0.999848 -0.0174276 167.455 148.441)" fill="#FFC901"/>
<ellipse rx="1.86392" ry="1.8666" transform="matrix(-0.0174776 0.999847 -0.999848 -0.0174275 167.455 155.909)" fill="#FFC901"/>
<ellipse rx="1.8639" ry="1.86662" transform="matrix(-0.0174779 0.999847 -0.999848 -0.0174272 167.455 163.375)" fill="#FFC901"/>
<ellipse rx="1.86394" ry="1.8666" transform="matrix(-0.0174774 0.999847 -0.999848 -0.0174277 167.455 170.842)" fill="#FFC901"/>
<ellipse rx="1.86393" ry="1.8666" transform="matrix(-0.0174775 0.999847 -0.999848 -0.0174276 167.455 178.309)" fill="#FFC901"/>
<ellipse rx="1.86395" ry="1.8666" transform="matrix(-0.0174773 0.999847 -0.999848 -0.0174278 167.455 185.775)" fill="#FFC901"/>
<ellipse rx="1.86393" ry="1.8666" transform="matrix(-0.0174775 0.999847 -0.999848 -0.0174276 167.455 193.242)" fill="#FFC901"/>
<ellipse rx="1.86393" ry="1.86659" transform="matrix(-0.0174774 0.999847 -0.999848 -0.0174276 167.455 200.709)" fill="#FFC901"/>
<ellipse rx="1.86393" ry="1.86662" transform="matrix(-0.0174777 0.999847 -0.999848 -0.0174274 167.455 208.175)" fill="#FFC901"/>
<ellipse rx="1.86395" ry="1.8666" transform="matrix(-0.0174773 0.999847 -0.999848 -0.0174278 167.455 215.642)" fill="#FFC901"/>
<ellipse rx="1.8639" ry="1.86662" transform="matrix(-0.0174779 0.999847 -0.999848 -0.0174272 167.455 223.108)" fill="#FFC901"/>
<ellipse rx="1.86395" ry="1.8666" transform="matrix(-0.0174773 0.999847 -0.999848 -0.0174278 167.455 230.575)" fill="#FFC901"/>
<ellipse rx="1.86392" ry="1.86662" transform="matrix(-0.0174777 0.999847 -0.999848 -0.0174274 167.455 238.042)" fill="#FFC901"/>
<ellipse rx="1.86392" ry="1.86663" transform="matrix(-0.0174779 0.999847 -0.999848 -0.0174272 167.455 245.508)" fill="#FFC901"/>
<ellipse rx="1.86391" ry="1.86662" transform="matrix(-0.0174778 0.999847 -0.999848 -0.0174273 167.455 252.975)" fill="#FFC901"/>
<ellipse rx="1.86392" ry="1.86662" transform="matrix(-0.0174777 0.999847 -0.999848 -0.0174273 167.455 260.442)" fill="#FFC901"/>
<ellipse rx="1.86393" ry="1.8666" transform="matrix(-0.0174775 0.999847 -0.999848 -0.0174276 159.989 103.643)" fill="#FFC901"/>
<ellipse rx="1.86393" ry="1.86664" transform="matrix(-0.0174779 0.999847 -0.999848 -0.0174272 159.989 111.109)" fill="#FFC901"/>
<ellipse rx="1.86392" ry="1.86662" transform="matrix(-0.0174777 0.999847 -0.999848 -0.0174274 159.989 118.576)" fill="#FFC901"/>
<ellipse rx="1.86392" ry="1.86664" transform="matrix(-0.0174779 0.999847 -0.999848 -0.0174272 159.989 126.042)" fill="#FFC901"/>
<ellipse rx="1.86392" ry="1.8666" transform="matrix(-0.0174776 0.999847 -0.999848 -0.0174275 159.989 133.509)" fill="#FFC901"/>
<ellipse rx="1.86394" ry="1.86662" transform="matrix(-0.0174776 0.999847 -0.999848 -0.0174275 159.989 140.975)" fill="#FFC901"/>
<ellipse rx="1.86393" ry="1.8666" transform="matrix(-0.0174775 0.999847 -0.999848 -0.0174276 159.989 148.442)" fill="#FFC901"/>
<ellipse rx="1.86393" ry="1.8666" transform="matrix(-0.0174775 0.999847 -0.999848 -0.0174276 159.989 155.909)" fill="#FFC901"/>
<ellipse rx="1.8639" ry="1.8666" transform="matrix(-0.0174777 0.999847 -0.999848 -0.0174273 159.989 163.375)" fill="#FFC901"/>
<ellipse rx="1.86394" ry="1.86664" transform="matrix(-0.0174777 0.999847 -0.999848 -0.0174273 159.989 170.842)" fill="#FFC901"/>
<ellipse rx="1.86391" ry="1.86664" transform="matrix(-0.017478 0.999847 -0.999848 -0.0174271 159.989 178.309)" fill="#FFC901"/>
<ellipse rx="1.86395" ry="1.86662" transform="matrix(-0.0174774 0.999847 -0.999848 -0.0174276 159.989 185.775)" fill="#FFC901"/>
<ellipse rx="1.86391" ry="1.86662" transform="matrix(-0.0174778 0.999847 -0.999848 -0.0174273 159.989 193.242)" fill="#FFC901"/>
<ellipse rx="1.86393" ry="1.8666" transform="matrix(-0.0174775 0.999847 -0.999848 -0.0174276 159.989 200.709)" fill="#FFC901"/>
<ellipse rx="1.86393" ry="1.8666" transform="matrix(-0.0174775 0.999847 -0.999848 -0.0174276 159.989 208.175)" fill="#FFC901"/>
<ellipse rx="1.86395" ry="1.8666" transform="matrix(-0.0174773 0.999847 -0.999848 -0.0174278 159.989 215.642)" fill="#FFC901"/>
<ellipse rx="1.8639" ry="1.8666" transform="matrix(-0.0174777 0.999847 -0.999848 -0.0174273 159.989 223.108)" fill="#FFC901"/>
<ellipse rx="1.86395" ry="1.86664" transform="matrix(-0.0174777 0.999847 -0.999848 -0.0174274 159.989 230.575)" fill="#FFC901"/>
<ellipse rx="1.86392" ry="1.86662" transform="matrix(-0.0174777 0.999847 -0.999848 -0.0174274 159.989 238.042)" fill="#FFC901"/>
<ellipse rx="1.86392" ry="1.8666" transform="matrix(-0.0174776 0.999847 -0.999848 -0.0174275 159.989 245.508)" fill="#FFC901"/>
<ellipse rx="1.86393" ry="1.86662" transform="matrix(-0.0174777 0.999847 -0.999848 -0.0174274 159.989 252.975)" fill="#FFC901"/>
<ellipse rx="1.86391" ry="1.86662" transform="matrix(-0.0174778 0.999847 -0.999848 -0.0174273 159.989 260.442)" fill="#FFC901"/>
<ellipse rx="1.86393" ry="1.86659" transform="matrix(-0.0174774 0.999847 -0.999848 -0.0174276 152.522 103.643)" fill="#FFC901"/>
<ellipse rx="1.86393" ry="1.86662" transform="matrix(-0.0174776 0.999847 -0.999848 -0.0174274 152.522 111.109)" fill="#FFC901"/>
<ellipse rx="1.86392" ry="1.86662" transform="matrix(-0.0174777 0.999847 -0.999848 -0.0174274 152.522 118.576)" fill="#FFC901"/>
<ellipse rx="1.86394" ry="1.86661" transform="matrix(-0.0174775 0.999847 -0.999848 -0.0174276 152.522 126.042)" fill="#FFC901"/>
<ellipse rx="1.86392" ry="1.86661" transform="matrix(-0.0174777 0.999847 -0.999848 -0.0174274 152.522 133.509)" fill="#FFC901"/>
<ellipse rx="1.86394" ry="1.86662" transform="matrix(-0.0174776 0.999847 -0.999848 -0.0174275 152.522 140.975)" fill="#FFC901"/>
<ellipse rx="1.86393" ry="1.86661" transform="matrix(-0.0174775 0.999847 -0.999848 -0.0174276 152.522 148.442)" fill="#FFC901"/>
<ellipse rx="1.86392" ry="1.86661" transform="matrix(-0.0174776 0.999847 -0.999848 -0.0174275 152.522 155.909)" fill="#FFC901"/>
<ellipse rx="1.86392" ry="1.8666" transform="matrix(-0.0174776 0.999847 -0.999848 -0.0174275 152.522 163.375)" fill="#FFC901"/>
<ellipse rx="1.86394" ry="1.86662" transform="matrix(-0.0174775 0.999847 -0.999848 -0.0174276 152.522 170.842)" fill="#FFC901"/>
<ellipse rx="1.86392" ry="1.86662" transform="matrix(-0.0174778 0.999847 -0.999848 -0.0174273 152.522 178.309)" fill="#FFC901"/>
<ellipse rx="1.86395" ry="1.86661" transform="matrix(-0.0174774 0.999847 -0.999848 -0.0174277 152.522 185.775)" fill="#FFC901"/>
<ellipse rx="1.8639" ry="1.86662" transform="matrix(-0.0174779 0.999847 -0.999848 -0.0174271 152.522 193.242)" fill="#FFC901"/>
<ellipse rx="1.86393" ry="1.86661" transform="matrix(-0.0174775 0.999847 -0.999848 -0.0174276 152.522 200.709)" fill="#FFC901"/>
<ellipse rx="1.86393" ry="1.86661" transform="matrix(-0.0174776 0.999847 -0.999848 -0.0174275 152.522 208.175)" fill="#FFC901"/>
<ellipse rx="1.86394" ry="1.8666" transform="matrix(-0.0174774 0.999847 -0.999848 -0.0174277 152.522 215.642)" fill="#FFC901"/>
<ellipse rx="1.8639" ry="1.86661" transform="matrix(-0.0174778 0.999847 -0.999848 -0.0174273 152.522 223.108)" fill="#FFC901"/>
<ellipse rx="1.86395" ry="1.86661" transform="matrix(-0.0174774 0.999847 -0.999848 -0.0174277 152.522 230.575)" fill="#FFC901"/>
<ellipse rx="1.86392" ry="1.86661" transform="matrix(-0.0174777 0.999847 -0.999848 -0.0174274 152.522 238.042)" fill="#FFC901"/>
<ellipse rx="1.86391" ry="1.86661" transform="matrix(-0.0174777 0.999847 -0.999848 -0.0174274 152.522 245.508)" fill="#FFC901"/>
<ellipse rx="1.86392" ry="1.86661" transform="matrix(-0.0174777 0.999847 -0.999848 -0.0174274 152.522 252.975)" fill="#FFC901"/>
<ellipse rx="1.86392" ry="1.86659" transform="matrix(-0.0174774 0.999847 -0.999848 -0.0174276 152.522 260.442)" fill="#FFC901"/>
<ellipse rx="1.86393" ry="1.86659" transform="matrix(-0.0174774 0.999847 -0.999848 -0.0174277 145.056 103.643)" fill="#FFC901"/>
<ellipse rx="1.86393" ry="1.86659" transform="matrix(-0.0174774 0.999847 -0.999848 -0.0174276 145.056 111.109)" fill="#FFC901"/>
<ellipse rx="1.86393" ry="1.86659" transform="matrix(-0.0174774 0.999847 -0.999848 -0.0174276 145.056 118.576)" fill="#FFC901"/>
<ellipse rx="1.86393" ry="1.86662" transform="matrix(-0.0174776 0.999847 -0.999848 -0.0174275 145.056 126.042)" fill="#FFC901"/>
<ellipse rx="1.86393" ry="1.86659" transform="matrix(-0.0174774 0.999847 -0.999848 -0.0174277 145.056 133.509)" fill="#FFC901"/>
<ellipse rx="1.86393" ry="1.86659" transform="matrix(-0.0174774 0.999847 -0.999848 -0.0174277 145.056 140.975)" fill="#FFC901"/>
<ellipse rx="1.86393" ry="1.86662" transform="matrix(-0.0174776 0.999847 -0.999848 -0.0174275 145.056 148.442)" fill="#FFC901"/>
<ellipse rx="1.86393" ry="1.86659" transform="matrix(-0.0174773 0.999847 -0.999848 -0.0174278 145.056 155.909)" fill="#FFC901"/>
<ellipse rx="1.86392" ry="1.86659" transform="matrix(-0.0174774 0.999847 -0.999848 -0.0174277 145.056 163.375)" fill="#FFC901"/>
<ellipse rx="1.86394" ry="1.86659" transform="matrix(-0.0174772 0.999847 -0.999848 -0.0174278 145.056 170.842)" fill="#FFC901"/>
<ellipse rx="1.86394" ry="1.86659" transform="matrix(-0.0174773 0.999847 -0.999848 -0.0174278 145.056 178.309)" fill="#FFC901"/>
<ellipse rx="1.86394" ry="1.86659" transform="matrix(-0.0174772 0.999847 -0.999848 -0.0174278 145.056 185.775)" fill="#FFC901"/>
<ellipse rx="1.8639" ry="1.8666" transform="matrix(-0.0174778 0.999847 -0.999848 -0.0174273 145.056 193.242)" fill="#FFC901"/>
<ellipse rx="1.86393" ry="1.86659" transform="matrix(-0.0174773 0.999847 -0.999848 -0.0174278 145.056 200.709)" fill="#FFC901"/>
<ellipse rx="1.86393" ry="1.86659" transform="matrix(-0.0174774 0.999847 -0.999848 -0.0174277 145.056 208.175)" fill="#FFC901"/>
<ellipse rx="1.86394" ry="1.86659" transform="matrix(-0.0174772 0.999847 -0.999848 -0.0174278 145.056 215.642)" fill="#FFC901"/>
<ellipse rx="1.8639" ry="1.86659" transform="matrix(-0.0174776 0.999847 -0.999848 -0.0174275 145.056 223.108)" fill="#FFC901"/>
<ellipse rx="1.86394" ry="1.86659" transform="matrix(-0.0174772 0.999847 -0.999848 -0.0174278 145.056 230.575)" fill="#FFC901"/>
<ellipse rx="1.86392" ry="1.86662" transform="matrix(-0.0174777 0.999847 -0.999848 -0.0174274 145.056 238.042)" fill="#FFC901"/>
<ellipse rx="1.86391" ry="1.86659" transform="matrix(-0.0174775 0.999847 -0.999848 -0.0174276 145.056 245.508)" fill="#FFC901"/>
<ellipse rx="1.86391" ry="1.8666" transform="matrix(-0.0174777 0.999847 -0.999848 -0.0174274 145.056 252.975)" fill="#FFC901"/>
<ellipse rx="1.86392" ry="1.86659" transform="matrix(-0.0174774 0.999847 -0.999848 -0.0174276 145.056 260.442)" fill="#FFC901"/>
<ellipse rx="1.86393" ry="1.8666" transform="matrix(-0.0174774 0.999847 -0.999848 -0.0174276 137.589 103.643)" fill="#FFC901"/>
<ellipse rx="1.86393" ry="1.8666" transform="matrix(-0.0174775 0.999847 -0.999848 -0.0174276 137.589 111.109)" fill="#FFC901"/>
<ellipse rx="1.86391" ry="1.86662" transform="matrix(-0.0174778 0.999847 -0.999848 -0.0174273 137.59 118.576)" fill="#FFC901"/>
<ellipse rx="1.86394" ry="1.8666" transform="matrix(-0.0174774 0.999847 -0.999848 -0.0174277 137.589 126.042)" fill="#FFC901"/>
<ellipse rx="1.86393" ry="1.86662" transform="matrix(-0.0174777 0.999847 -0.999848 -0.0174274 137.59 133.509)" fill="#FFC901"/>
<ellipse rx="1.86393" ry="1.86662" transform="matrix(-0.0174777 0.999847 -0.999848 -0.0174274 137.59 140.975)" fill="#FFC901"/>
<ellipse rx="1.86393" ry="1.86662" transform="matrix(-0.0174776 0.999847 -0.999848 -0.0174275 137.59 148.442)" fill="#FFC901"/>
<ellipse rx="1.86392" ry="1.86659" transform="matrix(-0.0174775 0.999847 -0.999848 -0.0174276 137.589 155.909)" fill="#FFC901"/>
<ellipse rx="1.86391" ry="1.86661" transform="matrix(-0.0174778 0.999847 -0.999848 -0.0174273 137.589 163.375)" fill="#FFC901"/>
<ellipse rx="1.86394" ry="1.8666" transform="matrix(-0.0174774 0.999847 -0.999848 -0.0174277 137.589 170.842)" fill="#FFC901"/>
<ellipse rx="1.86393" ry="1.8666" transform="matrix(-0.0174775 0.999847 -0.999848 -0.0174276 137.589 178.309)" fill="#FFC901"/>
<ellipse rx="1.86392" ry="1.86659" transform="matrix(-0.0174775 0.999847 -0.999848 -0.0174276 137.589 185.775)" fill="#FFC901"/>
<ellipse rx="1.8639" ry="1.8666" transform="matrix(-0.0174777 0.999847 -0.999848 -0.0174274 137.589 193.242)" fill="#FFC901"/>
<ellipse rx="1.86393" ry="1.86661" transform="matrix(-0.0174775 0.999847 -0.999848 -0.0174276 137.59 200.709)" fill="#FFC901"/>
<ellipse rx="1.86393" ry="1.86661" transform="matrix(-0.0174776 0.999847 -0.999848 -0.0174275 137.59 208.175)" fill="#FFC901"/>
<ellipse rx="1.86394" ry="1.86659" transform="matrix(-0.0174773 0.999847 -0.999848 -0.0174278 137.589 215.642)" fill="#FFC901"/>
<ellipse rx="1.8639" ry="1.86661" transform="matrix(-0.0174778 0.999847 -0.999848 -0.0174273 137.59 223.108)" fill="#FFC901"/>
<ellipse rx="1.86394" ry="1.8666" transform="matrix(-0.0174774 0.999847 -0.999848 -0.0174277 137.589 230.575)" fill="#FFC901"/>
<ellipse rx="1.86392" ry="1.8666" transform="matrix(-0.0174776 0.999847 -0.999848 -0.0174275 137.589 238.042)" fill="#FFC901"/>
<ellipse rx="1.86393" ry="1.86659" transform="matrix(-0.0174774 0.999847 -0.999848 -0.0174277 137.589 245.508)" fill="#FFC901"/>
<ellipse rx="1.86391" ry="1.86661" transform="matrix(-0.0174777 0.999847 -0.999848 -0.0174273 137.59 252.975)" fill="#FFC901"/>
<ellipse rx="1.86391" ry="1.86659" transform="matrix(-0.0174775 0.999847 -0.999848 -0.0174276 137.589 260.442)" fill="#FFC901"/>
</g>
<circle cx="143.124" cy="392.124" r="74.1239" fill="#FFDBCE"/>
<circle cx="143.124" cy="392.124" r="40.0269" fill="#FB5315"/>
</g>
</svg>
