<svg width="446" height="521" viewBox="0 0 446 521" fill="none" xmlns="http://www.w3.org/2000/svg">
<g opacity="0.8">
<path fill-rule="evenodd" clip-rule="evenodd" d="M50.8132 333.813C22.8328 305.833 22.8328 260.468 50.8131 232.487L69.1379 250.812L41.4715 278.479L42.9087 279.916L70.5751 252.249L79.5578 261.232L51.8906 288.899L53.3278 290.337L80.9951 262.669L89.9779 271.652L62.3104 299.32L63.7476 300.757L91.4151 273.089L152.139 333.813L152.281 333.671L152.139 333.813C124.159 361.794 78.7936 361.794 50.8132 333.813ZM152.139 232.487L152.228 232.576L152.051 232.399L152.139 232.487Z" fill="#FB5315"/>
<rect width="27.7346" height="27.7346" transform="matrix(0.707107 0.707107 0.707107 -0.707107 81.524 484.031)" fill="#13C2C2"/>
<circle cx="308.476" cy="137.524" r="137.524" fill="#D6E4FF"/>
<circle cx="308.476" cy="137.524" r="82.5146" fill="#10239E"/>
<mask id="mask0" mask-type="alpha" maskUnits="userSpaceOnUse" x="187" y="396" width="88" height="88">
<circle cx="231.058" cy="440.052" r="43.0987" transform="rotate(90 231.058 440.052)" fill="#FF0025"/>
</mask>
<g mask="url(#mask0)">
<ellipse rx="0.990023" ry="0.991453" transform="matrix(-0.0174777 0.999847 -0.999848 -0.0174274 272.405 397.676)" fill="#FFC901"/>
<ellipse rx="0.990027" ry="0.991453" transform="matrix(-0.0174776 0.999847 -0.999848 -0.0174275 272.405 401.642)" fill="#FFC901"/>
<ellipse rx="0.990012" ry="0.991453" transform="matrix(-0.0174779 0.999847 -0.999848 -0.0174272 272.405 405.607)" fill="#FFC901"/>
<ellipse rx="0.990025" ry="0.991453" transform="matrix(-0.0174776 0.999847 -0.999848 -0.0174275 272.405 409.573)" fill="#FFC901"/>
<ellipse rx="0.990025" ry="0.991453" transform="matrix(-0.0174776 0.999847 -0.999848 -0.0174275 272.405 413.539)" fill="#FFC901"/>
<ellipse rx="0.990027" ry="0.991453" transform="matrix(-0.0174776 0.999847 -0.999848 -0.0174275 272.405 417.505)" fill="#FFC901"/>
<ellipse rx="0.990027" ry="0.991453" transform="matrix(-0.0174776 0.999847 -0.999848 -0.0174275 272.405 421.471)" fill="#FFC901"/>
<ellipse rx="0.990022" ry="0.991453" transform="matrix(-0.0174777 0.999847 -0.999848 -0.0174274 272.405 425.437)" fill="#FFC901"/>
<ellipse rx="0.990018" ry="0.991453" transform="matrix(-0.0174778 0.999847 -0.999848 -0.0174273 272.405 429.403)" fill="#FFC901"/>
<ellipse rx="0.990035" ry="0.991453" transform="matrix(-0.0174775 0.999847 -0.999848 -0.0174276 272.405 433.369)" fill="#FFC901"/>
<ellipse rx="0.990029" ry="0.991453" transform="matrix(-0.0174776 0.999847 -0.999848 -0.0174275 272.405 437.335)" fill="#FFC901"/>
<ellipse rx="0.990033" ry="0.991453" transform="matrix(-0.0174775 0.999847 -0.999848 -0.0174276 272.405 441.301)" fill="#FFC901"/>
<ellipse rx="0.990014" ry="0.991453" transform="matrix(-0.0174778 0.999847 -0.999848 -0.0174273 272.405 445.267)" fill="#FFC901"/>
<ellipse rx="0.990025" ry="0.991453" transform="matrix(-0.0174776 0.999847 -0.999848 -0.0174274 272.405 449.233)" fill="#FFC901"/>
<ellipse rx="0.99001" ry="0.991453" transform="matrix(-0.0174779 0.999847 -0.999848 -0.0174272 272.405 453.198)" fill="#FFC901"/>
<ellipse rx="0.990033" ry="0.991453" transform="matrix(-0.0174775 0.999847 -0.999848 -0.0174276 272.405 457.164)" fill="#FFC901"/>
<ellipse rx="0.990029" ry="0.991453" transform="matrix(-0.0174776 0.999847 -0.999848 -0.0174275 272.405 461.13)" fill="#FFC901"/>
<ellipse rx="0.990048" ry="0.991453" transform="matrix(-0.0174772 0.999847 -0.999848 -0.0174278 272.405 465.096)" fill="#FFC901"/>
<ellipse rx="0.990029" ry="0.991453" transform="matrix(-0.0174776 0.999847 -0.999848 -0.0174275 272.405 469.062)" fill="#FFC901"/>
<ellipse rx="0.990022" ry="0.991453" transform="matrix(-0.0174777 0.999847 -0.999848 -0.0174274 272.405 473.028)" fill="#FFC901"/>
<ellipse rx="0.990018" ry="0.991453" transform="matrix(-0.0174778 0.999847 -0.999848 -0.0174273 272.405 476.994)" fill="#FFC901"/>
<ellipse rx="0.990014" ry="0.991453" transform="matrix(-0.0174778 0.999847 -0.999848 -0.0174273 272.405 480.96)" fill="#FFC901"/>
<ellipse rx="0.990024" ry="0.99145" transform="matrix(-0.0174776 0.999847 -0.999848 -0.0174275 268.439 397.676)" fill="#FFC901"/>
<ellipse rx="0.990027" ry="0.99145" transform="matrix(-0.0174776 0.999847 -0.999848 -0.0174275 268.439 401.642)" fill="#FFC901"/>
<ellipse rx="0.990012" ry="0.99145" transform="matrix(-0.0174778 0.999847 -0.999848 -0.0174273 268.439 405.607)" fill="#FFC901"/>
<ellipse rx="0.990027" ry="0.991451" transform="matrix(-0.0174776 0.999847 -0.999848 -0.0174275 268.439 409.573)" fill="#FFC901"/>
<ellipse rx="0.990025" ry="0.99145" transform="matrix(-0.0174776 0.999847 -0.999848 -0.0174275 268.439 413.539)" fill="#FFC901"/>
<ellipse rx="0.990024" ry="0.99145" transform="matrix(-0.0174776 0.999847 -0.999848 -0.0174275 268.439 417.505)" fill="#FFC901"/>
<ellipse rx="0.990027" ry="0.99145" transform="matrix(-0.0174775 0.999847 -0.999848 -0.0174275 268.439 421.471)" fill="#FFC901"/>
<ellipse rx="0.990022" ry="0.99145" transform="matrix(-0.0174777 0.999847 -0.999848 -0.0174274 268.439 425.437)" fill="#FFC901"/>
<ellipse rx="0.990022" ry="0.99145" transform="matrix(-0.0174777 0.999847 -0.999848 -0.0174274 268.439 429.403)" fill="#FFC901"/>
<ellipse rx="0.990035" ry="0.99145" transform="matrix(-0.0174774 0.999847 -0.999848 -0.0174277 268.439 433.369)" fill="#FFC901"/>
<ellipse rx="0.990022" ry="0.99145" transform="matrix(-0.0174777 0.999847 -0.999848 -0.0174274 268.439 437.335)" fill="#FFC901"/>
<ellipse rx="0.990033" ry="0.991451" transform="matrix(-0.0174775 0.999847 -0.999848 -0.0174276 268.439 441.301)" fill="#FFC901"/>
<ellipse rx="0.99001" ry="0.991451" transform="matrix(-0.0174779 0.999847 -0.999848 -0.0174272 268.439 445.267)" fill="#FFC901"/>
<ellipse rx="0.990025" ry="0.991451" transform="matrix(-0.0174776 0.999847 -0.999848 -0.0174275 268.439 449.233)" fill="#FFC901"/>
<ellipse rx="0.99001" ry="0.99145" transform="matrix(-0.0174778 0.999847 -0.999848 -0.0174272 268.439 453.198)" fill="#FFC901"/>
<ellipse rx="0.990037" ry="0.99145" transform="matrix(-0.0174774 0.999847 -0.999848 -0.0174277 268.439 457.165)" fill="#FFC901"/>
<ellipse rx="0.990029" ry="0.991451" transform="matrix(-0.0174775 0.999847 -0.999848 -0.0174276 268.439 461.13)" fill="#FFC901"/>
<ellipse rx="0.990044" ry="0.991451" transform="matrix(-0.0174773 0.999847 -0.999848 -0.0174278 268.439 465.096)" fill="#FFC901"/>
<ellipse rx="0.990029" ry="0.991451" transform="matrix(-0.0174775 0.999847 -0.999848 -0.0174276 268.439 469.062)" fill="#FFC901"/>
<ellipse rx="0.990018" ry="0.991451" transform="matrix(-0.0174777 0.999847 -0.999848 -0.0174274 268.439 473.028)" fill="#FFC901"/>
<ellipse rx="0.990018" ry="0.991451" transform="matrix(-0.0174777 0.999847 -0.999848 -0.0174274 268.439 476.994)" fill="#FFC901"/>
<ellipse rx="0.990022" ry="0.99145" transform="matrix(-0.0174777 0.999847 -0.999848 -0.0174274 268.439 480.96)" fill="#FFC901"/>
<ellipse rx="0.990024" ry="0.991452" transform="matrix(-0.0174777 0.999847 -0.999848 -0.0174274 264.473 397.676)" fill="#FFC901"/>
<ellipse rx="0.990028" ry="0.991452" transform="matrix(-0.0174776 0.999847 -0.999848 -0.0174275 264.473 401.642)" fill="#FFC901"/>
<ellipse rx="0.990024" ry="0.991453" transform="matrix(-0.0174777 0.999847 -0.999848 -0.0174274 264.473 405.607)" fill="#FFC901"/>
<ellipse rx="0.990027" ry="0.991452" transform="matrix(-0.0174776 0.999847 -0.999848 -0.0174275 264.473 409.573)" fill="#FFC901"/>
<ellipse rx="0.990025" ry="0.991452" transform="matrix(-0.0174776 0.999847 -0.999848 -0.0174275 264.473 413.539)" fill="#FFC901"/>
<ellipse rx="0.990025" ry="0.991451" transform="matrix(-0.0174776 0.999847 -0.999848 -0.0174275 264.473 417.505)" fill="#FFC901"/>
<ellipse rx="0.990029" ry="0.991452" transform="matrix(-0.0174776 0.999847 -0.999848 -0.0174275 264.473 421.471)" fill="#FFC901"/>
<ellipse rx="0.990024" ry="0.991453" transform="matrix(-0.0174777 0.999847 -0.999848 -0.0174274 264.473 425.437)" fill="#FFC901"/>
<ellipse rx="0.990022" ry="0.991453" transform="matrix(-0.0174777 0.999847 -0.999848 -0.0174274 264.473 429.403)" fill="#FFC901"/>
<ellipse rx="0.990035" ry="0.991451" transform="matrix(-0.0174774 0.999847 -0.999848 -0.0174276 264.473 433.369)" fill="#FFC901"/>
<ellipse rx="0.990022" ry="0.991452" transform="matrix(-0.0174777 0.999847 -0.999848 -0.0174274 264.473 437.335)" fill="#FFC901"/>
<ellipse rx="0.990033" ry="0.991452" transform="matrix(-0.0174775 0.999847 -0.999848 -0.0174276 264.473 441.301)" fill="#FFC901"/>
<ellipse rx="0.99001" ry="0.991452" transform="matrix(-0.0174779 0.999847 -0.999848 -0.0174272 264.473 445.267)" fill="#FFC901"/>
<ellipse rx="0.990025" ry="0.991453" transform="matrix(-0.0174776 0.999847 -0.999848 -0.0174274 264.473 449.233)" fill="#FFC901"/>
<ellipse rx="0.990014" ry="0.991451" transform="matrix(-0.0174778 0.999847 -0.999848 -0.0174273 264.473 453.199)" fill="#FFC901"/>
<ellipse rx="0.990044" ry="0.991453" transform="matrix(-0.0174773 0.999847 -0.999848 -0.0174278 264.473 457.165)" fill="#FFC901"/>
<ellipse rx="0.990025" ry="0.991452" transform="matrix(-0.0174776 0.999847 -0.999848 -0.0174275 264.473 461.13)" fill="#FFC901"/>
<ellipse rx="0.990044" ry="0.991452" transform="matrix(-0.0174773 0.999847 -0.999848 -0.0174278 264.473 465.096)" fill="#FFC901"/>
<ellipse rx="0.990029" ry="0.991453" transform="matrix(-0.0174776 0.999847 -0.999848 -0.0174275 264.473 469.062)" fill="#FFC901"/>
<ellipse rx="0.990018" ry="0.991453" transform="matrix(-0.0174778 0.999847 -0.999848 -0.0174273 264.473 473.028)" fill="#FFC901"/>
<ellipse rx="0.990018" ry="0.991453" transform="matrix(-0.0174778 0.999847 -0.999848 -0.0174273 264.473 476.994)" fill="#FFC901"/>
<ellipse rx="0.990022" ry="0.991452" transform="matrix(-0.0174777 0.999847 -0.999848 -0.0174274 264.473 480.96)" fill="#FFC901"/>
<ellipse rx="0.990024" ry="0.991454" transform="matrix(-0.0174777 0.999847 -0.999848 -0.0174274 260.508 397.676)" fill="#FFC901"/>
<ellipse rx="0.990028" ry="0.991454" transform="matrix(-0.0174776 0.999847 -0.999848 -0.0174275 260.508 401.642)" fill="#FFC901"/>
<ellipse rx="0.990022" ry="0.991454" transform="matrix(-0.0174777 0.999847 -0.999848 -0.0174274 260.508 405.607)" fill="#FFC901"/>
<ellipse rx="0.990027" ry="0.991454" transform="matrix(-0.0174776 0.999847 -0.999848 -0.0174275 260.508 409.573)" fill="#FFC901"/>
<ellipse rx="0.990025" ry="0.991454" transform="matrix(-0.0174776 0.999847 -0.999848 -0.0174274 260.508 413.539)" fill="#FFC901"/>
<ellipse rx="0.990025" ry="0.991454" transform="matrix(-0.0174776 0.999847 -0.999848 -0.0174274 260.508 417.505)" fill="#FFC901"/>
<ellipse rx="0.990027" ry="0.991454" transform="matrix(-0.0174776 0.999847 -0.999848 -0.0174275 260.508 421.471)" fill="#FFC901"/>
<ellipse rx="0.990024" ry="0.991454" transform="matrix(-0.0174777 0.999847 -0.999848 -0.0174274 260.508 425.437)" fill="#FFC901"/>
<ellipse rx="0.99002" ry="0.991454" transform="matrix(-0.0174777 0.999847 -0.999848 -0.0174273 260.508 429.403)" fill="#FFC901"/>
<ellipse rx="0.990033" ry="0.991454" transform="matrix(-0.0174775 0.999847 -0.999848 -0.0174276 260.508 433.369)" fill="#FFC901"/>
<ellipse rx="0.990033" ry="0.991453" transform="matrix(-0.0174775 0.999847 -0.999848 -0.0174276 260.508 437.334)" fill="#FFC901"/>
<ellipse rx="0.990033" ry="0.991453" transform="matrix(-0.0174775 0.999847 -0.999848 -0.0174276 260.508 441.301)" fill="#FFC901"/>
<ellipse rx="0.99001" ry="0.991454" transform="matrix(-0.0174779 0.999847 -0.999848 -0.0174272 260.508 445.267)" fill="#FFC901"/>
<ellipse rx="0.990022" ry="0.991454" transform="matrix(-0.0174777 0.999847 -0.999848 -0.0174274 260.508 449.233)" fill="#FFC901"/>
<ellipse rx="0.990029" ry="0.991451" transform="matrix(-0.0174775 0.999847 -0.999848 -0.0174276 260.508 453.199)" fill="#FFC901"/>
<ellipse rx="0.990044" ry="0.991453" transform="matrix(-0.0174773 0.999847 -0.999848 -0.0174278 260.508 457.165)" fill="#FFC901"/>
<ellipse rx="0.990018" ry="0.991451" transform="matrix(-0.0174777 0.999847 -0.999848 -0.0174273 260.508 461.13)" fill="#FFC901"/>
<ellipse rx="0.990044" ry="0.991453" transform="matrix(-0.0174773 0.999847 -0.999848 -0.0174278 260.508 465.096)" fill="#FFC901"/>
<ellipse rx="0.990033" ry="0.991454" transform="matrix(-0.0174775 0.999847 -0.999848 -0.0174276 260.508 469.062)" fill="#FFC901"/>
<ellipse rx="0.990018" ry="0.991452" transform="matrix(-0.0174777 0.999847 -0.999848 -0.0174273 260.508 473.028)" fill="#FFC901"/>
<ellipse rx="0.990018" ry="0.991451" transform="matrix(-0.0174777 0.999847 -0.999848 -0.0174273 260.508 476.994)" fill="#FFC901"/>
<ellipse rx="0.990022" ry="0.991454" transform="matrix(-0.0174777 0.999847 -0.999848 -0.0174274 260.508 480.96)" fill="#FFC901"/>
<ellipse rx="0.990024" ry="0.991451" transform="matrix(-0.0174776 0.999847 -0.999848 -0.0174275 256.542 397.676)" fill="#FFC901"/>
<ellipse rx="0.990026" ry="0.991455" transform="matrix(-0.0174777 0.999847 -0.999848 -0.0174274 256.542 401.642)" fill="#FFC901"/>
<ellipse rx="0.990022" ry="0.991451" transform="matrix(-0.0174777 0.999847 -0.999848 -0.0174274 256.542 405.607)" fill="#FFC901"/>
<ellipse rx="0.990024" ry="0.991455" transform="matrix(-0.0174777 0.999847 -0.999848 -0.0174274 256.542 409.573)" fill="#FFC901"/>
<ellipse rx="0.990027" ry="0.991453" transform="matrix(-0.0174776 0.999847 -0.999848 -0.0174275 256.542 413.539)" fill="#FFC901"/>
<ellipse rx="0.990025" ry="0.99145" transform="matrix(-0.0174776 0.999847 -0.999848 -0.0174275 256.542 417.505)" fill="#FFC901"/>
<ellipse rx="0.990027" ry="0.99145" transform="matrix(-0.0174776 0.999847 -0.999848 -0.0174275 256.542 421.471)" fill="#FFC901"/>
<ellipse rx="0.990025" ry="0.99145" transform="matrix(-0.0174776 0.999847 -0.999848 -0.0174275 256.542 425.437)" fill="#FFC901"/>
<ellipse rx="0.990016" ry="0.99145" transform="matrix(-0.0174778 0.999847 -0.999848 -0.0174273 256.542 429.403)" fill="#FFC901"/>
<ellipse rx="0.990033" ry="0.99145" transform="matrix(-0.0174775 0.999847 -0.999848 -0.0174276 256.542 433.369)" fill="#FFC901"/>
<ellipse rx="0.990033" ry="0.991453" transform="matrix(-0.0174775 0.999847 -0.999848 -0.0174276 256.542 437.334)" fill="#FFC901"/>
<ellipse rx="0.990033" ry="0.99145" transform="matrix(-0.0174774 0.999847 -0.999848 -0.0174276 256.542 441.301)" fill="#FFC901"/>
<ellipse rx="0.99001" ry="0.991453" transform="matrix(-0.0174779 0.999847 -0.999848 -0.0174272 256.542 445.267)" fill="#FFC901"/>
<ellipse rx="0.990022" ry="0.99145" transform="matrix(-0.0174776 0.999847 -0.999848 -0.0174274 256.542 449.233)" fill="#FFC901"/>
<ellipse rx="0.990014" ry="0.99145" transform="matrix(-0.0174778 0.999847 -0.999848 -0.0174273 256.542 453.198)" fill="#FFC901"/>
<ellipse rx="0.990037" ry="0.99145" transform="matrix(-0.0174774 0.999847 -0.999848 -0.0174277 256.542 457.165)" fill="#FFC901"/>
<ellipse rx="0.990018" ry="0.99145" transform="matrix(-0.0174777 0.999847 -0.999848 -0.0174274 256.542 461.13)" fill="#FFC901"/>
<ellipse rx="0.990044" ry="0.99145" transform="matrix(-0.0174773 0.999847 -0.999848 -0.0174278 256.542 465.096)" fill="#FFC901"/>
<ellipse rx="0.990033" ry="0.991453" transform="matrix(-0.0174775 0.999847 -0.999848 -0.0174276 256.542 469.062)" fill="#FFC901"/>
<ellipse rx="0.99001" ry="0.991449" transform="matrix(-0.0174778 0.999847 -0.999848 -0.0174272 256.542 473.028)" fill="#FFC901"/>
<ellipse rx="0.990018" ry="0.991453" transform="matrix(-0.0174778 0.999847 -0.999848 -0.0174273 256.542 476.994)" fill="#FFC901"/>
<ellipse rx="0.990022" ry="0.991449" transform="matrix(-0.0174776 0.999847 -0.999848 -0.0174274 256.542 480.96)" fill="#FFC901"/>
<ellipse rx="0.990024" ry="0.991454" transform="matrix(-0.0174777 0.999847 -0.999848 -0.0174274 252.576 397.676)" fill="#FFC901"/>
<ellipse rx="0.990026" ry="0.991454" transform="matrix(-0.0174776 0.999847 -0.999848 -0.0174274 252.576 401.642)" fill="#FFC901"/>
<ellipse rx="0.990022" ry="0.991454" transform="matrix(-0.0174777 0.999847 -0.999848 -0.0174274 252.576 405.607)" fill="#FFC901"/>
<ellipse rx="0.990029" ry="0.991454" transform="matrix(-0.0174776 0.999847 -0.999848 -0.0174275 252.576 409.573)" fill="#FFC901"/>
<ellipse rx="0.990024" ry="0.991454" transform="matrix(-0.0174777 0.999847 -0.999848 -0.0174274 252.576 413.539)" fill="#FFC901"/>
<ellipse rx="0.990022" ry="0.991454" transform="matrix(-0.0174777 0.999847 -0.999848 -0.0174274 252.576 417.505)" fill="#FFC901"/>
<ellipse rx="0.990035" ry="0.991454" transform="matrix(-0.0174775 0.999847 -0.999848 -0.0174276 252.576 421.471)" fill="#FFC901"/>
<ellipse rx="0.990022" ry="0.991451" transform="matrix(-0.0174777 0.999847 -0.999848 -0.0174274 252.576 425.437)" fill="#FFC901"/>
<ellipse rx="0.990016" ry="0.99145" transform="matrix(-0.0174778 0.999847 -0.999848 -0.0174273 252.576 429.403)" fill="#FFC901"/>
<ellipse rx="0.990033" ry="0.99145" transform="matrix(-0.0174775 0.999847 -0.999848 -0.0174276 252.576 433.369)" fill="#FFC901"/>
<ellipse rx="0.990033" ry="0.991454" transform="matrix(-0.0174775 0.999847 -0.999848 -0.0174276 252.576 437.335)" fill="#FFC901"/>
<ellipse rx="0.990037" ry="0.99145" transform="matrix(-0.0174774 0.999847 -0.999848 -0.0174277 252.576 441.301)" fill="#FFC901"/>
<ellipse rx="0.99001" ry="0.991454" transform="matrix(-0.0174779 0.999847 -0.999848 -0.0174272 252.576 445.267)" fill="#FFC901"/>
<ellipse rx="0.990037" ry="0.991449" transform="matrix(-0.0174774 0.999847 -0.999848 -0.0174277 252.576 449.233)" fill="#FFC901"/>
<ellipse rx="0.990029" ry="0.991452" transform="matrix(-0.0174776 0.999847 -0.999848 -0.0174275 252.576 453.199)" fill="#FFC901"/>
<ellipse rx="0.990037" ry="0.99145" transform="matrix(-0.0174774 0.999847 -0.999848 -0.0174277 252.576 457.165)" fill="#FFC901"/>
<ellipse rx="0.990018" ry="0.991452" transform="matrix(-0.0174778 0.999847 -0.999848 -0.0174273 252.576 461.13)" fill="#FFC901"/>
<ellipse rx="0.990033" ry="0.991452" transform="matrix(-0.0174775 0.999847 -0.999848 -0.0174276 252.576 465.096)" fill="#FFC901"/>
<ellipse rx="0.990025" ry="0.991452" transform="matrix(-0.0174776 0.999847 -0.999848 -0.0174275 252.576 469.062)" fill="#FFC901"/>
<ellipse rx="0.990018" ry="0.991452" transform="matrix(-0.0174778 0.999847 -0.999848 -0.0174273 252.576 473.028)" fill="#FFC901"/>
<ellipse rx="0.990022" ry="0.991452" transform="matrix(-0.0174777 0.999847 -0.999848 -0.0174274 252.576 476.994)" fill="#FFC901"/>
<ellipse rx="0.990022" ry="0.991452" transform="matrix(-0.0174777 0.999847 -0.999848 -0.0174274 252.576 480.96)" fill="#FFC901"/>
<ellipse rx="0.990025" ry="0.991452" transform="matrix(-0.0174776 0.999847 -0.999848 -0.0174274 248.61 397.676)" fill="#FFC901"/>
<ellipse rx="0.990026" ry="0.991454" transform="matrix(-0.0174776 0.999847 -0.999848 -0.0174274 248.61 401.642)" fill="#FFC901"/>
<ellipse rx="0.990024" ry="0.991454" transform="matrix(-0.0174777 0.999847 -0.999848 -0.0174274 248.61 405.607)" fill="#FFC901"/>
<ellipse rx="0.990027" ry="0.991454" transform="matrix(-0.0174776 0.999847 -0.999848 -0.0174275 248.61 409.573)" fill="#FFC901"/>
<ellipse rx="0.990024" ry="0.991454" transform="matrix(-0.0174777 0.999847 -0.999848 -0.0174274 248.61 413.539)" fill="#FFC901"/>
<ellipse rx="0.990027" ry="0.991453" transform="matrix(-0.0174776 0.999847 -0.999848 -0.0174275 248.61 417.505)" fill="#FFC901"/>
<ellipse rx="0.990033" ry="0.991454" transform="matrix(-0.0174775 0.999847 -0.999848 -0.0174276 248.61 421.471)" fill="#FFC901"/>
<ellipse rx="0.990022" ry="0.991453" transform="matrix(-0.0174777 0.999847 -0.999848 -0.0174274 248.61 425.437)" fill="#FFC901"/>
<ellipse rx="0.99002" ry="0.991454" transform="matrix(-0.0174778 0.999847 -0.999848 -0.0174273 248.611 429.403)" fill="#FFC901"/>
<ellipse rx="0.990033" ry="0.991454" transform="matrix(-0.0174775 0.999847 -0.999848 -0.0174276 248.61 433.369)" fill="#FFC901"/>
<ellipse rx="0.990033" ry="0.991454" transform="matrix(-0.0174775 0.999847 -0.999848 -0.0174276 248.61 437.334)" fill="#FFC901"/>
<ellipse rx="0.990033" ry="0.991454" transform="matrix(-0.0174775 0.999847 -0.999848 -0.0174276 248.61 441.301)" fill="#FFC901"/>
<ellipse rx="0.99001" ry="0.991454" transform="matrix(-0.0174779 0.999847 -0.999848 -0.0174272 248.61 445.267)" fill="#FFC901"/>
<ellipse rx="0.990037" ry="0.991453" transform="matrix(-0.0174774 0.999847 -0.999848 -0.0174276 248.611 449.233)" fill="#FFC901"/>
<ellipse rx="0.990025" ry="0.991454" transform="matrix(-0.0174777 0.999847 -0.999848 -0.0174274 248.61 453.199)" fill="#FFC901"/>
<ellipse rx="0.990037" ry="0.991455" transform="matrix(-0.0174775 0.999847 -0.999848 -0.0174276 248.611 457.165)" fill="#FFC901"/>
<ellipse rx="0.990014" ry="0.991449" transform="matrix(-0.0174778 0.999847 -0.999848 -0.0174273 248.61 461.13)" fill="#FFC901"/>
<ellipse rx="0.990033" ry="0.991455" transform="matrix(-0.0174775 0.999847 -0.999848 -0.0174275 248.61 465.096)" fill="#FFC901"/>
<ellipse rx="0.990033" ry="0.991455" transform="matrix(-0.0174775 0.999847 -0.999848 -0.0174275 248.61 469.062)" fill="#FFC901"/>
<ellipse rx="0.990018" ry="0.991455" transform="matrix(-0.0174778 0.999847 -0.999848 -0.0174273 248.61 473.028)" fill="#FFC901"/>
<ellipse rx="0.990022" ry="0.991453" transform="matrix(-0.0174777 0.999847 -0.999848 -0.0174274 248.61 476.994)" fill="#FFC901"/>
<ellipse rx="0.990022" ry="0.991448" transform="matrix(-0.0174776 0.999847 -0.999848 -0.0174275 248.611 480.96)" fill="#FFC901"/>
<ellipse rx="0.990024" ry="0.99145" transform="matrix(-0.0174776 0.999847 -0.999848 -0.0174275 244.644 397.676)" fill="#FFC901"/>
<ellipse rx="0.990021" ry="0.99145" transform="matrix(-0.0174777 0.999847 -0.999848 -0.0174274 244.644 401.642)" fill="#FFC901"/>
<ellipse rx="0.990018" ry="0.991454" transform="matrix(-0.0174778 0.999847 -0.999848 -0.0174273 244.644 405.607)" fill="#FFC901"/>
<ellipse rx="0.990027" ry="0.99145" transform="matrix(-0.0174776 0.999847 -0.999848 -0.0174275 244.644 409.573)" fill="#FFC901"/>
<ellipse rx="0.990024" ry="0.99145" transform="matrix(-0.0174776 0.999847 -0.999848 -0.0174275 244.644 413.539)" fill="#FFC901"/>
<ellipse rx="0.990033" ry="0.991454" transform="matrix(-0.0174775 0.999847 -0.999848 -0.0174276 244.644 417.505)" fill="#FFC901"/>
<ellipse rx="0.990033" ry="0.991454" transform="matrix(-0.0174775 0.999847 -0.999848 -0.0174276 244.644 421.471)" fill="#FFC901"/>
<ellipse rx="0.990022" ry="0.991454" transform="matrix(-0.0174777 0.999847 -0.999848 -0.0174274 244.644 425.437)" fill="#FFC901"/>
<ellipse rx="0.990024" ry="0.991454" transform="matrix(-0.0174777 0.999847 -0.999848 -0.0174274 244.644 429.403)" fill="#FFC901"/>
<ellipse rx="0.990033" ry="0.991454" transform="matrix(-0.0174775 0.999847 -0.999848 -0.0174276 244.644 433.369)" fill="#FFC901"/>
<ellipse rx="0.990025" ry="0.99145" transform="matrix(-0.0174776 0.999847 -0.999848 -0.0174275 244.644 437.335)" fill="#FFC901"/>
<ellipse rx="0.990033" ry="0.99145" transform="matrix(-0.0174775 0.999847 -0.999848 -0.0174276 244.644 441.301)" fill="#FFC901"/>
<ellipse rx="0.990014" ry="0.99145" transform="matrix(-0.0174778 0.999847 -0.999848 -0.0174273 244.644 445.267)" fill="#FFC901"/>
<ellipse rx="0.990033" ry="0.99145" transform="matrix(-0.0174775 0.999847 -0.999848 -0.0174276 244.644 449.233)" fill="#FFC901"/>
<ellipse rx="0.990014" ry="0.991452" transform="matrix(-0.0174778 0.999847 -0.999848 -0.0174273 244.644 453.198)" fill="#FFC901"/>
<ellipse rx="0.990037" ry="0.99145" transform="matrix(-0.0174774 0.999847 -0.999848 -0.0174277 244.644 457.165)" fill="#FFC901"/>
<ellipse rx="0.990025" ry="0.991452" transform="matrix(-0.0174776 0.999847 -0.999848 -0.0174275 244.644 461.13)" fill="#FFC901"/>
<ellipse rx="0.990033" ry="0.991452" transform="matrix(-0.0174775 0.999847 -0.999848 -0.0174276 244.644 465.096)" fill="#FFC901"/>
<ellipse rx="0.990029" ry="0.99145" transform="matrix(-0.0174775 0.999847 -0.999848 -0.0174276 244.644 469.062)" fill="#FFC901"/>
<ellipse rx="0.990022" ry="0.99145" transform="matrix(-0.0174777 0.999847 -0.999848 -0.0174274 244.644 473.028)" fill="#FFC901"/>
<ellipse rx="0.990022" ry="0.991452" transform="matrix(-0.0174777 0.999847 -0.999848 -0.0174274 244.644 476.994)" fill="#FFC901"/>
<ellipse rx="0.990022" ry="0.99145" transform="matrix(-0.0174777 0.999847 -0.999848 -0.0174274 244.644 480.96)" fill="#FFC901"/>
<ellipse rx="0.990027" ry="0.991461" transform="matrix(-0.0174777 0.999847 -0.999848 -0.0174274 240.679 397.676)" fill="#FFC901"/>
<ellipse rx="0.990021" ry="0.991461" transform="matrix(-0.0174779 0.999847 -0.999848 -0.0174272 240.679 401.642)" fill="#FFC901"/>
<ellipse rx="0.990018" ry="0.991457" transform="matrix(-0.0174778 0.999847 -0.999848 -0.0174272 240.679 405.607)" fill="#FFC901"/>
<ellipse rx="0.990027" ry="0.991461" transform="matrix(-0.0174777 0.999847 -0.999848 -0.0174273 240.679 409.573)" fill="#FFC901"/>
<ellipse rx="0.990014" ry="0.991457" transform="matrix(-0.0174779 0.999847 -0.999848 -0.0174272 240.679 413.539)" fill="#FFC901"/>
<ellipse rx="0.990027" ry="0.991457" transform="matrix(-0.0174777 0.999847 -0.999848 -0.0174274 240.679 417.505)" fill="#FFC901"/>
<ellipse rx="0.990031" ry="0.991461" transform="matrix(-0.0174777 0.999847 -0.999848 -0.0174274 240.679 421.471)" fill="#FFC901"/>
<ellipse rx="0.990022" ry="0.991461" transform="matrix(-0.0174778 0.999847 -0.999848 -0.0174272 240.679 425.437)" fill="#FFC901"/>
<ellipse rx="0.99002" ry="0.991461" transform="matrix(-0.0174779 0.999847 -0.999848 -0.0174272 240.679 429.403)" fill="#FFC901"/>
<ellipse rx="0.990033" ry="0.991461" transform="matrix(-0.0174776 0.999847 -0.999848 -0.0174274 240.679 433.369)" fill="#FFC901"/>
<ellipse rx="0.990029" ry="0.991457" transform="matrix(-0.0174776 0.999847 -0.999848 -0.0174274 240.679 437.334)" fill="#FFC901"/>
<ellipse rx="0.990033" ry="0.991461" transform="matrix(-0.0174776 0.999847 -0.999848 -0.0174274 240.679 441.301)" fill="#FFC901"/>
<ellipse rx="0.990018" ry="0.991461" transform="matrix(-0.0174779 0.999847 -0.999848 -0.0174272 240.679 445.267)" fill="#FFC901"/>
<ellipse rx="0.990033" ry="0.991457" transform="matrix(-0.0174776 0.999847 -0.999848 -0.0174275 240.679 449.233)" fill="#FFC901"/>
<ellipse rx="0.990025" ry="0.991457" transform="matrix(-0.0174777 0.999847 -0.999848 -0.0174274 240.679 453.199)" fill="#FFC901"/>
<ellipse rx="0.990044" ry="0.991459" transform="matrix(-0.0174774 0.999847 -0.999848 -0.0174277 240.679 457.165)" fill="#FFC901"/>
<ellipse rx="0.990014" ry="0.991461" transform="matrix(-0.017478 0.999847 -0.999848 -0.0174271 240.679 461.13)" fill="#FFC901"/>
<ellipse rx="0.990033" ry="0.991461" transform="matrix(-0.0174776 0.999847 -0.999848 -0.0174275 240.679 465.096)" fill="#FFC901"/>
<ellipse rx="0.990018" ry="0.991461" transform="matrix(-0.0174779 0.999847 -0.999848 -0.0174272 240.679 469.062)" fill="#FFC901"/>
<ellipse rx="0.990018" ry="0.991461" transform="matrix(-0.0174779 0.999847 -0.999848 -0.0174272 240.679 473.028)" fill="#FFC901"/>
<ellipse rx="0.990025" ry="0.991463" transform="matrix(-0.0174778 0.999847 -0.999848 -0.0174273 240.679 476.994)" fill="#FFC901"/>
<ellipse rx="0.990022" ry="0.991461" transform="matrix(-0.0174778 0.999847 -0.999848 -0.0174272 240.679 480.96)" fill="#FFC901"/>
<ellipse rx="0.990022" ry="0.991449" transform="matrix(-0.0174776 0.999847 -0.999848 -0.0174274 236.713 397.676)" fill="#FFC901"/>
<ellipse rx="0.990023" ry="0.991449" transform="matrix(-0.0174776 0.999847 -0.999848 -0.0174275 236.713 401.642)" fill="#FFC901"/>
<ellipse rx="0.990018" ry="0.991448" transform="matrix(-0.0174777 0.999847 -0.999848 -0.0174274 236.713 405.607)" fill="#FFC901"/>
<ellipse rx="0.990025" ry="0.991448" transform="matrix(-0.0174775 0.999847 -0.999848 -0.0174275 236.713 409.573)" fill="#FFC901"/>
<ellipse rx="0.990025" ry="0.991448" transform="matrix(-0.0174775 0.999847 -0.999848 -0.0174275 236.713 413.539)" fill="#FFC901"/>
<ellipse rx="0.990027" ry="0.991448" transform="matrix(-0.0174775 0.999847 -0.999848 -0.0174276 236.713 417.505)" fill="#FFC901"/>
<ellipse rx="0.990033" ry="0.991448" transform="matrix(-0.0174774 0.999847 -0.999848 -0.0174277 236.713 421.471)" fill="#FFC901"/>
<ellipse rx="0.990027" ry="0.991448" transform="matrix(-0.0174775 0.999847 -0.999848 -0.0174276 236.713 425.437)" fill="#FFC901"/>
<ellipse rx="0.99002" ry="0.991448" transform="matrix(-0.0174776 0.999847 -0.999848 -0.0174274 236.713 429.403)" fill="#FFC901"/>
<ellipse rx="0.990033" ry="0.991448" transform="matrix(-0.0174774 0.999847 -0.999848 -0.0174277 236.713 433.369)" fill="#FFC901"/>
<ellipse rx="0.990029" ry="0.991448" transform="matrix(-0.0174775 0.999847 -0.999848 -0.0174276 236.713 437.335)" fill="#FFC901"/>
<ellipse rx="0.990029" ry="0.991449" transform="matrix(-0.0174775 0.999847 -0.999848 -0.0174276 236.713 441.3)" fill="#FFC901"/>
<ellipse rx="0.990014" ry="0.991457" transform="matrix(-0.0174779 0.999847 -0.999848 -0.0174272 236.713 445.267)" fill="#FFC901"/>
<ellipse rx="0.990033" ry="0.991449" transform="matrix(-0.0174774 0.999847 -0.999848 -0.0174276 236.713 449.233)" fill="#FFC901"/>
<ellipse rx="0.990025" ry="0.991448" transform="matrix(-0.0174775 0.999847 -0.999848 -0.0174275 236.713 453.199)" fill="#FFC901"/>
<ellipse rx="0.990037" ry="0.991448" transform="matrix(-0.0174773 0.999847 -0.999848 -0.0174277 236.713 457.165)" fill="#FFC901"/>
<ellipse rx="0.990025" ry="0.991448" transform="matrix(-0.0174775 0.999847 -0.999848 -0.0174275 236.713 461.13)" fill="#FFC901"/>
<ellipse rx="0.990033" ry="0.991449" transform="matrix(-0.0174774 0.999847 -0.999848 -0.0174276 236.713 465.096)" fill="#FFC901"/>
<ellipse rx="0.990018" ry="0.991448" transform="matrix(-0.0174777 0.999847 -0.999848 -0.0174274 236.713 469.062)" fill="#FFC901"/>
<ellipse rx="0.990018" ry="0.991451" transform="matrix(-0.0174777 0.999847 -0.999848 -0.0174273 236.713 473.028)" fill="#FFC901"/>
<ellipse rx="0.990025" ry="0.991449" transform="matrix(-0.0174776 0.999847 -0.999848 -0.0174275 236.713 476.994)" fill="#FFC901"/>
<ellipse rx="0.990022" ry="0.991448" transform="matrix(-0.0174776 0.999847 -0.999848 -0.0174275 236.713 480.96)" fill="#FFC901"/>
<ellipse rx="0.990024" ry="0.991451" transform="matrix(-0.0174776 0.999847 -0.999848 -0.0174274 232.747 397.676)" fill="#FFC901"/>
<ellipse rx="0.990021" ry="0.991451" transform="matrix(-0.0174777 0.999847 -0.999848 -0.0174274 232.747 401.642)" fill="#FFC901"/>
<ellipse rx="0.990009" ry="0.991449" transform="matrix(-0.0174779 0.999847 -0.999848 -0.0174272 232.747 405.607)" fill="#FFC901"/>
<ellipse rx="0.990025" ry="0.991457" transform="matrix(-0.0174777 0.999847 -0.999848 -0.0174274 232.747 409.573)" fill="#FFC901"/>
<ellipse rx="0.990025" ry="0.991457" transform="matrix(-0.0174777 0.999847 -0.999848 -0.0174274 232.747 413.539)" fill="#FFC901"/>
<ellipse rx="0.990027" ry="0.991457" transform="matrix(-0.0174777 0.999847 -0.999848 -0.0174274 232.747 417.505)" fill="#FFC901"/>
<ellipse rx="0.990027" ry="0.991459" transform="matrix(-0.0174777 0.999847 -0.999848 -0.0174274 232.747 421.471)" fill="#FFC901"/>
<ellipse rx="0.990029" ry="0.991457" transform="matrix(-0.0174776 0.999847 -0.999848 -0.0174274 232.747 425.437)" fill="#FFC901"/>
<ellipse rx="0.99002" ry="0.991453" transform="matrix(-0.0174777 0.999847 -0.999848 -0.0174273 232.747 429.403)" fill="#FFC901"/>
<ellipse rx="0.990033" ry="0.991453" transform="matrix(-0.0174775 0.999847 -0.999848 -0.0174276 232.747 433.369)" fill="#FFC901"/>
<ellipse rx="0.990018" ry="0.991453" transform="matrix(-0.0174778 0.999847 -0.999848 -0.0174273 232.747 437.335)" fill="#FFC901"/>
<ellipse rx="0.990033" ry="0.991453" transform="matrix(-0.0174775 0.999847 -0.999848 -0.0174276 232.747 441.301)" fill="#FFC901"/>
<ellipse rx="0.990014" ry="0.991453" transform="matrix(-0.0174778 0.999847 -0.999848 -0.0174272 232.747 445.267)" fill="#FFC901"/>
<ellipse rx="0.990033" ry="0.991459" transform="matrix(-0.0174776 0.999847 -0.999848 -0.0174275 232.747 449.233)" fill="#FFC901"/>
<ellipse rx="0.990025" ry="0.991453" transform="matrix(-0.0174776 0.999847 -0.999848 -0.0174275 232.747 453.199)" fill="#FFC901"/>
<ellipse rx="0.990037" ry="0.991453" transform="matrix(-0.0174774 0.999847 -0.999848 -0.0174276 232.747 457.165)" fill="#FFC901"/>
<ellipse rx="0.990018" ry="0.991453" transform="matrix(-0.0174778 0.999847 -0.999848 -0.0174273 232.747 461.13)" fill="#FFC901"/>
<ellipse rx="0.990033" ry="0.991459" transform="matrix(-0.0174776 0.999847 -0.999848 -0.0174275 232.747 465.096)" fill="#FFC901"/>
<ellipse rx="0.990029" ry="0.991453" transform="matrix(-0.0174776 0.999847 -0.999848 -0.0174275 232.747 469.062)" fill="#FFC901"/>
<ellipse rx="0.990018" ry="0.991459" transform="matrix(-0.0174779 0.999847 -0.999848 -0.0174272 232.747 473.028)" fill="#FFC901"/>
<ellipse rx="0.990018" ry="0.991457" transform="matrix(-0.0174778 0.999847 -0.999848 -0.0174272 232.747 476.994)" fill="#FFC901"/>
<ellipse rx="0.990025" ry="0.991457" transform="matrix(-0.0174777 0.999847 -0.999848 -0.0174274 232.747 480.96)" fill="#FFC901"/>
<ellipse rx="0.990023" ry="0.991448" transform="matrix(-0.0174776 0.999847 -0.999848 -0.0174275 228.781 397.676)" fill="#FFC901"/>
<ellipse rx="0.990025" ry="0.991442" transform="matrix(-0.0174775 0.999847 -0.999848 -0.0174276 228.781 401.642)" fill="#FFC901"/>
<ellipse rx="0.990014" ry="0.991442" transform="matrix(-0.0174776 0.999847 -0.999848 -0.0174274 228.781 405.607)" fill="#FFC901"/>
<ellipse rx="0.990025" ry="0.991442" transform="matrix(-0.0174774 0.999847 -0.999848 -0.0174276 228.781 409.573)" fill="#FFC901"/>
<ellipse rx="0.990025" ry="0.991448" transform="matrix(-0.0174775 0.999847 -0.999848 -0.0174275 228.781 413.539)" fill="#FFC901"/>
<ellipse rx="0.990027" ry="0.991442" transform="matrix(-0.0174774 0.999847 -0.999848 -0.0174277 228.781 417.505)" fill="#FFC901"/>
<ellipse rx="0.990031" ry="0.991448" transform="matrix(-0.0174774 0.999847 -0.999848 -0.0174276 228.781 421.471)" fill="#FFC901"/>
<ellipse rx="0.990027" ry="0.99144" transform="matrix(-0.0174774 0.999847 -0.999848 -0.0174277 228.781 425.437)" fill="#FFC901"/>
<ellipse rx="0.99002" ry="0.991448" transform="matrix(-0.0174776 0.999847 -0.999848 -0.0174274 228.781 429.403)" fill="#FFC901"/>
<ellipse rx="0.990033" ry="0.991448" transform="matrix(-0.0174774 0.999847 -0.999848 -0.0174277 228.781 433.369)" fill="#FFC901"/>
<ellipse rx="0.990018" ry="0.991442" transform="matrix(-0.0174776 0.999847 -0.999848 -0.0174275 228.781 437.335)" fill="#FFC901"/>
<ellipse rx="0.990037" ry="0.991442" transform="matrix(-0.0174772 0.999847 -0.999848 -0.0174278 228.781 441.301)" fill="#FFC901"/>
<ellipse rx="0.990007" ry="0.991442" transform="matrix(-0.0174778 0.999847 -0.999848 -0.0174273 228.781 445.267)" fill="#FFC901"/>
<ellipse rx="0.990033" ry="0.991448" transform="matrix(-0.0174774 0.999847 -0.999848 -0.0174277 228.781 449.233)" fill="#FFC901"/>
<ellipse rx="0.990014" ry="0.991442" transform="matrix(-0.0174776 0.999847 -0.999848 -0.0174274 228.781 453.199)" fill="#FFC901"/>
<ellipse rx="0.990044" ry="0.991442" transform="matrix(-0.0174771 0.999847 -0.999848 -0.017428 228.781 457.165)" fill="#FFC901"/>
<ellipse rx="0.990022" ry="0.991442" transform="matrix(-0.0174775 0.999847 -0.999848 -0.0174276 228.781 461.13)" fill="#FFC901"/>
<ellipse rx="0.990044" ry="0.991442" transform="matrix(-0.0174771 0.999847 -0.999848 -0.017428 228.781 465.096)" fill="#FFC901"/>
<ellipse rx="0.990029" ry="0.991448" transform="matrix(-0.0174775 0.999847 -0.999848 -0.0174276 228.781 469.062)" fill="#FFC901"/>
<ellipse rx="0.99001" ry="0.991442" transform="matrix(-0.0174777 0.999847 -0.999848 -0.0174274 228.781 473.028)" fill="#FFC901"/>
<ellipse rx="0.990022" ry="0.99144" transform="matrix(-0.0174775 0.999847 -0.999848 -0.0174276 228.781 476.994)" fill="#FFC901"/>
<ellipse rx="0.990025" ry="0.99144" transform="matrix(-0.0174774 0.999847 -0.999848 -0.0174277 228.781 480.96)" fill="#FFC901"/>
<ellipse rx="0.990025" ry="0.991444" transform="matrix(-0.0174775 0.999847 -0.999848 -0.0174276 224.815 397.676)" fill="#FFC901"/>
<ellipse rx="0.990021" ry="0.991444" transform="matrix(-0.0174775 0.999847 -0.999848 -0.0174275 224.815 401.642)" fill="#FFC901"/>
<ellipse rx="0.990014" ry="0.991444" transform="matrix(-0.0174777 0.999847 -0.999848 -0.0174274 224.815 405.607)" fill="#FFC901"/>
<ellipse rx="0.990025" ry="0.991444" transform="matrix(-0.0174775 0.999847 -0.999848 -0.0174276 224.815 409.573)" fill="#FFC901"/>
<ellipse rx="0.990025" ry="0.99144" transform="matrix(-0.0174774 0.999847 -0.999848 -0.0174277 224.815 413.539)" fill="#FFC901"/>
<ellipse rx="0.990025" ry="0.991444" transform="matrix(-0.0174775 0.999847 -0.999848 -0.0174276 224.815 417.505)" fill="#FFC901"/>
<ellipse rx="0.990031" ry="0.991444" transform="matrix(-0.0174774 0.999847 -0.999848 -0.0174277 224.815 421.471)" fill="#FFC901"/>
<ellipse rx="0.990027" ry="0.991448" transform="matrix(-0.0174775 0.999847 -0.999848 -0.0174276 224.815 425.437)" fill="#FFC901"/>
<ellipse rx="0.990024" ry="0.991448" transform="matrix(-0.0174776 0.999847 -0.999848 -0.0174275 224.815 429.403)" fill="#FFC901"/>
<ellipse rx="0.990033" ry="0.991444" transform="matrix(-0.0174773 0.999847 -0.999848 -0.0174277 224.815 433.369)" fill="#FFC901"/>
<ellipse rx="0.990029" ry="0.991444" transform="matrix(-0.0174774 0.999847 -0.999848 -0.0174277 224.815 437.335)" fill="#FFC901"/>
<ellipse rx="0.99004" ry="0.991444" transform="matrix(-0.0174772 0.999847 -0.999848 -0.0174279 224.815 441.301)" fill="#FFC901"/>
<ellipse rx="0.990007" ry="0.991448" transform="matrix(-0.0174779 0.999847 -0.999848 -0.0174272 224.815 445.267)" fill="#FFC901"/>
<ellipse rx="0.990037" ry="0.991448" transform="matrix(-0.0174773 0.999847 -0.999848 -0.0174277 224.815 449.233)" fill="#FFC901"/>
<ellipse rx="0.990018" ry="0.99144" transform="matrix(-0.0174775 0.999847 -0.999848 -0.0174275 224.815 453.198)" fill="#FFC901"/>
<ellipse rx="0.99004" ry="0.991448" transform="matrix(-0.0174773 0.999847 -0.999848 -0.0174278 224.815 457.165)" fill="#FFC901"/>
<ellipse rx="0.990014" ry="0.991448" transform="matrix(-0.0174777 0.999847 -0.999848 -0.0174273 224.815 461.13)" fill="#FFC901"/>
<ellipse rx="0.99004" ry="0.991444" transform="matrix(-0.0174772 0.999847 -0.999848 -0.0174279 224.815 465.096)" fill="#FFC901"/>
<ellipse rx="0.990029" ry="0.991444" transform="matrix(-0.0174774 0.999847 -0.999848 -0.0174277 224.815 469.062)" fill="#FFC901"/>
<ellipse rx="0.99001" ry="0.991448" transform="matrix(-0.0174778 0.999847 -0.999848 -0.0174273 224.815 473.028)" fill="#FFC901"/>
<ellipse rx="0.990025" ry="0.991444" transform="matrix(-0.0174775 0.999847 -0.999848 -0.0174276 224.815 476.994)" fill="#FFC901"/>
<ellipse rx="0.990022" ry="0.991446" transform="matrix(-0.0174776 0.999847 -0.999848 -0.0174275 224.815 480.96)" fill="#FFC901"/>
<ellipse rx="0.990024" ry="0.991449" transform="matrix(-0.0174776 0.999847 -0.999848 -0.0174275 220.849 397.676)" fill="#FFC901"/>
<ellipse rx="0.990022" ry="0.991448" transform="matrix(-0.0174776 0.999847 -0.999848 -0.0174275 220.849 401.642)" fill="#FFC901"/>
<ellipse rx="0.990022" ry="0.991451" transform="matrix(-0.0174777 0.999847 -0.999848 -0.0174274 220.849 405.607)" fill="#FFC901"/>
<ellipse rx="0.990024" ry="0.991451" transform="matrix(-0.0174776 0.999847 -0.999848 -0.0174274 220.849 409.573)" fill="#FFC901"/>
<ellipse rx="0.990025" ry="0.991451" transform="matrix(-0.0174776 0.999847 -0.999848 -0.0174275 220.849 413.539)" fill="#FFC901"/>
<ellipse rx="0.990029" ry="0.991451" transform="matrix(-0.0174775 0.999847 -0.999848 -0.0174275 220.849 417.505)" fill="#FFC901"/>
<ellipse rx="0.990029" ry="0.991451" transform="matrix(-0.0174775 0.999847 -0.999848 -0.0174275 220.849 421.471)" fill="#FFC901"/>
<ellipse rx="0.990024" ry="0.991451" transform="matrix(-0.0174776 0.999847 -0.999848 -0.0174274 220.849 425.437)" fill="#FFC901"/>
<ellipse rx="0.990024" ry="0.991451" transform="matrix(-0.0174776 0.999847 -0.999848 -0.0174274 220.849 429.403)" fill="#FFC901"/>
<ellipse rx="0.990033" ry="0.991455" transform="matrix(-0.0174775 0.999847 -0.999848 -0.0174275 220.849 433.369)" fill="#FFC901"/>
<ellipse rx="0.990018" ry="0.991451" transform="matrix(-0.0174777 0.999847 -0.999848 -0.0174274 220.849 437.335)" fill="#FFC901"/>
<ellipse rx="0.99004" ry="0.991451" transform="matrix(-0.0174773 0.999847 -0.999848 -0.0174277 220.849 441.301)" fill="#FFC901"/>
<ellipse rx="0.990007" ry="0.991451" transform="matrix(-0.0174779 0.999847 -0.999848 -0.0174271 220.849 445.267)" fill="#FFC901"/>
<ellipse rx="0.990033" ry="0.991451" transform="matrix(-0.0174775 0.999847 -0.999848 -0.0174276 220.849 449.233)" fill="#FFC901"/>
<ellipse rx="0.990029" ry="0.991451" transform="matrix(-0.0174775 0.999847 -0.999848 -0.0174275 220.849 453.198)" fill="#FFC901"/>
<ellipse rx="0.990044" ry="0.991451" transform="matrix(-0.0174773 0.999847 -0.999848 -0.0174278 220.849 457.165)" fill="#FFC901"/>
<ellipse rx="0.990014" ry="0.991451" transform="matrix(-0.0174778 0.999847 -0.999848 -0.0174273 220.849 461.13)" fill="#FFC901"/>
<ellipse rx="0.990044" ry="0.991451" transform="matrix(-0.0174773 0.999847 -0.999848 -0.0174278 220.849 465.096)" fill="#FFC901"/>
<ellipse rx="0.990029" ry="0.991451" transform="matrix(-0.0174775 0.999847 -0.999848 -0.0174275 220.849 469.062)" fill="#FFC901"/>
<ellipse rx="0.990014" ry="0.991451" transform="matrix(-0.0174778 0.999847 -0.999848 -0.0174273 220.849 473.028)" fill="#FFC901"/>
<ellipse rx="0.990022" ry="0.991451" transform="matrix(-0.0174777 0.999847 -0.999848 -0.0174274 220.849 476.994)" fill="#FFC901"/>
<ellipse rx="0.990022" ry="0.991451" transform="matrix(-0.0174777 0.999847 -0.999848 -0.0174274 220.849 480.96)" fill="#FFC901"/>
<ellipse rx="0.990025" ry="0.991451" transform="matrix(-0.0174776 0.999847 -0.999848 -0.0174275 216.884 397.676)" fill="#FFC901"/>
<ellipse rx="0.990022" ry="0.991455" transform="matrix(-0.0174777 0.999847 -0.999848 -0.0174273 216.884 401.642)" fill="#FFC901"/>
<ellipse rx="0.990018" ry="0.991451" transform="matrix(-0.0174777 0.999847 -0.999848 -0.0174273 216.884 405.607)" fill="#FFC901"/>
<ellipse rx="0.99002" ry="0.991457" transform="matrix(-0.0174778 0.999847 -0.999848 -0.0174273 216.884 409.573)" fill="#FFC901"/>
<ellipse rx="0.990029" ry="0.991451" transform="matrix(-0.0174775 0.999847 -0.999848 -0.0174275 216.884 413.539)" fill="#FFC901"/>
<ellipse rx="0.990029" ry="0.991453" transform="matrix(-0.0174776 0.999847 -0.999848 -0.0174275 216.884 417.505)" fill="#FFC901"/>
<ellipse rx="0.990029" ry="0.991451" transform="matrix(-0.0174775 0.999847 -0.999848 -0.0174275 216.884 421.471)" fill="#FFC901"/>
<ellipse rx="0.990025" ry="0.991453" transform="matrix(-0.0174776 0.999847 -0.999848 -0.0174274 216.884 425.437)" fill="#FFC901"/>
<ellipse rx="0.990018" ry="0.991453" transform="matrix(-0.0174778 0.999847 -0.999848 -0.0174273 216.884 429.403)" fill="#FFC901"/>
<ellipse rx="0.990035" ry="0.991453" transform="matrix(-0.0174775 0.999847 -0.999848 -0.0174276 216.884 433.369)" fill="#FFC901"/>
<ellipse rx="0.990018" ry="0.991451" transform="matrix(-0.0174777 0.999847 -0.999848 -0.0174273 216.884 437.335)" fill="#FFC901"/>
<ellipse rx="0.99004" ry="0.991449" transform="matrix(-0.0174773 0.999847 -0.999848 -0.0174278 216.884 441.301)" fill="#FFC901"/>
<ellipse rx="0.990018" ry="0.991453" transform="matrix(-0.0174778 0.999847 -0.999848 -0.0174273 216.884 445.267)" fill="#FFC901"/>
<ellipse rx="0.990033" ry="0.991449" transform="matrix(-0.0174774 0.999847 -0.999848 -0.0174276 216.884 449.233)" fill="#FFC901"/>
<ellipse rx="0.990029" ry="0.991449" transform="matrix(-0.0174775 0.999847 -0.999848 -0.0174276 216.884 453.199)" fill="#FFC901"/>
<ellipse rx="0.990044" ry="0.991449" transform="matrix(-0.0174772 0.999847 -0.999848 -0.0174278 216.884 457.165)" fill="#FFC901"/>
<ellipse rx="0.990014" ry="0.991449" transform="matrix(-0.0174778 0.999847 -0.999848 -0.0174273 216.884 461.13)" fill="#FFC901"/>
<ellipse rx="0.990044" ry="0.991451" transform="matrix(-0.0174773 0.999847 -0.999848 -0.0174278 216.884 465.096)" fill="#FFC901"/>
<ellipse rx="0.990029" ry="0.991453" transform="matrix(-0.0174776 0.999847 -0.999848 -0.0174275 216.884 469.062)" fill="#FFC901"/>
<ellipse rx="0.990018" ry="0.991451" transform="matrix(-0.0174777 0.999847 -0.999848 -0.0174273 216.884 473.028)" fill="#FFC901"/>
<ellipse rx="0.990014" ry="0.991451" transform="matrix(-0.0174778 0.999847 -0.999848 -0.0174273 216.884 476.994)" fill="#FFC901"/>
<ellipse rx="0.990022" ry="0.991451" transform="matrix(-0.0174777 0.999847 -0.999848 -0.0174274 216.884 480.96)" fill="#FFC901"/>
<ellipse rx="0.990025" ry="0.991459" transform="matrix(-0.0174777 0.999847 -0.999848 -0.0174273 212.918 397.676)" fill="#FFC901"/>
<ellipse rx="0.990024" ry="0.991455" transform="matrix(-0.0174777 0.999847 -0.999848 -0.0174274 212.918 401.642)" fill="#FFC901"/>
<ellipse rx="0.99002" ry="0.991455" transform="matrix(-0.0174778 0.999847 -0.999848 -0.0174273 212.918 405.607)" fill="#FFC901"/>
<ellipse rx="0.990027" ry="0.991459" transform="matrix(-0.0174777 0.999847 -0.999848 -0.0174274 212.918 409.573)" fill="#FFC901"/>
<ellipse rx="0.990025" ry="0.991463" transform="matrix(-0.0174778 0.999847 -0.999848 -0.0174273 212.918 413.539)" fill="#FFC901"/>
<ellipse rx="0.990029" ry="0.991455" transform="matrix(-0.0174776 0.999847 -0.999848 -0.0174275 212.918 417.505)" fill="#FFC901"/>
<ellipse rx="0.990031" ry="0.991459" transform="matrix(-0.0174776 0.999847 -0.999848 -0.0174275 212.918 421.471)" fill="#FFC901"/>
<ellipse rx="0.990025" ry="0.991463" transform="matrix(-0.0174778 0.999847 -0.999848 -0.0174273 212.918 425.437)" fill="#FFC901"/>
<ellipse rx="0.990018" ry="0.991455" transform="matrix(-0.0174778 0.999847 -0.999848 -0.0174273 212.918 429.403)" fill="#FFC901"/>
<ellipse rx="0.990035" ry="0.991455" transform="matrix(-0.0174775 0.999847 -0.999848 -0.0174276 212.918 433.369)" fill="#FFC901"/>
<ellipse rx="0.990029" ry="0.991459" transform="matrix(-0.0174777 0.999847 -0.999848 -0.0174274 212.918 437.334)" fill="#FFC901"/>
<ellipse rx="0.99004" ry="0.991455" transform="matrix(-0.0174774 0.999847 -0.999848 -0.0174277 212.918 441.301)" fill="#FFC901"/>
<ellipse rx="0.990007" ry="0.991455" transform="matrix(-0.017478 0.999847 -0.999848 -0.0174271 212.918 445.267)" fill="#FFC901"/>
<ellipse rx="0.990033" ry="0.991463" transform="matrix(-0.0174777 0.999847 -0.999848 -0.0174274 212.918 449.233)" fill="#FFC901"/>
<ellipse rx="0.990025" ry="0.991455" transform="matrix(-0.0174777 0.999847 -0.999848 -0.0174274 212.918 453.199)" fill="#FFC901"/>
<ellipse rx="0.99004" ry="0.991459" transform="matrix(-0.0174775 0.999847 -0.999848 -0.0174276 212.918 457.165)" fill="#FFC901"/>
<ellipse rx="0.990014" ry="0.991455" transform="matrix(-0.0174779 0.999847 -0.999848 -0.0174272 212.918 461.13)" fill="#FFC901"/>
<ellipse rx="0.99004" ry="0.991459" transform="matrix(-0.0174775 0.999847 -0.999848 -0.0174276 212.918 465.096)" fill="#FFC901"/>
<ellipse rx="0.990029" ry="0.991459" transform="matrix(-0.0174777 0.999847 -0.999848 -0.0174274 212.918 469.062)" fill="#FFC901"/>
<ellipse rx="0.990018" ry="0.991455" transform="matrix(-0.0174778 0.999847 -0.999848 -0.0174273 212.918 473.028)" fill="#FFC901"/>
<ellipse rx="0.990014" ry="0.991455" transform="matrix(-0.0174779 0.999847 -0.999848 -0.0174272 212.918 476.994)" fill="#FFC901"/>
<ellipse rx="0.990022" ry="0.991455" transform="matrix(-0.0174777 0.999847 -0.999848 -0.0174273 212.918 480.96)" fill="#FFC901"/>
<ellipse rx="0.990025" ry="0.991461" transform="matrix(-0.0174778 0.999847 -0.999848 -0.0174273 208.952 397.676)" fill="#FFC901"/>
<ellipse rx="0.990024" ry="0.991468" transform="matrix(-0.0174779 0.999847 -0.999848 -0.0174272 208.952 401.642)" fill="#FFC901"/>
<ellipse rx="0.99002" ry="0.991468" transform="matrix(-0.017478 0.999847 -0.999848 -0.0174271 208.952 405.607)" fill="#FFC901"/>
<ellipse rx="0.990029" ry="0.991461" transform="matrix(-0.0174777 0.999847 -0.999848 -0.0174274 208.952 409.573)" fill="#FFC901"/>
<ellipse rx="0.990024" ry="0.991468" transform="matrix(-0.0174779 0.999847 -0.999848 -0.0174272 208.952 413.539)" fill="#FFC901"/>
<ellipse rx="0.990029" ry="0.991468" transform="matrix(-0.0174778 0.999847 -0.999848 -0.0174272 208.952 417.505)" fill="#FFC901"/>
<ellipse rx="0.990031" ry="0.991468" transform="matrix(-0.0174778 0.999847 -0.999848 -0.0174273 208.952 421.471)" fill="#FFC901"/>
<ellipse rx="0.99002" ry="0.991461" transform="matrix(-0.0174779 0.999847 -0.999848 -0.0174272 208.952 425.437)" fill="#FFC901"/>
<ellipse rx="0.990024" ry="0.991461" transform="matrix(-0.0174778 0.999847 -0.999848 -0.0174273 208.952 429.403)" fill="#FFC901"/>
<ellipse rx="0.990033" ry="0.991461" transform="matrix(-0.0174776 0.999847 -0.999848 -0.0174274 208.952 433.369)" fill="#FFC901"/>
<ellipse rx="0.990029" ry="0.991461" transform="matrix(-0.0174777 0.999847 -0.999848 -0.0174274 208.952 437.334)" fill="#FFC901"/>
<ellipse rx="0.990037" ry="0.991461" transform="matrix(-0.0174776 0.999847 -0.999848 -0.0174275 208.952 441.301)" fill="#FFC901"/>
<ellipse rx="0.990007" ry="0.991461" transform="matrix(-0.0174781 0.999847 -0.999848 -0.017427 208.952 445.267)" fill="#FFC901"/>
<ellipse rx="0.990033" ry="0.991468" transform="matrix(-0.0174778 0.999847 -0.999848 -0.0174273 208.952 449.233)" fill="#FFC901"/>
<ellipse rx="0.990029" ry="0.991468" transform="matrix(-0.0174778 0.999847 -0.999848 -0.0174273 208.952 453.198)" fill="#FFC901"/>
<ellipse rx="0.990044" ry="0.991461" transform="matrix(-0.0174774 0.999847 -0.999848 -0.0174276 208.952 457.165)" fill="#FFC901"/>
<ellipse rx="0.990014" ry="0.991468" transform="matrix(-0.0174781 0.999847 -0.999848 -0.017427 208.952 461.13)" fill="#FFC901"/>
<ellipse rx="0.990044" ry="0.991461" transform="matrix(-0.0174774 0.999847 -0.999848 -0.0174276 208.952 465.096)" fill="#FFC901"/>
<ellipse rx="0.990025" ry="0.991468" transform="matrix(-0.0174779 0.999847 -0.999848 -0.0174272 208.952 469.062)" fill="#FFC901"/>
<ellipse rx="0.990018" ry="0.991461" transform="matrix(-0.0174779 0.999847 -0.999848 -0.0174272 208.952 473.028)" fill="#FFC901"/>
<ellipse rx="0.990018" ry="0.991468" transform="matrix(-0.017478 0.999847 -0.999848 -0.0174271 208.952 476.994)" fill="#FFC901"/>
<ellipse rx="0.990022" ry="0.991468" transform="matrix(-0.017478 0.999847 -0.999848 -0.0174271 208.952 480.96)" fill="#FFC901"/>
<ellipse rx="0.990024" ry="0.991446" transform="matrix(-0.0174775 0.999847 -0.999848 -0.0174275 204.986 397.676)" fill="#FFC901"/>
<ellipse rx="0.990024" ry="0.991446" transform="matrix(-0.0174775 0.999847 -0.999848 -0.0174275 204.986 401.642)" fill="#FFC901"/>
<ellipse rx="0.990018" ry="0.991446" transform="matrix(-0.0174776 0.999847 -0.999848 -0.0174274 204.986 405.607)" fill="#FFC901"/>
<ellipse rx="0.990025" ry="0.991449" transform="matrix(-0.0174776 0.999847 -0.999848 -0.0174275 204.986 409.573)" fill="#FFC901"/>
<ellipse rx="0.990027" ry="0.991449" transform="matrix(-0.0174775 0.999847 -0.999848 -0.0174275 204.986 413.539)" fill="#FFC901"/>
<ellipse rx="0.990029" ry="0.991446" transform="matrix(-0.0174774 0.999847 -0.999848 -0.0174276 204.986 417.505)" fill="#FFC901"/>
<ellipse rx="0.990031" ry="0.991446" transform="matrix(-0.0174774 0.999847 -0.999848 -0.0174277 204.986 421.471)" fill="#FFC901"/>
<ellipse rx="0.990018" ry="0.991446" transform="matrix(-0.0174776 0.999847 -0.999848 -0.0174274 204.986 425.437)" fill="#FFC901"/>
<ellipse rx="0.990016" ry="0.991446" transform="matrix(-0.0174777 0.999847 -0.999848 -0.0174274 204.986 429.403)" fill="#FFC901"/>
<ellipse rx="0.990033" ry="0.991446" transform="matrix(-0.0174774 0.999847 -0.999848 -0.0174277 204.986 433.369)" fill="#FFC901"/>
<ellipse rx="0.990029" ry="0.991446" transform="matrix(-0.0174774 0.999847 -0.999848 -0.0174276 204.986 437.334)" fill="#FFC901"/>
<ellipse rx="0.99004" ry="0.991446" transform="matrix(-0.0174772 0.999847 -0.999848 -0.0174278 204.986 441.301)" fill="#FFC901"/>
<ellipse rx="0.990018" ry="0.991446" transform="matrix(-0.0174776 0.999847 -0.999848 -0.0174274 204.986 445.267)" fill="#FFC901"/>
<ellipse rx="0.990029" ry="0.991446" transform="matrix(-0.0174774 0.999847 -0.999848 -0.0174276 204.986 449.233)" fill="#FFC901"/>
<ellipse rx="0.990025" ry="0.991449" transform="matrix(-0.0174776 0.999847 -0.999848 -0.0174275 204.986 453.199)" fill="#FFC901"/>
<ellipse rx="0.990044" ry="0.991446" transform="matrix(-0.0174772 0.999847 -0.999848 -0.0174279 204.986 457.165)" fill="#FFC901"/>
<ellipse rx="0.990014" ry="0.991449" transform="matrix(-0.0174778 0.999847 -0.999848 -0.0174273 204.986 461.13)" fill="#FFC901"/>
<ellipse rx="0.99004" ry="0.991446" transform="matrix(-0.0174772 0.999847 -0.999848 -0.0174278 204.986 465.096)" fill="#FFC901"/>
<ellipse rx="0.990025" ry="0.991449" transform="matrix(-0.0174776 0.999847 -0.999848 -0.0174275 204.986 469.062)" fill="#FFC901"/>
<ellipse rx="0.990018" ry="0.991457" transform="matrix(-0.0174778 0.999847 -0.999848 -0.0174272 204.986 473.028)" fill="#FFC901"/>
<ellipse rx="0.990014" ry="0.991449" transform="matrix(-0.0174778 0.999847 -0.999848 -0.0174273 204.986 476.994)" fill="#FFC901"/>
<ellipse rx="0.990029" ry="0.991449" transform="matrix(-0.0174775 0.999847 -0.999848 -0.0174276 204.986 480.96)" fill="#FFC901"/>
<ellipse rx="0.990027" ry="0.991453" transform="matrix(-0.0174776 0.999847 -0.999848 -0.0174275 201.02 397.676)" fill="#FFC901"/>
<ellipse rx="0.990021" ry="0.991468" transform="matrix(-0.017478 0.999847 -0.999848 -0.0174271 201.02 401.642)" fill="#FFC901"/>
<ellipse rx="0.99002" ry="0.991457" transform="matrix(-0.0174778 0.999847 -0.999848 -0.0174273 201.02 405.607)" fill="#FFC901"/>
<ellipse rx="0.990022" ry="0.991472" transform="matrix(-0.017478 0.999847 -0.999848 -0.0174271 201.02 409.573)" fill="#FFC901"/>
<ellipse rx="0.990024" ry="0.991453" transform="matrix(-0.0174777 0.999847 -0.999848 -0.0174274 201.02 413.539)" fill="#FFC901"/>
<ellipse rx="0.990029" ry="0.991457" transform="matrix(-0.0174776 0.999847 -0.999848 -0.0174275 201.02 417.505)" fill="#FFC901"/>
<ellipse rx="0.990027" ry="0.991453" transform="matrix(-0.0174776 0.999847 -0.999848 -0.0174275 201.02 421.471)" fill="#FFC901"/>
<ellipse rx="0.990029" ry="0.991453" transform="matrix(-0.0174776 0.999847 -0.999848 -0.0174275 201.02 425.437)" fill="#FFC901"/>
<ellipse rx="0.990018" ry="0.991453" transform="matrix(-0.0174778 0.999847 -0.999848 -0.0174273 201.02 429.403)" fill="#FFC901"/>
<ellipse rx="0.990033" ry="0.991468" transform="matrix(-0.0174778 0.999847 -0.999848 -0.0174273 201.02 433.369)" fill="#FFC901"/>
<ellipse rx="0.990022" ry="0.991472" transform="matrix(-0.017478 0.999847 -0.999848 -0.0174271 201.02 437.335)" fill="#FFC901"/>
<ellipse rx="0.99004" ry="0.991457" transform="matrix(-0.0174774 0.999847 -0.999848 -0.0174276 201.02 441.301)" fill="#FFC901"/>
<ellipse rx="0.99001" ry="0.991457" transform="matrix(-0.017478 0.999847 -0.999848 -0.0174271 201.02 445.267)" fill="#FFC901"/>
<ellipse rx="0.990029" ry="0.991453" transform="matrix(-0.0174776 0.999847 -0.999848 -0.0174275 201.02 449.233)" fill="#FFC901"/>
<ellipse rx="0.990025" ry="0.991453" transform="matrix(-0.0174776 0.999847 -0.999848 -0.0174275 201.02 453.199)" fill="#FFC901"/>
<ellipse rx="0.990044" ry="0.991453" transform="matrix(-0.0174773 0.999847 -0.999848 -0.0174278 201.02 457.165)" fill="#FFC901"/>
<ellipse rx="0.990022" ry="0.991453" transform="matrix(-0.0174777 0.999847 -0.999848 -0.0174274 201.02 461.13)" fill="#FFC901"/>
<ellipse rx="0.990044" ry="0.991472" transform="matrix(-0.0174776 0.999847 -0.999848 -0.0174274 201.02 465.096)" fill="#FFC901"/>
<ellipse rx="0.990025" ry="0.991457" transform="matrix(-0.0174777 0.999847 -0.999848 -0.0174274 201.02 469.062)" fill="#FFC901"/>
<ellipse rx="0.990022" ry="0.991453" transform="matrix(-0.0174777 0.999847 -0.999848 -0.0174274 201.02 473.028)" fill="#FFC901"/>
<ellipse rx="0.990018" ry="0.991457" transform="matrix(-0.0174778 0.999847 -0.999848 -0.0174273 201.02 476.994)" fill="#FFC901"/>
<ellipse rx="0.990014" ry="0.991457" transform="matrix(-0.0174779 0.999847 -0.999848 -0.0174272 201.02 480.96)" fill="#FFC901"/>
<ellipse rx="0.990024" ry="0.991442" transform="matrix(-0.0174775 0.999847 -0.999848 -0.0174276 197.055 397.676)" fill="#FFC901"/>
<ellipse rx="0.990021" ry="0.991449" transform="matrix(-0.0174777 0.999847 -0.999848 -0.0174274 197.055 401.642)" fill="#FFC901"/>
<ellipse rx="0.99002" ry="0.991449" transform="matrix(-0.0174777 0.999847 -0.999848 -0.0174274 197.055 405.607)" fill="#FFC901"/>
<ellipse rx="0.990025" ry="0.991453" transform="matrix(-0.0174776 0.999847 -0.999848 -0.0174274 197.055 409.573)" fill="#FFC901"/>
<ellipse rx="0.990022" ry="0.991449" transform="matrix(-0.0174776 0.999847 -0.999848 -0.0174274 197.055 413.539)" fill="#FFC901"/>
<ellipse rx="0.990025" ry="0.991453" transform="matrix(-0.0174776 0.999847 -0.999848 -0.0174274 197.055 417.505)" fill="#FFC901"/>
<ellipse rx="0.990029" ry="0.991449" transform="matrix(-0.0174775 0.999847 -0.999848 -0.0174276 197.055 421.471)" fill="#FFC901"/>
<ellipse rx="0.990024" ry="0.991453" transform="matrix(-0.0174777 0.999847 -0.999848 -0.0174274 197.055 425.437)" fill="#FFC901"/>
<ellipse rx="0.990022" ry="0.991442" transform="matrix(-0.0174775 0.999847 -0.999848 -0.0174276 197.055 429.403)" fill="#FFC901"/>
<ellipse rx="0.990029" ry="0.991449" transform="matrix(-0.0174775 0.999847 -0.999848 -0.0174276 197.055 433.369)" fill="#FFC901"/>
<ellipse rx="0.990022" ry="0.991449" transform="matrix(-0.0174776 0.999847 -0.999848 -0.0174274 197.055 437.335)" fill="#FFC901"/>
<ellipse rx="0.990037" ry="0.991453" transform="matrix(-0.0174774 0.999847 -0.999848 -0.0174276 197.055 441.301)" fill="#FFC901"/>
<ellipse rx="0.99001" ry="0.991449" transform="matrix(-0.0174778 0.999847 -0.999848 -0.0174272 197.055 445.267)" fill="#FFC901"/>
<ellipse rx="0.990033" ry="0.991449" transform="matrix(-0.0174774 0.999847 -0.999848 -0.0174276 197.055 449.233)" fill="#FFC901"/>
<ellipse rx="0.990025" ry="0.991449" transform="matrix(-0.0174776 0.999847 -0.999848 -0.0174275 197.055 453.198)" fill="#FFC901"/>
<ellipse rx="0.990044" ry="0.991442" transform="matrix(-0.0174771 0.999847 -0.999848 -0.017428 197.055 457.165)" fill="#FFC901"/>
<ellipse rx="0.990022" ry="0.991449" transform="matrix(-0.0174776 0.999847 -0.999848 -0.0174274 197.055 461.13)" fill="#FFC901"/>
<ellipse rx="0.990044" ry="0.991453" transform="matrix(-0.0174773 0.999847 -0.999848 -0.0174278 197.055 465.096)" fill="#FFC901"/>
<ellipse rx="0.990025" ry="0.991449" transform="matrix(-0.0174776 0.999847 -0.999848 -0.0174275 197.055 469.062)" fill="#FFC901"/>
<ellipse rx="0.990018" ry="0.991453" transform="matrix(-0.0174778 0.999847 -0.999848 -0.0174273 197.055 473.028)" fill="#FFC901"/>
<ellipse rx="0.990018" ry="0.991449" transform="matrix(-0.0174777 0.999847 -0.999848 -0.0174274 197.055 476.994)" fill="#FFC901"/>
<ellipse rx="0.990022" ry="0.991438" transform="matrix(-0.0174774 0.999847 -0.999848 -0.0174276 197.055 480.96)" fill="#FFC901"/>
<ellipse rx="0.990026" ry="0.991442" transform="matrix(-0.0174774 0.999847 -0.999848 -0.0174277 193.089 397.676)" fill="#FFC901"/>
<ellipse rx="0.990023" ry="0.991442" transform="matrix(-0.0174775 0.999847 -0.999848 -0.0174276 193.089 401.642)" fill="#FFC901"/>
<ellipse rx="0.990022" ry="0.991442" transform="matrix(-0.0174775 0.999847 -0.999848 -0.0174276 193.089 405.608)" fill="#FFC901"/>
<ellipse rx="0.990024" ry="0.991457" transform="matrix(-0.0174777 0.999847 -0.999848 -0.0174273 193.089 409.573)" fill="#FFC901"/>
<ellipse rx="0.990029" ry="0.991453" transform="matrix(-0.0174776 0.999847 -0.999848 -0.0174275 193.089 413.539)" fill="#FFC901"/>
<ellipse rx="0.990022" ry="0.991438" transform="matrix(-0.0174774 0.999847 -0.999848 -0.0174276 193.089 417.505)" fill="#FFC901"/>
<ellipse rx="0.990027" ry="0.991457" transform="matrix(-0.0174777 0.999847 -0.999848 -0.0174274 193.089 421.471)" fill="#FFC901"/>
<ellipse rx="0.990027" ry="0.991438" transform="matrix(-0.0174773 0.999847 -0.999848 -0.0174277 193.089 425.437)" fill="#FFC901"/>
<ellipse rx="0.99002" ry="0.991438" transform="matrix(-0.0174775 0.999847 -0.999848 -0.0174276 193.089 429.403)" fill="#FFC901"/>
<ellipse rx="0.990033" ry="0.991438" transform="matrix(-0.0174772 0.999847 -0.999848 -0.0174278 193.089 433.369)" fill="#FFC901"/>
<ellipse rx="0.990029" ry="0.991442" transform="matrix(-0.0174774 0.999847 -0.999848 -0.0174277 193.089 437.335)" fill="#FFC901"/>
<ellipse rx="0.990033" ry="0.991442" transform="matrix(-0.0174773 0.999847 -0.999848 -0.0174278 193.089 441.301)" fill="#FFC901"/>
<ellipse rx="0.99001" ry="0.991457" transform="matrix(-0.017478 0.999847 -0.999848 -0.0174271 193.089 445.267)" fill="#FFC901"/>
<ellipse rx="0.990033" ry="0.991442" transform="matrix(-0.0174773 0.999847 -0.999848 -0.0174278 193.089 449.233)" fill="#FFC901"/>
<ellipse rx="0.990025" ry="0.991442" transform="matrix(-0.0174774 0.999847 -0.999848 -0.0174277 193.089 453.199)" fill="#FFC901"/>
<ellipse rx="0.990044" ry="0.991442" transform="matrix(-0.0174771 0.999847 -0.999848 -0.017428 193.089 457.165)" fill="#FFC901"/>
<ellipse rx="0.990022" ry="0.991442" transform="matrix(-0.0174775 0.999847 -0.999848 -0.0174276 193.089 461.13)" fill="#FFC901"/>
<ellipse rx="0.990044" ry="0.991442" transform="matrix(-0.0174771 0.999847 -0.999848 -0.017428 193.089 465.096)" fill="#FFC901"/>
<ellipse rx="0.990022" ry="0.991457" transform="matrix(-0.0174778 0.999847 -0.999848 -0.0174273 193.089 469.062)" fill="#FFC901"/>
<ellipse rx="0.990014" ry="0.991442" transform="matrix(-0.0174776 0.999847 -0.999848 -0.0174274 193.089 473.028)" fill="#FFC901"/>
<ellipse rx="0.990014" ry="0.991457" transform="matrix(-0.0174779 0.999847 -0.999848 -0.0174272 193.089 476.994)" fill="#FFC901"/>
<ellipse rx="0.990022" ry="0.991442" transform="matrix(-0.0174775 0.999847 -0.999848 -0.0174276 193.089 480.96)" fill="#FFC901"/>
<ellipse rx="0.990028" ry="0.991446" transform="matrix(-0.0174775 0.999847 -0.999848 -0.0174276 189.123 397.676)" fill="#FFC901"/>
<ellipse rx="0.990023" ry="0.991446" transform="matrix(-0.0174776 0.999847 -0.999848 -0.0174275 189.123 401.642)" fill="#FFC901"/>
<ellipse rx="0.990016" ry="0.991457" transform="matrix(-0.0174779 0.999847 -0.999848 -0.0174272 189.123 405.607)" fill="#FFC901"/>
<ellipse rx="0.990025" ry="0.991446" transform="matrix(-0.0174775 0.999847 -0.999848 -0.0174276 189.123 409.573)" fill="#FFC901"/>
<ellipse rx="0.990024" ry="0.991457" transform="matrix(-0.0174777 0.999847 -0.999848 -0.0174274 189.123 413.539)" fill="#FFC901"/>
<ellipse rx="0.990022" ry="0.991453" transform="matrix(-0.0174777 0.999847 -0.999848 -0.0174274 189.123 417.505)" fill="#FFC901"/>
<ellipse rx="0.990027" ry="0.991453" transform="matrix(-0.0174776 0.999847 -0.999848 -0.0174275 189.123 421.471)" fill="#FFC901"/>
<ellipse rx="0.990025" ry="0.991438" transform="matrix(-0.0174774 0.999847 -0.999848 -0.0174277 189.123 425.437)" fill="#FFC901"/>
<ellipse rx="0.990014" ry="0.991446" transform="matrix(-0.0174777 0.999847 -0.999848 -0.0174274 189.123 429.403)" fill="#FFC901"/>
<ellipse rx="0.990029" ry="0.991446" transform="matrix(-0.0174774 0.999847 -0.999848 -0.0174276 189.123 433.369)" fill="#FFC901"/>
<ellipse rx="0.990022" ry="0.991446" transform="matrix(-0.0174776 0.999847 -0.999848 -0.0174275 189.123 437.335)" fill="#FFC901"/>
<ellipse rx="0.990025" ry="0.991438" transform="matrix(-0.0174774 0.999847 -0.999848 -0.0174277 189.123 441.3)" fill="#FFC901"/>
<ellipse rx="0.990014" ry="0.991446" transform="matrix(-0.0174777 0.999847 -0.999848 -0.0174274 189.123 445.267)" fill="#FFC901"/>
<ellipse rx="0.990033" ry="0.991449" transform="matrix(-0.0174774 0.999847 -0.999848 -0.0174277 189.123 449.233)" fill="#FFC901"/>
<ellipse rx="0.990025" ry="0.991449" transform="matrix(-0.0174776 0.999847 -0.999848 -0.0174275 189.123 453.199)" fill="#FFC901"/>
<ellipse rx="0.990044" ry="0.991438" transform="matrix(-0.017477 0.999847 -0.999848 -0.017428 189.123 457.165)" fill="#FFC901"/>
<ellipse rx="0.990022" ry="0.991449" transform="matrix(-0.0174776 0.999847 -0.999848 -0.0174274 189.123 461.13)" fill="#FFC901"/>
<ellipse rx="0.99004" ry="0.991446" transform="matrix(-0.0174772 0.999847 -0.999848 -0.0174278 189.123 465.096)" fill="#FFC901"/>
<ellipse rx="0.990022" ry="0.991442" transform="matrix(-0.0174775 0.999847 -0.999848 -0.0174276 189.123 469.062)" fill="#FFC901"/>
<ellipse rx="0.990018" ry="0.991438" transform="matrix(-0.0174775 0.999847 -0.999848 -0.0174276 189.123 473.028)" fill="#FFC901"/>
<ellipse rx="0.990014" ry="0.991449" transform="matrix(-0.0174778 0.999847 -0.999848 -0.0174273 189.123 476.994)" fill="#FFC901"/>
<ellipse rx="0.990029" ry="0.991435" transform="matrix(-0.0174772 0.999847 -0.999848 -0.0174278 189.123 480.96)" fill="#FFC901"/>
</g>
<path d="M275.045 520.694L228.233 366.632L349.96 439.505L275.045 520.694Z" fill="#FAAD14"/>
</g>
</svg>
