<svg width="412" height="90" viewBox="0 0 412 90" fill="none" xmlns="http://www.w3.org/2000/svg">
<rect width="13.1164" height="62.1465" transform="matrix(-0.707107 0.707107 0.707107 0.707107 78.2747 18.8364)" fill="#13C2C2"/>
<rect x="122.332" y="26.0347" width="15.6645" height="15.6645" transform="rotate(135 122.332 26.0347)" fill="#13C2C2"/>
<path fill-rule="evenodd" clip-rule="evenodd" d="M74.4139 63.3523C74.3407 63.4293 74.267 63.5061 74.193 63.5826C60.8301 77.389 38.805 77.7485 24.9986 64.3856C11.1923 51.0227 10.8328 28.9976 24.1957 15.1913C24.6157 14.7573 25.0444 14.3365 25.481 13.9291L24.4505 14.9938L35.414 25.6051C35.3389 25.6802 35.2643 25.756 35.1902 25.8326C27.7043 33.5669 27.9057 45.9052 35.64 53.3911C43.3743 60.877 55.7126 60.6756 63.1985 52.9413C63.2726 52.8647 63.346 52.7876 63.4186 52.7102L74.4139 63.3523Z" fill="#10239E"/>
<rect x="345.944" y="19.6919" width="13.1164" height="62.1465" transform="rotate(45 345.944 19.6919)" fill="#FFBB96"/>
<path fill-rule="evenodd" clip-rule="evenodd" d="M336.898 64.4553C336.971 64.5323 337.045 64.6091 337.119 64.6856C350.482 78.492 372.507 78.8515 386.313 65.4886C400.12 52.1257 400.479 30.1007 387.116 16.2943C386.696 15.8603 386.268 15.4396 385.831 15.0321L386.862 16.0968L375.898 26.7081C375.973 26.7832 376.048 26.859 376.122 26.9356C383.608 34.6699 383.406 47.0083 375.672 54.4941C367.938 61.98 355.6 61.7786 348.114 54.0443C348.04 53.9677 347.966 53.8907 347.894 53.8132L336.898 64.4553Z" fill="#FA541C"/>
<path fill-rule="evenodd" clip-rule="evenodd" d="M147 25.0967L147 25.097L155.86 33.9575L169.237 20.5813L169.932 21.2762L156.555 34.6524L160.898 38.9955L174.276 25.6178L174.971 26.3127L161.593 39.6904L165.937 44.0336L179.315 30.6553L180.01 31.3503L166.631 44.7285L195.993 74.0901L195.993 74.0898C209.522 60.5608 209.522 38.6258 195.993 25.0967C182.464 11.5676 160.529 11.5676 147 25.0967Z" fill="#FB5315"/>
<circle r="34.2182" transform="matrix(1 0 0 -1 259.218 43.2295)" fill="#D6E4FF"/>
<circle r="17.4513" transform="matrix(1 0 0 -1 259.218 43.2299)" fill="#10239E"/>
</svg>
