<svg width="308" height="201" viewBox="0 0 308 201" fill="none" xmlns="http://www.w3.org/2000/svg">
<g opacity="0.8">
<rect width="14.3449" height="14.3449" transform="matrix(0.707107 -0.707106 0.707107 0.707106 0.580566 68.0427)" fill="#13C2C2"/>
<path d="M248.351 195.158C248.351 142.849 205.946 100.444 153.637 100.444C101.328 100.444 58.9226 142.849 58.9226 195.158C58.9226 247.467 101.328 289.872 153.637 289.872C205.946 289.872 248.351 247.467 248.351 195.158Z" stroke="#D6E4FF" stroke-width="100"/>
<path d="M207.721 195.214C207.721 165.313 183.482 141.073 153.581 141.073C123.68 141.073 99.4405 165.313 99.4405 195.214C99.4405 225.115 123.68 249.354 153.581 249.354C183.482 249.354 207.721 225.115 207.721 195.214Z" stroke="#85A5FF" stroke-width="100"/>
<path d="M218.929 195.158C218.929 159.098 189.697 129.866 153.637 129.866C117.577 129.866 88.3451 159.098 88.3451 195.158C88.3451 231.218 117.577 260.45 153.637 260.45C189.697 260.45 218.929 231.218 218.929 195.158Z" fill="#10239E"/>
<mask id="mask0" mask-type="alpha" maskUnits="userSpaceOnUse" x="245" y="0" width="52" height="52">
<circle r="25.5906" transform="matrix(1.45769e-07 -1 -1 1.04183e-07 271.408 25.6042)" fill="#FF0025"/>
</mask>
<g mask="url(#mask0)">
<ellipse rx="0.587841" ry="0.588692" transform="matrix(-0.0174776 -0.999847 -0.999848 0.0174273 295.959 50.766)" fill="#FFC901"/>
<ellipse rx="0.587846" ry="0.588692" transform="matrix(-0.0174774 -0.999847 -0.999848 0.0174274 295.959 48.4113)" fill="#FFC901"/>
<ellipse rx="0.587834" ry="0.588692" transform="matrix(-0.0174778 -0.999847 -0.999848 0.0174271 295.959 46.0565)" fill="#FFC901"/>
<ellipse rx="0.587844" ry="0.588692" transform="matrix(-0.0174775 -0.999847 -0.999848 0.0174274 295.959 43.7016)" fill="#FFC901"/>
<ellipse rx="0.587845" ry="0.588693" transform="matrix(-0.0174775 -0.999847 -0.999848 0.0174274 295.959 41.3466)" fill="#FFC901"/>
<ellipse rx="0.587846" ry="0.588692" transform="matrix(-0.0174774 -0.999847 -0.999848 0.0174274 295.959 38.9918)" fill="#FFC901"/>
<ellipse rx="0.587845" ry="0.588692" transform="matrix(-0.0174774 -0.999847 -0.999848 0.0174274 295.959 36.6371)" fill="#FFC901"/>
<ellipse rx="0.587843" ry="0.588692" transform="matrix(-0.0174775 -0.999847 -0.999848 0.0174274 295.959 34.2821)" fill="#FFC901"/>
<ellipse rx="0.587842" ry="0.588692" transform="matrix(-0.0174776 -0.999847 -0.999848 0.0174273 295.959 31.9276)" fill="#FFC901"/>
<ellipse rx="0.587847" ry="0.588692" transform="matrix(-0.0174774 -0.999847 -0.999848 0.0174275 295.959 29.5726)" fill="#FFC901"/>
<ellipse rx="0.587843" ry="0.588692" transform="matrix(-0.0174775 -0.999847 -0.999848 0.0174274 295.959 27.2179)" fill="#FFC901"/>
<ellipse rx="0.587843" ry="0.588692" transform="matrix(-0.0174775 -0.999847 -0.999848 0.0174273 295.959 24.8632)" fill="#FFC901"/>
<ellipse rx="0.58784" ry="0.588692" transform="matrix(-0.0174776 -0.999847 -0.999848 0.0174272 295.959 22.5082)" fill="#FFC901"/>
<ellipse rx="0.587845" ry="0.588692" transform="matrix(-0.0174774 -0.999847 -0.999848 0.0174274 295.959 20.1532)" fill="#FFC901"/>
<ellipse rx="0.587827" ry="0.588692" transform="matrix(-0.017478 -0.999847 -0.999848 0.0174269 295.959 17.7985)" fill="#FFC901"/>
<ellipse rx="0.587845" ry="0.588692" transform="matrix(-0.0174774 -0.999847 -0.999848 0.0174274 295.959 15.4435)" fill="#FFC901"/>
<ellipse rx="0.587849" ry="0.588692" transform="matrix(-0.0174773 -0.999847 -0.999848 0.0174275 295.959 13.0892)" fill="#FFC901"/>
<ellipse rx="0.587862" ry="0.588692" transform="matrix(-0.017477 -0.999847 -0.999848 0.0174279 295.959 10.734)" fill="#FFC901"/>
<ellipse rx="0.587849" ry="0.588692" transform="matrix(-0.0174773 -0.999847 -0.999848 0.0174275 295.959 8.37904)" fill="#FFC901"/>
<ellipse rx="0.587843" ry="0.588692" transform="matrix(-0.0174775 -0.999847 -0.999848 0.0174274 295.959 6.02456)" fill="#FFC901"/>
<ellipse rx="0.587836" ry="0.588692" transform="matrix(-0.0174777 -0.999847 -0.999848 0.0174271 295.959 3.66958)" fill="#FFC901"/>
<ellipse rx="0.587838" ry="0.588692" transform="matrix(-0.0174777 -0.999847 -0.999848 0.0174272 295.959 1.3146)" fill="#FFC901"/>
<ellipse rx="0.587842" ry="0.588689" transform="matrix(-0.0174775 -0.999847 -0.999848 0.0174274 293.604 50.766)" fill="#FFC901"/>
<ellipse rx="0.587845" ry="0.58869" transform="matrix(-0.0174774 -0.999847 -0.999848 0.0174275 293.604 48.411)" fill="#FFC901"/>
<ellipse rx="0.587838" ry="0.588691" transform="matrix(-0.0174776 -0.999847 -0.999848 0.0174272 293.604 46.0563)" fill="#FFC901"/>
<ellipse rx="0.587847" ry="0.588691" transform="matrix(-0.0174774 -0.999847 -0.999848 0.0174275 293.604 43.7016)" fill="#FFC901"/>
<ellipse rx="0.587843" ry="0.58869" transform="matrix(-0.0174775 -0.999847 -0.999848 0.0174274 293.604 41.3466)" fill="#FFC901"/>
<ellipse rx="0.587843" ry="0.588691" transform="matrix(-0.0174775 -0.999847 -0.999848 0.0174274 293.604 38.9918)" fill="#FFC901"/>
<ellipse rx="0.587848" ry="0.58869" transform="matrix(-0.0174773 -0.999847 -0.999848 0.0174276 293.604 36.6371)" fill="#FFC901"/>
<ellipse rx="0.587842" ry="0.588689" transform="matrix(-0.0174775 -0.999847 -0.999848 0.0174274 293.604 34.2821)" fill="#FFC901"/>
<ellipse rx="0.587842" ry="0.588691" transform="matrix(-0.0174775 -0.999847 -0.999848 0.0174273 293.604 31.9276)" fill="#FFC901"/>
<ellipse rx="0.587843" ry="0.588689" transform="matrix(-0.0174774 -0.999847 -0.999848 0.0174274 293.604 29.5727)" fill="#FFC901"/>
<ellipse rx="0.587843" ry="0.58869" transform="matrix(-0.0174775 -0.999847 -0.999848 0.0174274 293.604 27.2179)" fill="#FFC901"/>
<ellipse rx="0.587851" ry="0.588692" transform="matrix(-0.0174773 -0.999847 -0.999848 0.0174276 293.604 24.8632)" fill="#FFC901"/>
<ellipse rx="0.58784" ry="0.588691" transform="matrix(-0.0174776 -0.999847 -0.999848 0.0174273 293.604 22.5082)" fill="#FFC901"/>
<ellipse rx="0.587845" ry="0.588691" transform="matrix(-0.0174774 -0.999847 -0.999848 0.0174274 293.604 20.1532)" fill="#FFC901"/>
<ellipse rx="0.587834" ry="0.588691" transform="matrix(-0.0174777 -0.999847 -0.999848 0.0174271 293.604 17.7985)" fill="#FFC901"/>
<ellipse rx="0.587845" ry="0.588691" transform="matrix(-0.0174774 -0.999847 -0.999848 0.0174275 293.604 15.4435)" fill="#FFC901"/>
<ellipse rx="0.587849" ry="0.58869" transform="matrix(-0.0174773 -0.999847 -0.999848 0.0174276 293.604 13.089)" fill="#FFC901"/>
<ellipse rx="0.587851" ry="0.58869" transform="matrix(-0.0174772 -0.999847 -0.999848 0.0174276 293.604 10.734)" fill="#FFC901"/>
<ellipse rx="0.587843" ry="0.588691" transform="matrix(-0.0174775 -0.999847 -0.999848 0.0174274 293.604 8.37905)" fill="#FFC901"/>
<ellipse rx="0.587843" ry="0.588691" transform="matrix(-0.0174775 -0.999847 -0.999848 0.0174274 293.604 6.02456)" fill="#FFC901"/>
<ellipse rx="0.58784" ry="0.588692" transform="matrix(-0.0174776 -0.999847 -0.999848 0.0174272 293.604 3.66958)" fill="#FFC901"/>
<ellipse rx="0.587842" ry="0.588691" transform="matrix(-0.0174775 -0.999847 -0.999848 0.0174273 293.604 1.3146)" fill="#FFC901"/>
<ellipse rx="0.587846" ry="0.588691" transform="matrix(-0.0174774 -0.999847 -0.999848 0.0174275 291.249 50.7663)" fill="#FFC901"/>
<ellipse rx="0.587843" ry="0.588692" transform="matrix(-0.0174775 -0.999847 -0.999848 0.0174273 291.249 48.4113)" fill="#FFC901"/>
<ellipse rx="0.587843" ry="0.588692" transform="matrix(-0.0174775 -0.999847 -0.999848 0.0174274 291.249 46.0565)" fill="#FFC901"/>
<ellipse rx="0.587847" ry="0.588691" transform="matrix(-0.0174774 -0.999847 -0.999848 0.0174275 291.249 43.7018)" fill="#FFC901"/>
<ellipse rx="0.587843" ry="0.588693" transform="matrix(-0.0174776 -0.999847 -0.999848 0.0174273 291.249 41.3466)" fill="#FFC901"/>
<ellipse rx="0.587842" ry="0.588692" transform="matrix(-0.0174776 -0.999847 -0.999848 0.0174273 291.249 38.9918)" fill="#FFC901"/>
<ellipse rx="0.587843" ry="0.588693" transform="matrix(-0.0174776 -0.999847 -0.999848 0.0174273 291.249 36.6371)" fill="#FFC901"/>
<ellipse rx="0.587847" ry="0.588691" transform="matrix(-0.0174774 -0.999847 -0.999848 0.0174275 291.249 34.2821)" fill="#FFC901"/>
<ellipse rx="0.587842" ry="0.588693" transform="matrix(-0.0174776 -0.999847 -0.999848 0.0174273 291.249 31.9276)" fill="#FFC901"/>
<ellipse rx="0.587847" ry="0.588692" transform="matrix(-0.0174774 -0.999847 -0.999848 0.0174275 291.249 29.5726)" fill="#FFC901"/>
<ellipse rx="0.587843" ry="0.588692" transform="matrix(-0.0174775 -0.999847 -0.999848 0.0174273 291.249 27.2179)" fill="#FFC901"/>
<ellipse rx="0.587857" ry="0.588692" transform="matrix(-0.0174771 -0.999847 -0.999848 0.0174278 291.249 24.8632)" fill="#FFC901"/>
<ellipse rx="0.58783" ry="0.588692" transform="matrix(-0.0174779 -0.999847 -0.999848 0.017427 291.249 22.5082)" fill="#FFC901"/>
<ellipse rx="0.587847" ry="0.588692" transform="matrix(-0.0174774 -0.999847 -0.999848 0.0174275 291.249 20.1532)" fill="#FFC901"/>
<ellipse rx="0.58784" ry="0.588691" transform="matrix(-0.0174776 -0.999847 -0.999848 0.0174273 291.249 17.7985)" fill="#FFC901"/>
<ellipse rx="0.587851" ry="0.588692" transform="matrix(-0.0174773 -0.999847 -0.999848 0.0174276 291.249 15.4435)" fill="#FFC901"/>
<ellipse rx="0.587849" ry="0.588691" transform="matrix(-0.0174773 -0.999847 -0.999848 0.0174275 291.249 13.0892)" fill="#FFC901"/>
<ellipse rx="0.587851" ry="0.588692" transform="matrix(-0.0174773 -0.999847 -0.999848 0.0174276 291.249 10.734)" fill="#FFC901"/>
<ellipse rx="0.587842" ry="0.588693" transform="matrix(-0.0174776 -0.999847 -0.999848 0.0174273 291.249 8.37905)" fill="#FFC901"/>
<ellipse rx="0.587845" ry="0.588693" transform="matrix(-0.0174775 -0.999847 -0.999848 0.0174274 291.249 6.02455)" fill="#FFC901"/>
<ellipse rx="0.587843" ry="0.588693" transform="matrix(-0.0174775 -0.999847 -0.999848 0.0174273 291.249 3.66958)" fill="#FFC901"/>
<ellipse rx="0.587842" ry="0.588693" transform="matrix(-0.0174776 -0.999847 -0.999848 0.0174273 291.249 1.31435)" fill="#FFC901"/>
<ellipse rx="0.587845" ry="0.588693" transform="matrix(-0.0174775 -0.999847 -0.999848 0.0174274 288.895 50.766)" fill="#FFC901"/>
<ellipse rx="0.587846" ry="0.588694" transform="matrix(-0.0174775 -0.999847 -0.999848 0.0174274 288.894 48.4113)" fill="#FFC901"/>
<ellipse rx="0.587844" ry="0.588693" transform="matrix(-0.0174775 -0.999847 -0.999848 0.0174273 288.894 46.0563)" fill="#FFC901"/>
<ellipse rx="0.587846" ry="0.588692" transform="matrix(-0.0174774 -0.999847 -0.999848 0.0174274 288.895 43.7016)" fill="#FFC901"/>
<ellipse rx="0.587843" ry="0.588694" transform="matrix(-0.0174776 -0.999847 -0.999848 0.0174273 288.894 41.3466)" fill="#FFC901"/>
<ellipse rx="0.587841" ry="0.588694" transform="matrix(-0.0174776 -0.999847 -0.999848 0.0174272 288.894 38.9918)" fill="#FFC901"/>
<ellipse rx="0.587843" ry="0.588692" transform="matrix(-0.0174775 -0.999847 -0.999848 0.0174273 288.895 36.6371)" fill="#FFC901"/>
<ellipse rx="0.587843" ry="0.588692" transform="matrix(-0.0174775 -0.999847 -0.999848 0.0174273 288.894 34.2821)" fill="#FFC901"/>
<ellipse rx="0.58784" ry="0.588692" transform="matrix(-0.0174776 -0.999847 -0.999848 0.0174272 288.894 31.9276)" fill="#FFC901"/>
<ellipse rx="0.587849" ry="0.588692" transform="matrix(-0.0174773 -0.999847 -0.999848 0.0174275 288.894 29.5726)" fill="#FFC901"/>
<ellipse rx="0.587849" ry="0.588691" transform="matrix(-0.0174773 -0.999847 -0.999848 0.0174275 288.895 27.2179)" fill="#FFC901"/>
<ellipse rx="0.587858" ry="0.588691" transform="matrix(-0.017477 -0.999847 -0.999848 0.0174278 288.895 24.8632)" fill="#FFC901"/>
<ellipse rx="0.58783" ry="0.588692" transform="matrix(-0.0174779 -0.999847 -0.999848 0.017427 288.895 22.5082)" fill="#FFC901"/>
<ellipse rx="0.587847" ry="0.588692" transform="matrix(-0.0174774 -0.999847 -0.999848 0.0174275 288.894 20.1532)" fill="#FFC901"/>
<ellipse rx="0.587847" ry="0.588689" transform="matrix(-0.0174773 -0.999847 -0.999848 0.0174276 288.894 17.7985)" fill="#FFC901"/>
<ellipse rx="0.587851" ry="0.588693" transform="matrix(-0.0174773 -0.999847 -0.999848 0.0174276 288.895 15.4435)" fill="#FFC901"/>
<ellipse rx="0.58784" ry="0.588691" transform="matrix(-0.0174776 -0.999847 -0.999848 0.0174273 288.895 13.0893)" fill="#FFC901"/>
<ellipse rx="0.587851" ry="0.588693" transform="matrix(-0.0174773 -0.999847 -0.999848 0.0174275 288.895 10.734)" fill="#FFC901"/>
<ellipse rx="0.587843" ry="0.588694" transform="matrix(-0.0174776 -0.999847 -0.999848 0.0174273 288.894 8.37905)" fill="#FFC901"/>
<ellipse rx="0.587843" ry="0.58869" transform="matrix(-0.0174775 -0.999847 -0.999848 0.0174274 288.895 6.02456)" fill="#FFC901"/>
<ellipse rx="0.587836" ry="0.58869" transform="matrix(-0.0174777 -0.999847 -0.999848 0.0174272 288.895 3.66958)" fill="#FFC901"/>
<ellipse rx="0.587842" ry="0.588693" transform="matrix(-0.0174776 -0.999847 -0.999848 0.0174273 288.895 1.3146)" fill="#FFC901"/>
<ellipse rx="0.587843" ry="0.588692" transform="matrix(-0.0174775 -0.999847 -0.999848 0.0174273 286.54 50.766)" fill="#FFC901"/>
<ellipse rx="0.587845" ry="0.588694" transform="matrix(-0.0174775 -0.999847 -0.999848 0.0174274 286.54 48.4113)" fill="#FFC901"/>
<ellipse rx="0.587841" ry="0.588691" transform="matrix(-0.0174776 -0.999847 -0.999848 0.0174273 286.54 46.0563)" fill="#FFC901"/>
<ellipse rx="0.58784" ry="0.588694" transform="matrix(-0.0174777 -0.999847 -0.999848 0.0174272 286.54 43.7018)" fill="#FFC901"/>
<ellipse rx="0.587845" ry="0.588693" transform="matrix(-0.0174775 -0.999847 -0.999848 0.0174274 286.54 41.3466)" fill="#FFC901"/>
<ellipse rx="0.587842" ry="0.58869" transform="matrix(-0.0174775 -0.999847 -0.999848 0.0174274 286.54 38.9918)" fill="#FFC901"/>
<ellipse rx="0.587843" ry="0.58869" transform="matrix(-0.0174775 -0.999847 -0.999848 0.0174274 286.54 36.6371)" fill="#FFC901"/>
<ellipse rx="0.587847" ry="0.58869" transform="matrix(-0.0174773 -0.999847 -0.999848 0.0174275 286.54 34.2824)" fill="#FFC901"/>
<ellipse rx="0.58784" ry="0.588689" transform="matrix(-0.0174775 -0.999847 -0.999848 0.0174273 286.54 31.9276)" fill="#FFC901"/>
<ellipse rx="0.587843" ry="0.58869" transform="matrix(-0.0174775 -0.999847 -0.999848 0.0174274 286.54 29.5727)" fill="#FFC901"/>
<ellipse rx="0.587849" ry="0.588693" transform="matrix(-0.0174774 -0.999847 -0.999848 0.0174275 286.54 27.2179)" fill="#FFC901"/>
<ellipse rx="0.587847" ry="0.588689" transform="matrix(-0.0174773 -0.999847 -0.999848 0.0174275 286.54 24.8632)" fill="#FFC901"/>
<ellipse rx="0.587838" ry="0.588693" transform="matrix(-0.0174777 -0.999847 -0.999848 0.0174272 286.54 22.5082)" fill="#FFC901"/>
<ellipse rx="0.587836" ry="0.588692" transform="matrix(-0.0174777 -0.999847 -0.999848 0.0174271 286.54 20.1532)" fill="#FFC901"/>
<ellipse rx="0.587834" ry="0.588691" transform="matrix(-0.0174778 -0.999847 -0.999848 0.0174271 286.54 17.7985)" fill="#FFC901"/>
<ellipse rx="0.587845" ry="0.588691" transform="matrix(-0.0174774 -0.999847 -0.999848 0.0174274 286.54 15.4435)" fill="#FFC901"/>
<ellipse rx="0.58784" ry="0.588691" transform="matrix(-0.0174776 -0.999847 -0.999848 0.0174273 286.54 13.089)" fill="#FFC901"/>
<ellipse rx="0.587853" ry="0.588691" transform="matrix(-0.0174772 -0.999847 -0.999848 0.0174277 286.54 10.734)" fill="#FFC901"/>
<ellipse rx="0.587843" ry="0.588693" transform="matrix(-0.0174775 -0.999847 -0.999848 0.0174273 286.54 8.37905)" fill="#FFC901"/>
<ellipse rx="0.587843" ry="0.588691" transform="matrix(-0.0174775 -0.999847 -0.999848 0.0174274 286.54 6.02456)" fill="#FFC901"/>
<ellipse rx="0.587836" ry="0.588693" transform="matrix(-0.0174778 -0.999847 -0.999848 0.0174271 286.54 3.66958)" fill="#FFC901"/>
<ellipse rx="0.587845" ry="0.588691" transform="matrix(-0.0174774 -0.999847 -0.999848 0.0174274 286.54 1.31435)" fill="#FFC901"/>
<ellipse rx="0.587844" ry="0.588693" transform="matrix(-0.0174775 -0.999847 -0.999848 0.0174274 284.185 50.7663)" fill="#FFC901"/>
<ellipse rx="0.587843" ry="0.588692" transform="matrix(-0.0174775 -0.999847 -0.999848 0.0174273 284.185 48.411)" fill="#FFC901"/>
<ellipse rx="0.587844" ry="0.588692" transform="matrix(-0.0174775 -0.999847 -0.999848 0.0174274 284.185 46.0565)" fill="#FFC901"/>
<ellipse rx="0.587847" ry="0.588693" transform="matrix(-0.0174774 -0.999847 -0.999848 0.0174274 284.185 43.7018)" fill="#FFC901"/>
<ellipse rx="0.587844" ry="0.588692" transform="matrix(-0.0174775 -0.999847 -0.999848 0.0174274 284.185 41.3466)" fill="#FFC901"/>
<ellipse rx="0.587845" ry="0.588692" transform="matrix(-0.0174775 -0.999847 -0.999848 0.0174274 284.185 38.9918)" fill="#FFC901"/>
<ellipse rx="0.587849" ry="0.588693" transform="matrix(-0.0174774 -0.999847 -0.999848 0.0174275 284.185 36.6371)" fill="#FFC901"/>
<ellipse rx="0.587847" ry="0.588692" transform="matrix(-0.0174774 -0.999847 -0.999848 0.0174275 284.185 34.2821)" fill="#FFC901"/>
<ellipse rx="0.58784" ry="0.58869" transform="matrix(-0.0174776 -0.999847 -0.999848 0.0174273 284.185 31.9276)" fill="#FFC901"/>
<ellipse rx="0.587843" ry="0.588691" transform="matrix(-0.0174775 -0.999847 -0.999848 0.0174274 284.185 29.5727)" fill="#FFC901"/>
<ellipse rx="0.587851" ry="0.588691" transform="matrix(-0.0174772 -0.999847 -0.999848 0.0174276 284.185 27.2179)" fill="#FFC901"/>
<ellipse rx="0.587851" ry="0.588691" transform="matrix(-0.0174772 -0.999847 -0.999848 0.0174276 284.185 24.8632)" fill="#FFC901"/>
<ellipse rx="0.587838" ry="0.588695" transform="matrix(-0.0174777 -0.999847 -0.999848 0.0174271 284.185 22.5082)" fill="#FFC901"/>
<ellipse rx="0.587857" ry="0.588689" transform="matrix(-0.017477 -0.999847 -0.999848 0.0174278 284.185 20.1532)" fill="#FFC901"/>
<ellipse rx="0.587851" ry="0.588695" transform="matrix(-0.0174774 -0.999847 -0.999848 0.0174275 284.185 17.7985)" fill="#FFC901"/>
<ellipse rx="0.587843" ry="0.58869" transform="matrix(-0.0174774 -0.999847 -0.999848 0.0174274 284.185 15.4437)" fill="#FFC901"/>
<ellipse rx="0.587842" ry="0.588691" transform="matrix(-0.0174775 -0.999847 -0.999848 0.0174273 284.185 13.089)" fill="#FFC901"/>
<ellipse rx="0.587849" ry="0.588689" transform="matrix(-0.0174773 -0.999847 -0.999848 0.0174276 284.185 10.734)" fill="#FFC901"/>
<ellipse rx="0.587842" ry="0.588693" transform="matrix(-0.0174776 -0.999847 -0.999848 0.0174273 284.185 8.37905)" fill="#FFC901"/>
<ellipse rx="0.587843" ry="0.588692" transform="matrix(-0.0174775 -0.999847 -0.999848 0.0174273 284.185 6.02456)" fill="#FFC901"/>
<ellipse rx="0.587836" ry="0.588691" transform="matrix(-0.0174777 -0.999847 -0.999848 0.0174272 284.185 3.66934)" fill="#FFC901"/>
<ellipse rx="0.587845" ry="0.588691" transform="matrix(-0.0174774 -0.999847 -0.999848 0.0174274 284.185 1.31459)" fill="#FFC901"/>
<ellipse rx="0.587844" ry="0.588693" transform="matrix(-0.0174775 -0.999847 -0.999848 0.0174273 281.83 50.7663)" fill="#FFC901"/>
<ellipse rx="0.587843" ry="0.588696" transform="matrix(-0.0174776 -0.999847 -0.999848 0.0174272 281.83 48.411)" fill="#FFC901"/>
<ellipse rx="0.587844" ry="0.588696" transform="matrix(-0.0174776 -0.999847 -0.999848 0.0174273 281.83 46.0565)" fill="#FFC901"/>
<ellipse rx="0.587845" ry="0.588691" transform="matrix(-0.0174774 -0.999847 -0.999848 0.0174274 281.83 43.7018)" fill="#FFC901"/>
<ellipse rx="0.587844" ry="0.588691" transform="matrix(-0.0174775 -0.999847 -0.999848 0.0174274 281.83 41.3466)" fill="#FFC901"/>
<ellipse rx="0.587845" ry="0.588693" transform="matrix(-0.0174775 -0.999847 -0.999848 0.0174274 281.83 38.9918)" fill="#FFC901"/>
<ellipse rx="0.587849" ry="0.588691" transform="matrix(-0.0174773 -0.999847 -0.999848 0.0174275 281.83 36.6371)" fill="#FFC901"/>
<ellipse rx="0.58784" ry="0.588691" transform="matrix(-0.0174776 -0.999847 -0.999848 0.0174273 281.83 34.2821)" fill="#FFC901"/>
<ellipse rx="0.58784" ry="0.58869" transform="matrix(-0.0174776 -0.999847 -0.999848 0.0174273 281.83 31.9276)" fill="#FFC901"/>
<ellipse rx="0.587847" ry="0.588694" transform="matrix(-0.0174775 -0.999847 -0.999848 0.0174274 281.83 29.5726)" fill="#FFC901"/>
<ellipse rx="0.587845" ry="0.588695" transform="matrix(-0.0174775 -0.999847 -0.999848 0.0174273 281.83 27.2179)" fill="#FFC901"/>
<ellipse rx="0.587851" ry="0.588694" transform="matrix(-0.0174773 -0.999847 -0.999848 0.0174275 281.83 24.8632)" fill="#FFC901"/>
<ellipse rx="0.58783" ry="0.588694" transform="matrix(-0.017478 -0.999847 -0.999848 0.0174269 281.83 22.5082)" fill="#FFC901"/>
<ellipse rx="0.587857" ry="0.58869" transform="matrix(-0.0174771 -0.999847 -0.999848 0.0174278 281.83 20.1532)" fill="#FFC901"/>
<ellipse rx="0.587847" ry="0.588691" transform="matrix(-0.0174774 -0.999847 -0.999848 0.0174275 281.83 17.7985)" fill="#FFC901"/>
<ellipse rx="0.587843" ry="0.588694" transform="matrix(-0.0174776 -0.999847 -0.999848 0.0174273 281.83 15.4437)" fill="#FFC901"/>
<ellipse rx="0.58784" ry="0.588687" transform="matrix(-0.0174775 -0.999847 -0.999848 0.0174274 281.83 13.089)" fill="#FFC901"/>
<ellipse rx="0.587849" ry="0.588693" transform="matrix(-0.0174774 -0.999847 -0.999848 0.0174275 281.83 10.734)" fill="#FFC901"/>
<ellipse rx="0.587853" ry="0.588693" transform="matrix(-0.0174773 -0.999847 -0.999848 0.0174276 281.83 8.37904)" fill="#FFC901"/>
<ellipse rx="0.587843" ry="0.588694" transform="matrix(-0.0174776 -0.999847 -0.999848 0.0174273 281.83 6.02456)" fill="#FFC901"/>
<ellipse rx="0.587836" ry="0.588695" transform="matrix(-0.0174778 -0.999847 -0.999848 0.017427 281.83 3.66934)" fill="#FFC901"/>
<ellipse rx="0.587842" ry="0.588688" transform="matrix(-0.0174774 -0.999847 -0.999848 0.0174274 281.83 1.31435)" fill="#FFC901"/>
<ellipse rx="0.587844" ry="0.588688" transform="matrix(-0.0174774 -0.999847 -0.999848 0.0174275 279.475 50.7663)" fill="#FFC901"/>
<ellipse rx="0.587843" ry="0.588692" transform="matrix(-0.0174775 -0.999847 -0.999848 0.0174273 279.475 48.4113)" fill="#FFC901"/>
<ellipse rx="0.587843" ry="0.588693" transform="matrix(-0.0174775 -0.999847 -0.999848 0.0174273 279.475 46.0563)" fill="#FFC901"/>
<ellipse rx="0.587844" ry="0.588688" transform="matrix(-0.0174773 -0.999847 -0.999848 0.0174275 279.475 43.7018)" fill="#FFC901"/>
<ellipse rx="0.587846" ry="0.588691" transform="matrix(-0.0174774 -0.999847 -0.999848 0.0174275 279.475 41.3466)" fill="#FFC901"/>
<ellipse rx="0.587849" ry="0.588693" transform="matrix(-0.0174774 -0.999847 -0.999848 0.0174275 279.475 38.9918)" fill="#FFC901"/>
<ellipse rx="0.587843" ry="0.588691" transform="matrix(-0.0174775 -0.999847 -0.999848 0.0174273 279.475 36.6374)" fill="#FFC901"/>
<ellipse rx="0.58784" ry="0.588693" transform="matrix(-0.0174777 -0.999847 -0.999848 0.0174272 279.475 34.2821)" fill="#FFC901"/>
<ellipse rx="0.58784" ry="0.588692" transform="matrix(-0.0174776 -0.999847 -0.999848 0.0174272 279.475 31.9276)" fill="#FFC901"/>
<ellipse rx="0.587843" ry="0.588693" transform="matrix(-0.0174775 -0.999847 -0.999848 0.0174273 279.475 29.5727)" fill="#FFC901"/>
<ellipse rx="0.587845" ry="0.588688" transform="matrix(-0.0174773 -0.999847 -0.999848 0.0174275 279.475 27.2179)" fill="#FFC901"/>
<ellipse rx="0.587849" ry="0.588687" transform="matrix(-0.0174772 -0.999847 -0.999848 0.0174277 279.475 24.8632)" fill="#FFC901"/>
<ellipse rx="0.58783" ry="0.588688" transform="matrix(-0.0174778 -0.999847 -0.999848 0.0174271 279.475 22.5082)" fill="#FFC901"/>
<ellipse rx="0.587845" ry="0.588696" transform="matrix(-0.0174776 -0.999847 -0.999848 0.0174273 279.475 20.1532)" fill="#FFC901"/>
<ellipse rx="0.587832" ry="0.588693" transform="matrix(-0.0174779 -0.999847 -0.999848 0.017427 279.475 17.7985)" fill="#FFC901"/>
<ellipse rx="0.587842" ry="0.58869" transform="matrix(-0.0174775 -0.999847 -0.999848 0.0174274 279.475 15.4435)" fill="#FFC901"/>
<ellipse rx="0.587851" ry="0.588697" transform="matrix(-0.0174774 -0.999847 -0.999848 0.0174274 279.475 13.089)" fill="#FFC901"/>
<ellipse rx="0.587849" ry="0.588693" transform="matrix(-0.0174774 -0.999847 -0.999848 0.0174275 279.475 10.734)" fill="#FFC901"/>
<ellipse rx="0.587843" ry="0.588695" transform="matrix(-0.0174776 -0.999847 -0.999848 0.0174273 279.475 8.37905)" fill="#FFC901"/>
<ellipse rx="0.587843" ry="0.588691" transform="matrix(-0.0174775 -0.999847 -0.999848 0.0174274 279.475 6.0248)" fill="#FFC901"/>
<ellipse rx="0.587836" ry="0.588691" transform="matrix(-0.0174777 -0.999847 -0.999848 0.0174272 279.475 3.66958)" fill="#FFC901"/>
<ellipse rx="0.587838" ry="0.588692" transform="matrix(-0.0174777 -0.999847 -0.999848 0.0174272 279.475 1.31485)" fill="#FFC901"/>
<ellipse rx="0.587844" ry="0.588701" transform="matrix(-0.0174777 -0.999847 -0.999848 0.0174271 277.121 50.7663)" fill="#FFC901"/>
<ellipse rx="0.587843" ry="0.588698" transform="matrix(-0.0174777 -0.999847 -0.999848 0.0174272 277.121 48.4113)" fill="#FFC901"/>
<ellipse rx="0.58784" ry="0.588692" transform="matrix(-0.0174776 -0.999847 -0.999848 0.0174272 277.121 46.0563)" fill="#FFC901"/>
<ellipse rx="0.587845" ry="0.588696" transform="matrix(-0.0174776 -0.999847 -0.999848 0.0174273 277.121 43.7018)" fill="#FFC901"/>
<ellipse rx="0.587835" ry="0.588693" transform="matrix(-0.0174778 -0.999847 -0.999848 0.0174271 277.121 41.3466)" fill="#FFC901"/>
<ellipse rx="0.587847" ry="0.588696" transform="matrix(-0.0174775 -0.999847 -0.999848 0.0174274 277.121 38.9921)" fill="#FFC901"/>
<ellipse rx="0.587843" ry="0.588695" transform="matrix(-0.0174776 -0.999847 -0.999848 0.0174272 277.121 36.6374)" fill="#FFC901"/>
<ellipse rx="0.58784" ry="0.588696" transform="matrix(-0.0174777 -0.999847 -0.999848 0.0174271 277.121 34.2824)" fill="#FFC901"/>
<ellipse rx="0.58784" ry="0.588696" transform="matrix(-0.0174777 -0.999847 -0.999848 0.0174271 277.121 31.9276)" fill="#FFC901"/>
<ellipse rx="0.587847" ry="0.588697" transform="matrix(-0.0174775 -0.999847 -0.999848 0.0174273 277.121 29.5726)" fill="#FFC901"/>
<ellipse rx="0.587838" ry="0.588695" transform="matrix(-0.0174778 -0.999847 -0.999848 0.0174271 277.12 27.2179)" fill="#FFC901"/>
<ellipse rx="0.587849" ry="0.588693" transform="matrix(-0.0174774 -0.999847 -0.999848 0.0174275 277.121 24.8632)" fill="#FFC901"/>
<ellipse rx="0.58784" ry="0.5887" transform="matrix(-0.0174778 -0.999847 -0.999848 0.017427 277.121 22.5082)" fill="#FFC901"/>
<ellipse rx="0.587845" ry="0.588696" transform="matrix(-0.0174776 -0.999847 -0.999848 0.0174273 277.121 20.1532)" fill="#FFC901"/>
<ellipse rx="0.587843" ry="0.588699" transform="matrix(-0.0174777 -0.999847 -0.999848 0.0174272 277.121 17.7985)" fill="#FFC901"/>
<ellipse rx="0.587858" ry="0.588699" transform="matrix(-0.0174773 -0.999847 -0.999848 0.0174276 277.121 15.4435)" fill="#FFC901"/>
<ellipse rx="0.58784" ry="0.588695" transform="matrix(-0.0174777 -0.999847 -0.999848 0.0174272 277.121 13.089)" fill="#FFC901"/>
<ellipse rx="0.587849" ry="0.5887" transform="matrix(-0.0174776 -0.999847 -0.999848 0.0174273 277.121 10.734)" fill="#FFC901"/>
<ellipse rx="0.587836" ry="0.588698" transform="matrix(-0.0174779 -0.999847 -0.999848 0.017427 277.121 8.37906)" fill="#FFC901"/>
<ellipse rx="0.587843" ry="0.588696" transform="matrix(-0.0174776 -0.999847 -0.999848 0.0174272 277.121 6.02456)" fill="#FFC901"/>
<ellipse rx="0.587843" ry="0.5887" transform="matrix(-0.0174777 -0.999847 -0.999848 0.0174271 277.121 3.66958)" fill="#FFC901"/>
<ellipse rx="0.587842" ry="0.5887" transform="matrix(-0.0174778 -0.999847 -0.999848 0.0174271 277.121 1.31435)" fill="#FFC901"/>
<ellipse rx="0.587842" ry="0.588693" transform="matrix(-0.0174776 -0.999847 -0.999848 0.0174273 274.766 50.7663)" fill="#FFC901"/>
<ellipse rx="0.58784" ry="0.58869" transform="matrix(-0.0174776 -0.999847 -0.999848 0.0174273 274.766 48.411)" fill="#FFC901"/>
<ellipse rx="0.587842" ry="0.588691" transform="matrix(-0.0174775 -0.999847 -0.999848 0.0174273 274.766 46.0565)" fill="#FFC901"/>
<ellipse rx="0.587844" ry="0.588691" transform="matrix(-0.0174775 -0.999847 -0.999848 0.0174274 274.766 43.7018)" fill="#FFC901"/>
<ellipse rx="0.587845" ry="0.588691" transform="matrix(-0.0174774 -0.999847 -0.999848 0.0174274 274.766 41.3466)" fill="#FFC901"/>
<ellipse rx="0.587849" ry="0.588691" transform="matrix(-0.0174773 -0.999847 -0.999848 0.0174275 274.766 38.9921)" fill="#FFC901"/>
<ellipse rx="0.587849" ry="0.588691" transform="matrix(-0.0174773 -0.999847 -0.999848 0.0174275 274.766 36.6371)" fill="#FFC901"/>
<ellipse rx="0.587845" ry="0.588689" transform="matrix(-0.0174774 -0.999847 -0.999848 0.0174275 274.766 34.2821)" fill="#FFC901"/>
<ellipse rx="0.58784" ry="0.588689" transform="matrix(-0.0174775 -0.999847 -0.999848 0.0174273 274.766 31.9276)" fill="#FFC901"/>
<ellipse rx="0.587849" ry="0.588689" transform="matrix(-0.0174773 -0.999847 -0.999848 0.0174276 274.766 29.5726)" fill="#FFC901"/>
<ellipse rx="0.587845" ry="0.588689" transform="matrix(-0.0174774 -0.999847 -0.999848 0.0174275 274.766 27.2179)" fill="#FFC901"/>
<ellipse rx="0.587849" ry="0.588689" transform="matrix(-0.0174773 -0.999847 -0.999848 0.0174276 274.766 24.8632)" fill="#FFC901"/>
<ellipse rx="0.587834" ry="0.588694" transform="matrix(-0.0174778 -0.999847 -0.999848 0.017427 274.766 22.5082)" fill="#FFC901"/>
<ellipse rx="0.587847" ry="0.588689" transform="matrix(-0.0174773 -0.999847 -0.999848 0.0174275 274.766 20.1532)" fill="#FFC901"/>
<ellipse rx="0.587843" ry="0.588693" transform="matrix(-0.0174775 -0.999847 -0.999848 0.0174273 274.766 17.7985)" fill="#FFC901"/>
<ellipse rx="0.58784" ry="0.588692" transform="matrix(-0.0174776 -0.999847 -0.999848 0.0174272 274.766 15.4437)" fill="#FFC901"/>
<ellipse rx="0.587849" ry="0.588689" transform="matrix(-0.0174773 -0.999847 -0.999848 0.0174276 274.766 13.0892)" fill="#FFC901"/>
<ellipse rx="0.587845" ry="0.588692" transform="matrix(-0.0174775 -0.999847 -0.999848 0.0174274 274.766 10.734)" fill="#FFC901"/>
<ellipse rx="0.58783" ry="0.588689" transform="matrix(-0.0174778 -0.999847 -0.999848 0.017427 274.766 8.37906)" fill="#FFC901"/>
<ellipse rx="0.587843" ry="0.588695" transform="matrix(-0.0174776 -0.999847 -0.999848 0.0174273 274.766 6.02456)" fill="#FFC901"/>
<ellipse rx="0.587836" ry="0.588691" transform="matrix(-0.0174777 -0.999847 -0.999848 0.0174272 274.766 3.66934)" fill="#FFC901"/>
<ellipse rx="0.587849" ry="0.588688" transform="matrix(-0.0174772 -0.999847 -0.999848 0.0174276 274.766 1.31459)" fill="#FFC901"/>
<ellipse rx="0.587844" ry="0.588691" transform="matrix(-0.0174775 -0.999847 -0.999848 0.0174274 272.411 50.7663)" fill="#FFC901"/>
<ellipse rx="0.587843" ry="0.588692" transform="matrix(-0.0174775 -0.999847 -0.999848 0.0174273 272.411 48.4113)" fill="#FFC901"/>
<ellipse rx="0.587837" ry="0.588692" transform="matrix(-0.0174777 -0.999847 -0.999848 0.0174272 272.411 46.0563)" fill="#FFC901"/>
<ellipse rx="0.587845" ry="0.588692" transform="matrix(-0.0174775 -0.999847 -0.999848 0.0174274 272.411 43.7018)" fill="#FFC901"/>
<ellipse rx="0.587845" ry="0.588694" transform="matrix(-0.0174775 -0.999847 -0.999848 0.0174273 272.411 41.3466)" fill="#FFC901"/>
<ellipse rx="0.587849" ry="0.588697" transform="matrix(-0.0174775 -0.999847 -0.999848 0.0174274 272.411 38.9918)" fill="#FFC901"/>
<ellipse rx="0.587848" ry="0.588694" transform="matrix(-0.0174774 -0.999847 -0.999848 0.0174274 272.411 36.6371)" fill="#FFC901"/>
<ellipse rx="0.587843" ry="0.588694" transform="matrix(-0.0174776 -0.999847 -0.999848 0.0174273 272.411 34.2821)" fill="#FFC901"/>
<ellipse rx="0.58784" ry="0.588689" transform="matrix(-0.0174775 -0.999847 -0.999848 0.0174273 272.411 31.9276)" fill="#FFC901"/>
<ellipse rx="0.587855" ry="0.588695" transform="matrix(-0.0174773 -0.999847 -0.999848 0.0174276 272.411 29.5726)" fill="#FFC901"/>
<ellipse rx="0.587842" ry="0.588693" transform="matrix(-0.0174776 -0.999847 -0.999848 0.0174273 272.411 27.2177)" fill="#FFC901"/>
<ellipse rx="0.587849" ry="0.588689" transform="matrix(-0.0174773 -0.999847 -0.999848 0.0174276 272.411 24.8632)" fill="#FFC901"/>
<ellipse rx="0.587838" ry="0.588694" transform="matrix(-0.0174777 -0.999847 -0.999848 0.0174271 272.411 22.5082)" fill="#FFC901"/>
<ellipse rx="0.587845" ry="0.588695" transform="matrix(-0.0174775 -0.999847 -0.999848 0.0174273 272.411 20.1532)" fill="#FFC901"/>
<ellipse rx="0.58784" ry="0.58869" transform="matrix(-0.0174776 -0.999847 -0.999848 0.0174273 272.411 17.7985)" fill="#FFC901"/>
<ellipse rx="0.587851" ry="0.588692" transform="matrix(-0.0174773 -0.999847 -0.999848 0.0174276 272.411 15.4437)" fill="#FFC901"/>
<ellipse rx="0.587843" ry="0.588692" transform="matrix(-0.0174775 -0.999847 -0.999848 0.0174274 272.411 13.0893)" fill="#FFC901"/>
<ellipse rx="0.587849" ry="0.588696" transform="matrix(-0.0174775 -0.999847 -0.999848 0.0174274 272.411 10.734)" fill="#FFC901"/>
<ellipse rx="0.587842" ry="0.588691" transform="matrix(-0.0174775 -0.999847 -0.999848 0.0174273 272.411 8.37905)" fill="#FFC901"/>
<ellipse rx="0.587838" ry="0.588692" transform="matrix(-0.0174777 -0.999847 -0.999848 0.0174272 272.411 6.02481)" fill="#FFC901"/>
<ellipse rx="0.587832" ry="0.588691" transform="matrix(-0.0174778 -0.999847 -0.999848 0.017427 272.411 3.66934)" fill="#FFC901"/>
<ellipse rx="0.587842" ry="0.588695" transform="matrix(-0.0174776 -0.999847 -0.999848 0.0174272 272.411 1.31435)" fill="#FFC901"/>
<ellipse rx="0.587843" ry="0.588685" transform="matrix(-0.0174773 -0.999847 -0.999848 0.0174275 270.056 50.7663)" fill="#FFC901"/>
<ellipse rx="0.587842" ry="0.588685" transform="matrix(-0.0174773 -0.999847 -0.999848 0.0174275 270.056 48.4113)" fill="#FFC901"/>
<ellipse rx="0.587835" ry="0.588685" transform="matrix(-0.0174775 -0.999847 -0.999848 0.0174273 270.056 46.0563)" fill="#FFC901"/>
<ellipse rx="0.587845" ry="0.588689" transform="matrix(-0.0174774 -0.999847 -0.999848 0.0174275 270.056 43.7018)" fill="#FFC901"/>
<ellipse rx="0.587843" ry="0.588689" transform="matrix(-0.0174774 -0.999847 -0.999848 0.0174274 270.056 41.3466)" fill="#FFC901"/>
<ellipse rx="0.587849" ry="0.588687" transform="matrix(-0.0174772 -0.999847 -0.999848 0.0174277 270.056 38.9921)" fill="#FFC901"/>
<ellipse rx="0.587851" ry="0.588692" transform="matrix(-0.0174773 -0.999847 -0.999848 0.0174276 270.056 36.6371)" fill="#FFC901"/>
<ellipse rx="0.587843" ry="0.588685" transform="matrix(-0.0174773 -0.999847 -0.999848 0.0174276 270.056 34.2821)" fill="#FFC901"/>
<ellipse rx="0.587845" ry="0.588689" transform="matrix(-0.0174774 -0.999847 -0.999848 0.0174275 270.056 31.9276)" fill="#FFC901"/>
<ellipse rx="0.587847" ry="0.588689" transform="matrix(-0.0174773 -0.999847 -0.999848 0.0174275 270.056 29.5726)" fill="#FFC901"/>
<ellipse rx="0.58784" ry="0.588688" transform="matrix(-0.0174775 -0.999847 -0.999848 0.0174273 270.056 27.2177)" fill="#FFC901"/>
<ellipse rx="0.587851" ry="0.588685" transform="matrix(-0.0174771 -0.999847 -0.999848 0.0174278 270.056 24.8632)" fill="#FFC901"/>
<ellipse rx="0.587834" ry="0.588688" transform="matrix(-0.0174777 -0.999847 -0.999848 0.0174272 270.056 22.5082)" fill="#FFC901"/>
<ellipse rx="0.587845" ry="0.58869" transform="matrix(-0.0174774 -0.999847 -0.999848 0.0174275 270.056 20.1532)" fill="#FFC901"/>
<ellipse rx="0.587843" ry="0.588685" transform="matrix(-0.0174773 -0.999847 -0.999848 0.0174276 270.056 17.7985)" fill="#FFC901"/>
<ellipse rx="0.587858" ry="0.588685" transform="matrix(-0.0174768 -0.999847 -0.999848 0.017428 270.056 15.4435)" fill="#FFC901"/>
<ellipse rx="0.58784" ry="0.588686" transform="matrix(-0.0174774 -0.999847 -0.999848 0.0174274 270.056 13.089)" fill="#FFC901"/>
<ellipse rx="0.587857" ry="0.588687" transform="matrix(-0.017477 -0.999847 -0.999848 0.0174279 270.056 10.734)" fill="#FFC901"/>
<ellipse rx="0.587843" ry="0.588686" transform="matrix(-0.0174773 -0.999847 -0.999848 0.0174275 270.056 8.37905)" fill="#FFC901"/>
<ellipse rx="0.587838" ry="0.588684" transform="matrix(-0.0174774 -0.999847 -0.999848 0.0174274 270.056 6.02456)" fill="#FFC901"/>
<ellipse rx="0.587836" ry="0.588688" transform="matrix(-0.0174776 -0.999847 -0.999848 0.0174272 270.056 3.66958)" fill="#FFC901"/>
<ellipse rx="0.587842" ry="0.588688" transform="matrix(-0.0174775 -0.999847 -0.999848 0.0174274 270.056 1.3146)" fill="#FFC901"/>
<ellipse rx="0.587844" ry="0.588688" transform="matrix(-0.0174773 -0.999847 -0.999848 0.0174275 267.701 50.766)" fill="#FFC901"/>
<ellipse rx="0.587841" ry="0.588689" transform="matrix(-0.0174775 -0.999847 -0.999848 0.0174274 267.701 48.4113)" fill="#FFC901"/>
<ellipse rx="0.587841" ry="0.588689" transform="matrix(-0.0174775 -0.999847 -0.999848 0.0174273 267.701 46.0565)" fill="#FFC901"/>
<ellipse rx="0.587847" ry="0.588685" transform="matrix(-0.0174772 -0.999847 -0.999848 0.0174277 267.701 43.7018)" fill="#FFC901"/>
<ellipse rx="0.587841" ry="0.588684" transform="matrix(-0.0174773 -0.999847 -0.999848 0.0174275 267.701 41.3466)" fill="#FFC901"/>
<ellipse rx="0.587849" ry="0.588685" transform="matrix(-0.0174771 -0.999847 -0.999848 0.0174277 267.701 38.9921)" fill="#FFC901"/>
<ellipse rx="0.587841" ry="0.588689" transform="matrix(-0.0174775 -0.999847 -0.999848 0.0174274 267.701 36.6374)" fill="#FFC901"/>
<ellipse rx="0.587843" ry="0.588689" transform="matrix(-0.0174774 -0.999847 -0.999848 0.0174274 267.701 34.2821)" fill="#FFC901"/>
<ellipse rx="0.587842" ry="0.588693" transform="matrix(-0.0174776 -0.999847 -0.999848 0.0174273 267.701 31.9276)" fill="#FFC901"/>
<ellipse rx="0.587851" ry="0.588689" transform="matrix(-0.0174772 -0.999847 -0.999848 0.0174277 267.701 29.5726)" fill="#FFC901"/>
<ellipse rx="0.587847" ry="0.588689" transform="matrix(-0.0174773 -0.999847 -0.999848 0.0174275 267.701 27.2179)" fill="#FFC901"/>
<ellipse rx="0.587847" ry="0.588691" transform="matrix(-0.0174774 -0.999847 -0.999848 0.0174275 267.701 24.8632)" fill="#FFC901"/>
<ellipse rx="0.587836" ry="0.588692" transform="matrix(-0.0174777 -0.999847 -0.999848 0.0174271 267.701 22.5082)" fill="#FFC901"/>
<ellipse rx="0.587847" ry="0.588693" transform="matrix(-0.0174774 -0.999847 -0.999848 0.0174274 267.701 20.1532)" fill="#FFC901"/>
<ellipse rx="0.58783" ry="0.588688" transform="matrix(-0.0174778 -0.999847 -0.999848 0.0174271 267.701 17.7985)" fill="#FFC901"/>
<ellipse rx="0.587858" ry="0.58869" transform="matrix(-0.017477 -0.999847 -0.999848 0.0174279 267.701 15.4437)" fill="#FFC901"/>
<ellipse rx="0.587842" ry="0.588688" transform="matrix(-0.0174775 -0.999847 -0.999848 0.0174274 267.701 13.089)" fill="#FFC901"/>
<ellipse rx="0.587857" ry="0.588688" transform="matrix(-0.017477 -0.999847 -0.999848 0.0174279 267.701 10.734)" fill="#FFC901"/>
<ellipse rx="0.587842" ry="0.588684" transform="matrix(-0.0174773 -0.999847 -0.999848 0.0174275 267.701 8.37905)" fill="#FFC901"/>
<ellipse rx="0.587843" ry="0.588687" transform="matrix(-0.0174773 -0.999847 -0.999848 0.0174275 267.701 6.02456)" fill="#FFC901"/>
<ellipse rx="0.587843" ry="0.588685" transform="matrix(-0.0174773 -0.999847 -0.999848 0.0174276 267.701 3.66933)" fill="#FFC901"/>
<ellipse rx="0.587842" ry="0.58869" transform="matrix(-0.0174775 -0.999847 -0.999848 0.0174274 267.701 1.31484)" fill="#FFC901"/>
<ellipse rx="0.587844" ry="0.58869" transform="matrix(-0.0174774 -0.999847 -0.999848 0.0174274 265.347 50.7663)" fill="#FFC901"/>
<ellipse rx="0.587842" ry="0.58869" transform="matrix(-0.0174775 -0.999847 -0.999848 0.0174273 265.347 48.411)" fill="#FFC901"/>
<ellipse rx="0.587841" ry="0.588696" transform="matrix(-0.0174777 -0.999847 -0.999848 0.0174272 265.347 46.0565)" fill="#FFC901"/>
<ellipse rx="0.587844" ry="0.588692" transform="matrix(-0.0174775 -0.999847 -0.999848 0.0174274 265.347 43.7018)" fill="#FFC901"/>
<ellipse rx="0.587845" ry="0.588692" transform="matrix(-0.0174775 -0.999847 -0.999848 0.0174274 265.347 41.3466)" fill="#FFC901"/>
<ellipse rx="0.587848" ry="0.588692" transform="matrix(-0.0174774 -0.999847 -0.999848 0.0174275 265.347 38.9921)" fill="#FFC901"/>
<ellipse rx="0.587846" ry="0.588694" transform="matrix(-0.0174775 -0.999847 -0.999848 0.0174274 265.347 36.6373)" fill="#FFC901"/>
<ellipse rx="0.58784" ry="0.588694" transform="matrix(-0.0174777 -0.999847 -0.999848 0.0174272 265.347 34.2821)" fill="#FFC901"/>
<ellipse rx="0.587838" ry="0.588688" transform="matrix(-0.0174776 -0.999847 -0.999848 0.0174273 265.347 31.9276)" fill="#FFC901"/>
<ellipse rx="0.587851" ry="0.588694" transform="matrix(-0.0174773 -0.999847 -0.999848 0.0174275 265.347 29.5726)" fill="#FFC901"/>
<ellipse rx="0.58784" ry="0.58869" transform="matrix(-0.0174776 -0.999847 -0.999848 0.0174273 265.347 27.2177)" fill="#FFC901"/>
<ellipse rx="0.587858" ry="0.588696" transform="matrix(-0.0174772 -0.999847 -0.999848 0.0174277 265.347 24.8632)" fill="#FFC901"/>
<ellipse rx="0.587836" ry="0.58869" transform="matrix(-0.0174777 -0.999847 -0.999848 0.0174272 265.347 22.5082)" fill="#FFC901"/>
<ellipse rx="0.587847" ry="0.588688" transform="matrix(-0.0174773 -0.999847 -0.999848 0.0174276 265.347 20.1532)" fill="#FFC901"/>
<ellipse rx="0.587851" ry="0.58869" transform="matrix(-0.0174772 -0.999847 -0.999848 0.0174276 265.347 17.7985)" fill="#FFC901"/>
<ellipse rx="0.587858" ry="0.588694" transform="matrix(-0.0174771 -0.999847 -0.999848 0.0174277 265.347 15.4437)" fill="#FFC901"/>
<ellipse rx="0.58784" ry="0.588694" transform="matrix(-0.0174777 -0.999847 -0.999848 0.0174272 265.347 13.0893)" fill="#FFC901"/>
<ellipse rx="0.587857" ry="0.58869" transform="matrix(-0.0174771 -0.999847 -0.999848 0.0174278 265.347 10.734)" fill="#FFC901"/>
<ellipse rx="0.587842" ry="0.58869" transform="matrix(-0.0174775 -0.999847 -0.999848 0.0174273 265.347 8.37905)" fill="#FFC901"/>
<ellipse rx="0.587843" ry="0.58869" transform="matrix(-0.0174775 -0.999847 -0.999848 0.0174274 265.347 6.02456)" fill="#FFC901"/>
<ellipse rx="0.587836" ry="0.588692" transform="matrix(-0.0174777 -0.999847 -0.999848 0.0174271 265.347 3.66958)" fill="#FFC901"/>
<ellipse rx="0.587842" ry="0.588692" transform="matrix(-0.0174776 -0.999847 -0.999848 0.0174273 265.347 1.31484)" fill="#FFC901"/>
<ellipse rx="0.587843" ry="0.588685" transform="matrix(-0.0174773 -0.999847 -0.999848 0.0174276 262.992 50.7663)" fill="#FFC901"/>
<ellipse rx="0.587842" ry="0.588688" transform="matrix(-0.0174775 -0.999847 -0.999848 0.0174274 262.992 48.411)" fill="#FFC901"/>
<ellipse rx="0.58784" ry="0.588694" transform="matrix(-0.0174777 -0.999847 -0.999848 0.0174272 262.992 46.0565)" fill="#FFC901"/>
<ellipse rx="0.587842" ry="0.588694" transform="matrix(-0.0174776 -0.999847 -0.999848 0.0174272 262.992 43.7018)" fill="#FFC901"/>
<ellipse rx="0.58785" ry="0.588692" transform="matrix(-0.0174773 -0.999847 -0.999848 0.0174275 262.992 41.3466)" fill="#FFC901"/>
<ellipse rx="0.587848" ry="0.588696" transform="matrix(-0.0174775 -0.999847 -0.999848 0.0174274 262.992 38.9921)" fill="#FFC901"/>
<ellipse rx="0.587851" ry="0.588692" transform="matrix(-0.0174773 -0.999847 -0.999848 0.0174276 262.992 36.6371)" fill="#FFC901"/>
<ellipse rx="0.58784" ry="0.588688" transform="matrix(-0.0174775 -0.999847 -0.999848 0.0174273 262.992 34.2821)" fill="#FFC901"/>
<ellipse rx="0.587838" ry="0.588692" transform="matrix(-0.0174777 -0.999847 -0.999848 0.0174272 262.992 31.9276)" fill="#FFC901"/>
<ellipse rx="0.587851" ry="0.588702" transform="matrix(-0.0174776 -0.999847 -0.999848 0.0174273 262.992 29.5726)" fill="#FFC901"/>
<ellipse rx="0.58784" ry="0.58869" transform="matrix(-0.0174776 -0.999847 -0.999848 0.0174273 262.992 27.2179)" fill="#FFC901"/>
<ellipse rx="0.587847" ry="0.588698" transform="matrix(-0.0174776 -0.999847 -0.999848 0.0174273 262.992 24.8632)" fill="#FFC901"/>
<ellipse rx="0.587838" ry="0.588692" transform="matrix(-0.0174777 -0.999847 -0.999848 0.0174272 262.992 22.5082)" fill="#FFC901"/>
<ellipse rx="0.587847" ry="0.588687" transform="matrix(-0.0174772 -0.999847 -0.999848 0.0174276 262.992 20.1532)" fill="#FFC901"/>
<ellipse rx="0.587851" ry="0.588692" transform="matrix(-0.0174773 -0.999847 -0.999848 0.0174276 262.992 17.7985)" fill="#FFC901"/>
<ellipse rx="0.587858" ry="0.588692" transform="matrix(-0.0174771 -0.999847 -0.999848 0.0174278 262.992 15.4437)" fill="#FFC901"/>
<ellipse rx="0.587834" ry="0.588688" transform="matrix(-0.0174777 -0.999847 -0.999848 0.0174272 262.992 13.089)" fill="#FFC901"/>
<ellipse rx="0.587855" ry="0.588687" transform="matrix(-0.017477 -0.999847 -0.999848 0.0174279 262.992 10.734)" fill="#FFC901"/>
<ellipse rx="0.587843" ry="0.58869" transform="matrix(-0.0174775 -0.999847 -0.999848 0.0174274 262.992 8.37905)" fill="#FFC901"/>
<ellipse rx="0.587843" ry="0.58869" transform="matrix(-0.0174775 -0.999847 -0.999848 0.0174274 262.992 6.0248)" fill="#FFC901"/>
<ellipse rx="0.587825" ry="0.58869" transform="matrix(-0.017478 -0.999847 -0.999848 0.0174268 262.992 3.66935)" fill="#FFC901"/>
<ellipse rx="0.587849" ry="0.588688" transform="matrix(-0.0174772 -0.999847 -0.999848 0.0174276 262.992 1.31483)" fill="#FFC901"/>
<ellipse rx="0.587843" ry="0.588694" transform="matrix(-0.0174776 -0.999847 -0.999848 0.0174273 260.637 50.7663)" fill="#FFC901"/>
<ellipse rx="0.587843" ry="0.588692" transform="matrix(-0.0174775 -0.999847 -0.999848 0.0174273 260.637 48.4113)" fill="#FFC901"/>
<ellipse rx="0.587841" ry="0.588694" transform="matrix(-0.0174776 -0.999847 -0.999848 0.0174272 260.637 46.0565)" fill="#FFC901"/>
<ellipse rx="0.587847" ry="0.588692" transform="matrix(-0.0174774 -0.999847 -0.999848 0.0174275 260.637 43.7018)" fill="#FFC901"/>
<ellipse rx="0.587843" ry="0.588692" transform="matrix(-0.0174775 -0.999847 -0.999848 0.0174274 260.637 41.3466)" fill="#FFC901"/>
<ellipse rx="0.587848" ry="0.588692" transform="matrix(-0.0174774 -0.999847 -0.999848 0.0174275 260.637 38.9921)" fill="#FFC901"/>
<ellipse rx="0.587843" ry="0.58869" transform="matrix(-0.0174775 -0.999847 -0.999848 0.0174274 260.637 36.6374)" fill="#FFC901"/>
<ellipse rx="0.587843" ry="0.588694" transform="matrix(-0.0174776 -0.999847 -0.999848 0.0174273 260.637 34.2821)" fill="#FFC901"/>
<ellipse rx="0.587834" ry="0.588692" transform="matrix(-0.0174778 -0.999847 -0.999848 0.0174271 260.637 31.9276)" fill="#FFC901"/>
<ellipse rx="0.587853" ry="0.58869" transform="matrix(-0.0174772 -0.999847 -0.999848 0.0174277 260.637 29.5726)" fill="#FFC901"/>
<ellipse rx="0.587849" ry="0.58869" transform="matrix(-0.0174773 -0.999847 -0.999848 0.0174276 260.637 27.2179)" fill="#FFC901"/>
<ellipse rx="0.587855" ry="0.588692" transform="matrix(-0.0174772 -0.999847 -0.999848 0.0174277 260.637 24.8632)" fill="#FFC901"/>
<ellipse rx="0.587836" ry="0.588694" transform="matrix(-0.0174778 -0.999847 -0.999848 0.0174271 260.637 22.5082)" fill="#FFC901"/>
<ellipse rx="0.587843" ry="0.588694" transform="matrix(-0.0174776 -0.999847 -0.999848 0.0174273 260.637 20.1532)" fill="#FFC901"/>
<ellipse rx="0.58784" ry="0.588692" transform="matrix(-0.0174776 -0.999847 -0.999848 0.0174272 260.637 17.7985)" fill="#FFC901"/>
<ellipse rx="0.587857" ry="0.588692" transform="matrix(-0.0174771 -0.999847 -0.999848 0.0174277 260.637 15.4437)" fill="#FFC901"/>
<ellipse rx="0.587842" ry="0.58869" transform="matrix(-0.0174775 -0.999847 -0.999848 0.0174273 260.637 13.0893)" fill="#FFC901"/>
<ellipse rx="0.587847" ry="0.588694" transform="matrix(-0.0174775 -0.999847 -0.999848 0.0174274 260.637 10.734)" fill="#FFC901"/>
<ellipse rx="0.587842" ry="0.588694" transform="matrix(-0.0174776 -0.999847 -0.999848 0.0174272 260.637 8.37905)" fill="#FFC901"/>
<ellipse rx="0.587843" ry="0.588692" transform="matrix(-0.0174775 -0.999847 -0.999848 0.0174274 260.637 6.02456)" fill="#FFC901"/>
<ellipse rx="0.587836" ry="0.58869" transform="matrix(-0.0174777 -0.999847 -0.999848 0.0174272 260.637 3.66934)" fill="#FFC901"/>
<ellipse rx="0.587842" ry="0.588688" transform="matrix(-0.0174775 -0.999847 -0.999848 0.0174274 260.637 1.31484)" fill="#FFC901"/>
<ellipse rx="0.587845" ry="0.5887" transform="matrix(-0.0174777 -0.999847 -0.999848 0.0174272 258.282 50.7663)" fill="#FFC901"/>
<ellipse rx="0.587843" ry="0.5887" transform="matrix(-0.0174778 -0.999847 -0.999848 0.0174271 258.282 48.411)" fill="#FFC901"/>
<ellipse rx="0.587842" ry="0.588702" transform="matrix(-0.0174778 -0.999847 -0.999848 0.017427 258.282 46.0565)" fill="#FFC901"/>
<ellipse rx="0.587847" ry="0.5887" transform="matrix(-0.0174776 -0.999847 -0.999848 0.0174272 258.283 43.7018)" fill="#FFC901"/>
<ellipse rx="0.587845" ry="0.588698" transform="matrix(-0.0174776 -0.999847 -0.999848 0.0174272 258.282 41.3466)" fill="#FFC901"/>
<ellipse rx="0.587848" ry="0.588698" transform="matrix(-0.0174775 -0.999847 -0.999848 0.0174273 258.282 38.9921)" fill="#FFC901"/>
<ellipse rx="0.587843" ry="0.588698" transform="matrix(-0.0174777 -0.999847 -0.999848 0.0174272 258.282 36.6374)" fill="#FFC901"/>
<ellipse rx="0.587834" ry="0.588694" transform="matrix(-0.0174778 -0.999847 -0.999848 0.017427 258.282 34.2821)" fill="#FFC901"/>
<ellipse rx="0.587843" ry="0.588692" transform="matrix(-0.0174775 -0.999847 -0.999848 0.0174274 258.282 31.9276)" fill="#FFC901"/>
<ellipse rx="0.587853" ry="0.588698" transform="matrix(-0.0174774 -0.999847 -0.999848 0.0174275 258.282 29.5726)" fill="#FFC901"/>
<ellipse rx="0.587849" ry="0.588694" transform="matrix(-0.0174774 -0.999847 -0.999848 0.0174275 258.282 27.2179)" fill="#FFC901"/>
<ellipse rx="0.587847" ry="0.588688" transform="matrix(-0.0174773 -0.999847 -0.999848 0.0174276 258.282 24.8632)" fill="#FFC901"/>
<ellipse rx="0.587838" ry="0.58869" transform="matrix(-0.0174776 -0.999847 -0.999848 0.0174272 258.282 22.5082)" fill="#FFC901"/>
<ellipse rx="0.587847" ry="0.588696" transform="matrix(-0.0174775 -0.999847 -0.999848 0.0174274 258.282 20.1532)" fill="#FFC901"/>
<ellipse rx="0.587845" ry="0.588698" transform="matrix(-0.0174776 -0.999847 -0.999848 0.0174272 258.283 17.7985)" fill="#FFC901"/>
<ellipse rx="0.587864" ry="0.58869" transform="matrix(-0.0174768 -0.999847 -0.999848 0.017428 258.282 15.4437)" fill="#FFC901"/>
<ellipse rx="0.587842" ry="0.588696" transform="matrix(-0.0174777 -0.999847 -0.999848 0.0174272 258.282 13.0893)" fill="#FFC901"/>
<ellipse rx="0.587857" ry="0.588705" transform="matrix(-0.0174775 -0.999847 -0.999848 0.0174274 258.283 10.734)" fill="#FFC901"/>
<ellipse rx="0.58784" ry="0.588705" transform="matrix(-0.017478 -0.999847 -0.999848 0.0174268 258.282 8.37905)" fill="#FFC901"/>
<ellipse rx="0.587843" ry="0.588696" transform="matrix(-0.0174776 -0.999847 -0.999848 0.0174272 258.282 6.02456)" fill="#FFC901"/>
<ellipse rx="0.587832" ry="0.588696" transform="matrix(-0.017478 -0.999847 -0.999848 0.0174269 258.282 3.66959)" fill="#FFC901"/>
<ellipse rx="0.587842" ry="0.588698" transform="matrix(-0.0174777 -0.999847 -0.999848 0.0174271 258.283 1.31484)" fill="#FFC901"/>
<ellipse rx="0.587842" ry="0.588687" transform="matrix(-0.0174774 -0.999847 -0.999848 0.0174275 255.928 50.766)" fill="#FFC901"/>
<ellipse rx="0.587843" ry="0.588687" transform="matrix(-0.0174774 -0.999847 -0.999848 0.0174275 255.928 48.4113)" fill="#FFC901"/>
<ellipse rx="0.587839" ry="0.58869" transform="matrix(-0.0174776 -0.999847 -0.999848 0.0174273 255.928 46.0565)" fill="#FFC901"/>
<ellipse rx="0.587846" ry="0.58869" transform="matrix(-0.0174774 -0.999847 -0.999848 0.0174275 255.928 43.7018)" fill="#FFC901"/>
<ellipse rx="0.587845" ry="0.588687" transform="matrix(-0.0174773 -0.999847 -0.999848 0.0174276 255.928 41.3466)" fill="#FFC901"/>
<ellipse rx="0.587848" ry="0.588687" transform="matrix(-0.0174772 -0.999847 -0.999848 0.0174277 255.928 38.9921)" fill="#FFC901"/>
<ellipse rx="0.587847" ry="0.588681" transform="matrix(-0.0174771 -0.999847 -0.999848 0.0174278 255.928 36.6373)" fill="#FFC901"/>
<ellipse rx="0.587834" ry="0.588685" transform="matrix(-0.0174776 -0.999847 -0.999848 0.0174273 255.928 34.2824)" fill="#FFC901"/>
<ellipse rx="0.587834" ry="0.588692" transform="matrix(-0.0174778 -0.999847 -0.999848 0.0174271 255.928 31.9276)" fill="#FFC901"/>
<ellipse rx="0.587847" ry="0.588688" transform="matrix(-0.0174773 -0.999847 -0.999848 0.0174276 255.928 29.5726)" fill="#FFC901"/>
<ellipse rx="0.587847" ry="0.588688" transform="matrix(-0.0174773 -0.999847 -0.999848 0.0174276 255.928 27.2179)" fill="#FFC901"/>
<ellipse rx="0.58786" ry="0.588687" transform="matrix(-0.0174768 -0.999847 -0.999848 0.017428 255.928 24.8632)" fill="#FFC901"/>
<ellipse rx="0.587838" ry="0.588683" transform="matrix(-0.0174774 -0.999847 -0.999848 0.0174275 255.928 22.5082)" fill="#FFC901"/>
<ellipse rx="0.587853" ry="0.58869" transform="matrix(-0.0174772 -0.999847 -0.999848 0.0174277 255.928 20.1532)" fill="#FFC901"/>
<ellipse rx="0.587843" ry="0.58869" transform="matrix(-0.0174774 -0.999847 -0.999848 0.0174274 255.928 17.7985)" fill="#FFC901"/>
<ellipse rx="0.587857" ry="0.588687" transform="matrix(-0.0174769 -0.999847 -0.999848 0.0174279 255.928 15.4437)" fill="#FFC901"/>
<ellipse rx="0.587842" ry="0.588687" transform="matrix(-0.0174774 -0.999847 -0.999848 0.0174275 255.928 13.089)" fill="#FFC901"/>
<ellipse rx="0.587855" ry="0.588696" transform="matrix(-0.0174773 -0.999847 -0.999848 0.0174276 255.928 10.734)" fill="#FFC901"/>
<ellipse rx="0.587842" ry="0.588688" transform="matrix(-0.0174775 -0.999847 -0.999848 0.0174274 255.928 8.37929)" fill="#FFC901"/>
<ellipse rx="0.587843" ry="0.588698" transform="matrix(-0.0174777 -0.999847 -0.999848 0.0174272 255.928 6.02456)" fill="#FFC901"/>
<ellipse rx="0.587843" ry="0.588688" transform="matrix(-0.0174774 -0.999847 -0.999848 0.0174275 255.928 3.66933)" fill="#FFC901"/>
<ellipse rx="0.587849" ry="0.588687" transform="matrix(-0.0174772 -0.999847 -0.999848 0.0174277 255.928 1.31483)" fill="#FFC901"/>
<ellipse rx="0.587845" ry="0.58869" transform="matrix(-0.0174774 -0.999847 -0.999848 0.0174275 253.573 50.7663)" fill="#FFC901"/>
<ellipse rx="0.58784" ry="0.5887" transform="matrix(-0.0174778 -0.999847 -0.999848 0.017427 253.573 48.411)" fill="#FFC901"/>
<ellipse rx="0.587839" ry="0.588694" transform="matrix(-0.0174777 -0.999847 -0.999848 0.0174272 253.573 46.0565)" fill="#FFC901"/>
<ellipse rx="0.587844" ry="0.588698" transform="matrix(-0.0174776 -0.999847 -0.999848 0.0174272 253.573 43.7018)" fill="#FFC901"/>
<ellipse rx="0.587843" ry="0.588694" transform="matrix(-0.0174776 -0.999847 -0.999848 0.0174273 253.573 41.3466)" fill="#FFC901"/>
<ellipse rx="0.58785" ry="0.588698" transform="matrix(-0.0174775 -0.999847 -0.999848 0.0174274 253.573 38.9921)" fill="#FFC901"/>
<ellipse rx="0.587848" ry="0.588688" transform="matrix(-0.0174773 -0.999847 -0.999848 0.0174276 253.573 36.6371)" fill="#FFC901"/>
<ellipse rx="0.58784" ry="0.588688" transform="matrix(-0.0174775 -0.999847 -0.999848 0.0174273 253.573 34.2821)" fill="#FFC901"/>
<ellipse rx="0.587838" ry="0.588692" transform="matrix(-0.0174777 -0.999847 -0.999848 0.0174272 253.573 31.9276)" fill="#FFC901"/>
<ellipse rx="0.587847" ry="0.588696" transform="matrix(-0.0174775 -0.999847 -0.999848 0.0174274 253.573 29.5726)" fill="#FFC901"/>
<ellipse rx="0.587842" ry="0.588704" transform="matrix(-0.0174779 -0.999847 -0.999848 0.017427 253.573 27.2179)" fill="#FFC901"/>
<ellipse rx="0.587851" ry="0.588696" transform="matrix(-0.0174774 -0.999847 -0.999848 0.0174275 253.573 24.8632)" fill="#FFC901"/>
<ellipse rx="0.587838" ry="0.588688" transform="matrix(-0.0174776 -0.999847 -0.999848 0.0174273 253.573 22.5082)" fill="#FFC901"/>
<ellipse rx="0.587845" ry="0.588698" transform="matrix(-0.0174776 -0.999847 -0.999848 0.0174272 253.573 20.1532)" fill="#FFC901"/>
<ellipse rx="0.587843" ry="0.588694" transform="matrix(-0.0174776 -0.999847 -0.999848 0.0174273 253.573 17.7985)" fill="#FFC901"/>
<ellipse rx="0.587862" ry="0.588688" transform="matrix(-0.0174768 -0.999847 -0.999848 0.017428 253.573 15.4437)" fill="#FFC901"/>
<ellipse rx="0.587847" ry="0.588688" transform="matrix(-0.0174773 -0.999847 -0.999848 0.0174276 253.573 13.0893)" fill="#FFC901"/>
<ellipse rx="0.587847" ry="0.5887" transform="matrix(-0.0174776 -0.999847 -0.999848 0.0174272 253.573 10.734)" fill="#FFC901"/>
<ellipse rx="0.587842" ry="0.588694" transform="matrix(-0.0174776 -0.999847 -0.999848 0.0174272 253.573 8.37905)" fill="#FFC901"/>
<ellipse rx="0.587849" ry="0.588696" transform="matrix(-0.0174775 -0.999847 -0.999848 0.0174274 253.573 6.02455)" fill="#FFC901"/>
<ellipse rx="0.587843" ry="0.58869" transform="matrix(-0.0174774 -0.999847 -0.999848 0.0174274 253.573 3.66958)" fill="#FFC901"/>
<ellipse rx="0.587834" ry="0.588694" transform="matrix(-0.0174778 -0.999847 -0.999848 0.017427 253.573 1.3146)" fill="#FFC901"/>
<ellipse rx="0.587844" ry="0.588692" transform="matrix(-0.0174775 -0.999847 -0.999848 0.0174274 251.218 50.7663)" fill="#FFC901"/>
<ellipse rx="0.587841" ry="0.588692" transform="matrix(-0.0174776 -0.999847 -0.999848 0.0174273 251.218 48.411)" fill="#FFC901"/>
<ellipse rx="0.587838" ry="0.588692" transform="matrix(-0.0174777 -0.999847 -0.999848 0.0174272 251.218 46.0565)" fill="#FFC901"/>
<ellipse rx="0.587844" ry="0.588687" transform="matrix(-0.0174773 -0.999847 -0.999848 0.0174275 251.218 43.7018)" fill="#FFC901"/>
<ellipse rx="0.587844" ry="0.58869" transform="matrix(-0.0174774 -0.999847 -0.999848 0.0174274 251.218 41.3468)" fill="#FFC901"/>
<ellipse rx="0.587848" ry="0.588692" transform="matrix(-0.0174774 -0.999847 -0.999848 0.0174275 251.218 38.9921)" fill="#FFC901"/>
<ellipse rx="0.587848" ry="0.588692" transform="matrix(-0.0174774 -0.999847 -0.999848 0.0174275 251.218 36.6373)" fill="#FFC901"/>
<ellipse rx="0.587838" ry="0.5887" transform="matrix(-0.0174779 -0.999847 -0.999848 0.017427 251.218 34.2821)" fill="#FFC901"/>
<ellipse rx="0.587836" ry="0.588698" transform="matrix(-0.0174779 -0.999847 -0.999848 0.017427 251.218 31.9276)" fill="#FFC901"/>
<ellipse rx="0.587847" ry="0.588688" transform="matrix(-0.0174773 -0.999847 -0.999848 0.0174276 251.218 29.5726)" fill="#FFC901"/>
<ellipse rx="0.587842" ry="0.588688" transform="matrix(-0.0174775 -0.999847 -0.999848 0.0174274 251.218 27.2179)" fill="#FFC901"/>
<ellipse rx="0.587849" ry="0.588698" transform="matrix(-0.0174775 -0.999847 -0.999848 0.0174273 251.218 24.8632)" fill="#FFC901"/>
<ellipse rx="0.587838" ry="0.588688" transform="matrix(-0.0174776 -0.999847 -0.999848 0.0174273 251.218 22.5082)" fill="#FFC901"/>
<ellipse rx="0.587847" ry="0.588688" transform="matrix(-0.0174773 -0.999847 -0.999848 0.0174276 251.218 20.1532)" fill="#FFC901"/>
<ellipse rx="0.587845" ry="0.588688" transform="matrix(-0.0174773 -0.999847 -0.999848 0.0174275 251.218 17.7985)" fill="#FFC901"/>
<ellipse rx="0.587858" ry="0.588685" transform="matrix(-0.0174768 -0.999847 -0.999848 0.017428 251.218 15.4437)" fill="#FFC901"/>
<ellipse rx="0.587842" ry="0.588688" transform="matrix(-0.0174775 -0.999847 -0.999848 0.0174274 251.218 13.0893)" fill="#FFC901"/>
<ellipse rx="0.587849" ry="0.588694" transform="matrix(-0.0174774 -0.999847 -0.999848 0.0174275 251.218 10.734)" fill="#FFC901"/>
<ellipse rx="0.587845" ry="0.588688" transform="matrix(-0.0174773 -0.999847 -0.999848 0.0174275 251.218 8.37905)" fill="#FFC901"/>
<ellipse rx="0.587838" ry="0.588685" transform="matrix(-0.0174775 -0.999847 -0.999848 0.0174274 251.218 6.02456)" fill="#FFC901"/>
<ellipse rx="0.587843" ry="0.588685" transform="matrix(-0.0174773 -0.999847 -0.999848 0.0174276 251.218 3.66958)" fill="#FFC901"/>
<ellipse rx="0.587849" ry="0.588683" transform="matrix(-0.0174771 -0.999847 -0.999848 0.0174278 251.218 1.31483)" fill="#FFC901"/>
<ellipse rx="0.587843" ry="0.588685" transform="matrix(-0.0174773 -0.999847 -0.999848 0.0174275 248.863 50.7663)" fill="#FFC901"/>
<ellipse rx="0.587843" ry="0.588675" transform="matrix(-0.017477 -0.999847 -0.999848 0.0174278 248.863 48.4113)" fill="#FFC901"/>
<ellipse rx="0.587842" ry="0.588683" transform="matrix(-0.0174773 -0.999847 -0.999848 0.0174276 248.863 46.0563)" fill="#FFC901"/>
<ellipse rx="0.587842" ry="0.588692" transform="matrix(-0.0174776 -0.999847 -0.999848 0.0174273 248.863 43.7018)" fill="#FFC901"/>
<ellipse rx="0.587849" ry="0.588692" transform="matrix(-0.0174773 -0.999847 -0.999848 0.0174275 248.863 41.3466)" fill="#FFC901"/>
<ellipse rx="0.587845" ry="0.588685" transform="matrix(-0.0174772 -0.999847 -0.999848 0.0174276 248.863 38.9921)" fill="#FFC901"/>
<ellipse rx="0.587845" ry="0.588698" transform="matrix(-0.0174776 -0.999847 -0.999848 0.0174272 248.863 36.6371)" fill="#FFC901"/>
<ellipse rx="0.587845" ry="0.588685" transform="matrix(-0.0174772 -0.999847 -0.999848 0.0174276 248.863 34.2821)" fill="#FFC901"/>
<ellipse rx="0.587842" ry="0.588692" transform="matrix(-0.0174776 -0.999847 -0.999848 0.0174273 248.863 31.9276)" fill="#FFC901"/>
<ellipse rx="0.587851" ry="0.588685" transform="matrix(-0.0174771 -0.999847 -0.999848 0.0174278 248.863 29.5726)" fill="#FFC901"/>
<ellipse rx="0.587843" ry="0.588685" transform="matrix(-0.0174773 -0.999847 -0.999848 0.0174276 248.863 27.2177)" fill="#FFC901"/>
<ellipse rx="0.587847" ry="0.588692" transform="matrix(-0.0174774 -0.999847 -0.999848 0.0174275 248.863 24.8632)" fill="#FFC901"/>
<ellipse rx="0.587838" ry="0.588696" transform="matrix(-0.0174778 -0.999847 -0.999848 0.0174271 248.863 22.5082)" fill="#FFC901"/>
<ellipse rx="0.587845" ry="0.58869" transform="matrix(-0.0174774 -0.999847 -0.999848 0.0174275 248.863 20.1532)" fill="#FFC901"/>
<ellipse rx="0.587843" ry="0.58869" transform="matrix(-0.0174774 -0.999847 -0.999848 0.0174274 248.863 17.7985)" fill="#FFC901"/>
<ellipse rx="0.587862" ry="0.588688" transform="matrix(-0.0174768 -0.999847 -0.999848 0.017428 248.863 15.4437)" fill="#FFC901"/>
<ellipse rx="0.587842" ry="0.58869" transform="matrix(-0.0174775 -0.999847 -0.999848 0.0174274 248.863 13.089)" fill="#FFC901"/>
<ellipse rx="0.587858" ry="0.588688" transform="matrix(-0.0174769 -0.999847 -0.999848 0.0174279 248.863 10.7343)" fill="#FFC901"/>
<ellipse rx="0.587836" ry="0.588698" transform="matrix(-0.0174779 -0.999847 -0.999848 0.017427 248.863 8.37906)" fill="#FFC901"/>
<ellipse rx="0.587838" ry="0.588688" transform="matrix(-0.0174776 -0.999847 -0.999848 0.0174273 248.863 6.02456)" fill="#FFC901"/>
<ellipse rx="0.587847" ry="0.588698" transform="matrix(-0.0174776 -0.999847 -0.999848 0.0174273 248.863 3.66933)" fill="#FFC901"/>
<ellipse rx="0.587849" ry="0.58869" transform="matrix(-0.0174773 -0.999847 -0.999848 0.0174276 248.863 1.31483)" fill="#FFC901"/>
<ellipse rx="0.587846" ry="0.58869" transform="matrix(-0.0174774 -0.999847 -0.999848 0.0174275 246.509 50.7663)" fill="#FFC901"/>
<ellipse rx="0.587841" ry="0.588687" transform="matrix(-0.0174774 -0.999847 -0.999848 0.0174274 246.509 48.4113)" fill="#FFC901"/>
<ellipse rx="0.587841" ry="0.588698" transform="matrix(-0.0174778 -0.999847 -0.999848 0.0174271 246.509 46.0563)" fill="#FFC901"/>
<ellipse rx="0.587844" ry="0.58869" transform="matrix(-0.0174774 -0.999847 -0.999848 0.0174274 246.509 43.7018)" fill="#FFC901"/>
<ellipse rx="0.587843" ry="0.588694" transform="matrix(-0.0174776 -0.999847 -0.999848 0.0174273 246.509 41.3466)" fill="#FFC901"/>
<ellipse rx="0.587844" ry="0.588694" transform="matrix(-0.0174775 -0.999847 -0.999848 0.0174273 246.509 38.9921)" fill="#FFC901"/>
<ellipse rx="0.587845" ry="0.588694" transform="matrix(-0.0174775 -0.999847 -0.999848 0.0174273 246.509 36.6371)" fill="#FFC901"/>
<ellipse rx="0.587845" ry="0.588681" transform="matrix(-0.0174771 -0.999847 -0.999848 0.0174277 246.509 34.2824)" fill="#FFC901"/>
<ellipse rx="0.58784" ry="0.588688" transform="matrix(-0.0174775 -0.999847 -0.999848 0.0174274 246.509 31.9276)" fill="#FFC901"/>
<ellipse rx="0.587851" ry="0.588694" transform="matrix(-0.0174773 -0.999847 -0.999848 0.0174275 246.509 29.5726)" fill="#FFC901"/>
<ellipse rx="0.587843" ry="0.588687" transform="matrix(-0.0174773 -0.999847 -0.999848 0.0174275 246.509 27.2177)" fill="#FFC901"/>
<ellipse rx="0.587845" ry="0.588681" transform="matrix(-0.0174771 -0.999847 -0.999848 0.0174277 246.509 24.8632)" fill="#FFC901"/>
<ellipse rx="0.587838" ry="0.58869" transform="matrix(-0.0174776 -0.999847 -0.999848 0.0174272 246.509 22.5082)" fill="#FFC901"/>
<ellipse rx="0.587847" ry="0.588687" transform="matrix(-0.0174772 -0.999847 -0.999848 0.0174276 246.509 20.1532)" fill="#FFC901"/>
<ellipse rx="0.587845" ry="0.58869" transform="matrix(-0.0174774 -0.999847 -0.999848 0.0174275 246.509 17.7985)" fill="#FFC901"/>
<ellipse rx="0.58786" ry="0.588685" transform="matrix(-0.0174768 -0.999847 -0.999848 0.0174281 246.509 15.4437)" fill="#FFC901"/>
<ellipse rx="0.587842" ry="0.58869" transform="matrix(-0.0174775 -0.999847 -0.999848 0.0174274 246.509 13.0893)" fill="#FFC901"/>
<ellipse rx="0.587847" ry="0.58869" transform="matrix(-0.0174773 -0.999847 -0.999848 0.0174275 246.509 10.734)" fill="#FFC901"/>
<ellipse rx="0.587836" ry="0.588687" transform="matrix(-0.0174776 -0.999847 -0.999848 0.0174273 246.509 8.37906)" fill="#FFC901"/>
<ellipse rx="0.587842" ry="0.588685" transform="matrix(-0.0174773 -0.999847 -0.999848 0.0174275 246.509 6.02456)" fill="#FFC901"/>
<ellipse rx="0.587834" ry="0.588688" transform="matrix(-0.0174777 -0.999847 -0.999848 0.0174272 246.509 3.66959)" fill="#FFC901"/>
<ellipse rx="0.58786" ry="0.588679" transform="matrix(-0.0174766 -0.999847 -0.999848 0.0174282 246.509 1.31482)" fill="#FFC901"/>
</g>
<path d="M262.583 25.8435L238.371 105.528L301.331 67.8359L262.583 25.8435Z" fill="#FB5315"/>
</g>
</svg>
