<svg width="59" height="85" viewBox="0 0 59 85" fill="none" xmlns="http://www.w3.org/2000/svg">
<rect width="9.75602" height="46.225" transform="matrix(0.5 0.866025 0.866025 -0.5 11.4473 35.9565)" fill="#13C2C2"/>
<rect x="32.5408" width="11.6514" height="11.6514" transform="rotate(60 32.5408 0)" fill="#13C2C2"/>
<path fill-rule="evenodd" clip-rule="evenodd" d="M46.044 34.9633C46.1116 35.0729 46.1785 35.1832 46.2447 35.2943C53.5014 47.4664 49.3734 63.3598 37.0246 70.7931C24.6758 78.2263 8.78245 74.3847 1.5258 62.2125C1.18835 61.6465 0.875519 61.0724 0.586987 60.4915L1.38807 61.8348L14.1752 54.1402C14.2377 54.2548 14.3025 54.3685 14.3697 54.4812C17.2642 59.3364 23.886 61.2038 29.3478 57.9161C34.8096 54.6284 36.2954 47.8807 33.4009 43.0255C33.3342 42.9138 33.2656 42.8036 33.1951 42.695L46.044 34.9633Z" fill="#10239E"/>
</svg>
