<svg width="297" height="555" viewBox="0 0 297 555" fill="none" xmlns="http://www.w3.org/2000/svg">
<g opacity="0.8">
<rect width="29.9896" height="29.9896" transform="matrix(-0.707107 -0.707107 -0.707107 0.707107 252.412 21.2061)" fill="#13C2C2"/>
<path d="M50 494C50 357.586 160.586 247 297 247C433.414 247 544 357.586 544 494C544 630.414 433.414 741 297 741C160.586 741 50 630.414 50 494Z" stroke="#D6E4FF" stroke-width="100"/>
<path d="M133.385 494.115C133.385 403.69 206.689 330.385 297.115 330.385C387.54 330.385 460.844 403.689 460.844 494.115C460.844 584.54 387.54 657.844 297.115 657.844C206.69 657.844 133.385 584.54 133.385 494.115Z" stroke="#85A5FF" stroke-width="100"/>
<path d="M163 494C163 419.994 222.994 360 297 360C371.006 360 431 419.994 431 494C431 568.006 371.006 628 297 628C222.994 628 163 568.006 163 494Z" fill="#10239E"/>
<mask id="mask0" mask-type="alpha" maskUnits="userSpaceOnUse" x="73" y="21" width="108" height="107">
<circle cx="127.5" cy="74.5" r="53.5" transform="rotate(-90 127.5 74.5)" fill="#FF0025"/>
</mask>
<g mask="url(#mask0)">
<ellipse rx="1.22895" ry="1.23073" transform="matrix(0.0174776 -0.999847 0.999848 0.0174273 76.1737 127.103)" fill="#FFC901"/>
<ellipse rx="1.22896" ry="1.23073" transform="matrix(0.0174775 -0.999847 0.999848 0.0174274 76.1736 122.18)" fill="#FFC901"/>
<ellipse rx="1.22894" ry="1.23073" transform="matrix(0.0174777 -0.999847 0.999848 0.0174271 76.1736 117.258)" fill="#FFC901"/>
<ellipse rx="1.22896" ry="1.23073" transform="matrix(0.0174775 -0.999847 0.999848 0.0174274 76.1736 112.335)" fill="#FFC901"/>
<ellipse rx="1.22896" ry="1.23073" transform="matrix(0.0174775 -0.999847 0.999848 0.0174274 76.1736 107.411)" fill="#FFC901"/>
<ellipse rx="1.22896" ry="1.23073" transform="matrix(0.0174774 -0.999847 0.999848 0.0174274 76.1736 102.488)" fill="#FFC901"/>
<ellipse rx="1.22896" ry="1.23073" transform="matrix(0.0174775 -0.999847 0.999848 0.0174274 76.1735 97.5656)" fill="#FFC901"/>
<ellipse rx="1.22895" ry="1.23073" transform="matrix(0.0174775 -0.999847 0.999848 0.0174274 76.1736 92.6423)" fill="#FFC901"/>
<ellipse rx="1.22895" ry="1.23073" transform="matrix(0.0174776 -0.999847 0.999848 0.0174272 76.1736 87.7194)" fill="#FFC901"/>
<ellipse rx="1.22896" ry="1.23073" transform="matrix(0.0174774 -0.999847 0.999848 0.0174275 76.1736 82.7961)" fill="#FFC901"/>
<ellipse rx="1.22896" ry="1.23073" transform="matrix(0.0174775 -0.999847 0.999848 0.0174274 76.1736 77.8732)" fill="#FFC901"/>
<ellipse rx="1.22896" ry="1.23073" transform="matrix(0.0174775 -0.999847 0.999848 0.0174274 76.1737 72.9504)" fill="#FFC901"/>
<ellipse rx="1.22895" ry="1.23073" transform="matrix(0.0174776 -0.999847 0.999848 0.0174273 76.1735 68.0276)" fill="#FFC901"/>
<ellipse rx="1.22895" ry="1.23073" transform="matrix(0.0174776 -0.999847 0.999848 0.0174273 76.1736 63.1037)" fill="#FFC901"/>
<ellipse rx="1.22893" ry="1.23073" transform="matrix(0.0174779 -0.999847 0.999848 0.017427 76.1736 58.1814)" fill="#FFC901"/>
<ellipse rx="1.22896" ry="1.23073" transform="matrix(0.0174775 -0.999847 0.999848 0.0174274 76.1736 53.258)" fill="#FFC901"/>
<ellipse rx="1.22896" ry="1.23073" transform="matrix(0.0174774 -0.999847 0.999848 0.0174275 76.1736 48.3356)" fill="#FFC901"/>
<ellipse rx="1.22899" ry="1.23073" transform="matrix(0.017477 -0.999847 0.999848 0.0174278 76.1735 43.4118)" fill="#FFC901"/>
<ellipse rx="1.22896" ry="1.23073" transform="matrix(0.0174775 -0.999847 0.999848 0.0174274 76.1737 38.4885)" fill="#FFC901"/>
<ellipse rx="1.22895" ry="1.23073" transform="matrix(0.0174776 -0.999847 0.999848 0.0174273 76.1736 33.5661)" fill="#FFC901"/>
<ellipse rx="1.22894" ry="1.23073" transform="matrix(0.0174777 -0.999847 0.999848 0.0174271 76.1735 28.6428)" fill="#FFC901"/>
<ellipse rx="1.22894" ry="1.23073" transform="matrix(0.0174777 -0.999847 0.999848 0.0174271 76.1737 23.7199)" fill="#FFC901"/>
<ellipse rx="1.22895" ry="1.23072" transform="matrix(0.0174775 -0.999847 0.999848 0.0174274 81.0965 127.104)" fill="#FFC901"/>
<ellipse rx="1.22896" ry="1.23072" transform="matrix(0.0174774 -0.999847 0.999848 0.0174275 81.0965 122.18)" fill="#FFC901"/>
<ellipse rx="1.22894" ry="1.23072" transform="matrix(0.0174777 -0.999847 0.999848 0.0174272 81.0965 117.258)" fill="#FFC901"/>
<ellipse rx="1.22896" ry="1.23072" transform="matrix(0.0174774 -0.999847 0.999848 0.0174275 81.0965 112.335)" fill="#FFC901"/>
<ellipse rx="1.22896" ry="1.23072" transform="matrix(0.0174774 -0.999847 0.999848 0.0174274 81.0965 107.411)" fill="#FFC901"/>
<ellipse rx="1.22895" ry="1.23072" transform="matrix(0.0174775 -0.999847 0.999848 0.0174274 81.0965 102.488)" fill="#FFC901"/>
<ellipse rx="1.22896" ry="1.23072" transform="matrix(0.0174774 -0.999847 0.999848 0.0174275 81.0965 97.5656)" fill="#FFC901"/>
<ellipse rx="1.22895" ry="1.23072" transform="matrix(0.0174775 -0.999847 0.999848 0.0174273 81.0965 92.6423)" fill="#FFC901"/>
<ellipse rx="1.22895" ry="1.23072" transform="matrix(0.0174775 -0.999847 0.999848 0.0174274 81.0965 87.7194)" fill="#FFC901"/>
<ellipse rx="1.22896" ry="1.23072" transform="matrix(0.0174773 -0.999847 0.999848 0.0174276 81.0965 82.7961)" fill="#FFC901"/>
<ellipse rx="1.22895" ry="1.23072" transform="matrix(0.0174775 -0.999847 0.999848 0.0174274 81.0965 77.8732)" fill="#FFC901"/>
<ellipse rx="1.22896" ry="1.23072" transform="matrix(0.0174773 -0.999847 0.999848 0.0174275 81.0965 72.9504)" fill="#FFC901"/>
<ellipse rx="1.22895" ry="1.23072" transform="matrix(0.0174776 -0.999847 0.999848 0.0174273 81.0965 68.0276)" fill="#FFC901"/>
<ellipse rx="1.22896" ry="1.23072" transform="matrix(0.0174774 -0.999847 0.999848 0.0174274 81.0965 63.1042)" fill="#FFC901"/>
<ellipse rx="1.22895" ry="1.23072" transform="matrix(0.0174776 -0.999847 0.999848 0.0174273 81.0965 58.1814)" fill="#FFC901"/>
<ellipse rx="1.22897" ry="1.23072" transform="matrix(0.0174773 -0.999847 0.999848 0.0174276 81.0965 53.258)" fill="#FFC901"/>
<ellipse rx="1.22896" ry="1.23072" transform="matrix(0.0174774 -0.999847 0.999848 0.0174275 81.0965 48.3356)" fill="#FFC901"/>
<ellipse rx="1.22897" ry="1.23072" transform="matrix(0.0174773 -0.999847 0.999848 0.0174276 81.0965 43.4118)" fill="#FFC901"/>
<ellipse rx="1.22896" ry="1.23072" transform="matrix(0.0174774 -0.999847 0.999848 0.0174275 81.0965 38.489)" fill="#FFC901"/>
<ellipse rx="1.22895" ry="1.23072" transform="matrix(0.0174775 -0.999847 0.999848 0.0174273 81.0965 33.5661)" fill="#FFC901"/>
<ellipse rx="1.22894" ry="1.23072" transform="matrix(0.0174777 -0.999847 0.999848 0.0174272 81.0965 28.6428)" fill="#FFC901"/>
<ellipse rx="1.22895" ry="1.23072" transform="matrix(0.0174775 -0.999847 0.999848 0.0174274 81.0965 23.7199)" fill="#FFC901"/>
<ellipse rx="1.22895" ry="1.23073" transform="matrix(0.0174775 -0.999847 0.999848 0.0174274 86.0195 127.104)" fill="#FFC901"/>
<ellipse rx="1.22896" ry="1.23073" transform="matrix(0.0174774 -0.999847 0.999848 0.0174274 86.0195 122.18)" fill="#FFC901"/>
<ellipse rx="1.22895" ry="1.23073" transform="matrix(0.0174775 -0.999847 0.999848 0.0174273 86.0195 117.258)" fill="#FFC901"/>
<ellipse rx="1.22896" ry="1.23073" transform="matrix(0.0174775 -0.999847 0.999848 0.0174274 86.0195 112.335)" fill="#FFC901"/>
<ellipse rx="1.22896" ry="1.23073" transform="matrix(0.0174775 -0.999847 0.999848 0.0174274 86.0195 107.411)" fill="#FFC901"/>
<ellipse rx="1.22895" ry="1.23073" transform="matrix(0.0174775 -0.999847 0.999848 0.0174273 86.0195 102.488)" fill="#FFC901"/>
<ellipse rx="1.22896" ry="1.23073" transform="matrix(0.0174775 -0.999847 0.999848 0.0174274 86.0195 97.5656)" fill="#FFC901"/>
<ellipse rx="1.22896" ry="1.23073" transform="matrix(0.0174775 -0.999847 0.999848 0.0174274 86.0195 92.6423)" fill="#FFC901"/>
<ellipse rx="1.22895" ry="1.23073" transform="matrix(0.0174776 -0.999847 0.999848 0.0174272 86.0195 87.7194)" fill="#FFC901"/>
<ellipse rx="1.22896" ry="1.23073" transform="matrix(0.0174774 -0.999847 0.999848 0.0174275 86.0195 82.7961)" fill="#FFC901"/>
<ellipse rx="1.22895" ry="1.23073" transform="matrix(0.0174775 -0.999847 0.999848 0.0174273 86.0195 77.8732)" fill="#FFC901"/>
<ellipse rx="1.22897" ry="1.23073" transform="matrix(0.0174773 -0.999847 0.999848 0.0174276 86.0195 72.9504)" fill="#FFC901"/>
<ellipse rx="1.22893" ry="1.23073" transform="matrix(0.0174779 -0.999847 0.999848 0.017427 86.0195 68.0276)" fill="#FFC901"/>
<ellipse rx="1.22895" ry="1.23073" transform="matrix(0.0174775 -0.999847 0.999848 0.0174273 86.0194 63.1042)" fill="#FFC901"/>
<ellipse rx="1.22895" ry="1.23072" transform="matrix(0.0174776 -0.999847 0.999848 0.0174273 86.0195 58.1814)" fill="#FFC901"/>
<ellipse rx="1.22898" ry="1.23073" transform="matrix(0.0174772 -0.999847 0.999848 0.0174277 86.0195 53.258)" fill="#FFC901"/>
<ellipse rx="1.22896" ry="1.23072" transform="matrix(0.0174774 -0.999847 0.999848 0.0174275 86.0195 48.3356)" fill="#FFC901"/>
<ellipse rx="1.22898" ry="1.23073" transform="matrix(0.0174771 -0.999847 0.999848 0.0174277 86.0195 43.4123)" fill="#FFC901"/>
<ellipse rx="1.22896" ry="1.23073" transform="matrix(0.0174775 -0.999847 0.999848 0.0174274 86.0195 38.489)" fill="#FFC901"/>
<ellipse rx="1.22895" ry="1.23073" transform="matrix(0.0174776 -0.999847 0.999848 0.0174273 86.0194 33.5661)" fill="#FFC901"/>
<ellipse rx="1.22895" ry="1.23073" transform="matrix(0.0174776 -0.999847 0.999848 0.0174272 86.0195 28.6428)" fill="#FFC901"/>
<ellipse rx="1.22895" ry="1.23073" transform="matrix(0.0174776 -0.999847 0.999848 0.0174272 86.0194 23.7199)" fill="#FFC901"/>
<ellipse rx="1.22896" ry="1.23073" transform="matrix(0.0174775 -0.999847 0.999848 0.0174274 90.9422 127.103)" fill="#FFC901"/>
<ellipse rx="1.22896" ry="1.23073" transform="matrix(0.0174775 -0.999847 0.999848 0.0174274 90.9421 122.18)" fill="#FFC901"/>
<ellipse rx="1.22895" ry="1.23073" transform="matrix(0.0174776 -0.999847 0.999848 0.0174273 90.9421 117.258)" fill="#FFC901"/>
<ellipse rx="1.22896" ry="1.23073" transform="matrix(0.0174775 -0.999847 0.999848 0.0174274 90.9422 112.335)" fill="#FFC901"/>
<ellipse rx="1.22896" ry="1.23073" transform="matrix(0.0174775 -0.999847 0.999848 0.0174274 90.9421 107.411)" fill="#FFC901"/>
<ellipse rx="1.22896" ry="1.23073" transform="matrix(0.0174775 -0.999847 0.999848 0.0174274 90.9421 102.488)" fill="#FFC901"/>
<ellipse rx="1.22896" ry="1.23073" transform="matrix(0.0174775 -0.999847 0.999848 0.0174274 90.9422 97.5656)" fill="#FFC901"/>
<ellipse rx="1.22895" ry="1.23073" transform="matrix(0.0174776 -0.999847 0.999848 0.0174273 90.9421 92.6423)" fill="#FFC901"/>
<ellipse rx="1.22895" ry="1.23073" transform="matrix(0.0174777 -0.999847 0.999848 0.0174272 90.9421 87.7194)" fill="#FFC901"/>
<ellipse rx="1.22896" ry="1.23073" transform="matrix(0.0174774 -0.999847 0.999848 0.0174275 90.9421 82.7961)" fill="#FFC901"/>
<ellipse rx="1.22896" ry="1.23073" transform="matrix(0.0174774 -0.999847 0.999848 0.0174275 90.9421 77.8737)" fill="#FFC901"/>
<ellipse rx="1.22897" ry="1.23073" transform="matrix(0.0174773 -0.999847 0.999848 0.0174276 90.9421 72.9504)" fill="#FFC901"/>
<ellipse rx="1.22893" ry="1.23073" transform="matrix(0.0174779 -0.999847 0.999848 0.017427 90.9421 68.0276)" fill="#FFC901"/>
<ellipse rx="1.22895" ry="1.23073" transform="matrix(0.0174775 -0.999847 0.999848 0.0174274 90.9421 63.1042)" fill="#FFC901"/>
<ellipse rx="1.22896" ry="1.23072" transform="matrix(0.0174773 -0.999847 0.999848 0.0174275 90.9421 58.1813)" fill="#FFC901"/>
<ellipse rx="1.22898" ry="1.23073" transform="matrix(0.0174772 -0.999847 0.999848 0.0174277 90.9422 53.258)" fill="#FFC901"/>
<ellipse rx="1.22895" ry="1.23072" transform="matrix(0.0174776 -0.999847 0.999848 0.0174273 90.9422 48.3357)" fill="#FFC901"/>
<ellipse rx="1.22898" ry="1.23073" transform="matrix(0.0174772 -0.999847 0.999848 0.0174277 90.9421 43.4118)" fill="#FFC901"/>
<ellipse rx="1.22896" ry="1.23073" transform="matrix(0.0174775 -0.999847 0.999848 0.0174274 90.9421 38.4885)" fill="#FFC901"/>
<ellipse rx="1.22894" ry="1.23072" transform="matrix(0.0174777 -0.999847 0.999848 0.0174272 90.9421 33.5661)" fill="#FFC901"/>
<ellipse rx="1.22894" ry="1.23073" transform="matrix(0.0174777 -0.999847 0.999848 0.0174272 90.9421 28.6428)" fill="#FFC901"/>
<ellipse rx="1.22895" ry="1.23073" transform="matrix(0.0174775 -0.999847 0.999848 0.0174273 90.9422 23.7199)" fill="#FFC901"/>
<ellipse rx="1.22895" ry="1.23073" transform="matrix(0.0174775 -0.999847 0.999848 0.0174274 95.8651 127.103)" fill="#FFC901"/>
<ellipse rx="1.22895" ry="1.23073" transform="matrix(0.0174776 -0.999847 0.999848 0.0174273 95.8651 122.18)" fill="#FFC901"/>
<ellipse rx="1.22895" ry="1.23072" transform="matrix(0.0174775 -0.999847 0.999848 0.0174273 95.8651 117.258)" fill="#FFC901"/>
<ellipse rx="1.22895" ry="1.23073" transform="matrix(0.0174776 -0.999847 0.999848 0.0174273 95.8651 112.335)" fill="#FFC901"/>
<ellipse rx="1.22896" ry="1.23073" transform="matrix(0.0174775 -0.999847 0.999848 0.0174274 95.8651 107.411)" fill="#FFC901"/>
<ellipse rx="1.22895" ry="1.23072" transform="matrix(0.0174775 -0.999847 0.999848 0.0174274 95.8651 102.488)" fill="#FFC901"/>
<ellipse rx="1.22896" ry="1.23072" transform="matrix(0.0174774 -0.999847 0.999848 0.0174275 95.8651 97.5656)" fill="#FFC901"/>
<ellipse rx="1.22895" ry="1.23072" transform="matrix(0.0174775 -0.999847 0.999848 0.0174274 95.8651 92.6423)" fill="#FFC901"/>
<ellipse rx="1.22895" ry="1.23072" transform="matrix(0.0174776 -0.999847 0.999848 0.0174273 95.8651 87.7194)" fill="#FFC901"/>
<ellipse rx="1.22896" ry="1.23072" transform="matrix(0.0174773 -0.999847 0.999848 0.0174276 95.8651 82.7961)" fill="#FFC901"/>
<ellipse rx="1.22897" ry="1.23073" transform="matrix(0.0174773 -0.999847 0.999848 0.0174275 95.8651 77.8737)" fill="#FFC901"/>
<ellipse rx="1.22896" ry="1.23072" transform="matrix(0.0174774 -0.999847 0.999848 0.0174275 95.8651 72.9504)" fill="#FFC901"/>
<ellipse rx="1.22894" ry="1.23073" transform="matrix(0.0174777 -0.999847 0.999848 0.0174271 95.8651 68.0276)" fill="#FFC901"/>
<ellipse rx="1.22894" ry="1.23073" transform="matrix(0.0174777 -0.999847 0.999848 0.0174272 95.8651 63.1042)" fill="#FFC901"/>
<ellipse rx="1.22895" ry="1.23072" transform="matrix(0.0174776 -0.999847 0.999848 0.0174273 95.8651 58.1814)" fill="#FFC901"/>
<ellipse rx="1.22897" ry="1.23072" transform="matrix(0.0174772 -0.999847 0.999848 0.0174276 95.8651 53.258)" fill="#FFC901"/>
<ellipse rx="1.22895" ry="1.23072" transform="matrix(0.0174776 -0.999847 0.999848 0.0174273 95.8651 48.3357)" fill="#FFC901"/>
<ellipse rx="1.22898" ry="1.23072" transform="matrix(0.0174771 -0.999847 0.999848 0.0174278 95.8651 43.4118)" fill="#FFC901"/>
<ellipse rx="1.22897" ry="1.23073" transform="matrix(0.0174773 -0.999847 0.999848 0.0174276 95.8651 38.489)" fill="#FFC901"/>
<ellipse rx="1.22894" ry="1.23072" transform="matrix(0.0174776 -0.999847 0.999848 0.0174272 95.8651 33.5661)" fill="#FFC901"/>
<ellipse rx="1.22894" ry="1.23073" transform="matrix(0.0174777 -0.999847 0.999848 0.0174272 95.8651 28.6428)" fill="#FFC901"/>
<ellipse rx="1.22895" ry="1.23072" transform="matrix(0.0174776 -0.999847 0.999848 0.0174273 95.8651 23.7199)" fill="#FFC901"/>
<ellipse rx="1.22895" ry="1.23073" transform="matrix(0.0174776 -0.999847 0.999848 0.0174273 100.788 127.104)" fill="#FFC901"/>
<ellipse rx="1.22895" ry="1.23073" transform="matrix(0.0174775 -0.999847 0.999848 0.0174273 100.788 122.18)" fill="#FFC901"/>
<ellipse rx="1.22895" ry="1.23073" transform="matrix(0.0174776 -0.999847 0.999848 0.0174273 100.788 117.258)" fill="#FFC901"/>
<ellipse rx="1.22896" ry="1.23073" transform="matrix(0.0174775 -0.999847 0.999848 0.0174273 100.788 112.335)" fill="#FFC901"/>
<ellipse rx="1.22895" ry="1.23073" transform="matrix(0.0174776 -0.999847 0.999848 0.0174273 100.788 107.411)" fill="#FFC901"/>
<ellipse rx="1.22895" ry="1.23073" transform="matrix(0.0174775 -0.999847 0.999848 0.0174273 100.788 102.488)" fill="#FFC901"/>
<ellipse rx="1.22897" ry="1.23073" transform="matrix(0.0174774 -0.999847 0.999848 0.0174275 100.788 97.5656)" fill="#FFC901"/>
<ellipse rx="1.22895" ry="1.23072" transform="matrix(0.0174775 -0.999847 0.999848 0.0174274 100.788 92.6423)" fill="#FFC901"/>
<ellipse rx="1.22895" ry="1.23073" transform="matrix(0.0174776 -0.999847 0.999848 0.0174272 100.788 87.7194)" fill="#FFC901"/>
<ellipse rx="1.22896" ry="1.23073" transform="matrix(0.0174774 -0.999847 0.999848 0.0174275 100.788 82.7961)" fill="#FFC901"/>
<ellipse rx="1.22896" ry="1.23073" transform="matrix(0.0174774 -0.999847 0.999848 0.0174275 100.788 77.8732)" fill="#FFC901"/>
<ellipse rx="1.22896" ry="1.23072" transform="matrix(0.0174773 -0.999847 0.999848 0.0174276 100.788 72.9504)" fill="#FFC901"/>
<ellipse rx="1.22894" ry="1.23073" transform="matrix(0.0174778 -0.999847 0.999848 0.0174271 100.788 68.0276)" fill="#FFC901"/>
<ellipse rx="1.22897" ry="1.23072" transform="matrix(0.0174772 -0.999847 0.999848 0.0174277 100.788 63.1042)" fill="#FFC901"/>
<ellipse rx="1.22897" ry="1.23073" transform="matrix(0.0174773 -0.999847 0.999848 0.0174276 100.788 58.1813)" fill="#FFC901"/>
<ellipse rx="1.22897" ry="1.23073" transform="matrix(0.0174773 -0.999847 0.999848 0.0174276 100.788 53.258)" fill="#FFC901"/>
<ellipse rx="1.22895" ry="1.23073" transform="matrix(0.0174776 -0.999847 0.999848 0.0174273 100.788 48.3357)" fill="#FFC901"/>
<ellipse rx="1.22896" ry="1.23072" transform="matrix(0.0174774 -0.999847 0.999848 0.0174274 100.788 43.4118)" fill="#FFC901"/>
<ellipse rx="1.22896" ry="1.23073" transform="matrix(0.0174775 -0.999847 0.999848 0.0174274 100.788 38.4885)" fill="#FFC901"/>
<ellipse rx="1.22895" ry="1.23073" transform="matrix(0.0174776 -0.999847 0.999848 0.0174273 100.788 33.5661)" fill="#FFC901"/>
<ellipse rx="1.22895" ry="1.23073" transform="matrix(0.0174777 -0.999847 0.999848 0.0174272 100.788 28.6428)" fill="#FFC901"/>
<ellipse rx="1.22895" ry="1.23073" transform="matrix(0.0174775 -0.999847 0.999848 0.0174274 100.788 23.7199)" fill="#FFC901"/>
<ellipse rx="1.22896" ry="1.23073" transform="matrix(0.0174775 -0.999847 0.999848 0.0174274 105.711 127.104)" fill="#FFC901"/>
<ellipse rx="1.22895" ry="1.23073" transform="matrix(0.0174775 -0.999847 0.999848 0.0174273 105.711 122.18)" fill="#FFC901"/>
<ellipse rx="1.22895" ry="1.23073" transform="matrix(0.0174776 -0.999847 0.999848 0.0174273 105.711 117.258)" fill="#FFC901"/>
<ellipse rx="1.22896" ry="1.23073" transform="matrix(0.0174775 -0.999847 0.999848 0.0174274 105.711 112.335)" fill="#FFC901"/>
<ellipse rx="1.22895" ry="1.23073" transform="matrix(0.0174776 -0.999847 0.999848 0.0174273 105.711 107.411)" fill="#FFC901"/>
<ellipse rx="1.22896" ry="1.23073" transform="matrix(0.0174775 -0.999847 0.999848 0.0174274 105.711 102.488)" fill="#FFC901"/>
<ellipse rx="1.22896" ry="1.23073" transform="matrix(0.0174774 -0.999847 0.999848 0.0174275 105.711 97.5656)" fill="#FFC901"/>
<ellipse rx="1.22895" ry="1.23073" transform="matrix(0.0174776 -0.999847 0.999848 0.0174273 105.711 92.6423)" fill="#FFC901"/>
<ellipse rx="1.22895" ry="1.23073" transform="matrix(0.0174777 -0.999847 0.999848 0.0174272 105.711 87.7194)" fill="#FFC901"/>
<ellipse rx="1.22896" ry="1.23073" transform="matrix(0.0174775 -0.999847 0.999848 0.0174274 105.711 82.7961)" fill="#FFC901"/>
<ellipse rx="1.22896" ry="1.23073" transform="matrix(0.0174774 -0.999847 0.999848 0.0174275 105.711 77.8737)" fill="#FFC901"/>
<ellipse rx="1.22896" ry="1.23073" transform="matrix(0.0174774 -0.999847 0.999848 0.0174275 105.711 72.9504)" fill="#FFC901"/>
<ellipse rx="1.22893" ry="1.23073" transform="matrix(0.0174778 -0.999847 0.999848 0.017427 105.711 68.0276)" fill="#FFC901"/>
<ellipse rx="1.22897" ry="1.23073" transform="matrix(0.0174772 -0.999847 0.999848 0.0174276 105.711 63.1042)" fill="#FFC901"/>
<ellipse rx="1.22895" ry="1.23073" transform="matrix(0.0174775 -0.999847 0.999848 0.0174273 105.711 58.1814)" fill="#FFC901"/>
<ellipse rx="1.22897" ry="1.23073" transform="matrix(0.0174773 -0.999847 0.999848 0.0174275 105.711 53.258)" fill="#FFC901"/>
<ellipse rx="1.22894" ry="1.23072" transform="matrix(0.0174776 -0.999847 0.999848 0.0174273 105.711 48.3357)" fill="#FFC901"/>
<ellipse rx="1.22896" ry="1.23073" transform="matrix(0.0174775 -0.999847 0.999848 0.0174274 105.711 43.4118)" fill="#FFC901"/>
<ellipse rx="1.22896" ry="1.23073" transform="matrix(0.0174774 -0.999847 0.999848 0.0174275 105.711 38.489)" fill="#FFC901"/>
<ellipse rx="1.22895" ry="1.23073" transform="matrix(0.0174776 -0.999847 0.999848 0.0174273 105.711 33.5661)" fill="#FFC901"/>
<ellipse rx="1.22895" ry="1.23073" transform="matrix(0.0174776 -0.999847 0.999848 0.0174272 105.711 28.6428)" fill="#FFC901"/>
<ellipse rx="1.22895" ry="1.23072" transform="matrix(0.0174775 -0.999847 0.999848 0.0174273 105.711 23.7199)" fill="#FFC901"/>
<ellipse rx="1.22895" ry="1.23072" transform="matrix(0.0174775 -0.999847 0.999848 0.0174274 110.634 127.104)" fill="#FFC901"/>
<ellipse rx="1.22895" ry="1.23073" transform="matrix(0.0174776 -0.999847 0.999848 0.0174273 110.634 122.18)" fill="#FFC901"/>
<ellipse rx="1.22895" ry="1.23073" transform="matrix(0.0174776 -0.999847 0.999848 0.0174272 110.634 117.258)" fill="#FFC901"/>
<ellipse rx="1.22896" ry="1.23072" transform="matrix(0.0174774 -0.999847 0.999848 0.0174274 110.634 112.335)" fill="#FFC901"/>
<ellipse rx="1.22895" ry="1.23073" transform="matrix(0.0174775 -0.999847 0.999848 0.0174273 110.634 107.411)" fill="#FFC901"/>
<ellipse rx="1.22896" ry="1.23073" transform="matrix(0.0174774 -0.999847 0.999848 0.0174275 110.634 102.488)" fill="#FFC901"/>
<ellipse rx="1.22896" ry="1.23073" transform="matrix(0.0174775 -0.999847 0.999848 0.0174274 110.634 97.5656)" fill="#FFC901"/>
<ellipse rx="1.22895" ry="1.23073" transform="matrix(0.0174777 -0.999847 0.999848 0.0174272 110.634 92.6423)" fill="#FFC901"/>
<ellipse rx="1.22895" ry="1.23073" transform="matrix(0.0174776 -0.999847 0.999848 0.0174272 110.634 87.7194)" fill="#FFC901"/>
<ellipse rx="1.22896" ry="1.23073" transform="matrix(0.0174774 -0.999847 0.999848 0.0174275 110.634 82.7961)" fill="#FFC901"/>
<ellipse rx="1.22895" ry="1.23072" transform="matrix(0.0174775 -0.999847 0.999848 0.0174274 110.634 77.8732)" fill="#FFC901"/>
<ellipse rx="1.22896" ry="1.23072" transform="matrix(0.0174774 -0.999847 0.999848 0.0174275 110.634 72.9504)" fill="#FFC901"/>
<ellipse rx="1.22893" ry="1.23072" transform="matrix(0.0174777 -0.999847 0.999848 0.0174272 110.634 68.0276)" fill="#FFC901"/>
<ellipse rx="1.22896" ry="1.23073" transform="matrix(0.0174774 -0.999847 0.999848 0.0174274 110.634 63.1042)" fill="#FFC901"/>
<ellipse rx="1.22894" ry="1.23073" transform="matrix(0.0174777 -0.999847 0.999848 0.0174272 110.634 58.1814)" fill="#FFC901"/>
<ellipse rx="1.22896" ry="1.23072" transform="matrix(0.0174773 -0.999847 0.999848 0.0174276 110.634 53.258)" fill="#FFC901"/>
<ellipse rx="1.22895" ry="1.23073" transform="matrix(0.0174775 -0.999847 0.999848 0.0174273 110.634 48.3352)" fill="#FFC901"/>
<ellipse rx="1.22897" ry="1.23073" transform="matrix(0.0174773 -0.999847 0.999848 0.0174276 110.634 43.4123)" fill="#FFC901"/>
<ellipse rx="1.22896" ry="1.23073" transform="matrix(0.0174774 -0.999847 0.999848 0.0174275 110.634 38.489)" fill="#FFC901"/>
<ellipse rx="1.22895" ry="1.23072" transform="matrix(0.0174775 -0.999847 0.999848 0.0174274 110.634 33.5661)" fill="#FFC901"/>
<ellipse rx="1.22895" ry="1.23073" transform="matrix(0.0174776 -0.999847 0.999848 0.0174272 110.634 28.6428)" fill="#FFC901"/>
<ellipse rx="1.22895" ry="1.23072" transform="matrix(0.0174776 -0.999847 0.999848 0.0174273 110.634 23.7194)" fill="#FFC901"/>
<ellipse rx="1.22896" ry="1.23074" transform="matrix(0.0174777 -0.999847 0.999848 0.0174272 115.557 127.104)" fill="#FFC901"/>
<ellipse rx="1.22895" ry="1.23074" transform="matrix(0.0174778 -0.999847 0.999848 0.0174271 115.557 122.18)" fill="#FFC901"/>
<ellipse rx="1.22895" ry="1.23073" transform="matrix(0.0174777 -0.999847 0.999848 0.0174272 115.557 117.258)" fill="#FFC901"/>
<ellipse rx="1.22896" ry="1.23074" transform="matrix(0.0174777 -0.999847 0.999848 0.0174272 115.557 112.335)" fill="#FFC901"/>
<ellipse rx="1.22894" ry="1.23074" transform="matrix(0.0174778 -0.999847 0.999848 0.0174271 115.557 107.411)" fill="#FFC901"/>
<ellipse rx="1.22896" ry="1.23074" transform="matrix(0.0174776 -0.999847 0.999848 0.0174273 115.557 102.488)" fill="#FFC901"/>
<ellipse rx="1.22896" ry="1.23073" transform="matrix(0.0174775 -0.999847 0.999848 0.0174273 115.557 97.5656)" fill="#FFC901"/>
<ellipse rx="1.22895" ry="1.23074" transform="matrix(0.0174777 -0.999847 0.999848 0.0174272 115.557 92.6423)" fill="#FFC901"/>
<ellipse rx="1.22895" ry="1.23074" transform="matrix(0.0174778 -0.999847 0.999848 0.0174271 115.557 87.7194)" fill="#FFC901"/>
<ellipse rx="1.22896" ry="1.23074" transform="matrix(0.0174775 -0.999847 0.999848 0.0174273 115.557 82.7961)" fill="#FFC901"/>
<ellipse rx="1.22896" ry="1.23074" transform="matrix(0.0174775 -0.999847 0.999848 0.0174273 115.557 77.8737)" fill="#FFC901"/>
<ellipse rx="1.22896" ry="1.23073" transform="matrix(0.0174775 -0.999847 0.999848 0.0174274 115.557 72.9504)" fill="#FFC901"/>
<ellipse rx="1.22895" ry="1.23074" transform="matrix(0.0174777 -0.999847 0.999848 0.0174272 115.557 68.0275)" fill="#FFC901"/>
<ellipse rx="1.22896" ry="1.23074" transform="matrix(0.0174775 -0.999847 0.999848 0.0174273 115.557 63.1042)" fill="#FFC901"/>
<ellipse rx="1.22896" ry="1.23074" transform="matrix(0.0174776 -0.999847 0.999848 0.0174273 115.557 58.1814)" fill="#FFC901"/>
<ellipse rx="1.22898" ry="1.23074" transform="matrix(0.0174772 -0.999847 0.999848 0.0174277 115.557 53.258)" fill="#FFC901"/>
<ellipse rx="1.22894" ry="1.23074" transform="matrix(0.0174778 -0.999847 0.999848 0.0174271 115.557 48.3357)" fill="#FFC901"/>
<ellipse rx="1.22896" ry="1.23074" transform="matrix(0.0174775 -0.999847 0.999848 0.0174273 115.557 43.4118)" fill="#FFC901"/>
<ellipse rx="1.22894" ry="1.23073" transform="matrix(0.0174778 -0.999847 0.999848 0.0174271 115.557 38.4885)" fill="#FFC901"/>
<ellipse rx="1.22895" ry="1.23074" transform="matrix(0.0174777 -0.999847 0.999848 0.0174271 115.557 33.5661)" fill="#FFC901"/>
<ellipse rx="1.22895" ry="1.23074" transform="matrix(0.0174777 -0.999847 0.999848 0.0174271 115.557 28.6428)" fill="#FFC901"/>
<ellipse rx="1.22895" ry="1.23074" transform="matrix(0.0174777 -0.999847 0.999848 0.0174271 115.557 23.7199)" fill="#FFC901"/>
<ellipse rx="1.22895" ry="1.23072" transform="matrix(0.0174775 -0.999847 0.999848 0.0174273 120.48 127.104)" fill="#FFC901"/>
<ellipse rx="1.22895" ry="1.23072" transform="matrix(0.0174775 -0.999847 0.999848 0.0174274 120.48 122.18)" fill="#FFC901"/>
<ellipse rx="1.22895" ry="1.23072" transform="matrix(0.0174775 -0.999847 0.999848 0.0174274 120.48 117.258)" fill="#FFC901"/>
<ellipse rx="1.22895" ry="1.23072" transform="matrix(0.0174774 -0.999847 0.999848 0.0174275 120.48 112.335)" fill="#FFC901"/>
<ellipse rx="1.22896" ry="1.23072" transform="matrix(0.0174773 -0.999847 0.999848 0.0174275 120.48 107.411)" fill="#FFC901"/>
<ellipse rx="1.22896" ry="1.23072" transform="matrix(0.0174773 -0.999847 0.999848 0.0174276 120.48 102.488)" fill="#FFC901"/>
<ellipse rx="1.22896" ry="1.23072" transform="matrix(0.0174773 -0.999847 0.999848 0.0174276 120.48 97.5656)" fill="#FFC901"/>
<ellipse rx="1.22896" ry="1.23072" transform="matrix(0.0174773 -0.999847 0.999848 0.0174275 120.48 92.6423)" fill="#FFC901"/>
<ellipse rx="1.22895" ry="1.23072" transform="matrix(0.0174775 -0.999847 0.999848 0.0174273 120.48 87.7194)" fill="#FFC901"/>
<ellipse rx="1.22896" ry="1.23072" transform="matrix(0.0174774 -0.999847 0.999848 0.0174275 120.48 82.7961)" fill="#FFC901"/>
<ellipse rx="1.22896" ry="1.23072" transform="matrix(0.0174773 -0.999847 0.999848 0.0174275 120.48 77.8732)" fill="#FFC901"/>
<ellipse rx="1.22896" ry="1.23072" transform="matrix(0.0174773 -0.999847 0.999848 0.0174276 120.48 72.9504)" fill="#FFC901"/>
<ellipse rx="1.22894" ry="1.23073" transform="matrix(0.0174778 -0.999847 0.999848 0.017427 120.48 68.0276)" fill="#FFC901"/>
<ellipse rx="1.22896" ry="1.23072" transform="matrix(0.0174773 -0.999847 0.999848 0.0174276 120.48 63.1042)" fill="#FFC901"/>
<ellipse rx="1.22896" ry="1.23072" transform="matrix(0.0174774 -0.999847 0.999848 0.0174275 120.48 58.1814)" fill="#FFC901"/>
<ellipse rx="1.22896" ry="1.23072" transform="matrix(0.0174773 -0.999847 0.999848 0.0174276 120.48 53.258)" fill="#FFC901"/>
<ellipse rx="1.22896" ry="1.23072" transform="matrix(0.0174773 -0.999847 0.999848 0.0174276 120.48 48.3356)" fill="#FFC901"/>
<ellipse rx="1.22896" ry="1.23072" transform="matrix(0.0174774 -0.999847 0.999848 0.0174275 120.48 43.4118)" fill="#FFC901"/>
<ellipse rx="1.22894" ry="1.23072" transform="matrix(0.0174776 -0.999847 0.999848 0.0174273 120.48 38.489)" fill="#FFC901"/>
<ellipse rx="1.22895" ry="1.23073" transform="matrix(0.0174776 -0.999847 0.999848 0.0174273 120.48 33.5661)" fill="#FFC901"/>
<ellipse rx="1.22895" ry="1.23073" transform="matrix(0.0174776 -0.999847 0.999848 0.0174273 120.48 28.6428)" fill="#FFC901"/>
<ellipse rx="1.22896" ry="1.23072" transform="matrix(0.0174773 -0.999847 0.999848 0.0174276 120.48 23.7199)" fill="#FFC901"/>
<ellipse rx="1.22895" ry="1.23073" transform="matrix(0.0174776 -0.999847 0.999848 0.0174273 125.403 127.104)" fill="#FFC901"/>
<ellipse rx="1.22895" ry="1.23073" transform="matrix(0.0174776 -0.999847 0.999848 0.0174273 125.403 122.18)" fill="#FFC901"/>
<ellipse rx="1.22893" ry="1.23073" transform="matrix(0.0174778 -0.999847 0.999848 0.0174271 125.403 117.258)" fill="#FFC901"/>
<ellipse rx="1.22896" ry="1.23073" transform="matrix(0.0174775 -0.999847 0.999848 0.0174273 125.403 112.335)" fill="#FFC901"/>
<ellipse rx="1.22896" ry="1.23073" transform="matrix(0.0174775 -0.999847 0.999848 0.0174273 125.403 107.411)" fill="#FFC901"/>
<ellipse rx="1.22896" ry="1.23074" transform="matrix(0.0174776 -0.999847 0.999848 0.0174273 125.403 102.488)" fill="#FFC901"/>
<ellipse rx="1.22896" ry="1.23074" transform="matrix(0.0174776 -0.999847 0.999848 0.0174273 125.403 97.5656)" fill="#FFC901"/>
<ellipse rx="1.22895" ry="1.23073" transform="matrix(0.0174776 -0.999847 0.999848 0.0174273 125.403 92.6423)" fill="#FFC901"/>
<ellipse rx="1.22895" ry="1.23072" transform="matrix(0.0174776 -0.999847 0.999848 0.0174273 125.403 87.7194)" fill="#FFC901"/>
<ellipse rx="1.22896" ry="1.23073" transform="matrix(0.0174774 -0.999847 0.999848 0.0174275 125.403 82.7961)" fill="#FFC901"/>
<ellipse rx="1.22895" ry="1.23073" transform="matrix(0.0174777 -0.999847 0.999848 0.0174272 125.403 77.8733)" fill="#FFC901"/>
<ellipse rx="1.22897" ry="1.23073" transform="matrix(0.0174773 -0.999847 0.999848 0.0174276 125.403 72.9504)" fill="#FFC901"/>
<ellipse rx="1.22895" ry="1.23073" transform="matrix(0.0174776 -0.999847 0.999848 0.0174273 125.403 68.0276)" fill="#FFC901"/>
<ellipse rx="1.22896" ry="1.23074" transform="matrix(0.0174775 -0.999847 0.999848 0.0174273 125.403 63.1042)" fill="#FFC901"/>
<ellipse rx="1.22895" ry="1.23073" transform="matrix(0.0174775 -0.999847 0.999848 0.0174274 125.403 58.1814)" fill="#FFC901"/>
<ellipse rx="1.22896" ry="1.23073" transform="matrix(0.0174774 -0.999847 0.999848 0.0174275 125.403 53.258)" fill="#FFC901"/>
<ellipse rx="1.22896" ry="1.23072" transform="matrix(0.0174774 -0.999847 0.999848 0.0174275 125.403 48.3356)" fill="#FFC901"/>
<ellipse rx="1.22896" ry="1.23074" transform="matrix(0.0174776 -0.999847 0.999848 0.0174273 125.403 43.4118)" fill="#FFC901"/>
<ellipse rx="1.22895" ry="1.23073" transform="matrix(0.0174775 -0.999847 0.999848 0.0174274 125.403 38.489)" fill="#FFC901"/>
<ellipse rx="1.22895" ry="1.23073" transform="matrix(0.0174777 -0.999847 0.999848 0.0174272 125.403 33.5661)" fill="#FFC901"/>
<ellipse rx="1.22894" ry="1.23073" transform="matrix(0.0174778 -0.999847 0.999848 0.0174271 125.403 28.6428)" fill="#FFC901"/>
<ellipse rx="1.22895" ry="1.23073" transform="matrix(0.0174776 -0.999847 0.999848 0.0174273 125.403 23.7199)" fill="#FFC901"/>
<ellipse rx="1.22895" ry="1.23072" transform="matrix(0.0174775 -0.999847 0.999848 0.0174274 130.326 127.104)" fill="#FFC901"/>
<ellipse rx="1.22895" ry="1.23071" transform="matrix(0.0174774 -0.999847 0.999848 0.0174275 130.326 122.18)" fill="#FFC901"/>
<ellipse rx="1.22894" ry="1.23071" transform="matrix(0.0174775 -0.999847 0.999848 0.0174273 130.326 117.258)" fill="#FFC901"/>
<ellipse rx="1.22896" ry="1.23071" transform="matrix(0.0174773 -0.999847 0.999848 0.0174276 130.326 112.335)" fill="#FFC901"/>
<ellipse rx="1.22896" ry="1.23072" transform="matrix(0.0174774 -0.999847 0.999848 0.0174275 130.326 107.411)" fill="#FFC901"/>
<ellipse rx="1.22896" ry="1.23071" transform="matrix(0.0174773 -0.999847 0.999848 0.0174276 130.326 102.488)" fill="#FFC901"/>
<ellipse rx="1.22896" ry="1.23072" transform="matrix(0.0174773 -0.999847 0.999848 0.0174275 130.326 97.5651)" fill="#FFC901"/>
<ellipse rx="1.22896" ry="1.23071" transform="matrix(0.0174772 -0.999847 0.999848 0.0174276 130.326 92.6423)" fill="#FFC901"/>
<ellipse rx="1.22895" ry="1.23072" transform="matrix(0.0174775 -0.999847 0.999848 0.0174274 130.326 87.7194)" fill="#FFC901"/>
<ellipse rx="1.22896" ry="1.23072" transform="matrix(0.0174773 -0.999847 0.999848 0.0174276 130.326 82.7961)" fill="#FFC901"/>
<ellipse rx="1.22894" ry="1.23071" transform="matrix(0.0174775 -0.999847 0.999848 0.0174274 130.326 77.8733)" fill="#FFC901"/>
<ellipse rx="1.22897" ry="1.23071" transform="matrix(0.0174771 -0.999847 0.999848 0.0174278 130.326 72.9504)" fill="#FFC901"/>
<ellipse rx="1.22893" ry="1.23071" transform="matrix(0.0174777 -0.999847 0.999848 0.0174272 130.326 68.0271)" fill="#FFC901"/>
<ellipse rx="1.22896" ry="1.23072" transform="matrix(0.0174773 -0.999847 0.999848 0.0174276 130.326 63.1042)" fill="#FFC901"/>
<ellipse rx="1.22895" ry="1.23071" transform="matrix(0.0174773 -0.999847 0.999848 0.0174275 130.326 58.1814)" fill="#FFC901"/>
<ellipse rx="1.22898" ry="1.23071" transform="matrix(0.017477 -0.999847 0.999848 0.0174279 130.326 53.258)" fill="#FFC901"/>
<ellipse rx="1.22895" ry="1.23071" transform="matrix(0.0174773 -0.999847 0.999848 0.0174276 130.326 48.3357)" fill="#FFC901"/>
<ellipse rx="1.22898" ry="1.23071" transform="matrix(0.017477 -0.999847 0.999848 0.0174279 130.326 43.4118)" fill="#FFC901"/>
<ellipse rx="1.22896" ry="1.23072" transform="matrix(0.0174773 -0.999847 0.999848 0.0174276 130.326 38.4885)" fill="#FFC901"/>
<ellipse rx="1.22893" ry="1.23071" transform="matrix(0.0174776 -0.999847 0.999848 0.0174273 130.326 33.5661)" fill="#FFC901"/>
<ellipse rx="1.22895" ry="1.23071" transform="matrix(0.0174774 -0.999847 0.999848 0.0174274 130.326 28.6428)" fill="#FFC901"/>
<ellipse rx="1.22895" ry="1.23071" transform="matrix(0.0174773 -0.999847 0.999848 0.0174276 130.326 23.7199)" fill="#FFC901"/>
<ellipse rx="1.22896" ry="1.23071" transform="matrix(0.0174773 -0.999847 0.999848 0.0174276 135.249 127.103)" fill="#FFC901"/>
<ellipse rx="1.22895" ry="1.23071" transform="matrix(0.0174774 -0.999847 0.999848 0.0174275 135.249 122.18)" fill="#FFC901"/>
<ellipse rx="1.22894" ry="1.23072" transform="matrix(0.0174776 -0.999847 0.999848 0.0174273 135.249 117.258)" fill="#FFC901"/>
<ellipse rx="1.22895" ry="1.23071" transform="matrix(0.0174773 -0.999847 0.999848 0.0174275 135.249 112.335)" fill="#FFC901"/>
<ellipse rx="1.22895" ry="1.23071" transform="matrix(0.0174773 -0.999847 0.999848 0.0174276 135.249 107.411)" fill="#FFC901"/>
<ellipse rx="1.22896" ry="1.23071" transform="matrix(0.0174773 -0.999847 0.999848 0.0174276 135.249 102.488)" fill="#FFC901"/>
<ellipse rx="1.22896" ry="1.23072" transform="matrix(0.0174774 -0.999847 0.999848 0.0174275 135.249 97.5656)" fill="#FFC901"/>
<ellipse rx="1.22896" ry="1.23072" transform="matrix(0.0174774 -0.999847 0.999848 0.0174275 135.249 92.6423)" fill="#FFC901"/>
<ellipse rx="1.22895" ry="1.23072" transform="matrix(0.0174775 -0.999847 0.999848 0.0174274 135.249 87.7194)" fill="#FFC901"/>
<ellipse rx="1.22896" ry="1.23071" transform="matrix(0.0174772 -0.999847 0.999848 0.0174277 135.249 82.7961)" fill="#FFC901"/>
<ellipse rx="1.22896" ry="1.23071" transform="matrix(0.0174772 -0.999847 0.999848 0.0174276 135.249 77.8732)" fill="#FFC901"/>
<ellipse rx="1.22897" ry="1.23072" transform="matrix(0.0174772 -0.999847 0.999848 0.0174277 135.249 72.9504)" fill="#FFC901"/>
<ellipse rx="1.22893" ry="1.23072" transform="matrix(0.0174778 -0.999847 0.999848 0.0174271 135.249 68.0276)" fill="#FFC901"/>
<ellipse rx="1.22897" ry="1.23072" transform="matrix(0.0174772 -0.999847 0.999848 0.0174276 135.249 63.1042)" fill="#FFC901"/>
<ellipse rx="1.22893" ry="1.23071" transform="matrix(0.0174776 -0.999847 0.999848 0.0174272 135.249 58.1814)" fill="#FFC901"/>
<ellipse rx="1.22897" ry="1.23072" transform="matrix(0.0174772 -0.999847 0.999848 0.0174277 135.249 53.258)" fill="#FFC901"/>
<ellipse rx="1.22894" ry="1.23072" transform="matrix(0.0174776 -0.999847 0.999848 0.0174273 135.249 48.3352)" fill="#FFC901"/>
<ellipse rx="1.22898" ry="1.23072" transform="matrix(0.017477 -0.999847 0.999848 0.0174279 135.249 43.4118)" fill="#FFC901"/>
<ellipse rx="1.22896" ry="1.23071" transform="matrix(0.0174772 -0.999847 0.999848 0.0174277 135.249 38.4885)" fill="#FFC901"/>
<ellipse rx="1.22893" ry="1.23072" transform="matrix(0.0174778 -0.999847 0.999848 0.0174271 135.249 33.5661)" fill="#FFC901"/>
<ellipse rx="1.22896" ry="1.23071" transform="matrix(0.0174772 -0.999847 0.999848 0.0174277 135.249 28.6428)" fill="#FFC901"/>
<ellipse rx="1.22895" ry="1.23072" transform="matrix(0.0174774 -0.999847 0.999848 0.0174275 135.249 23.7199)" fill="#FFC901"/>
<ellipse rx="1.22895" ry="1.23072" transform="matrix(0.0174775 -0.999847 0.999848 0.0174274 140.171 127.104)" fill="#FFC901"/>
<ellipse rx="1.22895" ry="1.23072" transform="matrix(0.0174775 -0.999847 0.999848 0.0174274 140.172 122.18)" fill="#FFC901"/>
<ellipse rx="1.22895" ry="1.23073" transform="matrix(0.0174776 -0.999847 0.999848 0.0174272 140.172 117.258)" fill="#FFC901"/>
<ellipse rx="1.22895" ry="1.23072" transform="matrix(0.0174775 -0.999847 0.999848 0.0174274 140.172 112.335)" fill="#FFC901"/>
<ellipse rx="1.22896" ry="1.23072" transform="matrix(0.0174774 -0.999847 0.999848 0.0174275 140.172 107.411)" fill="#FFC901"/>
<ellipse rx="1.22896" ry="1.23073" transform="matrix(0.0174774 -0.999847 0.999848 0.0174275 140.172 102.488)" fill="#FFC901"/>
<ellipse rx="1.22896" ry="1.23073" transform="matrix(0.0174774 -0.999847 0.999848 0.0174274 140.172 97.5656)" fill="#FFC901"/>
<ellipse rx="1.22895" ry="1.23073" transform="matrix(0.0174775 -0.999847 0.999848 0.0174274 140.172 92.6423)" fill="#FFC901"/>
<ellipse rx="1.22895" ry="1.23071" transform="matrix(0.0174773 -0.999847 0.999848 0.0174275 140.172 87.7194)" fill="#FFC901"/>
<ellipse rx="1.22896" ry="1.23073" transform="matrix(0.0174775 -0.999847 0.999848 0.0174274 140.172 82.7961)" fill="#FFC901"/>
<ellipse rx="1.22895" ry="1.23073" transform="matrix(0.0174776 -0.999847 0.999848 0.0174273 140.172 77.8733)" fill="#FFC901"/>
<ellipse rx="1.22898" ry="1.23073" transform="matrix(0.0174772 -0.999847 0.999848 0.0174277 140.172 72.9504)" fill="#FFC901"/>
<ellipse rx="1.22893" ry="1.23073" transform="matrix(0.0174778 -0.999847 0.999848 0.017427 140.172 68.0276)" fill="#FFC901"/>
<ellipse rx="1.22897" ry="1.23073" transform="matrix(0.0174773 -0.999847 0.999848 0.0174276 140.172 63.1042)" fill="#FFC901"/>
<ellipse rx="1.22896" ry="1.23073" transform="matrix(0.0174774 -0.999847 0.999848 0.0174275 140.172 58.1813)" fill="#FFC901"/>
<ellipse rx="1.22897" ry="1.23073" transform="matrix(0.0174772 -0.999847 0.999848 0.0174276 140.171 53.258)" fill="#FFC901"/>
<ellipse rx="1.22895" ry="1.23073" transform="matrix(0.0174776 -0.999847 0.999848 0.0174273 140.172 48.3357)" fill="#FFC901"/>
<ellipse rx="1.22898" ry="1.23072" transform="matrix(0.0174771 -0.999847 0.999848 0.0174278 140.172 43.4118)" fill="#FFC901"/>
<ellipse rx="1.22895" ry="1.23072" transform="matrix(0.0174775 -0.999847 0.999848 0.0174274 140.171 38.489)" fill="#FFC901"/>
<ellipse rx="1.22895" ry="1.23073" transform="matrix(0.0174776 -0.999847 0.999848 0.0174273 140.171 33.5661)" fill="#FFC901"/>
<ellipse rx="1.22895" ry="1.23073" transform="matrix(0.0174776 -0.999847 0.999848 0.0174273 140.172 28.6428)" fill="#FFC901"/>
<ellipse rx="1.22895" ry="1.23072" transform="matrix(0.0174776 -0.999847 0.999848 0.0174273 140.172 23.7199)" fill="#FFC901"/>
<ellipse rx="1.22895" ry="1.23073" transform="matrix(0.0174775 -0.999847 0.999848 0.0174274 145.094 127.104)" fill="#FFC901"/>
<ellipse rx="1.22895" ry="1.23073" transform="matrix(0.0174776 -0.999847 0.999848 0.0174273 145.094 122.18)" fill="#FFC901"/>
<ellipse rx="1.22894" ry="1.23073" transform="matrix(0.0174777 -0.999847 0.999848 0.0174272 145.094 117.258)" fill="#FFC901"/>
<ellipse rx="1.22895" ry="1.23073" transform="matrix(0.0174777 -0.999847 0.999848 0.0174272 145.094 112.335)" fill="#FFC901"/>
<ellipse rx="1.22896" ry="1.23072" transform="matrix(0.0174773 -0.999847 0.999848 0.0174276 145.094 107.411)" fill="#FFC901"/>
<ellipse rx="1.22896" ry="1.23073" transform="matrix(0.0174774 -0.999847 0.999848 0.0174274 145.094 102.488)" fill="#FFC901"/>
<ellipse rx="1.22896" ry="1.23073" transform="matrix(0.0174774 -0.999847 0.999848 0.0174275 145.094 97.5656)" fill="#FFC901"/>
<ellipse rx="1.22895" ry="1.23072" transform="matrix(0.0174775 -0.999847 0.999848 0.0174274 145.094 92.6423)" fill="#FFC901"/>
<ellipse rx="1.22895" ry="1.23073" transform="matrix(0.0174777 -0.999847 0.999848 0.0174272 145.094 87.7194)" fill="#FFC901"/>
<ellipse rx="1.22896" ry="1.23073" transform="matrix(0.0174775 -0.999847 0.999848 0.0174274 145.094 82.7961)" fill="#FFC901"/>
<ellipse rx="1.22894" ry="1.23072" transform="matrix(0.0174776 -0.999847 0.999848 0.0174273 145.094 77.8733)" fill="#FFC901"/>
<ellipse rx="1.22897" ry="1.23073" transform="matrix(0.0174773 -0.999847 0.999848 0.0174276 145.094 72.9504)" fill="#FFC901"/>
<ellipse rx="1.22895" ry="1.23072" transform="matrix(0.0174775 -0.999847 0.999848 0.0174274 145.094 68.0271)" fill="#FFC901"/>
<ellipse rx="1.22897" ry="1.23072" transform="matrix(0.0174772 -0.999847 0.999848 0.0174276 145.094 63.1042)" fill="#FFC901"/>
<ellipse rx="1.22896" ry="1.23072" transform="matrix(0.0174772 -0.999847 0.999848 0.0174276 145.094 58.1813)" fill="#FFC901"/>
<ellipse rx="1.22898" ry="1.23072" transform="matrix(0.017477 -0.999847 0.999848 0.0174279 145.094 53.258)" fill="#FFC901"/>
<ellipse rx="1.22894" ry="1.23072" transform="matrix(0.0174776 -0.999847 0.999848 0.0174273 145.094 48.3357)" fill="#FFC901"/>
<ellipse rx="1.22898" ry="1.23072" transform="matrix(0.0174771 -0.999847 0.999848 0.0174278 145.094 43.4118)" fill="#FFC901"/>
<ellipse rx="1.22896" ry="1.23073" transform="matrix(0.0174775 -0.999847 0.999848 0.0174274 145.094 38.489)" fill="#FFC901"/>
<ellipse rx="1.22895" ry="1.23072" transform="matrix(0.0174776 -0.999847 0.999848 0.0174273 145.094 33.5661)" fill="#FFC901"/>
<ellipse rx="1.22894" ry="1.23072" transform="matrix(0.0174777 -0.999847 0.999848 0.0174272 145.094 28.6428)" fill="#FFC901"/>
<ellipse rx="1.22896" ry="1.23072" transform="matrix(0.0174773 -0.999847 0.999848 0.0174275 145.094 23.7199)" fill="#FFC901"/>
<ellipse rx="1.22895" ry="1.23074" transform="matrix(0.0174777 -0.999847 0.999848 0.0174272 150.017 127.104)" fill="#FFC901"/>
<ellipse rx="1.22895" ry="1.23073" transform="matrix(0.0174776 -0.999847 0.999848 0.0174272 150.017 122.18)" fill="#FFC901"/>
<ellipse rx="1.22895" ry="1.23073" transform="matrix(0.0174776 -0.999847 0.999848 0.0174273 150.017 117.258)" fill="#FFC901"/>
<ellipse rx="1.22896" ry="1.23073" transform="matrix(0.0174775 -0.999847 0.999848 0.0174273 150.017 112.335)" fill="#FFC901"/>
<ellipse rx="1.22896" ry="1.23073" transform="matrix(0.0174776 -0.999847 0.999848 0.0174273 150.017 107.411)" fill="#FFC901"/>
<ellipse rx="1.22896" ry="1.23073" transform="matrix(0.0174774 -0.999847 0.999848 0.0174275 150.017 102.488)" fill="#FFC901"/>
<ellipse rx="1.22896" ry="1.23073" transform="matrix(0.0174775 -0.999847 0.999848 0.0174274 150.017 97.5656)" fill="#FFC901"/>
<ellipse rx="1.22895" ry="1.23073" transform="matrix(0.0174777 -0.999847 0.999848 0.0174272 150.017 92.6423)" fill="#FFC901"/>
<ellipse rx="1.22895" ry="1.23073" transform="matrix(0.0174777 -0.999847 0.999848 0.0174272 150.017 87.7194)" fill="#FFC901"/>
<ellipse rx="1.22897" ry="1.23073" transform="matrix(0.0174773 -0.999847 0.999848 0.0174275 150.017 82.7961)" fill="#FFC901"/>
<ellipse rx="1.22896" ry="1.23073" transform="matrix(0.0174774 -0.999847 0.999848 0.0174274 150.017 77.8737)" fill="#FFC901"/>
<ellipse rx="1.22898" ry="1.23073" transform="matrix(0.0174772 -0.999847 0.999848 0.0174277 150.017 72.9504)" fill="#FFC901"/>
<ellipse rx="1.22893" ry="1.23073" transform="matrix(0.0174779 -0.999847 0.999848 0.017427 150.017 68.0276)" fill="#FFC901"/>
<ellipse rx="1.22896" ry="1.23073" transform="matrix(0.0174775 -0.999847 0.999848 0.0174274 150.017 63.1042)" fill="#FFC901"/>
<ellipse rx="1.22895" ry="1.23073" transform="matrix(0.0174776 -0.999847 0.999848 0.0174273 150.017 58.1814)" fill="#FFC901"/>
<ellipse rx="1.22897" ry="1.23073" transform="matrix(0.0174773 -0.999847 0.999848 0.0174276 150.017 53.258)" fill="#FFC901"/>
<ellipse rx="1.22895" ry="1.23072" transform="matrix(0.0174775 -0.999847 0.999848 0.0174274 150.017 48.3357)" fill="#FFC901"/>
<ellipse rx="1.22897" ry="1.23073" transform="matrix(0.0174773 -0.999847 0.999848 0.0174275 150.017 43.4118)" fill="#FFC901"/>
<ellipse rx="1.22895" ry="1.23073" transform="matrix(0.0174776 -0.999847 0.999848 0.0174273 150.017 38.489)" fill="#FFC901"/>
<ellipse rx="1.22895" ry="1.23073" transform="matrix(0.0174776 -0.999847 0.999848 0.0174273 150.017 33.5661)" fill="#FFC901"/>
<ellipse rx="1.22895" ry="1.23072" transform="matrix(0.0174776 -0.999847 0.999848 0.0174273 150.017 28.6428)" fill="#FFC901"/>
<ellipse rx="1.22895" ry="1.23073" transform="matrix(0.0174777 -0.999847 0.999848 0.0174272 150.017 23.7199)" fill="#FFC901"/>
<ellipse rx="1.22896" ry="1.23074" transform="matrix(0.0174777 -0.999847 0.999848 0.0174271 154.94 127.104)" fill="#FFC901"/>
<ellipse rx="1.22895" ry="1.23074" transform="matrix(0.0174778 -0.999847 0.999848 0.0174271 154.94 122.18)" fill="#FFC901"/>
<ellipse rx="1.22895" ry="1.23074" transform="matrix(0.0174778 -0.999847 0.999848 0.0174271 154.94 117.258)" fill="#FFC901"/>
<ellipse rx="1.22896" ry="1.23074" transform="matrix(0.0174776 -0.999847 0.999848 0.0174273 154.94 112.335)" fill="#FFC901"/>
<ellipse rx="1.22895" ry="1.23074" transform="matrix(0.0174778 -0.999847 0.999848 0.0174271 154.94 107.411)" fill="#FFC901"/>
<ellipse rx="1.22896" ry="1.23074" transform="matrix(0.0174777 -0.999847 0.999848 0.0174272 154.94 102.488)" fill="#FFC901"/>
<ellipse rx="1.22896" ry="1.23075" transform="matrix(0.0174778 -0.999847 0.999848 0.0174271 154.94 97.5656)" fill="#FFC901"/>
<ellipse rx="1.22895" ry="1.23074" transform="matrix(0.0174778 -0.999847 0.999848 0.0174271 154.94 92.6423)" fill="#FFC901"/>
<ellipse rx="1.22895" ry="1.23073" transform="matrix(0.0174775 -0.999847 0.999848 0.0174274 154.94 87.7194)" fill="#FFC901"/>
<ellipse rx="1.22896" ry="1.23074" transform="matrix(0.0174776 -0.999847 0.999848 0.0174273 154.94 82.7961)" fill="#FFC901"/>
<ellipse rx="1.22896" ry="1.23074" transform="matrix(0.0174776 -0.999847 0.999848 0.0174273 154.94 77.8737)" fill="#FFC901"/>
<ellipse rx="1.22897" ry="1.23073" transform="matrix(0.0174774 -0.999847 0.999848 0.0174275 154.94 72.9504)" fill="#FFC901"/>
<ellipse rx="1.22893" ry="1.23073" transform="matrix(0.0174779 -0.999847 0.999848 0.0174269 154.94 68.0271)" fill="#FFC901"/>
<ellipse rx="1.22897" ry="1.23074" transform="matrix(0.0174775 -0.999847 0.999848 0.0174274 154.94 63.1042)" fill="#FFC901"/>
<ellipse rx="1.22896" ry="1.23075" transform="matrix(0.0174778 -0.999847 0.999848 0.0174271 154.94 58.1813)" fill="#FFC901"/>
<ellipse rx="1.22898" ry="1.23073" transform="matrix(0.0174772 -0.999847 0.999848 0.0174277 154.94 53.258)" fill="#FFC901"/>
<ellipse rx="1.22895" ry="1.23075" transform="matrix(0.0174779 -0.999847 0.999848 0.0174269 154.94 48.3357)" fill="#FFC901"/>
<ellipse rx="1.22898" ry="1.23074" transform="matrix(0.0174773 -0.999847 0.999848 0.0174275 154.94 43.4118)" fill="#FFC901"/>
<ellipse rx="1.22895" ry="1.23074" transform="matrix(0.0174778 -0.999847 0.999848 0.0174271 154.94 38.489)" fill="#FFC901"/>
<ellipse rx="1.22895" ry="1.23074" transform="matrix(0.0174778 -0.999847 0.999848 0.0174271 154.94 33.5661)" fill="#FFC901"/>
<ellipse rx="1.22894" ry="1.23074" transform="matrix(0.017478 -0.999847 0.999848 0.0174269 154.94 28.6428)" fill="#FFC901"/>
<ellipse rx="1.22895" ry="1.23074" transform="matrix(0.0174778 -0.999847 0.999848 0.0174271 154.94 23.7199)" fill="#FFC901"/>
<ellipse rx="1.22895" ry="1.23072" transform="matrix(0.0174775 -0.999847 0.999848 0.0174274 159.863 127.103)" fill="#FFC901"/>
<ellipse rx="1.22895" ry="1.23072" transform="matrix(0.0174775 -0.999847 0.999848 0.0174274 159.863 122.18)" fill="#FFC901"/>
<ellipse rx="1.22895" ry="1.23072" transform="matrix(0.0174775 -0.999847 0.999848 0.0174274 159.863 117.258)" fill="#FFC901"/>
<ellipse rx="1.22895" ry="1.23073" transform="matrix(0.0174775 -0.999847 0.999848 0.0174274 159.863 112.335)" fill="#FFC901"/>
<ellipse rx="1.22896" ry="1.23072" transform="matrix(0.0174774 -0.999847 0.999848 0.0174275 159.863 107.411)" fill="#FFC901"/>
<ellipse rx="1.22896" ry="1.23072" transform="matrix(0.0174773 -0.999847 0.999848 0.0174276 159.863 102.488)" fill="#FFC901"/>
<ellipse rx="1.22896" ry="1.23072" transform="matrix(0.0174773 -0.999847 0.999848 0.0174276 159.863 97.5656)" fill="#FFC901"/>
<ellipse rx="1.22895" ry="1.23071" transform="matrix(0.0174774 -0.999847 0.999848 0.0174275 159.863 92.6423)" fill="#FFC901"/>
<ellipse rx="1.22895" ry="1.23072" transform="matrix(0.0174776 -0.999847 0.999848 0.0174273 159.863 87.7194)" fill="#FFC901"/>
<ellipse rx="1.22896" ry="1.23072" transform="matrix(0.0174773 -0.999847 0.999848 0.0174275 159.863 82.7961)" fill="#FFC901"/>
<ellipse rx="1.22896" ry="1.23072" transform="matrix(0.0174773 -0.999847 0.999848 0.0174275 159.863 77.8737)" fill="#FFC901"/>
<ellipse rx="1.22898" ry="1.23071" transform="matrix(0.017477 -0.999847 0.999848 0.0174279 159.863 72.9504)" fill="#FFC901"/>
<ellipse rx="1.22895" ry="1.23071" transform="matrix(0.0174774 -0.999847 0.999848 0.0174275 159.863 68.0271)" fill="#FFC901"/>
<ellipse rx="1.22896" ry="1.23072" transform="matrix(0.0174773 -0.999847 0.999848 0.0174276 159.863 63.1042)" fill="#FFC901"/>
<ellipse rx="1.22895" ry="1.23072" transform="matrix(0.0174776 -0.999847 0.999848 0.0174273 159.863 58.1814)" fill="#FFC901"/>
<ellipse rx="1.22897" ry="1.23072" transform="matrix(0.0174771 -0.999847 0.999848 0.0174277 159.863 53.258)" fill="#FFC901"/>
<ellipse rx="1.22895" ry="1.23072" transform="matrix(0.0174775 -0.999847 0.999848 0.0174274 159.863 48.3357)" fill="#FFC901"/>
<ellipse rx="1.22898" ry="1.23071" transform="matrix(0.017477 -0.999847 0.999848 0.0174279 159.863 43.4123)" fill="#FFC901"/>
<ellipse rx="1.22896" ry="1.23072" transform="matrix(0.0174773 -0.999847 0.999848 0.0174275 159.863 38.489)" fill="#FFC901"/>
<ellipse rx="1.22895" ry="1.23073" transform="matrix(0.0174777 -0.999847 0.999848 0.0174272 159.863 33.5661)" fill="#FFC901"/>
<ellipse rx="1.22893" ry="1.23072" transform="matrix(0.0174778 -0.999847 0.999848 0.0174271 159.863 28.6428)" fill="#FFC901"/>
<ellipse rx="1.22895" ry="1.23072" transform="matrix(0.0174774 -0.999847 0.999848 0.0174275 159.863 23.7199)" fill="#FFC901"/>
<ellipse rx="1.22896" ry="1.23073" transform="matrix(0.0174775 -0.999847 0.999848 0.0174274 164.786 127.104)" fill="#FFC901"/>
<ellipse rx="1.22895" ry="1.23074" transform="matrix(0.0174779 -0.999847 0.999848 0.017427 164.786 122.18)" fill="#FFC901"/>
<ellipse rx="1.22895" ry="1.23073" transform="matrix(0.0174776 -0.999847 0.999848 0.0174273 164.786 117.258)" fill="#FFC901"/>
<ellipse rx="1.22895" ry="1.23074" transform="matrix(0.0174778 -0.999847 0.999848 0.0174271 164.786 112.335)" fill="#FFC901"/>
<ellipse rx="1.22895" ry="1.23073" transform="matrix(0.0174775 -0.999847 0.999848 0.0174274 164.786 107.411)" fill="#FFC901"/>
<ellipse rx="1.22896" ry="1.23073" transform="matrix(0.0174774 -0.999847 0.999848 0.0174275 164.786 102.488)" fill="#FFC901"/>
<ellipse rx="1.22896" ry="1.23073" transform="matrix(0.0174774 -0.999847 0.999848 0.0174275 164.786 97.5656)" fill="#FFC901"/>
<ellipse rx="1.22895" ry="1.23072" transform="matrix(0.0174774 -0.999847 0.999848 0.0174274 164.786 92.6423)" fill="#FFC901"/>
<ellipse rx="1.22895" ry="1.23072" transform="matrix(0.0174775 -0.999847 0.999848 0.0174274 164.786 87.7194)" fill="#FFC901"/>
<ellipse rx="1.22896" ry="1.23074" transform="matrix(0.0174776 -0.999847 0.999848 0.0174273 164.786 82.7961)" fill="#FFC901"/>
<ellipse rx="1.22895" ry="1.23075" transform="matrix(0.0174778 -0.999847 0.999848 0.0174271 164.786 77.8732)" fill="#FFC901"/>
<ellipse rx="1.22897" ry="1.23073" transform="matrix(0.0174773 -0.999847 0.999848 0.0174276 164.786 72.9504)" fill="#FFC901"/>
<ellipse rx="1.22894" ry="1.23073" transform="matrix(0.0174777 -0.999847 0.999848 0.0174272 164.786 68.0276)" fill="#FFC901"/>
<ellipse rx="1.22896" ry="1.23073" transform="matrix(0.0174775 -0.999847 0.999848 0.0174274 164.786 63.1042)" fill="#FFC901"/>
<ellipse rx="1.22895" ry="1.23073" transform="matrix(0.0174775 -0.999847 0.999848 0.0174274 164.786 58.1814)" fill="#FFC901"/>
<ellipse rx="1.22898" ry="1.23072" transform="matrix(0.0174771 -0.999847 0.999848 0.0174278 164.786 53.258)" fill="#FFC901"/>
<ellipse rx="1.22895" ry="1.23072" transform="matrix(0.0174775 -0.999847 0.999848 0.0174274 164.786 48.3357)" fill="#FFC901"/>
<ellipse rx="1.22897" ry="1.23074" transform="matrix(0.0174775 -0.999847 0.999848 0.0174274 164.786 43.4123)" fill="#FFC901"/>
<ellipse rx="1.22896" ry="1.23073" transform="matrix(0.0174775 -0.999847 0.999848 0.0174274 164.786 38.489)" fill="#FFC901"/>
<ellipse rx="1.22895" ry="1.23073" transform="matrix(0.0174776 -0.999847 0.999848 0.0174273 164.786 33.5661)" fill="#FFC901"/>
<ellipse rx="1.22895" ry="1.23073" transform="matrix(0.0174776 -0.999847 0.999848 0.0174273 164.786 28.6428)" fill="#FFC901"/>
<ellipse rx="1.22894" ry="1.23073" transform="matrix(0.0174778 -0.999847 0.999848 0.0174271 164.786 23.7199)" fill="#FFC901"/>
<ellipse rx="1.22896" ry="1.23071" transform="matrix(0.0174773 -0.999847 0.999848 0.0174276 169.709 127.104)" fill="#FFC901"/>
<ellipse rx="1.22895" ry="1.23071" transform="matrix(0.0174774 -0.999847 0.999848 0.0174275 169.709 122.18)" fill="#FFC901"/>
<ellipse rx="1.22895" ry="1.23072" transform="matrix(0.0174776 -0.999847 0.999848 0.0174273 169.709 117.258)" fill="#FFC901"/>
<ellipse rx="1.22895" ry="1.23072" transform="matrix(0.0174775 -0.999847 0.999848 0.0174274 169.709 112.335)" fill="#FFC901"/>
<ellipse rx="1.22895" ry="1.23073" transform="matrix(0.0174776 -0.999847 0.999848 0.0174273 169.709 107.411)" fill="#FFC901"/>
<ellipse rx="1.22896" ry="1.23073" transform="matrix(0.0174775 -0.999847 0.999848 0.0174274 169.709 102.488)" fill="#FFC901"/>
<ellipse rx="1.22896" ry="1.23072" transform="matrix(0.0174774 -0.999847 0.999848 0.0174275 169.709 97.5656)" fill="#FFC901"/>
<ellipse rx="1.22895" ry="1.23073" transform="matrix(0.0174776 -0.999847 0.999848 0.0174273 169.709 92.6423)" fill="#FFC901"/>
<ellipse rx="1.22895" ry="1.23072" transform="matrix(0.0174774 -0.999847 0.999848 0.0174275 169.709 87.7194)" fill="#FFC901"/>
<ellipse rx="1.22896" ry="1.23072" transform="matrix(0.0174773 -0.999847 0.999848 0.0174276 169.709 82.7961)" fill="#FFC901"/>
<ellipse rx="1.22895" ry="1.23072" transform="matrix(0.0174775 -0.999847 0.999848 0.0174274 169.709 77.8733)" fill="#FFC901"/>
<ellipse rx="1.22897" ry="1.23073" transform="matrix(0.0174772 -0.999847 0.999848 0.0174276 169.709 72.9504)" fill="#FFC901"/>
<ellipse rx="1.22894" ry="1.23072" transform="matrix(0.0174776 -0.999847 0.999848 0.0174273 169.709 68.0276)" fill="#FFC901"/>
<ellipse rx="1.22896" ry="1.23072" transform="matrix(0.0174773 -0.999847 0.999848 0.0174276 169.709 63.1042)" fill="#FFC901"/>
<ellipse rx="1.22895" ry="1.23072" transform="matrix(0.0174774 -0.999847 0.999848 0.0174274 169.709 58.1814)" fill="#FFC901"/>
<ellipse rx="1.22898" ry="1.2307" transform="matrix(0.0174768 -0.999847 0.999848 0.0174281 169.709 53.258)" fill="#FFC901"/>
<ellipse rx="1.22895" ry="1.23072" transform="matrix(0.0174775 -0.999847 0.999848 0.0174274 169.709 48.3357)" fill="#FFC901"/>
<ellipse rx="1.22898" ry="1.23073" transform="matrix(0.0174772 -0.999847 0.999848 0.0174277 169.709 43.4123)" fill="#FFC901"/>
<ellipse rx="1.22896" ry="1.23072" transform="matrix(0.0174773 -0.999847 0.999848 0.0174275 169.709 38.4885)" fill="#FFC901"/>
<ellipse rx="1.22895" ry="1.23072" transform="matrix(0.0174775 -0.999847 0.999848 0.0174274 169.709 33.5661)" fill="#FFC901"/>
<ellipse rx="1.22895" ry="1.23071" transform="matrix(0.0174775 -0.999847 0.999848 0.0174274 169.709 28.6428)" fill="#FFC901"/>
<ellipse rx="1.22896" ry="1.2307" transform="matrix(0.0174771 -0.999847 0.999848 0.0174278 169.709 23.7199)" fill="#FFC901"/>
<ellipse rx="1.22896" ry="1.23071" transform="matrix(0.0174773 -0.999847 0.999848 0.0174276 174.632 127.104)" fill="#FFC901"/>
<ellipse rx="1.22895" ry="1.23071" transform="matrix(0.0174773 -0.999847 0.999848 0.0174276 174.632 122.18)" fill="#FFC901"/>
<ellipse rx="1.22895" ry="1.23071" transform="matrix(0.0174774 -0.999847 0.999848 0.0174275 174.632 117.257)" fill="#FFC901"/>
<ellipse rx="1.22895" ry="1.23073" transform="matrix(0.0174777 -0.999847 0.999848 0.0174272 174.632 112.335)" fill="#FFC901"/>
<ellipse rx="1.22896" ry="1.23072" transform="matrix(0.0174774 -0.999847 0.999848 0.0174275 174.632 107.411)" fill="#FFC901"/>
<ellipse rx="1.22895" ry="1.23071" transform="matrix(0.0174773 -0.999847 0.999848 0.0174276 174.632 102.488)" fill="#FFC901"/>
<ellipse rx="1.22896" ry="1.23073" transform="matrix(0.0174775 -0.999847 0.999848 0.0174274 174.632 97.5656)" fill="#FFC901"/>
<ellipse rx="1.22896" ry="1.23071" transform="matrix(0.0174772 -0.999847 0.999848 0.0174277 174.632 92.6423)" fill="#FFC901"/>
<ellipse rx="1.22895" ry="1.23071" transform="matrix(0.0174774 -0.999847 0.999848 0.0174274 174.632 87.7194)" fill="#FFC901"/>
<ellipse rx="1.22896" ry="1.23071" transform="matrix(0.0174771 -0.999847 0.999848 0.0174278 174.632 82.7961)" fill="#FFC901"/>
<ellipse rx="1.22895" ry="1.23071" transform="matrix(0.0174772 -0.999847 0.999848 0.0174276 174.632 77.8732)" fill="#FFC901"/>
<ellipse rx="1.22896" ry="1.23071" transform="matrix(0.0174772 -0.999847 0.999848 0.0174276 174.632 72.9504)" fill="#FFC901"/>
<ellipse rx="1.22893" ry="1.23073" transform="matrix(0.0174779 -0.999847 0.999848 0.017427 174.632 68.0276)" fill="#FFC901"/>
<ellipse rx="1.22896" ry="1.23071" transform="matrix(0.0174772 -0.999847 0.999848 0.0174276 174.632 63.1042)" fill="#FFC901"/>
<ellipse rx="1.22895" ry="1.23071" transform="matrix(0.0174773 -0.999847 0.999848 0.0174276 174.632 58.1814)" fill="#FFC901"/>
<ellipse rx="1.22898" ry="1.23071" transform="matrix(0.0174769 -0.999847 0.999848 0.017428 174.632 53.258)" fill="#FFC901"/>
<ellipse rx="1.22895" ry="1.23071" transform="matrix(0.0174773 -0.999847 0.999848 0.0174275 174.632 48.3357)" fill="#FFC901"/>
<ellipse rx="1.22898" ry="1.23071" transform="matrix(0.0174769 -0.999847 0.999848 0.017428 174.632 43.4123)" fill="#FFC901"/>
<ellipse rx="1.22895" ry="1.23073" transform="matrix(0.0174776 -0.999847 0.999848 0.0174273 174.632 38.4885)" fill="#FFC901"/>
<ellipse rx="1.22893" ry="1.23071" transform="matrix(0.0174777 -0.999847 0.999848 0.0174272 174.632 33.5661)" fill="#FFC901"/>
<ellipse rx="1.22895" ry="1.23074" transform="matrix(0.0174778 -0.999847 0.999848 0.0174271 174.632 28.6428)" fill="#FFC901"/>
<ellipse rx="1.22896" ry="1.23071" transform="matrix(0.0174772 -0.999847 0.999848 0.0174277 174.632 23.7199)" fill="#FFC901"/>
<ellipse rx="1.22896" ry="1.23072" transform="matrix(0.0174773 -0.999847 0.999848 0.0174276 179.554 127.104)" fill="#FFC901"/>
<ellipse rx="1.22895" ry="1.23071" transform="matrix(0.0174773 -0.999847 0.999848 0.0174275 179.554 122.18)" fill="#FFC901"/>
<ellipse rx="1.22894" ry="1.23073" transform="matrix(0.0174777 -0.999847 0.999848 0.0174272 179.554 117.258)" fill="#FFC901"/>
<ellipse rx="1.22895" ry="1.23072" transform="matrix(0.0174775 -0.999847 0.999848 0.0174274 179.554 112.335)" fill="#FFC901"/>
<ellipse rx="1.22895" ry="1.23073" transform="matrix(0.0174776 -0.999847 0.999848 0.0174273 179.555 107.411)" fill="#FFC901"/>
<ellipse rx="1.22895" ry="1.23073" transform="matrix(0.0174777 -0.999847 0.999848 0.0174272 179.555 102.488)" fill="#FFC901"/>
<ellipse rx="1.22896" ry="1.23073" transform="matrix(0.0174775 -0.999847 0.999848 0.0174273 179.554 97.5656)" fill="#FFC901"/>
<ellipse rx="1.22896" ry="1.23071" transform="matrix(0.0174772 -0.999847 0.999848 0.0174276 179.554 92.6423)" fill="#FFC901"/>
<ellipse rx="1.22895" ry="1.23071" transform="matrix(0.0174774 -0.999847 0.999848 0.0174275 179.554 87.7194)" fill="#FFC901"/>
<ellipse rx="1.22896" ry="1.23073" transform="matrix(0.0174774 -0.999847 0.999848 0.0174274 179.554 82.7961)" fill="#FFC901"/>
<ellipse rx="1.22895" ry="1.23072" transform="matrix(0.0174774 -0.999847 0.999848 0.0174275 179.554 77.8732)" fill="#FFC901"/>
<ellipse rx="1.22895" ry="1.23071" transform="matrix(0.0174772 -0.999847 0.999848 0.0174276 179.554 72.9504)" fill="#FFC901"/>
<ellipse rx="1.22894" ry="1.23072" transform="matrix(0.0174776 -0.999847 0.999848 0.0174273 179.554 68.0276)" fill="#FFC901"/>
<ellipse rx="1.22896" ry="1.23072" transform="matrix(0.0174772 -0.999847 0.999848 0.0174276 179.555 63.1042)" fill="#FFC901"/>
<ellipse rx="1.22895" ry="1.23072" transform="matrix(0.0174774 -0.999847 0.999848 0.0174274 179.554 58.1814)" fill="#FFC901"/>
<ellipse rx="1.22898" ry="1.23071" transform="matrix(0.0174769 -0.999847 0.999848 0.017428 179.554 53.258)" fill="#FFC901"/>
<ellipse rx="1.22895" ry="1.23072" transform="matrix(0.0174774 -0.999847 0.999848 0.0174274 179.554 48.3357)" fill="#FFC901"/>
<ellipse rx="1.22897" ry="1.23072" transform="matrix(0.0174772 -0.999847 0.999848 0.0174277 179.554 43.4123)" fill="#FFC901"/>
<ellipse rx="1.22895" ry="1.23071" transform="matrix(0.0174773 -0.999847 0.999848 0.0174275 179.554 38.489)" fill="#FFC901"/>
<ellipse rx="1.22895" ry="1.23071" transform="matrix(0.0174773 -0.999847 0.999848 0.0174275 179.554 33.5661)" fill="#FFC901"/>
<ellipse rx="1.22894" ry="1.23073" transform="matrix(0.0174778 -0.999847 0.999848 0.0174271 179.554 28.6428)" fill="#FFC901"/>
<ellipse rx="1.22897" ry="1.2307" transform="matrix(0.017477 -0.999847 0.999848 0.0174279 179.554 23.7199)" fill="#FFC901"/>
</g>
<path d="M145.949 74.9999L196.568 241.589L64.943 162.79L145.949 74.9999Z" fill="#FB5315"/>
</g>
</svg>
