<svg width="308" height="250" viewBox="0 0 308 250" fill="none" xmlns="http://www.w3.org/2000/svg">
<g filter="url(#filter0_d)">
<rect x="15" y="15" width="95" height="170.479" rx="10" fill="black"/>
</g>
<rect x="20" y="20" width="84.589" height="160.068" rx="5" fill="white"/>
<path d="M48 89C48 87.8954 48.8954 87 50 87H112C113.105 87 114 87.8954 114 89V90C114 91.1046 113.105 92 112 92H50C48.8954 92 48 91.1046 48 90V89Z" fill="#FFD8BF"/>
<path d="M28.6406 97.8906C28.6406 98.1499 28.8501 98.3594 29.1094 98.3594H39.8906C40.1499 98.3594 40.3594 98.1499 40.3594 97.8906V91.7383H28.6406V97.8906ZM39.8906 87.6953H37.4297V86.7578C37.4297 86.6934 37.377 86.6406 37.3125 86.6406H36.4922C36.4277 86.6406 36.375 86.6934 36.375 86.7578V87.6953H32.625V86.7578C32.625 86.6934 32.5723 86.6406 32.5078 86.6406H31.6875C31.623 86.6406 31.5703 86.6934 31.5703 86.7578V87.6953H29.1094C28.8501 87.6953 28.6406 87.9048 28.6406 88.1641V90.7422H40.3594V88.1641C40.3594 87.9048 40.1499 87.6953 39.8906 87.6953Z" fill="#FF7A45"/>
<path d="M34.5 110.938C30.876 110.938 27.9375 113.876 27.9375 117.5C27.9375 121.124 30.876 124.062 34.5 124.062C38.124 124.062 41.0625 121.124 41.0625 117.5C41.0625 113.876 38.124 110.938 34.5 110.938ZM37.0854 119.517L36.6665 120.088C36.6574 120.101 36.6459 120.111 36.6327 120.119C36.6195 120.127 36.6049 120.133 36.5896 120.135C36.5744 120.137 36.5589 120.137 36.5439 120.133C36.5289 120.129 36.5148 120.122 36.5024 120.113L34.0796 118.347C34.0645 118.336 34.0522 118.322 34.0438 118.305C34.0354 118.288 34.0311 118.27 34.0312 118.251V114.219C34.0312 114.154 34.084 114.102 34.1484 114.102H34.853C34.9175 114.102 34.9702 114.154 34.9702 114.219V117.844L37.0591 119.354C37.1118 119.391 37.1235 119.464 37.0854 119.517Z" fill="#69C0FF"/>
<path d="M39.75 147H39.375V141.688C39.375 139.483 37.7453 137.659 35.625 137.356V136.75C35.625 136.405 35.3453 136.125 35 136.125C34.6547 136.125 34.375 136.405 34.375 136.75V137.356C32.2547 137.659 30.625 139.483 30.625 141.688V147H30.25C29.9734 147 29.75 147.223 29.75 147.5V148C29.75 148.069 29.8062 148.125 29.875 148.125H33.25C33.25 149.091 34.0344 149.875 35 149.875C35.9656 149.875 36.75 149.091 36.75 148.125H40.125C40.1938 148.125 40.25 148.069 40.25 148V147.5C40.25 147.223 40.0266 147 39.75 147ZM35 148.875C34.5859 148.875 34.25 148.539 34.25 148.125H35.75C35.75 148.539 35.4141 148.875 35 148.875Z" fill="#36CFC9"/>
<path d="M48 114C48 112.895 48.8954 112 50 112H112C113.105 112 114 112.895 114 114V115C114 116.105 113.105 117 112 117H50C48.8954 117 48 116.105 48 115V114Z" fill="#BAE7FF"/>
<path d="M48 139C48 137.895 48.8954 137 50 137H112C113.105 137 114 137.895 114 139V140C114 141.105 113.105 142 112 142H50C48.8954 142 48 141.105 48 140V139Z" fill="#B5F5EC"/>
<path d="M48 96C48 94.8954 48.8954 94 50 94H67C68.1046 94 69 94.8954 69 96V97C69 98.1046 68.1046 99 67 99H50C48.8954 99 48 98.1046 48 97V96Z" fill="#FFD8BF"/>
<path d="M48 121C48 119.895 48.8954 119 50 119H79C80.1046 119 81 119.895 81 121V122C81 123.105 80.1046 124 79 124H50C48.8954 124 48 123.105 48 122V121Z" fill="#BAE7FF"/>
<path d="M48 146C48 144.895 48.8954 144 50 144H69C70.1046 144 71 144.895 71 146V147C71 148.105 70.1046 149 69 149H50C48.8954 149 48 148.105 48 147V146Z" fill="#B5F5EC"/>
<rect x="43.6119" y="17.6025" width="37.7397" height="6.50685" rx="3.25342" fill="black"/>
<path d="M51.1868 38H33.8132C30.0511 38 27 41.0511 27 44.8132V62.1868C27 65.9489 30.0511 69 33.8132 69H51.1868C54.9489 69 58 65.9489 58 62.1868V44.8132C58 41.0511 54.9489 38 51.1868 38Z" fill="#FFD60A"/>
<path fill-rule="evenodd" clip-rule="evenodd" d="M44.9809 46.1314C45.84 45.065 47.41 44.9021 48.4912 45.7612C49.5576 46.6202 49.7205 48.1902 48.8615 49.2714L39.5156 60.839C38.8491 61.6537 37.7382 61.9795 36.7459 61.624C35.7535 61.2686 35.087 60.3355 35.087 59.269V47.7014C35.087 46.324 36.1979 45.2131 37.5753 45.2131C38.9527 45.2131 40.0636 46.324 40.0636 47.7014V52.2189L44.9809 46.1314ZM47.0545 61.787C45.4401 61.787 44.0774 60.6021 44.0774 58.8247C44.0774 57.0474 47.0545 53.9962 47.0545 53.9962C47.0545 53.9962 49.9131 57.077 49.9131 58.8247C49.9131 60.5724 48.6689 61.787 47.0545 61.787Z" fill="black"/>
<g filter="url(#filter1_d)">
<rect x="83" y="69" width="211" height="166" rx="10" fill="white"/>
</g>
<g filter="url(#filter2_i)">
<path d="M91 82C91 79.2386 93.2386 77 96 77H272C274.761 77 277 79.2386 277 82V222C277 224.761 274.761 227 272 227H96C93.2386 227 91 224.761 91 222V82Z" fill="#FFDB24"/>
</g>
<path d="M287 144C287 142.895 286.105 142 285 142C283.895 142 283 142.895 283 144V158C283 159.105 283.895 160 285 160C286.105 160 287 159.105 287 158V144Z" fill="#F5F5F5"/>
<path fill-rule="evenodd" clip-rule="evenodd" d="M201.145 124.019C203.031 121.685 206.452 121.321 208.787 123.208C211.121 125.094 211.484 128.515 209.598 130.85L189.22 156.068C187.772 157.859 185.353 158.543 183.182 157.776C181.011 157.008 179.559 154.955 179.559 152.652V127.434C179.559 124.433 181.992 122 184.993 122C187.994 122 190.427 124.433 190.427 127.434V137.281L201.145 124.019ZM205.673 158.171C202.156 158.171 199.172 155.602 199.172 151.716C199.172 147.831 205.673 141.189 205.673 141.189C205.673 141.189 211.908 147.909 211.908 151.716C211.908 155.524 209.19 158.171 205.673 158.171ZM145.066 123.208C147.401 121.321 150.822 121.685 152.708 124.019L163.426 137.281V127.434C163.426 124.433 165.859 122 168.86 122C171.861 122 174.294 124.433 174.294 127.434L174.294 152.652C174.294 154.955 172.842 157.008 170.671 157.776C168.5 158.543 166.081 157.859 164.633 156.068L153.916 142.805V152.696C153.916 155.697 151.483 158.13 148.482 158.13C145.48 158.13 143.047 155.697 143.047 152.696V127.563C143.047 127.543 143.048 127.522 143.048 127.502C143.029 125.895 143.719 124.296 145.066 123.208ZM137.868 127.563C137.868 124.562 135.435 122.129 132.434 122.129C129.433 122.129 127 124.562 127 127.563V152.696C127 155.697 129.433 158.13 132.434 158.13C135.435 158.13 137.868 155.697 137.868 152.696V127.563ZM240.523 134.312C240.523 138.244 238.572 141.721 235.584 143.826L240.39 149.86C242.143 152.061 241.78 155.266 239.579 157.019C237.378 158.772 234.173 158.409 232.42 156.208L226.089 148.259V153.077C226.089 155.891 223.808 158.172 220.994 158.172C218.18 158.172 215.9 155.891 215.9 153.077V127.775C215.9 124.961 218.18 122.681 220.993 122.68V122.679H228.805V122.68C228.833 122.679 228.862 122.679 228.891 122.679C235.315 122.679 240.523 127.887 240.523 134.312Z" fill="black"/>
<path d="M135.933 181.617C134.232 181.617 132.7 181.261 131.339 180.549C129.993 179.822 128.934 178.816 128.16 177.532C127.387 176.248 127 174.794 127 173.17C127 171.545 127.387 170.091 128.16 168.807C128.934 167.523 129.993 166.525 131.339 165.814C132.7 165.087 134.232 164.723 135.933 164.723C137.418 164.723 138.756 164.986 139.947 165.512C141.138 166.038 142.128 166.796 142.917 167.786L139.994 170.432C138.942 169.163 137.666 168.529 136.165 168.529C135.283 168.529 134.494 168.722 133.798 169.109C133.118 169.496 132.584 170.045 132.197 170.757C131.826 171.453 131.641 172.257 131.641 173.17C131.641 174.083 131.826 174.895 132.197 175.606C132.584 176.303 133.118 176.844 133.798 177.231C134.494 177.618 135.283 177.811 136.165 177.811C137.666 177.811 138.942 177.177 139.994 175.908L142.917 178.553C142.128 179.544 141.138 180.302 139.947 180.828C138.756 181.354 137.418 181.617 135.933 181.617Z" fill="black"/>
<path d="M156.296 181.617C154.579 181.617 153.033 181.253 151.656 180.526C150.295 179.799 149.22 178.793 148.431 177.509C147.657 176.225 147.271 174.779 147.271 173.17C147.271 171.561 147.657 170.115 148.431 168.83C149.22 167.546 150.295 166.541 151.656 165.814C153.033 165.087 154.579 164.723 156.296 164.723C158.013 164.723 159.553 165.087 160.914 165.814C162.291 166.541 163.366 167.546 164.139 168.83C164.928 170.115 165.322 171.561 165.322 173.17C165.322 174.779 164.928 176.225 164.139 177.509C163.366 178.793 162.291 179.799 160.914 180.526C159.553 181.253 158.013 181.617 156.296 181.617ZM156.296 177.811C157.116 177.811 157.859 177.618 158.524 177.231C159.189 176.844 159.715 176.303 160.102 175.606C160.488 174.895 160.682 174.083 160.682 173.17C160.682 172.257 160.488 171.453 160.102 170.757C159.715 170.045 159.189 169.496 158.524 169.109C157.859 168.722 157.116 168.529 156.296 168.529C155.477 168.529 154.734 168.722 154.069 169.109C153.404 169.496 152.878 170.045 152.491 170.757C152.105 171.453 151.911 172.257 151.911 173.17C151.911 174.083 152.105 174.895 152.491 175.606C152.878 176.303 153.404 176.844 154.069 177.231C154.734 177.618 155.477 177.811 156.296 177.811Z" fill="black"/>
<path d="M185.873 181.292L185.827 172.683L181.65 179.691H179.608L175.455 172.915V181.292H171.209V165.048H174.991L180.699 174.423L186.267 165.048H190.049L190.096 181.292H185.873Z" fill="black"/>
<path d="M196.827 165.048H201.421V181.292H196.827V165.048Z" fill="black"/>
<path d="M216.268 181.617C214.566 181.617 213.035 181.261 211.674 180.549C210.328 179.822 209.268 178.816 208.495 177.532C207.721 176.248 207.335 174.794 207.335 173.17C207.335 171.545 207.721 170.091 208.495 168.807C209.268 167.523 210.328 166.525 211.674 165.814C213.035 165.087 214.566 164.723 216.268 164.723C217.753 164.723 219.091 164.986 220.282 165.512C221.473 166.038 222.463 166.796 223.252 167.786L220.328 170.432C219.276 169.163 218 168.529 216.5 168.529C215.618 168.529 214.829 168.722 214.133 169.109C213.453 169.496 212.919 170.045 212.532 170.757C212.161 171.453 211.975 172.257 211.975 173.17C211.975 174.083 212.161 174.895 212.532 175.606C212.919 176.303 213.453 176.844 214.133 177.231C214.829 177.618 215.618 177.811 216.5 177.811C218 177.811 219.276 177.177 220.328 175.908L223.252 178.553C222.463 179.544 221.473 180.302 220.282 180.828C219.091 181.354 217.753 181.617 216.268 181.617Z" fill="black"/>
<path d="M234.307 181.617C232.992 181.617 231.716 181.454 230.479 181.129C229.241 180.804 228.236 180.371 227.462 179.83L228.971 176.442C229.698 176.921 230.541 177.308 231.5 177.602C232.459 177.896 233.402 178.043 234.33 178.043C236.094 178.043 236.975 177.602 236.975 176.72C236.975 176.256 236.72 175.916 236.21 175.699C235.715 175.467 234.91 175.227 233.797 174.98C232.575 174.717 231.554 174.438 230.734 174.144C229.914 173.835 229.21 173.348 228.623 172.683C228.035 172.017 227.741 171.12 227.741 169.991C227.741 169.001 228.012 168.111 228.553 167.322C229.094 166.518 229.899 165.883 230.966 165.419C232.049 164.955 233.371 164.723 234.934 164.723C236.001 164.723 237.053 164.847 238.089 165.094C239.126 165.326 240.038 165.675 240.827 166.139L239.412 169.55C237.865 168.714 236.364 168.297 234.91 168.297C233.998 168.297 233.333 168.436 232.915 168.714C232.497 168.977 232.289 169.326 232.289 169.759C232.289 170.192 232.536 170.517 233.031 170.733C233.526 170.95 234.323 171.174 235.421 171.406C236.658 171.669 237.679 171.955 238.484 172.265C239.303 172.559 240.007 173.038 240.595 173.704C241.198 174.353 241.5 175.243 241.5 176.372C241.5 177.347 241.229 178.229 240.688 179.018C240.147 179.807 239.334 180.441 238.252 180.92C237.169 181.385 235.854 181.617 234.307 181.617Z" fill="black"/>
<defs>
<filter id="filter0_d" x="5" y="7" width="115" height="190.479" filterUnits="userSpaceOnUse" color-interpolation-filters="sRGB">
<feFlood flood-opacity="0" result="BackgroundImageFix"/>
<feColorMatrix in="SourceAlpha" type="matrix" values="0 0 0 0 0 0 0 0 0 0 0 0 0 0 0 0 0 0 127 0"/>
<feOffset dy="2"/>
<feGaussianBlur stdDeviation="5"/>
<feColorMatrix type="matrix" values="0 0 0 0 0 0 0 0 0 0 0 0 0 0 0 0 0 0 0.18 0"/>
<feBlend mode="normal" in2="BackgroundImageFix" result="effect1_dropShadow"/>
<feBlend mode="normal" in="SourceGraphic" in2="effect1_dropShadow" result="shape"/>
</filter>
<filter id="filter1_d" x="73" y="63" width="231" height="186" filterUnits="userSpaceOnUse" color-interpolation-filters="sRGB">
<feFlood flood-opacity="0" result="BackgroundImageFix"/>
<feColorMatrix in="SourceAlpha" type="matrix" values="0 0 0 0 0 0 0 0 0 0 0 0 0 0 0 0 0 0 127 0"/>
<feOffset dy="4"/>
<feGaussianBlur stdDeviation="5"/>
<feColorMatrix type="matrix" values="0 0 0 0 0 0 0 0 0 0 0 0 0 0 0 0 0 0 0.15 0"/>
<feBlend mode="normal" in2="BackgroundImageFix" result="effect1_dropShadow"/>
<feBlend mode="normal" in="SourceGraphic" in2="effect1_dropShadow" result="shape"/>
</filter>
<filter id="filter2_i" x="91" y="77" width="186" height="150" filterUnits="userSpaceOnUse" color-interpolation-filters="sRGB">
<feFlood flood-opacity="0" result="BackgroundImageFix"/>
<feBlend mode="normal" in="SourceGraphic" in2="BackgroundImageFix" result="shape"/>
<feColorMatrix in="SourceAlpha" type="matrix" values="0 0 0 0 0 0 0 0 0 0 0 0 0 0 0 0 0 0 127 0" result="hardAlpha"/>
<feOffset/>
<feGaussianBlur stdDeviation="1"/>
<feComposite in2="hardAlpha" operator="arithmetic" k2="-1" k3="1"/>
<feColorMatrix type="matrix" values="0 0 0 0 0 0 0 0 0 0 0 0 0 0 0 0 0 0 0.1 0"/>
<feBlend mode="normal" in2="shape" result="effect1_innerShadow"/>
</filter>
</defs>
</svg>
