<svg width="308" height="250" viewBox="0 0 308 250" fill="none" xmlns="http://www.w3.org/2000/svg">
<g filter="url(#filter0_d)">
<rect x="27" y="40" width="236" height="169" rx="5" fill="#1D39C4"/>
</g>
<path d="M27 45C27 42.2386 29.2386 40 32 40H258C260.761 40 263 42.2386 263 45V60H27V45Z" fill="#FAFAFA"/>
<g filter="url(#filter1_d)">
<path d="M39.9001 53.3491C41.6534 53.3491 43.0747 51.9278 43.0747 50.1745C43.0747 48.4213 41.6534 47 39.9001 47C38.1469 47 36.7256 48.4213 36.7256 50.1745C36.7256 51.9278 38.1469 53.3491 39.9001 53.3491Z" fill="#F5222D"/>
<path d="M49.4239 53.3491C51.1772 53.3491 52.5984 51.9278 52.5984 50.1745C52.5984 48.4213 51.1772 47 49.4239 47C47.6706 47 46.2494 48.4213 46.2494 50.1745C46.2494 51.9278 47.6706 53.3491 49.4239 53.3491Z" fill="#FA8C16"/>
<path d="M58.9476 53.3491C60.7008 53.3491 62.1221 51.9278 62.1221 50.1745C62.1221 48.4213 60.7008 47 58.9476 47C57.1943 47 55.773 48.4213 55.773 50.1745C55.773 51.9278 57.1943 53.3491 58.9476 53.3491Z" fill="#52C41A"/>
</g>
<path d="M85.1589 150.011H89.2165V161.138H96.0611V164.356H85.1589V150.011Z" fill="white"/>
<path d="M106.73 164.642C105.213 164.642 103.847 164.321 102.631 163.679C101.429 163.037 100.48 162.149 99.7828 161.015C99.0997 159.881 98.7582 158.604 98.7582 157.183C98.7582 155.762 99.0997 154.485 99.7828 153.351C100.48 152.217 101.429 151.329 102.631 150.687C103.847 150.045 105.213 149.724 106.73 149.724C108.246 149.724 109.606 150.045 110.808 150.687C112.024 151.329 112.973 152.217 113.657 153.351C114.353 154.485 114.702 155.762 114.702 157.183C114.702 158.604 114.353 159.881 113.657 161.015C112.973 162.149 112.024 163.037 110.808 163.679C109.606 164.321 108.246 164.642 106.73 164.642ZM106.73 161.282C107.454 161.282 108.11 161.111 108.697 160.769C109.285 160.428 109.749 159.95 110.091 159.335C110.432 158.706 110.603 157.989 110.603 157.183C110.603 156.377 110.432 155.667 110.091 155.052C109.749 154.423 109.285 153.938 108.697 153.597C108.11 153.255 107.454 153.084 106.73 153.084C106.006 153.084 105.35 153.255 104.763 153.597C104.175 153.938 103.711 154.423 103.369 155.052C103.028 155.667 102.857 156.377 102.857 157.183C102.857 157.989 103.028 158.706 103.369 159.335C103.711 159.95 104.175 160.428 104.763 160.769C105.35 161.111 106.006 161.282 106.73 161.282Z" fill="white"/>
<path d="M126.028 164.642C124.525 164.642 123.173 164.328 121.971 163.7C120.782 163.058 119.846 162.17 119.163 161.036C118.48 159.902 118.138 158.618 118.138 157.183C118.138 155.749 118.48 154.464 119.163 153.33C119.846 152.196 120.782 151.315 121.971 150.687C123.173 150.045 124.525 149.724 126.028 149.724C127.34 149.724 128.521 149.956 129.573 150.42C130.625 150.885 131.5 151.554 132.196 152.429L129.614 154.765C128.685 153.645 127.558 153.084 126.233 153.084C125.454 153.084 124.758 153.255 124.143 153.597C123.542 153.938 123.07 154.423 122.729 155.052C122.401 155.667 122.237 156.377 122.237 157.183C122.237 157.989 122.401 158.706 122.729 159.335C123.07 159.95 123.542 160.428 124.143 160.769C124.758 161.111 125.454 161.282 126.233 161.282C127.558 161.282 128.685 160.721 129.614 159.601L132.196 161.937C131.5 162.812 130.625 163.481 129.573 163.946C128.521 164.41 127.34 164.642 126.028 164.642Z" fill="white"/>
<path d="M145.426 161.569H139.36L138.233 164.356H134.093L140.426 150.011H144.422L150.775 164.356H146.553L145.426 161.569ZM144.237 158.577L142.393 153.986L140.549 158.577H144.237Z" fill="white"/>
<path d="M153.974 150.011H158.032V161.138H164.876V164.356H153.974V150.011Z" fill="white"/>
<path d="M168.531 150.011H172.589V164.356H168.531V150.011Z" fill="white"/>
<path d="M189.657 161.138V164.356H176.808V161.814L184.042 153.228H176.992V150.011H189.349V152.552L182.115 161.138H189.657Z" fill="white"/>
<path d="M205 161.22V164.356H193.483V150.011H204.734V153.146H197.5V155.564H203.873V158.597H197.5V161.22H205Z" fill="white"/>
<path fill-rule="evenodd" clip-rule="evenodd" d="M161.702 106.088C163.653 103.674 167.193 103.298 169.607 105.249C172.022 107.201 172.398 110.74 170.447 113.155L149.366 139.243C147.868 141.096 145.365 141.804 143.119 141.01C140.873 140.215 139.372 138.092 139.372 135.709V109.622C139.372 106.517 141.888 104 144.993 104C148.098 104 150.615 106.517 150.615 109.622V119.809L161.702 106.088ZM166.386 141.418C162.748 141.418 159.661 138.76 159.661 134.741C159.661 130.721 166.386 123.851 166.386 123.851C166.386 123.851 172.837 130.802 172.837 134.741C172.837 138.679 170.025 141.418 166.386 141.418ZM103.69 105.249C106.104 103.298 109.644 103.674 111.595 106.088L122.682 119.809V109.622C122.682 106.517 125.199 104 128.304 104C131.408 104 133.925 106.517 133.925 109.622L133.925 135.709C133.925 138.092 132.424 140.215 130.178 141.01C127.931 141.804 125.429 141.096 123.931 139.243L112.845 125.523V135.757C112.845 138.862 110.328 141.379 107.223 141.379C104.118 141.379 101.601 138.862 101.601 135.757V109.758L101.602 109.709C101.577 108.041 102.292 106.379 103.69 105.249ZM96.2432 109.757C96.2432 106.652 93.7263 104.135 90.6216 104.135C87.5169 104.135 85 106.652 85 109.757L85 135.757C85 138.862 87.5169 141.379 90.6216 141.379C93.7263 141.379 96.2432 138.862 96.2432 135.757V109.757ZM202.439 116.737C202.439 120.805 200.42 124.401 197.33 126.579L202.302 132.821C204.115 135.098 203.739 138.414 201.463 140.227C199.186 142.04 195.87 141.665 194.057 139.388L187.507 131.164V136.151C187.507 139.061 185.147 141.421 182.236 141.421C179.326 141.421 176.966 139.061 176.966 136.151V109.975C176.966 107.065 179.325 104.705 182.236 104.705V104.703H190.317V104.704C190.346 104.703 190.376 104.703 190.405 104.703C197.051 104.703 202.439 110.091 202.439 116.737Z" fill="white"/>
<g filter="url(#filter2_d)">
<path d="M192 27.7726C192 23.4799 195.539 20 199.905 20H251.11C255.475 20 259.015 23.4799 259.015 27.7726V44.4395V61.1065C259.015 65.3991 255.475 68.879 251.11 68.879H199.905C195.539 68.879 192 65.3991 192 61.1065V27.7726Z" fill="white"/>
</g>
<path d="M226.399 39.0972H224.05V36.6058H226.399V39.0972ZM232.192 44.1715C231.819 44.0114 231.47 43.8514 231.238 43.6686C231.191 44.6971 231.098 44.8571 230.702 44.8571H229.516C229.074 44.8571 229.004 44.7885 229.004 44.1943V41.5885H232.192V44.1715ZM218.606 50.2057V46.96C219.165 47.3942 219.862 48.0114 220.142 48.4C223.351 46.7543 224.05 44.1029 224.05 41.84V41.5885H226.376V44.2171C226.376 46.4799 226.818 47.2343 229.074 47.2343H231.028C231.493 47.2343 231.866 47.1886 232.192 47.0514V50.2057H218.606ZM221.468 41.5885V41.7943C221.468 43.3257 221.095 45.0629 218.606 46.4115V41.5885H221.468ZM235.797 36.6058V34H215V36.6058H221.328V39.0972H215.931V54H218.606V52.6972H232.192V53.9543H235.006V39.0972H229.144V36.6058H235.797Z" fill="#13C2C2"/>
<g filter="url(#filter3_d)">
<path d="M250 35.2918C250 32.3692 252.296 30 255.128 30H288.351C291.184 30 293.48 32.3692 293.48 35.2918V46.6392V57.9866C293.48 60.9091 291.184 63.2784 288.351 63.2784H255.128C252.296 63.2784 250 60.9091 250 57.9866V35.2918Z" fill="#FEFCFF"/>
</g>
<path d="M271.983 43.3215C273.631 43.3215 274.897 43.743 275.78 44.5863C276.664 45.4155 277.105 46.6733 277.105 48.3597V54.8313H274.218V53.419C273.638 54.473 272.557 55 270.975 55C270.157 55 269.446 54.8525 268.839 54.5573C268.246 54.2621 267.791 53.8546 267.475 53.3346C267.158 52.8147 267 52.2244 267 51.5639C267 50.5099 267.369 49.6807 268.107 49.0764C268.859 48.4721 270.013 48.1699 271.568 48.1699H274.02C274.02 47.4533 273.815 46.9052 273.408 46.5256C272.999 46.1322 272.385 45.9354 271.568 45.9354C271.001 45.9354 270.441 46.0338 269.887 46.2306C269.347 46.4132 268.885 46.6662 268.503 46.9894L267.396 44.6917C267.976 44.256 268.668 43.9187 269.472 43.6798C270.289 43.4409 271.126 43.3215 271.983 43.3215ZM271.746 52.7865C272.273 52.7865 272.742 52.6601 273.15 52.4071C273.558 52.1401 273.849 51.7536 274.02 51.2476V50.0882H271.904C270.639 50.0882 270.006 50.5309 270.006 51.4163C270.006 51.838 270.157 52.1752 270.46 52.4282C270.777 52.6671 271.205 52.7865 271.746 52.7865ZM272.299 42.2042C271.258 42.2042 270.401 41.916 269.729 41.3399C269.056 40.7637 268.701 39.9837 268.661 39H270.599C270.612 39.4496 270.777 39.8151 271.093 40.0962C271.423 40.3632 271.825 40.4966 272.299 40.4966C272.774 40.4966 273.17 40.3632 273.486 40.0962C273.815 39.8151 273.988 39.4496 274 39H275.938C275.899 39.9837 275.542 40.7637 274.871 41.3399C274.198 41.916 273.341 42.2042 272.299 42.2042Z" fill="#722ED1"/>
<g filter="url(#filter4_d)">
<path d="M243 64.2633C243 61.9087 244.85 60 247.132 60H273.898C276.179 60 278.029 61.9087 278.029 64.2633V73.4052V82.547C278.029 84.9019 276.179 86.8106 273.898 86.8106H247.132C244.85 86.8106 243 84.9019 243 82.547V64.2633Z" fill="#FFFAF6"/>
</g>
<path d="M258.983 66H256.657C256.708 66.292 256.775 67.0869 256.775 67.4276C256.775 67.7034 256.775 68.1738 256.759 68.7416C256.422 68.7578 256.084 68.774 255.781 68.774C255.174 68.774 254.45 68.7578 253.455 68.6443L253.489 70.6072C254.062 70.6721 254.719 70.6883 255.848 70.6883C256.118 70.6883 256.422 70.6721 256.742 70.6559C256.742 71.1101 256.742 71.5643 256.742 72.0185C256.742 72.3917 256.742 72.781 256.759 73.1703C254.685 74.0301 253 75.5064 253 76.9177C253 78.6373 255.309 80 256.944 80C258.056 80 258.798 79.4647 258.798 77.4531C258.798 76.9015 258.764 75.6362 258.731 74.3546C259.759 74.0626 260.854 73.9004 261.899 73.9004C263.366 73.9004 264.377 74.5492 264.377 75.6524C264.377 76.8366 263.298 77.4855 261.933 77.7289C261.343 77.8262 260.618 77.8424 259.86 77.8424L260.635 79.9351C261.326 79.8864 262.068 79.8378 262.843 79.6755C265.523 79.0266 266.568 77.5828 266.568 75.6686C266.568 73.4299 264.529 72.1321 261.933 72.1321C261.006 72.1321 259.843 72.2781 258.697 72.5539C258.697 72.343 258.697 72.1483 258.697 71.9536C258.697 71.4832 258.697 70.9803 258.714 70.4936C259.809 70.3638 260.972 70.2016 261.933 69.9907L261.882 67.9791C261.006 68.2225 259.894 68.4334 258.781 68.5632C258.798 68.1576 258.815 67.7683 258.832 67.4114C258.865 66.9896 258.933 66.292 258.983 66ZM263.787 67.752L262.86 69.3256C263.905 69.8123 266.113 71.029 266.922 71.6941L267.933 70.0394C267.04 69.4229 265.085 68.3523 263.787 67.752ZM255.073 76.8366C255.073 76.2688 255.764 75.6037 256.792 75.0684C256.826 75.9444 256.843 76.6906 256.843 77.0962C256.843 77.6477 256.607 77.7775 256.304 77.7775C255.865 77.7775 255.073 77.3395 255.073 76.8366Z" fill="#EF6749"/>
<g filter="url(#filter5_d)">
<path d="M15 181.757C15 178.578 17.6404 176 20.8975 176H59.1018C62.359 176 65 178.578 65 181.757V194.103V206.449C65 209.629 62.359 212.206 59.1018 212.206H20.8975C17.6404 212.206 15 209.629 15 206.449V181.757Z" fill="#FFFCF4"/>
</g>
<path d="M40.0714 188.85H43.7727V186.72H33.7208V188.85H37.461V189.847C37.461 192.915 36.0001 196.218 33 197.567L34.4611 199.619C36.5649 198.661 38.0065 196.687 38.8052 194.342C39.6039 196.511 41.026 198.27 43.1104 199.169L44.513 197.137C41.513 195.886 40.0714 192.779 40.0714 189.847V188.85ZM45.4286 185V203H48V185H45.4286Z" fill="#FAAD14"/>
<g filter="url(#filter6_d)">
<path d="M56 200.488C56 196.905 58.8729 194 62.4168 194H103.986C107.53 194 110.402 196.905 110.402 200.488V214.401V228.314C110.402 231.897 107.53 234.802 103.986 234.802H62.4168C58.8729 234.802 56 231.897 56 228.314V200.488Z" fill="white"/>
</g>
<path d="M85.3847 218.497H79.6044L78.5055 222H75L80.956 205H84.011L90 222H86.4946L85.3847 218.497ZM80.4945 215.66H84.4946L82.4835 209.297L80.4945 215.66Z" fill="#597EF7"/>
<defs>
<filter id="filter0_d" x="17" y="34" width="256" height="189" filterUnits="userSpaceOnUse" color-interpolation-filters="sRGB">
<feFlood flood-opacity="0" result="BackgroundImageFix"/>
<feColorMatrix in="SourceAlpha" type="matrix" values="0 0 0 0 0 0 0 0 0 0 0 0 0 0 0 0 0 0 127 0"/>
<feOffset dy="4"/>
<feGaussianBlur stdDeviation="5"/>
<feColorMatrix type="matrix" values="0 0 0 0 0 0 0 0 0 0 0 0 0 0 0 0 0 0 0.15 0"/>
<feBlend mode="normal" in2="BackgroundImageFix" result="effect1_dropShadow"/>
<feBlend mode="normal" in="SourceGraphic" in2="effect1_dropShadow" result="shape"/>
</filter>
<filter id="filter1_d" x="21.7256" y="34" width="55.3965" height="36.3491" filterUnits="userSpaceOnUse" color-interpolation-filters="sRGB">
<feFlood flood-opacity="0" result="BackgroundImageFix"/>
<feColorMatrix in="SourceAlpha" type="matrix" values="0 0 0 0 0 0 0 0 0 0 0 0 0 0 0 0 0 0 127 0"/>
<feOffset dy="2"/>
<feGaussianBlur stdDeviation="7.5"/>
<feColorMatrix type="matrix" values="0 0 0 0 0 0 0 0 0 0 0 0 0 0 0 0 0 0 0.1 0"/>
<feBlend mode="normal" in2="BackgroundImageFix" result="effect1_dropShadow"/>
<feBlend mode="normal" in="SourceGraphic" in2="effect1_dropShadow" result="shape"/>
</filter>
<filter id="filter2_d" x="182" y="14" width="87.0148" height="68.879" filterUnits="userSpaceOnUse" color-interpolation-filters="sRGB">
<feFlood flood-opacity="0" result="BackgroundImageFix"/>
<feColorMatrix in="SourceAlpha" type="matrix" values="0 0 0 0 0 0 0 0 0 0 0 0 0 0 0 0 0 0 127 0"/>
<feOffset dy="4"/>
<feGaussianBlur stdDeviation="5"/>
<feColorMatrix type="matrix" values="0 0 0 0 0 0 0 0 0 0 0 0 0 0 0 0 0 0 0.15 0"/>
<feBlend mode="normal" in2="BackgroundImageFix" result="effect1_dropShadow"/>
<feBlend mode="normal" in="SourceGraphic" in2="effect1_dropShadow" result="shape"/>
</filter>
<filter id="filter3_d" x="238" y="22" width="63.4797" height="53.2784" filterUnits="userSpaceOnUse" color-interpolation-filters="sRGB">
<feFlood flood-opacity="0" result="BackgroundImageFix"/>
<feColorMatrix in="SourceAlpha" type="matrix" values="0 0 0 0 0 0 0 0 0 0 0 0 0 0 0 0 0 0 127 0"/>
<feOffset dx="-2" dy="2"/>
<feGaussianBlur stdDeviation="5"/>
<feColorMatrix type="matrix" values="0 0 0 0 0 0 0 0 0 0 0 0 0 0 0 0 0 0 0.12 0"/>
<feBlend mode="normal" in2="BackgroundImageFix" result="effect1_dropShadow"/>
<feBlend mode="normal" in="SourceGraphic" in2="effect1_dropShadow" result="shape"/>
</filter>
<filter id="filter4_d" x="231" y="48" width="59.0287" height="50.8106" filterUnits="userSpaceOnUse" color-interpolation-filters="sRGB">
<feFlood flood-opacity="0" result="BackgroundImageFix"/>
<feColorMatrix in="SourceAlpha" type="matrix" values="0 0 0 0 0 0 0 0 0 0 0 0 0 0 0 0 0 0 127 0"/>
<feOffset/>
<feGaussianBlur stdDeviation="6"/>
<feColorMatrix type="matrix" values="0 0 0 0 0 0 0 0 0 0 0 0 0 0 0 0 0 0 0.15 0"/>
<feBlend mode="normal" in2="BackgroundImageFix" result="effect1_dropShadow"/>
<feBlend mode="normal" in="SourceGraphic" in2="effect1_dropShadow" result="shape"/>
</filter>
<filter id="filter5_d" x="5" y="166" width="74" height="60.2063" filterUnits="userSpaceOnUse" color-interpolation-filters="sRGB">
<feFlood flood-opacity="0" result="BackgroundImageFix"/>
<feColorMatrix in="SourceAlpha" type="matrix" values="0 0 0 0 0 0 0 0 0 0 0 0 0 0 0 0 0 0 127 0"/>
<feOffset dx="2" dy="2"/>
<feGaussianBlur stdDeviation="6"/>
<feColorMatrix type="matrix" values="0 0 0 0 0 0 0 0 0 0 0 0 0 0 0 0 0 0 0.12 0"/>
<feBlend mode="normal" in2="BackgroundImageFix" result="effect1_dropShadow"/>
<feBlend mode="normal" in="SourceGraphic" in2="effect1_dropShadow" result="shape"/>
</filter>
<filter id="filter6_d" x="46" y="184" width="78.4025" height="64.8019" filterUnits="userSpaceOnUse" color-interpolation-filters="sRGB">
<feFlood flood-opacity="0" result="BackgroundImageFix"/>
<feColorMatrix in="SourceAlpha" type="matrix" values="0 0 0 0 0 0 0 0 0 0 0 0 0 0 0 0 0 0 127 0"/>
<feOffset dx="2" dy="2"/>
<feGaussianBlur stdDeviation="6"/>
<feColorMatrix type="matrix" values="0 0 0 0 0 0 0 0 0 0 0 0 0 0 0 0 0 0 0.12 0"/>
<feBlend mode="normal" in2="BackgroundImageFix" result="effect1_dropShadow"/>
<feBlend mode="normal" in="SourceGraphic" in2="effect1_dropShadow" result="shape"/>
</filter>
</defs>
</svg>
