<svg width="388" height="388" viewBox="0 0 388 388" fill="none" xmlns="http://www.w3.org/2000/svg">
<g filter="url(#filter0_dd)">
<path d="M178.227 125.773H33.4848C31.4351 125.773 29.7734 127.435 29.7734 129.485V343.815C29.7734 345.864 31.4351 347.526 33.4848 347.526H178.227C180.277 347.526 181.938 345.864 181.938 343.815V129.485C181.938 127.435 180.277 125.773 178.227 125.773Z" fill="white"/>
</g>
<path d="M168.949 135.052H42.7631C40.7134 135.052 39.0518 136.713 39.0518 138.763V230.619C39.0518 232.668 40.7134 234.33 42.7631 234.33H168.949C170.998 234.33 172.66 232.668 172.66 230.619V138.763C172.66 136.713 170.998 135.052 168.949 135.052Z" fill="#F5F5F5"/>
<path d="M39.0518 242.681C39.0518 240.631 40.7134 238.969 42.7631 238.969H104.558C107.05 238.969 108.834 241.377 108.109 243.761L80.1471 335.617C79.6714 337.18 78.23 338.248 76.5966 338.248H42.7631C40.7134 338.248 39.0518 336.586 39.0518 334.536V242.681Z" fill="#F5F5F5"/>
<path d="M172.659 334.536C172.659 336.586 170.998 338.248 168.948 338.248H88.6554C86.1457 338.248 84.3595 335.808 85.1172 333.415L114.204 241.56C114.693 240.018 116.125 238.969 117.742 238.969H168.948C170.998 238.969 172.659 240.631 172.659 242.681V334.536Z" fill="#F5F5F5"/>
<g filter="url(#filter1_d)">
<path d="M172.66 286.289H121.629C119.58 286.289 117.918 287.95 117.918 290V315.979C117.918 318.029 119.58 319.691 121.629 319.691H172.66C174.71 319.691 176.372 318.029 176.372 315.979V290C176.372 287.95 174.71 286.289 172.66 286.289Z" fill="white"/>
</g>
<g filter="url(#filter2_d)">
<path fill-rule="evenodd" clip-rule="evenodd" d="M132.299 221.34C154.59 221.34 172.66 206.801 172.66 188.866C172.66 170.931 154.59 156.392 132.299 156.392C110.009 156.392 91.9385 170.931 91.9385 188.866C91.9385 199.668 98.4927 209.237 108.575 215.141C108.725 215.228 108.816 215.391 108.804 215.563C108.622 218.108 107.419 220.656 104.183 222.213C103.732 222.43 103.812 223.143 104.312 223.165C108.242 223.336 114.784 222.858 121.239 220.193C121.328 220.157 121.426 220.148 121.52 220.169C124.951 220.932 128.566 221.34 132.299 221.34Z" fill="white"/>
</g>
<path d="M145.752 173.093H105.856C105.343 173.093 104.928 173.508 104.928 174.021V179.588C104.928 180.1 105.343 180.515 105.856 180.515H145.752C146.265 180.515 146.68 180.1 146.68 179.588V174.021C146.68 173.508 146.265 173.093 145.752 173.093Z" fill="#4062EF"/>
<path d="M165.237 185.155H105.856C105.343 185.155 104.928 185.57 104.928 186.083V191.65C104.928 192.162 105.343 192.577 105.856 192.577H165.237C165.749 192.577 166.165 192.162 166.165 191.65V186.083C166.165 185.57 165.749 185.155 165.237 185.155Z" fill="#4062EF"/>
<path d="M153.175 197.216H105.856C105.343 197.216 104.928 197.632 104.928 198.144V203.711C104.928 204.224 105.343 204.639 105.856 204.639H153.175C153.688 204.639 154.103 204.224 154.103 203.711V198.144C154.103 197.632 153.688 197.216 153.175 197.216Z" fill="#4062EF"/>
<path d="M156.886 293.711H125.34C124.828 293.711 124.412 294.127 124.412 294.639V300.206C124.412 300.719 124.828 301.134 125.34 301.134H156.886C157.399 301.134 157.814 300.719 157.814 300.206V294.639C157.814 294.127 157.399 293.711 156.886 293.711Z" fill="#FFC53D"/>
<path d="M168.948 305.773H125.34C124.828 305.773 124.412 306.189 124.412 306.701V312.268C124.412 312.781 124.828 313.196 125.34 313.196H168.948C169.461 313.196 169.876 312.781 169.876 312.268V306.701C169.876 306.189 169.461 305.773 168.948 305.773Z" fill="#FFC53D"/>
<g filter="url(#filter3_d)">
<path fill-rule="evenodd" clip-rule="evenodd" d="M63.1751 298.201C51.9016 298.201 42.7627 289.511 42.7627 278.792C42.7627 268.071 51.9016 259.381 63.1751 259.381C74.4485 259.381 83.5874 268.071 83.5874 278.792C83.5874 285.21 80.3105 290.902 75.2605 294.435C75.1298 294.527 75.0519 294.677 75.0636 294.837C75.1587 296.126 75.6325 297.411 76.7981 298.324C77.1777 298.621 77.0686 299.311 76.5863 299.31C74.595 299.31 71.714 298.931 68.8568 297.558C68.7555 297.51 68.6397 297.498 68.5309 297.527C66.8241 297.966 65.0284 298.201 63.1751 298.201Z" fill="white"/>
</g>
<g filter="url(#filter4_dd)">
<path d="M206.062 33.9175C206.062 31.3554 208.139 29.2783 210.701 29.2783H327.462C328.447 29.2783 329.39 29.6693 330.087 30.3654L357.139 57.4181C357.836 58.1141 358.227 59.0581 358.227 60.0425V242.68C358.227 245.242 356.149 247.32 353.587 247.32H210.701C208.139 247.32 206.062 245.242 206.062 242.68V33.9175Z" fill="white"/>
</g>
<path d="M301.629 64.5361H254.31C253.797 64.5361 253.382 64.9515 253.382 65.464V71.031C253.382 71.5434 253.797 71.9588 254.31 71.9588H301.629C302.142 71.9588 302.557 71.5434 302.557 71.031V65.464C302.557 64.9515 302.142 64.5361 301.629 64.5361Z" fill="#E8E8E8"/>
<path d="M335.959 76.5981H254.31C253.797 76.5981 253.382 77.0136 253.382 77.526V83.093C253.382 83.6054 253.797 84.0208 254.31 84.0208H335.959C336.472 84.0208 336.887 83.6054 336.887 83.093V77.526C336.887 77.0136 336.472 76.5981 335.959 76.5981Z" fill="#E8E8E8"/>
<path d="M319.258 128.557H254.31C253.797 128.557 253.382 128.972 253.382 129.484V135.051C253.382 135.564 253.797 135.979 254.31 135.979H319.258C319.771 135.979 320.186 135.564 320.186 135.051V129.484C320.186 128.972 319.771 128.557 319.258 128.557Z" fill="#E8E8E8"/>
<path d="M299.774 140.619H254.31C253.797 140.619 253.382 141.034 253.382 141.546V147.113C253.382 147.626 253.797 148.041 254.31 148.041H299.774C300.286 148.041 300.701 147.626 300.701 147.113V141.546C300.701 141.034 300.286 140.619 299.774 140.619Z" fill="#E8E8E8"/>
<path d="M333.176 192.577H254.31C253.797 192.577 253.382 192.993 253.382 193.505V199.072C253.382 199.584 253.797 200 254.31 200H333.176C333.688 200 334.103 199.584 334.103 199.072V193.505C334.103 192.993 333.688 192.577 333.176 192.577Z" fill="#E8E8E8"/>
<path d="M309.052 204.639H254.31C253.797 204.639 253.382 205.055 253.382 205.567V211.134C253.382 211.646 253.797 212.062 254.31 212.062H309.052C309.564 212.062 309.98 211.646 309.98 211.134V205.567C309.98 205.055 309.564 204.639 309.052 204.639Z" fill="#E8E8E8"/>
<path d="M237.609 62.6802H221.835C219.786 62.6802 218.124 64.3418 218.124 66.3915V82.1647C218.124 84.2144 219.786 85.8761 221.835 85.8761H237.609C239.658 85.8761 241.32 84.2144 241.32 82.1647V66.3915C241.32 64.3418 239.658 62.6802 237.609 62.6802Z" fill="#4062EF"/>
<path d="M231.254 67.9692V80.3095H228.398V70.261H225.93V67.9692H231.254Z" fill="white"/>
<path d="M237.609 126.701H221.835C219.786 126.701 218.124 128.363 218.124 130.413V146.186C218.124 148.235 219.786 149.897 221.835 149.897H237.609C239.658 149.897 241.32 148.235 241.32 146.186V130.413C241.32 128.363 239.658 126.701 237.609 126.701Z" fill="#FF7A45"/>
<path d="M233.967 142.003V144.33H224.641V142.479L229.401 137.984C229.906 137.502 230.247 137.09 230.424 136.75C230.6 136.397 230.688 136.05 230.688 135.71C230.688 135.216 230.517 134.84 230.177 134.581C229.847 134.311 229.359 134.176 228.714 134.176C228.173 134.176 227.685 134.282 227.25 134.493C226.815 134.693 226.451 134.999 226.157 135.41L224.077 134.07C224.559 133.353 225.223 132.795 226.069 132.395C226.915 131.984 227.885 131.778 228.978 131.778C229.895 131.778 230.694 131.931 231.376 132.237C232.069 132.531 232.603 132.954 232.98 133.506C233.368 134.047 233.561 134.687 233.561 135.427C233.561 136.097 233.42 136.726 233.138 137.314C232.856 137.901 232.31 138.571 231.499 139.323L228.661 142.003H233.967Z" fill="white"/>
<path d="M237.609 190.722H221.835C219.786 190.722 218.124 192.383 218.124 194.433V210.206C218.124 212.256 219.786 213.918 221.835 213.918H237.609C239.658 213.918 241.32 212.256 241.32 210.206V194.433C241.32 192.383 239.658 190.722 237.609 190.722Z" fill="#FFC53D"/>
<path d="M230.493 201.034C231.574 201.211 232.403 201.616 232.979 202.251C233.555 202.873 233.843 203.649 233.843 204.578C233.843 205.295 233.654 205.959 233.279 206.57C232.903 207.169 232.327 207.651 231.551 208.016C230.787 208.38 229.847 208.562 228.73 208.562C227.861 208.562 227.003 208.451 226.157 208.227C225.322 207.992 224.611 207.663 224.023 207.24L225.134 205.054C225.604 205.406 226.144 205.683 226.756 205.882C227.378 206.071 228.013 206.164 228.66 206.164C229.377 206.164 229.941 206.029 230.352 205.759C230.763 205.477 230.969 205.084 230.969 204.578C230.969 203.567 230.199 203.062 228.66 203.062H227.355V201.176L229.894 198.302H224.64V196.01H233.279V197.861L230.493 201.034Z" fill="white"/>
<path d="M73.3812 280.722H52.9689C52.4564 280.722 52.041 281.137 52.041 281.65V287.216C52.041 287.729 52.4564 288.144 52.9689 288.144H73.3812C73.8937 288.144 74.3091 287.729 74.3091 287.216V281.65C74.3091 281.137 73.8937 280.722 73.3812 280.722Z" fill="#FF7A45"/>
<path d="M65.9585 268.66H52.9689C52.4564 268.66 52.041 269.075 52.041 269.587V275.154C52.041 275.667 52.4564 276.082 52.9689 276.082H65.9585C66.471 276.082 66.8864 275.667 66.8864 275.154V269.587C66.8864 269.075 66.471 268.66 65.9585 268.66Z" fill="#FF7A45"/>
<path fill-rule="evenodd" clip-rule="evenodd" d="M277.278 288.433C277.82 288.855 278.491 289.082 279.181 289.072L279.132 289.057C279.699 289.057 280.254 288.901 280.734 288.603C281.213 288.305 281.599 287.879 281.845 287.374C282.091 286.87 282.189 286.305 282.125 285.749C282.062 285.191 281.841 284.663 281.488 284.225C281.135 283.786 280.663 283.456 280.129 283.271C279.594 283.087 279.017 283.056 278.466 283.182C277.914 283.308 277.409 283.585 277.01 283.983C276.61 284.38 276.333 284.882 276.209 285.429H257.915L245.947 269.119H211.995C211.831 268.406 211.408 267.778 210.806 267.354C210.203 266.93 209.464 266.741 208.73 266.823C207.996 266.904 207.319 267.251 206.826 267.796C206.333 268.342 206.062 269.048 206.062 269.779C206.062 270.511 206.333 271.217 206.826 271.762C207.319 272.307 207.996 272.654 208.73 272.736C209.464 272.818 210.203 272.628 210.806 272.205C211.408 271.781 211.831 271.153 211.995 270.439H245.418L257.385 286.749H276.209C276.36 287.415 276.738 288.01 277.278 288.433ZM290.178 270.206H269.471C269.308 270.873 268.888 271.461 268.291 271.857C267.694 272.253 266.961 272.431 266.233 272.354C265.505 272.278 264.833 271.953 264.345 271.442C263.857 270.932 263.587 270.272 263.587 269.588C263.587 268.903 263.857 268.243 264.345 267.733C264.833 267.223 265.505 266.898 266.233 266.822C266.961 266.745 267.694 266.922 268.291 267.318C268.888 267.714 269.308 268.303 269.471 268.97H290.178C290.341 268.303 290.761 267.714 291.358 267.318C291.955 266.922 292.688 266.745 293.415 266.822C294.144 266.898 294.815 267.223 295.304 267.733C295.792 268.243 296.062 268.903 296.062 269.588C296.062 270.272 295.792 270.932 295.304 271.442C294.815 271.953 294.144 272.278 293.415 272.354C292.688 272.431 291.955 272.253 291.358 271.857C290.761 271.461 290.341 270.873 290.178 270.206Z" fill="#D6E4FF"/>
<path fill-rule="evenodd" clip-rule="evenodd" d="M178 80.9487C178.542 80.5258 179.213 80.3001 179.902 80.3094L179.854 80.3253C180.421 80.3239 180.976 80.4811 181.455 80.7786C181.935 81.0761 182.321 81.5019 182.567 82.0069C182.813 82.5119 182.91 83.0754 182.847 83.6327C182.784 84.1898 182.562 84.7181 182.21 85.1563C181.856 85.5945 181.385 85.925 180.85 86.1095C180.316 86.2941 179.739 86.3253 179.188 86.1994C178.636 86.0736 178.131 85.7959 177.732 85.3984C177.332 85.0009 177.055 84.4997 176.93 83.9526H159.564L138.318 104.902H95.0878C94.9239 105.615 94.5003 106.243 93.898 106.667C93.2958 107.09 92.557 107.279 91.823 107.198C91.0889 107.116 90.4111 106.769 89.9188 106.224C89.4265 105.679 89.1543 104.973 89.1543 104.241C89.1543 103.51 89.4265 102.804 89.9188 102.259C90.4111 101.713 91.0889 101.367 91.823 101.285C92.557 101.203 93.2958 101.392 93.898 101.816C94.5003 102.239 94.9239 102.868 95.0878 103.581H137.789L159.034 82.6321H176.93C177.082 81.966 177.459 81.3717 178 80.9487ZM192.755 105.051H172.048C171.886 105.718 171.465 106.306 170.868 106.702C170.271 107.098 169.538 107.275 168.811 107.199C168.082 107.123 167.411 106.798 166.923 106.288C166.435 105.778 166.165 105.117 166.165 104.433C166.165 103.748 166.435 103.088 166.923 102.578C167.411 102.067 168.082 101.743 168.811 101.667C169.538 101.59 170.271 101.767 170.868 102.163C171.465 102.56 171.886 103.148 172.048 103.815H192.755C192.918 103.148 193.338 102.56 193.936 102.163C194.532 101.767 195.265 101.59 195.993 101.667C196.721 101.743 197.393 102.067 197.881 102.578C198.369 103.088 198.639 103.748 198.639 104.433C198.639 105.117 198.369 105.778 197.881 106.288C197.393 106.798 196.721 107.123 195.993 107.199C195.265 107.275 194.532 107.098 193.936 106.702C193.338 106.306 192.918 105.718 192.755 105.051Z" fill="#D6E4FF"/>
<defs>
<filter id="filter0_dd" x="9.77344" y="115.773" width="192.165" height="261.753" filterUnits="userSpaceOnUse" color-interpolation-filters="sRGB">
<feFlood flood-opacity="0" result="BackgroundImageFix"/>
<feColorMatrix in="SourceAlpha" type="matrix" values="0 0 0 0 0 0 0 0 0 0 0 0 0 0 0 0 0 0 127 0"/>
<feOffset dy="10"/>
<feGaussianBlur stdDeviation="10"/>
<feColorMatrix type="matrix" values="0 0 0 0 0 0 0 0 0 0 0 0 0 0 0 0 0 0 0.1 0"/>
<feBlend mode="normal" in2="BackgroundImageFix" result="effect1_dropShadow"/>
<feColorMatrix in="SourceAlpha" type="matrix" values="0 0 0 0 0 0 0 0 0 0 0 0 0 0 0 0 0 0 127 0"/>
<feOffset/>
<feGaussianBlur stdDeviation="2"/>
<feColorMatrix type="matrix" values="0 0 0 0 0 0 0 0 0 0 0 0 0 0 0 0 0 0 0.1 0"/>
<feBlend mode="normal" in2="effect1_dropShadow" result="effect2_dropShadow"/>
<feBlend mode="normal" in="SourceGraphic" in2="effect2_dropShadow" result="shape"/>
</filter>
<filter id="filter1_d" x="85.918" y="270.289" width="122.454" height="97.402" filterUnits="userSpaceOnUse" color-interpolation-filters="sRGB">
<feFlood flood-opacity="0" result="BackgroundImageFix"/>
<feColorMatrix in="SourceAlpha" type="matrix" values="0 0 0 0 0 0 0 0 0 0 0 0 0 0 0 0 0 0 127 0"/>
<feOffset dy="16"/>
<feGaussianBlur stdDeviation="16"/>
<feColorMatrix type="matrix" values="0 0 0 0 0 0 0 0 0 0 0 0 0 0 0 0 0 0 0.1 0"/>
<feBlend mode="normal" in2="BackgroundImageFix" result="effect1_dropShadow"/>
<feBlend mode="normal" in="SourceGraphic" in2="effect1_dropShadow" result="shape"/>
</filter>
<filter id="filter2_d" x="59.9385" y="140.392" width="144.722" height="130.804" filterUnits="userSpaceOnUse" color-interpolation-filters="sRGB">
<feFlood flood-opacity="0" result="BackgroundImageFix"/>
<feColorMatrix in="SourceAlpha" type="matrix" values="0 0 0 0 0 0 0 0 0 0 0 0 0 0 0 0 0 0 127 0"/>
<feOffset dy="16"/>
<feGaussianBlur stdDeviation="16"/>
<feColorMatrix type="matrix" values="0 0 0 0 0 0 0 0 0 0 0 0 0 0 0 0 0 0 0.1 0"/>
<feBlend mode="normal" in2="BackgroundImageFix" result="effect1_dropShadow"/>
<feBlend mode="normal" in="SourceGraphic" in2="effect1_dropShadow" result="shape"/>
</filter>
<filter id="filter3_d" x="10.7627" y="243.381" width="104.825" height="103.928" filterUnits="userSpaceOnUse" color-interpolation-filters="sRGB">
<feFlood flood-opacity="0" result="BackgroundImageFix"/>
<feColorMatrix in="SourceAlpha" type="matrix" values="0 0 0 0 0 0 0 0 0 0 0 0 0 0 0 0 0 0 127 0"/>
<feOffset dy="16"/>
<feGaussianBlur stdDeviation="16"/>
<feColorMatrix type="matrix" values="0 0 0 0 0 0 0 0 0 0 0 0 0 0 0 0 0 0 0.1 0"/>
<feBlend mode="normal" in2="BackgroundImageFix" result="effect1_dropShadow"/>
<feBlend mode="normal" in="SourceGraphic" in2="effect1_dropShadow" result="shape"/>
</filter>
<filter id="filter4_dd" x="186.062" y="19.2783" width="192.165" height="258.041" filterUnits="userSpaceOnUse" color-interpolation-filters="sRGB">
<feFlood flood-opacity="0" result="BackgroundImageFix"/>
<feColorMatrix in="SourceAlpha" type="matrix" values="0 0 0 0 0 0 0 0 0 0 0 0 0 0 0 0 0 0 127 0"/>
<feOffset dy="10"/>
<feGaussianBlur stdDeviation="10"/>
<feColorMatrix type="matrix" values="0 0 0 0 0 0 0 0 0 0 0 0 0 0 0 0 0 0 0.1 0"/>
<feBlend mode="normal" in2="BackgroundImageFix" result="effect1_dropShadow"/>
<feColorMatrix in="SourceAlpha" type="matrix" values="0 0 0 0 0 0 0 0 0 0 0 0 0 0 0 0 0 0 127 0"/>
<feOffset/>
<feGaussianBlur stdDeviation="2"/>
<feColorMatrix type="matrix" values="0 0 0 0 0 0 0 0 0 0 0 0 0 0 0 0 0 0 0.1 0"/>
<feBlend mode="normal" in2="effect1_dropShadow" result="effect2_dropShadow"/>
<feBlend mode="normal" in="SourceGraphic" in2="effect2_dropShadow" result="shape"/>
</filter>
</defs>
</svg>
