<svg width="388" height="388" viewBox="0 0 388 388" fill="none" xmlns="http://www.w3.org/2000/svg">
<g clip-path="url(#clip0)">
<g filter="url(#filter0_dd)">
<path d="M47.4785 113.752C47.4785 111.474 49.3252 109.627 51.6032 109.627H322.11C324.388 109.627 326.235 111.474 326.235 113.752V325.601H47.4785V113.752Z" fill="white"/>
</g>
<path d="M309.555 130.768H64.1608C61.8828 130.768 60.0361 132.615 60.0361 134.893V249.698C60.0361 251.976 61.8828 253.823 64.1608 253.823H309.555C311.832 253.823 313.679 251.976 313.679 249.698V134.893C313.679 132.615 311.832 130.768 309.555 130.768Z" fill="#F5F5F5"/>
<path d="M60.0361 265.481C60.0361 263.203 61.8827 261.356 64.1608 261.356H147.932L135.411 325.6H60.0361V265.481Z" fill="#F5F5F5"/>
<path d="M151.698 261.356H240.849L229.324 325.6H140.172L151.698 261.356Z" fill="#F5F5F5"/>
<path d="M244.62 261.356H309.556C311.834 261.356 313.681 263.203 313.681 265.481V325.6H233.095L244.62 261.356Z" fill="#F5F5F5"/>
<path fill-rule="evenodd" clip-rule="evenodd" d="M31.1562 325.42C31.1562 325.135 31.3871 324.904 31.6718 324.904H343.299C343.584 324.904 343.815 325.135 343.815 325.42C343.815 325.704 343.584 325.935 343.299 325.935H31.6718C31.3871 325.935 31.1562 325.704 31.1562 325.42Z" fill="#D9D9D9"/>
<rect x="27" y="326" width="322" height="38" fill="white"/>
<path d="M258.208 96.4153V91.0244" stroke="black"/>
<g filter="url(#filter1_d)">
<path fill-rule="evenodd" clip-rule="evenodd" d="M255.516 214.132C311.341 214.132 356.596 179.068 356.596 135.815C356.596 92.562 311.341 57.4985 255.516 57.4985C199.691 57.4985 154.437 92.562 154.437 135.815C154.437 161.978 170.994 185.145 196.434 199.368C196.605 199.463 196.709 199.646 196.698 199.841C196.295 206.735 192.73 213.701 182.399 217.33C181.87 217.516 181.933 218.303 182.492 218.349C191.785 219.133 210.047 218.476 228.01 211.288C228.106 211.25 228.211 211.241 228.312 211.262C236.968 213.133 246.091 214.132 255.516 214.132Z" fill="white"/>
</g>
<path d="M343.19 135.867C343.19 173.454 303.949 203.923 255.541 203.923C207.134 203.923 167.893 173.454 167.893 135.867C167.893 98.2801 207.134 67.8101 255.541 67.8101C303.949 67.8101 343.19 98.2801 343.19 135.867Z" fill="#F0F5FF"/>
<path fill-rule="evenodd" clip-rule="evenodd" d="M343.129 138.428L341.585 138.354C341.624 137.529 341.643 136.7 341.643 135.867C341.643 135.034 341.624 134.205 341.585 133.379L343.129 133.306C343.17 134.156 343.19 135.009 343.19 135.867C343.19 136.724 343.17 137.578 343.129 138.428ZM342.643 128.216L341.112 128.437C340.875 126.792 340.561 125.166 340.171 123.559L341.674 123.195C342.075 124.848 342.399 126.523 342.643 128.216ZM340.238 118.287L338.776 118.789C338.238 117.224 337.628 115.681 336.948 114.162L338.361 113.53C339.058 115.091 339.685 116.677 340.238 118.287ZM336.072 108.956L334.719 109.706C333.917 108.261 333.051 106.842 332.122 105.45L333.407 104.592C334.36 106.018 335.249 107.473 336.072 108.956ZM330.402 100.45L329.186 101.406C328.164 100.106 327.085 98.8352 325.953 97.5948L327.096 96.5519C328.253 97.8198 329.356 99.1197 330.402 100.45ZM323.513 92.8962L322.447 94.0161C321.247 92.8735 319.999 91.7617 318.705 90.6827L319.695 89.4947C321.015 90.5951 322.288 91.7296 323.513 92.8962ZM315.665 86.3459L314.752 87.5938C313.411 86.6121 312.029 85.6629 310.607 84.7481L311.445 83.4475C312.891 84.3789 314.299 85.3455 315.665 86.3459ZM307.068 80.8062L306.307 82.1528C304.86 81.3346 303.377 80.5502 301.862 79.8013L302.548 78.4147C304.087 79.176 305.595 79.9737 307.068 80.8062ZM297.9 76.2707L297.29 77.692C295.759 77.0345 294.199 76.412 292.612 75.8258L293.148 74.3748C294.76 74.9702 296.344 75.6027 297.9 76.2707ZM288.309 72.7252L287.847 74.2013C286.254 73.7028 284.64 73.2401 283.002 72.8143L283.391 71.3173C285.053 71.7495 286.693 72.2192 288.309 72.7252ZM278.408 70.1495L278.092 71.6634C276.456 71.3212 274.802 71.0153 273.13 70.7469L273.375 69.2197C275.072 69.4919 276.75 69.8023 278.408 70.1495ZM268.308 68.5268L268.134 70.0637C266.475 69.8757 264.8 69.7243 263.112 69.6106L263.215 68.0673C264.928 68.1826 266.625 68.3362 268.308 68.5268ZM258.106 67.8386L258.072 69.385C257.231 69.3663 256.388 69.3568 255.541 69.3568C254.696 69.3568 253.852 69.3663 253.012 69.385L252.978 67.8386C253.83 67.8196 254.684 67.8101 255.541 67.8101C256.399 67.8101 257.254 67.8196 258.106 67.8386ZM247.868 68.0673L247.972 69.6106C246.284 69.7243 244.609 69.8757 242.95 70.0637L242.776 68.5268C244.457 68.3362 246.156 68.1826 247.868 68.0673ZM237.708 69.2197L237.954 70.7469C236.281 71.0153 234.627 71.3212 232.992 71.6634L232.675 70.1495C234.333 69.8023 236.012 69.4919 237.708 69.2197ZM227.693 71.3173L228.081 72.8143C226.444 73.2401 224.829 73.7028 223.237 74.2013L222.775 72.7252C224.391 72.2192 226.031 71.7495 227.693 71.3173ZM217.936 74.3748L218.472 75.8258C216.885 76.412 215.325 77.0345 213.794 77.692L213.183 76.2707C214.739 75.6027 216.324 74.9702 217.936 74.3748ZM208.536 78.4147L209.222 79.8013C207.707 80.5502 206.224 81.3346 204.776 82.1528L204.015 80.8062C205.488 79.9737 206.996 79.176 208.536 78.4147ZM199.639 83.4475L200.476 84.7481C199.054 85.6629 197.673 86.6121 196.332 87.5938L195.418 86.3459C196.785 85.3455 198.192 84.3789 199.639 83.4475ZM191.388 89.4947L192.379 90.6827C191.084 91.7617 189.837 92.8735 188.636 94.0161L187.57 92.8962C188.794 91.7296 190.068 90.5951 191.388 89.4947ZM183.988 96.552L185.131 97.5948C183.998 98.8352 182.92 100.106 181.898 101.406L180.682 100.45C181.728 99.1197 182.831 97.8198 183.988 96.552ZM177.675 104.592L178.962 105.45C178.033 106.842 177.167 108.261 176.365 109.706L175.012 108.956C175.835 107.473 176.723 106.018 177.675 104.592ZM172.723 113.53L174.135 114.162C173.456 115.681 172.845 117.224 172.308 118.789L170.845 118.287C171.399 116.677 172.024 115.091 172.723 113.53ZM169.409 123.195L170.913 123.559C170.523 125.166 170.209 126.792 169.971 128.437L168.441 128.216C168.685 126.523 169.008 124.848 169.409 123.195ZM167.954 133.306C167.913 134.156 167.893 135.009 167.893 135.867C167.893 136.724 167.913 137.578 167.954 138.428L169.499 138.354C169.46 137.529 169.439 136.7 169.439 135.867C169.439 135.034 169.46 134.205 169.499 133.379L167.954 133.306ZM168.441 143.517L169.971 143.297C170.209 144.941 170.523 146.568 170.913 148.174L169.409 148.539C169.008 146.885 168.685 145.21 168.441 143.517ZM170.845 153.447L172.308 152.944C172.845 154.509 173.456 156.053 174.135 157.572L172.723 158.203C172.024 156.643 171.399 155.057 170.845 153.447ZM175.012 162.778L176.365 162.027C177.167 163.472 178.033 164.892 178.962 166.283L177.675 167.142C176.723 165.716 175.835 164.261 175.012 162.778ZM180.682 171.284L181.898 170.327C182.92 171.627 183.998 172.898 185.131 174.138L183.988 175.182C182.831 173.913 181.728 172.613 180.682 171.284ZM187.57 178.837C188.794 180.004 190.068 181.138 191.388 182.239L192.379 181.051C191.084 179.972 189.837 178.86 188.636 177.717L187.57 178.837ZM195.418 185.387L196.332 184.139C197.673 185.121 199.054 186.071 200.476 186.986L199.639 188.286C198.192 187.355 196.785 186.387 195.418 185.387ZM204.015 190.928L204.776 189.581C206.224 190.399 207.707 191.183 209.222 191.932L208.536 193.319C206.995 192.557 205.488 191.76 204.015 190.928ZM213.183 195.463L213.794 194.042C215.325 194.699 216.885 195.321 218.472 195.907L217.936 197.359C216.324 196.763 214.739 196.131 213.183 195.463ZM222.775 199.008L223.237 197.532C224.829 198.03 226.444 198.493 228.081 198.919L227.693 200.416C226.031 199.984 224.391 199.514 222.775 199.008ZM232.675 201.584L232.992 200.07C234.627 200.412 236.281 200.719 237.954 200.987L237.708 202.514C236.012 202.242 234.333 201.931 232.675 201.584ZM242.776 203.207L242.95 201.669C244.609 201.858 246.284 202.01 247.972 202.123L247.868 203.667C246.156 203.551 244.457 203.397 242.776 203.207ZM252.978 203.895L253.012 202.349C253.852 202.367 254.696 202.377 255.541 202.377C256.388 202.377 257.231 202.367 258.072 202.349L258.106 203.895C257.254 203.914 256.399 203.923 255.541 203.923C254.684 203.923 253.83 203.914 252.978 203.895ZM263.215 203.667L263.112 202.123C264.8 202.01 266.475 201.858 268.134 201.669L268.308 203.207C266.625 203.397 264.928 203.551 263.215 203.667ZM273.375 202.514L273.13 200.987C274.802 200.719 276.456 200.412 278.092 200.07L278.408 201.584C276.75 201.931 275.072 202.242 273.375 202.514ZM283.391 200.416L283.002 198.919C284.64 198.493 286.254 198.03 287.847 197.532L288.309 199.008C286.693 199.514 285.053 199.984 283.391 200.416ZM293.148 197.359L292.612 195.907C294.199 195.321 295.759 194.699 297.29 194.042L297.9 195.463C296.344 196.131 294.76 196.763 293.148 197.359ZM302.548 193.319L301.862 191.932C303.377 191.183 304.86 190.399 306.307 189.581L307.068 190.928C305.595 191.76 304.087 192.557 302.548 193.319ZM311.445 188.286L310.607 186.986C312.029 186.071 313.411 185.121 314.752 184.139L315.665 185.387C314.299 186.387 312.891 187.355 311.445 188.286ZM319.695 182.239L318.705 181.051C319.999 179.972 321.247 178.86 322.447 177.717L323.513 178.837C322.289 180.004 321.015 181.138 319.695 182.239ZM327.096 175.182C328.253 173.913 329.356 172.613 330.402 171.284L329.186 170.327C328.164 171.627 327.085 172.898 325.953 174.138L327.096 175.182ZM333.407 167.142L332.122 166.283C333.051 164.892 333.917 163.472 334.719 162.027L336.072 162.778C335.249 164.261 334.36 165.716 333.407 167.142ZM338.361 158.203L336.948 157.572C337.628 156.053 338.238 154.509 338.776 152.944L340.238 153.447C339.685 155.057 339.058 156.643 338.361 158.203ZM341.674 148.539L340.171 148.174C340.561 146.568 340.875 144.941 341.112 143.297L342.643 143.517C342.399 145.21 342.075 146.885 341.674 148.539Z" fill="#2F54EB"/>
<path d="M317.411 117.306H196.765C195.626 117.306 194.703 118.229 194.703 119.368V129.68C194.703 130.819 195.626 131.742 196.765 131.742H317.411C318.55 131.742 319.474 130.819 319.474 129.68V119.368C319.474 118.229 318.55 117.306 317.411 117.306Z" fill="#4062EF"/>
<path d="M327.723 139.991H186.454C185.315 139.991 184.392 140.915 184.392 142.054V152.365C184.392 153.504 185.315 154.427 186.454 154.427H327.723C328.862 154.427 329.785 153.504 329.785 152.365V142.054C329.785 140.915 328.862 139.991 327.723 139.991Z" fill="#4062EF"/>
<path d="M297.819 162.677H215.326C214.187 162.677 213.264 163.6 213.264 164.739V175.051C213.264 176.19 214.187 177.113 215.326 177.113H297.819C298.958 177.113 299.881 176.19 299.881 175.051V164.739C299.881 163.6 298.958 162.677 297.819 162.677Z" fill="#4062EF"/>
<path d="M288.539 94.6201H224.607C223.468 94.6201 222.545 95.5435 222.545 96.6824V106.994C222.545 108.133 223.468 109.056 224.607 109.056H288.539C289.678 109.056 290.602 108.133 290.602 106.994V96.6824C290.602 95.5435 289.678 94.6201 288.539 94.6201Z" fill="#4062EF"/>
<g filter="url(#filter2_d)">
<path fill-rule="evenodd" clip-rule="evenodd" d="M132.833 295.618C113.471 295.618 97.7744 280.692 97.7744 262.281C97.7744 243.868 113.471 228.942 132.833 228.942C152.197 228.942 167.893 243.868 167.893 262.281C167.893 273.36 162.21 283.176 153.464 289.239C153.318 289.34 153.232 289.508 153.243 289.684C153.398 292.267 154.42 294.853 157.158 296.458C157.62 296.729 157.522 297.475 156.986 297.499C153.569 297.651 148.001 297.138 142.497 294.469C142.385 294.414 142.256 294.401 142.135 294.433C139.173 295.205 136.054 295.618 132.833 295.618Z" fill="white"/>
</g>
<path d="M102.931 262.184C102.931 277.845 116.319 290.541 132.834 290.541C149.35 290.541 162.738 277.845 162.738 262.184C162.738 246.523 149.35 233.827 132.834 233.827C116.319 233.827 102.931 246.523 102.931 262.184Z" fill="#FFF2E8"/>
<path fill-rule="evenodd" clip-rule="evenodd" d="M102.979 263.818L104.009 263.757C103.978 263.237 103.962 262.712 103.962 262.184C103.962 261.656 103.978 261.131 104.009 260.612L102.979 260.55C102.947 261.09 102.931 261.636 102.931 262.184C102.931 262.733 102.947 263.278 102.979 263.818ZM103.372 257.306L104.386 257.49C104.576 256.453 104.827 255.434 105.137 254.44L104.153 254.133C103.831 255.167 103.569 256.226 103.372 257.306ZM105.311 251.078L106.252 251.501C106.682 250.542 107.169 249.612 107.709 248.713L106.824 248.182C106.264 249.116 105.759 250.082 105.311 251.078ZM108.665 245.482L109.482 246.111C110.122 245.28 110.81 244.485 111.543 243.728L110.802 243.011C110.042 243.795 109.329 244.62 108.665 245.482ZM113.202 240.794L113.859 241.589C114.667 240.922 115.514 240.296 116.398 239.716L115.832 238.854C114.917 239.454 114.039 240.102 113.202 240.794ZM118.657 237.21L119.126 238.128C120.058 237.652 121.02 237.223 122.01 236.843L121.641 235.88C120.617 236.273 119.621 236.718 118.657 237.21ZM124.75 234.876L125.015 235.872C126.024 235.604 127.056 235.386 128.107 235.222L127.948 234.204C126.861 234.374 125.794 234.598 124.75 234.876ZM131.199 233.868L131.252 234.899C131.776 234.872 132.304 234.858 132.834 234.858C133.365 234.858 133.893 234.872 134.417 234.899L134.469 233.868C133.928 233.842 133.382 233.827 132.834 233.827C132.286 233.827 131.741 233.842 131.199 233.868ZM137.721 234.204L137.562 235.222C138.612 235.386 139.645 235.604 140.654 235.872L140.918 234.876C139.875 234.598 138.807 234.374 137.721 234.204ZM144.028 235.88L143.659 236.843C144.649 237.223 145.611 237.652 146.542 238.128L147.012 237.21C146.048 236.718 145.052 236.273 144.028 235.88ZM149.837 238.854L149.271 239.716C150.154 240.296 151.002 240.922 151.81 241.589L152.466 240.794C151.63 240.102 150.751 239.454 149.837 238.854ZM154.867 243.011C155.627 243.795 156.34 244.62 157.003 245.482L156.187 246.111C155.547 245.28 154.858 244.485 154.126 243.728L154.867 243.011ZM158.844 248.182L157.96 248.713C158.499 249.612 158.986 250.542 159.417 251.501L160.358 251.078C159.91 250.082 159.405 249.116 158.844 248.182ZM161.516 254.133L160.531 254.44C160.841 255.434 161.093 256.453 161.283 257.49L162.297 257.306C162.099 256.226 161.838 255.167 161.516 254.133ZM162.689 260.55C162.722 261.09 162.738 261.636 162.738 262.184C162.738 262.733 162.722 263.278 162.689 263.818L161.66 263.757C161.691 263.237 161.706 262.712 161.706 262.184C161.706 261.656 161.691 261.131 161.66 260.612L162.689 260.55ZM162.297 267.063L161.283 266.878C161.093 267.915 160.841 268.934 160.531 269.928L161.516 270.235C161.838 269.201 162.099 268.142 162.297 267.063ZM160.358 273.29L159.417 272.867C158.986 273.826 158.499 274.756 157.96 275.655L158.844 276.186C159.405 275.252 159.91 274.286 160.358 273.29ZM157.003 278.886L156.187 278.257C155.547 279.088 154.858 279.883 154.126 280.64L154.867 281.358C155.627 280.573 156.34 279.748 157.003 278.886ZM152.466 283.575L151.81 282.779C151.002 283.447 150.154 284.073 149.271 284.652L149.837 285.514C150.751 284.914 151.63 284.266 152.466 283.575ZM147.012 287.158L146.542 286.24C145.611 286.716 144.649 287.145 143.659 287.525L144.028 288.488C145.052 288.095 146.048 287.651 147.012 287.158ZM140.918 289.492L140.654 288.496C139.645 288.764 138.612 288.982 137.562 289.146L137.721 290.165C138.807 289.995 139.875 289.77 140.918 289.492ZM134.469 290.5L134.417 289.47C133.893 289.496 133.365 289.51 132.834 289.51C132.304 289.51 131.776 289.496 131.252 289.47L131.199 290.5C131.741 290.527 132.286 290.541 132.834 290.541C133.382 290.541 133.928 290.527 134.469 290.5ZM127.948 290.165L128.107 289.146C127.056 288.982 126.024 288.764 125.015 288.496L124.75 289.492C125.794 289.77 126.861 289.995 127.948 290.165ZM121.641 288.488L122.01 287.525C121.02 287.145 120.058 286.716 119.126 286.24L118.657 287.158C119.621 287.651 120.617 288.095 121.641 288.488ZM115.832 285.514L116.398 284.652C115.514 284.073 114.667 283.447 113.859 282.779L113.202 283.575C114.039 284.266 114.917 284.914 115.832 285.514ZM110.802 281.358L111.543 280.64C110.81 279.883 110.122 279.088 109.482 278.257L108.665 278.886C109.329 279.748 110.042 280.573 110.802 281.358ZM106.824 276.186L107.709 275.655C107.169 274.756 106.682 273.826 106.252 272.867L105.311 273.29C105.759 274.286 106.264 275.252 106.824 276.186ZM104.153 270.235L105.137 269.928C104.827 268.934 104.576 267.915 104.386 266.878L103.372 267.063C103.569 268.142 103.831 269.201 104.153 270.235Z" fill="#FA541C"/>
<path d="M118.397 247.232C118.397 246.663 118.859 246.201 119.429 246.201H146.238C146.809 246.201 147.269 246.663 147.269 247.232V253.419C147.269 253.988 146.809 254.45 146.238 254.45H119.429C118.859 254.45 118.397 253.988 118.397 253.419V247.232Z" fill="#FF7A45"/>
<path d="M123.554 274.042C123.554 273.473 124.015 273.011 124.585 273.011H142.114C142.684 273.011 143.145 273.473 143.145 274.042V280.229C143.145 280.799 142.684 281.261 142.114 281.261H124.585C124.015 281.261 123.554 280.799 123.554 280.229V274.042Z" fill="#FF7A45"/>
<path d="M152.426 259.606H114.273C113.704 259.606 113.242 260.068 113.242 260.637V266.824C113.242 267.394 113.704 267.855 114.273 267.855H152.426C152.996 267.855 153.457 267.394 153.457 266.824V260.637C153.457 260.068 152.996 259.606 152.426 259.606Z" fill="#FF7A45"/>
</g>
<defs>
<filter id="filter0_dd" x="27.4785" y="99.6274" width="318.756" height="255.973" filterUnits="userSpaceOnUse" color-interpolation-filters="sRGB">
<feFlood flood-opacity="0" result="BackgroundImageFix"/>
<feColorMatrix in="SourceAlpha" type="matrix" values="0 0 0 0 0 0 0 0 0 0 0 0 0 0 0 0 0 0 127 0"/>
<feOffset dy="10"/>
<feGaussianBlur stdDeviation="10"/>
<feColorMatrix type="matrix" values="0 0 0 0 0 0 0 0 0 0 0 0 0 0 0 0 0 0 0.1 0"/>
<feBlend mode="normal" in2="BackgroundImageFix" result="effect1_dropShadow"/>
<feColorMatrix in="SourceAlpha" type="matrix" values="0 0 0 0 0 0 0 0 0 0 0 0 0 0 0 0 0 0 127 0"/>
<feOffset/>
<feGaussianBlur stdDeviation="2"/>
<feColorMatrix type="matrix" values="0 0 0 0 0 0 0 0 0 0 0 0 0 0 0 0 0 0 0.1 0"/>
<feBlend mode="normal" in2="effect1_dropShadow" result="effect2_dropShadow"/>
<feBlend mode="normal" in="SourceGraphic" in2="effect2_dropShadow" result="shape"/>
</filter>
<filter id="filter1_d" x="122.437" y="41.4985" width="266.159" height="225.107" filterUnits="userSpaceOnUse" color-interpolation-filters="sRGB">
<feFlood flood-opacity="0" result="BackgroundImageFix"/>
<feColorMatrix in="SourceAlpha" type="matrix" values="0 0 0 0 0 0 0 0 0 0 0 0 0 0 0 0 0 0 127 0"/>
<feOffset dy="16"/>
<feGaussianBlur stdDeviation="16"/>
<feColorMatrix type="matrix" values="0 0 0 0 0 0 0 0 0 0 0 0 0 0 0 0 0 0 0.1 0"/>
<feBlend mode="normal" in2="BackgroundImageFix" result="effect1_dropShadow"/>
<feBlend mode="normal" in="SourceGraphic" in2="effect1_dropShadow" result="shape"/>
</filter>
<filter id="filter2_d" x="65.7744" y="212.942" width="134.118" height="132.581" filterUnits="userSpaceOnUse" color-interpolation-filters="sRGB">
<feFlood flood-opacity="0" result="BackgroundImageFix"/>
<feColorMatrix in="SourceAlpha" type="matrix" values="0 0 0 0 0 0 0 0 0 0 0 0 0 0 0 0 0 0 127 0"/>
<feOffset dy="16"/>
<feGaussianBlur stdDeviation="16"/>
<feColorMatrix type="matrix" values="0 0 0 0 0 0 0 0 0 0 0 0 0 0 0 0 0 0 0.1 0"/>
<feBlend mode="normal" in2="BackgroundImageFix" result="effect1_dropShadow"/>
<feBlend mode="normal" in="SourceGraphic" in2="effect1_dropShadow" result="shape"/>
</filter>
<clipPath id="clip0">
<path d="M0 0H388V388H0V0Z" fill="white"/>
</clipPath>
</defs>
</svg>
