<svg width="388" height="388" viewBox="0 0 388 388" fill="none" xmlns="http://www.w3.org/2000/svg">
<g filter="url(#filter0_dd)">
<path d="M289.798 55.1235H30.6846C28.6691 55.1235 27.0352 56.7575 27.0352 58.773V139.062C27.0352 141.077 28.6691 142.711 30.6846 142.711H289.798C291.814 142.711 293.448 141.077 293.448 139.062V58.773C293.448 56.7575 291.814 55.1235 289.798 55.1235Z" fill="white"/>
</g>
<path d="M236.881 93.4434H47.1079C46.1002 93.4434 45.2832 94.2603 45.2832 95.2681V105.304C45.2832 106.312 46.1002 107.129 47.1079 107.129H236.881C237.889 107.129 238.706 106.312 238.706 105.304V95.2681C238.706 94.2603 237.889 93.4434 236.881 93.4434Z" fill="#F5F5F5"/>
<path d="M273.376 73.3711H47.1079C46.1002 73.3711 45.2832 74.1881 45.2832 75.1958V84.3195C45.2832 85.3273 46.1002 86.1443 47.1079 86.1443H273.376C274.384 86.1443 275.201 85.3273 275.201 84.3195V75.1958C275.201 74.1881 274.384 73.3711 273.376 73.3711Z" fill="#F5F5F5"/>
<g filter="url(#filter1_dd)">
<path d="M357.314 124.464H84.5147C82.4992 124.464 80.8652 126.098 80.8652 128.113V311.5C80.8652 313.516 82.4992 315.149 84.5147 315.149H357.314C359.329 315.149 360.963 313.516 360.963 311.5V128.113C360.963 126.098 359.329 124.464 357.314 124.464Z" fill="white"/>
</g>
<path d="M123.864 209.82V213.876H121.729V209.853L117.213 202.38H119.496L122.862 207.98L126.262 202.38H128.364L123.864 209.82Z" fill="#4062EF"/>
<path d="M132.363 213.991C131.476 213.991 130.677 213.799 129.966 213.416C129.254 213.033 128.696 212.502 128.29 211.823C127.896 211.133 127.699 210.356 127.699 209.491C127.699 208.626 127.896 207.854 128.29 207.176C128.696 206.497 129.254 205.966 129.966 205.583C130.677 205.199 131.476 205.008 132.363 205.008C133.261 205.008 134.066 205.199 134.777 205.583C135.489 205.966 136.042 206.497 136.436 207.176C136.841 207.854 137.044 208.626 137.044 209.491C137.044 210.356 136.841 211.133 136.436 211.823C136.042 212.502 135.489 213.033 134.777 213.416C134.066 213.799 133.261 213.991 132.363 213.991ZM132.363 212.234C133.119 212.234 133.743 211.982 134.235 211.478C134.728 210.975 134.974 210.312 134.974 209.491C134.974 208.67 134.728 208.008 134.235 207.504C133.743 207 133.119 206.749 132.363 206.749C131.608 206.749 130.984 207 130.491 207.504C130.009 208.008 129.768 208.67 129.768 209.491C129.768 210.312 130.009 210.975 130.491 211.478C130.984 211.982 131.608 212.234 132.363 212.234Z" fill="#4062EF"/>
<path d="M147.334 205.106V213.876H145.379V212.759C145.051 213.154 144.64 213.46 144.148 213.679C143.655 213.887 143.124 213.991 142.555 213.991C141.383 213.991 140.458 213.668 139.779 213.022C139.111 212.365 138.777 211.396 138.777 210.115V205.106H140.83V209.836C140.83 210.624 141.005 211.216 141.356 211.61C141.717 211.993 142.226 212.185 142.883 212.185C143.617 212.185 144.197 211.96 144.624 211.511C145.062 211.051 145.281 210.395 145.281 209.541V205.106H147.334Z" fill="#4062EF"/>
<path d="M167.912 205.106L164.677 213.876H162.706L160.44 207.833L158.141 213.876H156.17L152.951 205.106H154.889L157.205 211.577L159.619 205.106H161.343L163.708 211.61L166.089 205.106H167.912Z" fill="#4062EF"/>
<path d="M177.162 209.54C177.162 209.683 177.151 209.885 177.129 210.148H170.248C170.369 210.794 170.681 211.309 171.184 211.692C171.699 212.064 172.334 212.25 173.089 212.25C174.053 212.25 174.846 211.933 175.471 211.298L176.571 212.562C176.177 213.033 175.679 213.389 175.076 213.63C174.474 213.871 173.795 213.991 173.04 213.991C172.077 213.991 171.228 213.799 170.494 213.416C169.761 213.033 169.192 212.502 168.787 211.823C168.392 211.133 168.195 210.356 168.195 209.491C168.195 208.637 168.387 207.871 168.77 207.192C169.164 206.502 169.706 205.966 170.396 205.583C171.086 205.199 171.863 205.008 172.728 205.008C173.582 205.008 174.343 205.199 175.011 205.583C175.69 205.955 176.215 206.486 176.587 207.176C176.97 207.854 177.162 208.643 177.162 209.54ZM172.728 206.65C172.071 206.65 171.513 206.847 171.053 207.241C170.604 207.624 170.33 208.139 170.232 208.785H175.208C175.12 208.15 174.852 207.635 174.403 207.241C173.954 206.847 173.396 206.65 172.728 206.65Z" fill="#4062EF"/>
<path d="M183.947 205.008C185.053 205.008 185.939 205.331 186.607 205.977C187.275 206.623 187.609 207.581 187.609 208.851V213.876H185.556V209.113C185.556 208.347 185.376 207.772 185.014 207.389C184.653 206.995 184.138 206.798 183.471 206.798C182.715 206.798 182.118 207.028 181.68 207.488C181.243 207.937 181.024 208.588 181.024 209.442V213.876H178.971V205.106H180.925V206.24C181.264 205.834 181.691 205.528 182.206 205.32C182.721 205.112 183.301 205.008 183.947 205.008Z" fill="#4062EF"/>
<path d="M195.32 213.4C195.08 213.597 194.784 213.745 194.434 213.843C194.094 213.942 193.733 213.991 193.35 213.991C192.386 213.991 191.642 213.739 191.116 213.236C190.591 212.732 190.328 211.998 190.328 211.035V206.814H188.883V205.172H190.328V203.168H192.381V205.172H194.729V206.814H192.381V210.986C192.381 211.413 192.485 211.741 192.693 211.971C192.901 212.19 193.202 212.299 193.596 212.299C194.056 212.299 194.439 212.179 194.746 211.938L195.32 213.4Z" fill="#4062EF"/>
<path d="M204.57 205.008C205.862 205.008 206.847 205.32 207.526 205.944C208.216 206.557 208.561 207.488 208.561 208.736V213.876H206.623V212.809C206.371 213.192 206.01 213.487 205.539 213.695C205.079 213.892 204.521 213.991 203.864 213.991C203.207 213.991 202.632 213.882 202.139 213.663C201.647 213.433 201.264 213.121 200.99 212.726C200.727 212.321 200.596 211.867 200.596 211.363C200.596 210.575 200.886 209.946 201.466 209.475C202.057 208.993 202.982 208.752 204.242 208.752H206.508V208.621C206.508 208.008 206.322 207.537 205.95 207.208C205.588 206.88 205.046 206.716 204.324 206.716C203.831 206.716 203.344 206.792 202.862 206.946C202.391 207.099 201.992 207.312 201.663 207.586L200.858 206.092C201.318 205.741 201.871 205.473 202.517 205.287C203.163 205.101 203.847 205.008 204.57 205.008ZM204.291 212.497C204.805 212.497 205.26 212.382 205.654 212.152C206.059 211.911 206.344 211.571 206.508 211.133V210.115H204.389C203.207 210.115 202.616 210.504 202.616 211.281C202.616 211.654 202.763 211.949 203.059 212.168C203.355 212.387 203.765 212.497 204.291 212.497Z" fill="#4062EF"/>
<path d="M220.265 205.008C221.119 205.008 221.88 205.194 222.548 205.566C223.227 205.938 223.758 206.464 224.141 207.143C224.524 207.822 224.716 208.604 224.716 209.491C224.716 210.378 224.524 211.166 224.141 211.856C223.758 212.535 223.227 213.06 222.548 213.433C221.88 213.805 221.119 213.991 220.265 213.991C219.663 213.991 219.11 213.887 218.607 213.679C218.114 213.471 217.698 213.159 217.359 212.743V213.876H215.404V201.69H217.457V206.174C217.807 205.791 218.218 205.5 218.689 205.303C219.171 205.106 219.696 205.008 220.265 205.008ZM220.035 212.234C220.791 212.234 221.41 211.982 221.891 211.478C222.384 210.975 222.63 210.312 222.63 209.491C222.63 208.67 222.384 208.008 221.891 207.504C221.41 207 220.791 206.749 220.035 206.749C219.543 206.749 219.099 206.864 218.705 207.093C218.311 207.312 217.999 207.63 217.769 208.046C217.539 208.462 217.424 208.944 217.424 209.491C217.424 210.039 217.539 210.52 217.769 210.936C217.999 211.352 218.311 211.675 218.705 211.905C219.099 212.124 219.543 212.234 220.035 212.234Z" fill="#4062EF"/>
<path d="M226.5 205.106H228.553V213.876H226.5V205.106ZM227.535 203.661C227.162 203.661 226.85 203.546 226.598 203.316C226.347 203.075 226.221 202.78 226.221 202.429C226.221 202.079 226.347 201.789 226.598 201.559C226.85 201.318 227.162 201.198 227.535 201.198C227.907 201.198 228.219 201.313 228.471 201.543C228.722 201.762 228.848 202.041 228.848 202.38C228.848 202.741 228.722 203.048 228.471 203.3C228.23 203.541 227.918 203.661 227.535 203.661Z" fill="#4062EF"/>
<path d="M236.354 213.4C236.113 213.597 235.817 213.745 235.467 213.843C235.127 213.942 234.766 213.991 234.383 213.991C233.42 213.991 232.675 213.739 232.149 213.236C231.624 212.732 231.361 211.998 231.361 211.035V206.814H229.916V205.172H231.361V203.168H233.414V205.172H235.762V206.814H233.414V210.986C233.414 211.413 233.518 211.741 233.726 211.971C233.934 212.19 234.235 212.299 234.629 212.299C235.089 212.299 235.472 212.179 235.779 211.938L236.354 213.4Z" fill="#4062EF"/>
<path d="M250.496 209.54C250.496 209.683 250.485 209.885 250.463 210.148H243.582C243.703 210.794 244.015 211.309 244.518 211.692C245.033 212.064 245.668 212.25 246.423 212.25C247.387 212.25 248.18 211.933 248.805 211.298L249.905 212.562C249.511 213.033 249.013 213.389 248.41 213.63C247.808 213.871 247.129 213.991 246.374 213.991C245.411 213.991 244.562 213.799 243.828 213.416C243.095 213.033 242.526 212.502 242.121 211.823C241.726 211.133 241.529 210.356 241.529 209.491C241.529 208.637 241.721 207.871 242.104 207.192C242.498 206.502 243.04 205.966 243.73 205.583C244.42 205.199 245.197 205.008 246.062 205.008C246.916 205.008 247.677 205.199 248.345 205.583C249.024 205.955 249.549 206.486 249.921 207.176C250.304 207.854 250.496 208.643 250.496 209.54ZM246.062 206.65C245.405 206.65 244.847 206.847 244.387 207.241C243.938 207.624 243.664 208.139 243.566 208.785H248.542C248.454 208.15 248.186 207.635 247.737 207.241C247.288 206.847 246.73 206.65 246.062 206.65Z" fill="#4062EF"/>
<path d="M255.414 205.008C256.706 205.008 257.691 205.32 258.37 205.944C259.06 206.557 259.404 207.488 259.404 208.736V213.876H257.467V212.809C257.215 213.192 256.853 213.487 256.383 213.695C255.923 213.892 255.364 213.991 254.708 213.991C254.051 213.991 253.476 213.882 252.983 213.663C252.49 213.433 252.107 213.121 251.834 212.726C251.571 212.321 251.439 211.867 251.439 211.363C251.439 210.575 251.73 209.946 252.31 209.475C252.901 208.993 253.826 208.752 255.085 208.752H257.352V208.621C257.352 208.008 257.166 207.537 256.793 207.208C256.432 206.88 255.89 206.716 255.167 206.716C254.675 206.716 254.188 206.792 253.706 206.946C253.235 207.099 252.835 207.312 252.507 207.586L251.702 206.092C252.162 205.741 252.715 205.473 253.361 205.287C254.007 205.101 254.691 205.008 255.414 205.008ZM255.135 212.497C255.649 212.497 256.104 212.382 256.498 212.152C256.903 211.911 257.187 211.571 257.352 211.133V210.115H255.233C254.051 210.115 253.459 210.504 253.459 211.281C253.459 211.654 253.607 211.949 253.903 212.168C254.198 212.387 254.609 212.497 255.135 212.497Z" fill="#4062EF"/>
<path d="M264.585 213.991C263.873 213.991 263.178 213.898 262.499 213.712C261.82 213.526 261.278 213.29 260.873 213.006L261.661 211.445C262.055 211.708 262.526 211.922 263.074 212.086C263.632 212.239 264.179 212.316 264.716 212.316C265.942 212.316 266.555 211.993 266.555 211.347C266.555 211.04 266.397 210.827 266.079 210.706C265.773 210.586 265.274 210.471 264.585 210.362C263.862 210.252 263.271 210.126 262.811 209.984C262.362 209.842 261.968 209.595 261.628 209.245C261.3 208.884 261.136 208.385 261.136 207.75C261.136 206.918 261.481 206.256 262.17 205.763C262.871 205.26 263.813 205.008 264.995 205.008C265.597 205.008 266.199 205.079 266.802 205.221C267.404 205.353 267.896 205.533 268.28 205.763L267.491 207.323C266.747 206.885 265.909 206.667 264.979 206.667C264.377 206.667 263.917 206.76 263.599 206.946C263.293 207.121 263.139 207.356 263.139 207.652C263.139 207.98 263.304 208.216 263.632 208.358C263.971 208.489 264.492 208.615 265.192 208.736C265.893 208.845 266.468 208.971 266.917 209.113C267.365 209.256 267.749 209.497 268.066 209.836C268.395 210.175 268.559 210.657 268.559 211.281C268.559 212.102 268.203 212.759 267.491 213.252C266.78 213.745 265.811 213.991 264.585 213.991Z" fill="#4062EF"/>
<path d="M278.214 205.106L274.108 214.582C273.725 215.535 273.26 216.203 272.713 216.586C272.165 216.98 271.503 217.177 270.725 217.177C270.287 217.177 269.855 217.106 269.428 216.964C269.001 216.821 268.651 216.624 268.377 216.372L269.198 214.862C269.395 215.048 269.625 215.195 269.888 215.305C270.162 215.414 270.435 215.469 270.709 215.469C271.07 215.469 271.366 215.376 271.596 215.19C271.837 215.004 272.056 214.692 272.253 214.254L272.401 213.909L268.574 205.106H270.709L273.468 211.593L276.243 205.106H278.214Z" fill="#4062EF"/>
<path d="M287.648 213.991C286.762 213.991 285.962 213.799 285.251 213.416C284.539 213.033 283.981 212.502 283.576 211.823C283.181 211.133 282.984 210.356 282.984 209.491C282.984 208.626 283.181 207.854 283.576 207.176C283.981 206.497 284.539 205.966 285.251 205.583C285.962 205.199 286.762 205.008 287.648 205.008C288.546 205.008 289.351 205.199 290.063 205.583C290.774 205.966 291.327 206.497 291.721 207.176C292.126 207.854 292.329 208.626 292.329 209.491C292.329 210.356 292.126 211.133 291.721 211.823C291.327 212.502 290.774 213.033 290.063 213.416C289.351 213.799 288.546 213.991 287.648 213.991ZM287.648 212.234C288.404 212.234 289.028 211.982 289.521 211.478C290.013 210.975 290.26 210.312 290.26 209.491C290.26 208.67 290.013 208.008 289.521 207.504C289.028 207 288.404 206.749 287.648 206.749C286.893 206.749 286.269 207 285.776 207.504C285.294 208.008 285.054 208.67 285.054 209.491C285.054 210.312 285.294 210.975 285.776 211.478C286.269 211.982 286.893 212.234 287.648 212.234Z" fill="#4062EF"/>
<path d="M299.105 205.008C300.211 205.008 301.098 205.331 301.765 205.977C302.433 206.623 302.767 207.581 302.767 208.851V213.876H300.714V209.113C300.714 208.347 300.534 207.772 300.172 207.389C299.811 206.995 299.297 206.798 298.629 206.798C297.873 206.798 297.277 207.028 296.839 207.488C296.401 207.937 296.182 208.588 296.182 209.442V213.876H294.129V205.106H296.083V206.24C296.423 205.834 296.85 205.528 297.364 205.32C297.879 205.112 298.459 205.008 299.105 205.008Z" fill="#4062EF"/>
<path d="M320.649 205.008C321.755 205.008 322.631 205.331 323.277 205.977C323.923 206.612 324.246 207.57 324.246 208.851V213.876H322.193V209.113C322.193 208.347 322.023 207.772 321.684 207.389C321.344 206.995 320.857 206.798 320.222 206.798C319.532 206.798 318.979 207.028 318.563 207.488C318.147 207.937 317.939 208.582 317.939 209.426V213.876H315.886V209.113C315.886 208.347 315.717 207.772 315.377 207.389C315.038 206.995 314.551 206.798 313.916 206.798C313.215 206.798 312.657 207.022 312.241 207.471C311.835 207.92 311.633 208.572 311.633 209.426V213.876H309.58V205.106H311.534V206.223C311.863 205.829 312.273 205.528 312.766 205.32C313.259 205.112 313.806 205.008 314.408 205.008C315.065 205.008 315.646 205.134 316.149 205.386C316.664 205.626 317.069 205.988 317.364 206.469C317.726 206.01 318.191 205.654 318.76 205.402C319.33 205.139 319.959 205.008 320.649 205.008Z" fill="#4062EF"/>
<path d="M335.029 209.54C335.029 209.683 335.018 209.885 334.996 210.148H328.115C328.236 210.794 328.548 211.309 329.051 211.692C329.566 212.064 330.201 212.25 330.956 212.25C331.92 212.25 332.714 211.933 333.338 211.298L334.438 212.562C334.044 213.033 333.546 213.389 332.944 213.63C332.341 213.871 331.663 213.991 330.907 213.991C329.944 213.991 329.095 213.799 328.362 213.416C327.628 213.033 327.059 212.502 326.654 211.823C326.26 211.133 326.062 210.356 326.062 209.491C326.062 208.637 326.254 207.871 326.637 207.192C327.031 206.502 327.573 205.966 328.263 205.583C328.953 205.199 329.73 205.008 330.595 205.008C331.449 205.008 332.21 205.199 332.878 205.583C333.557 205.955 334.082 206.486 334.454 207.176C334.838 207.854 335.029 208.643 335.029 209.54ZM330.595 206.65C329.938 206.65 329.38 206.847 328.92 207.241C328.471 207.624 328.197 208.139 328.099 208.785H333.075C332.987 208.15 332.719 207.635 332.27 207.241C331.821 206.847 331.263 206.65 330.595 206.65Z" fill="#4062EF"/>
<path d="M337.51 211.265C337.893 211.265 338.211 211.391 338.462 211.643C338.714 211.895 338.84 212.223 338.84 212.628C338.84 212.803 338.813 212.99 338.758 213.187C338.714 213.373 338.616 213.657 338.462 214.041L337.625 216.356H336.295L336.952 213.843C336.711 213.745 336.519 213.592 336.377 213.384C336.245 213.165 336.18 212.913 336.18 212.628C336.18 212.223 336.306 211.895 336.557 211.643C336.809 211.391 337.127 211.265 337.51 211.265Z" fill="#4062EF"/>
<path d="M100.711 200.784C101.38 201.058 101.897 201.498 102.262 202.107C102.657 202.684 102.855 203.384 102.855 204.205C102.855 205.3 102.505 206.197 101.806 206.897C101.106 207.597 100.24 207.946 99.2056 207.946C98.1107 207.946 97.2136 207.597 96.5141 206.897C95.8146 206.197 95.4648 205.3 95.4648 204.205C95.4648 203.658 95.5257 203.126 95.6473 202.609C95.7994 202.091 96.0731 201.316 96.4685 200.282L98.8862 193.804H102.536L100.711 200.784ZM110.382 200.784C111.051 201.058 111.568 201.498 111.933 202.107C112.328 202.684 112.526 203.384 112.526 204.205C112.526 205.3 112.177 206.197 111.477 206.897C110.777 207.597 109.91 207.946 108.877 207.946C107.782 207.946 106.885 207.597 106.185 206.897C105.486 206.197 105.136 205.3 105.136 204.205C105.136 203.658 105.197 203.126 105.318 202.609C105.471 202.091 105.744 201.316 106.14 200.282L108.557 193.804H112.207L110.382 200.784Z" fill="#4062EF"/>
<path d="M127.067 225.412V237.598H125.556V236.218C125.206 236.7 124.762 237.067 124.226 237.319C123.689 237.57 123.098 237.696 122.452 237.696C121.609 237.696 120.854 237.51 120.186 237.138C119.518 236.766 118.992 236.246 118.609 235.578C118.237 234.899 118.051 234.122 118.051 233.246C118.051 232.37 118.237 231.598 118.609 230.93C118.992 230.262 119.518 229.742 120.186 229.37C120.854 228.998 121.609 228.812 122.452 228.812C123.076 228.812 123.651 228.932 124.176 229.173C124.702 229.403 125.14 229.748 125.49 230.208V225.412H127.067ZM122.583 236.317C123.131 236.317 123.629 236.191 124.078 235.939C124.527 235.676 124.877 235.315 125.129 234.855C125.381 234.384 125.507 233.848 125.507 233.246C125.507 232.644 125.381 232.113 125.129 231.653C124.877 231.182 124.527 230.821 124.078 230.569C123.629 230.317 123.131 230.191 122.583 230.191C122.025 230.191 121.521 230.317 121.073 230.569C120.635 230.821 120.284 231.182 120.022 231.653C119.77 232.113 119.644 232.644 119.644 233.246C119.644 233.848 119.77 234.384 120.022 234.855C120.284 235.315 120.635 235.676 121.073 235.939C121.521 236.191 122.025 236.317 122.583 236.317Z" fill="#ADC6FF"/>
<path d="M129.887 228.894H131.463V237.598H129.887V228.894ZM130.675 227.219C130.368 227.219 130.111 227.12 129.903 226.923C129.706 226.726 129.607 226.485 129.607 226.201C129.607 225.916 129.706 225.675 129.903 225.478C130.111 225.27 130.368 225.166 130.675 225.166C130.981 225.166 131.233 225.265 131.43 225.462C131.638 225.648 131.742 225.883 131.742 226.168C131.742 226.463 131.638 226.715 131.43 226.923C131.233 227.12 130.981 227.219 130.675 227.219Z" fill="#ADC6FF"/>
<path d="M142.52 225.412V237.598H141.009V236.218C140.659 236.7 140.215 237.067 139.679 237.319C139.142 237.57 138.551 237.696 137.905 237.696C137.062 237.696 136.307 237.51 135.639 237.138C134.971 236.766 134.445 236.246 134.062 235.578C133.69 234.899 133.504 234.122 133.504 233.246C133.504 232.37 133.69 231.598 134.062 230.93C134.445 230.262 134.971 229.742 135.639 229.37C136.307 228.998 137.062 228.812 137.905 228.812C138.529 228.812 139.104 228.932 139.63 229.173C140.155 229.403 140.593 229.748 140.943 230.208V225.412H142.52ZM138.037 236.317C138.584 236.317 139.082 236.191 139.531 235.939C139.98 235.676 140.33 235.315 140.582 234.855C140.834 234.384 140.96 233.848 140.96 233.246C140.96 232.644 140.834 232.113 140.582 231.653C140.33 231.182 139.98 230.821 139.531 230.569C139.082 230.317 138.584 230.191 138.037 230.191C137.478 230.191 136.975 230.317 136.526 230.569C136.088 230.821 135.737 231.182 135.475 231.653C135.223 232.113 135.097 232.644 135.097 233.246C135.097 233.848 135.223 234.384 135.475 234.855C135.737 235.315 136.088 235.676 136.526 235.939C136.975 236.191 137.478 236.317 138.037 236.317Z" fill="#ADC6FF"/>
<path d="M149.986 228.812C151.091 228.812 151.967 229.135 152.613 229.78C153.27 230.415 153.598 231.352 153.598 232.589V237.598H152.022V232.769C152.022 231.926 151.819 231.291 151.414 230.864C151.009 230.437 150.429 230.224 149.673 230.224C148.82 230.224 148.146 230.476 147.653 230.979C147.161 231.472 146.914 232.184 146.914 233.114V237.598H145.338V228.894H146.849V230.207C147.166 229.759 147.593 229.414 148.13 229.173C148.677 228.932 149.296 228.812 149.986 228.812Z" fill="#ADC6FF"/>
<path d="M156.634 225.314C156.94 225.314 157.192 225.423 157.389 225.642C157.597 225.85 157.701 226.113 157.701 226.431C157.701 226.595 157.685 226.759 157.652 226.923C157.619 227.077 157.548 227.301 157.438 227.597L156.65 229.896H155.615L156.223 227.449C156.015 227.372 155.845 227.246 155.714 227.071C155.593 226.885 155.533 226.672 155.533 226.431C155.533 226.102 155.637 225.834 155.845 225.626C156.053 225.418 156.316 225.314 156.634 225.314Z" fill="#ADC6FF"/>
<path d="M164.738 237.089C164.508 237.286 164.223 237.439 163.884 237.549C163.544 237.647 163.194 237.696 162.833 237.696C161.957 237.696 161.278 237.461 160.796 236.99C160.315 236.519 160.074 235.846 160.074 234.97V230.191H158.596V228.894H160.074V226.989H161.65V228.894H164.147V230.191H161.65V234.905C161.65 235.375 161.765 235.737 161.995 235.988C162.236 236.24 162.575 236.366 163.013 236.366C163.495 236.366 163.906 236.229 164.245 235.956L164.738 237.089Z" fill="#ADC6FF"/>
<path d="M178.429 228.894L174.208 238.468C173.836 239.355 173.398 239.979 172.895 240.341C172.402 240.702 171.805 240.883 171.105 240.883C170.678 240.883 170.262 240.811 169.856 240.669C169.462 240.538 169.134 240.341 168.871 240.078L169.544 238.895C169.993 239.322 170.513 239.536 171.105 239.536C171.488 239.536 171.805 239.432 172.057 239.224C172.32 239.027 172.555 238.682 172.763 238.189L173.042 237.582L169.2 228.894H170.842L173.88 235.857L176.885 228.894H178.429Z" fill="#ADC6FF"/>
<path d="M183.222 237.696C182.357 237.696 181.58 237.505 180.89 237.121C180.2 236.738 179.658 236.213 179.264 235.545C178.881 234.866 178.689 234.1 178.689 233.246C178.689 232.392 178.881 231.631 179.264 230.963C179.658 230.284 180.2 229.759 180.89 229.386C181.58 229.003 182.357 228.812 183.222 228.812C184.087 228.812 184.859 229.003 185.538 229.386C186.227 229.759 186.764 230.284 187.147 230.963C187.541 231.631 187.738 232.392 187.738 233.246C187.738 234.1 187.541 234.866 187.147 235.545C186.764 236.213 186.227 236.738 185.538 237.121C184.859 237.505 184.087 237.696 183.222 237.696ZM183.222 236.317C183.78 236.317 184.279 236.191 184.717 235.939C185.165 235.676 185.516 235.315 185.768 234.855C186.019 234.384 186.145 233.848 186.145 233.246C186.145 232.643 186.019 232.112 185.768 231.653C185.516 231.182 185.165 230.821 184.717 230.569C184.279 230.317 183.78 230.191 183.222 230.191C182.664 230.191 182.16 230.317 181.711 230.569C181.273 230.821 180.923 231.182 180.66 231.653C180.408 232.112 180.282 232.643 180.282 233.246C180.282 233.848 180.408 234.384 180.66 234.855C180.923 235.315 181.273 235.676 181.711 235.939C182.16 236.191 182.664 236.317 183.222 236.317Z" fill="#ADC6FF"/>
<path d="M197.869 228.894V237.598H196.374V236.284C196.057 236.733 195.635 237.083 195.11 237.335C194.595 237.576 194.031 237.697 193.418 237.697C192.258 237.697 191.343 237.379 190.676 236.744C190.008 236.098 189.674 235.151 189.674 233.903V228.894H191.25V233.722C191.25 234.565 191.453 235.206 191.858 235.644C192.263 236.071 192.843 236.284 193.599 236.284C194.431 236.284 195.088 236.032 195.57 235.529C196.051 235.025 196.292 234.314 196.292 233.394V228.894H197.869Z" fill="#ADC6FF"/>
<path d="M203.181 233.969C203.181 233.531 203.252 233.147 203.394 232.819C203.547 232.48 203.728 232.195 203.936 231.965C204.155 231.735 204.44 231.461 204.79 231.144C205.228 230.761 205.551 230.432 205.759 230.158C205.967 229.874 206.071 229.534 206.071 229.14C206.071 228.604 205.863 228.177 205.447 227.859C205.031 227.531 204.456 227.367 203.723 227.367C202.442 227.367 201.462 227.799 200.783 228.664L199.584 227.81C200.044 227.219 200.63 226.764 201.341 226.447C202.064 226.129 202.896 225.971 203.837 225.971C205.031 225.971 205.978 226.233 206.679 226.759C207.379 227.274 207.73 227.985 207.73 228.894C207.73 229.343 207.653 229.742 207.5 230.093C207.357 230.432 207.182 230.717 206.974 230.947C206.766 231.177 206.487 231.45 206.137 231.768C205.688 232.173 205.354 232.529 205.135 232.835C204.927 233.142 204.823 233.52 204.823 233.969H203.181ZM204.018 237.697C203.712 237.697 203.454 237.598 203.246 237.401C203.049 237.193 202.951 236.941 202.951 236.645C202.951 236.35 203.049 236.104 203.246 235.906C203.454 235.698 203.712 235.594 204.018 235.594C204.325 235.594 204.576 235.698 204.774 235.906C204.971 236.104 205.069 236.35 205.069 236.645C205.069 236.941 204.965 237.193 204.757 237.401C204.56 237.598 204.314 237.697 204.018 237.697Z" fill="#ADC6FF"/>
<path d="M329.944 142.711H97.2896C96.2818 142.711 95.4648 143.528 95.4648 144.536V153.66C95.4648 154.668 96.2818 155.485 97.2896 155.485H329.944C330.952 155.485 331.769 154.668 331.769 153.66V144.536C331.769 143.528 330.952 142.711 329.944 142.711Z" fill="#F0F5FF"/>
<path d="M329.944 264.057H97.2896C96.2818 264.057 95.4648 264.874 95.4648 265.881V275.005C95.4648 276.013 96.2818 276.83 97.2896 276.83H329.944C330.952 276.83 331.769 276.013 331.769 275.005V265.881C331.769 264.874 330.952 264.057 329.944 264.057Z" fill="#F0F5FF"/>
<path d="M236.882 162.784H97.2896C96.2818 162.784 95.4648 163.601 95.4648 164.608V173.732C95.4648 174.74 96.2818 175.557 97.2896 175.557H236.882C237.89 175.557 238.707 174.74 238.707 173.732V164.608C238.707 163.601 237.89 162.784 236.882 162.784Z" fill="#F0F5FF"/>
<path d="M291.625 284.129H97.2896C96.2818 284.129 95.4648 284.946 95.4648 285.954V295.077C95.4648 296.085 96.2818 296.902 97.2896 296.902H291.625C292.632 296.902 293.449 296.085 293.449 295.077V285.954C293.449 284.946 292.632 284.129 291.625 284.129Z" fill="#F0F5FF"/>
<path fill-rule="evenodd" clip-rule="evenodd" d="M340.893 219.35V197.454H342.717V219.35H340.893Z" fill="#10239E"/>
<defs>
<filter id="filter0_dd" x="7.03516" y="45.1235" width="306.412" height="127.588" filterUnits="userSpaceOnUse" color-interpolation-filters="sRGB">
<feFlood flood-opacity="0" result="BackgroundImageFix"/>
<feColorMatrix in="SourceAlpha" type="matrix" values="0 0 0 0 0 0 0 0 0 0 0 0 0 0 0 0 0 0 127 0"/>
<feOffset dy="10"/>
<feGaussianBlur stdDeviation="10"/>
<feColorMatrix type="matrix" values="0 0 0 0 0 0 0 0 0 0 0 0 0 0 0 0 0 0 0.1 0"/>
<feBlend mode="normal" in2="BackgroundImageFix" result="effect1_dropShadow"/>
<feColorMatrix in="SourceAlpha" type="matrix" values="0 0 0 0 0 0 0 0 0 0 0 0 0 0 0 0 0 0 127 0"/>
<feOffset/>
<feGaussianBlur stdDeviation="2"/>
<feColorMatrix type="matrix" values="0 0 0 0 0 0 0 0 0 0 0 0 0 0 0 0 0 0 0.1 0"/>
<feBlend mode="normal" in2="effect1_dropShadow" result="effect2_dropShadow"/>
<feBlend mode="normal" in="SourceGraphic" in2="effect2_dropShadow" result="shape"/>
</filter>
<filter id="filter1_dd" x="60.8652" y="114.464" width="320.098" height="230.686" filterUnits="userSpaceOnUse" color-interpolation-filters="sRGB">
<feFlood flood-opacity="0" result="BackgroundImageFix"/>
<feColorMatrix in="SourceAlpha" type="matrix" values="0 0 0 0 0 0 0 0 0 0 0 0 0 0 0 0 0 0 127 0"/>
<feOffset dy="10"/>
<feGaussianBlur stdDeviation="10"/>
<feColorMatrix type="matrix" values="0 0 0 0 0 0 0 0 0 0 0 0 0 0 0 0 0 0 0.1 0"/>
<feBlend mode="normal" in2="BackgroundImageFix" result="effect1_dropShadow"/>
<feColorMatrix in="SourceAlpha" type="matrix" values="0 0 0 0 0 0 0 0 0 0 0 0 0 0 0 0 0 0 127 0"/>
<feOffset/>
<feGaussianBlur stdDeviation="2"/>
<feColorMatrix type="matrix" values="0 0 0 0 0 0 0 0 0 0 0 0 0 0 0 0 0 0 0.1 0"/>
<feBlend mode="normal" in2="effect1_dropShadow" result="effect2_dropShadow"/>
<feBlend mode="normal" in="SourceGraphic" in2="effect2_dropShadow" result="shape"/>
</filter>
</defs>
</svg>
