<svg width="388" height="388" viewBox="0 0 388 388" fill="none" xmlns="http://www.w3.org/2000/svg">
<path d="M227.203 49.29H50.7549V133.262H227.203V49.29Z" fill="white"/>
<g filter="url(#filter0_dd)">
<path d="M79.4541 209.542C79.4541 207.333 81.245 205.542 83.4541 205.542H311.427C313.636 205.542 315.427 207.333 315.427 209.542V341.598H79.4541V209.542Z" fill="white"/>
</g>
<path d="M300.798 216.171H94.084C91.8748 216.171 90.084 217.962 90.084 220.171V315.276C90.084 317.485 91.8748 319.276 94.084 319.276H300.798C303.007 319.276 304.798 317.485 304.798 315.276V220.171C304.798 217.962 303.007 216.171 300.798 216.171Z" fill="#F5F5F5"/>
<path d="M90.084 328.591C90.084 326.382 91.8749 324.591 94.084 324.591H300.797C303.006 324.591 304.797 326.382 304.797 328.591V341.598H90.084V328.591Z" fill="#F5F5F5"/>
<path d="M218.762 288.451H101.713C101.161 288.451 100.713 288.899 100.713 289.451V295.955C100.713 296.507 101.161 296.955 101.713 296.955H218.762C219.314 296.955 219.762 296.507 219.762 295.955V289.451C219.762 288.899 219.314 288.451 218.762 288.451Z" fill="white"/>
<path d="M195.377 302.269H101.713C101.161 302.269 100.713 302.717 100.713 303.269V309.773C100.713 310.325 101.161 310.773 101.713 310.773H195.377C195.93 310.773 196.377 310.325 196.377 309.773V303.269C196.377 302.717 195.93 302.269 195.377 302.269Z" fill="white"/>
<path d="M62.5261 50.353H50.7549V62.1242H62.5261V50.353Z" fill="#E8E8E8"/>
<path d="M62.5261 73.8955H50.7549V85.6667H62.5261V73.8955Z" fill="#E8E8E8"/>
<path d="M62.5261 97.4375H50.7549V109.209H62.5261V97.4375Z" fill="#E8E8E8"/>
<path d="M62.5261 120.98H50.7549V132.751H62.5261V120.98Z" fill="#E8E8E8"/>
<path d="M74.2976 50.353H62.5264V62.1242H74.2976V50.353Z" fill="#FAFAFA"/>
<path d="M74.2976 73.8955H62.5264V85.6667H74.2976V73.8955Z" fill="#FAFAFA"/>
<path d="M74.2976 97.4375H62.5264V109.209H74.2976V97.4375Z" fill="#FAFAFA"/>
<path d="M74.2976 120.98H62.5264V132.751H74.2976V120.98Z" fill="#FAFAFA"/>
<path d="M62.5261 62.124H50.7549V73.8952H62.5261V62.124Z" fill="#FAFAFA"/>
<path d="M62.5261 85.6665H50.7549V97.4377H62.5261V85.6665Z" fill="#FAFAFA"/>
<path d="M62.5261 109.209H50.7549V120.98H62.5261V109.209Z" fill="#FAFAFA"/>
<path d="M86.0691 50.353H74.2979V62.1242H86.0691V50.353Z" fill="#E8E8E8"/>
<path d="M86.0691 73.8955H74.2979V85.6667H86.0691V73.8955Z" fill="#E8E8E8"/>
<path d="M86.0691 97.4375H74.2979V109.209H86.0691V97.4375Z" fill="#E8E8E8"/>
<path d="M86.0691 120.98H74.2979V132.751H86.0691V120.98Z" fill="#E8E8E8"/>
<path d="M74.2976 62.124H62.5264V73.8952H74.2976V62.124Z" fill="#E8E8E8"/>
<path d="M74.2976 85.6665H62.5264V97.4377H74.2976V85.6665Z" fill="#E8E8E8"/>
<path d="M74.2976 109.209H62.5264V120.98H74.2976V109.209Z" fill="#E8E8E8"/>
<path d="M97.8405 50.353H86.0693V62.1242H97.8405V50.353Z" fill="#FAFAFA"/>
<path d="M97.8405 73.8955H86.0693V85.6667H97.8405V73.8955Z" fill="#FAFAFA"/>
<path d="M97.8405 97.4375H86.0693V109.209H97.8405V97.4375Z" fill="#FAFAFA"/>
<path d="M97.8405 120.98H86.0693V132.751H97.8405V120.98Z" fill="#FAFAFA"/>
<path d="M86.0691 62.124H74.2979V73.8952H86.0691V62.124Z" fill="#FAFAFA"/>
<path d="M86.0691 85.6665H74.2979V97.4377H86.0691V85.6665Z" fill="#FAFAFA"/>
<path d="M86.0691 109.209H74.2979V120.98H86.0691V109.209Z" fill="#FAFAFA"/>
<path d="M109.611 50.353H97.8398V62.1242H109.611V50.353Z" fill="#E8E8E8"/>
<path d="M109.611 73.8955H97.8398V85.6667H109.611V73.8955Z" fill="#E8E8E8"/>
<path d="M109.611 97.4375H97.8398V109.209H109.611V97.4375Z" fill="#E8E8E8"/>
<path d="M109.611 120.98H97.8398V132.751H109.611V120.98Z" fill="#E8E8E8"/>
<path d="M97.8405 62.124H86.0693V73.8952H97.8405V62.124Z" fill="#E8E8E8"/>
<path d="M97.8405 85.6665H86.0693V97.4377H97.8405V85.6665Z" fill="#E8E8E8"/>
<path d="M97.8405 109.209H86.0693V120.98H97.8405V109.209Z" fill="#E8E8E8"/>
<path d="M121.382 50.353H109.61V62.1242H121.382V50.353Z" fill="#FAFAFA"/>
<path d="M121.382 73.8955H109.61V85.6667H121.382V73.8955Z" fill="#FAFAFA"/>
<path d="M121.382 97.4375H109.61V109.209H121.382V97.4375Z" fill="#FAFAFA"/>
<path d="M121.382 120.98H109.61V132.751H121.382V120.98Z" fill="#FAFAFA"/>
<path d="M109.611 62.124H97.8398V73.8952H109.611V62.124Z" fill="#FAFAFA"/>
<path d="M109.611 85.6665H97.8398V97.4377H109.611V85.6665Z" fill="#FAFAFA"/>
<path d="M109.611 109.209H97.8398V120.98H109.611V109.209Z" fill="#FAFAFA"/>
<path d="M133.153 50.353H121.382V62.1242H133.153V50.353Z" fill="#E8E8E8"/>
<path d="M133.153 73.8955H121.382V85.6667H133.153V73.8955Z" fill="#E8E8E8"/>
<path d="M133.153 97.4375H121.382V109.209H133.153V97.4375Z" fill="#E8E8E8"/>
<path d="M133.153 120.98H121.382V132.751H133.153V120.98Z" fill="#E8E8E8"/>
<path d="M121.382 62.124H109.61V73.8952H121.382V62.124Z" fill="#E8E8E8"/>
<path d="M121.382 85.6665H109.61V97.4377H121.382V85.6665Z" fill="#E8E8E8"/>
<path d="M121.382 109.209H109.61V120.98H121.382V109.209Z" fill="#E8E8E8"/>
<path d="M144.925 50.353H133.153V62.1242H144.925V50.353Z" fill="#FAFAFA"/>
<path d="M144.925 73.8955H133.153V85.6667H144.925V73.8955Z" fill="#FAFAFA"/>
<path d="M144.925 97.4375H133.153V109.209H144.925V97.4375Z" fill="#FAFAFA"/>
<path d="M144.925 120.98H133.153V132.751H144.925V120.98Z" fill="#FAFAFA"/>
<path d="M133.153 62.124H121.382V73.8952H133.153V62.124Z" fill="#FAFAFA"/>
<path d="M133.153 85.6665H121.382V97.4377H133.153V85.6665Z" fill="#FAFAFA"/>
<path d="M133.153 109.209H121.382V120.98H133.153V109.209Z" fill="#FAFAFA"/>
<path d="M156.696 50.353H144.925V62.1242H156.696V50.353Z" fill="#E8E8E8"/>
<path d="M156.696 73.8955H144.925V85.6667H156.696V73.8955Z" fill="#E8E8E8"/>
<path d="M156.696 97.4375H144.925V109.209H156.696V97.4375Z" fill="#E8E8E8"/>
<path d="M156.696 120.98H144.925V132.751H156.696V120.98Z" fill="#E8E8E8"/>
<path d="M144.925 62.124H133.153V73.8952H144.925V62.124Z" fill="#E8E8E8"/>
<path d="M144.925 85.6665H133.153V97.4377H144.925V85.6665Z" fill="#E8E8E8"/>
<path d="M144.925 109.209H133.153V120.98H144.925V109.209Z" fill="#E8E8E8"/>
<path d="M168.467 50.353H156.696V62.1242H168.467V50.353Z" fill="#FAFAFA"/>
<path d="M168.467 73.8955H156.696V85.6667H168.467V73.8955Z" fill="#FAFAFA"/>
<path d="M168.467 97.4375H156.696V109.209H168.467V97.4375Z" fill="#FAFAFA"/>
<path d="M168.467 120.98H156.696V132.751H168.467V120.98Z" fill="#FAFAFA"/>
<path d="M156.696 62.124H144.925V73.8952H156.696V62.124Z" fill="#FAFAFA"/>
<path d="M156.696 85.6665H144.925V97.4377H156.696V85.6665Z" fill="#FAFAFA"/>
<path d="M156.696 109.209H144.925V120.98H156.696V109.209Z" fill="#FAFAFA"/>
<path d="M180.239 50.353H168.468V62.1242H180.239V50.353Z" fill="#E8E8E8"/>
<path d="M180.239 73.8955H168.468V85.6667H180.239V73.8955Z" fill="#E8E8E8"/>
<path d="M180.239 97.4375H168.468V109.209H180.239V97.4375Z" fill="#E8E8E8"/>
<path d="M180.239 120.98H168.468V132.751H180.239V120.98Z" fill="#E8E8E8"/>
<path d="M168.467 62.124H156.696V73.8952H168.467V62.124Z" fill="#E8E8E8"/>
<path d="M168.467 85.6665H156.696V97.4377H168.467V85.6665Z" fill="#E8E8E8"/>
<path d="M168.467 109.209H156.696V120.98H168.467V109.209Z" fill="#E8E8E8"/>
<path d="M192.01 50.353H180.239V62.1242H192.01V50.353Z" fill="#FAFAFA"/>
<path d="M215.552 50.353H203.781V62.1242H215.552V50.353Z" fill="#FAFAFA"/>
<path d="M192.01 73.8955H180.239V85.6667H192.01V73.8955Z" fill="#FAFAFA"/>
<path d="M215.552 73.8955H203.781V85.6667H215.552V73.8955Z" fill="#FAFAFA"/>
<path d="M192.01 97.4375H180.239V109.209H192.01V97.4375Z" fill="#FAFAFA"/>
<path d="M215.552 97.4375H203.781V109.209H215.552V97.4375Z" fill="#FAFAFA"/>
<path d="M192.01 120.98H180.239V132.751H192.01V120.98Z" fill="#FAFAFA"/>
<path d="M215.552 120.98H203.781V132.751H215.552V120.98Z" fill="#FAFAFA"/>
<path d="M180.239 62.124H168.468V73.8952H180.239V62.124Z" fill="#FAFAFA"/>
<path d="M180.239 85.6665H168.468V97.4377H180.239V85.6665Z" fill="#FAFAFA"/>
<path d="M180.239 109.209H168.468V120.98H180.239V109.209Z" fill="#FAFAFA"/>
<path d="M203.78 50.353H192.009V62.1242H203.78V50.353Z" fill="#E8E8E8"/>
<path d="M227.323 50.353H215.552V62.1242H227.323V50.353Z" fill="#E8E8E8"/>
<path d="M203.78 73.8955H192.009V85.6667H203.78V73.8955Z" fill="#E8E8E8"/>
<path d="M227.323 73.8955H215.552V85.6667H227.323V73.8955Z" fill="#E8E8E8"/>
<path d="M203.78 97.4375H192.009V109.209H203.78V97.4375Z" fill="#E8E8E8"/>
<path d="M227.323 97.4375H215.552V109.209H227.323V97.4375Z" fill="#E8E8E8"/>
<path d="M203.78 120.98H192.009V132.751H203.78V120.98Z" fill="#E8E8E8"/>
<path d="M227.323 120.98H215.552V132.751H227.323V120.98Z" fill="#E8E8E8"/>
<path d="M192.01 62.124H180.239V73.8952H192.01V62.124Z" fill="#E8E8E8"/>
<path d="M215.552 62.124H203.781V73.8952H215.552V62.124Z" fill="#E8E8E8"/>
<path d="M192.01 85.6665H180.239V97.4377H192.01V85.6665Z" fill="#E8E8E8"/>
<path d="M215.552 85.6665H203.781V97.4377H215.552V85.6665Z" fill="#E8E8E8"/>
<path d="M192.01 109.209H180.239V120.98H192.01V109.209Z" fill="#E8E8E8"/>
<path d="M215.552 109.209H203.781V120.98H215.552V109.209Z" fill="#E8E8E8"/>
<path d="M203.78 62.124H192.009V73.8952H203.78V62.124Z" fill="#FAFAFA"/>
<path d="M227.323 62.124H215.552V73.8952H227.323V62.124Z" fill="#FAFAFA"/>
<path d="M203.78 85.6665H192.009V97.4377H203.78V85.6665Z" fill="#FAFAFA"/>
<path d="M227.323 85.6665H215.552V97.4377H227.323V85.6665Z" fill="#FAFAFA"/>
<path d="M203.78 109.209H192.009V120.98H203.78V109.209Z" fill="#FAFAFA"/>
<path d="M227.323 109.209H215.552V120.98H227.323V109.209Z" fill="#FAFAFA"/>
<path d="M208.748 92.9596C210.227 88.962 212.062 85.1049 214.23 81.4347C216.495 77.8824 218.953 74.4574 221.595 71.1752L224.43 67.5646L203.393 59.3346L194.62 86.3214C195.895 79.9309 197.567 72.9423 199.63 65.4258L200.793 61.1964L184.942 60.9006L185.601 58.2268L166.597 58.851L166.41 60.1514C165.92 58.945 165.166 57.8633 164.205 56.985C163.244 56.1066 162.099 55.4538 160.853 55.074C160.067 54.8398 159.253 54.7085 158.433 54.6836C153.186 54.5856 147.7 58.2784 141.655 66.0006C140.935 66.9531 140.257 67.8996 139.621 68.8402C139.869 64.3096 140.221 59.9622 140.67 55.8755L141.164 51.3237L115.446 56.0587C115.446 56.0587 114.829 59.7512 114.724 60.4138C114.375 58.682 113.554 57.0805 112.352 55.7862C111.149 54.4919 109.613 53.5553 107.911 53.0799C106.265 52.6141 104.556 52.4137 102.847 52.4863C98.1489 52.6585 92.3787 54.4452 85.7077 57.7549L83.9792 58.6118L83.6731 62.4383C81.1163 58.0232 78.1266 55.2728 74.7785 54.2577C72.9308 53.6962 70.9646 53.6523 69.0937 54.1306C62.9801 55.7335 58.6561 61.6226 55.8706 72.153C53.7814 80.3526 52.9443 88.8211 53.3878 97.2712C53.5416 101.205 53.9898 105.122 54.7284 108.989C55.5159 113.407 57.0305 117.664 59.2105 121.587C61.4089 125.446 63.9046 127.72 66.8215 128.604C68.0359 128.957 69.3086 129.065 70.5652 128.921C71.8218 128.777 73.0371 128.385 74.1401 127.766C75.9667 126.825 77.5947 125.54 78.9349 123.983L78.8482 127.349L95.2247 116.645L95.2949 114.886C95.3477 113.518 95.4131 112.109 95.4909 110.659L99.8031 122.343L101.482 120.019L100.993 121.866L119.705 114.256L119.515 117.12L134.521 110.671L136.235 111.469C136.916 111.787 137.618 112.056 138.338 112.275C140.32 112.883 142.412 113.048 144.465 112.759C147.597 112.267 150.553 110.991 153.061 109.051C155.689 107.216 158.108 105.099 160.276 102.738L159.096 110.921L174.363 106.322L173.793 109.781L188.514 106.198C189.273 107.252 190.315 108.068 191.519 108.554C191.804 108.641 192.076 108.771 192.369 108.86C193.886 109.298 195.477 109.425 197.045 109.232C199.364 109.018 201.605 108.281 203.598 107.076C207.534 104.781 208.335 101.982 208.318 100.037C208.31 99.099 208.081 98.1756 207.651 97.3419C207.22 96.5082 206.599 95.7876 205.838 95.2383L207.795 95.4965L208.748 92.9596ZM164.013 76.8503L163.761 78.5778C163.125 78.1885 162.445 77.8777 161.735 77.6521L164.013 76.8503ZM111.573 77.4668C110.628 82.1373 109.615 86.875 108.517 91.7068C107.408 89.335 106.541 87.4038 105.962 86.0229C108.107 83.3623 109.982 80.4947 111.559 77.4624L111.573 77.4668ZM77.7446 82.8878L83.1726 68.6965L80.8295 97.8562L77.9759 91.0761L75.3724 100.664C73.9041 106.086 72.5295 107.25 72.2136 107.449C71.7825 107.239 70.9843 106.238 70.5126 103.661C70.2446 102.193 70.0867 100.707 70.0404 99.2149C69.9129 95.0018 70.2925 90.7886 71.171 86.6661C72.2245 81.4537 73.3634 79.8034 73.7715 79.3524C73.8631 79.4188 73.9506 79.4907 74.0336 79.5676L77.7446 82.8878ZM193.098 94.7124C193.157 94.3313 193.217 93.9503 193.281 93.5546L195.284 93.8187C194.534 94.0544 193.804 94.3541 193.105 94.7145L193.098 94.7124Z" fill="#221F1F"/>
<path d="M66.276 128.453C63.7905 127.699 61.6299 125.663 59.6483 122.221C57.5507 118.459 56.0915 114.375 55.3301 110.135C54.6062 106.353 54.1669 102.521 54.0158 98.673C53.5785 90.3921 54.3966 82.0928 56.4423 74.0566C59.0526 64.1835 62.9839 58.6942 68.4472 57.2614C70.0129 56.854 71.6604 56.8841 73.2102 57.3485C76.2806 58.2794 79.0633 60.975 81.4672 65.3678L81.8487 66.0581L75.9627 81.4437L74.1141 79.7737C73.805 79.4714 73.4343 79.2392 73.0274 79.093C72.7669 79.0105 72.487 79.0122 72.2276 79.098C71.7245 79.2567 69.9257 80.3717 68.4326 87.7976C67.5269 92.0564 67.1373 96.4086 67.2723 100.761C67.3214 102.335 67.4888 103.904 67.773 105.454C68.1745 107.5 69.0129 110.053 70.7309 110.574L70.8478 110.609C71.1755 110.682 71.5186 110.64 71.8184 110.488C72.6683 110.108 74.3205 108.581 75.9492 102.577L77.2465 97.7978L83.1375 111.805L82.9468 112.434C80.098 120.566 76.6247 125.572 72.3219 127.732C71.412 128.246 70.4091 128.574 69.3712 128.698C68.3334 128.822 67.2814 128.739 66.276 128.453Z" fill="#221F1F"/>
<path d="M68.9139 58.9125C73.0927 57.8725 76.7996 60.3374 80.007 66.1871L75.2911 78.503C74.1181 77.4396 72.9412 77.0828 71.7602 77.4325C69.6666 78.1069 68.0154 81.4378 66.8067 87.4253C65.8713 91.8224 65.471 96.3164 65.6145 100.81C65.6675 102.471 65.8461 104.126 66.1488 105.761C66.8904 109.546 68.335 111.706 70.4827 112.24C71.1831 112.406 71.9195 112.328 72.5694 112.018C74.5636 111.127 76.255 108.12 77.6436 102.996L81.3509 111.831C78.6902 119.422 75.4385 124.223 71.5695 126.163C67.7006 128.103 64.173 126.627 61.1329 121.331C59.1363 117.73 57.7529 113.823 57.0392 109.768C56.332 106.071 55.9039 102.325 55.7586 98.5637C55.3277 90.4523 56.1293 82.3224 58.1361 74.4513C60.5495 65.3328 64.1513 60.1666 68.9139 58.9125Z" fill="white"/>
<path d="M79.6782 122.379C79.7068 121.127 79.9956 117.463 80.5481 111.164L84.5319 61.1651L85.3972 60.733C91.8535 57.5258 97.3864 55.8108 101.845 55.638C103.365 55.5707 104.885 55.746 106.349 56.1575C108.952 56.9465 112.093 59.0403 112.28 64.557C112.538 71.7634 109.447 79.1679 102.912 87.1886C103.968 89.8396 106.677 95.674 110.378 103.294L110.821 104.226L108.7 107.143C106.783 109.755 104.242 113.263 101.096 117.61L99.2155 120.233L93.2409 104.053C92.9034 108.405 92.658 112.505 92.5108 116.308L92.4768 117.184L79.54 125.626L79.6782 122.379ZM96.1463 75.8299C95.917 77.4287 95.7096 79.0341 95.5374 80.6023L95.4616 81.2738C95.6275 81.0687 95.7862 80.8613 95.9537 80.6248C97.1538 79.1418 98.0656 77.4472 98.6419 75.6286L98.684 75.4897C98.783 75.2515 98.8359 74.9967 98.8399 74.7387C97.8834 74.9367 96.9708 75.3064 96.1463 75.8299Z" fill="#221F1F"/>
<path d="M86.1848 62.2965C92.5385 59.1381 97.7967 57.5393 101.939 57.3824C107.569 57.2452 110.424 59.6996 110.599 64.6536C110.855 71.7078 107.642 79.0117 100.988 86.9003C101.647 88.8083 104.284 94.6446 108.865 104.072C106.848 106.853 103.799 111.013 99.7364 116.646L92.3346 96.6175L92.2701 96.6458L92.197 96.6237C91.5278 103.781 91.0753 110.319 90.8395 116.24L81.3789 122.432C81.4073 121.232 81.6942 117.53 82.2397 111.326L86.1848 62.2965ZM94.5781 74.7634C94.2902 76.661 94.0439 78.5527 93.8394 80.4384L93.2207 86.0859C94.7287 84.7832 96.0941 83.3242 97.2942 81.7333C98.6306 80.0787 99.6407 78.1854 100.271 76.1541C100.444 75.7103 100.528 75.2366 100.518 74.7602C100.54 74.5164 100.503 74.2709 100.41 74.0443C100.317 73.8178 100.171 73.617 99.9844 73.4586C99.7976 73.3003 99.5756 73.1891 99.3369 73.1346C99.0982 73.08 98.85 73.0835 98.613 73.145C97.1793 73.4172 95.8101 73.9581 94.5775 74.7392L94.5781 74.7634Z" fill="white"/>
<path d="M103.336 117.171C108.704 96.8315 112.717 78.172 115.704 60.1592L115.901 58.9818L138.17 54.8535L137.926 57.1342C136.352 71.6719 135.981 88.6658 136.849 107.632L136.893 108.802L120.367 115.917L120.974 106.834L120.304 107.094L119.254 113.64L102.474 120.462L103.336 117.171Z" fill="#221F1F"/>
<path d="M104.984 117.608C110.238 97.6476 114.403 78.6432 117.39 60.4468L136.233 56.9561C134.628 71.7 134.281 88.773 135.148 107.714L122.289 113.267L122.891 104.278L118.812 105.883L117.757 112.444L104.984 117.608ZM123.476 94.4771L125.236 66.37L125.178 66.3523L120.484 95.5256L123.476 94.4771Z" fill="white"/>
<path d="M137.792 112.108C137.151 111.913 136.525 111.672 135.919 111.389L134.519 110.741L135.006 109.292C135.973 106.392 137.505 102.235 139.584 96.8225L140.044 95.621C139.266 95.6316 138.491 95.5257 137.745 95.3069C137.216 95.1506 136.715 94.915 136.257 94.6082C134.776 93.6483 133.024 91.6325 133.331 87.5908C133.704 81.9645 136.599 75.5224 141.925 68.4603C147.606 61.2025 152.634 57.73 157.315 57.8241C157.978 57.8449 158.635 57.9503 159.271 58.1379C162.97 59.2594 164.964 63.0568 165.148 69.4026C165.192 71.1737 165.14 72.9458 164.991 74.7112L164.903 75.8422L163.83 76.1954C162.437 76.6588 160.868 77.1972 159.165 77.8141L152.327 80.4107L152.261 77.9959C152.273 77.4714 152.191 76.949 152.018 76.4535C151.101 76.5028 150.103 77.214 149.05 78.555C148.453 79.263 148.127 80.1602 148.131 81.0862C148.372 81.135 148.617 81.1558 148.862 81.1483C149.797 81.1079 150.725 80.9806 151.636 80.7679C153.307 80.3773 155.017 80.1781 156.733 80.174C157.833 80.1811 158.927 80.3381 159.984 80.6408C161.094 80.9246 162.107 81.5002 162.919 82.3079C163.731 83.1156 164.312 84.1259 164.602 85.234C164.828 86.1446 164.955 87.0769 164.98 88.0148C165.065 91.0259 164.092 94.1313 161.983 97.5867C159.174 102.134 155.439 106.039 151.021 109.047C148.734 110.824 146.037 111.996 143.178 112.456C141.379 112.734 139.54 112.615 137.792 112.108ZM142.106 96.0068C142.54 96.2883 143.01 96.5088 143.504 96.662C144.085 96.8387 144.695 96.9016 145.3 96.8473C145.833 96.7983 146.355 96.6717 146.851 96.4713L146.915 96.443C148.059 96.0477 149.153 95.5223 150.176 94.8772C150.789 94.5518 151.317 94.0851 151.714 93.5156C151.455 93.4716 151.192 93.4561 150.93 93.4694C149.355 93.6114 147.8 93.9271 146.294 94.4107C144.687 94.9175 143.041 95.2915 141.373 95.529L142.106 96.0068Z" fill="#221F1F"/>
<path d="M163.334 74.5918C162.011 75.026 160.441 75.5692 158.625 76.2214L153.981 78.0063C153.913 75.9154 153.336 74.8518 152.251 74.8155C150.671 74.7596 149.193 75.6846 147.718 77.5761C147.244 78.137 146.89 78.7888 146.677 79.4915C146.464 80.1942 146.396 80.933 146.479 81.6626C146.634 82.5186 147.438 82.938 148.891 82.9208C149.936 82.8803 150.976 82.741 151.995 82.5048C153.544 82.1407 155.13 81.9546 156.721 81.9501C160.22 82.021 162.302 83.3149 162.954 85.7716C163.146 86.5565 163.253 87.3596 163.273 88.1673C163.351 90.8331 162.4 93.6817 160.52 96.7998C157.833 101.153 154.253 104.885 150.016 107.752C147.955 109.37 145.519 110.441 142.933 110.865C140.768 111.164 138.563 110.815 136.596 109.862C137.535 107.057 139.055 102.912 141.153 97.4654C142.406 98.3033 143.905 98.6932 145.407 98.5717C146.105 98.5106 146.789 98.3469 147.438 98.086C148.707 97.6429 149.919 97.0542 151.051 96.3317C152.674 95.299 153.48 94.2981 153.443 93.3131C153.407 92.3282 152.542 91.7308 150.847 91.7917C149.137 91.9417 147.447 92.2781 145.81 92.7947C144.174 93.3259 142.49 93.695 140.782 93.8966C139.552 94.077 138.297 93.8372 137.221 93.216C135.569 92.1512 134.841 90.3337 135.034 87.7636C135.386 82.5221 138.13 76.3693 143.297 69.5146C148.6 62.7407 153.269 59.4786 157.292 59.557C161.194 59.7184 163.253 63.0645 163.46 69.4894C163.511 71.1912 163.469 72.8945 163.334 74.5918Z" fill="white"/>
<path d="M167.06 61.9606L182.375 61.4712L181.833 63.6537C180.195 70.2692 178.83 76.4568 177.76 82.0635L179.35 81.8509L182.141 64.0344L197.479 64.3104L196.902 66.4262C192.835 81.2617 190.276 93.9922 189.301 104.265L189.182 105.474L174.831 108.97L177.403 93.2983L175.72 93.586C175.137 97.8237 174.728 101.491 174.501 104.504L174.412 105.666L160.127 109.972L167.06 61.9606Z" fill="#221F1F"/>
<path d="M168.517 63.6132L180.164 63.2412C178.279 70.8648 176.771 77.8046 175.64 84.0606L180.82 83.3799L183.581 65.7696L195.28 65.9882C191.157 81.038 188.61 93.7802 187.622 104.121L176.959 106.723L179.496 91.2483C178.334 91.4283 176.57 91.7263 174.204 92.1423C173.525 96.9602 173.059 101.044 172.804 104.394L162.207 107.567L168.517 63.6132Z" fill="white"/>
<path d="M191.821 108.693C191.582 108.621 191.339 108.547 191.09 108.472C190.22 108.167 189.463 107.604 188.922 106.858C188.381 106.112 188.081 105.218 188.061 104.297C188.022 102.057 189.244 100.081 191.67 98.4222C193.491 97.2239 195.601 96.5399 197.778 96.4425C198.903 96.3709 200.032 96.497 201.114 96.8152C201.604 96.9635 202.08 97.1559 202.536 97.39C204.977 98.5532 205.511 100.295 205.528 101.554C205.549 103.724 204.249 105.588 201.652 107.1C199.869 108.181 197.864 108.842 195.789 109.034C194.457 109.186 193.108 109.07 191.821 108.693ZM203.394 63.0464L220.613 69.7836L219.195 71.5889C216.513 74.9237 214.016 78.4038 211.716 82.0134C209.493 85.7741 207.611 89.7262 206.092 93.8225L205.612 95.0898L193.481 93.5032L203.394 63.0464Z" fill="#221F1F"/>
<path d="M197.915 98.1032C199.261 98 200.61 98.2655 201.817 98.8712C203.162 99.5078 203.841 100.392 203.854 101.524C203.87 103.054 202.851 104.413 200.831 105.573C199.262 106.528 197.496 107.112 195.668 107.28C194.365 107.465 193.036 107.32 191.804 106.859C191.242 106.683 190.749 106.334 190.395 105.863C190.041 105.392 189.843 104.822 189.83 104.233C189.798 102.627 190.774 101.119 192.7 99.795C194.255 98.7719 196.056 98.1875 197.915 98.1032ZM204.464 65.2856L217.865 70.53C215.143 73.9155 212.609 77.4482 210.275 81.1122C207.995 84.9657 206.067 89.0163 204.514 93.215L195.761 92.07L204.464 65.2856Z" fill="white"/>
<path fill-rule="evenodd" clip-rule="evenodd" d="M225.448 51H53V130.972H225.448V51ZM51 49V132.972H227.448V49H51Z" fill="#1D39C4"/>
<path fill-rule="evenodd" clip-rule="evenodd" d="M139.979 38.3838V50.0761H137.979V38.3838H139.979Z" fill="#1D39C4"/>
<path d="M49 48H54V53H49V48Z" fill="white"/>
<path fill-rule="evenodd" clip-rule="evenodd" d="M49 47H55V53H49V47ZM50.4324 48.4324V51.5676H53.5676V48.4324H50.4324Z" fill="#1D39C4"/>
<path d="M49 130H54V135H49V130Z" fill="white"/>
<path fill-rule="evenodd" clip-rule="evenodd" d="M49 129H55V135H49V129ZM50.4324 130.432V133.568H53.5676V130.432H50.4324Z" fill="#1D39C4"/>
<path d="M224 48H228V52H224V48Z" fill="white"/>
<path fill-rule="evenodd" clip-rule="evenodd" d="M223 47H229V53H223V47ZM224.432 48.4324V51.5676H227.568V48.4324H224.432Z" fill="#1D39C4"/>
<path d="M142 40C142 41.6569 140.657 43 139 43C137.343 43 136 41.6569 136 40C136 38.3431 137.343 37 139 37C140.657 37 142 38.3431 142 40Z" fill="white"/>
<path fill-rule="evenodd" clip-rule="evenodd" d="M139 37.6948C137.727 37.6948 136.695 38.7269 136.695 40C136.695 41.2731 137.727 42.3052 139 42.3052C140.273 42.3052 141.306 41.2731 141.306 40C141.306 38.7269 140.273 37.6948 139 37.6948ZM135 40C135 37.7909 136.791 36 139 36C141.209 36 143 37.7909 143 40C143 42.2091 141.209 44 139 44C136.791 44 135 42.2091 135 40Z" fill="#1D39C4"/>
<path d="M233.707 112.79H177.119C176.015 112.79 175.119 113.685 175.119 114.79V142.678C175.119 143.782 176.015 144.678 177.119 144.678H233.707C234.811 144.678 235.707 143.782 235.707 142.678V114.79C235.707 113.685 234.811 112.79 233.707 112.79Z" fill="#4062EF"/>
<path d="M193.476 123.078C194.53 123.078 195.443 123.254 196.213 123.605C196.995 123.957 197.596 124.455 198.015 125.101C198.435 125.747 198.644 126.512 198.644 127.396C198.644 128.269 198.435 129.034 198.015 129.691C197.596 130.337 196.995 130.836 196.213 131.187C195.443 131.527 194.53 131.697 193.476 131.697H191.079V134.978H188.325V123.078H193.476ZM193.323 129.453C194.151 129.453 194.78 129.278 195.21 128.926C195.641 128.564 195.856 128.054 195.856 127.396C195.856 126.728 195.641 126.218 195.21 125.866C194.78 125.504 194.151 125.322 193.323 125.322H191.079V129.453H193.323Z" fill="white"/>
<path d="M204.516 135.182C203.576 135.182 202.663 135.058 201.779 134.808C200.907 134.548 200.204 134.213 199.671 133.805L200.606 131.731C201.116 132.105 201.723 132.406 202.425 132.632C203.128 132.859 203.831 132.972 204.533 132.972C205.315 132.972 205.893 132.859 206.267 132.632C206.641 132.394 206.828 132.083 206.828 131.697C206.828 131.414 206.715 131.182 206.488 131C206.273 130.808 205.99 130.655 205.638 130.541C205.298 130.428 204.834 130.303 204.244 130.167C203.338 129.952 202.595 129.737 202.017 129.521C201.439 129.306 200.941 128.96 200.521 128.484C200.113 128.008 199.909 127.374 199.909 126.58C199.909 125.889 200.096 125.266 200.47 124.71C200.844 124.144 201.405 123.696 202.153 123.367C202.913 123.039 203.836 122.874 204.924 122.874C205.684 122.874 206.426 122.965 207.151 123.146C207.877 123.328 208.511 123.588 209.055 123.928L208.205 126.019C207.106 125.396 206.007 125.084 204.907 125.084C204.137 125.084 203.564 125.209 203.19 125.458C202.828 125.708 202.646 126.036 202.646 126.444C202.646 126.852 202.856 127.158 203.275 127.362C203.706 127.555 204.358 127.748 205.23 127.94C206.137 128.156 206.879 128.371 207.457 128.586C208.035 128.802 208.528 129.142 208.936 129.606C209.356 130.071 209.565 130.7 209.565 131.493C209.565 132.173 209.373 132.797 208.987 133.363C208.613 133.919 208.047 134.361 207.287 134.689C206.528 135.018 205.604 135.182 204.516 135.182Z" fill="white"/>
<path d="M211.277 123.078H216.683C217.975 123.078 219.114 123.328 220.1 123.826C221.098 124.314 221.868 125.005 222.412 125.9C222.968 126.796 223.245 127.838 223.245 129.028C223.245 130.218 222.968 131.261 222.412 132.156C221.868 133.052 221.098 133.749 220.1 134.247C219.114 134.735 217.975 134.978 216.683 134.978H211.277V123.078ZM216.547 132.717C217.737 132.717 218.684 132.389 219.386 131.731C220.1 131.063 220.457 130.162 220.457 129.028C220.457 127.895 220.1 127 219.386 126.342C218.684 125.674 217.737 125.339 216.547 125.339H214.031V132.717H216.547Z" fill="white"/>
<path fill-rule="evenodd" clip-rule="evenodd" d="M65.6357 341.098C65.6357 340.822 65.8596 340.598 66.1357 340.598H329.808C330.084 340.598 330.308 340.822 330.308 341.098C330.308 341.374 330.084 341.598 329.808 341.598H66.1357C65.8596 341.598 65.6357 341.374 65.6357 341.098Z" fill="#D9D9D9"/>
<path fill-rule="evenodd" clip-rule="evenodd" d="M177.136 174.714C176.534 174.68 176.038 175.182 176.081 175.783L182.858 271.797C182.897 272.339 183.361 272.751 183.903 272.725L263.651 268.928L255.528 281.734C255.366 281.987 255.547 282.317 255.857 282.326L264.584 282.565L259.635 299.808C259.53 300.184 259.993 300.464 260.291 300.2L289.961 274.196C290.228 273.965 290.064 273.533 289.704 273.523L278.681 273.221L283.184 267.998L327.505 265.887C328.006 265.863 328.412 265.472 328.454 264.972L335.22 184.907C335.267 184.346 334.843 183.857 334.282 183.824L177.136 174.714Z" fill="#D6E4FF"/>
<g filter="url(#filter1_d)">
<path fill-rule="evenodd" clip-rule="evenodd" d="M267.403 266.747L258.74 280.404L267.218 280.636L263.064 295.11L285.542 275.41L274.416 275.105L282.23 266.041L326.535 263.931L333.141 185.762L178.156 176.777L184.785 270.681L267.403 266.747ZM326.461 264.804C326.461 264.802 326.461 264.801 326.462 264.799L326.461 264.804ZM289.704 273.523C290.064 273.533 290.228 273.965 289.961 274.196L260.291 300.2C259.993 300.464 259.53 300.184 259.635 299.808L264.584 282.565L255.857 282.326C255.547 282.317 255.366 281.987 255.528 281.734L263.651 268.928L183.903 272.725C183.361 272.751 182.897 272.339 182.858 271.797L176.081 175.783C176.038 175.182 176.534 174.68 177.136 174.714L334.282 183.824C334.843 183.857 335.267 184.346 335.22 184.907L328.454 264.972C328.412 265.472 328.006 265.863 327.505 265.887L283.184 267.998L278.681 273.221L289.704 273.523Z" fill="#1D39C4"/>
</g>
<path d="M202.64 262.383C200.479 262.015 198.454 260.539 196.43 257.865C194.276 254.937 192.621 251.671 191.535 248.201C190.529 245.11 189.755 241.948 189.222 238.741C187.979 231.852 187.787 224.815 188.649 217.869C189.791 209.324 192.502 204.311 196.926 202.533C198.194 202.026 199.577 201.877 200.924 202.102C203.594 202.557 206.21 204.52 208.688 207.944L209.08 208.482L205.779 221.99L204.054 220.787C203.763 220.566 203.428 220.411 203.072 220.332C202.845 220.29 202.611 220.321 202.403 220.421C201.998 220.607 200.61 221.731 200.145 228.108C199.837 231.77 199.971 235.456 200.545 239.087C200.752 240.4 201.059 241.697 201.461 242.965C202.013 244.635 202.986 246.685 204.479 246.939L204.581 246.956C204.863 246.983 205.146 246.911 205.381 246.752C206.053 246.344 207.275 244.89 208.003 239.69L208.584 235.55L215 246.657L214.907 247.204C213.381 254.316 211.002 258.876 207.627 261.14C206.92 261.667 206.114 262.048 205.258 262.261C204.402 262.475 203.512 262.516 202.64 262.383Z" fill="#F0F5FF"/>
<path d="M213.053 255.947C212.944 254.895 212.799 251.795 212.595 246.462L210.641 204.168L211.32 203.715C216.388 200.346 220.84 198.324 224.556 197.707C225.821 197.49 227.113 197.476 228.383 197.666C230.646 198.051 233.498 199.473 234.238 204.073C235.216 210.081 233.411 216.609 228.787 224.017C229.952 226.126 232.838 230.725 236.744 236.715L237.214 237.449L235.746 240.116C234.416 242.506 232.66 245.713 230.485 249.686L229.188 252.082L222.472 239.164C222.65 242.844 222.878 246.304 223.157 249.504L223.222 250.241L213.281 258.68L213.053 255.947Z" fill="#F0F5FF"/>
<path d="M233.596 249.222C235.94 231.62 237.327 215.569 237.922 200.167L237.963 199.16L256.176 193.347L256.213 195.283C256.433 207.624 257.92 221.895 260.653 237.687L260.814 238.663L247.727 246.37L247.274 238.698L246.741 238.987L246.553 244.58L233.223 252.069L233.596 249.222Z" fill="#F0F5FF"/>
<path d="M260.804 241.128C260.247 241.032 259.697 240.897 259.159 240.724L257.918 240.329L258.173 239.064C258.676 236.533 256.327 235.274 257.496 230.521L256.965 228.927C256.314 229.018 259.635 227.167 258.987 227.063C258.528 226.988 258.083 226.843 257.667 226.635C256.325 225.988 254.644 224.485 254.474 221.068C254.191 216.316 255.934 210.615 259.647 204.137C263.637 197.458 267.48 194.018 271.411 193.601C271.968 193.548 272.53 193.567 273.082 193.657C276.299 194.205 278.37 197.174 279.195 202.469C279.42 203.948 279.564 205.437 279.626 206.932L279.672 207.888L278.811 208.297C277.693 208.833 276.436 209.45 275.075 210.147L269.623 213.045L269.312 211.029C269.267 210.589 269.143 210.16 268.946 209.763C268.183 209.902 267.423 210.603 266.682 211.837C266.257 212.493 266.08 213.279 266.181 214.054C266.387 214.07 266.595 214.061 266.8 214.029C267.578 213.896 268.342 213.691 269.082 213.417C270.44 212.913 271.851 212.565 273.288 212.38C274.21 212.27 275.143 212.286 276.06 212.427C277.019 212.547 277.929 212.922 278.695 213.513C279.46 214.103 280.054 214.888 280.414 215.785C280.699 216.524 280.904 217.291 281.025 218.074C281.414 220.587 280.928 223.29 279.527 226.407C277.656 230.513 274.941 234.178 271.559 237.165C269.832 238.895 267.697 240.162 265.352 240.85C263.874 241.273 262.322 241.368 260.804 241.128ZM262.714 227.187C263.107 227.377 263.524 227.512 263.954 227.588C264.459 227.675 264.976 227.663 265.477 227.553C265.918 227.456 266.342 227.295 266.736 227.074L266.787 227.044C267.703 226.592 268.564 226.036 269.352 225.387C269.832 225.05 270.224 224.603 270.497 224.084C270.275 224.075 270.053 224.09 269.835 224.129C268.531 224.414 267.262 224.843 266.052 225.407C264.76 226.002 263.421 226.489 262.049 226.865L262.714 227.187Z" fill="#F0F5FF"/>
<path d="M280.01 196.034L292.784 194.004L292.561 195.889C291.889 201.603 291.4 206.929 291.098 211.738L292.406 211.392L292.859 196.175L305.733 194.784L305.474 196.617C303.637 209.471 302.842 220.404 303.112 229.11L303.14 230.135L291.491 234.581L291.988 221.184L290.608 221.604C290.569 225.214 290.614 228.329 290.742 230.876L290.791 231.859L279.283 236.976L280.01 196.034Z" fill="#F0F5FF"/>
<path d="M305.691 232.552C305.483 232.517 305.271 232.481 305.055 232.444C304.294 232.281 303.601 231.89 303.069 231.322C302.536 230.755 302.19 230.038 302.077 229.268C301.807 227.397 302.621 225.613 304.478 223.966C305.876 222.77 307.571 221.974 309.384 221.662C310.318 221.483 311.277 221.47 312.216 221.622C312.643 221.694 313.062 221.805 313.468 221.952C315.636 222.668 316.267 224.071 316.415 225.123C316.661 226.938 315.77 228.637 313.755 230.178C312.376 231.271 310.768 232.038 309.05 232.418C307.95 232.686 306.808 232.732 305.691 232.552ZM310.553 193.1L325.686 196.92L324.69 198.582C322.796 201.659 321.073 204.837 319.529 208.104C318.065 211.488 316.907 214.997 316.069 218.588L315.801 219.701L305.474 219.655L310.553 193.1Z" fill="#F0F5FF"/>
<path fill-rule="evenodd" clip-rule="evenodd" d="M289.947 167.324C289.91 168.172 289.85 169.023 289.765 169.878L287.775 169.681C287.856 168.863 287.914 168.048 287.949 167.237L289.947 167.324ZM289.244 157.125C289.55 158.791 289.764 160.487 289.882 162.204L287.887 162.341C287.774 160.699 287.569 159.079 287.277 157.486L289.244 157.125ZM286.276 147.343C286.95 148.904 287.538 150.509 288.036 152.15L286.123 152.731C285.647 151.162 285.084 149.628 284.44 148.135L286.276 147.343ZM281.203 138.469C282.209 139.846 283.139 141.279 283.988 142.763L282.252 143.756C281.44 142.337 280.551 140.966 279.588 139.649L281.203 138.469ZM274.291 130.94C275.58 132.062 276.804 133.255 277.957 134.511L276.484 135.864C275.381 134.662 274.21 133.522 272.977 132.448L274.291 130.94ZM265.878 125.133C267.39 125.942 268.848 126.833 270.248 127.8L269.112 129.445C267.773 128.521 266.379 127.669 264.934 126.896L265.878 125.133ZM256.38 121.355C258.041 121.807 259.661 122.349 261.236 122.975L260.497 124.833C258.992 124.235 257.443 123.717 255.855 123.284L256.38 121.355ZM248.831 119.967C249.686 120.052 250.533 120.159 251.372 120.289L251.066 122.266C250.263 122.142 249.453 122.039 248.635 121.958L248.831 119.967Z" fill="#1D39C4"/>
<path fill-rule="evenodd" clip-rule="evenodd" d="M123.06 145.285C123.096 144.437 123.157 143.585 123.241 142.73L125.231 142.927C125.15 143.745 125.093 144.56 125.058 145.371L123.06 145.285ZM123.763 155.484C123.457 153.817 123.242 152.122 123.124 150.404L125.119 150.267C125.232 151.909 125.437 153.529 125.73 155.122L123.763 155.484ZM126.73 165.266C126.056 163.704 125.468 162.099 124.97 160.458L126.884 159.877C127.36 161.446 127.922 162.98 128.567 164.473L126.73 165.266ZM131.803 174.139C130.797 172.762 129.867 171.329 129.019 169.845L130.755 168.852C131.566 170.271 132.456 171.642 133.418 172.959L131.803 174.139ZM138.715 181.668C137.426 180.546 136.202 179.353 135.049 178.097L136.523 176.744C137.626 177.946 138.796 179.086 140.029 180.16L138.715 181.668ZM147.128 187.476C145.616 186.666 144.158 185.775 142.758 184.809L143.894 183.163C145.233 184.087 146.627 184.939 148.072 185.712L147.128 187.476ZM156.626 191.254C154.965 190.802 153.345 190.259 151.77 189.633L152.509 187.775C154.014 188.373 155.563 188.892 157.151 189.324L156.626 191.254ZM164.175 192.641C163.32 192.556 162.473 192.449 161.634 192.319L161.941 190.342C162.743 190.467 163.553 190.57 164.371 190.65L164.175 192.641Z" fill="#1D39C4"/>
<path d="M252.573 127.362C252.61 127.85 251.998 128.096 251.688 127.718L246.765 121.715C246.589 121.501 246.621 121.186 246.834 121.011L252.864 116.066C253.239 115.758 253.789 116.113 253.664 116.582L252.194 122.081C252.179 122.135 252.174 122.192 252.178 122.248L252.573 127.362Z" fill="#1D39C4"/>
<path d="M160.434 185.246C160.396 184.758 161.009 184.512 161.319 184.891L166.242 190.893C166.417 191.107 166.386 191.422 166.172 191.597L160.143 196.542C159.767 196.85 159.217 196.496 159.343 196.026L160.812 190.527C160.827 190.473 160.832 190.416 160.828 190.36L160.434 185.246Z" fill="#1D39C4"/>
<rect x="44" y="342" width="322" height="38" fill="white"/>
<defs>
<filter id="filter0_dd" x="59.4541" y="195.542" width="275.973" height="176.056" filterUnits="userSpaceOnUse" color-interpolation-filters="sRGB">
<feFlood flood-opacity="0" result="BackgroundImageFix"/>
<feColorMatrix in="SourceAlpha" type="matrix" values="0 0 0 0 0 0 0 0 0 0 0 0 0 0 0 0 0 0 127 0"/>
<feOffset dy="10"/>
<feGaussianBlur stdDeviation="10"/>
<feColorMatrix type="matrix" values="0 0 0 0 0 0 0 0 0 0 0 0 0 0 0 0 0 0 0.1 0"/>
<feBlend mode="normal" in2="BackgroundImageFix" result="effect1_dropShadow"/>
<feColorMatrix in="SourceAlpha" type="matrix" values="0 0 0 0 0 0 0 0 0 0 0 0 0 0 0 0 0 0 127 0"/>
<feOffset/>
<feGaussianBlur stdDeviation="2"/>
<feColorMatrix type="matrix" values="0 0 0 0 0 0 0 0 0 0 0 0 0 0 0 0 0 0 0.1 0"/>
<feBlend mode="normal" in2="effect1_dropShadow" result="effect2_dropShadow"/>
<feBlend mode="normal" in="SourceGraphic" in2="effect2_dropShadow" result="shape"/>
</filter>
<filter id="filter1_d" x="144.078" y="158.712" width="223.145" height="189.591" filterUnits="userSpaceOnUse" color-interpolation-filters="sRGB">
<feFlood flood-opacity="0" result="BackgroundImageFix"/>
<feColorMatrix in="SourceAlpha" type="matrix" values="0 0 0 0 0 0 0 0 0 0 0 0 0 0 0 0 0 0 127 0"/>
<feOffset dy="16"/>
<feGaussianBlur stdDeviation="16"/>
<feColorMatrix type="matrix" values="0 0 0 0 0 0 0 0 0 0 0 0 0 0 0 0 0 0 0.1 0"/>
<feBlend mode="normal" in2="BackgroundImageFix" result="effect1_dropShadow"/>
<feBlend mode="normal" in="SourceGraphic" in2="effect1_dropShadow" result="shape"/>
</filter>
</defs>
</svg>
