<svg width="388" height="388" viewBox="0 0 388 388" fill="none" xmlns="http://www.w3.org/2000/svg">
<path fill-rule="evenodd" clip-rule="evenodd" d="M97 266.75C97.6904 266.75 98.25 267.31 98.25 268C98.25 288.296 114.704 304.75 135 304.75C135.69 304.75 136.25 305.31 136.25 306C136.25 306.69 135.69 307.25 135 307.25C113.323 307.25 95.75 289.677 95.75 268C95.75 267.31 96.3096 266.75 97 266.75Z" fill="#FA541C"/>
<g filter="url(#filter0_dd)">
<path d="M50 71.9067C50 69.6976 51.7909 67.9067 54 67.9067H246C248.209 67.9067 250 69.6976 250 71.9067V263.907C250 266.116 248.209 267.907 246 267.907H54C51.7909 267.907 50 266.116 50 263.907V71.9067Z" fill="white"/>
</g>
<path d="M70.3789 100.861C70.3789 99.7568 71.2743 98.8613 72.3789 98.8613H85.9131C87.0177 98.8613 87.9131 99.7568 87.9131 100.861V114.396C87.9131 115.5 87.0177 116.396 85.9131 116.396H72.3789C71.2743 116.396 70.3789 115.5 70.3789 114.396V100.861Z" fill="#D6E4FF"/>
<path d="M96.6816 154C96.6816 153.448 97.1294 153 97.6816 153H252.759C253.312 153 253.759 153.448 253.759 154V162C253.759 162.552 253.312 163 252.759 163H97.6816C97.1294 163 96.6816 162.552 96.6816 162V154Z" fill="#F5F5F5"/>
<path d="M96.6816 214C96.6816 213.448 97.1294 213 97.6816 213H252.759C253.312 213 253.759 213.448 253.759 214V222C253.759 222.552 253.312 223 252.759 223H97.6816C97.1294 223 96.6816 222.552 96.6816 222V214Z" fill="#F5F5F5"/>
<path d="M97 96C97 95.4477 97.4477 95 98 95H181C181.552 95 182 95.4477 182 96V104C182 104.552 181.552 105 181 105H98C97.4477 105 97 104.552 97 104V96Z" fill="#F5F5F5"/>
<path d="M97 110C97 109.448 97.4477 109 98 109H204C204.552 109 205 109.448 205 110V118C205 118.552 204.552 119 204 119H98C97.4477 119 97 118.552 97 118V110Z" fill="#F5F5F5"/>
<path d="M96.6816 168.534C96.6816 167.982 97.1294 167.534 97.6816 167.534H184.814C185.366 167.534 185.814 167.982 185.814 168.534V176.534C185.814 177.086 185.366 177.534 184.814 177.534H97.6816C97.1294 177.534 96.6816 177.086 96.6816 176.534V168.534Z" fill="#F5F5F5"/>
<path d="M96.6816 228.534C96.6816 227.982 97.1294 227.534 97.6816 227.534H184.814C185.366 227.534 185.814 227.982 185.814 228.534V236.534C185.814 237.086 185.366 237.534 184.814 237.534H97.6816C97.1294 237.534 96.6816 237.086 96.6816 236.534V228.534Z" fill="#F5F5F5"/>
<path d="M70.3789 158.578C70.3789 157.473 71.2743 156.578 72.3789 156.578H85.9131C87.0177 156.578 87.9131 157.473 87.9131 158.578V172.112C87.9131 173.216 87.0177 174.112 85.9131 174.112H72.3789C71.2743 174.112 70.3789 173.216 70.3789 172.112V158.578Z" fill="#D6E4FF"/>
<path d="M70.3789 217.756C70.3789 216.651 71.2743 215.756 72.3789 215.756H85.9131C87.0177 215.756 87.9131 216.651 87.9131 217.756V231.29C87.9131 232.395 87.0177 233.29 85.9131 233.29H72.3789C71.2743 233.29 70.3789 232.395 70.3789 231.29V217.756Z" fill="#D6E4FF"/>
<g filter="url(#filter1_dd)">
<path d="M137 155C137 152.791 138.791 151 141 151H333C335.209 151 337 152.791 337 155V347C337 349.209 335.209 351 333 351H141C138.791 351 137 349.209 137 347V155Z" fill="white"/>
</g>
<path d="M193.112 199.8C194.083 199.8 194.925 199.96 195.64 200.28C196.365 200.6 196.92 201.059 197.304 201.656C197.688 202.253 197.88 202.963 197.88 203.784C197.88 204.595 197.688 205.304 197.304 205.912C196.92 206.509 196.365 206.968 195.64 207.288C194.925 207.608 194.083 207.768 193.112 207.768H190.584V211H188.504V199.8H193.112ZM193.016 206.008C193.923 206.008 194.611 205.816 195.08 205.432C195.549 205.048 195.784 204.499 195.784 203.784C195.784 203.069 195.549 202.52 195.08 202.136C194.611 201.752 193.923 201.56 193.016 201.56H190.584V206.008H193.016Z" fill="#8C8C8C"/>
<path d="M201.431 203.704C202.007 202.808 203.02 202.36 204.471 202.36V204.264C204.3 204.232 204.146 204.216 204.007 204.216C203.228 204.216 202.62 204.445 202.183 204.904C201.746 205.352 201.527 206.003 201.527 206.856V211H199.527V202.456H201.431V203.704Z" fill="#8C8C8C"/>
<path d="M213.961 206.776C213.961 206.915 213.951 207.112 213.929 207.368H207.225C207.343 207.997 207.647 208.499 208.137 208.872C208.639 209.235 209.257 209.416 209.993 209.416C210.932 209.416 211.705 209.107 212.313 208.488L213.385 209.72C213.001 210.179 212.516 210.525 211.929 210.76C211.343 210.995 210.681 211.112 209.945 211.112C209.007 211.112 208.18 210.925 207.465 210.552C206.751 210.179 206.196 209.661 205.801 209C205.417 208.328 205.225 207.571 205.225 206.728C205.225 205.896 205.412 205.149 205.785 204.488C206.169 203.816 206.697 203.293 207.369 202.92C208.041 202.547 208.799 202.36 209.641 202.36C210.473 202.36 211.215 202.547 211.865 202.92C212.527 203.283 213.039 203.8 213.401 204.472C213.775 205.133 213.961 205.901 213.961 206.776ZM209.641 203.96C209.001 203.96 208.457 204.152 208.009 204.536C207.572 204.909 207.305 205.411 207.209 206.04H212.057C211.972 205.421 211.711 204.92 211.273 204.536C210.836 204.152 210.292 203.96 209.641 203.96Z" fill="#8C8C8C"/>
<path d="M220.459 202.36C221.291 202.36 222.032 202.541 222.683 202.904C223.344 203.267 223.861 203.779 224.235 204.44C224.608 205.101 224.795 205.864 224.795 206.728C224.795 207.592 224.608 208.36 224.235 209.032C223.861 209.693 223.344 210.205 222.683 210.568C222.032 210.931 221.291 211.112 220.459 211.112C219.307 211.112 218.395 210.728 217.723 209.96V214.104H215.723V202.456H217.627V203.576C217.957 203.171 218.363 202.867 218.843 202.664C219.333 202.461 219.872 202.36 220.459 202.36ZM220.235 209.4C220.971 209.4 221.573 209.155 222.043 208.664C222.523 208.173 222.763 207.528 222.763 206.728C222.763 205.928 222.523 205.283 222.043 204.792C221.573 204.301 220.971 204.056 220.235 204.056C219.755 204.056 219.323 204.168 218.939 204.392C218.555 204.605 218.251 204.915 218.027 205.32C217.803 205.725 217.691 206.195 217.691 206.728C217.691 207.261 217.803 207.731 218.027 208.136C218.251 208.541 218.555 208.856 218.939 209.08C219.323 209.293 219.755 209.4 220.235 209.4Z" fill="#8C8C8C"/>
<path d="M233.065 201.544V204.952H238.473V206.712H233.065V211H230.985V199.8H239.161V201.544H233.065Z" fill="#8C8C8C"/>
<path d="M240.664 202.456H242.664V211H240.664V202.456ZM241.672 201.048C241.31 201.048 241.006 200.936 240.76 200.712C240.515 200.477 240.392 200.189 240.392 199.848C240.392 199.507 240.515 199.224 240.76 199C241.006 198.765 241.31 198.648 241.672 198.648C242.035 198.648 242.339 198.76 242.584 198.984C242.83 199.197 242.952 199.469 242.952 199.8C242.952 200.152 242.83 200.451 242.584 200.696C242.35 200.931 242.046 201.048 241.672 201.048Z" fill="#8C8C8C"/>
<path d="M245.129 199.128H247.129V211H245.129V199.128Z" fill="#8C8C8C"/>
<path d="M257.626 206.776C257.626 206.915 257.616 207.112 257.594 207.368H250.89C251.008 207.997 251.312 208.499 251.802 208.872C252.304 209.235 252.922 209.416 253.658 209.416C254.597 209.416 255.37 209.107 255.978 208.488L257.05 209.72C256.666 210.179 256.181 210.525 255.594 210.76C255.008 210.995 254.346 211.112 253.61 211.112C252.672 211.112 251.845 210.925 251.13 210.552C250.416 210.179 249.861 209.661 249.466 209C249.082 208.328 248.89 207.571 248.89 206.728C248.89 205.896 249.077 205.149 249.45 204.488C249.834 203.816 250.362 203.293 251.034 202.92C251.706 202.547 252.464 202.36 253.306 202.36C254.138 202.36 254.88 202.547 255.53 202.92C256.192 203.283 256.704 203.8 257.066 204.472C257.44 205.133 257.626 205.901 257.626 206.776ZM253.306 203.96C252.666 203.96 252.122 204.152 251.674 204.536C251.237 204.909 250.97 205.411 250.874 206.04H255.722C255.637 205.421 255.376 204.92 254.938 204.536C254.501 204.152 253.957 203.96 253.306 203.96Z" fill="#8C8C8C"/>
<path d="M262.028 211.112C261.334 211.112 260.657 211.021 259.996 210.84C259.334 210.659 258.806 210.429 258.412 210.152L259.18 208.632C259.564 208.888 260.022 209.096 260.556 209.256C261.1 209.405 261.633 209.48 262.156 209.48C263.35 209.48 263.948 209.165 263.948 208.536C263.948 208.237 263.793 208.029 263.484 207.912C263.185 207.795 262.7 207.683 262.028 207.576C261.324 207.469 260.748 207.347 260.3 207.208C259.862 207.069 259.478 206.829 259.148 206.488C258.828 206.136 258.668 205.651 258.668 205.032C258.668 204.221 259.004 203.576 259.676 203.096C260.358 202.605 261.276 202.36 262.428 202.36C263.014 202.36 263.601 202.429 264.188 202.568C264.774 202.696 265.254 202.872 265.628 203.096L264.86 204.616C264.134 204.189 263.318 203.976 262.412 203.976C261.825 203.976 261.377 204.067 261.068 204.248C260.769 204.419 260.62 204.648 260.62 204.936C260.62 205.256 260.78 205.485 261.1 205.624C261.43 205.752 261.937 205.875 262.62 205.992C263.302 206.099 263.862 206.221 264.3 206.36C264.737 206.499 265.11 206.733 265.42 207.064C265.74 207.395 265.9 207.864 265.9 208.472C265.9 209.272 265.553 209.912 264.86 210.392C264.166 210.872 263.222 211.112 262.028 211.112Z" fill="#8C8C8C"/>
<path d="M193.112 248.8C194.083 248.8 194.925 248.96 195.64 249.28C196.365 249.6 196.92 250.059 197.304 250.656C197.688 251.253 197.88 251.963 197.88 252.784C197.88 253.595 197.688 254.304 197.304 254.912C196.92 255.509 196.365 255.968 195.64 256.288C194.925 256.608 194.083 256.768 193.112 256.768H190.584V260H188.504V248.8H193.112ZM193.016 255.008C193.923 255.008 194.611 254.816 195.08 254.432C195.549 254.048 195.784 253.499 195.784 252.784C195.784 252.069 195.549 251.52 195.08 251.136C194.611 250.752 193.923 250.56 193.016 250.56H190.584V255.008H193.016Z" fill="#8C8C8C"/>
<path d="M201.431 252.704C202.007 251.808 203.02 251.36 204.471 251.36V253.264C204.3 253.232 204.146 253.216 204.007 253.216C203.228 253.216 202.62 253.445 202.183 253.904C201.746 254.352 201.527 255.003 201.527 255.856V260H199.527V251.456H201.431V252.704Z" fill="#8C8C8C"/>
<path d="M209.769 260.112C208.905 260.112 208.127 259.925 207.433 259.552C206.74 259.179 206.196 258.661 205.801 258C205.417 257.328 205.225 256.571 205.225 255.728C205.225 254.885 205.417 254.133 205.801 253.472C206.196 252.811 206.74 252.293 207.433 251.92C208.127 251.547 208.905 251.36 209.769 251.36C210.644 251.36 211.428 251.547 212.121 251.92C212.815 252.293 213.353 252.811 213.737 253.472C214.132 254.133 214.329 254.885 214.329 255.728C214.329 256.571 214.132 257.328 213.737 258C213.353 258.661 212.815 259.179 212.121 259.552C211.428 259.925 210.644 260.112 209.769 260.112ZM209.769 258.4C210.505 258.4 211.113 258.155 211.593 257.664C212.073 257.173 212.313 256.528 212.313 255.728C212.313 254.928 212.073 254.283 211.593 253.792C211.113 253.301 210.505 253.056 209.769 253.056C209.033 253.056 208.425 253.301 207.945 253.792C207.476 254.283 207.241 254.928 207.241 255.728C207.241 256.528 207.476 257.173 207.945 257.664C208.425 258.155 209.033 258.4 209.769 258.4Z" fill="#8C8C8C"/>
<path d="M219.922 260.112C219.058 260.112 218.279 259.925 217.586 259.552C216.893 259.179 216.349 258.661 215.954 258C215.57 257.328 215.378 256.571 215.378 255.728C215.378 254.885 215.57 254.133 215.954 253.472C216.349 252.811 216.893 252.293 217.586 251.92C218.279 251.547 219.058 251.36 219.922 251.36C220.797 251.36 221.581 251.547 222.274 251.92C222.967 252.293 223.506 252.811 223.89 253.472C224.285 254.133 224.482 254.885 224.482 255.728C224.482 256.571 224.285 257.328 223.89 258C223.506 258.661 222.967 259.179 222.274 259.552C221.581 259.925 220.797 260.112 219.922 260.112ZM219.922 258.4C220.658 258.4 221.266 258.155 221.746 257.664C222.226 257.173 222.466 256.528 222.466 255.728C222.466 254.928 222.226 254.283 221.746 253.792C221.266 253.301 220.658 253.056 219.922 253.056C219.186 253.056 218.578 253.301 218.098 253.792C217.629 254.283 217.394 254.928 217.394 255.728C217.394 256.528 217.629 257.173 218.098 257.664C218.578 258.155 219.186 258.4 219.922 258.4Z" fill="#8C8C8C"/>
<path d="M229.706 249.632C228.864 249.632 228.442 250.091 228.442 251.008V251.52H230.794V253.12H228.506V260H226.506V253.12H225.098V251.52H226.506V250.976C226.506 250.059 226.773 249.339 227.306 248.816C227.84 248.283 228.592 248.016 229.562 248.016C230.33 248.016 230.933 248.171 231.37 248.48L230.81 249.984C230.469 249.749 230.101 249.632 229.706 249.632Z" fill="#8C8C8C"/>
<path d="M235.166 252.704C235.742 251.808 236.755 251.36 238.206 251.36V253.264C238.035 253.232 237.881 253.216 237.742 253.216C236.963 253.216 236.355 253.445 235.918 253.904C235.481 254.352 235.262 255.003 235.262 255.856V260H233.262V251.456H235.166V252.704Z" fill="#8C8C8C"/>
<path d="M247.696 255.776C247.696 255.915 247.686 256.112 247.664 256.368H240.96C241.078 256.997 241.382 257.499 241.872 257.872C242.374 258.235 242.992 258.416 243.728 258.416C244.667 258.416 245.44 258.107 246.048 257.488L247.12 258.72C246.736 259.179 246.251 259.525 245.664 259.76C245.078 259.995 244.416 260.112 243.68 260.112C242.742 260.112 241.915 259.925 241.2 259.552C240.486 259.179 239.931 258.661 239.536 258C239.152 257.328 238.96 256.571 238.96 255.728C238.96 254.896 239.147 254.149 239.52 253.488C239.904 252.816 240.432 252.293 241.104 251.92C241.776 251.547 242.534 251.36 243.376 251.36C244.208 251.36 244.95 251.547 245.6 251.92C246.262 252.283 246.774 252.8 247.136 253.472C247.51 254.133 247.696 254.901 247.696 255.776ZM243.376 252.96C242.736 252.96 242.192 253.152 241.744 253.536C241.307 253.909 241.04 254.411 240.944 255.04H245.792C245.707 254.421 245.446 253.92 245.008 253.536C244.571 253.152 244.027 252.96 243.376 252.96Z" fill="#8C8C8C"/>
<path d="M252.487 251.36C253.746 251.36 254.706 251.664 255.367 252.272C256.039 252.869 256.375 253.776 256.375 254.992V260H254.487V258.96C254.242 259.333 253.89 259.621 253.431 259.824C252.983 260.016 252.439 260.112 251.799 260.112C251.159 260.112 250.599 260.005 250.119 259.792C249.639 259.568 249.266 259.264 248.999 258.88C248.743 258.485 248.615 258.043 248.615 257.552C248.615 256.784 248.898 256.171 249.463 255.712C250.039 255.243 250.94 255.008 252.167 255.008H254.375V254.88C254.375 254.283 254.194 253.824 253.831 253.504C253.479 253.184 252.951 253.024 252.247 253.024C251.767 253.024 251.292 253.099 250.823 253.248C250.364 253.397 249.975 253.605 249.655 253.872L248.871 252.416C249.319 252.075 249.858 251.813 250.487 251.632C251.116 251.451 251.783 251.36 252.487 251.36ZM252.215 258.656C252.716 258.656 253.159 258.544 253.543 258.32C253.938 258.085 254.215 257.755 254.375 257.328V256.336H252.311C251.159 256.336 250.583 256.715 250.583 257.472C250.583 257.835 250.727 258.123 251.015 258.336C251.303 258.549 251.703 258.656 252.215 258.656Z" fill="#8C8C8C"/>
<path d="M267.228 248.128V260H265.308V258.896C264.977 259.301 264.567 259.605 264.076 259.808C263.596 260.011 263.063 260.112 262.476 260.112C261.655 260.112 260.913 259.931 260.252 259.568C259.601 259.205 259.089 258.693 258.716 258.032C258.343 257.36 258.156 256.592 258.156 255.728C258.156 254.864 258.343 254.101 258.716 253.44C259.089 252.779 259.601 252.267 260.252 251.904C260.913 251.541 261.655 251.36 262.476 251.36C263.041 251.36 263.559 251.456 264.028 251.648C264.497 251.84 264.897 252.128 265.228 252.512V248.128H267.228ZM262.716 258.4C263.196 258.4 263.628 258.293 264.012 258.08C264.396 257.856 264.7 257.541 264.924 257.136C265.148 256.731 265.26 256.261 265.26 255.728C265.26 255.195 265.148 254.725 264.924 254.32C264.7 253.915 264.396 253.605 264.012 253.392C263.628 253.168 263.196 253.056 262.716 253.056C262.236 253.056 261.804 253.168 261.42 253.392C261.036 253.605 260.732 253.915 260.508 254.32C260.284 254.725 260.172 255.195 260.172 255.728C260.172 256.261 260.284 256.731 260.508 257.136C260.732 257.541 261.036 257.856 261.42 258.08C261.804 258.293 262.236 258.4 262.716 258.4Z" fill="#8C8C8C"/>
<path d="M191.049 298.551V301.959H196.457V303.719H191.049V308.007H188.969V296.807H197.145V298.551H191.049Z" fill="#8C8C8C"/>
<path d="M198.648 299.463H200.648V308.007H198.648V299.463ZM199.656 298.055C199.293 298.055 198.989 297.943 198.744 297.719C198.499 297.484 198.376 297.196 198.376 296.855C198.376 296.513 198.499 296.231 198.744 296.007C198.989 295.772 199.293 295.655 199.656 295.655C200.019 295.655 200.323 295.767 200.568 295.991C200.813 296.204 200.936 296.476 200.936 296.807C200.936 297.159 200.813 297.457 200.568 297.703C200.333 297.937 200.029 298.055 199.656 298.055Z" fill="#8C8C8C"/>
<path d="M208.553 308.007L206.361 305.047L204.153 308.007H201.945L205.273 303.671L202.089 299.463H204.313L206.409 302.263L208.505 299.463H210.665L207.465 303.639L210.809 308.007H208.553Z" fill="#8C8C8C"/>
<path d="M218.851 298.567H215.139V296.807H224.643V298.567H220.931V308.007H218.851V298.567Z" fill="#8C8C8C"/>
<path d="M233.32 299.463L229.32 308.695C228.947 309.623 228.494 310.273 227.96 310.647C227.427 311.031 226.782 311.223 226.024 311.223C225.598 311.223 225.176 311.153 224.76 311.015C224.344 310.876 224.003 310.684 223.736 310.439L224.536 308.967C224.728 309.148 224.952 309.292 225.208 309.399C225.475 309.505 225.742 309.559 226.008 309.559C226.36 309.559 226.648 309.468 226.872 309.287C227.107 309.105 227.321 308.801 227.513 308.375L227.656 308.039L223.928 299.463H226.008L228.696 305.783L231.401 299.463H233.32Z" fill="#8C8C8C"/>
<path d="M239.146 299.367C239.978 299.367 240.72 299.548 241.37 299.911C242.032 300.273 242.549 300.785 242.923 301.447C243.296 302.108 243.483 302.871 243.483 303.735C243.483 304.599 243.296 305.367 242.923 306.039C242.549 306.7 242.032 307.212 241.37 307.575C240.72 307.937 239.978 308.119 239.146 308.119C237.994 308.119 237.082 307.735 236.41 306.967V311.111H234.41V299.463H236.314V300.583C236.645 300.177 237.05 299.873 237.53 299.671C238.021 299.468 238.56 299.367 239.146 299.367ZM238.923 306.407C239.659 306.407 240.261 306.161 240.73 305.671C241.21 305.18 241.451 304.535 241.451 303.735C241.451 302.935 241.21 302.289 240.73 301.799C240.261 301.308 239.659 301.063 238.923 301.063C238.443 301.063 238.01 301.175 237.626 301.399C237.242 301.612 236.939 301.921 236.715 302.327C236.491 302.732 236.378 303.201 236.378 303.735C236.378 304.268 236.491 304.737 236.715 305.143C236.939 305.548 237.242 305.863 237.626 306.087C238.01 306.3 238.443 306.407 238.923 306.407Z" fill="#8C8C8C"/>
<path d="M249.059 308.119C248.195 308.119 247.417 307.932 246.723 307.559C246.03 307.185 245.486 306.668 245.091 306.007C244.707 305.335 244.515 304.577 244.515 303.735C244.515 302.892 244.707 302.14 245.091 301.479C245.486 300.817 246.03 300.3 246.723 299.927C247.417 299.553 248.195 299.367 249.059 299.367C249.934 299.367 250.718 299.553 251.411 299.927C252.105 300.3 252.643 300.817 253.027 301.479C253.422 302.14 253.619 302.892 253.619 303.735C253.619 304.577 253.422 305.335 253.027 306.007C252.643 306.668 252.105 307.185 251.411 307.559C250.718 307.932 249.934 308.119 249.059 308.119ZM249.059 306.407C249.795 306.407 250.403 306.161 250.883 305.671C251.363 305.18 251.603 304.535 251.603 303.735C251.603 302.935 251.363 302.289 250.883 301.799C250.403 301.308 249.795 301.063 249.059 301.063C248.323 301.063 247.715 301.308 247.235 301.799C246.766 302.289 246.531 302.935 246.531 303.735C246.531 304.535 246.766 305.18 247.235 305.671C247.715 306.161 248.323 306.407 249.059 306.407Z" fill="#8C8C8C"/>
<path d="M254.081 21C227.529 21 206 42.5293 206 69.0813C206 95.6334 227.529 117.163 254.081 117.163C280.633 117.163 302.163 95.6334 302.163 69.0813C302.163 42.5293 280.633 21 254.081 21ZM273.024 83.8599L269.955 88.0455C269.888 88.1367 269.804 88.2137 269.707 88.2722C269.61 88.3308 269.503 88.3696 269.391 88.3866C269.28 88.4036 269.166 88.3983 269.056 88.371C268.947 88.3438 268.843 88.2952 268.753 88.228L251.001 75.2847C250.891 75.2052 250.801 75.1004 250.739 74.979C250.677 74.8576 250.646 74.7232 250.647 74.587V45.0407C250.647 44.5684 251.033 44.1821 251.506 44.1821H256.668C257.14 44.1821 257.526 44.5684 257.526 45.0407V69.5595C257.526 70.8432 258.143 72.0489 259.183 72.801L272.831 82.6686C273.217 82.9369 273.303 83.4735 273.024 83.8599Z" fill="#FA541C"/>
<path d="M161.404 213.377H172.605C174.673 213.377 175.776 212.274 175.776 210.234V198.977C175.776 196.937 174.673 195.843 172.605 195.843H161.404C159.346 195.843 158.242 196.937 158.242 198.977V210.234C158.242 212.283 159.346 213.377 161.404 213.377ZM165.799 209.52C165.419 209.52 165.113 209.343 164.835 209.019L162.174 205.811C161.979 205.588 161.896 205.347 161.896 205.097C161.896 204.559 162.322 204.142 162.841 204.142C163.157 204.142 163.407 204.271 163.648 204.559L165.771 207.192L169.861 200.683C170.083 200.321 170.371 200.145 170.695 200.145C171.205 200.145 171.687 200.507 171.687 201.045C171.687 201.267 171.576 201.518 171.437 201.74L166.736 208.991C166.504 209.334 166.17 209.52 165.799 209.52Z" fill="#4062EF"/>
<path d="M161.404 261.825H172.605C174.673 261.825 175.776 260.721 175.776 258.681V247.425C175.776 245.385 174.673 244.291 172.605 244.291H161.404C159.346 244.291 158.242 245.385 158.242 247.425V258.681C158.242 260.731 159.346 261.825 161.404 261.825ZM165.799 257.967C165.419 257.967 165.113 257.791 164.835 257.467L162.174 254.258C161.979 254.036 161.896 253.795 161.896 253.544C161.896 253.007 162.322 252.589 162.841 252.589C163.157 252.589 163.407 252.719 163.648 253.007L165.771 255.64L169.861 249.131C170.083 248.769 170.371 248.593 170.695 248.593C171.205 248.593 171.687 248.955 171.687 249.492C171.687 249.715 171.576 249.965 171.437 250.188L166.736 257.439C166.504 257.782 166.17 257.967 165.799 257.967Z" fill="#4062EF"/>
<path d="M161.404 310.272H172.605C174.673 310.272 175.776 309.169 175.776 307.129V295.872C175.776 293.832 174.673 292.738 172.605 292.738H161.404C159.346 292.738 158.242 293.832 158.242 295.872V307.129C158.242 309.178 159.346 310.272 161.404 310.272ZM165.799 306.415C165.419 306.415 165.113 306.239 164.835 305.914L162.174 302.706C161.979 302.483 161.896 302.242 161.896 301.992C161.896 301.454 162.322 301.037 162.841 301.037C163.157 301.037 163.407 301.166 163.648 301.454L165.771 304.087L169.861 297.578C170.083 297.216 170.371 297.04 170.695 297.04C171.205 297.04 171.687 297.402 171.687 297.94C171.687 298.162 171.576 298.413 171.437 298.635L166.736 305.886C166.504 306.229 166.17 306.415 165.799 306.415Z" fill="#4062EF"/>
<path d="M144 306C144 309.866 140.866 313 137 313C133.134 313 130 309.866 130 306C130 302.134 133.134 299 137 299C140.866 299 144 302.134 144 306Z" fill="white"/>
<path fill-rule="evenodd" clip-rule="evenodd" d="M137 310.5C139.485 310.5 141.5 308.485 141.5 306C141.5 303.515 139.485 301.5 137 301.5C134.515 301.5 132.5 303.515 132.5 306C132.5 308.485 134.515 310.5 137 310.5ZM137 313C140.866 313 144 309.866 144 306C144 302.134 140.866 299 137 299C133.134 299 130 302.134 130 306C130 309.866 133.134 313 137 313Z" fill="#FA541C"/>
<path d="M104 267C104 270.866 100.866 274 97 274C93.134 274 90 270.866 90 267C90 263.134 93.134 260 97 260C100.866 260 104 263.134 104 267Z" fill="white"/>
<path fill-rule="evenodd" clip-rule="evenodd" d="M97 271.5C99.4853 271.5 101.5 269.485 101.5 267C101.5 264.515 99.4853 262.5 97 262.5C94.5147 262.5 92.5 264.515 92.5 267C92.5 269.485 94.5147 271.5 97 271.5ZM97 274C100.866 274 104 270.866 104 267C104 263.134 100.866 260 97 260C93.134 260 90 263.134 90 267C90 270.866 93.134 274 97 274Z" fill="#FA541C"/>
<defs>
<filter id="filter0_dd" x="30" y="57.9067" width="240" height="240" filterUnits="userSpaceOnUse" color-interpolation-filters="sRGB">
<feFlood flood-opacity="0" result="BackgroundImageFix"/>
<feColorMatrix in="SourceAlpha" type="matrix" values="0 0 0 0 0 0 0 0 0 0 0 0 0 0 0 0 0 0 127 0"/>
<feOffset dy="10"/>
<feGaussianBlur stdDeviation="10"/>
<feColorMatrix type="matrix" values="0 0 0 0 0 0 0 0 0 0 0 0 0 0 0 0 0 0 0.1 0"/>
<feBlend mode="normal" in2="BackgroundImageFix" result="effect1_dropShadow"/>
<feColorMatrix in="SourceAlpha" type="matrix" values="0 0 0 0 0 0 0 0 0 0 0 0 0 0 0 0 0 0 127 0"/>
<feOffset/>
<feGaussianBlur stdDeviation="2"/>
<feColorMatrix type="matrix" values="0 0 0 0 0 0 0 0 0 0 0 0 0 0 0 0 0 0 0.1 0"/>
<feBlend mode="normal" in2="effect1_dropShadow" result="effect2_dropShadow"/>
<feBlend mode="normal" in="SourceGraphic" in2="effect2_dropShadow" result="shape"/>
</filter>
<filter id="filter1_dd" x="117" y="141" width="240" height="240" filterUnits="userSpaceOnUse" color-interpolation-filters="sRGB">
<feFlood flood-opacity="0" result="BackgroundImageFix"/>
<feColorMatrix in="SourceAlpha" type="matrix" values="0 0 0 0 0 0 0 0 0 0 0 0 0 0 0 0 0 0 127 0"/>
<feOffset dy="10"/>
<feGaussianBlur stdDeviation="10"/>
<feColorMatrix type="matrix" values="0 0 0 0 0 0 0 0 0 0 0 0 0 0 0 0 0 0 0.1 0"/>
<feBlend mode="normal" in2="BackgroundImageFix" result="effect1_dropShadow"/>
<feColorMatrix in="SourceAlpha" type="matrix" values="0 0 0 0 0 0 0 0 0 0 0 0 0 0 0 0 0 0 127 0"/>
<feOffset/>
<feGaussianBlur stdDeviation="2"/>
<feColorMatrix type="matrix" values="0 0 0 0 0 0 0 0 0 0 0 0 0 0 0 0 0 0 0.1 0"/>
<feBlend mode="normal" in2="effect1_dropShadow" result="effect2_dropShadow"/>
<feBlend mode="normal" in="SourceGraphic" in2="effect2_dropShadow" result="shape"/>
</filter>
</defs>
</svg>
