<svg width="388" height="388" viewBox="0 0 388 388" fill="none" xmlns="http://www.w3.org/2000/svg">
<g filter="url(#filter0_dd)">
<path d="M303.47 57.5605H31.9454C29.8333 57.5605 28.1211 59.2727 28.1211 61.3848V177.07C28.1211 179.182 29.8333 180.894 31.9454 180.894H303.47C305.582 180.894 307.294 179.182 307.294 177.07V61.3848C307.294 59.2727 305.582 57.5605 303.47 57.5605Z" fill="white"/>
</g>
<path d="M51.9812 84.9141H47.3232V82.7056H59.2493V84.9141H54.5913V96.7598H51.9812V84.9141Z" fill="#8C8C8C"/>
<path d="M62.9009 87.6045C63.6237 86.4801 64.8953 85.918 66.7157 85.918V88.3072C66.5015 88.267 66.3074 88.247 66.1334 88.247C65.1563 88.247 64.3934 88.5347 63.8446 89.1103C63.2958 89.6725 63.0214 90.489 63.0214 91.5598V96.7598H60.5117V86.0384H62.9009V87.6045Z" fill="#8C8C8C"/>
<path d="M72.681 85.918C74.2604 85.918 75.4651 86.2994 76.295 87.0624C77.1382 87.8119 77.5598 88.9497 77.5598 90.4756V96.7598H75.1907V95.4548C74.8828 95.9233 74.4411 96.2847 73.8656 96.539C73.3034 96.7799 72.6208 96.9004 71.8177 96.9004C71.0146 96.9004 70.3119 96.7665 69.7095 96.4988C69.1072 96.2177 68.6387 95.8363 68.3041 95.3544C67.9829 94.8592 67.8223 94.3037 67.8223 93.688C67.8223 92.7242 68.177 91.9546 68.8864 91.3791C69.6092 90.7901 70.7402 90.4956 72.2795 90.4956H75.0502V90.335C75.0502 89.5855 74.8226 89.0099 74.3675 88.6084C73.9258 88.2068 73.2633 88.006 72.3798 88.006C71.7775 88.006 71.1819 88.0997 70.593 88.2871C70.0174 88.4745 69.5288 88.7355 69.1273 89.0701L68.1435 87.2431C68.7057 86.8148 69.3816 86.4868 70.1713 86.2593C70.961 86.0317 71.7976 85.918 72.681 85.918ZM72.3397 95.0733C72.9688 95.0733 73.5243 94.9328 74.0061 94.6517C74.5014 94.3572 74.8494 93.9423 75.0502 93.4069V92.1621H72.4602C71.0146 92.1621 70.2918 92.6372 70.2918 93.5876C70.2918 94.0427 70.4725 94.4041 70.8339 94.6718C71.1953 94.9395 71.6972 95.0733 72.3397 95.0733Z" fill="#8C8C8C"/>
<path d="M86.6635 85.918C88.0154 85.918 89.0996 86.3128 89.9161 87.1025C90.7326 87.8923 91.1408 89.0634 91.1408 90.6161V96.7598H88.6312V90.9374C88.6312 90.0004 88.4103 89.2977 87.9686 88.8292C87.5269 88.3474 86.8978 88.1064 86.0813 88.1064C85.1577 88.1064 84.4283 88.3875 83.8929 88.9497C83.3575 89.4985 83.0898 90.2949 83.0898 91.3389V96.7598H80.5801V86.0384H82.9693V87.4238C83.3842 86.9285 83.9063 86.5538 84.5353 86.2994C85.1644 86.0451 85.8738 85.918 86.6635 85.918Z" fill="#8C8C8C"/>
<path d="M97.436 96.9004C96.5659 96.9004 95.716 96.7866 94.8861 96.5591C94.0562 96.3315 93.3937 96.0437 92.8984 95.6957L93.8622 93.7884C94.344 94.1096 94.9196 94.3706 95.5888 94.5714C96.2715 94.7588 96.9407 94.8525 97.5966 94.8525C99.0957 94.8525 99.8453 94.4576 99.8453 93.6679C99.8453 93.2931 99.6512 93.0321 99.263 92.8849C98.8882 92.7376 98.2792 92.5971 97.436 92.4632C96.5525 92.3294 95.8298 92.1755 95.2676 92.0015C94.7188 91.8275 94.2369 91.5263 93.822 91.098C93.4204 90.6563 93.2197 90.0472 93.2197 89.2709C93.2197 88.2537 93.6413 87.4439 94.4846 86.8415C95.3412 86.2258 96.4923 85.918 97.9379 85.918C98.6741 85.918 99.4102 86.005 100.146 86.179C100.883 86.3396 101.485 86.5604 101.953 86.8415L100.99 88.7489C100.079 88.2135 99.0555 87.9458 97.9178 87.9458C97.1816 87.9458 96.6195 88.0596 96.2313 88.2871C95.8565 88.5013 95.6691 88.7891 95.6691 89.1504C95.6691 89.552 95.8699 89.8398 96.2715 90.0138C96.6864 90.1744 97.3222 90.3283 98.1788 90.4756C99.0355 90.6094 99.7382 90.7633 100.287 90.9373C100.836 91.1114 101.304 91.4058 101.692 91.8208C102.094 92.2357 102.295 92.8246 102.295 93.5876C102.295 94.5915 101.86 95.3946 100.99 95.9969C100.12 96.5992 98.9351 96.9004 97.436 96.9004Z" fill="#8C8C8C"/>
<path d="M109.175 96.9004C108.064 96.9004 107.066 96.6661 106.183 96.1977C105.3 95.7292 104.61 95.08 104.115 94.2501C103.62 93.4069 103.372 92.4565 103.372 91.3991C103.372 90.3417 103.62 89.3981 104.115 88.5682C104.61 87.7383 105.293 87.0892 106.163 86.6207C107.046 86.1522 108.05 85.918 109.175 85.918C110.232 85.918 111.156 86.1321 111.945 86.5605C112.748 86.9888 113.351 87.6045 113.752 88.4076L111.825 89.5319C111.517 89.0367 111.129 88.6686 110.66 88.4277C110.205 88.1733 109.703 88.0462 109.154 88.0462C108.218 88.0462 107.441 88.354 106.825 88.9698C106.21 89.5721 105.902 90.3819 105.902 91.3991C105.902 92.4164 106.203 93.2329 106.805 93.8486C107.421 94.4509 108.204 94.7521 109.154 94.7521C109.703 94.7521 110.205 94.6316 110.66 94.3907C111.129 94.1364 111.517 93.7616 111.825 93.2663L113.752 94.3907C113.337 95.1938 112.728 95.8162 111.925 96.2579C111.135 96.6862 110.219 96.9004 109.175 96.9004Z" fill="#8C8C8C"/>
<path d="M118.11 87.6045C118.833 86.4801 120.104 85.918 121.925 85.918V88.3072C121.71 88.267 121.516 88.247 121.342 88.247C120.365 88.247 119.602 88.5347 119.054 89.1103C118.505 89.6725 118.23 90.489 118.23 91.5598V96.7598H115.721V86.0384H118.11V87.6045Z" fill="#8C8C8C"/>
<path d="M123.853 86.0382H126.363V96.7596H123.853V86.0382ZM125.118 84.2714C124.663 84.2714 124.281 84.1309 123.973 83.8498C123.666 83.5553 123.512 83.1939 123.512 82.7656C123.512 82.3373 123.666 81.9826 123.973 81.7015C124.281 81.407 124.663 81.2598 125.118 81.2598C125.573 81.2598 125.954 81.4003 126.262 81.6814C126.57 81.9491 126.724 82.2904 126.724 82.7053C126.724 83.1471 126.57 83.5218 126.262 83.8297C125.968 84.1242 125.586 84.2714 125.118 84.2714Z" fill="#8C8C8C"/>
<path d="M135.398 85.918C136.442 85.918 137.372 86.1455 138.189 86.6006C139.019 87.0557 139.668 87.6982 140.136 88.528C140.605 89.3579 140.839 90.3149 140.839 91.3991C140.839 92.4833 140.605 93.447 140.136 94.2903C139.668 95.1202 139.019 95.7626 138.189 96.2177C137.372 96.6728 136.442 96.9004 135.398 96.9004C133.952 96.9004 132.808 96.4185 131.965 95.4548V100.655H129.455V86.0384H131.844V87.4439C132.259 86.9352 132.768 86.5538 133.37 86.2994C133.986 86.0451 134.662 85.918 135.398 85.918ZM135.117 94.7521C136.041 94.7521 136.797 94.4442 137.386 93.8285C137.988 93.2128 138.289 92.403 138.289 91.3991C138.289 90.3953 137.988 89.5855 137.386 88.9698C136.797 88.354 136.041 88.0462 135.117 88.0462C134.515 88.0462 133.973 88.1867 133.491 88.4678C133.009 88.7355 132.627 89.1237 132.346 89.6323C132.065 90.1409 131.925 90.7299 131.925 91.3991C131.925 92.0684 132.065 92.6573 132.346 93.166C132.627 93.6746 133.009 94.0694 133.491 94.3505C133.973 94.6182 134.515 94.7521 135.117 94.7521Z" fill="#8C8C8C"/>
<path d="M149.464 96.1772C149.17 96.4182 148.808 96.5989 148.38 96.7193C147.965 96.8398 147.523 96.9 147.055 96.9C145.877 96.9 144.967 96.5922 144.324 95.9765C143.682 95.3608 143.361 94.464 143.361 93.2861V88.1262H141.594V86.1184H143.361V83.6689H145.87V86.1184H148.741V88.1262H145.87V93.2258C145.87 93.7479 145.997 94.1494 146.252 94.4305C146.506 94.6982 146.874 94.832 147.356 94.832C147.918 94.832 148.387 94.6848 148.761 94.3903L149.464 96.1772Z" fill="#8C8C8C"/>
<path d="M151.328 86.0382H153.837V96.7596H151.328V86.0382ZM152.593 84.2714C152.137 84.2714 151.756 84.1309 151.448 83.8498C151.14 83.5553 150.986 83.1939 150.986 82.7656C150.986 82.3373 151.14 81.9826 151.448 81.7015C151.756 81.407 152.137 81.2598 152.593 81.2598C153.048 81.2598 153.429 81.4003 153.737 81.6814C154.045 81.9491 154.199 82.2904 154.199 82.7053C154.199 83.1471 154.045 83.5218 153.737 83.8297C153.442 84.1242 153.061 84.2714 152.593 84.2714Z" fill="#8C8C8C"/>
<path d="M161.749 96.9004C160.665 96.9004 159.688 96.6661 158.818 96.1977C157.948 95.7292 157.265 95.08 156.77 94.2501C156.288 93.4069 156.047 92.4565 156.047 91.3991C156.047 90.3417 156.288 89.3981 156.77 88.5682C157.265 87.7383 157.948 87.0892 158.818 86.6207C159.688 86.1522 160.665 85.918 161.749 85.918C162.846 85.918 163.83 86.1522 164.7 86.6207C165.57 87.0892 166.246 87.7383 166.728 88.5682C167.223 89.3981 167.471 90.3417 167.471 91.3991C167.471 92.4565 167.223 93.4069 166.728 94.2501C166.246 95.08 165.57 95.7292 164.7 96.1977C163.83 96.6661 162.846 96.9004 161.749 96.9004ZM161.749 94.7521C162.672 94.7521 163.435 94.4442 164.038 93.8285C164.64 93.2128 164.941 92.403 164.941 91.3991C164.941 90.3953 164.64 89.5855 164.038 88.9698C163.435 88.354 162.672 88.0462 161.749 88.0462C160.825 88.0462 160.062 88.354 159.46 88.9698C158.871 89.5855 158.577 90.3953 158.577 91.3991C158.577 92.403 158.871 93.2128 159.46 93.8285C160.062 94.4442 160.825 94.7521 161.749 94.7521Z" fill="#8C8C8C"/>
<path d="M175.754 85.918C177.106 85.918 178.19 86.3128 179.007 87.1025C179.823 87.8923 180.232 89.0634 180.232 90.6161V96.7598H177.722V90.9374C177.722 90.0004 177.501 89.2977 177.059 88.8292C176.618 88.3474 175.989 88.1064 175.172 88.1064C174.249 88.1064 173.519 88.3875 172.984 88.9497C172.448 89.4985 172.181 90.2949 172.181 91.3389V96.7598H169.671V86.0384H172.06V87.4238C172.475 86.9285 172.997 86.5538 173.626 86.2994C174.255 86.0451 174.965 85.918 175.754 85.918Z" fill="#8C8C8C"/>
<g filter="url(#filter1_dd)">
<path d="M356.054 168.465H84.5294C82.4173 168.465 80.7051 170.178 80.7051 172.29V308.052C80.7051 310.164 82.4173 311.876 84.5294 311.876H356.054C358.166 311.876 359.878 310.164 359.878 308.052V172.29C359.878 170.178 358.166 168.465 356.054 168.465Z" fill="white"/>
</g>
<path d="M104.766 196.942C104.766 195.055 106.513 193.951 109.043 193.951C111.592 193.951 113.339 195.055 113.339 196.942C113.339 198.83 111.592 199.934 109.043 199.934C106.513 199.934 104.766 198.83 104.766 196.942ZM110.368 205.094V201.962C113.64 201.58 115.949 199.693 115.949 196.942C115.949 193.851 112.998 191.843 109.043 191.843C105.107 191.843 102.156 193.851 102.156 196.942C102.156 199.693 104.465 201.56 107.717 201.962V205.094H100.69V207.242H117.435V205.094H110.368Z" fill="#4062EF"/>
<path d="M124.319 202.705H121.95V194.875H124.319V202.705ZM128.556 197.605H126.769V192.787H119.48V204.773H126.769V199.754H128.556V208.548H131.025V191.181H128.556V197.605ZM132.31 190.879V209.371H134.82V190.879H132.31Z" fill="#4062EF"/>
<path d="M138.072 192.787V194.935H144.115C143.633 199.031 141.344 201.962 137.048 204.171L138.534 206.199C144.677 203.087 146.785 198.328 146.785 192.787H138.072ZM154.294 197.947H151.704V190.879H149.054V209.351H151.704V200.135H154.294V197.947Z" fill="#4062EF"/>
<path d="M286.261 114.925H49.1553C48.0993 114.925 47.2432 115.781 47.2432 116.837V126.398C47.2432 127.454 48.0993 128.31 49.1553 128.31H286.261C287.317 128.31 288.173 127.454 288.173 126.398V116.837C288.173 115.781 287.317 114.925 286.261 114.925Z" fill="#F5F5F5"/>
<path d="M338.845 222.005H101.739C100.683 222.005 99.8271 222.861 99.8271 223.918V233.478C99.8271 234.534 100.683 235.39 101.739 235.39H338.845C339.901 235.39 340.757 234.534 340.757 233.478V223.918C340.757 222.861 339.901 222.005 338.845 222.005Z" fill="#D6E4FF"/>
<path d="M305.383 243.039H101.739C100.683 243.039 99.8271 243.895 99.8271 244.951V254.511C99.8271 255.567 100.683 256.424 101.739 256.424H305.383C306.439 256.424 307.295 255.567 307.295 254.511V244.951C307.295 243.895 306.439 243.039 305.383 243.039Z" fill="#D6E4FF"/>
<path d="M195.434 275.545H101.739C100.683 275.545 99.8271 276.402 99.8271 277.458V287.018C99.8271 288.074 100.683 288.93 101.739 288.93H195.434C196.49 288.93 197.347 288.074 197.347 287.018V277.458C197.347 276.402 196.49 275.545 195.434 275.545Z" fill="#F0F5FF"/>
<path d="M53.4895 141.741H57.0002V140.588H48.5849V141.741H52.0784V143.531C52.0784 146.267 50.237 149.193 48.0342 150.277L48.8602 151.396C50.6156 150.466 52.1128 148.487 52.7839 146.216C53.4895 148.35 54.9695 150.191 56.6905 151.069L57.5337 149.967C55.2965 148.9 53.4895 146.095 53.4895 143.531V141.741ZM59.4612 139.005V144.615H56.1225V145.768H59.4612V154.459H60.8723V139.005H59.4612Z" fill="#8C8C8C"/>
<path d="M71.5066 151.326V147.368H76.2048V146.232H66.9978V141.397H76.0499V140.244H65.5866V147.368H70.0783V151.326H63.7969V152.497H77.8225V151.326H71.5066Z" fill="#8C8C8C"/>
<path d="M133.115 140.657V141.827H138.777C138.45 145.476 136.334 148.436 132.393 150.415L133.167 151.516C138.158 149.021 140.171 145.045 140.171 140.657H133.115ZM146.642 145.269H144.164V139.005H142.753V154.442H144.164V146.439H146.642V145.269Z" fill="#8C8C8C"/>
<path d="M165.064 139.022H163.653V147.3H165.064V139.022ZM162.466 145.372C161.123 145.544 159.695 145.63 158.25 145.699V144.15H161.296V143.049H155.324V140.76H161.123V139.659H153.878V144.15H156.838V145.751C155.324 145.802 153.827 145.82 152.484 145.82L152.674 146.938C155.582 146.938 159.282 146.835 162.552 146.37L162.466 145.372ZM156.305 153.151V151.602H165.064V148.022H154.876V149.124H163.67V150.535H154.911V154.269H165.598V153.151H156.305Z" fill="#8C8C8C"/>
<path d="M185.792 144.89C182.987 144.477 180.233 142.567 180.233 140.416V139.555H178.753V140.416C178.753 142.618 176.034 144.477 173.229 144.89L173.797 146.026C176.206 145.613 178.529 144.288 179.493 142.412C180.491 144.271 182.815 145.613 185.207 146.026L185.792 144.89ZM186.463 147.695H172.523V148.865H178.753V154.458H180.164V148.865H186.48L186.463 147.695Z" fill="#8C8C8C"/>
<path d="M205.281 139.022H203.87V147.833H205.281V139.022ZM196.986 141.087C198.518 141.087 199.654 142.102 199.654 143.514C199.654 144.942 198.518 145.94 196.986 145.94C195.455 145.94 194.353 144.942 194.353 143.514C194.353 142.102 195.455 141.087 196.986 141.087ZM196.986 147.11C199.327 147.11 201.031 145.648 201.031 143.514C201.031 141.38 199.327 139.917 196.986 139.917C194.663 139.917 192.977 141.38 192.977 143.514C192.977 145.648 194.663 147.11 196.986 147.11ZM203.56 148.504H202.184V149.33C202.184 150.535 201.444 152.084 199.964 152.996C198.535 152.153 197.83 150.69 197.83 149.33V148.504H196.47V149.33C196.47 150.81 195.317 152.48 193.372 153.168L194.078 154.235C195.524 153.684 196.573 152.617 197.124 151.378C197.589 152.669 198.518 153.788 199.998 154.373C201.426 153.753 202.373 152.583 202.855 151.327C203.371 152.617 204.438 153.684 205.952 154.235L206.658 153.168C204.696 152.514 203.56 150.931 203.56 149.33V148.504Z" fill="#8C8C8C"/>
<path d="M210.339 141.655H216.104V140.485H208.928V150.621H210.15C213.058 150.621 215.089 150.518 217.446 150.07L217.291 148.9C215.054 149.296 213.075 149.417 210.339 149.417V141.655ZM222.695 145.097H220.148V139.005H218.737V154.476H220.148V146.267H222.695V145.097Z" fill="#8C8C8C"/>
<path d="M236.307 143.651H227.22V139.573H225.809V144.804H236.307V143.651ZM227.117 149.554H225.706V154.063H236.393V152.91H227.117V149.554ZM223.916 146.869V148.005H237.907V146.869H223.916Z" fill="#8C8C8C"/>
<path d="M244.714 140.674V141.81H250.341C250.083 145.424 248.173 148.367 244.025 150.397L244.8 151.499C249.928 148.969 251.752 145.062 251.752 140.674H244.714ZM255.332 139.022V145.2H251.718V146.353H255.332V154.442H256.743V139.022H255.332Z" fill="#8C8C8C"/>
<path d="M263.9 141.035C265.414 141.035 266.516 142.051 266.516 143.479C266.516 144.908 265.414 145.94 263.9 145.94C262.403 145.94 261.301 144.908 261.301 143.479C261.301 142.051 262.403 141.035 263.9 141.035ZM270.99 142.309V144.615H267.686C267.789 144.271 267.858 143.892 267.858 143.479C267.858 143.066 267.789 142.67 267.669 142.309H270.99ZM270.99 145.768V147.799H272.419V139.022H270.99V141.156H267.015C266.309 140.347 265.208 139.848 263.9 139.848C261.628 139.848 259.959 141.345 259.959 143.479C259.959 145.613 261.628 147.128 263.9 147.128C265.225 147.128 266.344 146.611 267.066 145.768H270.99ZM270.732 148.298H269.355V149.313C269.355 150.535 268.633 152.101 267.17 153.03C265.724 152.187 265.019 150.707 265.019 149.313V148.298H263.659V149.313C263.659 150.828 262.506 152.497 260.561 153.22L261.267 154.269C262.712 153.701 263.762 152.635 264.313 151.395C264.778 152.669 265.707 153.822 267.187 154.39C268.615 153.788 269.545 152.6 270.026 151.344C270.543 152.652 271.644 153.701 273.141 154.269L273.847 153.22C271.868 152.548 270.732 150.931 270.732 149.313V148.298Z" fill="#8C8C8C"/>
<path d="M127.553 135.958H82.6172C81.5612 135.958 80.7051 136.815 80.7051 137.871V154.124C80.7051 155.18 81.5612 156.036 82.6172 156.036H127.553C128.609 156.036 129.465 155.18 129.465 154.124V137.871C129.465 136.815 128.609 135.958 127.553 135.958Z" fill="#85A5FF"/>
<path d="M85.2929 144.064C85.2929 142.292 87.0999 141.139 89.5608 141.139C92.0217 141.139 93.8115 142.292 93.8115 144.064C93.8115 145.837 92.0217 146.99 89.5608 146.99C87.0999 146.99 85.2929 145.837 85.2929 144.064ZM90.2664 151.292V148.074C93.1403 147.867 95.1538 146.336 95.1538 144.064C95.1538 141.603 92.8134 140.02 89.5608 140.02C86.2911 140.02 83.9334 141.603 83.9334 144.064C83.9334 146.336 85.9641 147.867 88.838 148.074V151.292H82.5566V152.462H96.5822V151.292H90.2664Z" fill="white"/>
<path d="M103.344 149.176H100.108V141.913H103.344V149.176ZM106.941 144.822H104.652V140.795H98.7832V150.294H104.652V145.992H106.941V153.667H108.283V139.349H106.941V144.822ZM110.004 139.005V154.424H111.346V139.005H110.004Z" fill="white"/>
<path d="M114.718 140.657V141.827H120.38C120.053 145.476 117.936 148.436 113.995 150.415L114.77 151.516C119.76 149.021 121.774 145.045 121.774 140.657H114.718ZM128.244 145.269H125.766V139.005H124.355V154.442H125.766V146.439H128.244V145.269Z" fill="white"/>
<g filter="url(#filter2_d)">
<path fill-rule="evenodd" clip-rule="evenodd" d="M119.904 152.212V167.523L122.988 164.53L125.143 169.635L128.589 168.168L126.582 163.321H130.986L119.904 152.212Z" fill="white"/>
</g>
<path fill-rule="evenodd" clip-rule="evenodd" d="M120.86 165.21V154.513L128.667 162.337H125.135L127.315 167.518L125.552 168.258L123.286 162.868L120.86 165.21Z" fill="black"/>
<defs>
<filter id="filter0_dd" x="8.12109" y="47.5605" width="319.173" height="163.333" filterUnits="userSpaceOnUse" color-interpolation-filters="sRGB">
<feFlood flood-opacity="0" result="BackgroundImageFix"/>
<feColorMatrix in="SourceAlpha" type="matrix" values="0 0 0 0 0 0 0 0 0 0 0 0 0 0 0 0 0 0 127 0"/>
<feOffset dy="10"/>
<feGaussianBlur stdDeviation="10"/>
<feColorMatrix type="matrix" values="0 0 0 0 0 0 0 0 0 0 0 0 0 0 0 0 0 0 0.1 0"/>
<feBlend mode="normal" in2="BackgroundImageFix" result="effect1_dropShadow"/>
<feColorMatrix in="SourceAlpha" type="matrix" values="0 0 0 0 0 0 0 0 0 0 0 0 0 0 0 0 0 0 127 0"/>
<feOffset/>
<feGaussianBlur stdDeviation="2"/>
<feColorMatrix type="matrix" values="0 0 0 0 0 0 0 0 0 0 0 0 0 0 0 0 0 0 0.1 0"/>
<feBlend mode="normal" in2="effect1_dropShadow" result="effect2_dropShadow"/>
<feBlend mode="normal" in="SourceGraphic" in2="effect2_dropShadow" result="shape"/>
</filter>
<filter id="filter1_dd" x="60.7051" y="158.465" width="319.173" height="183.411" filterUnits="userSpaceOnUse" color-interpolation-filters="sRGB">
<feFlood flood-opacity="0" result="BackgroundImageFix"/>
<feColorMatrix in="SourceAlpha" type="matrix" values="0 0 0 0 0 0 0 0 0 0 0 0 0 0 0 0 0 0 127 0"/>
<feOffset dy="10"/>
<feGaussianBlur stdDeviation="10"/>
<feColorMatrix type="matrix" values="0 0 0 0 0 0 0 0 0 0 0 0 0 0 0 0 0 0 0.1 0"/>
<feBlend mode="normal" in2="BackgroundImageFix" result="effect1_dropShadow"/>
<feColorMatrix in="SourceAlpha" type="matrix" values="0 0 0 0 0 0 0 0 0 0 0 0 0 0 0 0 0 0 127 0"/>
<feOffset/>
<feGaussianBlur stdDeviation="2"/>
<feColorMatrix type="matrix" values="0 0 0 0 0 0 0 0 0 0 0 0 0 0 0 0 0 0 0.1 0"/>
<feBlend mode="normal" in2="effect1_dropShadow" result="effect2_dropShadow"/>
<feBlend mode="normal" in="SourceGraphic" in2="effect2_dropShadow" result="shape"/>
</filter>
<filter id="filter2_d" x="117.904" y="151.212" width="15.0818" height="21.4235" filterUnits="userSpaceOnUse" color-interpolation-filters="sRGB">
<feFlood flood-opacity="0" result="BackgroundImageFix"/>
<feColorMatrix in="SourceAlpha" type="matrix" values="0 0 0 0 0 0 0 0 0 0 0 0 0 0 0 0 0 0 127 0"/>
<feOffset dy="1"/>
<feGaussianBlur stdDeviation="1"/>
<feColorMatrix type="matrix" values="0 0 0 0 0 0 0 0 0 0 0 0 0 0 0 0 0 0 0.65 0"/>
<feBlend mode="normal" in2="BackgroundImageFix" result="effect1_dropShadow"/>
<feBlend mode="normal" in="SourceGraphic" in2="effect1_dropShadow" result="shape"/>
</filter>
</defs>
</svg>
