<svg width="40" height="40" viewBox="0 0 40 40" fill="none" xmlns="http://www.w3.org/2000/svg">
<path d="M0 0H40V40H0V0Z" fill="white"/>
<mask id="path-2-inside-1" fill="white">
<rect x="28" y="16" width="8" height="8" rx="1"/>
</mask>
<rect x="28" y="16" width="8" height="8" rx="1" stroke="#ADC6FF" stroke-width="4" mask="url(#path-2-inside-1)"/>
<mask id="path-3-inside-2" fill="white">
<rect x="4" y="6" width="16" height="7" rx="1"/>
</mask>
<rect x="4" y="6" width="16" height="7" rx="1" fill="#ADC6FF" stroke="#ADC6FF" stroke-width="4" mask="url(#path-3-inside-2)"/>
<mask id="path-4-inside-3" fill="white">
<rect x="14" y="27" width="22" height="7" rx="1"/>
</mask>
<rect x="14" y="27" width="22" height="7" rx="1" fill="#ADC6FF" stroke="#ADC6FF" stroke-width="4" mask="url(#path-4-inside-3)"/>
<mask id="path-5-inside-4" fill="white">
<rect x="22" y="6" width="14" height="7" rx="1"/>
</mask>
<rect x="22" y="6" width="14" height="7" rx="1" stroke="#ADC6FF" stroke-width="4" mask="url(#path-5-inside-4)"/>
<mask id="path-6-inside-5" fill="white">
<rect x="4" y="27" width="7" height="7" rx="1"/>
</mask>
<rect x="4" y="27" width="7" height="7" rx="1" stroke="#ADC6FF" stroke-width="4" mask="url(#path-6-inside-5)"/>
<mask id="path-7-inside-6" fill="white">
<rect x="4" y="16" width="21" height="8" rx="1"/>
</mask>
<rect x="4" y="16" width="21" height="8" rx="1" stroke="#ADC6FF" stroke-width="4" mask="url(#path-7-inside-6)"/>
</svg>
