<svg width="388" height="388" viewBox="0 0 388 388" fill="none" xmlns="http://www.w3.org/2000/svg">
<g filter="url(#filter0_dd)">
<path d="M23.3037 29.3506C23.3037 27.2439 25.0115 25.5361 27.1181 25.5361H359.927C362.034 25.5361 363.742 27.2439 363.742 29.3506V346.902C363.742 349.009 362.034 350.717 359.927 350.717H27.1181C25.0115 350.717 23.3037 349.009 23.3037 346.902V29.3506Z" fill="white"/>
</g>
<path d="M23.3037 57.959H363.742V210.536H23.3037V57.959Z" fill="#E8E8E8"/>
<path fill-rule="evenodd" clip-rule="evenodd" d="M201.152 105.163V108.977H200.198V105.163H201.152Z" fill="black"/>
<path fill-rule="evenodd" clip-rule="evenodd" d="M363.742 58.4355H23.3037V57.4819H363.742V58.4355Z" fill="#E8E8E8"/>
<path d="M42.3759 41.7475C42.3759 44.3808 40.2412 46.5156 37.6079 46.5156C34.9746 46.5156 32.8398 44.3808 32.8398 41.7475C32.8398 39.1142 34.9746 36.9795 37.6079 36.9795C40.2412 36.9795 42.3759 39.1142 42.3759 41.7475Z" fill="#F5222D"/>
<path d="M57.6337 41.7475C57.6337 44.3808 55.499 46.5156 52.8657 46.5156C50.2324 46.5156 48.0977 44.3808 48.0977 41.7475C48.0977 39.1142 50.2324 36.9795 52.8657 36.9795C55.499 36.9795 57.6337 39.1142 57.6337 41.7475Z" fill="#FA8C16"/>
<path d="M72.8915 41.7475C72.8915 44.3808 70.7568 46.5156 68.1235 46.5156C65.4902 46.5156 63.3555 44.3808 63.3555 41.7475C63.3555 39.1142 65.4902 36.9795 68.1235 36.9795C70.7568 36.9795 72.8915 39.1142 72.8915 41.7475Z" fill="#52C41A"/>
<path d="M103.407 36.9795C103.407 34.8729 105.115 33.165 107.222 33.165H294.129C296.235 33.165 297.943 34.8729 297.943 36.9795V46.5156C297.943 48.6222 296.235 50.33 294.129 50.33H107.222C105.115 50.33 103.407 48.6222 103.407 46.5156V36.9795Z" fill="#F5F5F5"/>
<path d="M180.71 39.5543H181.625V44.6085H180.71V39.5543ZM181.168 38.5817C180.989 38.5817 180.84 38.5244 180.719 38.41C180.605 38.2956 180.548 38.1557 180.548 37.9904C180.548 37.8251 180.605 37.6853 180.719 37.5708C180.84 37.45 180.989 37.3896 181.168 37.3896C181.345 37.3896 181.492 37.4469 181.606 37.5613C181.727 37.6693 181.788 37.806 181.788 37.9714C181.788 38.143 181.727 38.2892 181.606 38.41C181.492 38.5244 181.345 38.5817 181.168 38.5817Z" fill="#8C8C8C"/>
<path d="M185.976 39.5063C186.618 39.5063 187.126 39.6938 187.502 40.069C187.883 40.4376 188.074 40.9812 188.074 41.6996V44.6082H187.159V41.8045C187.159 41.315 187.04 40.9463 186.806 40.6984C186.57 40.4504 186.234 40.3264 185.795 40.3264C185.299 40.3264 184.908 40.4726 184.622 40.7651C184.336 41.0512 184.193 41.4644 184.193 42.0048V44.6082H183.277V39.554H184.155V40.3169C184.339 40.0562 184.587 39.8559 184.898 39.7161C185.216 39.5762 185.576 39.5063 185.976 39.5063Z" fill="#8C8C8C"/>
<path d="M191.637 42.2531L190.588 43.2258V44.6085H189.673V37.5327H190.588V42.0719L193.344 39.5544H194.45L192.324 41.6428L194.66 44.6085H193.535L191.637 42.2531Z" fill="#8C8C8C"/>
<path d="M196.266 40.4027C196.425 40.1103 196.661 39.8878 196.972 39.7352C197.283 39.5826 197.662 39.5063 198.106 39.5063V40.3932C198.056 40.3868 197.986 40.3837 197.897 40.3837C197.401 40.3837 197.01 40.533 196.724 40.8319C196.444 41.1242 196.304 41.5438 196.304 42.0906V44.6082H195.389V39.554H196.266V40.4027Z" fill="#8C8C8C"/>
<path d="M199.331 44.6653C199.153 44.6653 199 44.6049 198.873 44.4841C198.747 44.3569 198.683 44.1981 198.683 44.0073C198.683 43.8229 198.747 43.6703 198.873 43.5496C199 43.4224 199.153 43.3589 199.331 43.3589C199.509 43.3589 199.658 43.4193 199.779 43.5401C199.9 43.6608 199.96 43.8166 199.96 44.0073C199.96 44.1981 199.897 44.3569 199.77 44.4841C199.649 44.6049 199.503 44.6653 199.331 44.6653Z" fill="#8C8C8C"/>
<path d="M203.268 44.6654C202.753 44.6654 202.291 44.5541 201.885 44.3316C201.485 44.109 201.17 43.8039 200.941 43.4161C200.712 43.0219 200.598 42.577 200.598 42.0811C200.598 41.5852 200.712 41.1433 200.941 40.7556C201.17 40.3614 201.485 40.0562 201.885 39.8401C202.291 39.6175 202.753 39.5063 203.268 39.5063C203.725 39.5063 204.132 39.5985 204.488 39.7829C204.851 39.9672 205.13 40.2342 205.328 40.5839L204.631 41.0321C204.472 40.7905 204.275 40.6093 204.04 40.4886C203.805 40.3677 203.544 40.3074 203.258 40.3074C202.927 40.3074 202.629 40.3804 202.362 40.5267C202.101 40.6729 201.895 40.8827 201.742 41.1561C201.595 41.4231 201.523 41.7314 201.523 42.0811C201.523 42.4371 201.595 42.7518 201.742 43.0252C201.895 43.2922 202.101 43.4987 202.362 43.645C202.629 43.7912 202.927 43.8643 203.258 43.8643C203.544 43.8643 203.805 43.8039 204.04 43.6832C204.275 43.5623 204.472 43.3811 204.631 43.1396L205.328 43.5783C205.13 43.9278 204.851 44.1981 204.488 44.3888C204.132 44.5732 203.725 44.6654 203.268 44.6654Z" fill="#8C8C8C"/>
<path d="M208.507 44.6654C208.005 44.6654 207.553 44.5541 207.153 44.3316C206.752 44.109 206.438 43.8039 206.209 43.4161C205.987 43.0219 205.875 42.577 205.875 42.0811C205.875 41.5852 205.987 41.1433 206.209 40.7556C206.438 40.3614 206.752 40.0562 207.153 39.8401C207.553 39.6175 208.005 39.5063 208.507 39.5063C209.01 39.5063 209.458 39.6175 209.852 39.8401C210.252 40.0562 210.564 40.3614 210.786 40.7556C211.015 41.1433 211.129 41.5852 211.129 42.0811C211.129 42.577 211.015 43.0219 210.786 43.4161C210.564 43.8039 210.252 44.109 209.852 44.3316C209.458 44.5541 209.01 44.6654 208.507 44.6654ZM208.507 43.8643C208.831 43.8643 209.121 43.7912 209.375 43.645C209.636 43.4924 209.839 43.2826 209.985 43.0156C210.132 42.7422 210.204 42.4307 210.204 42.0811C210.204 41.7314 210.132 41.4231 209.985 41.1561C209.839 40.8827 209.636 40.6729 209.375 40.5267C209.121 40.3804 208.831 40.3074 208.507 40.3074C208.183 40.3074 207.891 40.3804 207.63 40.5267C207.376 40.6729 207.172 40.8827 207.019 41.1561C206.873 41.4231 206.8 41.7314 206.8 42.0811C206.8 42.4307 206.873 42.7422 207.019 43.0156C207.172 43.2826 207.376 43.4924 207.63 43.645C207.891 43.7912 208.183 43.8643 208.507 43.8643Z" fill="#8C8C8C"/>
<path d="M218.623 39.5063C219.259 39.5063 219.761 39.6907 220.13 40.0594C220.505 40.4281 220.693 40.9749 220.693 41.6996V44.6082H219.777V41.8045C219.777 41.315 219.663 40.9463 219.434 40.6984C219.212 40.4504 218.89 40.3264 218.471 40.3264C218.006 40.3264 217.638 40.4726 217.364 40.7651C217.091 41.0512 216.954 41.4644 216.954 42.0048V44.6082H216.039V41.8045C216.039 41.315 215.925 40.9463 215.696 40.6984C215.473 40.4504 215.152 40.3264 214.732 40.3264C214.268 40.3264 213.9 40.4726 213.626 40.7651C213.353 41.0512 213.216 41.4644 213.216 42.0048V44.6082H212.301V39.554H213.178V40.3074C213.362 40.0467 213.604 39.8496 213.903 39.7161C214.201 39.5762 214.542 39.5063 214.923 39.5063C215.317 39.5063 215.667 39.5858 215.972 39.7447C216.277 39.9036 216.513 40.1357 216.678 40.4409C216.869 40.1484 217.133 39.9195 217.469 39.7543C217.813 39.5889 218.197 39.5063 218.623 39.5063Z" fill="#8C8C8C"/>
<g filter="url(#filter1_d)">
<path fill-rule="evenodd" clip-rule="evenodd" d="M198.768 192.269C238.267 192.269 270.288 167.46 270.288 136.855C270.288 106.251 238.267 81.4409 198.768 81.4409C159.268 81.4409 127.247 106.251 127.247 136.855C127.247 155.346 138.936 171.721 156.902 181.788C157.06 181.876 157.156 182.046 157.146 182.226C156.849 186.967 154.427 191.742 147.545 194.345C147.059 194.529 147.123 195.258 147.64 195.296C154.36 195.779 166.914 195.208 179.273 190.27C179.362 190.235 179.459 190.226 179.552 190.246C185.667 191.564 192.112 192.269 198.768 192.269Z" fill="white"/>
</g>
<path d="M165.392 114.222C165.392 113.695 165.819 113.268 166.345 113.268H233.098C233.624 113.268 234.051 113.695 234.051 114.222V124.711C234.051 125.238 233.624 125.665 233.098 125.665H166.345C165.819 125.665 165.392 125.238 165.392 124.711V114.222Z" fill="#E8E8E8"/>
<path d="M159.67 132.34C159.67 131.814 160.097 131.387 160.624 131.387H238.819C239.346 131.387 239.773 131.814 239.773 132.34V141.876C239.773 142.403 239.346 142.83 238.819 142.83H160.624C160.097 142.83 159.67 142.403 159.67 141.876V132.34Z" fill="#E8E8E8"/>
<path d="M175.882 149.505C175.882 148.979 176.309 148.552 176.835 148.552H222.609C223.135 148.552 223.562 148.979 223.562 149.505V159.995C223.562 160.521 223.135 160.949 222.609 160.949H176.835C176.309 160.949 175.882 160.521 175.882 159.995V149.505Z" fill="#E8E8E8"/>
<path fill-rule="evenodd" clip-rule="evenodd" d="M248.356 105.639H151.088V167.624H248.356V105.639ZM149.181 103.732V169.531H250.263V103.732H149.181Z" fill="#4062EF"/>
<path fill-rule="evenodd" clip-rule="evenodd" d="M200.675 96.103V104.686H198.768V96.103H200.675Z" fill="#4062EF"/>
<path d="M147.273 101.825H152.041V106.593H147.273V101.825Z" fill="white"/>
<path fill-rule="evenodd" clip-rule="evenodd" d="M146.319 100.871H152.995V107.546H146.319V100.871ZM148.227 102.778V105.639H151.087V102.778H148.227Z" fill="#4062EF"/>
<path d="M247.402 101.825H252.17V106.593H247.402V101.825Z" fill="white"/>
<path fill-rule="evenodd" clip-rule="evenodd" d="M246.448 100.871H253.124V107.546H246.448V100.871ZM248.355 102.778V105.639H251.216V102.778H248.355Z" fill="#4062EF"/>
<path d="M247.402 166.67H252.17V171.438H247.402V166.67Z" fill="white"/>
<path fill-rule="evenodd" clip-rule="evenodd" d="M246.448 165.716H253.124V172.392H246.448V165.716ZM248.355 167.624V170.484H251.216V167.624H248.355Z" fill="#4062EF"/>
<path d="M147.273 166.67H152.041V171.438H147.273V166.67Z" fill="white"/>
<path fill-rule="evenodd" clip-rule="evenodd" d="M146.319 165.716H152.995V172.392H146.319V165.716ZM148.227 167.624V170.484H151.087V167.624H148.227Z" fill="#4062EF"/>
<path d="M202.582 93.2422C202.582 94.8222 201.301 96.103 199.721 96.103C198.141 96.103 196.86 94.8222 196.86 93.2422C196.86 91.6621 198.141 90.3813 199.721 90.3813C201.301 90.3813 202.582 91.6621 202.582 93.2422Z" fill="white"/>
<path fill-rule="evenodd" clip-rule="evenodd" d="M199.722 91.335C198.668 91.335 197.814 92.1888 197.814 93.2422C197.814 94.2955 198.668 95.1494 199.722 95.1494C200.775 95.1494 201.629 94.2955 201.629 93.2422C201.629 92.1888 200.775 91.335 199.722 91.335ZM195.907 93.2422C195.907 91.1356 197.615 89.4277 199.722 89.4277C201.828 89.4277 203.536 91.1356 203.536 93.2422C203.536 95.3488 201.828 97.0566 199.722 97.0566C197.615 97.0566 195.907 95.3488 195.907 93.2422Z" fill="#4062EF"/>
<g filter="url(#filter2_d)">
<path fill-rule="evenodd" clip-rule="evenodd" d="M254.077 134.248H245.495V131.387L240.727 135.201L245.495 139.016V136.155H254.077V139.016L258.845 135.201L254.077 131.387V134.248Z" fill="black"/>
<path d="M245.972 139.016V136.632H253.6V139.016V140.007L254.375 139.388L259.143 135.573L259.608 135.201L259.143 134.829L254.375 131.015L253.6 130.395V131.387V133.771H245.972V131.387V130.395L245.197 131.015L240.429 134.829L239.964 135.201L240.429 135.573L245.197 139.388L245.972 140.007V139.016Z" stroke="white" stroke-opacity="0.8"/>
</g>
<path fill-rule="evenodd" clip-rule="evenodd" d="M244.541 222.933H39.5156C37.9356 222.933 36.6548 224.214 36.6548 225.794V248.681C36.6548 250.261 37.9356 251.541 39.5156 251.541H244.541C246.122 251.541 247.402 250.261 247.402 248.681V225.794C247.402 224.214 246.122 222.933 244.541 222.933ZM39.5156 221.979C37.409 221.979 35.7012 223.687 35.7012 225.794V248.681C35.7012 250.787 37.409 252.495 39.5156 252.495H244.541C246.648 252.495 248.356 250.787 248.356 248.681V225.794C248.356 223.687 246.648 221.979 244.541 221.979H39.5156Z" fill="#D9D9D9"/>
<path fill-rule="evenodd" clip-rule="evenodd" d="M348.484 222.933H261.706C260.126 222.933 258.845 224.214 258.845 225.794V248.681C258.845 250.261 260.126 251.541 261.706 251.541H348.484C350.065 251.541 351.345 250.261 351.345 248.681V225.794C351.345 224.214 350.065 222.933 348.484 222.933ZM261.706 221.979C259.6 221.979 257.892 223.687 257.892 225.794V248.681C257.892 250.787 259.6 252.495 261.706 252.495H348.484C350.591 252.495 352.299 250.787 352.299 248.681V225.794C352.299 223.687 350.591 221.979 348.484 221.979H261.706Z" fill="#D9D9D9"/>
<path d="M53.5069 239.842H48.8342L47.913 242.005H46.124L50.3294 232.66H52.0383L56.2571 242.005H54.4414L53.5069 239.842ZM52.9328 238.48L51.1705 234.395L49.4216 238.48H52.9328Z" fill="#8C8C8C"/>
<path d="M57.1514 232.099H58.8202V242.005H57.1514V232.099Z" fill="#8C8C8C"/>
<path d="M67.5794 238.481C67.5794 238.596 67.5706 238.761 67.5527 238.975H61.9589C62.0568 239.5 62.3104 239.918 62.7198 240.23C63.1382 240.532 63.6544 240.683 64.2685 240.683C65.0518 240.683 65.697 240.425 66.2043 239.909L67.0988 240.937C66.7784 241.32 66.3735 241.609 65.8839 241.805C65.3944 242 64.8426 242.099 64.2284 242.099C63.4452 242.099 62.7555 241.943 62.1591 241.631C61.5628 241.32 61.1 240.888 60.7707 240.336C60.4502 239.776 60.29 239.143 60.29 238.441C60.29 237.746 60.4459 237.124 60.7573 236.572C61.0777 236.011 61.5183 235.575 62.079 235.263C62.6397 234.951 63.2717 234.796 63.9748 234.796C64.669 234.796 65.2876 234.951 65.8305 235.263C66.3824 235.565 66.8096 235.997 67.1122 236.558C67.4237 237.11 67.5794 237.751 67.5794 238.481ZM63.9748 236.131C63.4408 236.131 62.9868 236.291 62.613 236.612C62.2482 236.923 62.0256 237.341 61.9455 237.867H65.9907C65.9196 237.351 65.7015 236.932 65.3365 236.612C64.9717 236.291 64.5178 236.131 63.9748 236.131Z" fill="#8C8C8C"/>
<path d="M73.3927 242.005L71.5637 239.535L69.7213 242.005H67.8789L70.6558 238.387L67.9991 234.876H69.8548L71.6037 237.212L73.3526 234.876H75.1549L72.4848 238.36L75.2751 242.005H73.3927Z" fill="#8C8C8C"/>
<path d="M76.9203 232.006C77.2318 232.006 77.4899 232.108 77.6946 232.313C77.8993 232.518 78.0016 232.78 78.0016 233.101C78.0016 233.261 77.9794 233.416 77.9349 233.568C77.8993 233.719 77.8237 233.946 77.7079 234.249L77.0137 236.145H75.9323L76.4663 234.089C76.2706 234.017 76.1148 233.897 75.9991 233.728C75.8923 233.55 75.8389 233.341 75.8389 233.101C75.8389 232.78 75.9413 232.518 76.1459 232.313C76.3507 232.108 76.6088 232.006 76.9203 232.006Z" fill="#8C8C8C"/>
<path d="M81.4801 242.099C80.9015 242.099 80.3363 242.023 79.7846 241.872C79.2327 241.72 78.7922 241.529 78.4629 241.298L79.1037 240.029C79.4241 240.243 79.8068 240.416 80.2519 240.55C80.7058 240.675 81.1507 240.737 81.5869 240.737C82.5837 240.737 83.0822 240.475 83.0822 239.949C83.0822 239.7 82.953 239.527 82.695 239.429C82.4457 239.33 82.0408 239.237 81.4801 239.148C80.8927 239.059 80.4121 238.956 80.0383 238.841C79.6733 238.726 79.3529 238.525 79.077 238.24C78.81 237.947 78.6765 237.541 78.6765 237.025C78.6765 236.349 78.9569 235.811 79.5176 235.41C80.0872 235.001 80.8526 234.796 81.8139 234.796C82.3034 234.796 82.7928 234.854 83.2824 234.969C83.7719 235.076 84.1724 235.223 84.484 235.41L83.8431 236.678C83.2379 236.323 82.557 236.144 81.8005 236.144C81.3109 236.144 80.9371 236.22 80.6791 236.371C80.4298 236.513 80.3053 236.705 80.3053 236.945C80.3053 237.212 80.4388 237.404 80.7058 237.519C80.9817 237.626 81.4044 237.728 81.9741 237.826C82.5437 237.915 83.0109 238.018 83.3759 238.134C83.7407 238.249 84.0523 238.445 84.3104 238.721C84.5774 238.997 84.7109 239.388 84.7109 239.896C84.7109 240.563 84.4216 241.097 83.8431 241.498C83.2646 241.898 82.4769 242.099 81.4801 242.099Z" fill="#8C8C8C"/>
<path d="M98.0345 232.66V242.005H96.2989V238H91.466V242.005H89.7305V232.66H91.466V236.518H96.2989V232.66H98.0345Z" fill="#8C8C8C"/>
<path d="M102.969 234.796C104.019 234.796 104.821 235.05 105.372 235.557C105.933 236.056 106.213 236.812 106.213 237.826V242.005H104.638V241.137C104.434 241.449 104.139 241.69 103.757 241.858C103.383 242.019 102.929 242.099 102.395 242.099C101.861 242.099 101.394 242.01 100.993 241.832C100.593 241.645 100.281 241.391 100.059 241.071C99.8451 240.742 99.7383 240.372 99.7383 239.963C99.7383 239.322 99.9741 238.81 100.446 238.427C100.926 238.035 101.678 237.84 102.702 237.84H104.544V237.733C104.544 237.234 104.394 236.852 104.091 236.585C103.797 236.318 103.356 236.184 102.769 236.184C102.368 236.184 101.972 236.246 101.581 236.371C101.198 236.496 100.873 236.67 100.606 236.892L99.9519 235.677C100.326 235.392 100.775 235.174 101.3 235.023C101.825 234.871 102.382 234.796 102.969 234.796ZM102.742 240.884C103.16 240.884 103.53 240.79 103.85 240.603C104.18 240.408 104.411 240.131 104.544 239.776V238.948H102.822C101.861 238.948 101.38 239.264 101.38 239.896C101.38 240.198 101.501 240.438 101.741 240.617C101.981 240.795 102.315 240.884 102.742 240.884Z" fill="#8C8C8C"/>
<path d="M112.266 234.796C113.165 234.796 113.886 235.058 114.429 235.584C114.971 236.109 115.243 236.887 115.243 237.92V242.005H113.574V238.134C113.574 237.511 113.427 237.044 113.134 236.732C112.84 236.411 112.421 236.251 111.879 236.251C111.265 236.251 110.779 236.438 110.424 236.812C110.068 237.177 109.89 237.706 109.89 238.401V242.005H108.221V234.876H109.809V235.797C110.085 235.468 110.432 235.218 110.851 235.05C111.269 234.881 111.74 234.796 112.266 234.796Z" fill="#8C8C8C"/>
<path d="M124.274 232.099V242.005H122.672V241.084C122.396 241.423 122.054 241.676 121.644 241.845C121.243 242.014 120.799 242.099 120.309 242.099C119.624 242.099 119.005 241.947 118.453 241.645C117.91 241.342 117.483 240.915 117.171 240.363C116.86 239.802 116.704 239.162 116.704 238.441C116.704 237.72 116.86 237.084 117.171 236.531C117.483 235.979 117.91 235.552 118.453 235.25C119.005 234.948 119.624 234.796 120.309 234.796C120.781 234.796 121.213 234.876 121.604 235.036C121.996 235.196 122.329 235.437 122.605 235.757V232.099H124.274ZM120.509 240.67C120.91 240.67 121.27 240.581 121.59 240.403C121.911 240.216 122.164 239.954 122.351 239.615C122.538 239.277 122.632 238.886 122.632 238.441C122.632 237.995 122.538 237.604 122.351 237.266C122.164 236.927 121.911 236.67 121.59 236.491C121.27 236.305 120.91 236.211 120.509 236.211C120.108 236.211 119.748 236.305 119.428 236.491C119.107 236.67 118.854 236.927 118.667 237.266C118.48 237.604 118.386 237.995 118.386 238.441C118.386 238.886 118.48 239.277 118.667 239.615C118.854 239.954 119.107 240.216 119.428 240.403C119.748 240.581 120.108 240.67 120.509 240.67Z" fill="#8C8C8C"/>
<path d="M137.446 234.876L134.815 242.005H133.213L131.371 237.092L129.502 242.005H127.9L125.283 234.876H126.859L128.741 240.136L130.704 234.876H132.105L134.028 240.163L135.964 234.876H137.446Z" fill="#8C8C8C"/>
<path d="M140.048 235.917C140.528 235.17 141.374 234.796 142.584 234.796V236.385C142.442 236.358 142.313 236.345 142.197 236.345C141.548 236.345 141.04 236.536 140.675 236.919C140.31 237.292 140.128 237.835 140.128 238.547V242.005H138.459V234.876H140.048V235.917Z" fill="#8C8C8C"/>
<path d="M143.867 234.876H145.535V242.005H143.867V234.876ZM144.708 233.701C144.404 233.701 144.151 233.608 143.947 233.421C143.742 233.225 143.64 232.985 143.64 232.7C143.64 232.415 143.742 232.179 143.947 231.992C144.151 231.797 144.404 231.699 144.708 231.699C145.01 231.699 145.264 231.792 145.469 231.979C145.673 232.157 145.776 232.384 145.776 232.66C145.776 232.954 145.673 233.203 145.469 233.408C145.272 233.603 145.019 233.701 144.708 233.701Z" fill="#8C8C8C"/>
<path d="M151.877 241.618C151.681 241.778 151.441 241.899 151.156 241.979C150.88 242.059 150.587 242.099 150.275 242.099C149.492 242.099 148.886 241.894 148.459 241.485C148.032 241.076 147.818 240.479 147.818 239.696V236.265H146.644V234.93H147.818V233.301H149.487V234.93H151.396V236.265H149.487V239.656C149.487 240.003 149.572 240.27 149.741 240.457C149.911 240.635 150.155 240.724 150.475 240.724C150.849 240.724 151.161 240.625 151.41 240.43L151.877 241.618Z" fill="#8C8C8C"/>
<path d="M153.117 234.876H154.785V242.005H153.117V234.876ZM153.958 233.701C153.655 233.701 153.402 233.608 153.197 233.421C152.992 233.225 152.89 232.985 152.89 232.7C152.89 232.415 152.992 232.179 153.197 231.992C153.402 231.797 153.655 231.699 153.958 231.699C154.26 231.699 154.514 231.792 154.719 231.979C154.924 232.157 155.026 232.384 155.026 232.66C155.026 232.954 154.924 233.203 154.719 233.408C154.523 233.603 154.27 233.701 153.958 233.701Z" fill="#8C8C8C"/>
<path d="M160.888 234.796C161.787 234.796 162.508 235.058 163.051 235.584C163.593 236.109 163.865 236.887 163.865 237.92V242.005H162.196V238.134C162.196 237.511 162.049 237.044 161.756 236.732C161.462 236.411 161.043 236.251 160.501 236.251C159.887 236.251 159.401 236.438 159.046 236.812C158.69 237.177 158.512 237.706 158.512 238.401V242.005H156.843V234.876H158.431V235.797C158.707 235.468 159.054 235.218 159.473 235.05C159.891 234.881 160.363 234.796 160.888 234.796Z" fill="#8C8C8C"/>
<path d="M172.989 234.876V240.924C172.989 243.434 171.708 244.689 169.144 244.689C168.46 244.689 167.809 244.6 167.195 244.422C166.581 244.253 166.074 244.003 165.673 243.674L166.421 242.419C166.733 242.677 167.125 242.882 167.596 243.033C168.076 243.193 168.562 243.273 169.051 243.273C169.835 243.273 170.409 243.095 170.773 242.739C171.138 242.384 171.321 241.84 171.321 241.111V240.737C171.036 241.049 170.689 241.284 170.279 241.444C169.87 241.605 169.421 241.685 168.931 241.685C168.255 241.685 167.641 241.543 167.088 241.258C166.546 240.964 166.114 240.555 165.793 240.029C165.483 239.504 165.326 238.903 165.326 238.227C165.326 237.551 165.483 236.954 165.793 236.438C166.114 235.913 166.546 235.508 167.088 235.223C167.641 234.938 168.255 234.796 168.931 234.796C169.448 234.796 169.915 234.881 170.333 235.05C170.76 235.218 171.116 235.477 171.401 235.824V234.876H172.989ZM169.184 240.27C169.817 240.27 170.333 240.083 170.733 239.709C171.143 239.326 171.347 238.833 171.347 238.227C171.347 237.631 171.143 237.146 170.733 236.772C170.333 236.398 169.817 236.211 169.184 236.211C168.544 236.211 168.019 236.398 167.609 236.772C167.209 237.146 167.008 237.631 167.008 238.227C167.008 238.833 167.209 239.326 167.609 239.709C168.019 240.083 168.544 240.27 169.184 240.27Z" fill="#8C8C8C"/>
<path d="M275.751 242.005L273.842 239.268C273.762 239.277 273.642 239.282 273.482 239.282H271.372V242.005H269.637V232.66H273.482C274.291 232.66 274.995 232.793 275.591 233.06C276.197 233.327 276.659 233.71 276.98 234.208C277.3 234.707 277.46 235.298 277.46 235.984C277.46 236.687 277.287 237.292 276.939 237.8C276.601 238.307 276.112 238.686 275.471 238.934L277.62 242.005H275.751ZM275.711 235.984C275.711 235.388 275.516 234.929 275.124 234.609C274.732 234.288 274.158 234.128 273.402 234.128H271.372V237.853H273.402C274.158 237.853 274.732 237.693 275.124 237.372C275.516 237.043 275.711 236.58 275.711 235.984Z" fill="#8C8C8C"/>
<path d="M285.81 238.481C285.81 238.596 285.801 238.761 285.783 238.975H280.189C280.288 239.5 280.541 239.918 280.95 240.23C281.369 240.532 281.885 240.683 282.499 240.683C283.282 240.683 283.927 240.425 284.435 239.909L285.329 240.937C285.009 241.32 284.604 241.609 284.114 241.805C283.625 242 283.073 242.099 282.459 242.099C281.676 242.099 280.986 241.943 280.39 241.631C279.794 241.32 279.33 240.888 279.001 240.336C278.681 239.776 278.521 239.143 278.521 238.441C278.521 237.746 278.676 237.124 278.988 236.572C279.308 236.011 279.749 235.575 280.309 235.263C280.87 234.951 281.502 234.796 282.205 234.796C282.899 234.796 283.518 234.951 284.061 235.263C284.613 235.565 285.04 235.997 285.343 236.558C285.654 237.11 285.81 237.751 285.81 238.481ZM282.205 236.131C281.671 236.131 281.217 236.291 280.844 236.612C280.478 236.923 280.256 237.341 280.176 237.867H284.221C284.15 237.351 283.932 236.932 283.567 236.612C283.202 236.291 282.748 236.131 282.205 236.131Z" fill="#8C8C8C"/>
<path d="M294.355 234.876V240.924C294.355 243.434 293.073 244.689 290.51 244.689C289.824 244.689 289.175 244.6 288.56 244.422C287.946 244.253 287.439 244.003 287.039 243.674L287.786 242.419C288.098 242.677 288.489 242.882 288.961 243.033C289.442 243.193 289.927 243.273 290.416 243.273C291.199 243.273 291.773 243.095 292.138 242.739C292.504 242.384 292.686 241.84 292.686 241.111V240.737C292.401 241.049 292.054 241.284 291.644 241.444C291.235 241.605 290.785 241.685 290.296 241.685C289.62 241.685 289.006 241.543 288.454 241.258C287.911 240.964 287.479 240.555 287.159 240.029C286.847 239.504 286.691 238.903 286.691 238.227C286.691 237.551 286.847 236.954 287.159 236.438C287.479 235.913 287.911 235.508 288.454 235.223C289.006 234.938 289.62 234.796 290.296 234.796C290.812 234.796 291.279 234.881 291.698 235.05C292.125 235.218 292.481 235.477 292.766 235.824V234.876H294.355ZM290.55 240.27C291.182 240.27 291.698 240.083 292.098 239.709C292.507 239.326 292.712 238.833 292.712 238.227C292.712 237.631 292.507 237.146 292.098 236.772C291.698 236.398 291.182 236.211 290.55 236.211C289.909 236.211 289.383 236.398 288.974 236.772C288.574 237.146 288.374 237.631 288.374 238.227C288.374 238.833 288.574 239.326 288.974 239.709C289.383 240.083 289.909 240.27 290.55 240.27Z" fill="#8C8C8C"/>
<path d="M303.318 234.876V242.005H301.729V241.097C301.462 241.418 301.128 241.667 300.728 241.845C300.327 242.014 299.895 242.099 299.433 242.099C298.48 242.099 297.729 241.836 297.177 241.311C296.634 240.777 296.362 239.989 296.362 238.948V234.876H298.031V238.721C298.031 239.362 298.173 239.842 298.458 240.163C298.752 240.475 299.166 240.63 299.7 240.63C300.296 240.63 300.768 240.448 301.115 240.083C301.471 239.709 301.649 239.175 301.649 238.481V234.876H303.318Z" fill="#8C8C8C"/>
<path d="M305.369 232.099H307.038V242.005H305.369V232.099Z" fill="#8C8C8C"/>
<path d="M311.819 234.796C312.869 234.796 313.67 235.05 314.222 235.557C314.783 236.056 315.063 236.812 315.063 237.826V242.005H313.488V241.137C313.283 241.449 312.989 241.69 312.606 241.858C312.233 242.019 311.779 242.099 311.245 242.099C310.711 242.099 310.243 242.01 309.843 241.832C309.442 241.645 309.13 241.391 308.908 241.071C308.695 240.742 308.588 240.372 308.588 239.963C308.588 239.322 308.823 238.81 309.295 238.427C309.776 238.035 310.528 237.84 311.552 237.84H313.394V237.733C313.394 237.234 313.242 236.852 312.94 236.585C312.646 236.318 312.206 236.184 311.618 236.184C311.218 236.184 310.822 236.246 310.43 236.371C310.048 236.496 309.723 236.67 309.456 236.892L308.801 235.677C309.175 235.392 309.624 235.174 310.15 235.023C310.675 234.871 311.231 234.796 311.819 234.796ZM311.592 240.884C312.01 240.884 312.379 240.79 312.7 240.603C313.029 240.408 313.261 240.131 313.394 239.776V238.948H311.672C310.711 238.948 310.23 239.264 310.23 239.896C310.23 240.198 310.35 240.438 310.59 240.617C310.831 240.795 311.165 240.884 311.592 240.884Z" fill="#8C8C8C"/>
<path d="M318.659 235.917C319.14 235.17 319.985 234.796 321.196 234.796V236.385C321.054 236.358 320.924 236.345 320.808 236.345C320.159 236.345 319.652 236.536 319.286 236.919C318.921 237.292 318.739 237.835 318.739 238.547V242.005H317.07V234.876H318.659V235.917Z" fill="#8C8C8C"/>
<path d="M237.991 235.032H228.204C227.91 235.032 227.747 235.341 227.929 235.553L232.822 241.227C232.962 241.39 233.232 241.39 233.374 241.227L238.267 235.553C238.448 235.341 238.285 235.032 237.991 235.032Z" fill="#8C8C8C"/>
<path d="M341.934 235.032H332.147C331.854 235.032 331.691 235.341 331.872 235.553L336.765 241.227C336.905 241.39 337.175 241.39 337.317 241.227L342.21 235.553C342.391 235.341 342.228 235.032 341.934 235.032Z" fill="#8C8C8C"/>
<path d="M234.185 273.366H242.463C242.536 273.366 242.596 273.277 242.596 273.166V271.767C242.596 271.657 242.536 271.567 242.463 271.567H234.185C234.112 271.567 234.052 271.657 234.052 271.767V273.166C234.052 273.277 234.112 273.366 234.185 273.366ZM234.185 283.964H242.463C242.536 283.964 242.596 283.874 242.596 283.764V282.365C242.596 282.254 242.536 282.164 242.463 282.164H234.185C234.112 282.164 234.052 282.254 234.052 282.365V283.764C234.052 283.874 234.112 283.964 234.185 283.964ZM247.269 276.865H234.185C234.112 276.865 234.052 276.956 234.052 277.065V278.465C234.052 278.575 234.112 278.666 234.185 278.666H247.269C247.342 278.666 247.402 278.575 247.402 278.465V277.065C247.402 276.956 247.342 276.865 247.269 276.865Z" fill="#8C8C8C"/>
<path fill-rule="evenodd" clip-rule="evenodd" d="M242.463 273.843H234.186C233.939 273.843 233.774 273.693 233.694 273.573C233.611 273.449 233.575 273.304 233.575 273.166V271.767C233.575 271.63 233.611 271.485 233.694 271.361C233.774 271.241 233.939 271.09 234.186 271.09H242.463C242.71 271.09 242.874 271.241 242.954 271.361C243.037 271.485 243.073 271.63 243.073 271.767V273.166C243.073 273.304 243.037 273.449 242.954 273.573C242.874 273.693 242.71 273.843 242.463 273.843ZM242.463 284.441H234.186C233.939 284.441 233.774 284.29 233.694 284.17C233.611 284.046 233.575 283.901 233.575 283.764V282.365C233.575 282.228 233.611 282.083 233.694 281.959C233.774 281.838 233.939 281.688 234.186 281.688H242.463C242.71 281.688 242.874 281.838 242.954 281.959C243.037 282.083 243.073 282.228 243.073 282.365V283.764C243.073 283.901 243.037 284.046 242.954 284.17C242.874 284.29 242.71 284.441 242.463 284.441ZM234.186 276.389H247.269C247.516 276.389 247.68 276.539 247.76 276.659C247.843 276.784 247.879 276.929 247.879 277.066V278.466C247.879 278.602 247.843 278.747 247.76 278.872C247.68 278.992 247.516 279.143 247.269 279.143H234.186C233.939 279.143 233.774 278.992 233.694 278.872C233.611 278.747 233.575 278.602 233.575 278.466V277.066C233.575 276.929 233.611 276.784 233.694 276.659C233.774 276.539 233.939 276.389 234.186 276.389ZM242.463 273.367H234.186C234.112 273.367 234.052 273.277 234.052 273.166V271.767C234.052 271.657 234.112 271.567 234.186 271.567H242.463C242.536 271.567 242.596 271.657 242.596 271.767V273.166C242.596 273.277 242.536 273.367 242.463 273.367ZM242.463 283.964H234.186C234.112 283.964 234.052 283.874 234.052 283.764V282.365C234.052 282.254 234.112 282.165 234.186 282.165H242.463C242.536 282.165 242.596 282.254 242.596 282.365V283.764C242.596 283.874 242.536 283.964 242.463 283.964ZM234.186 276.865H247.269C247.342 276.865 247.403 276.956 247.403 277.066V278.466C247.403 278.575 247.342 278.666 247.269 278.666H234.186C234.112 278.666 234.052 278.575 234.052 278.466V277.066C234.052 276.956 234.112 276.865 234.186 276.865Z" fill="#8C8C8C"/>
<path d="M336.907 271.567H328.63C328.557 271.567 328.497 271.657 328.497 271.767V273.166C328.497 273.277 328.557 273.366 328.63 273.366H336.907C336.981 273.366 337.041 273.277 337.041 273.166V271.767C337.041 271.657 336.981 271.567 336.907 271.567ZM336.907 282.164H328.63C328.557 282.164 328.497 282.254 328.497 282.365V283.764C328.497 283.874 328.557 283.964 328.63 283.964H336.907C336.981 283.964 337.041 283.874 337.041 283.764V282.365C337.041 282.254 336.981 282.164 336.907 282.164ZM336.907 276.865H323.824C323.751 276.865 323.69 276.956 323.69 277.065V278.465C323.69 278.575 323.751 278.666 323.824 278.666H336.907C336.981 278.666 337.041 278.575 337.041 278.465V277.065C337.041 276.956 336.981 276.865 336.907 276.865Z" fill="#8C8C8C"/>
<path fill-rule="evenodd" clip-rule="evenodd" d="M328.63 271.09H336.908C337.155 271.09 337.319 271.241 337.399 271.361C337.482 271.485 337.518 271.63 337.518 271.767V273.166C337.518 273.304 337.482 273.449 337.399 273.573C337.319 273.693 337.155 273.843 336.908 273.843H328.63C328.383 273.843 328.219 273.693 328.139 273.573C328.056 273.449 328.02 273.304 328.02 273.166V271.767C328.02 271.63 328.056 271.485 328.139 271.361C328.219 271.241 328.383 271.09 328.63 271.09ZM328.63 281.688H336.908C337.155 281.688 337.319 281.838 337.399 281.959C337.482 282.083 337.518 282.228 337.518 282.365V283.764C337.518 283.901 337.482 284.046 337.399 284.17C337.319 284.29 337.155 284.441 336.908 284.441H328.63C328.383 284.441 328.219 284.29 328.139 284.17C328.056 284.046 328.02 283.901 328.02 283.764V282.365C328.02 282.228 328.056 282.083 328.139 281.959C328.219 281.838 328.383 281.688 328.63 281.688ZM323.824 276.389H336.908C337.155 276.389 337.319 276.539 337.399 276.659C337.482 276.784 337.518 276.929 337.518 277.066V278.466C337.518 278.602 337.482 278.747 337.399 278.872C337.319 278.992 337.155 279.143 336.908 279.143H323.824C323.577 279.143 323.413 278.992 323.333 278.872C323.25 278.747 323.214 278.602 323.214 278.466V277.066C323.214 276.929 323.25 276.784 323.333 276.659C323.413 276.539 323.577 276.389 323.824 276.389ZM328.63 271.567H336.908C336.981 271.567 337.041 271.657 337.041 271.767V273.166C337.041 273.277 336.981 273.367 336.908 273.367H328.63C328.557 273.367 328.497 273.277 328.497 273.166V271.767C328.497 271.657 328.557 271.567 328.63 271.567ZM328.63 282.165H336.908C336.981 282.165 337.041 282.254 337.041 282.365V283.764C337.041 283.874 336.981 283.964 336.908 283.964H328.63C328.557 283.964 328.497 283.874 328.497 283.764V282.365C328.497 282.254 328.557 282.165 328.63 282.165ZM323.824 276.865H336.908C336.981 276.865 337.041 276.956 337.041 277.066V278.466C337.041 278.575 336.981 278.666 336.908 278.666H323.824C323.751 278.666 323.691 278.575 323.691 278.466V277.066C323.691 276.956 323.751 276.865 323.824 276.865Z" fill="#8C8C8C"/>
<path fill-rule="evenodd" clip-rule="evenodd" d="M111.989 263.938H65.2627C63.6826 263.938 62.4019 265.219 62.4019 266.799V289.685C62.4019 291.266 63.6826 292.546 65.2627 292.546H111.989C113.57 292.546 114.85 291.266 114.85 289.685V266.799C114.85 265.219 113.57 263.938 111.989 263.938ZM65.2627 262.984C63.1561 262.984 61.4482 264.692 61.4482 266.799V289.685C61.4482 291.792 63.1561 293.5 65.2627 293.5H111.989C114.096 293.5 115.804 291.792 115.804 289.685V266.799C115.804 264.692 114.096 262.984 111.989 262.984H65.2627Z" fill="#D9D9D9"/>
<path fill-rule="evenodd" clip-rule="evenodd" d="M204.489 304.943H65.2627C63.6826 304.943 62.4019 306.224 62.4019 307.804V330.691C62.4019 332.271 63.6826 333.552 65.2627 333.552H204.489C206.07 333.552 207.35 332.271 207.35 330.691V307.804C207.35 306.224 206.07 304.943 204.489 304.943ZM65.2627 303.99C63.1561 303.99 61.4482 305.698 61.4482 307.804V330.691C61.4482 332.797 63.1561 334.505 65.2627 334.505H204.489C206.596 334.505 208.304 332.797 208.304 330.691V307.804C208.304 305.698 206.596 303.99 204.489 303.99H65.2627Z" fill="#D9D9D9"/>
<path fill-rule="evenodd" clip-rule="evenodd" d="M204.489 263.938H155.855C154.275 263.938 152.995 265.219 152.995 266.799V289.685C152.995 291.266 154.275 292.546 155.855 292.546H204.489C206.07 292.546 207.35 291.266 207.35 289.685V266.799C207.35 265.219 206.07 263.938 204.489 263.938ZM155.855 262.984C153.749 262.984 152.041 264.692 152.041 266.799V289.685C152.041 291.792 153.749 293.5 155.855 293.5H204.489C206.596 293.5 208.304 291.792 208.304 289.685V266.799C208.304 264.692 206.596 262.984 204.489 262.984H155.855Z" fill="#D9D9D9"/>
<path d="M77.387 281.542V283.01H70.4982V281.849L74.2096 278.324C74.6279 277.924 74.9082 277.576 75.0507 277.283C75.2019 276.98 75.2776 276.682 75.2776 276.388C75.2776 275.952 75.1308 275.619 74.8371 275.387C74.5434 275.155 74.1117 275.04 73.5421 275.04C72.5897 275.04 71.8599 275.365 71.3526 276.014L70.1377 275.08C70.5025 274.591 70.9921 274.212 71.6063 273.945C72.2292 273.67 72.9235 273.531 73.6889 273.531C74.7036 273.531 75.5135 273.772 76.1187 274.252C76.7239 274.733 77.0266 275.387 77.0266 276.215C77.0266 276.722 76.9198 277.198 76.7062 277.643C76.4925 278.089 76.0831 278.596 75.4779 279.165L72.9814 281.542H77.387Z" fill="#8C8C8C"/>
<path d="M86.39 280.888H84.7345V283.01H83.0524V280.888H77.9258V279.686L82.5317 273.665H84.3874L80.0485 279.419H83.1058V277.537H84.7345V279.419H86.39V280.888Z" fill="#8C8C8C"/>
<path d="M164.442 273.665V283.01H162.706V275.12H160.73V273.665H164.442Z" fill="#8C8C8C"/>
<path d="M167.203 283.104C166.901 283.104 166.642 283.002 166.429 282.797C166.215 282.583 166.108 282.316 166.108 281.996C166.108 281.667 166.21 281.4 166.415 281.195C166.629 280.99 166.891 280.888 167.203 280.888C167.515 280.888 167.772 280.99 167.977 281.195C168.191 281.4 168.298 281.667 168.298 281.996C168.298 282.316 168.191 282.583 167.977 282.797C167.764 283.002 167.505 283.104 167.203 283.104Z" fill="#8C8C8C"/>
<path d="M173.03 283.144C172.283 283.144 171.615 282.957 171.028 282.583C170.44 282.201 169.978 281.648 169.639 280.927C169.301 280.198 169.132 279.334 169.132 278.337C169.132 277.341 169.301 276.482 169.639 275.761C169.978 275.031 170.44 274.479 171.028 274.105C171.615 273.723 172.283 273.531 173.03 273.531C173.778 273.531 174.445 273.723 175.033 274.105C175.629 274.479 176.096 275.031 176.435 275.761C176.773 276.482 176.942 277.341 176.942 278.337C176.942 279.334 176.773 280.198 176.435 280.927C176.096 281.648 175.629 282.201 175.033 282.583C174.445 282.957 173.778 283.144 173.03 283.144ZM173.03 281.635C173.698 281.635 174.223 281.359 174.606 280.807C174.998 280.255 175.193 279.432 175.193 278.337C175.193 277.243 174.998 276.42 174.606 275.868C174.223 275.315 173.698 275.04 173.03 275.04C172.371 275.04 171.847 275.315 171.455 275.868C171.072 276.42 170.881 277.243 170.881 278.337C170.881 279.432 171.072 280.255 171.455 280.807C171.847 281.359 172.371 281.635 173.03 281.635Z" fill="#8C8C8C"/>
<path d="M101.767 320.531H103.569V321.746H101.62L101.34 324.015H100.125L100.405 321.746H98.1491L97.8687 324.015H96.6538L96.9342 321.746H95.1318V320.531H97.081L97.3881 318.154H95.5858V316.939H97.5349L97.8153 314.67H99.0302L98.7498 316.939H100.993L101.273 314.67H102.488L102.208 316.939H103.997L104.01 318.154H102.061L101.767 320.531ZM100.552 320.531L100.846 318.154H98.603L98.2959 320.531H100.552Z" fill="#8C8C8C"/>
<path d="M108.668 324.149C107.92 324.149 107.253 323.962 106.665 323.588C106.078 323.206 105.615 322.654 105.277 321.933C104.938 321.203 104.77 320.339 104.77 319.343C104.77 318.346 104.938 317.487 105.277 316.766C105.615 316.037 106.078 315.484 106.665 315.111C107.253 314.728 107.92 314.537 108.668 314.537C109.416 314.537 110.083 314.728 110.67 315.111C111.266 315.484 111.734 316.037 112.072 316.766C112.411 317.487 112.58 318.346 112.58 319.343C112.58 320.339 112.411 321.203 112.072 321.933C111.734 322.654 111.266 323.206 110.67 323.588C110.083 323.962 109.416 324.149 108.668 324.149ZM108.668 322.64C109.335 322.64 109.861 322.365 110.243 321.813C110.635 321.261 110.831 320.438 110.831 319.343C110.831 318.248 110.635 317.425 110.243 316.873C109.861 316.321 109.335 316.045 108.668 316.045C108.009 316.045 107.484 316.321 107.093 316.873C106.71 317.425 106.518 318.248 106.518 319.343C106.518 320.438 106.71 321.261 107.093 321.813C107.484 322.365 108.009 322.64 108.668 322.64Z" fill="#8C8C8C"/>
<path d="M117.517 324.149C116.77 324.149 116.102 323.962 115.515 323.588C114.927 323.206 114.465 322.654 114.126 321.933C113.788 321.203 113.619 320.339 113.619 319.343C113.619 318.346 113.788 317.487 114.126 316.766C114.465 316.037 114.927 315.484 115.515 315.111C116.102 314.728 116.77 314.537 117.517 314.537C118.265 314.537 118.933 314.728 119.52 315.111C120.116 315.484 120.583 316.037 120.922 316.766C121.26 317.487 121.429 318.346 121.429 319.343C121.429 320.339 121.26 321.203 120.922 321.933C120.583 322.654 120.116 323.206 119.52 323.588C118.933 323.962 118.265 324.149 117.517 324.149ZM117.517 322.64C118.185 322.64 118.71 322.365 119.093 321.813C119.485 321.261 119.68 320.438 119.68 319.343C119.68 318.248 119.485 317.425 119.093 316.873C118.71 316.321 118.185 316.045 117.517 316.045C116.859 316.045 116.334 316.321 115.942 316.873C115.56 317.425 115.368 318.248 115.368 319.343C115.368 320.438 115.56 321.261 115.942 321.813C116.334 322.365 116.859 322.64 117.517 322.64Z" fill="#8C8C8C"/>
<path d="M126.367 324.149C125.619 324.149 124.952 323.962 124.365 323.588C123.777 323.206 123.315 322.654 122.976 321.933C122.638 321.203 122.469 320.339 122.469 319.343C122.469 318.346 122.638 317.487 122.976 316.766C123.315 316.037 123.777 315.484 124.365 315.111C124.952 314.728 125.619 314.537 126.367 314.537C127.115 314.537 127.782 314.728 128.37 315.111C128.966 315.484 129.433 316.037 129.771 316.766C130.11 317.487 130.279 318.346 130.279 319.343C130.279 320.339 130.11 321.203 129.771 321.933C129.433 322.654 128.966 323.206 128.37 323.588C127.782 323.962 127.115 324.149 126.367 324.149ZM126.367 322.64C127.035 322.64 127.56 322.365 127.942 321.813C128.334 321.261 128.53 320.438 128.53 319.343C128.53 318.248 128.334 317.425 127.942 316.873C127.56 316.321 127.035 316.045 126.367 316.045C125.708 316.045 125.184 316.321 124.792 316.873C124.409 317.425 124.218 318.248 124.218 319.343C124.218 320.438 124.409 321.261 124.792 321.813C125.184 322.365 125.708 322.64 126.367 322.64Z" fill="#8C8C8C"/>
<path d="M135.217 324.149C134.469 324.149 133.802 323.962 133.214 323.588C132.627 323.206 132.164 322.654 131.826 321.933C131.487 321.203 131.318 320.339 131.318 319.343C131.318 318.346 131.487 317.487 131.826 316.766C132.164 316.037 132.627 315.484 133.214 315.111C133.802 314.728 134.469 314.537 135.217 314.537C135.964 314.537 136.632 314.728 137.219 315.111C137.815 315.484 138.283 316.037 138.621 316.766C138.96 317.487 139.128 318.346 139.128 319.343C139.128 320.339 138.96 321.203 138.621 321.933C138.283 322.654 137.815 323.206 137.219 323.588C136.632 323.962 135.964 324.149 135.217 324.149ZM135.217 322.64C135.884 322.64 136.41 322.365 136.792 321.813C137.184 321.261 137.38 320.438 137.38 319.343C137.38 318.248 137.184 317.425 136.792 316.873C136.41 316.321 135.884 316.045 135.217 316.045C134.558 316.045 134.033 316.321 133.641 316.873C133.259 317.425 133.067 318.248 133.067 319.343C133.067 320.438 133.259 321.261 133.641 321.813C134.033 322.365 134.558 322.64 135.217 322.64Z" fill="#8C8C8C"/>
<path d="M144.066 324.149C143.319 324.149 142.651 323.962 142.064 323.588C141.476 323.206 141.014 322.654 140.675 321.933C140.337 321.203 140.168 320.339 140.168 319.343C140.168 318.346 140.337 317.487 140.675 316.766C141.014 316.037 141.476 315.484 142.064 315.111C142.651 314.728 143.319 314.537 144.066 314.537C144.814 314.537 145.481 314.728 146.069 315.111C146.665 315.484 147.132 316.037 147.471 316.766C147.809 317.487 147.978 318.346 147.978 319.343C147.978 320.339 147.809 321.203 147.471 321.933C147.132 322.654 146.665 323.206 146.069 323.588C145.481 323.962 144.814 324.149 144.066 324.149ZM144.066 322.64C144.734 322.64 145.259 322.365 145.642 321.813C146.034 321.261 146.229 320.438 146.229 319.343C146.229 318.248 146.034 317.425 145.642 316.873C145.259 316.321 144.734 316.045 144.066 316.045C143.407 316.045 142.883 316.321 142.491 316.873C142.109 317.425 141.917 318.248 141.917 319.343C141.917 320.438 142.109 321.261 142.491 321.813C142.883 322.365 143.407 322.64 144.066 322.64Z" fill="#8C8C8C"/>
<path d="M152.916 324.149C152.168 324.149 151.501 323.962 150.913 323.588C150.326 323.206 149.862 322.654 149.525 321.933C149.186 321.203 149.018 320.339 149.018 319.343C149.018 318.346 149.186 317.487 149.525 316.766C149.862 316.037 150.326 315.484 150.913 315.111C151.501 314.728 152.168 314.537 152.916 314.537C153.664 314.537 154.331 314.728 154.919 315.111C155.515 315.484 155.982 316.037 156.32 316.766C156.658 317.487 156.828 318.346 156.828 319.343C156.828 320.339 156.658 321.203 156.32 321.933C155.982 322.654 155.515 323.206 154.919 323.588C154.331 323.962 153.664 324.149 152.916 324.149ZM152.916 322.64C153.583 322.64 154.108 322.365 154.491 321.813C154.882 321.261 155.079 320.438 155.079 319.343C155.079 318.248 154.882 317.425 154.491 316.873C154.108 316.321 153.583 316.045 152.916 316.045C152.257 316.045 151.732 316.321 151.341 316.873C150.957 317.425 150.766 318.248 150.766 319.343C150.766 320.438 150.957 321.261 151.341 321.813C151.732 322.365 152.257 322.64 152.916 322.64Z" fill="#8C8C8C"/>
<path d="M49.0214 324.527C49.8353 324.527 50.5001 323.853 50.5001 323.028C50.5001 322.032 49.0214 320.406 49.0214 320.406C49.0214 320.406 47.5425 322.032 47.5425 323.028C47.5425 323.853 48.2074 324.527 49.0214 324.527ZM41.9978 323.706C42.13 323.838 42.3442 323.838 42.4746 323.706L47.2445 318.938C47.3767 318.806 47.3767 318.592 47.2445 318.462L42.4765 313.693C42.4652 313.682 42.4522 313.671 42.4392 313.662L40.9827 312.205C40.951 312.173 40.9082 312.156 40.8635 312.156C40.8189 312.156 40.7761 312.173 40.7443 312.205L39.8503 313.099C39.8189 313.131 39.8014 313.174 39.8014 313.219C39.8014 313.263 39.8189 313.305 39.8503 313.338L41.1019 314.589L37.2316 318.462C37.0993 318.593 37.0993 318.808 37.2316 318.938L41.9978 323.706ZM42.2381 315.351L45.5701 318.683H38.9079L42.2381 315.351ZM51.5841 325.863H36.9821C36.9 325.863 36.833 325.93 36.833 326.012V327.502C36.833 327.584 36.9 327.651 36.9821 327.651H51.5841C51.6661 327.651 51.7331 327.584 51.7331 327.502V326.012C51.7331 325.93 51.6661 325.863 51.5841 325.863Z" fill="#D9D9D9"/>
<path d="M51.8823 276.454H46.2202C46.1383 276.454 46.0712 276.521 46.0712 276.603V278.689C46.0712 278.771 46.1383 278.838 46.2202 278.838H47.1143C47.1962 278.838 47.2632 278.771 47.2632 278.689V277.646H48.3808V283.606H47.524C47.442 283.606 47.375 283.673 47.375 283.755V284.649C47.375 284.731 47.442 284.798 47.524 284.798H50.5786C50.6605 284.798 50.7275 284.731 50.7275 284.649V283.755C50.7275 283.673 50.6605 283.606 50.5786 283.606H49.7217V277.646H50.8393V278.689C50.8393 278.771 50.9063 278.838 50.9882 278.838H51.8823C51.9642 278.838 52.0313 278.771 52.0313 278.689V276.603C52.0313 276.521 51.9642 276.454 51.8823 276.454ZM46.9652 274.219V271.835C46.9652 271.753 46.8982 271.686 46.8162 271.686H36.6841C36.6022 271.686 36.5352 271.753 36.5352 271.835V274.219C36.5352 274.301 36.6022 274.369 36.6841 274.369H37.7272C37.8091 274.369 37.8761 274.301 37.8761 274.219V273.027H41.0052V283.457H39.2917C39.2097 283.457 39.1427 283.524 39.1427 283.606V284.649C39.1427 284.731 39.2097 284.798 39.2917 284.798H44.2087C44.2907 284.798 44.3577 284.731 44.3577 284.649V283.606C44.3577 283.524 44.2907 283.457 44.2087 283.457H42.4952V273.027H45.6242V274.219C45.6242 274.301 45.6913 274.369 45.7732 274.369H46.8162C46.8982 274.369 46.9652 274.301 46.9652 274.219Z" fill="#D9D9D9"/>
<path d="M137.409 271.686H127.277C127.195 271.686 127.128 271.753 127.128 271.835V274.219C127.128 274.301 127.195 274.369 127.277 274.369H128.32C128.402 274.369 128.469 274.301 128.469 274.219V273.027H131.597V283.457H129.885C129.803 283.457 129.735 283.524 129.735 283.606V284.649C129.735 284.731 129.803 284.798 129.885 284.798H134.802C134.884 284.798 134.95 284.731 134.95 284.649V283.606C134.95 283.524 134.884 283.457 134.802 283.457H133.088V273.027H136.217V274.219C136.217 274.301 136.284 274.369 136.366 274.369H137.409C137.491 274.369 137.558 274.301 137.558 274.219V271.835C137.558 271.753 137.491 271.686 137.409 271.686ZM142.49 281.855H141.283V274.629H142.49C142.602 274.629 142.665 274.498 142.596 274.41L140.719 272.034C140.706 272.018 140.69 272.006 140.672 271.996C140.654 271.987 140.634 271.983 140.614 271.983C140.593 271.983 140.573 271.987 140.555 271.996C140.537 272.006 140.52 272.018 140.508 272.034L138.63 274.41C138.615 274.431 138.606 274.454 138.603 274.48C138.6 274.505 138.605 274.531 138.616 274.554C138.627 274.575 138.644 274.595 138.666 274.609C138.687 274.622 138.711 274.629 138.737 274.629H139.942V281.855H138.735C138.624 281.855 138.56 281.986 138.629 282.074L140.506 284.448C140.56 284.517 140.664 284.517 140.717 284.448L142.594 282.074C142.61 282.054 142.62 282.03 142.623 282.005C142.626 281.979 142.621 281.954 142.611 281.932C142.599 281.909 142.582 281.89 142.561 281.876C142.54 281.863 142.515 281.855 142.49 281.855Z" fill="#D9D9D9"/>
<path d="M70.0312 313.526C70.0312 312.472 70.8851 311.619 71.9385 311.619H83.3818C84.4351 311.619 85.289 312.472 85.289 313.526V324.969C85.289 326.023 84.4351 326.876 83.3818 326.876H71.9385C70.8851 326.876 70.0312 326.023 70.0312 324.969V313.526Z" fill="#595959"/>
<rect x="263" y="263" width="44" height="30" fill="#4062EF"/>
<path fill-rule="evenodd" clip-rule="evenodd" d="M289.291 273.753H281.013C280.766 273.753 280.602 273.602 280.522 273.482C280.439 273.358 280.403 273.213 280.403 273.076V271.677C280.403 271.54 280.439 271.395 280.522 271.271C280.602 271.151 280.766 271 281.013 271H289.291C289.538 271 289.702 271.151 289.782 271.271C289.865 271.395 289.901 271.54 289.901 271.677V273.076C289.901 273.213 289.865 273.358 289.782 273.482C289.702 273.602 289.538 273.753 289.291 273.753ZM289.782 284.08C289.702 284.2 289.538 284.35 289.291 284.35H281.013C280.766 284.35 280.602 284.2 280.522 284.08C280.439 283.956 280.403 283.811 280.403 283.673V282.274C280.403 282.137 280.439 281.992 280.522 281.868C280.602 281.748 280.766 281.597 281.013 281.597H289.291C289.538 281.597 289.702 281.748 289.782 281.868C289.865 281.992 289.901 282.137 289.901 282.274V283.673C289.901 283.811 289.865 283.956 289.782 284.08ZM278.61 276.298H291.694C291.941 276.298 292.105 276.449 292.185 276.569C292.268 276.694 292.304 276.839 292.304 276.975V278.375C292.304 278.512 292.268 278.657 292.185 278.781C292.105 278.902 291.941 279.052 291.694 279.052H278.61C278.363 279.052 278.199 278.902 278.119 278.781C278.036 278.657 278 278.512 278 278.375V276.975C278 276.839 278.036 276.694 278.119 276.569C278.199 276.449 278.363 276.298 278.61 276.298Z" fill="white"/>
<path fill-rule="evenodd" clip-rule="evenodd" d="M306 293.5V262.984H306.954V293.5H306Z" fill="#D9D9D9"/>
<path fill-rule="evenodd" clip-rule="evenodd" d="M263 293.5V262.984H263.954V293.5H263Z" fill="#D9D9D9"/>
<path fill-rule="evenodd" clip-rule="evenodd" d="M348.644 263.938H221.814C220.234 263.938 218.954 265.219 218.954 266.799V289.685C218.954 291.266 220.234 292.546 221.814 292.546H348.644C350.224 292.546 351.505 291.266 351.505 289.685V266.799C351.505 265.219 350.224 263.938 348.644 263.938ZM221.814 262.984C219.708 262.984 218 264.692 218 266.799V289.685C218 291.792 219.708 293.5 221.814 293.5H348.644C350.751 293.5 352.459 291.792 352.459 289.685V266.799C352.459 264.692 350.751 262.984 348.644 262.984H221.814Z" fill="#D9D9D9"/>
<defs>
<filter id="filter0_dd" x="3.30371" y="15.5361" width="380.438" height="365.18" filterUnits="userSpaceOnUse" color-interpolation-filters="sRGB">
<feFlood flood-opacity="0" result="BackgroundImageFix"/>
<feColorMatrix in="SourceAlpha" type="matrix" values="0 0 0 0 0 0 0 0 0 0 0 0 0 0 0 0 0 0 127 0"/>
<feOffset dy="10"/>
<feGaussianBlur stdDeviation="10"/>
<feColorMatrix type="matrix" values="0 0 0 0 0 0 0 0 0 0 0 0 0 0 0 0 0 0 0.1 0"/>
<feBlend mode="normal" in2="BackgroundImageFix" result="effect1_dropShadow"/>
<feColorMatrix in="SourceAlpha" type="matrix" values="0 0 0 0 0 0 0 0 0 0 0 0 0 0 0 0 0 0 127 0"/>
<feOffset/>
<feGaussianBlur stdDeviation="2"/>
<feColorMatrix type="matrix" values="0 0 0 0 0 0 0 0 0 0 0 0 0 0 0 0 0 0 0.1 0"/>
<feBlend mode="normal" in2="effect1_dropShadow" result="effect2_dropShadow"/>
<feBlend mode="normal" in="SourceGraphic" in2="effect2_dropShadow" result="shape"/>
</filter>
<filter id="filter1_d" x="95.2471" y="65.4409" width="207.041" height="177.994" filterUnits="userSpaceOnUse" color-interpolation-filters="sRGB">
<feFlood flood-opacity="0" result="BackgroundImageFix"/>
<feColorMatrix in="SourceAlpha" type="matrix" values="0 0 0 0 0 0 0 0 0 0 0 0 0 0 0 0 0 0 127 0"/>
<feOffset dy="16"/>
<feGaussianBlur stdDeviation="16"/>
<feColorMatrix type="matrix" values="0 0 0 0 0 0 0 0 0 0 0 0 0 0 0 0 0 0 0.1 0"/>
<feBlend mode="normal" in2="BackgroundImageFix" result="effect1_dropShadow"/>
<feBlend mode="normal" in="SourceGraphic" in2="effect1_dropShadow" result="shape"/>
</filter>
<filter id="filter2_d" x="236.163" y="127.354" width="27.2461" height="17.6938" filterUnits="userSpaceOnUse" color-interpolation-filters="sRGB">
<feFlood flood-opacity="0" result="BackgroundImageFix"/>
<feColorMatrix in="SourceAlpha" type="matrix" values="0 0 0 0 0 0 0 0 0 0 0 0 0 0 0 0 0 0 127 0"/>
<feOffset dy="1"/>
<feGaussianBlur stdDeviation="1.5"/>
<feColorMatrix type="matrix" values="0 0 0 0 0 0 0 0 0 0 0 0 0 0 0 0 0 0 0.25 0"/>
<feBlend mode="normal" in2="BackgroundImageFix" result="effect1_dropShadow"/>
<feBlend mode="normal" in="SourceGraphic" in2="effect1_dropShadow" result="shape"/>
</filter>
</defs>
</svg>
