<svg width="388" height="388" viewBox="0 0 388 388" fill="none" xmlns="http://www.w3.org/2000/svg">
<g filter="url(#filter0_dd)">
<path d="M271.969 74.0205H28.412C26.4192 74.0205 24.8037 75.636 24.8037 77.6288V188.582C24.8037 190.575 26.4192 192.191 28.412 192.191H271.969C273.961 192.191 275.577 190.575 275.577 188.582V77.6288C275.577 75.636 273.961 74.0205 271.969 74.0205Z" fill="white"/>
</g>
<path d="M47.3157 99.8284H42.9209V97.7446H54.1732V99.8284H49.7784V111.005H47.3157V99.8284Z" fill="#8C8C8C"/>
<path d="M57.6185 102.367C58.3005 101.306 59.5002 100.776 61.2177 100.776V103.03C61.0157 102.992 60.8326 102.973 60.6684 102.973C59.7465 102.973 59.0266 103.245 58.5088 103.788C57.9911 104.318 57.7322 105.089 57.7322 106.099V111.005H55.3643V100.89H57.6185V102.367Z" fill="#8C8C8C"/>
<path d="M66.846 100.776C68.3362 100.776 69.4728 101.136 70.2558 101.856C71.0514 102.563 71.4492 103.636 71.4492 105.076V111.005H69.2139V109.774C68.9234 110.216 68.5067 110.557 67.9637 110.797C67.4332 111.024 66.7892 111.138 66.0314 111.138C65.2737 111.138 64.6107 111.012 64.0424 110.759C63.4741 110.494 63.0321 110.134 62.7164 109.679C62.4133 109.212 62.2617 108.688 62.2617 108.107C62.2617 107.198 62.5964 106.471 63.2657 105.928C63.9477 105.373 65.0148 105.095 66.4671 105.095H69.0813V104.943C69.0813 104.236 68.8666 103.693 68.4372 103.314C68.0205 102.935 67.3954 102.746 66.5618 102.746C65.9935 102.746 65.4316 102.834 64.8759 103.011C64.3329 103.188 63.8719 103.434 63.493 103.75L62.5648 102.026C63.0952 101.622 63.733 101.313 64.4781 101.098C65.2232 100.883 66.0125 100.776 66.846 100.776ZM66.524 109.414C67.1175 109.414 67.6416 109.281 68.0963 109.016C68.5635 108.738 68.8919 108.347 69.0813 107.842V106.667H66.6376C65.2737 106.667 64.5917 107.116 64.5917 108.012C64.5917 108.442 64.7622 108.783 65.1032 109.035C65.4442 109.288 65.9178 109.414 66.524 109.414Z" fill="#8C8C8C"/>
<path d="M80.0386 100.776C81.3142 100.776 82.3371 101.148 83.1075 101.894C83.8778 102.639 84.263 103.744 84.263 105.209V111.005H81.8951V105.512C81.8951 104.628 81.6867 103.965 81.27 103.523C80.8532 103.068 80.2597 102.841 79.4893 102.841C78.6179 102.841 77.9296 103.106 77.4245 103.636C76.9193 104.154 76.6667 104.906 76.6667 105.891V111.005H74.2988V100.89H76.5531V102.197C76.9446 101.729 77.4371 101.376 78.0307 101.136C78.6242 100.896 79.2935 100.776 80.0386 100.776Z" fill="#8C8C8C"/>
<path d="M90.2031 111.138C89.3822 111.138 88.5802 111.031 87.7973 110.816C87.0143 110.601 86.3891 110.33 85.9219 110.001L86.8311 108.202C87.2858 108.505 87.8288 108.751 88.4603 108.94C89.1043 109.117 89.7358 109.206 90.3546 109.206C91.769 109.206 92.4763 108.833 92.4763 108.088C92.4763 107.734 92.2931 107.488 91.9269 107.349C91.5733 107.21 90.9987 107.078 90.2031 106.951C89.3696 106.825 88.6876 106.68 88.1572 106.516C87.6394 106.352 87.1848 106.067 86.7933 105.663C86.4144 105.246 86.225 104.672 86.225 103.939C86.225 102.98 86.6228 102.216 87.4184 101.647C88.2266 101.066 89.3127 100.776 90.6766 100.776C91.3712 100.776 92.0658 100.858 92.7604 101.022C93.455 101.174 94.0233 101.382 94.4653 101.647L93.556 103.447C92.6973 102.942 91.7312 102.689 90.6577 102.689C89.9631 102.689 89.4327 102.796 89.0665 103.011C88.7129 103.213 88.536 103.485 88.536 103.826C88.536 104.205 88.7255 104.476 89.1044 104.64C89.4958 104.792 90.0957 104.937 90.904 105.076C91.7122 105.202 92.3752 105.348 92.893 105.512C93.4108 105.676 93.8528 105.954 94.219 106.345C94.5979 106.737 94.7873 107.292 94.7873 108.012C94.7873 108.959 94.3769 109.717 93.556 110.285C92.7351 110.854 91.6175 111.138 90.2031 111.138Z" fill="#8C8C8C"/>
<path d="M101.278 111.138C100.23 111.138 99.2893 110.917 98.4558 110.475C97.6223 110.033 96.9719 109.42 96.5046 108.637C96.0373 107.842 95.8037 106.945 95.8037 105.947C95.8037 104.95 96.0373 104.059 96.5046 103.276C96.9719 102.493 97.616 101.881 98.4368 101.439C99.2703 100.997 100.217 100.776 101.278 100.776C102.276 100.776 103.147 100.978 103.892 101.382C104.65 101.786 105.219 102.367 105.597 103.125L103.779 104.186C103.488 103.718 103.122 103.371 102.68 103.144C102.251 102.904 101.777 102.784 101.259 102.784C100.375 102.784 99.6429 103.074 99.062 103.655C98.481 104.224 98.1906 104.988 98.1906 105.947C98.1906 106.907 98.4747 107.678 99.043 108.258C99.6239 108.827 100.363 109.111 101.259 109.111C101.777 109.111 102.251 108.997 102.68 108.77C103.122 108.53 103.488 108.176 103.779 107.709L105.597 108.77C105.206 109.528 104.631 110.115 103.874 110.532C103.128 110.936 102.263 111.138 101.278 111.138Z" fill="#8C8C8C"/>
<path d="M109.709 102.367C110.391 101.306 111.591 100.776 113.308 100.776V103.03C113.106 102.992 112.923 102.973 112.759 102.973C111.837 102.973 111.117 103.245 110.6 103.788C110.082 104.318 109.823 105.089 109.823 106.099V111.005H107.455V100.89H109.709V102.367Z" fill="#8C8C8C"/>
<path d="M115.128 100.889H117.496V111.005H115.128V100.889ZM116.321 99.2224C115.892 99.2224 115.532 99.0898 115.241 98.8245C114.951 98.5467 114.806 98.2057 114.806 97.8016C114.806 97.3975 114.951 97.0628 115.241 96.7976C115.532 96.5198 115.892 96.3809 116.321 96.3809C116.751 96.3809 117.11 96.5135 117.401 96.7787C117.691 97.0312 117.837 97.3533 117.837 97.7448C117.837 98.1615 117.691 98.5151 117.401 98.8056C117.123 99.0834 116.763 99.2224 116.321 99.2224Z" fill="#8C8C8C"/>
<path d="M126.021 100.776C127.006 100.776 127.884 100.991 128.654 101.42C129.437 101.849 130.05 102.456 130.492 103.239C130.934 104.021 131.155 104.924 131.155 105.947C131.155 106.97 130.934 107.88 130.492 108.675C130.05 109.458 129.437 110.064 128.654 110.494C127.884 110.923 127.006 111.138 126.021 111.138C124.657 111.138 123.578 110.683 122.782 109.774V114.68H120.414V100.89H122.668V102.216C123.06 101.736 123.54 101.376 124.108 101.136C124.689 100.896 125.327 100.776 126.021 100.776ZM125.756 109.111C126.627 109.111 127.341 108.82 127.897 108.24C128.465 107.659 128.749 106.895 128.749 105.947C128.749 105 128.465 104.236 127.897 103.655C127.341 103.074 126.627 102.784 125.756 102.784C125.188 102.784 124.676 102.916 124.222 103.182C123.767 103.434 123.407 103.8 123.142 104.28C122.877 104.76 122.744 105.316 122.744 105.947C122.744 106.579 122.877 107.135 123.142 107.614C123.407 108.094 123.767 108.467 124.222 108.732C124.676 108.985 125.188 109.111 125.756 109.111Z" fill="#8C8C8C"/>
<path d="M139.292 110.456C139.014 110.683 138.673 110.854 138.269 110.967C137.878 111.081 137.461 111.138 137.019 111.138C135.907 111.138 135.049 110.847 134.443 110.267C133.836 109.686 133.533 108.839 133.533 107.728V102.86H131.866V100.965H133.533V98.6543H135.901V100.965H138.61V102.86H135.901V107.671C135.901 108.164 136.021 108.543 136.261 108.808C136.501 109.06 136.848 109.187 137.303 109.187C137.833 109.187 138.275 109.048 138.629 108.77L139.292 110.456Z" fill="#8C8C8C"/>
<path d="M141.051 100.889H143.418V111.005H141.051V100.889ZM142.244 99.2224C141.815 99.2224 141.455 99.0898 141.164 98.8245C140.874 98.5467 140.729 98.2057 140.729 97.8016C140.729 97.3975 140.874 97.0628 141.164 96.7976C141.455 96.5198 141.815 96.3809 142.244 96.3809C142.673 96.3809 143.033 96.5135 143.324 96.7787C143.614 97.0312 143.759 97.3533 143.759 97.7448C143.759 98.1615 143.614 98.5151 143.324 98.8056C143.046 99.0834 142.686 99.2224 142.244 99.2224Z" fill="#8C8C8C"/>
<path d="M150.883 111.138C149.86 111.138 148.938 110.917 148.117 110.475C147.296 110.033 146.652 109.42 146.185 108.637C145.73 107.842 145.503 106.945 145.503 105.947C145.503 104.95 145.73 104.059 146.185 103.276C146.652 102.493 147.296 101.881 148.117 101.439C148.938 100.997 149.86 100.776 150.883 100.776C151.918 100.776 152.847 100.997 153.667 101.439C154.488 101.881 155.126 102.493 155.581 103.276C156.048 104.059 156.282 104.95 156.282 105.947C156.282 106.945 156.048 107.842 155.581 108.637C155.126 109.42 154.488 110.033 153.667 110.475C152.847 110.917 151.918 111.138 150.883 111.138ZM150.883 109.111C151.754 109.111 152.474 108.82 153.042 108.24C153.611 107.659 153.895 106.895 153.895 105.947C153.895 105 153.611 104.236 153.042 103.655C152.474 103.074 151.754 102.784 150.883 102.784C150.011 102.784 149.292 103.074 148.723 103.655C148.168 104.236 147.89 105 147.89 105.947C147.89 106.895 148.168 107.659 148.723 108.24C149.292 108.82 150.011 109.111 150.883 109.111Z" fill="#8C8C8C"/>
<path d="M164.097 100.776C165.373 100.776 166.396 101.148 167.166 101.894C167.936 102.639 168.322 103.744 168.322 105.209V111.005H165.954V105.512C165.954 104.628 165.745 103.965 165.329 103.523C164.912 103.068 164.318 102.841 163.548 102.841C162.677 102.841 161.988 103.106 161.483 103.636C160.978 104.154 160.725 104.906 160.725 105.891V111.005H158.357V100.89H160.612V102.197C161.003 101.729 161.496 101.376 162.089 101.136C162.683 100.896 163.352 100.776 164.097 100.776Z" fill="#8C8C8C"/>
<path d="M43.486 131.895V132.983H48.7144C48.4871 135.321 46.4087 137.123 42.8203 137.984L43.3237 139.072C47.6103 138.032 50.1757 135.564 50.1757 131.895H43.486ZM52.7737 144.316H46.2139V142.433H52.7737V144.316ZM52.7737 141.394H46.2139V139.543H44.8987V145.388H54.1051V139.543H52.7737V141.394ZM56.2646 134.46H54.1051V131.018H52.7737V138.893H54.1051V135.564H56.2646V134.46Z" fill="#BFBFBF"/>
<path d="M66.0382 138.147C63.8949 137.416 62.4985 135.614 62.4985 133.681V133.113H65.7134V132.041H57.9034V133.113H61.167V133.698C61.167 135.776 59.7057 137.659 57.5137 138.423L58.2119 139.478C59.9168 138.845 61.232 137.562 61.849 135.938C62.4822 137.432 63.7325 138.617 65.3562 139.186L66.0382 138.147ZM59.3972 141.654H67.5482V145.599H68.8796V140.582H59.3972V141.654ZM71.0392 134.85H68.8796V131.035H67.5482V139.803H68.8796V135.955H71.0392V134.85Z" fill="#BFBFBF"/>
<path d="M84.9038 138.341C82.3546 137.854 79.5943 135.646 79.5943 133.161V132.041H78.1979V133.161C78.1979 135.646 75.4538 137.838 72.9046 138.341L73.5054 139.445C75.6974 138.926 77.9706 137.367 78.8961 135.24C79.8216 137.383 82.0948 138.942 84.3031 139.445L84.9038 138.341ZM72.3525 142.53V143.634H85.5533V142.53H72.3525Z" fill="#BFBFBF"/>
<path d="M95.343 137.14C93.1835 137.481 91.3974 137.546 89.043 137.546V135.581H94.1577V131.619H87.6953V132.707H92.8587V134.558H87.744V138.634H88.8481C91.3487 138.634 93.1997 138.585 95.4566 138.228L95.343 137.14ZM97.811 144.3H90.959V142.514H97.811V144.3ZM97.811 141.459H90.959V139.722H89.6275V145.388H99.1262V139.722H97.811V141.459ZM97.7786 131.035V134.055H95.0832V135.126H97.7786V139.04H99.1262V131.035H97.7786Z" fill="#BFBFBF"/>
<path d="M114.193 131.035H112.91V139.429H114.193V131.035ZM110.02 136.231V139.202H111.27V131.343H110.02V135.159H107.714C108.104 134.233 108.299 133.21 108.299 132.106H102.665V133.178H106.935C106.675 135.63 105.003 137.546 102.031 138.731L102.729 139.722C104.71 138.861 106.22 137.692 107.162 136.231H110.02ZM112.342 139.933H111.043V140.874C111.043 141.995 110.361 143.489 108.981 144.349C107.633 143.553 106.967 142.19 106.967 140.874V139.933H105.685V140.874C105.685 142.303 104.58 143.878 102.746 144.544L103.411 145.518C104.792 144.999 105.782 143.976 106.318 142.807C106.74 144.024 107.601 145.096 108.997 145.648C110.361 145.08 111.238 143.943 111.676 142.758C112.163 143.992 113.17 145.015 114.615 145.518L115.264 144.544C113.429 143.911 112.342 142.384 112.342 140.874V139.933Z" fill="#BFBFBF"/>
<path d="M121.873 133.616H125.299V132.512H117.164V133.616H120.541V135.467C120.541 137.984 118.771 140.728 116.677 141.719L117.456 142.79C119.112 141.946 120.541 140.111 121.207 137.984C121.905 139.981 123.334 141.654 125.023 142.433L125.77 141.361C123.626 140.452 121.873 137.935 121.873 135.467V133.616ZM127.263 131.035V145.583H128.595V131.035H127.263Z" fill="#BFBFBF"/>
<path d="M137.441 138H133.35V133.389H137.441V138ZM138.74 132.317H132.051V139.056H138.74V132.317ZM135.022 140.679H133.691V145.258H143.401V144.17H135.022V140.679ZM142.751 135.451V131.002H141.42V141.67H142.751V136.571H144.894V135.451H142.751Z" fill="#BFBFBF"/>
<path d="M160.62 136.815H153.395V134.672H160.62V136.815ZM161.952 131.603H160.62V133.6H153.395V131.603H152.08V137.903H161.952V131.603ZM163.624 139.657H150.407V140.728H156.318V145.599H157.649V140.728H163.624V139.657Z" fill="#BFBFBF"/>
<path d="M173.463 137.578C171.58 137.919 169.988 137.984 167.196 137.984V136.019H172.262V134.964H167.196V133.08H172.521V132.009H165.864V139.055H166.968C169.956 139.055 171.628 138.99 173.609 138.633L173.463 137.578ZM167.033 141.653H175.168V145.599H176.5V140.582H167.033V141.653ZM178.659 134.883H176.5V131.018H175.168V139.835H176.5V135.987H178.659V134.883Z" fill="#BFBFBF"/>
<path d="M188.611 132.35H184.974V130.872H183.642V132.35H180.021V133.373H188.611V132.35ZM182.1 136.409C182.1 135.532 182.96 135.013 184.308 135.013C185.656 135.013 186.533 135.532 186.533 136.409C186.533 137.269 185.656 137.805 184.308 137.805C182.96 137.805 182.1 137.269 182.1 136.409ZM187.799 136.409C187.799 134.931 186.419 134.022 184.308 134.022C182.213 134.022 180.833 134.931 180.833 136.409C180.833 137.887 182.213 138.796 184.308 138.796C186.419 138.796 187.799 137.887 187.799 136.409ZM183.366 143.001H191.274V139.77H182.019V140.76H189.959V142.027H182.067V145.421H191.81V144.398H183.366V143.001ZM191.274 134.477V130.969H189.942V139.023H191.274V135.581H193.433V134.477H191.274Z" fill="#BFBFBF"/>
<path d="M202.817 136.977H200.301C200.788 135.678 200.999 134.298 200.999 132.869H195.381V133.957H199.684C199.44 137.01 197.881 139.624 194.764 141.491L195.543 142.449C197.556 141.247 198.953 139.737 199.83 138.049H202.817V144.852H204.084V131.408H202.817V136.977ZM205.854 131.018V145.583H207.12V131.018H205.854Z" fill="#BFBFBF"/>
<path d="M210.511 144.479C210.208 144.479 209.948 144.376 209.732 144.17C209.515 143.954 209.407 143.683 209.407 143.359C209.407 143.045 209.515 142.785 209.732 142.579C209.948 142.363 210.208 142.254 210.511 142.254C210.814 142.254 211.069 142.357 211.274 142.563C211.48 142.769 211.583 143.034 211.583 143.359C211.583 143.683 211.475 143.954 211.258 144.17C211.053 144.376 210.804 144.479 210.511 144.479Z" fill="#BFBFBF"/>
<path d="M214.029 144.479C213.726 144.479 213.466 144.376 213.25 144.17C213.033 143.954 212.925 143.683 212.925 143.359C212.925 143.045 213.033 142.785 213.25 142.579C213.466 142.363 213.726 142.254 214.029 142.254C214.332 142.254 214.586 142.357 214.792 142.563C214.998 142.769 215.101 143.034 215.101 143.359C215.101 143.683 214.992 143.954 214.776 144.17C214.57 144.376 214.321 144.479 214.029 144.479Z" fill="#BFBFBF"/>
<path d="M217.545 144.479C217.241 144.479 216.982 144.376 216.765 144.17C216.549 143.954 216.44 143.683 216.44 143.359C216.44 143.045 216.549 142.785 216.765 142.579C216.982 142.363 217.241 142.254 217.545 142.254C217.848 142.254 218.102 142.357 218.308 142.563C218.513 142.769 218.616 143.034 218.616 143.359C218.616 143.683 218.508 143.954 218.291 144.17C218.086 144.376 217.837 144.479 217.545 144.479Z" fill="#BFBFBF"/>
<path d="M317.551 310.776V319.381H316.073V318.082C315.759 318.526 315.342 318.872 314.823 319.121C314.314 319.36 313.756 319.479 313.15 319.479C312.003 319.479 311.099 319.165 310.439 318.537C309.778 317.898 309.448 316.962 309.448 315.728V310.776H311.007V315.549C311.007 316.383 311.207 317.016 311.608 317.449C312.008 317.871 312.582 318.082 313.329 318.082C314.152 318.082 314.801 317.833 315.277 317.335C315.754 316.837 315.992 316.134 315.992 315.225V310.776H317.551ZM322.824 319.479C322.12 319.479 321.444 319.387 320.794 319.203C320.145 319.008 319.636 318.764 319.268 318.472L319.918 317.238C320.296 317.509 320.756 317.725 321.298 317.887C321.839 318.05 322.386 318.131 322.938 318.131C324.302 318.131 324.984 317.741 324.984 316.962C324.984 316.702 324.892 316.496 324.708 316.345C324.523 316.193 324.291 316.085 324.009 316.02C323.739 315.944 323.349 315.863 322.84 315.777C322.147 315.668 321.579 315.544 321.135 315.403C320.702 315.262 320.329 315.024 320.015 314.689C319.701 314.353 319.544 313.882 319.544 313.276C319.544 312.497 319.869 311.874 320.518 311.409C321.168 310.932 322.039 310.694 323.133 310.694C323.706 310.694 324.28 310.765 324.854 310.905C325.427 311.046 325.898 311.236 326.266 311.474L325.601 312.708C324.897 312.253 324.069 312.026 323.116 312.026C322.456 312.026 321.953 312.134 321.606 312.351C321.26 312.567 321.087 312.854 321.087 313.211C321.087 313.493 321.184 313.714 321.379 313.877C321.574 314.039 321.812 314.158 322.093 314.234C322.386 314.31 322.792 314.396 323.311 314.494C324.004 314.613 324.561 314.743 324.984 314.884C325.417 315.013 325.785 315.241 326.088 315.565C326.391 315.89 326.542 316.345 326.542 316.929C326.542 317.709 326.207 318.331 325.536 318.797C324.875 319.251 323.971 319.479 322.824 319.479ZM336.105 315.127C336.105 315.246 336.094 315.403 336.073 315.598H329.091C329.188 316.356 329.518 316.967 330.081 317.433C330.655 317.887 331.364 318.115 332.208 318.115C333.237 318.115 334.065 317.768 334.692 317.076L335.553 318.082C335.163 318.537 334.676 318.883 334.092 319.121C333.518 319.36 332.874 319.479 332.159 319.479C331.25 319.479 330.444 319.295 329.74 318.927C329.037 318.548 328.49 318.023 328.1 317.352C327.721 316.68 327.532 315.923 327.532 315.078C327.532 314.245 327.716 313.493 328.084 312.821C328.463 312.15 328.977 311.631 329.626 311.263C330.287 310.884 331.028 310.694 331.851 310.694C332.674 310.694 333.404 310.884 334.043 311.263C334.692 311.631 335.196 312.15 335.553 312.821C335.921 313.493 336.105 314.261 336.105 315.127ZM331.851 312.01C331.104 312.01 330.476 312.237 329.967 312.692C329.47 313.146 329.177 313.742 329.091 314.478H334.611C334.525 313.752 334.227 313.162 333.718 312.708C333.22 312.242 332.598 312.01 331.851 312.01Z" fill="#85A5FF"/>
<path d="M297.227 307.655C293.244 307.655 290.011 310.888 290.011 314.871C290.011 318.855 293.244 322.088 297.227 322.088C301.211 322.088 304.444 318.855 304.444 314.871C304.444 310.888 301.211 307.655 297.227 307.655ZM295.272 317.967L292.681 315.376C292.399 315.095 292.399 314.64 292.681 314.359C292.962 314.077 293.417 314.077 293.698 314.359L295.784 316.437L300.749 311.472C301.03 311.191 301.485 311.191 301.766 311.472C302.048 311.754 302.048 312.208 301.766 312.49L296.289 317.967C296.015 318.249 295.553 318.249 295.272 317.967Z" fill="#85A5FF"/>
<g filter="url(#filter1_dd)">
<path d="M333.309 179.562H83.4383C81.4455 179.562 79.8301 181.177 79.8301 183.17V292.32C79.8301 294.313 81.4455 295.928 83.4383 295.928H333.309C335.302 295.928 336.918 294.313 336.918 292.32V183.17C336.918 181.177 335.302 179.562 333.309 179.562Z" fill="white"/>
</g>
<path d="M107.35 213.478H100.72L99.4124 216.546H96.874L102.841 203.286H105.266L111.252 216.546H108.676L107.35 213.478ZM106.535 211.545L104.035 205.749L101.553 211.545H106.535Z" fill="black"/>
<path d="M122.13 206.431V216.546H119.876V215.258C119.497 215.713 119.023 216.066 118.455 216.319C117.887 216.559 117.274 216.679 116.617 216.679C115.266 216.679 114.199 216.306 113.416 215.561C112.646 214.804 112.261 213.686 112.261 212.208V206.431H114.628V211.886C114.628 212.796 114.83 213.478 115.234 213.932C115.651 214.374 116.238 214.595 116.996 214.595C117.842 214.595 118.512 214.336 119.004 213.819C119.509 213.288 119.762 212.53 119.762 211.545V206.431H122.13Z" fill="black"/>
<path d="M131.122 215.997C130.844 216.224 130.503 216.395 130.099 216.508C129.708 216.622 129.291 216.679 128.849 216.679C127.738 216.679 126.879 216.388 126.273 215.808C125.666 215.227 125.363 214.381 125.363 213.269V208.401H123.696V206.506H125.363V204.195H127.731V206.506H130.44V208.401H127.731V213.212C127.731 213.705 127.851 214.084 128.091 214.349C128.331 214.601 128.678 214.728 129.133 214.728C129.663 214.728 130.105 214.589 130.459 214.311L131.122 215.997Z" fill="black"/>
<path d="M137.095 216.679C136.072 216.679 135.15 216.458 134.329 216.016C133.508 215.574 132.864 214.961 132.397 214.178C131.942 213.383 131.715 212.486 131.715 211.488C131.715 210.491 131.942 209.6 132.397 208.817C132.864 208.034 133.508 207.422 134.329 206.98C135.15 206.538 136.072 206.317 137.095 206.317C138.13 206.317 139.059 206.538 139.879 206.98C140.7 207.422 141.338 208.034 141.793 208.817C142.26 209.6 142.494 210.491 142.494 211.488C142.494 212.486 142.26 213.383 141.793 214.178C141.338 214.961 140.7 215.574 139.879 216.016C139.059 216.458 138.13 216.679 137.095 216.679ZM137.095 214.652C137.966 214.652 138.686 214.361 139.254 213.781C139.823 213.2 140.107 212.436 140.107 211.488C140.107 210.541 139.823 209.777 139.254 209.196C138.686 208.615 137.966 208.325 137.095 208.325C136.223 208.325 135.504 208.615 134.935 209.196C134.38 209.777 134.102 210.541 134.102 211.488C134.102 212.436 134.38 213.2 134.935 213.781C135.504 214.361 136.223 214.652 137.095 214.652Z" fill="black"/>
<path d="M144.241 210.295H149.451V212.265H144.241V210.295Z" fill="black"/>
<path d="M154.104 205.37H149.709V203.286H160.961V205.37H156.566V216.546H154.104V205.37Z" fill="black"/>
<path d="M164.407 207.908C165.089 206.847 166.288 206.317 168.006 206.317V208.571C167.804 208.533 167.621 208.514 167.456 208.514C166.535 208.514 165.815 208.786 165.297 209.329C164.779 209.859 164.52 210.63 164.52 211.64V216.546H162.152V206.431H164.407V207.908Z" fill="black"/>
<path d="M173.633 206.317C175.123 206.317 176.26 206.677 177.043 207.397C177.839 208.104 178.236 209.177 178.236 210.617V216.546H176.001V215.315C175.711 215.757 175.294 216.098 174.751 216.338C174.22 216.565 173.576 216.679 172.819 216.679C172.061 216.679 171.398 216.553 170.829 216.3C170.261 216.035 169.819 215.675 169.503 215.22C169.2 214.753 169.049 214.229 169.049 213.648C169.049 212.739 169.383 212.013 170.053 211.469C170.735 210.914 171.802 210.636 173.254 210.636H175.868V210.484C175.868 209.777 175.654 209.234 175.224 208.855C174.808 208.476 174.182 208.287 173.349 208.287C172.781 208.287 172.219 208.375 171.663 208.552C171.12 208.729 170.659 208.975 170.28 209.291L169.352 207.567C169.882 207.163 170.52 206.854 171.265 206.639C172.01 206.424 172.8 206.317 173.633 206.317ZM173.311 214.955C173.905 214.955 174.429 214.822 174.883 214.557C175.351 214.279 175.679 213.888 175.868 213.383V212.208H173.425C172.061 212.208 171.379 212.657 171.379 213.553C171.379 213.983 171.549 214.324 171.89 214.576C172.231 214.829 172.705 214.955 173.311 214.955Z" fill="black"/>
<path d="M186.826 206.317C188.101 206.317 189.124 206.689 189.895 207.435C190.665 208.18 191.05 209.285 191.05 210.75V216.546H188.682V211.053C188.682 210.169 188.474 209.506 188.057 209.064C187.64 208.609 187.047 208.382 186.276 208.382C185.405 208.382 184.717 208.647 184.212 209.177C183.706 209.695 183.454 210.447 183.454 211.432V216.546H181.086V206.431H183.34V207.738C183.732 207.27 184.224 206.917 184.818 206.677C185.411 206.437 186.081 206.317 186.826 206.317Z" fill="black"/>
<path d="M196.99 216.679C196.169 216.679 195.367 216.572 194.584 216.357C193.801 216.142 193.176 215.871 192.709 215.542L193.618 213.743C194.073 214.046 194.616 214.292 195.247 214.481C195.891 214.658 196.523 214.747 197.142 214.747C198.556 214.747 199.263 214.374 199.263 213.629C199.263 213.275 199.08 213.029 198.714 212.89C198.36 212.751 197.786 212.619 196.99 212.492C196.157 212.366 195.475 212.221 194.944 212.057C194.427 211.893 193.972 211.608 193.58 211.204C193.202 210.788 193.012 210.213 193.012 209.48C193.012 208.521 193.41 207.757 194.206 207.188C195.014 206.607 196.1 206.317 197.464 206.317C198.158 206.317 198.853 206.399 199.548 206.563C200.242 206.715 200.81 206.923 201.252 207.188L200.343 208.988C199.484 208.483 198.518 208.23 197.445 208.23C196.75 208.23 196.22 208.338 195.854 208.552C195.5 208.754 195.323 209.026 195.323 209.367C195.323 209.746 195.513 210.017 195.891 210.181C196.283 210.333 196.883 210.478 197.691 210.617C198.499 210.743 199.162 210.889 199.68 211.053C200.198 211.217 200.64 211.495 201.006 211.886C201.385 212.278 201.574 212.833 201.574 213.553C201.574 214.5 201.164 215.258 200.343 215.826C199.522 216.395 198.405 216.679 196.99 216.679Z" fill="black"/>
<path d="M203.425 202.49H205.793V216.546H203.425V202.49Z" fill="black"/>
<path d="M212.575 206.317C214.066 206.317 215.202 206.677 215.985 207.397C216.781 208.104 217.179 209.177 217.179 210.617V216.546H214.943V215.315C214.653 215.757 214.236 216.098 213.693 216.338C213.163 216.565 212.519 216.679 211.761 216.679C211.003 216.679 210.34 216.553 209.772 216.3C209.204 216.035 208.762 215.675 208.446 215.22C208.143 214.753 207.991 214.229 207.991 213.648C207.991 212.739 208.326 212.013 208.995 211.469C209.677 210.914 210.744 210.636 212.197 210.636H214.811V210.484C214.811 209.777 214.596 209.234 214.167 208.855C213.75 208.476 213.125 208.287 212.291 208.287C211.723 208.287 211.161 208.375 210.605 208.552C210.062 208.729 209.601 208.975 209.223 209.291L208.294 207.567C208.825 207.163 209.462 206.854 210.208 206.639C210.953 206.424 211.742 206.317 212.575 206.317ZM212.253 214.955C212.847 214.955 213.371 214.822 213.826 214.557C214.293 214.279 214.621 213.888 214.811 213.383V212.208H212.367C211.003 212.208 210.321 212.657 210.321 213.553C210.321 213.983 210.492 214.324 210.833 214.576C211.174 214.829 211.647 214.955 212.253 214.955Z" fill="black"/>
<path d="M226.109 215.997C225.832 216.224 225.491 216.395 225.086 216.508C224.695 216.622 224.278 216.679 223.836 216.679C222.725 216.679 221.866 216.388 221.26 215.808C220.654 215.227 220.351 214.381 220.351 213.269V208.401H218.684V206.506H220.351V204.195H222.719V206.506H225.427V208.401H222.719V213.212C222.719 213.705 222.838 214.084 223.078 214.349C223.318 214.601 223.666 214.728 224.12 214.728C224.651 214.728 225.093 214.589 225.446 214.311L226.109 215.997Z" fill="black"/>
<path d="M227.867 206.431H230.235V216.547H227.867V206.431ZM229.06 204.764C228.631 204.764 228.271 204.631 227.981 204.366C227.69 204.088 227.545 203.747 227.545 203.343C227.545 202.939 227.69 202.604 227.981 202.339C228.271 202.061 228.631 201.922 229.06 201.922C229.49 201.922 229.85 202.055 230.14 202.32C230.431 202.573 230.576 202.895 230.576 203.286C230.576 203.703 230.431 204.057 230.14 204.347C229.862 204.625 229.502 204.764 229.06 204.764Z" fill="black"/>
<path d="M237.7 216.679C236.677 216.679 235.755 216.458 234.934 216.016C234.114 215.574 233.47 214.961 233.002 214.178C232.548 213.383 232.32 212.486 232.32 211.488C232.32 210.491 232.548 209.6 233.002 208.817C233.47 208.034 234.114 207.422 234.934 206.98C235.755 206.538 236.677 206.317 237.7 206.317C238.736 206.317 239.664 206.538 240.485 206.98C241.306 207.422 241.943 208.034 242.398 208.817C242.865 209.6 243.099 210.491 243.099 211.488C243.099 212.486 242.865 213.383 242.398 214.178C241.943 214.961 241.306 215.574 240.485 216.016C239.664 216.458 238.736 216.679 237.7 216.679ZM237.7 214.652C238.572 214.652 239.291 214.361 239.86 213.781C240.428 213.2 240.712 212.436 240.712 211.488C240.712 210.541 240.428 209.777 239.86 209.196C239.291 208.615 238.572 208.325 237.7 208.325C236.829 208.325 236.109 208.615 235.541 209.196C234.985 209.777 234.707 210.541 234.707 211.488C234.707 212.436 234.985 213.2 235.541 213.781C236.109 214.361 236.829 214.652 237.7 214.652Z" fill="black"/>
<path d="M250.914 206.317C252.189 206.317 253.212 206.689 253.982 207.435C254.753 208.18 255.138 209.285 255.138 210.75V216.546H252.77V211.053C252.77 210.169 252.562 209.506 252.145 209.064C251.728 208.609 251.135 208.382 250.364 208.382C249.493 208.382 248.805 208.647 248.299 209.177C247.794 209.695 247.542 210.447 247.542 211.432V216.546H245.174V206.431H247.428V207.738C247.82 207.27 248.312 206.917 248.906 206.677C249.499 206.437 250.169 206.317 250.914 206.317Z" fill="black"/>
<path d="M98.6738 238.557H100.298V249.923H98.6738V238.557Z" fill="#8C8C8C"/>
<path d="M110.854 245.912L109.068 247.568V249.922H107.509V237.875H109.068V245.603L113.76 241.317H115.644L112.023 244.873L116.001 249.922H114.085L110.854 245.912Z" fill="#8C8C8C"/>
<path d="M121.836 241.236C122.93 241.236 123.796 241.555 124.434 242.194C125.084 242.822 125.408 243.747 125.408 244.97V249.923H123.85V245.149C123.85 244.315 123.649 243.688 123.249 243.265C122.848 242.843 122.275 242.632 121.528 242.632C120.683 242.632 120.018 242.881 119.531 243.379C119.044 243.866 118.8 244.57 118.8 245.49V249.923H117.241V241.317H118.735V242.616C119.049 242.172 119.471 241.831 120.002 241.593C120.543 241.355 121.154 241.236 121.836 241.236Z" fill="#8C8C8C"/>
<path d="M131.864 250.02C131.009 250.02 130.241 249.831 129.559 249.452C128.877 249.073 128.341 248.553 127.951 247.893C127.572 247.222 127.383 246.464 127.383 245.62C127.383 244.776 127.572 244.023 127.951 243.363C128.341 242.692 128.877 242.172 129.559 241.804C130.241 241.425 131.009 241.236 131.864 241.236C132.719 241.236 133.483 241.425 134.154 241.804C134.836 242.172 135.366 242.692 135.745 243.363C136.135 244.023 136.329 244.776 136.329 245.62C136.329 246.464 136.135 247.222 135.745 247.893C135.366 248.553 134.836 249.073 134.154 249.452C133.483 249.831 132.719 250.02 131.864 250.02ZM131.864 248.656C132.416 248.656 132.909 248.532 133.342 248.283C133.786 248.023 134.132 247.666 134.381 247.211C134.63 246.746 134.754 246.215 134.754 245.62C134.754 245.024 134.63 244.499 134.381 244.045C134.132 243.579 133.786 243.222 133.342 242.973C132.909 242.724 132.416 242.6 131.864 242.6C131.312 242.6 130.814 242.724 130.37 242.973C129.937 243.222 129.591 243.579 129.331 244.045C129.082 244.499 128.958 245.024 128.958 245.62C128.958 246.215 129.082 246.746 129.331 247.211C129.591 247.666 129.937 248.023 130.37 248.283C130.814 248.532 131.312 248.656 131.864 248.656Z" fill="#8C8C8C"/>
<path d="M151.107 241.317L147.892 249.923H146.399L143.914 243.395L141.398 249.923H139.904L136.705 241.317H138.183L140.683 248.169L143.281 241.317H144.596L147.146 248.201L149.711 241.317H151.107Z" fill="#8C8C8C"/>
<path d="M156.724 241.317H158.283V249.923H156.724V241.317ZM157.504 239.661C157.201 239.661 156.946 239.564 156.741 239.369C156.546 239.174 156.448 238.936 156.448 238.654C156.448 238.373 156.546 238.135 156.741 237.94C156.946 237.734 157.201 237.631 157.504 237.631C157.807 237.631 158.056 237.729 158.251 237.924C158.456 238.108 158.559 238.34 158.559 238.622C158.559 238.914 158.456 239.163 158.251 239.369C158.056 239.564 157.807 239.661 157.504 239.661Z" fill="#8C8C8C"/>
<path d="M165.935 249.419C165.708 249.614 165.426 249.766 165.091 249.874C164.755 249.971 164.409 250.02 164.051 250.02C163.185 250.02 162.514 249.787 162.038 249.322C161.562 248.857 161.324 248.191 161.324 247.325V242.6H159.862V241.317H161.324V239.434H162.882V241.317H165.35V242.6H162.882V247.26C162.882 247.725 162.996 248.083 163.223 248.332C163.462 248.58 163.797 248.705 164.23 248.705C164.706 248.705 165.112 248.57 165.448 248.299L165.935 249.419Z" fill="#8C8C8C"/>
<path d="M167.203 238.557H168.567L168.453 242.941H167.301L167.203 238.557Z" fill="#8C8C8C"/>
<path d="M173.372 250.02C172.669 250.02 171.992 249.928 171.343 249.744C170.693 249.549 170.184 249.306 169.816 249.013L170.466 247.779C170.845 248.05 171.305 248.266 171.846 248.429C172.387 248.591 172.934 248.672 173.486 248.672C174.85 248.672 175.532 248.283 175.532 247.503C175.532 247.244 175.44 247.038 175.256 246.886C175.072 246.735 174.839 246.627 174.558 246.562C174.287 246.486 173.897 246.405 173.389 246.318C172.696 246.21 172.127 246.085 171.684 245.945C171.251 245.804 170.877 245.566 170.563 245.23C170.249 244.895 170.092 244.424 170.092 243.818C170.092 243.038 170.417 242.416 171.067 241.95C171.716 241.474 172.588 241.236 173.681 241.236C174.255 241.236 174.828 241.306 175.402 241.447C175.976 241.588 176.447 241.777 176.815 242.015L176.149 243.249C175.445 242.795 174.617 242.567 173.665 242.567C173.004 242.567 172.501 242.676 172.155 242.892C171.808 243.109 171.635 243.395 171.635 243.753C171.635 244.034 171.732 244.256 171.927 244.418C172.122 244.581 172.36 244.7 172.642 244.776C172.934 244.851 173.34 244.938 173.859 245.035C174.552 245.154 175.11 245.284 175.532 245.425C175.965 245.555 176.333 245.782 176.636 246.107C176.939 246.432 177.091 246.886 177.091 247.471C177.091 248.25 176.755 248.873 176.084 249.338C175.424 249.793 174.52 250.02 173.372 250.02Z" fill="#8C8C8C"/>
<path d="M191.193 241.317V253.073H189.635V248.624C189.277 249.078 188.839 249.425 188.32 249.663C187.811 249.901 187.248 250.02 186.631 250.02C185.797 250.02 185.05 249.836 184.39 249.468C183.73 249.1 183.21 248.586 182.831 247.926C182.463 247.254 182.279 246.486 182.279 245.62C182.279 244.754 182.463 243.991 182.831 243.33C183.21 242.67 183.73 242.156 184.39 241.788C185.05 241.42 185.797 241.236 186.631 241.236C187.269 241.236 187.854 241.36 188.384 241.609C188.915 241.847 189.353 242.205 189.7 242.681V241.317H191.193ZM186.761 248.656C187.302 248.656 187.794 248.532 188.238 248.283C188.682 248.023 189.029 247.666 189.277 247.211C189.526 246.746 189.651 246.215 189.651 245.62C189.651 245.024 189.521 244.499 189.261 244.045C189.012 243.59 188.666 243.238 188.222 242.989C187.789 242.73 187.302 242.6 186.761 242.6C186.209 242.6 185.711 242.724 185.267 242.973C184.834 243.222 184.488 243.579 184.228 244.045C183.979 244.499 183.854 245.024 183.854 245.62C183.854 246.215 183.979 246.746 184.228 247.211C184.488 247.666 184.834 248.023 185.267 248.283C185.711 248.532 186.209 248.656 186.761 248.656Z" fill="#8C8C8C"/>
<path d="M202.002 241.317V249.923H200.524V248.624C200.21 249.067 199.793 249.414 199.274 249.663C198.765 249.901 198.208 250.02 197.601 250.02C196.454 250.02 195.55 249.706 194.89 249.078C194.23 248.44 193.899 247.503 193.899 246.269V241.317H195.458V246.091C195.458 246.924 195.658 247.557 196.059 247.99C196.459 248.413 197.033 248.624 197.78 248.624C198.603 248.624 199.252 248.375 199.729 247.877C200.205 247.379 200.443 246.675 200.443 245.766V241.317H202.002Z" fill="#8C8C8C"/>
<path d="M204.807 241.317H206.366V249.923H204.807V241.317ZM205.587 239.661C205.284 239.661 205.029 239.564 204.824 239.369C204.629 239.174 204.531 238.936 204.531 238.654C204.531 238.373 204.629 238.135 204.824 237.94C205.029 237.734 205.284 237.631 205.587 237.631C205.89 237.631 206.139 237.729 206.334 237.924C206.539 238.108 206.642 238.34 206.642 238.622C206.642 238.914 206.539 239.163 206.334 239.369C206.139 239.564 205.89 239.661 205.587 239.661Z" fill="#8C8C8C"/>
<path d="M214.018 249.419C213.791 249.614 213.509 249.766 213.174 249.874C212.838 249.971 212.492 250.02 212.134 250.02C211.269 250.02 210.597 249.787 210.121 249.322C209.645 248.857 209.407 248.191 209.407 247.325V242.6H207.945V241.317H209.407V239.434H210.965V241.317H213.433V242.6H210.965V247.26C210.965 247.725 211.079 248.083 211.306 248.332C211.545 248.58 211.88 248.705 212.313 248.705C212.789 248.705 213.195 248.57 213.531 248.299L214.018 249.419Z" fill="#8C8C8C"/>
<path d="M223.232 245.669C223.232 245.788 223.222 245.945 223.2 246.139H216.218C216.315 246.897 216.646 247.509 217.208 247.974C217.782 248.429 218.491 248.656 219.335 248.656C220.364 248.656 221.192 248.31 221.82 247.617L222.68 248.624C222.291 249.078 221.804 249.425 221.219 249.663C220.645 249.901 220.001 250.02 219.287 250.02C218.377 250.02 217.571 249.836 216.867 249.468C216.164 249.089 215.617 248.564 215.227 247.893C214.849 247.222 214.659 246.464 214.659 245.62C214.659 244.786 214.843 244.034 215.211 243.363C215.59 242.692 216.104 242.172 216.754 241.804C217.414 241.425 218.156 241.236 218.978 241.236C219.801 241.236 220.532 241.425 221.17 241.804C221.82 242.172 222.323 242.692 222.68 243.363C223.048 244.034 223.232 244.803 223.232 245.669ZM218.978 242.551C218.231 242.551 217.604 242.778 217.095 243.233C216.597 243.688 216.305 244.283 216.218 245.019H221.739C221.652 244.294 221.354 243.704 220.846 243.249C220.348 242.784 219.725 242.551 218.978 242.551Z" fill="#8C8C8C"/>
<path d="M231.901 250.02C231.197 250.02 230.52 249.928 229.871 249.744C229.222 249.549 228.713 249.306 228.345 249.013L228.994 247.779C229.373 248.05 229.833 248.266 230.374 248.429C230.916 248.591 231.462 248.672 232.014 248.672C233.378 248.672 234.06 248.283 234.06 247.503C234.06 247.244 233.968 247.038 233.784 246.886C233.6 246.735 233.367 246.627 233.086 246.562C232.815 246.486 232.426 246.405 231.917 246.318C231.224 246.21 230.656 246.085 230.212 245.945C229.779 245.804 229.406 245.566 229.092 245.23C228.778 244.895 228.621 244.424 228.621 243.818C228.621 243.038 228.945 242.416 229.595 241.95C230.244 241.474 231.116 241.236 232.209 241.236C232.783 241.236 233.357 241.306 233.93 241.447C234.504 241.588 234.975 241.777 235.343 242.015L234.677 243.249C233.974 242.795 233.145 242.567 232.193 242.567C231.533 242.567 231.029 242.676 230.683 242.892C230.336 243.109 230.163 243.395 230.163 243.753C230.163 244.034 230.261 244.256 230.456 244.418C230.65 244.581 230.889 244.7 231.17 244.776C231.462 244.851 231.868 244.938 232.388 245.035C233.081 245.154 233.638 245.284 234.06 245.425C234.493 245.555 234.861 245.782 235.164 246.107C235.467 246.432 235.619 246.886 235.619 247.471C235.619 248.25 235.283 248.873 234.612 249.338C233.952 249.793 233.048 250.02 231.901 250.02Z" fill="#8C8C8C"/>
<path d="M245.426 241.317V249.923H243.948V248.624C243.634 249.067 243.217 249.414 242.698 249.663C242.189 249.901 241.631 250.02 241.025 250.02C239.878 250.02 238.974 249.706 238.314 249.078C237.653 248.44 237.323 247.503 237.323 246.269V241.317H238.882V246.091C238.882 246.924 239.082 247.557 239.483 247.99C239.883 248.413 240.457 248.624 241.204 248.624C242.027 248.624 242.676 248.375 243.152 247.877C243.629 247.379 243.867 246.675 243.867 245.766V241.317H245.426Z" fill="#8C8C8C"/>
<path d="M256.349 237.875V249.922H254.855V248.559C254.509 249.035 254.07 249.397 253.54 249.646C253.009 249.895 252.425 250.02 251.786 250.02C250.953 250.02 250.206 249.836 249.545 249.468C248.885 249.1 248.365 248.586 247.987 247.925C247.619 247.254 247.435 246.486 247.435 245.62C247.435 244.754 247.619 243.99 247.987 243.33C248.365 242.67 248.885 242.156 249.545 241.788C250.206 241.42 250.953 241.236 251.786 241.236C252.403 241.236 252.971 241.355 253.491 241.593C254.011 241.82 254.444 242.161 254.79 242.616V237.875H256.349ZM251.916 248.656C252.457 248.656 252.95 248.531 253.394 248.283C253.837 248.023 254.184 247.665 254.433 247.211C254.682 246.745 254.806 246.215 254.806 245.62C254.806 245.024 254.682 244.499 254.433 244.045C254.184 243.579 253.837 243.222 253.394 242.973C252.95 242.724 252.457 242.6 251.916 242.6C251.364 242.6 250.866 242.724 250.422 242.973C249.989 243.222 249.643 243.579 249.383 244.045C249.134 244.499 249.01 245.024 249.01 245.62C249.01 246.215 249.134 246.745 249.383 247.211C249.643 247.665 249.989 248.023 250.422 248.283C250.866 248.531 251.364 248.656 251.916 248.656Z" fill="#8C8C8C"/>
<path d="M267.255 237.875V249.922H265.761V248.559C265.415 249.035 264.976 249.397 264.446 249.646C263.916 249.895 263.331 250.02 262.692 250.02C261.859 250.02 261.112 249.836 260.452 249.468C259.791 249.1 259.272 248.586 258.893 247.925C258.525 247.254 258.341 246.486 258.341 245.62C258.341 244.754 258.525 243.99 258.893 243.33C259.272 242.67 259.791 242.156 260.452 241.788C261.112 241.42 261.859 241.236 262.692 241.236C263.309 241.236 263.878 241.355 264.397 241.593C264.917 241.82 265.35 242.161 265.696 242.616V237.875H267.255ZM262.822 248.656C263.363 248.656 263.856 248.531 264.3 248.283C264.744 248.023 265.09 247.665 265.339 247.211C265.588 246.745 265.712 246.215 265.712 245.62C265.712 245.024 265.588 244.499 265.339 244.045C265.09 243.579 264.744 243.222 264.3 242.973C263.856 242.724 263.363 242.6 262.822 242.6C262.27 242.6 261.772 242.724 261.328 242.973C260.895 243.222 260.549 243.579 260.289 244.045C260.04 244.499 259.916 245.024 259.916 245.62C259.916 246.215 260.04 246.745 260.289 247.211C260.549 247.665 260.895 248.023 261.328 248.283C261.772 248.531 262.27 248.656 262.822 248.656Z" fill="#8C8C8C"/>
<path d="M277.819 245.669C277.819 245.788 277.808 245.945 277.787 246.139H270.805C270.902 246.897 271.232 247.509 271.795 247.974C272.369 248.429 273.078 248.656 273.922 248.656C274.951 248.656 275.779 248.31 276.407 247.617L277.267 248.624C276.878 249.078 276.39 249.425 275.806 249.663C275.232 249.901 274.588 250.02 273.874 250.02C272.964 250.02 272.158 249.836 271.454 249.468C270.751 249.089 270.204 248.564 269.814 247.893C269.436 247.222 269.246 246.464 269.246 245.62C269.246 244.786 269.43 244.034 269.798 243.363C270.177 242.692 270.691 242.172 271.341 241.804C272.001 241.425 272.743 241.236 273.565 241.236C274.388 241.236 275.119 241.425 275.757 241.804C276.407 242.172 276.91 242.692 277.267 243.363C277.635 244.034 277.819 244.803 277.819 245.669ZM273.565 242.551C272.818 242.551 272.19 242.778 271.682 243.233C271.184 243.688 270.891 244.283 270.805 245.019H276.326C276.239 244.294 275.941 243.704 275.432 243.249C274.935 242.784 274.312 242.551 273.565 242.551Z" fill="#8C8C8C"/>
<path d="M284.416 241.236C285.51 241.236 286.376 241.555 287.014 242.194C287.664 242.822 287.989 243.747 287.989 244.97V249.923H286.43V245.149C286.43 244.315 286.23 243.688 285.829 243.265C285.429 242.843 284.855 242.632 284.108 242.632C283.264 242.632 282.598 242.881 282.111 243.379C281.624 243.866 281.38 244.57 281.38 245.49V249.923H279.821V241.317H281.315V242.616C281.629 242.172 282.051 241.831 282.582 241.593C283.123 241.355 283.734 241.236 284.416 241.236Z" fill="#8C8C8C"/>
<path d="M291.101 247.795C291.404 247.795 291.653 247.904 291.847 248.12C292.053 248.326 292.156 248.586 292.156 248.9C292.156 249.062 292.134 249.219 292.091 249.37C292.059 249.522 291.988 249.755 291.88 250.069L291.117 252.326H290.094L290.695 249.906C290.489 249.83 290.321 249.706 290.191 249.533C290.072 249.349 290.013 249.138 290.013 248.9C290.013 248.575 290.116 248.31 290.321 248.104C290.527 247.898 290.787 247.795 291.101 247.795Z" fill="#8C8C8C"/>
<path d="M298.799 250.02C298.496 250.02 298.237 249.917 298.02 249.711C297.804 249.495 297.695 249.224 297.695 248.9C297.695 248.586 297.804 248.326 298.02 248.12C298.237 247.904 298.496 247.795 298.799 247.795C299.103 247.795 299.357 247.898 299.563 248.104C299.768 248.31 299.871 248.575 299.871 248.9C299.871 249.224 299.763 249.495 299.546 249.711C299.341 249.917 299.092 250.02 298.799 250.02Z" fill="#8C8C8C"/>
<path d="M302.315 250.02C302.012 250.02 301.752 249.917 301.536 249.711C301.319 249.495 301.211 249.224 301.211 248.9C301.211 248.586 301.319 248.326 301.536 248.12C301.752 247.904 302.012 247.795 302.315 247.795C302.618 247.795 302.873 247.898 303.078 248.104C303.284 248.31 303.387 248.575 303.387 248.9C303.387 249.224 303.278 249.495 303.062 249.711C302.856 249.917 302.607 250.02 302.315 250.02Z" fill="#8C8C8C"/>
<path d="M305.832 250.02C305.529 250.02 305.269 249.917 305.052 249.711C304.836 249.495 304.728 249.224 304.728 248.9C304.728 248.586 304.836 248.326 305.052 248.12C305.269 247.904 305.529 247.795 305.832 247.795C306.135 247.795 306.389 247.898 306.595 248.104C306.801 248.31 306.903 248.575 306.903 248.9C306.903 249.224 306.795 249.495 306.579 249.711C306.373 249.917 306.124 250.02 305.832 250.02Z" fill="#8C8C8C"/>
<path d="M364.308 160.127H334.376L331.383 151.147H310.429C307.137 151.147 304.443 153.841 304.443 157.133V202.031C304.443 205.324 307.137 208.017 310.429 208.017H334.376L337.369 216.997H364.308C367.6 216.997 370.294 214.304 370.294 211.011V166.113C370.294 162.821 367.6 160.127 364.308 160.127Z" fill="white"/>
<path d="M363.864 160.127H333.932L330.939 151.147H309.986C306.694 151.147 304 153.841 304 157.133V202.031C304 205.324 306.694 208.017 309.986 208.017H333.932L336.925 216.997H363.864C367.157 216.997 369.851 214.304 369.851 211.011V166.113C369.851 162.821 367.157 160.127 363.864 160.127ZM340.427 179.822H351.503C350.215 183.563 348.179 187.095 345.366 190.208C344.439 189.161 343.57 188.053 342.792 186.916L340.427 179.822ZM365.361 209.515C365.361 211.161 364.014 212.508 362.368 212.508H342.911L348.898 205.024L345.785 195.746L355.064 205.024L357.818 202.271L347.94 192.543L348 192.483C351.383 188.741 353.777 184.431 355.184 179.851H360.871V175.961H347.312V172.099H343.451V175.961H339.14L335.309 164.617H362.368C364.014 164.617 365.361 165.963 365.361 167.61V209.515Z" fill="#4062EF"/>
<path d="M327.089 185.737H317.563L315.571 191.463H311.129L320.417 166.873H324.251L333.557 191.463H329.098L327.089 185.737ZM318.762 182.292H325.889L322.326 172.092L318.762 182.292Z" fill="white"/>
<path fill-rule="evenodd" clip-rule="evenodd" d="M34.7865 205.19C34.7468 204.471 34.7266 203.745 34.7266 203.016H36.5307C36.5307 203.712 36.5499 204.404 36.588 205.091L34.7865 205.19ZM36.2335 213.757C35.8354 212.374 35.5123 210.957 35.2689 209.515L37.0478 209.215C37.2798 210.59 37.5879 211.94 37.9673 213.259L36.2335 213.757ZM39.5606 221.782C38.8603 220.517 38.2285 219.209 37.6703 217.864L39.3367 217.173C39.8689 218.455 40.4712 219.703 41.1389 220.908L39.5606 221.782ZM44.5926 228.862C43.6266 227.783 42.7201 226.648 41.8785 225.463L43.349 224.418C44.1516 225.547 45.016 226.63 45.9374 227.66L44.5926 228.862ZM51.0672 234.653C49.8832 233.811 48.7485 232.905 47.6682 231.938L48.8708 230.593C49.9011 231.514 50.9833 232.38 52.1124 233.181L51.0672 234.653ZM58.6672 238.861C57.321 238.303 56.0131 237.671 54.7486 236.97L55.6227 235.392C56.8283 236.06 58.0751 236.662 59.3583 237.194L58.6672 238.861ZM67.0158 241.262C65.5731 241.019 64.1573 240.696 62.7733 240.298L63.2719 238.563C64.5911 238.943 65.9406 239.251 67.316 239.483L67.0158 241.262ZM73.5152 241.804C72.7854 241.804 72.0601 241.784 71.3399 241.744L71.4396 239.943C72.1265 239.981 72.8186 240 73.5152 240V241.804Z" fill="#85A5FF"/>
<path d="M69.7541 235.902C69.6772 235.467 70.2053 235.192 70.5172 235.504L75.097 240.084C75.2731 240.26 75.2731 240.546 75.097 240.722L70.4951 245.323C70.1852 245.633 69.6601 245.364 69.7311 244.931L70.4992 240.251C70.5075 240.201 70.5072 240.15 70.4982 240.099L69.7541 235.902Z" fill="#85A5FF"/>
<path d="M259.34 263.454H98.7729C97.7765 263.454 96.9688 264.261 96.9688 265.258V274.278C96.9688 275.275 97.7765 276.082 98.7729 276.082H259.34C260.336 276.082 261.144 275.275 261.144 274.278V265.258C261.144 264.261 260.336 263.454 259.34 263.454Z" fill="#F5F5F5"/>
<path d="M256.634 156.108H43.7475C42.7511 156.108 41.9434 156.916 41.9434 157.913V166.933C41.9434 167.93 42.7511 168.737 43.7475 168.737H256.634C257.63 168.737 258.438 167.93 258.438 166.933V157.913C258.438 156.916 257.63 156.108 256.634 156.108Z" fill="#FAFAFA"/>
<defs>
<filter id="filter0_dd" x="4.80371" y="64.0205" width="290.773" height="158.17" filterUnits="userSpaceOnUse" color-interpolation-filters="sRGB">
<feFlood flood-opacity="0" result="BackgroundImageFix"/>
<feColorMatrix in="SourceAlpha" type="matrix" values="0 0 0 0 0 0 0 0 0 0 0 0 0 0 0 0 0 0 127 0"/>
<feOffset dy="10"/>
<feGaussianBlur stdDeviation="10"/>
<feColorMatrix type="matrix" values="0 0 0 0 0 0 0 0 0 0 0 0 0 0 0 0 0 0 0.1 0"/>
<feBlend mode="normal" in2="BackgroundImageFix" result="effect1_dropShadow"/>
<feColorMatrix in="SourceAlpha" type="matrix" values="0 0 0 0 0 0 0 0 0 0 0 0 0 0 0 0 0 0 127 0"/>
<feOffset/>
<feGaussianBlur stdDeviation="2"/>
<feColorMatrix type="matrix" values="0 0 0 0 0 0 0 0 0 0 0 0 0 0 0 0 0 0 0.1 0"/>
<feBlend mode="normal" in2="effect1_dropShadow" result="effect2_dropShadow"/>
<feBlend mode="normal" in="SourceGraphic" in2="effect2_dropShadow" result="shape"/>
</filter>
<filter id="filter1_dd" x="59.8301" y="169.562" width="297.088" height="156.366" filterUnits="userSpaceOnUse" color-interpolation-filters="sRGB">
<feFlood flood-opacity="0" result="BackgroundImageFix"/>
<feColorMatrix in="SourceAlpha" type="matrix" values="0 0 0 0 0 0 0 0 0 0 0 0 0 0 0 0 0 0 127 0"/>
<feOffset dy="10"/>
<feGaussianBlur stdDeviation="10"/>
<feColorMatrix type="matrix" values="0 0 0 0 0 0 0 0 0 0 0 0 0 0 0 0 0 0 0.1 0"/>
<feBlend mode="normal" in2="BackgroundImageFix" result="effect1_dropShadow"/>
<feColorMatrix in="SourceAlpha" type="matrix" values="0 0 0 0 0 0 0 0 0 0 0 0 0 0 0 0 0 0 127 0"/>
<feOffset/>
<feGaussianBlur stdDeviation="2"/>
<feColorMatrix type="matrix" values="0 0 0 0 0 0 0 0 0 0 0 0 0 0 0 0 0 0 0.1 0"/>
<feBlend mode="normal" in2="effect1_dropShadow" result="effect2_dropShadow"/>
<feBlend mode="normal" in="SourceGraphic" in2="effect2_dropShadow" result="shape"/>
</filter>
</defs>
</svg>
