<svg width="388" height="388" viewBox="0 0 388 388" fill="none" xmlns="http://www.w3.org/2000/svg">
<g filter="url(#filter0_dd)">
<path d="M355.507 38.7886H32.4915C30.3291 38.7886 28.5762 40.5415 28.5762 42.7039V342.228C28.5762 344.39 30.3291 346.143 32.4915 346.143H355.507C357.67 346.143 359.423 344.39 359.423 342.228V42.7039C359.423 40.5415 357.67 38.7886 355.507 38.7886Z" fill="white"/>
</g>
<path d="M194 38.7886H355.508C357.67 38.7886 359.423 40.5416 359.423 42.7039V342.228C359.423 344.39 357.67 346.143 355.508 346.143H194V38.7886Z" fill="#E8E8E8"/>
<path d="M173.445 109.265H50.112C49.0308 109.265 48.1543 110.141 48.1543 111.222V121.011C48.1543 122.092 49.0308 122.968 50.112 122.968H173.445C174.526 122.968 175.403 122.092 175.403 121.011V111.222C175.403 110.141 174.526 109.265 173.445 109.265Z" fill="#F5F5F5"/>
<path d="M173.445 177.783H50.112C49.0308 177.783 48.1543 178.66 48.1543 179.741V189.529C48.1543 190.61 49.0308 191.487 50.112 191.487H173.445C174.526 191.487 175.403 190.61 175.403 189.529V179.741C175.403 178.66 174.526 177.783 173.445 177.783Z" fill="#F5F5F5"/>
<path d="M173.445 228.683H50.112C49.0308 228.683 48.1543 229.559 48.1543 230.64V240.429C48.1543 241.51 49.0308 242.386 50.112 242.386H173.445C174.526 242.386 175.403 241.51 175.403 240.429V230.64C175.403 229.559 174.526 228.683 173.445 228.683Z" fill="#F5F5F5"/>
<path d="M161.699 126.884H50.112C49.0308 126.884 48.1543 127.76 48.1543 128.841V138.63C48.1543 139.711 49.0308 140.587 50.112 140.587H161.699C162.78 140.587 163.657 139.711 163.657 138.63V128.841C163.657 127.76 162.78 126.884 161.699 126.884Z" fill="#FA541C"/>
<path d="M163.655 195.402H114.714C113.632 195.402 112.756 196.279 112.756 197.36V207.148C112.756 208.23 113.632 209.106 114.714 209.106H163.655C164.737 209.106 165.613 208.23 165.613 207.148V197.36C165.613 196.279 164.737 195.402 163.655 195.402Z" fill="#FFD8BF"/>
<path d="M173.444 246.302H131.354C130.273 246.302 129.396 247.178 129.396 248.259V258.048C129.396 259.129 130.273 260.005 131.354 260.005H173.444C174.525 260.005 175.402 259.129 175.402 258.048V248.259C175.402 247.178 174.525 246.302 173.444 246.302Z" fill="#FFD8BF"/>
<path d="M135.27 67.1748H81.4342C80.353 67.1748 79.4766 68.0513 79.4766 69.1325V78.9208C79.4766 80.002 80.353 80.8785 81.4342 80.8785H135.27C136.351 80.8785 137.228 80.002 137.228 78.9208V69.1325C137.228 68.0513 136.351 67.1748 135.27 67.1748Z" fill="#FFD8BF"/>
<path d="M141.144 300.138H50.112C49.0308 300.138 48.1543 301.014 48.1543 302.095V311.884C48.1543 312.965 49.0308 313.841 50.112 313.841H141.144C142.225 313.841 143.101 312.965 143.101 311.884V302.095C143.101 301.014 142.225 300.138 141.144 300.138Z" fill="#F5F5F5"/>
<path d="M106.884 195.402H50.112C49.0308 195.402 48.1543 196.279 48.1543 197.36V207.148C48.1543 208.23 49.0308 209.106 50.112 209.106H106.884C107.966 209.106 108.842 208.23 108.842 207.148V197.36C108.842 196.279 107.966 195.402 106.884 195.402Z" fill="#F5F5F5"/>
<path d="M123.525 246.302H50.112C49.0308 246.302 48.1543 247.178 48.1543 248.259V258.048C48.1543 259.129 49.0308 260.005 50.112 260.005H123.525C124.606 260.005 125.482 259.129 125.482 258.048V248.259C125.482 247.178 124.606 246.302 123.525 246.302Z" fill="#F5F5F5"/>
<path d="M173.445 144.502H50.112C49.0308 144.502 48.1543 145.379 48.1543 146.46V156.248C48.1543 157.33 49.0308 158.206 50.112 158.206H173.445C174.526 158.206 175.403 157.33 175.403 156.248V146.46C175.403 145.379 174.526 144.502 173.445 144.502Z" fill="#F5F5F5"/>
<path d="M169.53 263.92H50.112C49.0308 263.92 48.1543 264.797 48.1543 265.878V275.666C48.1543 276.748 49.0308 277.624 50.112 277.624H169.53C170.611 277.624 171.488 276.748 171.488 275.666V265.878C171.488 264.797 170.611 263.92 169.53 263.92Z" fill="#F5F5F5"/>
<path d="M172.466 281.54H50.112C49.0308 281.54 48.1543 282.416 48.1543 283.497V293.286C48.1543 294.367 49.0308 295.243 50.112 295.243H172.466C173.548 295.243 174.424 294.367 174.424 293.286V283.497C174.424 282.416 173.548 281.54 172.466 281.54Z" fill="#F5F5F5"/>
<path d="M288.947 206.473V203.536" stroke="black"/>
<path fill-rule="evenodd" clip-rule="evenodd" d="M286.989 271.092C317.803 271.092 342.783 251.738 342.783 227.863C342.783 203.989 317.803 184.635 286.989 184.635C256.175 184.635 231.195 203.989 231.195 227.863C231.195 242.267 240.287 255.025 254.266 262.881C254.428 262.972 254.527 263.146 254.514 263.331C254.271 266.88 252.491 270.444 247.562 272.501C247.071 272.706 247.144 273.46 247.676 273.491C253.031 273.795 262.457 273.251 271.747 269.547C271.839 269.51 271.939 269.502 272.034 269.522C276.794 270.545 281.809 271.092 286.989 271.092Z" fill="white"/>
<path d="M313.418 209.106H261.539C260.999 209.106 260.561 209.544 260.561 210.085V217.915C260.561 218.456 260.999 218.894 261.539 218.894H313.418C313.958 218.894 314.397 218.456 314.397 217.915V210.085C314.397 209.544 313.958 209.106 313.418 209.106Z" fill="#E8E8E8"/>
<path d="M318.311 222.81H257.623C257.083 222.81 256.645 223.248 256.645 223.788V231.619C256.645 232.16 257.083 232.598 257.623 232.598H318.311C318.852 232.598 319.29 232.16 319.29 231.619V223.788C319.29 223.248 318.852 222.81 318.311 222.81Z" fill="#E8E8E8"/>
<path d="M305.588 236.513H270.35C269.809 236.513 269.371 236.951 269.371 237.492V245.323C269.371 245.863 269.809 246.302 270.35 246.302H305.588C306.129 246.302 306.567 245.863 306.567 245.323V237.492C306.567 236.951 306.129 236.513 305.588 236.513Z" fill="#E8E8E8"/>
<path fill-rule="evenodd" clip-rule="evenodd" d="M246.857 200.6H328.101V254.436H246.857V200.6ZM248.815 202.557V252.478H326.143V202.557H248.815Z" fill="#FA541C"/>
<path fill-rule="evenodd" clip-rule="evenodd" d="M288.948 195.706V202.557H286.99V195.706H288.948Z" fill="#FA541C"/>
<path d="M246.857 200.6H250.773V204.515H246.857V200.6Z" fill="white"/>
<path fill-rule="evenodd" clip-rule="evenodd" d="M245.879 199.621H251.752V205.494H245.879V199.621ZM247.837 201.579V203.536H249.794V201.579H247.837Z" fill="#FA541C"/>
<path d="M246.857 250.217H250.773V254.132H246.857V250.217Z" fill="white"/>
<path fill-rule="evenodd" clip-rule="evenodd" d="M245.879 249.238H251.752V255.111H245.879V249.238ZM247.837 251.196V253.154H249.794V251.196H247.837Z" fill="#FA541C"/>
<path d="M324.186 200.6H328.101V204.515H324.186V200.6Z" fill="white"/>
<path fill-rule="evenodd" clip-rule="evenodd" d="M323.207 199.621H329.08V205.494H323.207V199.621ZM325.165 201.579V203.536H327.122V201.579H325.165Z" fill="#FA541C"/>
<path d="M324.186 250.217H328.101V254.132H324.186V250.217Z" fill="white"/>
<path fill-rule="evenodd" clip-rule="evenodd" d="M323.207 249.238H329.08V255.111H323.207V249.238ZM325.165 251.196V253.154H327.122V251.196H325.165Z" fill="#FA541C"/>
<path d="M290.904 194.423C290.904 196.045 289.59 197.36 287.968 197.36C286.346 197.36 285.031 196.045 285.031 194.423C285.031 192.801 286.346 191.487 287.968 191.487C289.59 191.487 290.904 192.801 290.904 194.423Z" fill="white"/>
<path fill-rule="evenodd" clip-rule="evenodd" d="M287.968 192.465C286.886 192.465 286.01 193.342 286.01 194.423C286.01 195.505 286.886 196.381 287.968 196.381C289.05 196.381 289.926 195.505 289.926 194.423C289.926 193.342 289.05 192.465 287.968 192.465ZM284.053 194.423C284.053 192.261 285.806 190.508 287.968 190.508C290.13 190.508 291.883 192.261 291.883 194.423C291.883 196.585 290.13 198.339 287.968 198.339C285.806 198.339 284.053 196.585 284.053 194.423Z" fill="#FA541C"/>
<path fill-rule="evenodd" clip-rule="evenodd" d="M170.509 59.3441H52.0696C50.4478 59.3441 49.1331 60.6587 49.1331 62.2806V85.7726C49.1331 87.3945 50.4478 88.7092 52.0696 88.7092H170.509C172.131 88.7092 173.445 87.3945 173.445 85.7726V62.2806C173.445 60.6587 172.131 59.3441 170.509 59.3441ZM52.0696 58.3652C49.9073 58.3652 48.1543 60.1182 48.1543 62.2806V85.7726C48.1543 87.935 49.9073 89.688 52.0696 89.688H170.509C172.671 89.688 174.424 87.935 174.424 85.7726V62.2806C174.424 60.1182 172.671 58.3652 170.509 58.3652H52.0696Z" fill="#D9D9D9"/>
<path d="M69.896 79.2648L65.9241 75.2927C66.5405 74.496 66.8739 73.5217 66.8739 72.497C66.8739 71.2704 66.3951 70.1203 65.5295 69.253C64.6638 68.3859 63.5107 67.9087 62.2856 67.9087C61.0604 67.9087 59.9073 68.3874 59.0416 69.253C58.1744 70.1187 57.6973 71.2704 57.6973 72.497C57.6973 73.7221 58.176 74.8753 59.0416 75.7409C59.9073 76.6081 61.059 77.0853 62.2856 77.0853C63.3103 77.0853 64.283 76.7519 65.0798 76.137L69.0518 80.1074C69.0634 80.1191 69.0772 80.1283 69.0925 80.1346C69.1077 80.1409 69.124 80.1442 69.1404 80.1442C69.157 80.1442 69.1732 80.1409 69.1885 80.1346C69.2037 80.1283 69.2176 80.1191 69.2291 80.1074L69.896 79.4421C69.9077 79.4305 69.9169 79.4167 69.9232 79.4014C69.9295 79.3862 69.9328 79.3699 69.9328 79.3534C69.9328 79.337 69.9295 79.3206 69.9232 79.3054C69.9169 79.2902 69.9077 79.2764 69.896 79.2648ZM64.7082 74.9196C64.0597 75.5665 63.2002 75.9229 62.2856 75.9229C61.3709 75.9229 60.5114 75.5665 59.8629 74.9196C59.216 74.2711 58.8596 73.4116 58.8596 72.497C58.8596 71.5824 59.216 70.7213 59.8629 70.0744C60.5114 69.4275 61.3709 69.0711 62.2856 69.0711C63.2002 69.0711 64.0613 69.4259 64.7082 70.0744C65.3551 70.7228 65.7115 71.5824 65.7115 72.497C65.7115 73.4116 65.3551 74.2727 64.7082 74.9196Z" fill="#8C8C8C"/>
<g filter="url(#filter1_d)">
<path fill-rule="evenodd" clip-rule="evenodd" d="M129.396 138.629V154.305L132.553 151.241L134.76 156.468L138.288 154.965L136.233 150.002H140.742L129.396 138.629Z" fill="white"/>
</g>
<path fill-rule="evenodd" clip-rule="evenodd" d="M130.375 151.937V140.986L138.367 148.996H134.751L136.983 154.3L135.178 155.058L132.858 149.54L130.375 151.937Z" fill="black"/>
<defs>
<filter id="filter0_dd" x="8.57617" y="28.7886" width="370.847" height="347.354" filterUnits="userSpaceOnUse" color-interpolation-filters="sRGB">
<feFlood flood-opacity="0" result="BackgroundImageFix"/>
<feColorMatrix in="SourceAlpha" type="matrix" values="0 0 0 0 0 0 0 0 0 0 0 0 0 0 0 0 0 0 127 0"/>
<feOffset dy="10"/>
<feGaussianBlur stdDeviation="10"/>
<feColorMatrix type="matrix" values="0 0 0 0 0 0 0 0 0 0 0 0 0 0 0 0 0 0 0.1 0"/>
<feBlend mode="normal" in2="BackgroundImageFix" result="effect1_dropShadow"/>
<feColorMatrix in="SourceAlpha" type="matrix" values="0 0 0 0 0 0 0 0 0 0 0 0 0 0 0 0 0 0 127 0"/>
<feOffset/>
<feGaussianBlur stdDeviation="2"/>
<feColorMatrix type="matrix" values="0 0 0 0 0 0 0 0 0 0 0 0 0 0 0 0 0 0 0.1 0"/>
<feBlend mode="normal" in2="effect1_dropShadow" result="effect2_dropShadow"/>
<feBlend mode="normal" in="SourceGraphic" in2="effect2_dropShadow" result="shape"/>
</filter>
<filter id="filter1_d" x="127.396" y="137.629" width="15.3457" height="21.8383" filterUnits="userSpaceOnUse" color-interpolation-filters="sRGB">
<feFlood flood-opacity="0" result="BackgroundImageFix"/>
<feColorMatrix in="SourceAlpha" type="matrix" values="0 0 0 0 0 0 0 0 0 0 0 0 0 0 0 0 0 0 127 0"/>
<feOffset dy="1"/>
<feGaussianBlur stdDeviation="1"/>
<feColorMatrix type="matrix" values="0 0 0 0 0 0 0 0 0 0 0 0 0 0 0 0 0 0 0.65 0"/>
<feBlend mode="normal" in2="BackgroundImageFix" result="effect1_dropShadow"/>
<feBlend mode="normal" in="SourceGraphic" in2="effect1_dropShadow" result="shape"/>
</filter>
</defs>
</svg>
