<svg width="388" height="388" viewBox="0 0 388 388" fill="none" xmlns="http://www.w3.org/2000/svg">
<path d="M72.1659 134.409L97.3785 159.824C98.0815 160.532 98.4798 161.489 98.4798 162.492V235.29C98.4798 237.38 96.8044 239.067 94.7307 239.067H19.7491C17.6754 239.067 16 237.38 16 235.29V137.077C16 134.988 17.6754 133.3 19.7491 133.3H69.5064C70.5023 133.3 71.463 133.701 72.1659 134.409Z" fill="#2F54EB"/>
<path d="M280.635 211.997C269.767 211.997 261.274 204.032 261.274 194.123C261.274 186.555 265.628 179.996 272.646 177.042C272.574 160.969 284.125 149.365 298.843 149.365C308.595 149.365 315.54 154.591 319.858 160.897C328.711 158.302 338.355 165.041 338.535 175.131C346.667 176.428 351.741 183.708 351.741 192.5C351.741 203.096 342.493 211.997 330.186 211.997H280.635Z" fill="#1D39C4"/>
<path fill-rule="evenodd" clip-rule="evenodd" d="M216.462 194.101H213.976V191.676H216.462V194.101ZM224.415 194.101H219.444V191.676H224.415V194.101ZM232.368 194.101H227.397V191.676H232.368V194.101ZM240.321 194.101H235.349V191.676H240.321V194.101ZM245.789 194.101H243.303V191.676H245.789V194.101Z" fill="#FA541C"/>
<path fill-rule="evenodd" clip-rule="evenodd" d="M234.747 90.9303C235.298 90.9303 235.831 90.998 236.34 91.1251L236.928 88.7714C236.228 88.5969 235.497 88.5044 234.747 88.5044H232.066V90.9303H234.747ZM223.485 90.9303H228.849V88.5044H223.485V90.9303ZM214.906 90.9303H220.268V88.5044H214.906V90.9303ZM209.007 90.9303H211.688V88.5044H209.007V90.9303ZM238.113 91.8605C239.037 92.4148 239.813 93.1904 240.367 94.1133L242.446 92.8642C241.687 91.6007 240.627 90.5399 239.363 89.7809L238.113 91.8605ZM241.102 95.8871C241.229 96.3959 241.297 96.9293 241.297 97.4801V99.9764H243.723V97.4801C243.723 96.7296 243.631 95.9988 243.456 95.2994L241.102 95.8871ZM241.297 102.972V107.964H243.723V102.972H241.297ZM241.297 110.959V115.952H243.723V110.959H241.297ZM241.297 118.947V123.939H243.723V118.947H241.297ZM241.297 126.935V131.927H243.723V126.935H241.297ZM241.297 134.923V139.915H243.723V134.923H241.297ZM241.297 142.91V147.903H243.723V142.91H241.297ZM241.297 150.898V155.89H243.723V150.898H241.297ZM241.297 158.885V163.878H243.723V158.885H241.297ZM241.297 166.873V171.866H243.723V166.873H241.297ZM241.297 174.861V179.854H243.723V174.861H241.297ZM241.297 182.849V185.345C241.297 186.096 241.389 186.827 241.564 187.525L243.917 186.938C243.791 186.43 243.723 185.896 243.723 185.345V182.849H241.297ZM242.573 189.961C243.332 191.224 244.394 192.285 245.657 193.045L246.906 190.964C245.983 190.41 245.208 189.635 244.653 188.712L242.573 189.961ZM248.092 194.054C248.791 194.228 249.522 194.321 250.273 194.321H252.718V191.895H250.273C249.722 191.895 249.188 191.827 248.68 191.7L248.092 194.054ZM279.133 194.321H281.578V191.895H279.133V194.321ZM271.306 194.321H276.198V191.895H271.306V194.321ZM263.48 194.321H268.372V191.895H263.48V194.321ZM255.654 194.321H260.545V191.895H255.654V194.321Z" fill="#FA541C"/>
<path fill-rule="evenodd" clip-rule="evenodd" d="M234.746 295.286C235.297 295.286 235.831 295.218 236.34 295.091L236.928 297.444C236.228 297.618 235.497 297.712 234.746 297.712H232.065V295.286H234.746ZM223.485 295.286H228.848V297.712H223.485V295.286ZM214.905 295.286H220.268V297.712H214.905V295.286ZM209.006 295.286H211.687V297.712H209.006V295.286ZM238.113 294.355C239.036 293.801 239.812 293.025 240.367 292.102L242.446 293.352C241.687 294.615 240.626 295.676 239.362 296.435L238.113 294.355ZM241.101 290.328C241.228 289.82 241.296 289.286 241.296 288.736V286.239H243.722V288.736C243.722 289.486 243.63 290.217 243.455 290.916L241.101 290.328ZM241.296 283.244V278.251H243.722V283.244H241.296ZM241.296 275.257V270.264H243.722V275.257H241.296ZM241.296 267.269V262.276H243.722V267.269H241.296ZM241.296 259.281V254.288H243.722V259.281H241.296ZM241.296 251.293V246.3H243.722V251.293H241.296ZM241.296 243.305V238.313H243.722V243.305H241.296ZM241.296 235.318V230.326H243.722V235.318H241.296ZM241.296 227.33V222.338H243.722V227.33H241.296ZM241.296 219.342V214.35H243.722V219.342H241.296ZM241.296 211.354V206.362H243.722V211.354H241.296ZM241.296 203.367V200.871C241.296 200.12 241.388 199.389 241.563 198.69L243.917 199.277C243.79 199.787 243.722 200.319 243.722 200.871V203.367H241.296ZM242.573 196.255C243.332 194.991 244.393 193.931 245.656 193.172L246.905 195.251C245.982 195.805 245.207 196.581 244.653 197.503L242.573 196.255ZM248.092 192.162C248.791 191.987 249.522 191.895 250.272 191.895H252.757V194.321H250.272C249.721 194.321 249.188 194.389 248.68 194.516L248.092 192.162ZM279.591 191.895H282.075V194.321H279.591V191.895ZM271.64 191.895H276.609V194.321H271.64V191.895ZM263.689 191.895H268.658V194.321H263.689V191.895ZM255.738 191.895H260.707V194.321H255.738V191.895Z" fill="#FA541C"/>
<path d="M289.098 228.033C275.947 228.033 265.67 218.409 265.67 206.434C265.67 197.289 270.939 189.363 279.43 185.792C279.344 166.371 293.322 152.348 311.133 152.348C322.934 152.348 331.338 158.662 336.565 166.283C347.276 163.148 358.948 171.291 359.165 183.484C369.006 185.052 375.147 193.848 375.147 204.473C375.147 217.276 363.956 228.033 349.062 228.033H289.098Z" fill="#85A5FF"/>
<g filter="url(#filter0_d)">
<path d="M211.194 69.7287H184.099C183.164 69.7287 182.285 69.2789 181.738 68.5198L177.824 63.0902C177.277 62.3311 176.399 61.8813 175.462 61.8813H156.287C155.205 61.8813 154.328 62.7502 154.328 63.823V111.723C154.406 111.725 154.484 111.73 154.56 111.734L165.889 81.114C166.098 80.3484 166.798 79.8181 167.598 79.8181H213.154V71.6703C213.154 70.5975 212.276 69.7287 211.194 69.7287Z" fill="#FA541C"/>
</g>
<path d="M154.328 93.9092L167.772 79.7405L154.328 113.746V93.9092Z" fill="#D4380D"/>
<path d="M206.733 114.571H156.098C154.934 114.571 154.086 113.474 154.391 112.359L165.891 81.1143C166.099 80.3497 166.799 79.8184 167.599 79.8184H218.233C219.398 79.8184 219.942 80.9215 219.942 82.0302L208.441 113.275C208.232 114.039 207.533 114.571 206.733 114.571Z" fill="#FFBB96"/>
<g filter="url(#filter1_d)">
<path d="M211.194 173.119H184.099C183.164 173.119 182.285 172.669 181.738 171.91L177.824 166.48C177.277 165.721 176.399 165.272 175.462 165.272H156.287C155.205 165.272 154.328 166.141 154.328 167.214V215.113C154.406 215.116 154.484 215.12 154.56 215.125L165.889 184.505C166.098 183.739 166.798 183.208 167.598 183.208H213.154V175.061C213.154 173.988 212.276 173.119 211.194 173.119Z" fill="#FA541C"/>
</g>
<path d="M154.328 197.3L167.772 183.131L154.328 217.136V197.3Z" fill="#D4380D"/>
<path d="M206.733 217.961H156.098C154.934 217.961 154.086 216.865 154.391 215.749L165.891 184.505C166.099 183.74 166.799 183.209 167.599 183.209H218.233C219.398 183.209 219.942 184.312 219.942 185.421L208.441 216.665C208.232 217.43 207.533 217.961 206.733 217.961Z" fill="#FFBB96"/>
<g filter="url(#filter2_d)">
<path d="M211.194 276.509H184.099C183.164 276.509 182.285 276.06 181.738 275.3L177.824 269.871C177.277 269.112 176.399 268.662 175.462 268.662H156.287C155.205 268.662 154.328 269.531 154.328 270.604V318.504C154.406 318.506 154.484 318.511 154.56 318.515L165.889 287.894C166.098 287.129 166.798 286.599 167.598 286.599H213.154V278.451C213.154 277.379 212.276 276.509 211.194 276.509Z" fill="#FA541C"/>
</g>
<path d="M154.328 300.691L167.772 286.521L154.328 320.526V300.691Z" fill="#D4380D"/>
<path d="M206.733 321.351H156.098C154.934 321.351 154.086 320.255 154.391 319.14L165.891 287.895C166.099 287.131 166.799 286.599 167.599 286.599H218.233C219.398 286.599 219.942 287.702 219.942 288.811L208.441 320.056C208.232 320.82 207.533 321.351 206.733 321.351Z" fill="#FFBB96"/>
<path fill-rule="evenodd" clip-rule="evenodd" d="M136.541 90.9303C135.99 90.9303 135.456 90.998 134.947 91.1251L134.36 88.7714C135.059 88.5969 135.79 88.5044 136.541 88.5044H139.222V90.9303H136.541ZM147.802 90.9303H142.44V88.5044H147.802V90.9303ZM156.383 90.9303H151.019V88.5044H156.383V90.9303ZM162.281 90.9303H159.6V88.5044H162.281V90.9303ZM133.174 91.8605C132.251 92.4148 131.476 93.1904 130.921 94.1133L128.841 92.8642C129.601 91.6007 130.661 90.5399 131.925 89.7809L133.174 91.8605ZM130.186 95.8871C130.059 96.3959 129.991 96.9293 129.991 97.4801V99.9764H127.565V97.4801C127.565 96.7296 127.657 95.9988 127.832 95.2994L130.186 95.8871ZM129.991 102.972V107.964H127.565V102.972H129.991ZM129.991 110.959V115.952H127.565V110.959H129.991ZM129.991 118.947V123.939H127.565V118.947H129.991ZM129.991 126.935V131.927H127.565V126.935H129.991ZM129.991 134.923V139.915H127.565V134.923H129.991ZM129.991 142.91V147.903H127.565V142.91H129.991ZM129.991 150.898V155.89H127.565V150.898H129.991ZM129.991 158.885V163.878H127.565V158.885H129.991ZM129.991 166.873V171.866H127.565V166.873H129.991ZM129.991 174.861V179.854H127.565V174.861H129.991ZM129.991 182.849V185.345C129.991 186.096 129.899 186.827 129.724 187.525L127.37 186.938C127.497 186.43 127.565 185.896 127.565 185.345V182.849H129.991ZM128.714 189.961C127.955 191.224 126.895 192.285 125.631 193.045L124.382 190.964C125.305 190.41 126.08 189.635 126.634 188.712L128.714 189.961ZM123.196 194.054C122.497 194.228 121.765 194.321 121.015 194.321H118.609V191.895H121.015C121.566 191.895 122.099 191.827 122.608 191.7L123.196 194.054ZM108.022 194.321H105.615V191.895H108.022V194.321ZM115.721 194.321H110.909V191.895H115.721V194.321Z" fill="#1D39C4"/>
<path fill-rule="evenodd" clip-rule="evenodd" d="M136.541 295.286C135.99 295.286 135.456 295.218 134.947 295.091L134.36 297.444C135.059 297.618 135.79 297.712 136.541 297.712H139.222V295.286H136.541ZM147.802 295.286H142.44V297.712H147.802V295.286ZM156.383 295.286H151.019V297.712H156.383V295.286ZM162.281 295.286H159.6V297.712H162.281V295.286ZM133.174 294.355C132.251 293.801 131.476 293.025 130.921 292.102L128.841 293.352C129.601 294.615 130.661 295.676 131.925 296.435L133.174 294.355ZM130.186 290.328C130.059 289.82 129.991 289.286 129.991 288.736V286.239H127.565V288.736C127.565 289.486 127.657 290.217 127.832 290.916L130.186 290.328ZM129.991 283.244V278.251H127.565V283.244H129.991ZM129.991 275.257V270.264H127.565V275.257H129.991ZM129.991 267.269V262.276H127.565V267.269H129.991ZM129.991 259.281V254.288H127.565V259.281H129.991ZM129.991 251.293V246.3H127.565V251.293H129.991ZM129.991 243.305V238.313H127.565V243.305H129.991ZM129.991 235.318V230.326H127.565V235.318H129.991ZM129.991 227.33V222.338H127.565V227.33H129.991ZM129.991 219.342V214.35H127.565V219.342H129.991ZM129.991 211.354V206.362H127.565V211.354H129.991ZM129.991 203.367V200.871C129.991 200.12 129.899 199.389 129.724 198.69L127.37 199.277C127.497 199.787 127.565 200.319 127.565 200.871V203.367H129.991ZM128.714 196.255C127.955 194.991 126.895 193.931 125.631 193.172L124.382 195.251C125.305 195.805 126.08 196.581 126.634 197.503L128.714 196.255ZM123.196 192.162C122.497 191.987 121.765 191.895 121.015 191.895H118.609V194.321H121.015C121.566 194.321 122.099 194.389 122.608 194.516L123.196 192.162ZM108.022 191.895H105.615V194.321H108.022V191.895ZM115.721 191.895H110.909V194.321H115.721V191.895Z" fill="#1D39C4"/>
<path d="M316.777 209.55C317.966 209.55 318.901 209.091 319.546 208.14L335.364 184.032C335.823 183.335 336.009 182.673 336.009 182.061C336.009 180.413 334.752 179.19 333.053 179.19C331.897 179.19 331.167 179.615 330.454 180.719L316.709 202.398L309.743 193.852C309.097 193.071 308.384 192.73 307.398 192.73C305.682 192.73 304.442 193.954 304.442 195.619C304.442 196.366 304.663 197.012 305.309 197.742L314.075 208.276C314.806 209.143 315.656 209.55 316.777 209.55Z" fill="#4062EF"/>
<path fill-rule="evenodd" clip-rule="evenodd" d="M130.204 194.101H127.486V191.676H130.204V194.101ZM138.902 194.101H133.467V191.676H138.902V194.101ZM147.602 194.101H142.165V191.676H147.602V194.101ZM156.301 194.102H150.864V191.677H156.301V194.102ZM162.281 194.102H159.562V191.677H162.281V194.102Z" fill="#1D39C4"/>
<path d="M79.5778 151.835L104.197 176.317C104.883 176.999 105.272 177.921 105.272 178.887V249.014C105.272 251.027 103.637 252.652 101.612 252.652H28.3942C26.3693 252.652 24.7334 251.027 24.7334 249.014V154.405C24.7334 152.392 26.3693 150.766 28.3942 150.766H76.9808C77.9532 150.766 78.8914 151.153 79.5778 151.835Z" fill="#85A5FF"/>
<path d="M53.079 183.757C55.8159 183.757 58.0326 185.944 58.0326 188.642C58.0326 191.342 55.8159 193.527 53.079 193.527C50.3422 193.527 48.1255 191.342 48.1255 188.642C48.1255 185.944 50.3422 183.757 53.079 183.757ZM89.7354 219.66H44.1626C43.3329 219.66 42.8747 218.72 43.3824 218.085L55.7416 202.552C55.8342 202.435 55.9526 202.34 56.0878 202.275C56.2231 202.21 56.3714 202.177 56.5217 202.177C56.6721 202.177 56.8205 202.21 56.9557 202.275C57.0909 202.34 57.2093 202.435 57.302 202.552L62.3918 208.951L72.0264 196.837C72.1191 196.72 72.2375 196.625 72.3727 196.56C72.5079 196.495 72.6562 196.462 72.8067 196.462C72.957 196.462 73.1054 196.495 73.2406 196.56C73.3758 196.625 73.4941 196.72 73.5868 196.837L90.4908 218.085C91.0233 218.72 90.5528 219.66 89.7354 219.66Z" fill="#4062EF"/>
<defs>
<filter id="filter0_d" x="146.328" y="57.8813" width="74.8255" height="65.853" filterUnits="userSpaceOnUse" color-interpolation-filters="sRGB">
<feFlood flood-opacity="0" result="BackgroundImageFix"/>
<feColorMatrix in="SourceAlpha" type="matrix" values="0 0 0 0 0 0 0 0 0 0 0 0 0 0 0 0 0 0 127 0"/>
<feOffset dy="4"/>
<feGaussianBlur stdDeviation="4"/>
<feColorMatrix type="matrix" values="0 0 0 0 0 0 0 0 0 0 0 0 0 0 0 0 0 0 0.1 0"/>
<feBlend mode="normal" in2="BackgroundImageFix" result="effect1_dropShadow"/>
<feBlend mode="normal" in="SourceGraphic" in2="effect1_dropShadow" result="shape"/>
</filter>
<filter id="filter1_d" x="146.328" y="161.272" width="74.8255" height="65.8527" filterUnits="userSpaceOnUse" color-interpolation-filters="sRGB">
<feFlood flood-opacity="0" result="BackgroundImageFix"/>
<feColorMatrix in="SourceAlpha" type="matrix" values="0 0 0 0 0 0 0 0 0 0 0 0 0 0 0 0 0 0 127 0"/>
<feOffset dy="4"/>
<feGaussianBlur stdDeviation="4"/>
<feColorMatrix type="matrix" values="0 0 0 0 0 0 0 0 0 0 0 0 0 0 0 0 0 0 0.1 0"/>
<feBlend mode="normal" in2="BackgroundImageFix" result="effect1_dropShadow"/>
<feBlend mode="normal" in="SourceGraphic" in2="effect1_dropShadow" result="shape"/>
</filter>
<filter id="filter2_d" x="146.328" y="264.662" width="74.8255" height="65.8527" filterUnits="userSpaceOnUse" color-interpolation-filters="sRGB">
<feFlood flood-opacity="0" result="BackgroundImageFix"/>
<feColorMatrix in="SourceAlpha" type="matrix" values="0 0 0 0 0 0 0 0 0 0 0 0 0 0 0 0 0 0 127 0"/>
<feOffset dy="4"/>
<feGaussianBlur stdDeviation="4"/>
<feColorMatrix type="matrix" values="0 0 0 0 0 0 0 0 0 0 0 0 0 0 0 0 0 0 0.1 0"/>
<feBlend mode="normal" in2="BackgroundImageFix" result="effect1_dropShadow"/>
<feBlend mode="normal" in="SourceGraphic" in2="effect1_dropShadow" result="shape"/>
</filter>
</defs>
</svg>
