<svg width="388" height="388" viewBox="0 0 388 388" fill="none" xmlns="http://www.w3.org/2000/svg">
<g filter="url(#filter0_dd)">
<path d="M357.806 36.6641H30.1938C28.0588 36.6641 26.3281 38.3948 26.3281 40.5297V352.68C26.3281 354.814 28.0588 356.545 30.1938 356.545H357.806C359.941 356.545 361.672 354.814 361.672 352.68V40.5297C361.672 38.3948 359.941 36.6641 357.806 36.6641Z" fill="white"/>
</g>
<path d="M202.218 59.0847V68.5555H200.459V60.5595H198.457V59.0847H202.218Z" fill="#FA541C"/>
<path d="M206.924 62.7513C208.259 62.7513 209.247 63.0129 209.887 63.536C210.528 64.0501 210.848 64.7537 210.848 65.6466C210.848 66.2149 210.708 66.729 210.429 67.189C210.149 67.649 209.73 68.0143 209.17 68.2849C208.611 68.5555 207.921 68.6908 207.1 68.6908C206.424 68.6908 205.77 68.5961 205.139 68.4067C204.507 68.2083 203.975 67.9377 203.542 67.5949L204.286 66.2284C204.638 66.5171 205.057 66.7471 205.544 66.9184C206.04 67.0808 206.55 67.162 207.073 67.162C207.696 67.162 208.183 67.0357 208.534 66.7831C208.895 66.5215 209.076 66.1653 209.076 65.7143C209.076 65.2272 208.881 64.8619 208.494 64.6184C208.115 64.3658 207.461 64.2395 206.532 64.2395H204.246L204.733 59.0847H210.293V60.5595H206.221L206.018 62.7513H206.924Z" fill="#FA541C"/>
<path d="M215.191 57.1635H216.707L212.242 69.9084H210.727L215.191 57.1635Z" fill="#FA541C"/>
<path d="M220.297 59.0847V68.5555H218.539V60.5595H216.536V59.0847H220.297Z" fill="#FA541C"/>
<path d="M225.004 62.7513C226.338 62.7513 227.326 63.0129 227.967 63.536C228.607 64.0501 228.927 64.7537 228.927 65.6466C228.927 66.2149 228.787 66.729 228.508 67.189C228.228 67.649 227.809 68.0143 227.249 68.2849C226.69 68.5555 226 68.6908 225.179 68.6908C224.503 68.6908 223.849 68.5961 223.218 68.4067C222.587 68.2083 222.054 67.9377 221.621 67.5949L222.365 66.2284C222.717 66.5171 223.136 66.7471 223.624 66.9184C224.119 67.0808 224.63 67.162 225.152 67.162C225.775 67.162 226.262 67.0357 226.614 66.7831C226.974 66.5215 227.155 66.1653 227.155 65.7143C227.155 65.2272 226.961 64.8619 226.573 64.6184C226.194 64.3658 225.54 64.2395 224.611 64.2395H222.325L222.812 59.0847H228.372V60.5595H224.3L224.097 62.7513H225.004Z" fill="#FA541C"/>
<path d="M233.757 68.6907C233 68.6907 232.323 68.5013 231.728 68.1225C231.133 67.7347 230.663 67.1754 230.321 66.4448C229.978 65.7052 229.807 64.8302 229.807 63.82C229.807 62.8099 229.978 61.9394 230.321 61.2088C230.663 60.4692 231.133 59.91 231.728 59.5311C232.323 59.1433 233 58.9493 233.757 58.9493C234.515 58.9493 235.191 59.1433 235.787 59.5311C236.391 59.91 236.864 60.4692 237.207 61.2088C237.55 61.9394 237.722 62.8099 237.722 63.82C237.722 64.8302 237.55 65.7052 237.207 66.4448C236.864 67.1754 236.391 67.7347 235.787 68.1225C235.191 68.5013 234.515 68.6907 233.757 68.6907ZM233.757 67.1619C234.434 67.1619 234.965 66.8823 235.354 66.323C235.75 65.7638 235.949 64.9295 235.949 63.82C235.949 62.7106 235.75 61.8763 235.354 61.317C234.965 60.7578 234.434 60.4782 233.757 60.4782C233.09 60.4782 232.557 60.7578 232.161 61.317C231.772 61.8763 231.579 62.7106 231.579 63.82C231.579 64.9295 231.772 65.7638 232.161 66.323C232.557 66.8823 233.09 67.1619 233.757 67.1619Z" fill="#FA541C"/>
<path d="M202.218 271.695V281.165H200.459V273.169H198.457V271.695H202.218Z" fill="#2F54EB"/>
<path d="M210.821 279.677V281.165H203.84V279.988L207.601 276.417C208.025 276.011 208.31 275.659 208.454 275.361C208.607 275.055 208.684 274.752 208.684 274.455C208.684 274.013 208.535 273.675 208.237 273.44C207.939 273.205 207.502 273.088 206.925 273.088C205.959 273.088 205.22 273.418 204.706 274.076L203.475 273.129C203.845 272.633 204.341 272.249 204.963 271.979C205.594 271.699 206.297 271.559 207.074 271.559C208.102 271.559 208.922 271.803 209.536 272.29C210.15 272.777 210.456 273.44 210.456 274.279C210.456 274.793 210.348 275.275 210.131 275.727C209.915 276.178 209.5 276.692 208.887 277.269L206.356 279.677H210.821Z" fill="#2F54EB"/>
<path d="M214.894 271.559C216.193 271.559 217.198 271.965 217.911 272.777C218.632 273.589 218.994 274.752 218.994 276.268C218.994 277.332 218.8 278.243 218.412 279.001C218.023 279.75 217.478 280.322 216.775 280.719C216.08 281.106 215.273 281.301 214.353 281.301C213.866 281.301 213.406 281.251 212.973 281.152C212.549 281.044 212.179 280.89 211.864 280.692L212.513 279.366C212.982 279.672 213.582 279.826 214.312 279.826C215.223 279.826 215.936 279.547 216.45 278.987C216.964 278.428 217.221 277.621 217.221 276.565V276.552C216.941 276.877 216.585 277.125 216.153 277.296C215.72 277.458 215.233 277.539 214.691 277.539C214.069 277.539 213.509 277.423 213.014 277.188C212.517 276.944 212.129 276.601 211.85 276.159C211.57 275.718 211.431 275.208 211.431 274.631C211.431 274.017 211.583 273.481 211.891 273.021C212.197 272.552 212.612 272.19 213.135 271.938C213.658 271.686 214.245 271.559 214.894 271.559ZM215.03 276.159C215.598 276.159 216.058 276.006 216.41 275.699C216.77 275.393 216.951 275.005 216.951 274.536C216.951 274.076 216.775 273.697 216.423 273.399C216.08 273.093 215.602 272.939 214.989 272.939C214.438 272.939 213.992 273.088 213.65 273.386C213.306 273.675 213.135 274.062 213.135 274.549C213.135 275.045 213.306 275.438 213.65 275.726C213.992 276.015 214.452 276.159 215.03 276.159Z" fill="#2F54EB"/>
<path d="M223.247 269.773H224.762L220.298 282.518H218.782L223.247 269.773Z" fill="#2F54EB"/>
<path d="M228.354 271.695V281.165H226.595V273.169H224.593V271.695H228.354Z" fill="#2F54EB"/>
<path d="M236.957 279.677V281.165H229.976V279.988L233.737 276.417C234.16 276.011 234.444 275.659 234.589 275.361C234.742 275.055 234.819 274.752 234.819 274.455C234.819 274.013 234.67 273.675 234.373 273.44C234.075 273.205 233.637 273.088 233.06 273.088C232.095 273.088 231.356 273.418 230.842 274.076L229.61 273.129C229.98 272.633 230.476 272.249 231.099 271.979C231.73 271.699 232.433 271.559 233.209 271.559C234.238 271.559 235.058 271.803 235.672 272.29C236.284 272.777 236.592 273.44 236.592 274.279C236.592 274.793 236.483 275.275 236.267 275.727C236.051 276.178 235.635 276.692 235.022 277.269L232.492 279.677H236.957Z" fill="#2F54EB"/>
<path d="M241.029 271.559C242.328 271.559 243.334 271.965 244.046 272.777C244.768 273.589 245.129 274.752 245.129 276.268C245.129 277.332 244.934 278.243 244.547 279.001C244.159 279.75 243.613 280.322 242.91 280.719C242.215 281.106 241.408 281.301 240.488 281.301C240.001 281.301 239.541 281.251 239.108 281.152C238.684 281.044 238.314 280.89 237.998 280.692L238.648 279.366C239.117 279.672 239.717 279.826 240.447 279.826C241.359 279.826 242.071 279.547 242.585 278.987C243.099 278.428 243.356 277.621 243.356 276.565V276.552C243.077 276.877 242.72 277.125 242.287 277.296C241.854 277.458 241.367 277.539 240.826 277.539C240.204 277.539 239.644 277.423 239.148 277.188C238.653 276.944 238.264 276.601 237.985 276.159C237.706 275.718 237.565 275.208 237.565 274.631C237.565 274.017 237.719 273.481 238.025 273.021C238.332 272.552 238.747 272.19 239.27 271.938C239.793 271.686 240.38 271.559 241.029 271.559ZM241.164 276.159C241.733 276.159 242.193 276.006 242.544 275.699C242.905 275.393 243.086 275.005 243.086 274.536C243.086 274.076 242.91 273.697 242.558 273.399C242.215 273.093 241.737 272.939 241.124 272.939C240.574 272.939 240.127 273.088 239.784 273.386C239.441 273.675 239.27 274.062 239.27 274.549C239.27 275.045 239.441 275.438 239.784 275.726C240.127 276.015 240.587 276.159 241.164 276.159Z" fill="#2F54EB"/>
<path d="M45.6562 90.5414H342.344" stroke="#E8E8E8" stroke-width="0.5"/>
<path d="M45.6562 143.694H342.344" stroke="#E8E8E8" stroke-width="0.5"/>
<path d="M45.6562 196.846H342.344" stroke="#E8E8E8" stroke-width="0.5"/>
<path d="M45.6562 249.999H342.344" stroke="#E8E8E8" stroke-width="0.5"/>
<path d="M45.6562 303.151H342.344" stroke="#E8E8E8" stroke-width="0.5"/>
<path d="M150.028 56.9586H47.5891C46.5216 56.9586 45.6562 57.824 45.6562 58.8914V68.5555C45.6562 69.623 46.5216 70.4883 47.5891 70.4883H150.028C151.096 70.4883 151.961 69.623 151.961 68.5555V58.8914C151.961 57.824 151.096 56.9586 150.028 56.9586Z" fill="#E8E8E8"/>
<path d="M150.028 110.111H47.5891C46.5216 110.111 45.6562 110.976 45.6562 112.044V121.708C45.6562 122.775 46.5216 123.641 47.5891 123.641H150.028C151.096 123.641 151.961 122.775 151.961 121.708V112.044C151.961 110.976 151.096 110.111 150.028 110.111Z" fill="#E8E8E8"/>
<path d="M150.028 163.264H47.5891C46.5216 163.264 45.6562 164.129 45.6562 165.196V174.86C45.6562 175.928 46.5216 176.793 47.5891 176.793H150.028C151.096 176.793 151.961 175.928 151.961 174.86V165.196C151.961 164.129 151.096 163.264 150.028 163.264Z" fill="#E8E8E8"/>
<path d="M150.028 216.416H47.5891C46.5216 216.416 45.6562 217.281 45.6562 218.349V228.013C45.6562 229.08 46.5216 229.946 47.5891 229.946H150.028C151.096 229.946 151.961 229.08 151.961 228.013V218.349C151.961 217.281 151.096 216.416 150.028 216.416Z" fill="#E8E8E8"/>
<path d="M150.028 269.568H47.5891C46.5216 269.568 45.6562 270.434 45.6562 271.501V281.165C45.6562 282.233 46.5216 283.098 47.5891 283.098H150.028C151.096 283.098 151.961 282.233 151.961 281.165V271.501C151.961 270.434 151.096 269.568 150.028 269.568Z" fill="#E8E8E8"/>
<path d="M150.028 322.721H47.5891C46.5216 322.721 45.6562 323.586 45.6562 324.654V334.318C45.6562 335.385 46.5216 336.251 47.5891 336.251H150.028C151.096 336.251 151.961 335.385 151.961 334.318V324.654C151.961 323.586 151.096 322.721 150.028 322.721Z" fill="#E8E8E8"/>
<path d="M254.4 110.111H200.281C199.769 110.111 199.277 110.315 198.915 110.677C198.553 111.04 198.349 111.531 198.349 112.044V121.708C198.349 122.221 198.553 122.712 198.915 123.075C199.277 123.437 199.769 123.641 200.281 123.641H254.4C254.913 123.641 255.404 123.437 255.767 123.075C256.129 122.712 256.333 122.221 256.333 121.708V112.044C256.333 111.531 256.129 111.04 255.767 110.677C255.404 110.315 254.913 110.111 254.4 110.111ZM204.63 119.292C204.153 119.292 203.685 119.15 203.288 118.885C202.891 118.619 202.582 118.242 202.398 117.801C202.215 117.359 202.168 116.873 202.261 116.405C202.353 115.936 202.584 115.505 202.922 115.168C203.26 114.83 203.69 114.6 204.159 114.506C204.627 114.413 205.113 114.461 205.555 114.644C205.997 114.827 206.374 115.136 206.639 115.534C206.904 115.931 207.046 116.398 207.046 116.876C207.046 117.193 206.983 117.507 206.863 117.801C206.741 118.094 206.563 118.36 206.339 118.584C206.115 118.809 205.848 118.987 205.555 119.108C205.261 119.229 204.947 119.292 204.63 119.292Z" fill="#597EF7"/>
<path d="M254.4 322.721H200.281C199.769 322.721 199.277 322.925 198.915 323.287C198.553 323.65 198.349 324.142 198.349 324.654V334.318C198.349 334.83 198.553 335.322 198.915 335.684C199.277 336.047 199.769 336.251 200.281 336.251H254.4C254.913 336.251 255.404 336.047 255.767 335.684C256.129 335.322 256.333 334.83 256.333 334.318V324.654C256.333 324.142 256.129 323.65 255.767 323.287C255.404 322.925 254.913 322.721 254.4 322.721ZM204.63 331.902C204.153 331.902 203.685 331.76 203.288 331.495C202.891 331.229 202.582 330.852 202.398 330.411C202.215 329.969 202.168 329.483 202.261 329.014C202.353 328.545 202.584 328.115 202.922 327.777C203.26 327.44 203.69 327.209 204.159 327.116C204.627 327.023 205.113 327.071 205.555 327.253C205.997 327.437 206.374 327.746 206.639 328.143C206.904 328.541 207.046 329.008 207.046 329.486C207.046 329.803 206.983 330.117 206.863 330.411C206.741 330.703 206.563 330.97 206.339 331.194C206.115 331.419 205.848 331.596 205.555 331.718C205.261 331.839 204.947 331.902 204.63 331.902Z" fill="#FF4D4F"/>
<path d="M239.904 163.264H200.281C199.769 163.264 199.277 163.467 198.915 163.83C198.553 164.192 198.349 164.684 198.349 165.196V174.86C198.349 175.373 198.553 175.865 198.915 176.227C199.277 176.589 199.769 176.793 200.281 176.793H239.904C240.416 176.793 240.908 176.589 241.271 176.227C241.633 175.865 241.837 175.373 241.837 174.86V165.196C241.837 164.684 241.633 164.192 241.271 163.83C240.908 163.467 240.416 163.264 239.904 163.264ZM204.63 172.444C204.153 172.444 203.685 172.302 203.288 172.038C202.891 171.772 202.582 171.395 202.398 170.953C202.215 170.512 202.168 170.026 202.261 169.557C202.353 169.088 202.584 168.658 202.922 168.32C203.26 167.983 203.69 167.752 204.159 167.659C204.627 167.566 205.113 167.613 205.555 167.796C205.997 167.98 206.374 168.289 206.639 168.686C206.904 169.083 207.046 169.551 207.046 170.028C207.046 170.345 206.983 170.659 206.863 170.953C206.741 171.246 206.563 171.513 206.339 171.737C206.115 171.961 205.848 172.139 205.555 172.261C205.261 172.382 204.947 172.444 204.63 172.444Z" fill="#FF7A45"/>
<path d="M274.695 216.416H200.281C199.769 216.416 199.277 216.62 198.915 216.982C198.553 217.345 198.349 217.837 198.349 218.349V228.013C198.349 228.525 198.553 229.017 198.915 229.379C199.277 229.742 199.769 229.946 200.281 229.946H274.695C275.207 229.946 275.699 229.742 276.061 229.379C276.424 229.017 276.628 228.525 276.628 228.013V218.349C276.628 217.837 276.424 217.345 276.061 216.982C275.699 216.62 275.207 216.416 274.695 216.416ZM204.63 225.597C204.153 225.597 203.685 225.455 203.288 225.19C202.891 224.924 202.582 224.547 202.398 224.106C202.215 223.664 202.168 223.178 202.261 222.709C202.353 222.241 202.584 221.81 202.922 221.472C203.26 221.135 203.69 220.904 204.159 220.811C204.627 220.718 205.113 220.766 205.555 220.948C205.997 221.132 206.374 221.441 206.639 221.839C206.904 222.236 207.046 222.703 207.046 223.181C207.046 223.498 206.983 223.812 206.863 224.106C206.741 224.399 206.563 224.665 206.339 224.889C206.115 225.114 205.848 225.292 205.555 225.413C205.261 225.534 204.947 225.597 204.63 225.597Z" fill="#FFD666"/>
<path d="M328.655 236.532C336.023 236.532 341.996 230.558 341.996 223.191C341.996 215.823 336.023 209.849 328.655 209.849C321.287 209.849 315.313 215.823 315.313 223.191C315.313 230.558 321.287 236.532 328.655 236.532Z" fill="#FAAD14"/>
<path d="M335.273 218.613C334.808 211.834 325.372 213.324 323.53 216.745C321.688 220.165 321.903 228.843 324.285 229.451C325.232 229.695 327.246 229.096 329.296 227.863L328.066 236.561C328.265 236.561 328.457 236.59 328.655 236.59C330.934 236.593 333.175 236.007 335.163 234.892L332.992 224.775C334.451 223.06 335.439 220.962 335.273 218.613Z" fill="#B28B67"/>
<path d="M325.491 236.137C327.602 236.663 329.808 236.658 331.916 236.125C334.024 235.591 335.967 234.545 337.573 233.079C336.548 232.019 335.5 230.981 334.407 229.991H333.864L325.638 231.895C325.638 233.366 325.579 234.771 325.491 236.137Z" fill="#C5CFD6"/>
<path d="M322.823 220.978C323.042 221.014 323.191 221.179 323.149 221.35L322.644 222.514L323.582 222.628C323.803 222.654 323.963 222.814 323.942 222.986C323.917 223.077 323.857 223.156 323.776 223.205C323.694 223.253 323.596 223.268 323.503 223.247L322.143 223.08C322.037 223.07 321.939 223.024 321.863 222.95C321.832 222.919 321.808 222.881 321.795 222.839C321.781 222.797 321.777 222.753 321.785 222.709L322.354 221.219C322.386 221.126 322.453 221.049 322.541 221.005C322.628 220.959 322.729 220.95 322.823 220.978Z" fill="#1B172C"/>
<path d="M325.134 220.389C325.11 220.429 325.077 220.462 325.037 220.487C324.998 220.513 324.952 220.528 324.906 220.532C324.859 220.537 324.813 220.53 324.769 220.513C324.726 220.496 324.686 220.469 324.655 220.434C324.588 220.352 324.548 220.25 324.545 220.143C324.541 220.037 324.573 219.932 324.636 219.846L324.883 220.115L324.636 219.846V219.826L324.681 219.774C324.73 219.718 324.782 219.664 324.838 219.615C325.004 219.46 325.201 219.343 325.417 219.27C325.964 219.087 326.631 219.211 327.324 220.063C327.388 220.148 327.423 220.252 327.423 220.358C327.423 220.464 327.388 220.568 327.324 220.653C327.298 220.692 327.264 220.725 327.222 220.748C327.182 220.773 327.136 220.786 327.089 220.788C327.041 220.79 326.994 220.781 326.952 220.762C326.909 220.742 326.871 220.713 326.842 220.675C326.269 219.989 325.833 219.986 325.573 220.074C325.453 220.118 325.342 220.187 325.248 220.275C325.216 220.303 325.187 220.334 325.16 220.367L325.141 220.389H325.134Z" fill="#1B172C"/>
<path d="M326.107 224.381C326.14 224.406 326.167 224.438 326.187 224.475C326.206 224.512 326.218 224.552 326.221 224.594C326.223 224.635 326.216 224.677 326.202 224.716C326.186 224.754 326.163 224.789 326.133 224.818C325.797 225.138 325.381 225.363 324.929 225.468C324.46 225.586 323.969 225.586 323.501 225.468C323.417 225.449 323.346 225.398 323.299 225.326C323.254 225.255 323.239 225.168 323.256 225.085C323.287 225.002 323.347 224.934 323.426 224.895C323.504 224.857 323.595 224.85 323.679 224.876C324.024 224.962 324.385 224.962 324.73 224.876C325.064 224.798 325.37 224.631 325.619 224.395C325.685 224.335 325.771 224.3 325.86 224.297C325.949 224.295 326.037 224.325 326.107 224.381Z" fill="#1B172C"/>
<path d="M328.655 209.849C325.544 209.845 322.531 210.932 320.14 212.921C320.215 213.317 320.371 213.693 320.595 214.028C320.795 214.33 321.042 214.599 321.327 214.824C321.128 214.934 320.954 215.083 320.816 215.264C320.707 215.45 320.662 215.666 320.69 215.879C320.724 216.153 320.803 216.42 320.921 216.67C321.029 216.9 321.181 217.107 321.369 217.278C321.282 217.3 321.2 217.341 321.128 217.397C321.057 217.453 320.999 217.524 320.956 217.604C320.915 217.69 320.886 217.781 320.868 217.873C320.842 217.987 320.797 218.092 320.774 218.199C320.729 218.388 320.75 218.587 320.833 218.762C320.99 219.007 321.216 219.201 321.483 219.318C321.876 219.409 322.287 219.377 322.661 219.227C322.871 218.91 323.029 218.562 323.13 218.196C323.316 217.758 323.549 217.343 323.826 216.956C324.103 216.544 324.46 216.189 324.874 215.914C324.958 215.859 325.101 215.713 325.199 215.769C325.296 215.824 325.303 215.914 325.346 215.973C325.399 216.046 325.459 216.114 325.524 216.175C325.831 216.441 326.19 216.639 326.579 216.754C326.974 216.867 327.356 217.022 327.717 217.216C328.024 217.42 328.253 217.72 328.369 218.069C328.502 218.417 328.567 218.788 328.668 219.146C328.8 219.613 328.983 220.063 329.214 220.489C329.308 220.696 329.439 220.883 329.602 221.039C329.699 221.124 329.927 221.293 330.057 221.196C330.119 221.15 330.109 221.069 330.128 221.004C330.149 220.939 330.747 219.751 331.264 219.634C331.782 219.517 333.002 219.52 333.415 219.748C334.307 220.232 334.414 221.296 334.148 222.182C334.038 222.596 333.833 222.98 333.549 223.302C333.419 223.447 333.256 223.558 333.074 223.626C332.876 223.696 332.666 223.721 332.458 223.702C332.485 223.808 332.496 223.917 332.494 224.026C332.479 224.146 332.47 224.267 332.468 224.388C332.474 224.62 332.523 224.848 332.611 225.061C332.669 225.164 332.715 225.273 332.745 225.387C332.745 225.478 332.745 225.569 332.745 225.661C332.767 225.834 332.819 226.002 332.898 226.158C333.223 226.792 334.236 226.982 334.717 226.399C334.886 226.744 335.127 227.049 335.422 227.294C335.719 227.538 336.064 227.717 336.435 227.818C337.043 227.977 337.899 227.996 338.316 227.434C338.48 227.581 338.663 227.708 338.859 227.808C339.211 227.992 339.601 228.088 339.998 228.088C340.395 228.088 340.785 227.992 341.137 227.808C341.887 225.794 342.138 223.628 341.869 221.496C341.601 219.364 340.82 217.328 339.593 215.564C338.366 213.799 336.731 212.358 334.826 211.363C332.921 210.367 330.804 209.848 328.655 209.849Z" fill="#191847"/>
<path d="M325.308 76.7886C318.092 74.8551 313.81 67.438 315.744 60.2222C317.677 53.0063 325.095 48.7241 332.31 50.6576C339.526 52.5911 343.808 60.0081 341.874 67.224C339.942 74.4399 332.524 78.7221 325.308 76.7886Z" fill="#FF7A45"/>
<path d="M325.223 76.7857C322.331 76.0204 319.776 74.3131 317.961 71.9335C318.593 70.7794 319.442 69.7588 320.463 68.9279C322.471 67.2162 322.089 61.2546 322.089 61.2546L329.273 59.0424L336.712 62.173C336.712 62.173 336.034 66.0311 337.789 67.9832C338.117 68.3387 339.372 69.2703 340.507 70.5147C338.997 73.0881 336.684 75.0951 333.923 76.2278C331.162 77.3605 328.106 77.5565 325.223 76.7857Z" fill="#000103"/>
<path d="M330.73 76.0154L330.842 68.7733C330.842 68.7733 329.657 68.8918 328.587 68.9444C327.518 68.9971 326.75 68.454 326.339 69.0202L325.608 68.1445L324.795 76.0681L324.732 76.3019L330.657 76.2689C330.704 76.1921 330.728 76.1048 330.73 76.0154Z" fill="#E7B1A0"/>
<path d="M325.256 71.6043C325.256 71.6043 328.751 72.7828 330.878 68.2926H325.572L325.256 71.6043Z" fill="#B57D6B"/>
<path d="M336.965 61.4423C336.57 65.8402 331.698 68.4804 327.484 67.8516C325.236 67.5225 320.762 63.1508 321.417 58.7857C322.073 54.4207 325.582 52.0406 329.799 52.6266C333.713 53.1697 337.429 56.2708 336.965 61.4423Z" fill="#000103"/>
<path d="M323.932 63.5525C323.86 63.9534 323.696 64.3321 323.452 64.6586C323.233 64.9554 322.934 65.1837 322.59 65.317C322.282 65.4353 321.94 65.4353 321.631 65.317C321.319 65.189 321.061 64.9563 320.901 64.6586C320.718 64.3192 320.628 63.9377 320.641 63.5525C320.652 63.1461 320.756 62.7475 320.943 62.3872C321.117 62.041 321.378 61.746 321.701 61.5313C321.983 61.3411 322.323 61.2539 322.663 61.2844C322.879 61.3086 323.087 61.388 323.265 61.5148C323.452 61.6498 323.608 61.8253 323.719 62.0283C323.842 62.2509 323.922 62.4942 323.956 62.746C323.993 63.0164 323.987 63.2908 323.936 63.5591L323.932 63.5525Z" fill="#B57D6B"/>
<path d="M333.67 60.8266C333.341 62.911 332.79 64.9538 332.024 66.9199C331.732 67.6131 331.305 68.241 330.767 68.7667C330.239 69.2815 329.61 69.6806 328.92 69.9386L328.66 70.0572C327.91 70.3912 327.083 70.5109 326.27 70.4027C325.461 70.293 324.701 69.9575 324.075 69.435C323.455 68.9751 322.947 68.3808 322.59 67.6968C322.217 66.9932 322.002 66.2171 321.958 65.4222C321.926 63.3312 322.048 61.2406 322.323 59.1675C322.323 59.1675 322.797 52.7813 328.917 53.805C335.036 54.8288 333.67 60.8266 333.67 60.8266Z" fill="#E7B1A0"/>
<path d="M325.661 55.3356C325.661 55.3356 326.912 60.3524 334.701 63.0452C334.701 63.0452 336.527 54.7726 330.57 53.2682C330.582 53.2386 327.679 52.093 325.661 55.3356Z" fill="#000103"/>
<path d="M327.442 55.8919C327.442 55.8919 325.029 59.6644 321.062 60.3524C321.062 60.3524 321.48 53.5546 328.116 53.0806C328.112 53.1036 327.162 52.3564 327.442 55.8919Z" fill="#000103"/>
<path d="M329.144 63.9574C329.092 64.1663 328.998 64.3624 328.867 64.5335C328.827 64.5961 328.773 64.6487 328.708 64.6868C328.645 64.7251 328.573 64.7481 328.499 64.754C328.38 64.754 328.284 64.6585 328.229 64.5038C328.167 64.3126 328.152 64.1093 328.185 63.9113C328.206 63.7842 328.239 63.6595 328.284 63.5393C328.327 63.4232 328.384 63.3126 328.452 63.2101C328.507 63.1271 328.576 63.0547 328.656 62.9961C328.716 62.9513 328.79 62.927 328.864 62.927C328.898 62.9293 328.931 62.9384 328.961 62.9537C328.991 62.9689 329.017 62.9901 329.039 63.0159C329.093 63.0815 329.132 63.1594 329.15 63.243C329.176 63.3508 329.186 63.4616 329.18 63.5722C329.175 63.699 329.156 63.8248 329.124 63.9474L329.144 63.9574Z" fill="#000103"/>
<path d="M324.068 63.0782C324.016 63.2872 323.922 63.4833 323.791 63.6543C323.751 63.717 323.697 63.7695 323.633 63.8078C323.569 63.8461 323.497 63.869 323.423 63.8749C323.304 63.8749 323.209 63.7795 323.152 63.6248C323.095 63.4324 323.085 63.2292 323.124 63.0321C323.143 62.9051 323.176 62.7804 323.222 62.6602C323.265 62.544 323.321 62.4335 323.389 62.331C323.444 62.2481 323.514 62.1756 323.594 62.1171C323.657 62.0742 323.732 62.0535 323.808 62.0578C323.842 62.0601 323.874 62.0691 323.904 62.0844C323.934 62.0997 323.96 62.1208 323.983 62.1466C324.038 62.2122 324.075 62.2902 324.094 62.3738C324.12 62.4816 324.13 62.5924 324.124 62.703C324.119 62.8298 324.1 62.9556 324.068 63.0782Z" fill="#000103"/>
<path d="M326.101 64.1152C326.068 64.1033 326.031 64.0984 325.994 64.1008C325.958 64.1031 325.922 64.1127 325.889 64.1289C325.857 64.1452 325.827 64.1678 325.803 64.1953C325.78 64.2229 325.761 64.255 325.75 64.2897L325.42 65.2938C325.419 65.309 325.419 65.3245 325.42 65.3398C325.408 65.4203 325.411 65.5027 325.434 65.5813C325.456 65.6597 325.496 65.7324 325.549 65.7941C325.601 65.8542 325.666 65.9021 325.739 65.9346C325.812 65.9669 325.891 65.9831 325.97 65.9817H326.474C326.542 65.9742 326.606 65.9417 326.651 65.8904C326.698 65.8391 326.723 65.7725 326.723 65.7035C326.723 65.6346 326.698 65.568 326.651 65.5167C326.606 65.4654 326.542 65.4328 326.474 65.4254H325.963L326.293 64.4675C326.304 64.4318 326.308 64.3942 326.305 64.3569C326.302 64.3195 326.291 64.2834 326.273 64.2504C326.255 64.2175 326.231 64.1885 326.201 64.1653C326.172 64.142 326.138 64.125 326.101 64.1152Z" fill="black"/>
<path d="M327.336 62.4066L331.069 62.2289C331.069 62.2289 330.619 61.3071 329.094 61.3961C327.57 61.485 327.336 62.4066 327.336 62.4066Z" fill="#000103"/>
<path d="M325.252 62.3474L322.197 60.7016C322.507 60.511 322.866 60.4142 323.23 60.423C323.594 60.4318 323.947 60.5457 324.248 60.7509C325.49 61.4422 325.252 62.3474 325.252 62.3474Z" fill="#000103"/>
<path d="M327.742 67.0779C327.725 67.041 327.702 67.0081 327.672 66.9813C327.642 66.9546 327.607 66.9346 327.569 66.923C327.531 66.9114 327.49 66.9084 327.451 66.9141C327.411 66.9198 327.374 66.9342 327.34 66.9561C327.036 67.1498 326.685 67.2567 326.326 67.2655C325.976 67.2712 325.633 67.1739 325.338 66.9858C325.303 66.9657 325.263 66.9531 325.222 66.949C325.182 66.9451 325.14 66.9495 325.102 66.9622C325.062 66.9748 325.026 66.9955 324.996 67.0228C324.965 67.05 324.94 67.0834 324.924 67.1207C324.879 67.1949 324.865 67.2826 324.882 67.3672C324.899 67.4517 324.947 67.5269 325.016 67.5783C325.395 67.821 325.839 67.947 326.289 67.9404C326.757 67.9314 327.212 67.7935 327.606 67.542C327.68 67.493 327.734 67.4195 327.758 67.3346C327.783 67.2497 327.778 67.1588 327.742 67.0779Z" fill="black"/>
<path d="M332.136 59.9408L332.66 64.905L334.355 60.7243L332.136 59.9408Z" fill="#000103"/>
<path d="M325.319 76.789C324.182 76.5002 323.087 76.0677 322.06 75.5019L328.265 74.567L334.579 75.9594C331.689 77.3265 328.406 77.6205 325.319 76.789Z" fill="#E7B1A0"/>
<path d="M335.164 64.8953C335.076 65.3169 334.918 65.7208 334.697 66.0903C334.401 66.416 334.042 66.679 333.643 66.8638C333.53 66.9216 333.405 66.9545 333.278 66.9602C333.151 66.9659 333.024 66.9442 332.906 66.8968C332.663 66.7847 332.471 66.5848 332.369 66.3371C332.241 66.0247 332.188 65.6863 332.215 65.3496C332.238 64.9786 332.332 64.6154 332.491 64.2797C332.599 63.9682 332.777 63.6856 333.011 63.4535C333.23 63.2969 333.461 63.1592 333.703 63.042C334.038 62.923 334.407 62.9407 334.729 63.0914C334.873 63.2123 334.987 63.3658 335.059 63.5391C335.145 63.7418 335.196 63.9578 335.211 64.1777C335.227 64.4178 335.212 64.6592 335.164 64.8953Z" fill="#E7B1A0"/>
<path d="M325.308 289.398C318.092 287.465 313.81 280.048 315.744 272.832C317.677 265.616 325.095 261.334 332.31 263.267C339.526 265.201 343.808 272.618 341.874 279.834C339.942 287.05 332.524 291.332 325.308 289.398Z" fill="#2F54EB"/>
<path d="M325.223 289.395C322.331 288.63 319.776 286.923 317.961 284.543C318.593 283.389 319.442 282.369 320.463 281.538C322.471 279.826 322.089 273.864 322.089 273.864L329.273 271.652L336.712 274.783C336.712 274.783 336.034 278.641 337.789 280.593C338.117 280.949 339.372 281.881 340.507 283.124C338.997 285.698 336.684 287.705 333.923 288.838C331.162 289.97 328.106 290.167 325.223 289.395Z" fill="#000103"/>
<path d="M330.73 288.625L330.842 281.383C330.842 281.383 329.657 281.502 328.587 281.554C327.518 281.607 326.75 281.064 326.339 281.63L325.608 280.755L324.795 288.678L324.732 288.912L330.657 288.879C330.704 288.802 330.728 288.715 330.73 288.625Z" fill="#E7B1A0"/>
<path d="M325.256 284.214C325.256 284.214 328.751 285.392 330.878 280.902H325.572L325.256 284.214Z" fill="#B57D6B"/>
<path d="M336.965 274.052C336.57 278.45 331.698 281.09 327.484 280.462C325.236 280.132 320.762 275.76 321.417 271.396C322.073 267.031 325.582 264.65 329.799 265.236C333.713 265.779 337.429 268.88 336.965 274.052Z" fill="#000103"/>
<path d="M323.932 276.162C323.86 276.563 323.696 276.942 323.452 277.269C323.233 277.565 322.934 277.794 322.59 277.927C322.282 278.045 321.94 278.045 321.631 277.927C321.319 277.798 321.061 277.566 320.901 277.269C320.718 276.929 320.628 276.548 320.641 276.162C320.652 275.756 320.756 275.357 320.943 274.997C321.117 274.651 321.378 274.356 321.701 274.141C321.983 273.951 322.323 273.864 322.663 273.894C322.879 273.918 323.087 273.997 323.265 274.125C323.452 274.259 323.608 274.435 323.719 274.638C323.842 274.861 323.922 275.104 323.956 275.356C323.993 275.626 323.987 275.9 323.936 276.169L323.932 276.162Z" fill="#B57D6B"/>
<path d="M333.67 273.437C333.341 275.521 332.79 277.564 332.024 279.53C331.732 280.223 331.305 280.851 330.767 281.377C330.239 281.891 329.61 282.29 328.92 282.548L328.66 282.667C327.91 283.002 327.083 283.12 326.27 283.013C325.461 282.903 324.701 282.568 324.075 282.045C323.455 281.585 322.947 280.99 322.59 280.307C322.217 279.603 322.002 278.827 321.958 278.032C321.926 275.941 322.048 273.851 322.323 271.778C322.323 271.778 322.797 265.391 328.917 266.415C335.036 267.439 333.67 273.437 333.67 273.437Z" fill="#E7B1A0"/>
<path d="M325.661 267.946C325.661 267.946 326.912 272.962 334.701 275.655C334.701 275.655 336.527 267.382 330.57 265.878C330.582 265.849 327.679 264.703 325.661 267.946Z" fill="#000103"/>
<path d="M327.442 268.502C327.442 268.502 325.029 272.274 321.062 272.963C321.062 272.963 321.48 266.165 328.116 265.69C328.112 265.714 327.162 264.966 327.442 268.502Z" fill="#000103"/>
<path d="M329.144 276.567C329.092 276.776 328.998 276.972 328.867 277.143C328.827 277.206 328.773 277.258 328.708 277.297C328.645 277.335 328.573 277.358 328.499 277.364C328.38 277.364 328.284 277.269 328.229 277.113C328.167 276.923 328.152 276.719 328.185 276.521C328.206 276.394 328.239 276.27 328.284 276.149C328.327 276.033 328.384 275.923 328.452 275.82C328.507 275.737 328.576 275.665 328.656 275.606C328.716 275.561 328.79 275.537 328.864 275.537C328.898 275.539 328.931 275.549 328.961 275.563C328.991 275.579 329.017 275.6 329.039 275.626C329.093 275.692 329.132 275.769 329.15 275.853C329.176 275.96 329.186 276.071 329.18 276.182C329.175 276.309 329.156 276.435 329.124 276.558L329.144 276.567Z" fill="#000103"/>
<path d="M324.068 275.688C324.016 275.897 323.922 276.094 323.791 276.265C323.751 276.326 323.697 276.38 323.633 276.417C323.569 276.456 323.497 276.479 323.423 276.485C323.304 276.485 323.209 276.389 323.152 276.235C323.095 276.042 323.085 275.839 323.124 275.642C323.143 275.515 323.176 275.39 323.222 275.27C323.265 275.154 323.321 275.043 323.389 274.941C323.444 274.858 323.514 274.785 323.594 274.727C323.657 274.685 323.732 274.663 323.808 274.667C323.842 274.67 323.874 274.679 323.904 274.694C323.934 274.71 323.96 274.731 323.983 274.756C324.038 274.822 324.075 274.9 324.094 274.983C324.12 275.091 324.13 275.203 324.124 275.313C324.119 275.439 324.1 275.565 324.068 275.688Z" fill="#000103"/>
<path d="M326.101 276.725C326.068 276.713 326.031 276.708 325.994 276.71C325.958 276.713 325.922 276.723 325.889 276.739C325.857 276.755 325.827 276.778 325.803 276.805C325.78 276.833 325.761 276.865 325.75 276.9L325.42 277.904C325.419 277.919 325.419 277.935 325.42 277.95C325.408 278.03 325.411 278.113 325.434 278.191C325.456 278.27 325.496 278.343 325.549 278.404C325.601 278.464 325.666 278.512 325.739 278.545C325.812 278.576 325.891 278.593 325.97 278.592H326.474C326.542 278.584 326.606 278.551 326.651 278.5C326.698 278.449 326.723 278.382 326.723 278.314C326.723 278.245 326.698 278.178 326.651 278.127C326.606 278.075 326.542 278.043 326.474 278.035H325.963L326.293 277.077C326.304 277.042 326.308 277.004 326.305 276.966C326.302 276.93 326.291 276.893 326.273 276.86C326.255 276.827 326.231 276.798 326.201 276.775C326.172 276.752 326.138 276.735 326.101 276.725Z" fill="black"/>
<path d="M327.336 275.016L331.069 274.838C331.069 274.838 330.619 273.917 329.094 274.006C327.57 274.095 327.336 275.016 327.336 275.016Z" fill="#000103"/>
<path d="M325.252 274.957L322.197 273.311C322.507 273.121 322.866 273.024 323.23 273.033C323.594 273.042 323.947 273.156 324.248 273.361C325.49 274.052 325.252 274.957 325.252 274.957Z" fill="#000103"/>
<path d="M327.742 279.688C327.725 279.651 327.702 279.618 327.672 279.591C327.642 279.564 327.607 279.545 327.569 279.533C327.531 279.522 327.49 279.519 327.451 279.523C327.411 279.529 327.374 279.544 327.34 279.566C327.036 279.759 326.685 279.867 326.326 279.875C325.976 279.881 325.633 279.783 325.338 279.596C325.303 279.576 325.263 279.563 325.222 279.559C325.182 279.555 325.14 279.559 325.102 279.572C325.062 279.584 325.026 279.606 324.996 279.633C324.965 279.66 324.94 279.694 324.924 279.73C324.879 279.805 324.865 279.893 324.882 279.977C324.899 280.062 324.947 280.137 325.016 280.188C325.395 280.431 325.839 280.557 326.289 280.551C326.757 280.541 327.212 280.404 327.606 280.152C327.68 280.103 327.734 280.03 327.758 279.945C327.783 279.86 327.778 279.769 327.742 279.688Z" fill="black"/>
<path d="M332.136 272.551L332.66 277.515L334.355 273.335L332.136 272.551Z" fill="#000103"/>
<path d="M325.319 289.399C324.182 289.11 323.087 288.677 322.06 288.112L328.265 287.176L334.579 288.569C331.689 289.936 328.406 290.23 325.319 289.399Z" fill="#E7B1A0"/>
<path d="M335.164 277.506C335.076 277.927 334.918 278.331 334.697 278.7C334.401 279.026 334.042 279.289 333.643 279.474C333.53 279.531 333.405 279.564 333.278 279.57C333.151 279.576 333.024 279.554 332.906 279.507C332.663 279.395 332.471 279.195 332.369 278.947C332.241 278.634 332.188 278.296 332.215 277.96C332.238 277.589 332.332 277.225 332.491 276.89C332.599 276.578 332.777 276.296 333.011 276.064C333.23 275.907 333.461 275.769 333.703 275.652C334.038 275.533 334.407 275.551 334.729 275.701C334.873 275.822 334.987 275.976 335.059 276.149C335.145 276.352 335.196 276.567 335.211 276.788C335.227 277.028 335.212 277.269 335.164 277.506Z" fill="#E7B1A0"/>
<path d="M328.619 183.363C321.255 183.363 315.284 177.393 315.284 170.028C315.284 162.664 321.255 156.694 328.619 156.694C335.984 156.694 341.953 162.664 341.953 170.028C341.953 177.393 335.984 183.363 328.619 183.363Z" fill="#FF9C6E"/>
<path d="M335.545 165.8C335.709 168.337 334.668 170.581 333.106 172.403L335.09 181.672C333.172 182.745 330.96 183.33 328.618 183.33C328.423 183.33 328.228 183.298 328.066 183.298L329.139 175.688C326.927 177.02 324.781 177.639 323.773 177.379C321.236 176.729 321.008 167.427 322.959 163.752C324.943 160.141 335.026 158.515 335.545 165.8Z" fill="#B57D6B"/>
<path d="M324.326 173.704C324.228 173.606 324.098 173.606 324.033 173.704C323.838 173.899 323.61 174.029 323.383 174.127C323.155 174.224 322.895 174.192 322.635 174.127C322.504 174.094 322.407 174.159 322.375 174.289C322.342 174.419 322.407 174.549 322.537 174.582C322.862 174.68 323.187 174.68 323.513 174.582C323.838 174.485 324.131 174.321 324.359 174.061C324.391 173.964 324.391 173.801 324.326 173.704Z" fill="black"/>
<path d="M333.725 174.419C334.733 169.866 337.66 166.777 337.205 164.727C336.912 163.361 336.131 162.516 334.831 162.19C334.18 159.491 332.034 158.352 328.391 158.776C322.992 159.36 319.674 161.637 321.106 166.581C322.407 166.581 324 166.093 326.212 166.906C326.895 167.166 327.415 167.98 327.708 169.313H328.683C329.659 167.72 330.603 167.134 331.546 167.556C332.489 167.98 332.684 169.021 332.196 170.646L332.684 174.387H333.725V174.419Z" fill="#191847"/>
<path d="M323.414 170.548C323.512 170.581 323.609 170.581 323.707 170.516C323.805 170.451 323.902 170.321 323.935 170.191C324 170.028 324.033 169.866 324 169.703C324 169.54 323.968 169.345 323.902 169.216C323.837 169.085 323.74 168.988 323.642 168.923C323.545 168.857 323.447 168.89 323.318 168.923C323.22 168.988 323.122 169.085 323.057 169.248C322.992 169.378 322.959 169.573 322.959 169.736C322.959 169.931 322.992 170.126 323.057 170.288C323.187 170.419 323.285 170.516 323.414 170.548Z" fill="black"/>
<path d="M321.658 168.207C322.113 167.589 322.797 167.134 323.577 167.004C323.935 166.874 324.325 166.841 324.683 166.874C325.041 166.906 325.431 167.036 325.724 167.232C324.423 167.589 321.658 168.207 321.658 168.207Z" fill="black"/>
<path d="M336.034 181.119C333.921 182.55 331.384 183.363 328.619 183.363C328.001 183.363 327.416 183.298 326.83 183.234C326.928 182.029 326.992 180.826 326.992 179.558L334.473 178.387C335.026 179.265 335.546 180.176 336.034 181.119Z" fill="#C4C4C4"/>
<path d="M328.619 342.82C321.255 342.82 315.284 336.85 315.284 329.486C315.284 322.122 321.255 316.151 328.619 316.151C335.984 316.151 341.953 322.122 341.953 329.486C341.953 336.85 335.984 342.82 328.619 342.82Z" fill="#CF1322"/>
<path d="M335.545 325.258C335.709 327.795 334.668 330.039 333.106 331.86L335.09 341.129C333.172 342.203 330.96 342.787 328.618 342.787C328.423 342.787 328.228 342.756 328.066 342.756L329.139 335.145C326.927 336.478 324.781 337.096 323.773 336.836C321.236 336.186 321.008 326.884 322.959 323.209C324.943 319.598 335.026 317.972 335.545 325.258Z" fill="#E6B1A0"/>
<path d="M324.326 333.161C324.228 333.063 324.098 333.063 324.033 333.161C323.838 333.356 323.61 333.487 323.383 333.584C323.155 333.681 322.895 333.649 322.635 333.584C322.504 333.551 322.407 333.616 322.375 333.747C322.342 333.876 322.407 334.007 322.537 334.04C322.862 334.137 323.187 334.137 323.513 334.04C323.838 333.942 324.131 333.779 324.359 333.519C324.391 333.421 324.391 333.259 324.326 333.161Z" fill="black"/>
<path d="M333.725 333.876C334.733 329.324 337.66 326.234 337.205 324.184C336.912 322.819 336.131 321.973 334.831 321.647C334.18 318.948 332.034 317.81 328.391 318.233C322.992 318.818 319.674 321.095 321.106 326.039C322.407 326.039 324 325.551 326.212 326.363C326.895 326.623 327.415 327.437 327.708 328.771H328.683C329.659 327.177 330.603 326.591 331.546 327.014C332.489 327.437 332.684 328.478 332.196 330.103L332.684 333.844H333.725V333.876Z" fill="#191847"/>
<path d="M323.414 330.006C323.512 330.039 323.609 330.039 323.707 329.974C323.805 329.908 323.902 329.779 323.935 329.648C324 329.486 324.033 329.324 324 329.16C324 328.998 323.968 328.803 323.902 328.673C323.837 328.543 323.74 328.445 323.642 328.38C323.545 328.315 323.447 328.347 323.318 328.38C323.22 328.445 323.122 328.543 323.057 328.705C322.992 328.836 322.959 329.031 322.959 329.193C322.959 329.388 322.992 329.584 323.057 329.746C323.187 329.876 323.285 329.974 323.414 330.006Z" fill="black"/>
<path d="M321.658 327.664C322.113 327.047 322.797 326.591 323.577 326.461C323.935 326.331 324.325 326.299 324.683 326.331C325.041 326.363 325.431 326.494 325.724 326.689C324.423 327.047 321.658 327.664 321.658 327.664Z" fill="black"/>
<path d="M336.034 340.576C333.921 342.008 331.384 342.82 328.619 342.82C328.001 342.82 327.416 342.756 326.83 342.691C326.928 341.487 326.992 340.284 326.992 339.016L334.473 337.844C335.026 338.723 335.546 339.633 336.034 340.576Z" fill="#FFF2E8"/>
<path d="M328.796 130.369C336.258 130.369 342.307 124.32 342.307 116.858C342.307 109.396 336.258 103.346 328.796 103.346C321.333 103.346 315.284 109.396 315.284 116.858C315.284 124.32 321.333 130.369 328.796 130.369Z" fill="#597EF7"/>
<path d="M322.557 109.933C322.557 109.933 322.77 112.206 322.149 113.508C321.529 114.81 319.977 115.279 320.24 118.889C320.503 122.5 319.783 122.504 319.51 123.482C319.51 123.482 333.098 125.993 340.618 123.154L339.025 118.935C337.954 116.506 337.882 112.675 337.882 112.675L332.682 109.973L322.557 109.933Z" fill="#000103"/>
<path d="M326.57 107.89C326.419 107.821 327.147 106.969 327.31 106.937C329.892 106.421 335.332 105.969 337.537 110.666C339.162 114.117 336.479 119.956 332.085 121.314C327.908 122.606 330.093 109.448 330.093 109.448L326.57 107.89Z" fill="#000103"/>
<path d="M326.638 116.163C326.647 116.525 326.534 116.879 326.312 117.178C326.089 117.478 325.77 117.711 325.392 117.846C325.013 117.982 324.594 118.015 324.188 117.941C323.781 117.867 323.405 117.689 323.107 117.43C322.808 117.172 322.603 116.843 322.514 116.487C322.425 116.131 322.458 115.763 322.608 115.429C322.759 115.095 323.02 114.812 323.359 114.613C323.698 114.415 324.099 114.311 324.512 114.316C324.786 114.317 325.058 114.367 325.313 114.461C325.569 114.555 325.801 114.691 325.999 114.863C326.197 115.035 326.354 115.238 326.464 115.461C326.574 115.684 326.633 115.922 326.638 116.163Z" fill="#B57D6B"/>
<path d="M326.588 121.356L326.612 125.637C326.618 127.141 327.59 127.948 329.135 127.95C330.458 127.949 331.691 127.292 331.839 126.04L331.461 119.301L326.588 121.356Z" fill="#E6B1A0"/>
<path d="M326.633 124.009C329.52 124.1 331.436 120.349 331.436 120.349L326.61 121.159L326.633 124.009Z" fill="#B57D6B"/>
<path d="M327.641 122.54C325.09 122.387 323.11 120.235 323.166 118.139L323.331 113.186C323.364 111.922 323.886 110.72 324.786 109.835C325.686 108.95 326.893 108.45 328.153 108.443C330.837 108.422 333.493 110.588 333.511 113.282L333.337 117.262C333.331 117.991 333.176 118.711 332.881 119.377C332.588 120.044 332.161 120.643 331.626 121.138C331.093 121.632 330.464 122.012 329.778 122.253C329.092 122.494 328.365 122.592 327.641 122.54Z" fill="#E6B1A0"/>
<path d="M331.664 112.46C330.309 114.054 331.922 116.723 331.922 116.723L335.976 112.815C335.976 112.815 332.465 111.514 331.664 112.46Z" fill="#000103"/>
<path d="M335.457 115.491C335.72 115.973 335.57 116.971 335.1 117.634C334.875 117.951 334.444 118.378 333.728 118.461C333.307 118.509 332.83 118.403 332.522 118.133C332.214 117.864 332.001 117.521 331.909 117.149C331.817 116.776 331.851 116.391 332.007 116.042C332.161 115.693 332.431 115.395 332.781 115.187C333.129 114.978 333.544 114.868 333.97 114.871C334.481 114.873 335.192 115.009 335.457 115.491Z" fill="#E6B1A0"/>
<path fill-rule="evenodd" clip-rule="evenodd" d="M326.094 117.112C326.252 117.139 326.359 117.258 326.335 117.379L325.972 118.22L326.648 118.302C326.806 118.321 326.922 118.436 326.907 118.559C326.891 118.682 326.75 118.765 326.591 118.746L325.611 118.627C325.532 118.617 325.459 118.583 325.41 118.532C325.361 118.481 325.341 118.418 325.353 118.357L325.764 117.284C325.788 117.163 325.936 117.086 326.094 117.112Z" fill="#1B172C"/>
<path d="M328.844 114.194C328.844 114.194 327.56 114.348 327.622 114.749C327.622 114.749 327.665 115.017 328.772 114.87C329.881 114.724 330.138 114.612 330.187 114.343C330.237 114.074 329.423 114.09 328.844 114.194Z" fill="#1B172C"/>
<path d="M324.764 113.888C324.764 113.888 325.807 114.142 325.778 114.539C325.778 114.539 325.744 114.808 324.835 114.574C323.927 114.34 323.669 114.156 323.659 113.928C323.649 113.7 324.277 113.756 324.764 113.888Z" fill="#1B172C"/>
<path fill-rule="evenodd" clip-rule="evenodd" d="M328.092 116.686C328 116.811 327.845 116.826 327.747 116.72C327.648 116.612 327.642 116.422 327.734 116.295L327.914 116.489C327.734 116.295 327.734 116.295 327.734 116.295L327.735 116.295V116.294L327.736 116.292L327.74 116.288L327.75 116.275C327.757 116.265 327.768 116.252 327.782 116.237C327.809 116.206 327.846 116.166 327.895 116.122C327.99 116.036 328.131 115.934 328.311 115.875C328.689 115.751 329.169 115.839 329.681 116.45C329.775 116.563 329.773 116.754 329.677 116.875C329.58 116.997 329.424 117.004 329.33 116.891C328.918 116.398 328.603 116.395 328.416 116.456C328.313 116.49 328.229 116.55 328.171 116.602C328.142 116.628 328.121 116.651 328.107 116.667C328.101 116.675 328.096 116.68 328.094 116.683L328.092 116.686Z" fill="#1B172C"/>
<path fill-rule="evenodd" clip-rule="evenodd" d="M323.939 116.213C323.848 116.338 323.694 116.353 323.595 116.247C323.496 116.14 323.49 115.95 323.582 115.822L323.762 116.016C323.582 115.822 323.583 115.822 323.583 115.822V115.822V115.821L323.585 115.819L323.588 115.815L323.597 115.802C323.605 115.792 323.617 115.779 323.629 115.764C323.656 115.733 323.694 115.693 323.742 115.649C323.838 115.563 323.979 115.461 324.159 115.402C324.537 115.278 325.018 115.366 325.528 115.977C325.623 116.09 325.621 116.281 325.524 116.402C325.428 116.524 325.273 116.531 325.178 116.418C324.766 115.925 324.451 115.922 324.264 115.983C324.161 116.017 324.078 116.077 324.019 116.129C323.99 116.155 323.968 116.179 323.955 116.194C323.948 116.202 323.943 116.207 323.941 116.21L323.939 116.213Z" fill="#1B172C"/>
<path fill-rule="evenodd" clip-rule="evenodd" d="M328.793 119.565C328.895 119.649 328.904 119.79 328.812 119.879C328.58 120.105 328.28 120.268 327.944 120.35C327.61 120.431 327.253 120.427 326.916 120.339C326.783 120.305 326.703 120.181 326.739 120.064C326.774 119.946 326.911 119.879 327.043 119.914C327.293 119.978 327.555 119.981 327.801 119.921C328.048 119.861 328.269 119.741 328.441 119.574C328.533 119.485 328.69 119.481 328.793 119.565Z" fill="#1B172C"/>
<path d="M326.941 106.855C326.941 106.855 321.315 108.274 322.191 110.522C322.84 112.188 328.157 113.782 333.437 113.258C333.437 113.258 336.019 111.528 333.344 109.105C333.342 109.128 332.039 106.642 326.941 106.855Z" fill="#000103"/>
<path d="M337.24 127.329L333.862 126.315C331.836 126.203 327.309 125.978 325.418 125.978C323.525 126.788 322.377 128.117 322.039 128.68C323.166 129.355 326.363 130.639 330.146 130.369C333.93 130.098 336.451 128.229 337.24 127.329Z" fill="white"/>
<path d="M324.996 126.116C326.242 125.622 327.589 125.362 328.957 125.35C330.642 125.462 332.309 125.768 333.92 126.258C333.92 126.258 333.517 128.448 328.882 128.414C327.972 128.424 327.063 128.269 326.211 127.959C325.358 127.633 325.215 127.044 324.996 126.116Z" fill="#E6B1A0"/>
<defs>
<filter id="filter0_dd" x="6.32812" y="26.6641" width="375.344" height="359.881" filterUnits="userSpaceOnUse" color-interpolation-filters="sRGB">
<feFlood flood-opacity="0" result="BackgroundImageFix"/>
<feColorMatrix in="SourceAlpha" type="matrix" values="0 0 0 0 0 0 0 0 0 0 0 0 0 0 0 0 0 0 127 0"/>
<feOffset dy="10"/>
<feGaussianBlur stdDeviation="10"/>
<feColorMatrix type="matrix" values="0 0 0 0 0 0 0 0 0 0 0 0 0 0 0 0 0 0 0.1 0"/>
<feBlend mode="normal" in2="BackgroundImageFix" result="effect1_dropShadow"/>
<feColorMatrix in="SourceAlpha" type="matrix" values="0 0 0 0 0 0 0 0 0 0 0 0 0 0 0 0 0 0 127 0"/>
<feOffset/>
<feGaussianBlur stdDeviation="2"/>
<feColorMatrix type="matrix" values="0 0 0 0 0 0 0 0 0 0 0 0 0 0 0 0 0 0 0.1 0"/>
<feBlend mode="normal" in2="effect1_dropShadow" result="effect2_dropShadow"/>
<feBlend mode="normal" in="SourceGraphic" in2="effect2_dropShadow" result="shape"/>
</filter>
</defs>
</svg>
