<svg width="388" height="388" viewBox="0 0 388 388" fill="none" xmlns="http://www.w3.org/2000/svg">
<g clip-path="url(#clip0)">
<g filter="url(#filter0_dd)">
<path d="M48.9883 230.427C48.9883 228.168 50.8194 226.337 53.0782 226.337H271.887C274.146 226.337 275.977 228.168 275.977 230.427V357.214H48.9883V230.427Z" fill="white"/>
</g>
<path d="M59.2139 240.652C59.2139 238.393 61.045 236.562 63.3038 236.562H261.663C263.922 236.562 265.753 238.393 265.753 240.652V331.652C265.753 333.91 263.922 335.742 261.663 335.742H63.3038C61.045 335.742 59.2139 333.91 59.2139 331.652V240.652Z" fill="#F5F5F5"/>
<path d="M59.2139 344.944C59.2139 342.685 61.045 340.854 63.3038 340.854H261.663C263.922 340.854 265.753 342.685 265.753 344.944V357.214H59.2139V344.944Z" fill="#F5F5F5"/>
<path d="M69.4385 307.112C69.4385 306.548 69.8962 306.09 70.4609 306.09H182.933C183.497 306.09 183.955 306.548 183.955 307.112V313.247C183.955 313.812 183.497 314.27 182.933 314.27H70.4609C69.8962 314.27 69.4385 313.812 69.4385 313.247V307.112Z" fill="white"/>
<path d="M69.4385 320.405C69.4385 319.84 69.8962 319.382 70.4609 319.382H160.438C161.003 319.382 161.461 319.84 161.461 320.405V326.539C161.461 327.104 161.003 327.562 160.438 327.562H70.4609C69.8962 327.562 69.4385 327.104 69.4385 326.539V320.405Z" fill="white"/>
<g filter="url(#filter1_dd)">
<path d="M90.5696 258.034C99.9665 258.034 107.61 265.739 107.61 275.211C107.61 286.125 95.3801 295.572 91.6418 298.205C90.993 298.662 90.146 298.662 89.4972 298.205C85.7589 295.572 73.5283 286.125 73.5283 275.211C73.5283 265.739 81.1725 258.034 90.5696 258.034Z" fill="#FA541C"/>
</g>
<path d="M93.6368 275.552C93.6368 277.434 92.1109 278.96 90.2285 278.96C88.3462 278.96 86.8203 277.434 86.8203 275.552C86.8203 273.669 88.3462 272.144 90.2285 272.144C92.1109 272.144 93.6368 273.669 93.6368 275.552Z" fill="white"/>
<g filter="url(#filter2_dd)">
<path d="M120.562 43.3145C120.562 41.0558 122.393 39.2246 124.651 39.2246H343.46C345.719 39.2246 347.55 41.0558 347.55 43.3145V289.73C347.55 291.989 345.719 293.82 343.46 293.82H124.651C122.393 293.82 120.562 291.989 120.562 289.73V43.3145Z" fill="white"/>
</g>
<path fill-rule="evenodd" clip-rule="evenodd" d="M347.55 166.522H120.562V165.5H347.55V166.522Z" fill="#F5F5F5"/>
<path d="M195.177 205.029C194.294 205.029 193.438 204.903 192.609 204.653C191.791 204.402 191.142 204.069 190.662 203.655L191.398 202.002C191.868 202.374 192.44 202.678 193.116 202.918C193.803 203.148 194.49 203.262 195.177 203.262C196.028 203.262 196.661 203.126 197.075 202.853C197.5 202.58 197.713 202.22 197.713 201.773C197.713 201.446 197.593 201.179 197.353 200.972C197.124 200.754 196.83 200.584 196.47 200.465C196.11 200.345 195.619 200.208 194.997 200.056C194.125 199.848 193.416 199.641 192.871 199.434C192.336 199.226 191.873 198.905 191.48 198.469C191.099 198.022 190.908 197.422 190.908 196.669C190.908 196.036 191.076 195.464 191.415 194.951C191.763 194.428 192.282 194.014 192.969 193.708C193.667 193.402 194.518 193.25 195.521 193.25C196.219 193.25 196.906 193.337 197.582 193.512C198.258 193.687 198.842 193.937 199.333 194.264L198.662 195.917C198.16 195.622 197.636 195.398 197.091 195.246C196.546 195.094 196.017 195.017 195.505 195.017C194.665 195.017 194.037 195.159 193.623 195.442C193.219 195.725 193.018 196.102 193.018 196.571C193.018 196.898 193.132 197.165 193.361 197.373C193.602 197.58 193.901 197.744 194.261 197.863C194.621 197.983 195.112 198.12 195.734 198.272C196.584 198.469 197.283 198.676 197.828 198.894C198.373 199.102 198.837 199.423 199.218 199.859C199.611 200.296 199.807 200.885 199.807 201.626C199.807 202.259 199.632 202.832 199.284 203.344C198.945 203.856 198.428 204.265 197.729 204.571C197.031 204.877 196.18 205.029 195.177 205.029Z" fill="black"/>
<path d="M204.895 196.031C206.181 196.031 207.162 196.342 207.839 196.964C208.526 197.574 208.87 198.501 208.87 199.745V204.865H206.94V203.802C206.688 204.183 206.328 204.478 205.86 204.685C205.402 204.882 204.845 204.98 204.191 204.98C203.537 204.98 202.964 204.87 202.473 204.652C201.983 204.423 201.6 204.113 201.328 203.72C201.066 203.316 200.936 202.864 200.936 202.362C200.936 201.577 201.224 200.95 201.803 200.481C202.392 200.001 203.313 199.761 204.567 199.761H206.825V199.63C206.825 199.02 206.639 198.55 206.269 198.223C205.909 197.896 205.369 197.732 204.649 197.732C204.158 197.732 203.673 197.809 203.193 197.961C202.724 198.114 202.326 198.326 201.999 198.599L201.197 197.111C201.655 196.762 202.205 196.494 202.85 196.309C203.493 196.124 204.175 196.031 204.895 196.031ZM204.616 203.491C205.129 203.491 205.582 203.376 205.974 203.147C206.377 202.907 206.661 202.57 206.825 202.133V201.119H204.715C203.537 201.119 202.948 201.506 202.948 202.28C202.948 202.652 203.095 202.946 203.389 203.164C203.684 203.382 204.093 203.491 204.616 203.491Z" fill="black"/>
<path d="M213.277 197.405C213.866 196.489 214.903 196.031 216.385 196.031V197.978C216.211 197.945 216.053 197.929 215.911 197.929C215.115 197.929 214.494 198.163 214.046 198.632C213.599 199.09 213.375 199.756 213.375 200.628V204.865H211.33V196.129H213.277V197.405Z" fill="black"/>
<path d="M221.246 196.031C222.533 196.031 223.515 196.342 224.191 196.964C224.878 197.574 225.221 198.501 225.221 199.745V204.865H223.291V203.802C223.041 204.183 222.681 204.478 222.211 204.685C221.753 204.882 221.197 204.98 220.543 204.98C219.888 204.98 219.316 204.87 218.825 204.652C218.334 204.423 217.953 204.113 217.68 203.72C217.418 203.316 217.287 202.864 217.287 202.362C217.287 201.577 217.576 200.95 218.154 200.481C218.743 200.001 219.664 199.761 220.919 199.761H223.177V199.63C223.177 199.02 222.991 198.55 222.62 198.223C222.26 197.896 221.721 197.732 221.001 197.732C220.51 197.732 220.024 197.809 219.545 197.961C219.075 198.114 218.678 198.326 218.35 198.599L217.549 197.111C218.007 196.762 218.558 196.494 219.201 196.309C219.844 196.124 220.526 196.031 221.246 196.031ZM220.968 203.491C221.48 203.491 221.933 203.376 222.326 203.147C222.73 202.907 223.013 202.57 223.177 202.133V201.119H221.066C219.888 201.119 219.299 201.506 219.299 202.28C219.299 202.652 219.447 202.946 219.741 203.164C220.036 203.382 220.445 203.491 220.968 203.491Z" fill="black"/>
<path d="M232.639 196.031C233.74 196.031 234.623 196.353 235.289 196.996C235.953 197.639 236.287 198.594 236.287 199.859V204.865H234.242V200.121C234.242 199.357 234.062 198.784 233.702 198.403C233.342 198.01 232.829 197.814 232.164 197.814C231.412 197.814 230.817 198.043 230.381 198.501C229.944 198.948 229.727 199.597 229.727 200.448V204.865H227.682V192.726H229.727V197.143C230.064 196.783 230.479 196.51 230.97 196.325C231.471 196.129 232.027 196.031 232.639 196.031Z" fill="black"/>
<path d="M192.834 214.33H190.135V213.352H196.647V214.33H193.948V221.225H192.834V214.33Z" fill="#8C8C8C"/>
<path d="M198.494 216.265C198.682 215.92 198.959 215.657 199.326 215.477C199.694 215.297 200.14 215.208 200.664 215.208V216.254C200.605 216.246 200.522 216.242 200.417 216.242C199.832 216.242 199.371 216.418 199.034 216.771C198.704 217.115 198.539 217.61 198.539 218.256V221.225H197.459V215.264H198.494V216.265Z" fill="#8C8C8C"/>
<path d="M204.043 215.208C204.868 215.208 205.498 215.41 205.933 215.815C206.375 216.22 206.596 216.823 206.596 217.626V221.225H205.573V220.437C205.393 220.715 205.134 220.928 204.797 221.079C204.466 221.221 204.073 221.292 203.616 221.292C202.948 221.292 202.412 221.131 202.007 220.809C201.609 220.487 201.411 220.062 201.411 219.538C201.411 219.013 201.602 218.593 201.985 218.278C202.367 217.956 202.974 217.794 203.807 217.794H205.516V217.581C205.516 217.115 205.381 216.76 205.111 216.512C204.842 216.265 204.444 216.141 203.919 216.141C203.567 216.141 203.222 216.201 202.885 216.321C202.547 216.433 202.262 216.587 202.03 216.782L201.58 215.972C201.888 215.725 202.255 215.538 202.682 215.41C203.109 215.275 203.563 215.208 204.043 215.208ZM203.796 220.46C204.208 220.46 204.564 220.37 204.864 220.19C205.164 220.003 205.381 219.74 205.516 219.403V218.57H203.852C202.937 218.57 202.48 218.878 202.48 219.493C202.48 219.792 202.596 220.028 202.828 220.201C203.06 220.374 203.383 220.46 203.796 220.46Z" fill="#8C8C8C"/>
<path d="M211.664 215.208C212.422 215.208 213.022 215.428 213.464 215.871C213.914 216.306 214.139 216.947 214.139 217.794V221.225H213.059V217.918C213.059 217.34 212.921 216.906 212.643 216.613C212.366 216.321 211.968 216.175 211.451 216.175C210.866 216.175 210.405 216.348 210.067 216.692C209.73 217.03 209.561 217.517 209.561 218.154V221.225H208.481V215.264H209.516V216.164C209.734 215.856 210.026 215.62 210.393 215.455C210.769 215.29 211.192 215.208 211.664 215.208Z" fill="#8C8C8C"/>
<path d="M217.735 221.292C217.247 221.292 216.779 221.229 216.329 221.101C215.879 220.966 215.526 220.797 215.271 220.595L215.721 219.74C215.983 219.927 216.302 220.078 216.677 220.19C217.052 220.303 217.431 220.359 217.813 220.359C218.758 220.359 219.23 220.089 219.23 219.549C219.23 219.369 219.166 219.227 219.039 219.122C218.911 219.016 218.75 218.942 218.556 218.897C218.368 218.844 218.098 218.788 217.746 218.728C217.265 218.653 216.872 218.566 216.565 218.469C216.264 218.372 216.006 218.206 215.789 217.974C215.571 217.742 215.463 217.416 215.463 216.996C215.463 216.456 215.688 216.024 216.138 215.702C216.587 215.372 217.191 215.208 217.948 215.208C218.345 215.208 218.743 215.257 219.14 215.354C219.537 215.451 219.863 215.583 220.119 215.747L219.658 216.602C219.17 216.287 218.597 216.13 217.937 216.13C217.479 216.13 217.13 216.204 216.891 216.355C216.651 216.505 216.531 216.703 216.531 216.951C216.531 217.146 216.599 217.299 216.734 217.412C216.869 217.524 217.033 217.607 217.228 217.659C217.431 217.712 217.712 217.772 218.072 217.839C218.552 217.922 218.938 218.012 219.23 218.109C219.53 218.199 219.785 218.357 219.995 218.582C220.205 218.807 220.31 219.122 220.31 219.526C220.31 220.066 220.077 220.498 219.613 220.82C219.155 221.135 218.529 221.292 217.735 221.292Z" fill="#8C8C8C"/>
<path d="M221.546 212.879H222.626V221.225H221.546V212.879Z" fill="#8C8C8C"/>
<path d="M226.746 215.208C227.57 215.208 228.2 215.41 228.636 215.815C229.077 216.22 229.299 216.823 229.299 217.626V221.225H228.276V220.437C228.096 220.715 227.837 220.928 227.5 221.079C227.169 221.221 226.776 221.292 226.319 221.292C225.651 221.292 225.115 221.131 224.71 220.809C224.313 220.487 224.114 220.062 224.114 219.538C224.114 219.013 224.305 218.593 224.688 218.278C225.07 217.956 225.678 217.794 226.51 217.794H228.219V217.581C228.219 217.115 228.085 216.76 227.815 216.512C227.545 216.265 227.147 216.141 226.622 216.141C226.27 216.141 225.925 216.201 225.588 216.321C225.25 216.433 224.965 216.587 224.733 216.782L224.283 215.972C224.59 215.725 224.958 215.538 225.385 215.41C225.813 215.275 226.266 215.208 226.746 215.208ZM226.499 220.46C226.911 220.46 227.267 220.37 227.567 220.19C227.867 220.003 228.085 219.74 228.219 219.403V218.57H226.555C225.64 218.57 225.183 218.878 225.183 219.493C225.183 219.792 225.298 220.028 225.531 220.201C225.764 220.374 226.086 220.46 226.499 220.46Z" fill="#8C8C8C"/>
<path d="M234.537 220.876C234.379 221.011 234.184 221.116 233.952 221.191C233.72 221.258 233.479 221.292 233.232 221.292C232.632 221.292 232.167 221.131 231.837 220.809C231.507 220.486 231.342 220.025 231.342 219.425V216.152H230.33V215.264H231.342V213.959H232.422V215.264H234.132V216.152H232.422V219.38C232.422 219.702 232.501 219.95 232.658 220.122C232.823 220.295 233.056 220.381 233.356 220.381C233.686 220.381 233.967 220.287 234.199 220.1L234.537 220.876Z" fill="#8C8C8C"/>
<path d="M238.085 221.292C237.493 221.292 236.96 221.161 236.488 220.899C236.015 220.636 235.644 220.276 235.374 219.819C235.112 219.354 234.98 218.829 234.98 218.244C234.98 217.659 235.112 217.138 235.374 216.681C235.644 216.216 236.015 215.856 236.488 215.601C236.96 215.338 237.493 215.208 238.085 215.208C238.678 215.208 239.206 215.338 239.671 215.601C240.143 215.856 240.511 216.216 240.773 216.681C241.043 217.138 241.178 217.659 241.178 218.244C241.178 218.829 241.043 219.354 240.773 219.819C240.511 220.276 240.143 220.636 239.671 220.899C239.206 221.161 238.678 221.292 238.085 221.292ZM238.085 220.347C238.467 220.347 238.809 220.262 239.108 220.089C239.416 219.909 239.656 219.661 239.828 219.346C240.001 219.024 240.087 218.656 240.087 218.244C240.087 217.832 240.001 217.468 239.828 217.153C239.656 216.831 239.416 216.584 239.108 216.411C238.809 216.238 238.467 216.152 238.085 216.152C237.702 216.152 237.358 216.238 237.05 216.411C236.75 216.584 236.51 216.831 236.33 217.153C236.158 217.468 236.071 217.832 236.071 218.244C236.071 218.656 236.158 219.024 236.33 219.346C236.51 219.661 236.75 219.909 237.05 220.089C237.358 220.262 237.702 220.347 238.085 220.347Z" fill="#8C8C8C"/>
<path d="M243.593 216.265C243.78 215.92 244.058 215.657 244.426 215.477C244.793 215.297 245.239 215.208 245.764 215.208V216.254C245.704 216.246 245.621 216.242 245.517 216.242C244.932 216.242 244.471 216.418 244.133 216.771C243.803 217.115 243.638 217.61 243.638 218.256V221.225H242.559V215.264H243.593V216.265Z" fill="#8C8C8C"/>
<path d="M195.177 78.2423C194.294 78.2423 193.438 78.1169 192.609 77.866C191.791 77.6152 191.142 77.2826 190.662 76.8681L191.398 75.2157C191.868 75.5866 192.44 75.892 193.116 76.1319C193.803 76.3609 194.49 76.4754 195.177 76.4754C196.028 76.4754 196.661 76.3391 197.075 76.0664C197.5 75.7938 197.713 75.4339 197.713 74.9867C197.713 74.6595 197.593 74.3923 197.353 74.1851C197.124 73.967 196.83 73.798 196.47 73.6779C196.11 73.558 195.619 73.4217 194.997 73.2689C194.125 73.0618 193.416 72.8545 192.871 72.6473C192.336 72.4401 191.873 72.1184 191.48 71.6821C191.099 71.2349 190.908 70.6351 190.908 69.8825C190.908 69.25 191.076 68.6774 191.415 68.1648C191.763 67.6413 192.282 67.2269 192.969 66.9214C193.667 66.6161 194.518 66.4634 195.521 66.4634C196.219 66.4634 196.906 66.5507 197.582 66.7251C198.258 66.8997 198.842 67.1505 199.333 67.4777L198.662 69.13C198.16 68.8355 197.636 68.612 197.091 68.4592C196.546 68.3066 196.017 68.2302 195.505 68.2302C194.665 68.2302 194.037 68.372 193.623 68.6556C193.219 68.9392 193.018 69.3155 193.018 69.7844C193.018 70.1116 193.132 70.3788 193.361 70.586C193.602 70.7932 193.901 70.9568 194.261 71.0768C194.621 71.1968 195.112 71.3331 195.734 71.4858C196.584 71.6821 197.283 71.8893 197.828 72.1074C198.373 72.3147 198.837 72.6365 199.218 73.0726C199.611 73.5089 199.807 74.0979 199.807 74.8395C199.807 75.4721 199.632 76.0447 199.284 76.5572C198.945 77.0699 198.428 77.4789 197.729 77.7842C197.031 78.0896 196.18 78.2423 195.177 78.2423Z" fill="black"/>
<path d="M205.483 78.1931C204.6 78.1931 203.803 78.0023 203.095 77.6205C202.385 77.2388 201.829 76.7099 201.426 76.0336C201.033 75.3465 200.837 74.5722 200.837 73.7105C200.837 72.849 201.033 72.0801 201.426 71.4038C201.829 70.7277 202.385 70.1988 203.095 69.817C203.803 69.4353 204.6 69.2444 205.483 69.2444C206.377 69.2444 207.178 69.4353 207.888 69.817C208.596 70.1988 209.148 70.7277 209.54 71.4038C209.943 72.0801 210.145 72.849 210.145 73.7105C210.145 74.5722 209.943 75.3465 209.54 76.0336C209.148 76.7099 208.596 77.2388 207.888 77.6205C207.178 78.0023 206.377 78.1931 205.483 78.1931ZM205.483 76.4426C206.236 76.4426 206.857 76.1918 207.348 75.69C207.839 75.1884 208.084 74.5285 208.084 73.7105C208.084 72.8926 207.839 72.2328 207.348 71.731C206.857 71.2294 206.236 70.9785 205.483 70.9785C204.73 70.9785 204.109 71.2294 203.618 71.731C203.137 72.2328 202.898 72.8926 202.898 73.7105C202.898 74.5285 203.137 75.1884 203.618 75.69C204.109 76.1918 204.73 76.4426 205.483 76.4426Z" fill="black"/>
<path d="M216.78 69.2444C217.631 69.2444 218.388 69.4299 219.054 69.8006C219.73 70.1715 220.259 70.695 220.641 71.3711C221.022 72.0474 221.213 72.8271 221.213 73.7105C221.213 74.594 221.022 75.3792 220.641 76.0663C220.259 76.7426 219.73 77.2661 219.054 77.6368C218.388 78.0077 217.631 78.1931 216.78 78.1931C215.602 78.1931 214.67 77.8004 213.982 77.0152V81.2523H211.938V69.3425H213.884V70.4877C214.223 70.0733 214.637 69.7625 215.128 69.5552C215.63 69.3481 216.18 69.2444 216.78 69.2444ZM216.551 76.4426C217.303 76.4426 217.92 76.1918 218.4 75.69C218.89 75.1884 219.136 74.5285 219.136 73.7105C219.136 72.8926 218.89 72.2328 218.4 71.731C217.92 71.2294 217.303 70.9785 216.551 70.9785C216.06 70.9785 215.618 71.093 215.226 71.322C214.833 71.5402 214.522 71.8565 214.293 72.2709C214.064 72.6854 213.95 73.1653 213.95 73.7105C213.95 74.2559 214.064 74.7358 214.293 75.1502C214.522 75.5647 214.833 75.8864 215.226 76.1154C215.618 76.3336 216.06 76.4426 216.551 76.4426Z" fill="black"/>
<path d="M227.946 69.2443C229.047 69.2443 229.931 69.5661 230.596 70.2095C231.261 70.8531 231.594 71.8074 231.594 73.0725V78.0785H229.549V73.3342C229.549 72.5708 229.369 71.9983 229.01 71.6165C228.65 71.2238 228.136 71.0275 227.472 71.0275C226.719 71.0275 226.124 71.2566 225.689 71.7146C225.252 72.1619 225.034 72.8107 225.034 73.6614V78.0785H222.989V65.9397H225.034V70.3568C225.372 69.9969 225.787 69.7243 226.278 69.5388C226.779 69.3425 227.335 69.2443 227.946 69.2443Z" fill="black"/>
<path d="M234.024 69.3425H236.069V78.0785H234.024V69.3425ZM235.055 67.9029C234.684 67.9029 234.373 67.7884 234.122 67.5594C233.872 67.3195 233.746 67.025 233.746 66.6759C233.746 66.327 233.872 66.0379 234.122 65.8089C234.373 65.569 234.684 65.449 235.055 65.449C235.426 65.449 235.737 65.5635 235.987 65.7925C236.238 66.0107 236.364 66.2888 236.364 66.6269C236.364 66.9868 236.238 67.2922 235.987 67.543C235.747 67.783 235.436 67.9029 235.055 67.9029Z" fill="black"/>
<path d="M246.802 73.7596C246.802 73.9014 246.791 74.1032 246.77 74.3649H239.915C240.035 75.0085 240.346 75.521 240.848 75.9027C241.36 76.2736 241.993 76.4589 242.745 76.4589C243.705 76.4589 244.496 76.1427 245.117 75.5101L246.213 76.7698C245.821 77.2388 245.325 77.5933 244.725 77.8331C244.125 78.0731 243.449 78.1931 242.696 78.1931C241.736 78.1931 240.892 78.0023 240.16 77.6205C239.429 77.2388 238.863 76.7099 238.459 76.0336C238.066 75.3465 237.87 74.5722 237.87 73.7105C237.87 72.8598 238.061 72.0965 238.443 71.4202C238.835 70.7331 239.375 70.1988 240.062 69.817C240.749 69.4353 241.523 69.2444 242.385 69.2444C243.236 69.2444 243.994 69.4353 244.659 69.817C245.335 70.1878 245.859 70.7167 246.23 71.4038C246.611 72.0801 246.802 72.8654 246.802 73.7596ZM242.385 70.8803C241.731 70.8803 241.175 71.0767 240.717 71.4693C240.27 71.8511 239.997 72.3636 239.899 73.0071H244.856C244.769 72.3746 244.501 71.8619 244.054 71.4693C243.607 71.0767 243.051 70.8803 242.385 70.8803Z" fill="black"/>
<path d="M198.57 93.4158L198.559 87.6797L195.713 92.4598H195.196L192.35 87.7134V93.4158H191.271V85.5427H192.193L195.477 91.0764L198.716 85.5427H199.638L199.65 93.4158H198.57Z" fill="#8C8C8C"/>
<path d="M203.914 87.3984C204.739 87.3984 205.369 87.6009 205.804 88.0058C206.246 88.4107 206.467 89.0143 206.467 89.8166V93.4157H205.444V92.6284C205.264 92.9059 205.005 93.1196 204.668 93.2695C204.337 93.412 203.944 93.4832 203.487 93.4832C202.819 93.4832 202.283 93.322 201.878 92.9996C201.481 92.6772 201.282 92.2535 201.282 91.7286C201.282 91.2038 201.473 90.7838 201.856 90.4689C202.238 90.1465 202.846 89.9853 203.678 89.9853H205.387V89.7716C205.387 89.3068 205.252 88.9505 204.983 88.7031C204.713 88.4557 204.315 88.332 203.79 88.332C203.438 88.332 203.093 88.392 202.756 88.5119C202.418 88.6244 202.133 88.7782 201.901 88.973L201.451 88.1632C201.759 87.9158 202.126 87.7284 202.553 87.6009C202.981 87.4659 203.435 87.3984 203.914 87.3984ZM203.667 92.6509C204.079 92.6509 204.436 92.5609 204.735 92.3809C205.035 92.1935 205.252 91.9311 205.387 91.5937V90.7613H203.723C202.808 90.7613 202.351 91.0688 202.351 91.6836C202.351 91.9836 202.467 92.2198 202.699 92.3922C202.931 92.5647 203.255 92.6509 203.667 92.6509Z" fill="#8C8C8C"/>
<path d="M211.536 87.3984C212.293 87.3984 212.892 87.6197 213.335 88.062C213.785 88.497 214.01 89.1381 214.01 89.9853V93.4157H212.93V90.109C212.93 89.5317 212.791 89.0968 212.514 88.8043C212.237 88.5119 211.839 88.3657 211.322 88.3657C210.737 88.3657 210.276 88.5382 209.938 88.8831C209.601 89.2205 209.432 89.7079 209.432 90.3452V93.4157H208.353V87.4547H209.387V88.3544C209.605 88.0471 209.898 87.8109 210.265 87.6459C210.64 87.4809 211.063 87.3984 211.536 87.3984Z" fill="#8C8C8C"/>
<path d="M218.065 87.3984C218.891 87.3984 219.52 87.6009 219.955 88.0058C220.398 88.4107 220.619 89.0143 220.619 89.8166V93.4157H219.595V92.6284C219.415 92.9059 219.156 93.1196 218.819 93.2695C218.49 93.412 218.096 93.4832 217.638 93.4832C216.971 93.4832 216.435 93.322 216.03 92.9996C215.633 92.6772 215.434 92.2535 215.434 91.7286C215.434 91.2038 215.625 90.7838 216.007 90.4689C216.39 90.1465 216.997 89.9853 217.829 89.9853H219.539V89.7716C219.539 89.3068 219.404 88.9505 219.134 88.7031C218.864 88.4557 218.467 88.332 217.942 88.332C217.59 88.332 217.244 88.392 216.907 88.5119C216.57 88.6244 216.285 88.7782 216.052 88.973L215.602 88.1632C215.91 87.9158 216.277 87.7284 216.705 87.6009C217.132 87.4659 217.586 87.3984 218.065 87.3984ZM217.818 92.6509C218.231 92.6509 218.587 92.5609 218.886 92.3809C219.187 92.1935 219.404 91.9311 219.539 91.5937V90.7613H217.874C216.96 90.7613 216.502 91.0688 216.502 91.6836C216.502 91.9836 216.619 92.2198 216.851 92.3922C217.084 92.5647 217.406 92.6509 217.818 92.6509Z" fill="#8C8C8C"/>
<path d="M228.241 87.4547V92.6059C228.241 93.6482 227.982 94.4167 227.465 94.9116C226.947 95.414 226.175 95.6652 225.148 95.6652C224.585 95.6652 224.05 95.5864 223.539 95.4289C223.029 95.279 222.617 95.0616 222.302 94.7766L222.82 93.9443C223.097 94.1843 223.438 94.3717 223.843 94.5067C224.255 94.6492 224.679 94.7204 225.114 94.7204C225.811 94.7204 226.325 94.5554 226.655 94.2255C226.992 93.8956 227.161 93.3932 227.161 92.7184V92.246C226.906 92.5534 226.592 92.7858 226.216 92.9433C225.849 93.0933 225.447 93.1682 225.013 93.1682C224.443 93.1682 223.926 93.0483 223.461 92.8083C223.004 92.5609 222.644 92.2198 222.381 91.7848C222.118 91.3425 221.987 90.8401 221.987 90.2777C221.987 89.7154 222.118 89.2168 222.381 88.7818C222.644 88.3395 223.004 87.9983 223.461 87.7583C223.926 87.5185 224.443 87.3984 225.013 87.3984C225.463 87.3984 225.879 87.4809 226.261 87.6459C226.651 87.8109 226.97 88.0546 227.217 88.3769V87.4547H228.241ZM225.137 92.2235C225.526 92.2235 225.875 92.1411 226.183 91.976C226.497 91.8111 226.741 91.5824 226.914 91.29C227.094 90.9901 227.184 90.6527 227.184 90.2777C227.184 89.7004 226.992 89.2355 226.61 88.8831C226.228 88.5232 225.737 88.3432 225.137 88.3432C224.529 88.3432 224.034 88.5232 223.652 88.8831C223.269 89.2355 223.078 89.7004 223.078 90.2777C223.078 90.6527 223.164 90.9901 223.337 91.29C223.517 91.5824 223.76 91.8111 224.068 91.976C224.383 92.1411 224.739 92.2235 225.137 92.2235Z" fill="#8C8C8C"/>
<path d="M235.579 90.4689C235.579 90.5514 235.571 90.6601 235.557 90.7951H230.72C230.788 91.32 231.016 91.7436 231.406 92.066C231.803 92.3809 232.295 92.5384 232.88 92.5384C233.591 92.5384 234.165 92.2985 234.601 91.8186L235.197 92.5159C234.927 92.8308 234.589 93.0708 234.184 93.2357C233.787 93.4008 233.341 93.4832 232.846 93.4832C232.216 93.4832 231.657 93.3558 231.17 93.1008C230.683 92.8384 230.304 92.4747 230.034 92.0098C229.771 91.545 229.641 91.02 229.641 90.4352C229.641 89.8579 229.767 89.3367 230.023 88.8718C230.285 88.407 230.642 88.0471 231.092 87.7921C231.549 87.5297 232.062 87.3984 232.632 87.3984C233.202 87.3984 233.708 87.5297 234.151 87.7921C234.601 88.0471 234.949 88.407 235.197 88.8718C235.451 89.3367 235.579 89.8691 235.579 90.4689ZM232.632 88.3095C232.115 88.3095 231.679 88.4669 231.328 88.7818C230.982 89.0968 230.78 89.5092 230.72 90.019H234.544C234.484 89.5167 234.278 89.108 233.926 88.7931C233.58 88.4707 233.15 88.3095 232.632 88.3095Z" fill="#8C8C8C"/>
<path d="M238 88.4557C238.187 88.1108 238.465 87.8483 238.832 87.6684C239.199 87.4884 239.646 87.3984 240.17 87.3984V88.4444C240.11 88.437 240.028 88.4332 239.923 88.4332C239.338 88.4332 238.877 88.6095 238.539 88.9618C238.209 89.3068 238.045 89.8017 238.045 90.4464V93.4157H236.965V87.4547H238V88.4557Z" fill="#8C8C8C"/>
<path d="M141.012 114.888C141.012 113.758 141.927 112.843 143.057 112.843H325.057C326.187 112.843 327.102 113.758 327.102 114.888V123.067C327.102 124.197 326.187 125.112 325.057 125.112H143.057C141.927 125.112 141.012 124.197 141.012 123.067V114.888Z" fill="#FFD8BF"/>
<path d="M141.012 242.697C141.012 241.567 141.927 240.652 143.057 240.652H325.057C326.187 240.652 327.102 241.567 327.102 242.697V250.876C327.102 252.006 326.187 252.921 325.057 252.921H143.057C141.927 252.921 141.012 252.006 141.012 250.876V242.697Z" fill="#D6E4FF"/>
<path d="M141.012 135.337C141.012 134.207 141.927 133.292 143.057 133.292H299.495C300.625 133.292 301.54 134.207 301.54 135.337V143.517C301.54 144.647 300.625 145.562 299.495 145.562H143.057C141.927 145.562 141.012 144.647 141.012 143.517V135.337Z" fill="#FFD8BF"/>
<path d="M141.012 263.146C141.012 262.016 141.927 261.101 143.057 261.101H273.933C275.063 261.101 275.978 262.016 275.978 263.146V271.326C275.978 272.456 275.063 273.371 273.933 273.371H143.057C141.927 273.371 141.012 272.456 141.012 271.326V263.146Z" fill="#D6E4FF"/>
<path d="M166.755 99.8712C177.66 96.9489 184.134 85.7384 181.21 74.832C178.288 63.9255 167.078 57.4531 156.171 60.3756C145.265 63.2979 138.793 74.5084 141.715 85.4148C144.638 96.3212 155.848 102.794 166.755 99.8712Z" fill="#FF7A45"/>
<path d="M166.883 99.8665C171.255 98.7097 175.117 96.1292 177.859 92.5326C176.904 90.7882 175.62 89.2455 174.078 87.9899C171.042 85.4026 171.62 76.3919 171.62 76.3919L160.763 73.0483L149.518 77.7801C149.518 77.7801 150.544 83.6114 147.892 86.5619C147.394 87.0993 145.498 88.5073 143.781 90.3881C146.065 94.2777 149.561 97.3112 153.734 99.0232C157.907 100.735 162.526 101.032 166.883 99.8665Z" fill="#000103"/>
<path d="M158.559 98.7021L158.391 87.756C158.391 87.756 160.181 87.9351 161.799 88.0146C163.415 88.0943 164.575 87.2733 165.196 88.1292L166.302 86.8057L167.531 98.7817L167.625 99.1349L158.669 99.0853C158.6 98.9691 158.562 98.8371 158.559 98.7021Z" fill="#E7B1A0"/>
<path d="M166.835 92.0348C166.835 92.0348 161.551 93.8161 158.336 87.0295H166.356L166.835 92.0348Z" fill="#B57D6B"/>
<path d="M149.529 77.1117C150.126 83.759 157.49 87.7494 163.858 86.7991C167.257 86.3016 174.018 79.694 173.029 73.0964C172.038 66.4989 166.734 62.9016 160.36 63.7872C154.444 64.6082 148.828 69.2952 149.529 77.1117Z" fill="#000103"/>
<path d="M168.834 79.8651C168.944 80.471 169.192 81.0433 169.56 81.5368C169.891 81.9855 170.343 82.3306 170.864 82.5319C171.33 82.7108 171.845 82.7108 172.312 82.5319C172.784 82.3386 173.175 81.9867 173.416 81.5368C173.692 81.0239 173.828 80.4472 173.81 79.8651C173.792 79.2508 173.636 78.6485 173.351 78.1037C173.089 77.5805 172.694 77.1347 172.207 76.8101C171.78 76.5227 171.267 76.3909 170.754 76.437C170.426 76.4737 170.113 76.5935 169.844 76.7852C169.56 76.9892 169.325 77.2544 169.157 77.5614C168.972 77.8978 168.851 78.2655 168.799 78.646C168.743 79.0547 168.753 79.4696 168.829 79.875L168.834 79.8651Z" fill="#B57D6B"/>
<path d="M154.117 75.7449C154.613 78.8952 155.447 81.9829 156.604 84.9547C157.045 86.0024 157.691 86.9513 158.505 87.7459C159.302 88.524 160.253 89.1273 161.297 89.5172L161.689 89.6963C162.822 90.2013 164.073 90.3821 165.302 90.2188C166.523 90.0528 167.674 89.5459 168.621 88.7559C169.557 88.0608 170.324 87.1627 170.864 86.1289C171.427 85.0653 171.752 83.8923 171.82 82.6908C171.867 79.5303 171.683 76.3707 171.267 73.2372C171.267 73.2372 170.551 63.5847 161.301 65.1321C152.051 66.6795 154.117 75.7449 154.117 75.7449Z" fill="#E7B1A0"/>
<path d="M166.222 67.4458C166.222 67.4458 164.332 75.0286 152.559 79.0985C152.559 79.0985 149.798 66.595 158.803 64.3213C158.784 64.2765 163.172 62.5449 166.222 67.4458Z" fill="#000103"/>
<path d="M163.53 68.2867C163.53 68.2867 167.177 73.9887 173.173 75.0286C173.173 75.0286 172.541 64.7541 162.511 64.0376C162.516 64.0725 163.953 62.943 163.53 68.2867Z" fill="#000103"/>
<path d="M160.958 80.4768C161.036 80.7926 161.178 81.0889 161.375 81.3475C161.437 81.4422 161.519 81.5215 161.616 81.5794C161.712 81.6372 161.82 81.6719 161.933 81.6808C162.112 81.6808 162.257 81.5366 162.341 81.3027C162.435 81.0137 162.456 80.7065 162.406 80.4071C162.375 80.215 162.325 80.0266 162.257 79.8449C162.192 79.6693 162.107 79.5021 162.002 79.3473C161.92 79.222 161.815 79.1124 161.694 79.0239C161.603 78.956 161.494 78.9194 161.38 78.9194C161.33 78.9229 161.28 78.9366 161.235 78.9597C161.189 78.9828 161.149 79.0147 161.117 79.0538C161.034 79.153 160.976 79.2707 160.948 79.397C160.909 79.5599 160.894 79.7275 160.903 79.8946C160.91 80.0862 160.939 80.2764 160.988 80.4618L160.958 80.4768Z" fill="#000103"/>
<path d="M168.63 79.1482C168.709 79.4641 168.851 79.7604 169.048 80.019C169.108 80.1136 169.191 80.193 169.287 80.2509C169.385 80.3087 169.493 80.3434 169.605 80.3523C169.784 80.3523 169.928 80.208 170.013 79.9742C170.1 79.6836 170.116 79.3763 170.058 79.0786C170.028 78.8865 169.978 78.698 169.909 78.5163C169.845 78.3408 169.76 78.1737 169.655 78.0188C169.573 77.8934 169.467 77.7839 169.347 77.6954C169.252 77.6308 169.138 77.5993 169.024 77.6058C168.972 77.6093 168.922 77.623 168.877 77.6461C168.832 77.6692 168.793 77.7012 168.76 77.7402C168.676 77.8394 168.619 77.9571 168.59 78.0834C168.552 78.2464 168.537 78.4139 168.545 78.5811C168.553 78.7726 168.581 78.9628 168.63 79.1482Z" fill="#000103"/>
<path d="M165.555 80.7155C165.607 80.6976 165.662 80.6902 165.717 80.6937C165.773 80.6973 165.827 80.7118 165.876 80.7364C165.925 80.7608 165.97 80.795 166.006 80.8367C166.043 80.8783 166.07 80.9269 166.088 80.9792L166.584 82.4968C166.587 82.52 166.587 82.5433 166.584 82.5664C166.605 82.6881 166.598 82.8127 166.564 82.9313C166.53 83.05 166.471 83.1598 166.39 83.2531C166.312 83.3439 166.213 83.4164 166.104 83.4654C165.994 83.5143 165.874 83.5387 165.754 83.5367H164.993C164.889 83.5254 164.793 83.4762 164.724 83.3986C164.654 83.3211 164.615 83.2205 164.615 83.1163C164.615 83.012 164.654 82.9115 164.724 82.8339C164.793 82.7563 164.889 82.7071 164.993 82.6958H165.763L165.267 81.2479C165.249 81.194 165.242 81.1372 165.247 81.0808C165.253 81.0244 165.27 80.9696 165.296 80.9199C165.324 80.8701 165.361 80.8263 165.405 80.7912C165.449 80.756 165.5 80.7303 165.555 80.7155Z" fill="black"/>
<path d="M163.689 78.1333L158.047 77.8646C158.047 77.8646 158.729 76.4715 161.032 76.6058C163.336 76.7401 163.689 78.1333 163.689 78.1333Z" fill="#000103"/>
<path d="M166.839 78.0437L171.456 75.556C170.988 75.268 170.446 75.1218 169.896 75.1351C169.346 75.1483 168.811 75.3204 168.357 75.6306C166.481 76.6755 166.839 78.0437 166.839 78.0437Z" fill="#000103"/>
<path d="M163.077 85.1935C163.101 85.1378 163.136 85.088 163.181 85.0475C163.226 85.007 163.279 84.977 163.337 84.9594C163.396 84.9419 163.456 84.9372 163.516 84.9459C163.577 84.9546 163.634 84.9763 163.684 85.0095C164.143 85.3021 164.673 85.4639 165.217 85.4772C165.745 85.4858 166.264 85.3386 166.709 85.0543C166.764 85.0239 166.823 85.005 166.884 84.9989C166.947 84.9927 167.008 84.9995 167.067 85.0187C167.127 85.0378 167.181 85.069 167.227 85.1103C167.273 85.1515 167.311 85.2019 167.336 85.2583C167.403 85.3704 167.425 85.503 167.399 85.6308C167.373 85.7585 167.301 85.8722 167.197 85.9499C166.622 86.3168 165.953 86.5071 165.271 86.4972C164.565 86.4835 163.876 86.2752 163.281 85.8952C163.17 85.8209 163.089 85.7099 163.051 85.5816C163.013 85.4533 163.023 85.3158 163.077 85.1935Z" fill="black"/>
<path d="M156.435 74.4067L155.644 81.9098L153.081 75.5909L156.435 74.4067Z" fill="#000103"/>
<path d="M166.74 99.8717C168.458 99.4352 170.113 98.7814 171.665 97.9262L162.287 96.5132L152.743 98.6178C157.112 100.684 162.073 101.128 166.74 99.8717Z" fill="#E7B1A0"/>
<path d="M151.857 81.895C151.991 82.5322 152.229 83.1426 152.564 83.7011C153.012 84.1933 153.553 84.5909 154.157 84.8704C154.328 84.9577 154.516 85.0073 154.708 85.0159C154.9 85.0245 155.092 84.9918 155.271 84.9201C155.638 84.7506 155.928 84.4485 156.082 84.0743C156.276 83.602 156.356 83.0906 156.315 82.5816C156.28 82.0208 156.139 81.4719 155.898 80.9645C155.734 80.4937 155.466 80.0665 155.112 79.7157C154.782 79.479 154.432 79.271 154.067 79.0937C153.56 78.9139 153.002 78.9406 152.515 79.1684C152.297 79.3513 152.127 79.5833 152.017 79.845C151.887 80.1516 151.809 80.4779 151.788 80.8103C151.763 81.1733 151.787 81.5381 151.857 81.895Z" fill="#E7B1A0"/>
<path d="M161.489 225.259C150.21 225.259 141.067 216.116 141.067 204.838C141.067 193.559 150.21 184.416 161.489 184.416C172.767 184.416 181.91 193.559 181.91 204.838C181.91 216.116 172.767 225.259 161.489 225.259Z" fill="#597EF7"/>
<path d="M170.919 194.372C170.919 194.372 170.596 197.807 171.534 199.774C172.472 201.742 174.817 202.451 174.419 207.908C174.021 213.365 175.111 213.372 175.523 214.85C175.523 214.85 154.985 218.646 143.619 214.354L146.027 207.977C147.647 204.306 147.754 198.517 147.754 198.517L155.615 194.432L170.919 194.372Z" fill="#000103"/>
<path d="M164.853 191.283C165.082 191.179 163.982 189.892 163.735 189.842C159.832 189.063 151.611 188.38 148.277 195.479C145.821 200.695 149.877 209.521 156.518 211.574C162.831 213.526 159.529 193.638 159.529 193.638L164.853 191.283Z" fill="#000103"/>
<path d="M164.749 203.786C164.735 204.334 164.906 204.869 165.243 205.322C165.578 205.775 166.062 206.127 166.633 206.331C167.205 206.537 167.839 206.587 168.453 206.474C169.068 206.363 169.636 206.094 170.086 205.704C170.537 205.312 170.849 204.816 170.983 204.277C171.117 203.738 171.067 203.182 170.84 202.678C170.613 202.174 170.217 201.745 169.706 201.445C169.194 201.145 168.586 200.989 167.962 200.995C167.548 200.998 167.137 201.073 166.752 201.215C166.366 201.357 166.014 201.564 165.715 201.822C165.417 202.082 165.177 202.389 165.012 202.726C164.846 203.064 164.757 203.423 164.749 203.786Z" fill="#B57D6B"/>
<path d="M164.824 211.637L164.787 218.106C164.779 220.38 163.31 221.6 160.974 221.603C158.975 221.601 157.111 220.608 156.887 218.717L157.459 208.53L164.824 211.637Z" fill="#E6B1A0"/>
<path d="M164.758 215.647C160.395 215.783 157.498 210.115 157.498 210.115L164.791 211.338L164.758 215.647Z" fill="#B57D6B"/>
<path d="M163.233 213.425C167.088 213.194 170.082 209.943 169.997 206.773L169.746 199.288C169.697 197.378 168.909 195.561 167.549 194.223C166.189 192.885 164.364 192.13 162.46 192.119C158.404 192.088 154.388 195.361 154.361 199.432L154.624 205.448C154.633 206.55 154.867 207.638 155.312 208.646C155.757 209.653 156.402 210.559 157.209 211.307C158.017 212.054 158.968 212.628 160.003 212.993C161.039 213.357 162.138 213.504 163.233 213.425Z" fill="#E6B1A0"/>
<path d="M157.153 198.191C159.202 200.6 156.763 204.634 156.763 204.634L150.636 198.726C150.636 198.726 155.942 196.76 157.153 198.191Z" fill="#000103"/>
<path d="M151.42 202.772C151.021 203.5 151.25 205.008 151.959 206.01C152.299 206.49 152.951 207.135 154.033 207.26C154.67 207.333 155.391 207.174 155.856 206.766C156.321 206.358 156.643 205.84 156.782 205.277C156.92 204.715 156.869 204.132 156.635 203.604C156.401 203.077 155.994 202.627 155.465 202.312C154.937 201.996 154.311 201.83 153.667 201.835C152.896 201.839 151.82 202.044 151.42 202.772Z" fill="#E6B1A0"/>
<path fill-rule="evenodd" clip-rule="evenodd" d="M165.571 205.222C165.333 205.262 165.17 205.443 165.207 205.626L165.756 206.897L164.735 207.021C164.494 207.05 164.318 207.224 164.342 207.409C164.365 207.594 164.579 207.721 164.819 207.691L166.302 207.511C166.422 207.497 166.531 207.445 166.605 207.367C166.678 207.29 166.709 207.195 166.691 207.103L166.071 205.482C166.033 205.298 165.81 205.182 165.571 205.222Z" fill="#1B172C"/>
<path d="M161.416 200.811C161.416 200.811 163.355 201.044 163.261 201.65C163.261 201.65 163.198 202.055 161.523 201.834C159.848 201.612 159.46 201.443 159.384 201.037C159.309 200.631 160.541 200.655 161.416 200.811Z" fill="#1B172C"/>
<path d="M167.582 200.349C167.582 200.349 166.007 200.732 166.051 201.332C166.051 201.332 166.101 201.739 167.474 201.386C168.848 201.032 169.238 200.755 169.253 200.409C169.267 200.065 168.32 200.148 167.582 200.349Z" fill="#1B172C"/>
<path fill-rule="evenodd" clip-rule="evenodd" d="M162.551 204.577C162.691 204.766 162.923 204.789 163.073 204.629C163.222 204.466 163.231 204.18 163.092 203.988L162.82 204.28C163.092 203.988 163.092 203.987 163.091 203.987L163.09 203.986L163.088 203.983L163.084 203.977L163.069 203.957C163.056 203.942 163.041 203.922 163.02 203.899C162.98 203.853 162.922 203.791 162.85 203.726C162.706 203.595 162.492 203.442 162.22 203.352C161.649 203.165 160.922 203.298 160.15 204.221C160.007 204.393 160.01 204.68 160.157 204.864C160.303 205.048 160.537 205.059 160.68 204.888C161.303 204.142 161.779 204.138 162.061 204.231C162.217 204.282 162.344 204.372 162.432 204.451C162.475 204.491 162.508 204.526 162.529 204.549C162.539 204.56 162.545 204.57 162.549 204.574L162.551 204.577Z" fill="#1B172C"/>
<path fill-rule="evenodd" clip-rule="evenodd" d="M168.828 203.862C168.968 204.051 169.2 204.075 169.349 203.914C169.498 203.752 169.507 203.465 169.368 203.273L169.096 203.566C169.368 203.273 169.368 203.272 169.367 203.272L169.366 203.271L169.364 203.268L169.359 203.262L169.345 203.242C169.333 203.227 169.317 203.208 169.297 203.184C169.256 203.138 169.199 203.077 169.126 203.011C168.982 202.882 168.768 202.727 168.496 202.637C167.926 202.45 167.199 202.583 166.427 203.506C166.284 203.678 166.287 203.965 166.433 204.149C166.579 204.333 166.813 204.345 166.956 204.173C167.579 203.428 168.056 203.423 168.338 203.517C168.493 203.568 168.62 203.658 168.708 203.736C168.752 203.776 168.785 203.811 168.805 203.835C168.815 203.846 168.821 203.855 168.825 203.859L168.828 203.862Z" fill="#1B172C"/>
<path fill-rule="evenodd" clip-rule="evenodd" d="M161.493 208.93C161.338 209.056 161.324 209.269 161.463 209.404C161.814 209.746 162.269 209.993 162.774 210.116C163.28 210.238 163.819 210.233 164.33 210.1C164.531 210.047 164.651 209.861 164.596 209.683C164.543 209.505 164.337 209.404 164.136 209.456C163.76 209.554 163.363 209.558 162.991 209.468C162.618 209.377 162.284 209.196 162.025 208.944C161.886 208.809 161.649 208.803 161.493 208.93Z" fill="#1B172C"/>
<path d="M164.292 189.718C164.292 189.718 172.795 191.863 171.469 195.261C170.49 197.779 162.453 200.188 154.473 199.397C154.473 199.397 150.572 196.781 154.614 193.119C154.618 193.155 156.586 189.397 164.292 189.718Z" fill="#000103"/>
<path d="M148.725 220.664L153.83 219.133C156.893 218.962 163.734 218.622 166.593 218.622C169.453 219.848 171.188 221.856 171.7 222.706C169.997 223.728 165.164 225.667 159.446 225.259C153.729 224.85 149.916 222.025 148.725 220.664Z" fill="white"/>
<path d="M167.233 218.83C165.348 218.084 163.312 217.69 161.244 217.674C158.698 217.843 156.179 218.304 153.744 219.046C153.744 219.046 154.354 222.354 161.358 222.303C162.735 222.319 164.108 222.086 165.396 221.616C166.684 221.123 166.901 220.235 167.233 218.83Z" fill="#E6B1A0"/>
<path d="M290.292 357.213H35.6963V381.753H290.292V357.213Z" fill="white"/>
<path d="M321.989 357.213H4V397.09H321.989V357.213Z" fill="white"/>
<path fill-rule="evenodd" clip-rule="evenodd" d="M35.6963 356.702C35.6963 356.42 35.9252 356.191 36.2075 356.191H289.781C290.063 356.191 290.292 356.42 290.292 356.702C290.292 356.984 290.063 357.213 289.781 357.213H36.2075C35.9252 357.213 35.6963 356.984 35.6963 356.702Z" fill="#D9D9D9"/>
</g>
<defs>
<filter id="filter0_dd" x="28.9883" y="216.337" width="266.989" height="170.876" filterUnits="userSpaceOnUse" color-interpolation-filters="sRGB">
<feFlood flood-opacity="0" result="BackgroundImageFix"/>
<feColorMatrix in="SourceAlpha" type="matrix" values="0 0 0 0 0 0 0 0 0 0 0 0 0 0 0 0 0 0 127 0"/>
<feOffset dy="10"/>
<feGaussianBlur stdDeviation="10"/>
<feColorMatrix type="matrix" values="0 0 0 0 0 0 0 0 0 0 0 0 0 0 0 0 0 0 0.1 0"/>
<feBlend mode="normal" in2="BackgroundImageFix" result="effect1_dropShadow"/>
<feColorMatrix in="SourceAlpha" type="matrix" values="0 0 0 0 0 0 0 0 0 0 0 0 0 0 0 0 0 0 127 0"/>
<feOffset/>
<feGaussianBlur stdDeviation="2"/>
<feColorMatrix type="matrix" values="0 0 0 0 0 0 0 0 0 0 0 0 0 0 0 0 0 0 0.1 0"/>
<feBlend mode="normal" in2="effect1_dropShadow" result="effect2_dropShadow"/>
<feBlend mode="normal" in="SourceGraphic" in2="effect2_dropShadow" result="shape"/>
</filter>
<filter id="filter1_dd" x="53.5283" y="248.034" width="74.0821" height="80.5136" filterUnits="userSpaceOnUse" color-interpolation-filters="sRGB">
<feFlood flood-opacity="0" result="BackgroundImageFix"/>
<feColorMatrix in="SourceAlpha" type="matrix" values="0 0 0 0 0 0 0 0 0 0 0 0 0 0 0 0 0 0 127 0"/>
<feOffset dy="10"/>
<feGaussianBlur stdDeviation="10"/>
<feColorMatrix type="matrix" values="0 0 0 0 0 0 0 0 0 0 0 0 0 0 0 0 0 0 0.1 0"/>
<feBlend mode="normal" in2="BackgroundImageFix" result="effect1_dropShadow"/>
<feColorMatrix in="SourceAlpha" type="matrix" values="0 0 0 0 0 0 0 0 0 0 0 0 0 0 0 0 0 0 127 0"/>
<feOffset/>
<feGaussianBlur stdDeviation="0.5"/>
<feColorMatrix type="matrix" values="0 0 0 0 0 0 0 0 0 0 0 0 0 0 0 0 0 0 0.2 0"/>
<feBlend mode="normal" in2="effect1_dropShadow" result="effect2_dropShadow"/>
<feBlend mode="normal" in="SourceGraphic" in2="effect2_dropShadow" result="shape"/>
</filter>
<filter id="filter2_dd" x="100.562" y="29.2246" width="266.989" height="294.596" filterUnits="userSpaceOnUse" color-interpolation-filters="sRGB">
<feFlood flood-opacity="0" result="BackgroundImageFix"/>
<feColorMatrix in="SourceAlpha" type="matrix" values="0 0 0 0 0 0 0 0 0 0 0 0 0 0 0 0 0 0 127 0"/>
<feOffset dy="10"/>
<feGaussianBlur stdDeviation="10"/>
<feColorMatrix type="matrix" values="0 0 0 0 0 0 0 0 0 0 0 0 0 0 0 0 0 0 0.1 0"/>
<feBlend mode="normal" in2="BackgroundImageFix" result="effect1_dropShadow"/>
<feColorMatrix in="SourceAlpha" type="matrix" values="0 0 0 0 0 0 0 0 0 0 0 0 0 0 0 0 0 0 127 0"/>
<feOffset/>
<feGaussianBlur stdDeviation="2"/>
<feColorMatrix type="matrix" values="0 0 0 0 0 0 0 0 0 0 0 0 0 0 0 0 0 0 0.1 0"/>
<feBlend mode="normal" in2="effect1_dropShadow" result="effect2_dropShadow"/>
<feBlend mode="normal" in="SourceGraphic" in2="effect2_dropShadow" result="shape"/>
</filter>
<clipPath id="clip0">
<path d="M0 0H388V388H0V0Z" fill="white"/>
</clipPath>
</defs>
</svg>
