<svg width="388" height="388" viewBox="0 0 388 388" fill="none" xmlns="http://www.w3.org/2000/svg">
<g filter="url(#filter0_dd)">
<path d="M24 34.0237C24 31.8015 25.8015 30 28.0237 30H359.976C362.199 30 364 31.8015 364 34.0237V353.905C364 356.128 362.199 357.929 359.976 357.929H28.0237C25.8015 357.929 24 356.128 24 353.905V34.0237Z" fill="white"/>
</g>
<path fill-rule="evenodd" clip-rule="evenodd" d="M362.994 141.908H25.0059V141.405H362.994V141.908Z" fill="#E8E8E8"/>
<path fill-rule="evenodd" clip-rule="evenodd" d="M362.994 269.66H25.0059V269.157H362.994V269.66Z" fill="#E8E8E8"/>
<path fill-rule="evenodd" clip-rule="evenodd" d="M193.749 269.408L193.749 141.657L194.252 141.657L194.252 269.408L193.749 269.408Z" fill="#E8E8E8"/>
<circle cx="232.729" cy="230.681" r="17.222" stroke="#D6E4FF" stroke-width="2.775"/>
<mask id="path-7-inside-1" fill="white">
<path d="M232.729 212.071C236.409 212.071 240.007 213.163 243.067 215.207C246.128 217.252 248.513 220.159 249.922 223.559C251.33 226.959 251.699 230.701 250.981 234.311C250.262 237.921 248.49 241.237 245.887 243.839C243.285 246.442 239.969 248.214 236.359 248.932C232.749 249.651 229.008 249.282 225.607 247.873C222.207 246.465 219.3 244.08 217.255 241.019C215.211 237.959 214.119 234.361 214.119 230.681H232.729V212.071Z"/>
</mask>
<path d="M232.729 212.071C236.409 212.071 240.007 213.163 243.067 215.207C246.128 217.252 248.513 220.159 249.922 223.559C251.33 226.959 251.699 230.701 250.981 234.311C250.262 237.921 248.49 241.237 245.887 243.839C243.285 246.442 239.969 248.214 236.359 248.932C232.749 249.651 229.008 249.282 225.607 247.873C222.207 246.465 219.3 244.08 217.255 241.019C215.211 237.959 214.119 234.361 214.119 230.681H232.729V212.071Z" stroke="#2F54EB" stroke-width="5.55" mask="url(#path-7-inside-1)"/>
<circle cx="232.728" cy="230.68" r="15.818" fill="white"/>
<path d="M228.396 227.613V228.488L225.66 234.654H224.262L226.907 228.719H224.141V229.916H222.924V227.613H228.396Z" fill="#4062EF"/>
<path d="M231.13 230.339C232.123 230.339 232.857 230.533 233.333 230.922C233.809 231.304 234.047 231.827 234.047 232.491C234.047 232.914 233.944 233.296 233.736 233.638C233.528 233.98 233.216 234.252 232.8 234.453C232.384 234.654 231.871 234.755 231.261 234.755C230.758 234.755 230.272 234.684 229.802 234.543C229.333 234.396 228.937 234.195 228.616 233.94L229.169 232.924C229.43 233.138 229.742 233.309 230.104 233.437C230.473 233.558 230.852 233.618 231.241 233.618C231.704 233.618 232.066 233.524 232.327 233.336C232.596 233.142 232.73 232.877 232.73 232.542C232.73 232.18 232.586 231.908 232.297 231.727C232.016 231.539 231.529 231.445 230.839 231.445H229.139L229.501 227.613H233.635V228.709H230.607L230.456 230.339H231.13Z" fill="#4062EF"/>
<path d="M236.172 231.405C235.669 231.405 235.263 231.227 234.955 230.872C234.647 230.516 234.492 230.05 234.492 229.474C234.492 228.897 234.647 228.431 234.955 228.075C235.263 227.72 235.669 227.542 236.172 227.542C236.675 227.542 237.081 227.72 237.389 228.075C237.704 228.424 237.862 228.89 237.862 229.474C237.862 230.057 237.704 230.526 237.389 230.882C237.081 231.231 236.675 231.405 236.172 231.405ZM240.397 227.613H241.383L236.575 234.654H235.589L240.397 227.613ZM236.172 230.701C236.447 230.701 236.658 230.594 236.806 230.379C236.96 230.164 237.037 229.863 237.037 229.474C237.037 229.085 236.96 228.783 236.806 228.568C236.658 228.354 236.447 228.246 236.172 228.246C235.911 228.246 235.699 228.357 235.538 228.578C235.384 228.793 235.307 229.091 235.307 229.474C235.307 229.856 235.384 230.158 235.538 230.379C235.699 230.594 235.911 230.701 236.172 230.701ZM240.789 234.724C240.286 234.724 239.881 234.547 239.572 234.191C239.264 233.836 239.109 233.37 239.109 232.793C239.109 232.216 239.264 231.75 239.572 231.395C239.881 231.039 240.286 230.862 240.789 230.862C241.292 230.862 241.698 231.039 242.006 231.395C242.322 231.75 242.479 232.216 242.479 232.793C242.479 233.37 242.322 233.836 242.006 234.191C241.698 234.547 241.292 234.724 240.789 234.724ZM240.789 234.02C241.058 234.02 241.269 233.913 241.423 233.698C241.577 233.477 241.654 233.175 241.654 232.793C241.654 232.411 241.577 232.112 241.423 231.898C241.269 231.677 241.058 231.566 240.789 231.566C240.521 231.566 240.31 231.673 240.156 231.888C240.001 232.102 239.924 232.404 239.924 232.793C239.924 233.182 240.001 233.484 240.156 233.698C240.31 233.913 240.521 234.02 240.789 234.02Z" fill="#4062EF"/>
<circle cx="279" cy="230.681" r="17.222" stroke="#FFD8BF" stroke-width="2.775"/>
<mask id="path-11-inside-2" fill="white">
<path d="M279 212.071C283.305 212.071 287.478 213.564 290.806 216.295C294.134 219.027 296.412 222.827 297.252 227.05C298.092 231.273 297.442 235.656 295.412 239.453C293.383 243.25 290.099 246.226 286.122 247.873C282.144 249.521 277.718 249.739 273.598 248.489C269.478 247.239 265.919 244.599 263.527 241.019C261.135 237.44 260.058 233.141 260.48 228.857C260.902 224.572 262.797 220.566 265.841 217.522L279 230.681V212.071Z"/>
</mask>
<path d="M279 212.071C283.305 212.071 287.478 213.564 290.806 216.295C294.134 219.027 296.412 222.827 297.252 227.05C298.092 231.273 297.442 235.656 295.412 239.453C293.383 243.25 290.099 246.226 286.122 247.873C282.144 249.521 277.718 249.739 273.598 248.489C269.478 247.239 265.919 244.599 263.527 241.019C261.135 237.44 260.058 233.141 260.48 228.857C260.902 224.572 262.797 220.566 265.841 217.522L279 230.681V212.071Z" stroke="#FA541C" stroke-width="5.55" mask="url(#path-11-inside-2)"/>
<circle cx="279" cy="230.68" r="15.818" fill="white"/>
<path d="M272.906 230.952C273.275 231.12 273.556 231.348 273.751 231.636C273.952 231.918 274.053 232.25 274.053 232.632C274.053 233.061 273.932 233.437 273.691 233.759C273.456 234.08 273.121 234.329 272.685 234.503C272.249 234.671 271.742 234.754 271.166 234.754C270.589 234.754 270.083 234.671 269.647 234.503C269.218 234.329 268.886 234.08 268.651 233.759C268.416 233.437 268.299 233.061 268.299 232.632C268.299 232.25 268.396 231.918 268.591 231.636C268.785 231.348 269.063 231.12 269.425 230.952C269.144 230.798 268.926 230.597 268.772 230.349C268.624 230.094 268.55 229.802 268.55 229.473C268.55 229.078 268.658 228.732 268.872 228.437C269.094 228.142 269.402 227.914 269.798 227.753C270.193 227.592 270.649 227.512 271.166 227.512C271.689 227.512 272.148 227.592 272.544 227.753C272.939 227.914 273.248 228.142 273.469 228.437C273.691 228.732 273.801 229.078 273.801 229.473C273.801 229.802 273.724 230.09 273.57 230.338C273.416 230.587 273.194 230.791 272.906 230.952ZM271.166 228.538C270.757 228.538 270.431 228.625 270.19 228.799C269.955 228.974 269.838 229.219 269.838 229.534C269.838 229.836 269.955 230.077 270.19 230.258C270.431 230.432 270.757 230.52 271.166 230.52C271.581 230.52 271.91 230.432 272.151 230.258C272.393 230.077 272.514 229.836 272.514 229.534C272.514 229.219 272.39 228.974 272.141 228.799C271.9 228.625 271.575 228.538 271.166 228.538ZM271.166 233.728C271.649 233.728 272.031 233.628 272.312 233.427C272.594 233.225 272.735 232.947 272.735 232.592C272.735 232.243 272.594 231.968 272.312 231.767C272.031 231.566 271.649 231.465 271.166 231.465C270.683 231.465 270.304 231.566 270.029 231.767C269.754 231.968 269.617 232.243 269.617 232.592C269.617 232.947 269.754 233.225 270.029 233.427C270.304 233.628 270.683 233.728 271.166 233.728Z" fill="#FA541C"/>
<path d="M279.367 230.952C279.736 231.12 280.018 231.348 280.212 231.636C280.414 231.918 280.514 232.25 280.514 232.632C280.514 233.061 280.393 233.437 280.152 233.759C279.917 234.08 279.582 234.329 279.146 234.503C278.71 234.671 278.204 234.754 277.627 234.754C277.05 234.754 276.544 234.671 276.108 234.503C275.679 234.329 275.347 234.08 275.112 233.759C274.878 233.437 274.76 233.061 274.76 232.632C274.76 232.25 274.858 231.918 275.052 231.636C275.246 231.348 275.525 231.12 275.887 230.952C275.605 230.798 275.387 230.597 275.233 230.349C275.086 230.094 275.012 229.802 275.012 229.473C275.012 229.078 275.119 228.732 275.334 228.437C275.555 228.142 275.863 227.914 276.259 227.753C276.655 227.592 277.111 227.512 277.627 227.512C278.15 227.512 278.61 227.592 279.005 227.753C279.401 227.914 279.709 228.142 279.931 228.437C280.152 228.732 280.263 229.078 280.263 229.473C280.263 229.802 280.186 230.09 280.031 230.338C279.877 230.587 279.656 230.791 279.367 230.952ZM277.627 228.538C277.218 228.538 276.893 228.625 276.651 228.799C276.417 228.974 276.299 229.219 276.299 229.534C276.299 229.836 276.417 230.077 276.651 230.258C276.893 230.432 277.218 230.52 277.627 230.52C278.043 230.52 278.372 230.432 278.613 230.258C278.854 230.077 278.975 229.836 278.975 229.534C278.975 229.219 278.851 228.974 278.603 228.799C278.361 228.625 278.036 228.538 277.627 228.538ZM277.627 233.728C278.11 233.728 278.492 233.628 278.774 233.427C279.056 233.225 279.196 232.947 279.196 232.592C279.196 232.243 279.056 231.968 278.774 231.767C278.492 231.566 278.11 231.465 277.627 231.465C277.144 231.465 276.765 231.566 276.49 231.767C276.216 231.968 276.078 232.243 276.078 232.592C276.078 232.947 276.216 233.225 276.49 233.427C276.765 233.628 277.144 233.728 277.627 233.728Z" fill="#FA541C"/>
<path d="M282.733 231.405C282.23 231.405 281.824 231.227 281.516 230.872C281.207 230.516 281.053 230.05 281.053 229.473C281.053 228.897 281.207 228.431 281.516 228.075C281.824 227.72 282.23 227.542 282.733 227.542C283.236 227.542 283.642 227.72 283.95 228.075C284.265 228.424 284.423 228.89 284.423 229.473C284.423 230.057 284.265 230.526 283.95 230.882C283.642 231.23 283.236 231.405 282.733 231.405ZM286.958 227.612H287.944L283.135 234.654H282.15L286.958 227.612ZM282.733 230.701C283.008 230.701 283.219 230.593 283.367 230.379C283.521 230.164 283.598 229.862 283.598 229.473C283.598 229.084 283.521 228.783 283.367 228.568C283.219 228.353 283.008 228.246 282.733 228.246C282.471 228.246 282.26 228.357 282.099 228.578C281.945 228.793 281.868 229.091 281.868 229.473C281.868 229.856 281.945 230.157 282.099 230.379C282.26 230.593 282.471 230.701 282.733 230.701ZM287.35 234.724C286.847 234.724 286.441 234.547 286.133 234.191C285.824 233.836 285.67 233.37 285.67 232.793C285.67 232.216 285.824 231.75 286.133 231.395C286.441 231.039 286.847 230.862 287.35 230.862C287.853 230.862 288.259 231.039 288.567 231.395C288.882 231.75 289.04 232.216 289.04 232.793C289.04 233.37 288.882 233.836 288.567 234.191C288.259 234.547 287.853 234.724 287.35 234.724ZM287.35 234.02C287.618 234.02 287.83 233.913 287.984 233.698C288.138 233.477 288.215 233.175 288.215 232.793C288.215 232.411 288.138 232.112 287.984 231.898C287.83 231.676 287.618 231.566 287.35 231.566C287.082 231.566 286.871 231.673 286.716 231.888C286.562 232.102 286.485 232.404 286.485 232.793C286.485 233.182 286.562 233.484 286.716 233.698C286.871 233.913 287.082 234.02 287.35 234.02Z" fill="#FA541C"/>
<circle cx="325.272" cy="230.681" r="17.222" stroke="#FFF1B8" stroke-width="2.775"/>
<mask id="path-15-inside-3" fill="white">
<path d="M325.272 212.071C327.715 212.071 330.135 212.552 332.393 213.488C334.651 214.423 336.702 215.794 338.43 217.522C340.159 219.25 341.529 221.301 342.464 223.559C343.4 225.817 343.881 228.237 343.881 230.681C343.881 233.124 343.4 235.544 342.464 237.802C341.529 240.06 340.159 242.111 338.43 243.839C336.702 245.568 334.651 246.938 332.393 247.873C330.135 248.809 327.715 249.29 325.272 249.29L325.272 230.681V212.071Z"/>
</mask>
<path d="M325.272 212.071C327.715 212.071 330.135 212.552 332.393 213.488C334.651 214.423 336.702 215.794 338.43 217.522C340.159 219.25 341.529 221.301 342.464 223.559C343.4 225.817 343.881 228.237 343.881 230.681C343.881 233.124 343.4 235.544 342.464 237.802C341.529 240.06 340.159 242.111 338.43 243.839C336.702 245.568 334.651 246.938 332.393 247.873C330.135 248.809 327.715 249.29 325.272 249.29L325.272 230.681V212.071Z" stroke="#FFC53D" stroke-width="5.55" mask="url(#path-15-inside-3)"/>
<circle cx="325.273" cy="230.68" r="15.818" fill="white"/>
<path d="M317.509 230.338C318.501 230.338 319.236 230.533 319.712 230.922C320.188 231.304 320.426 231.827 320.426 232.491C320.426 232.914 320.322 233.296 320.114 233.638C319.906 233.98 319.595 234.251 319.179 234.453C318.763 234.654 318.25 234.754 317.64 234.754C317.137 234.754 316.651 234.684 316.181 234.543C315.712 234.396 315.316 234.194 314.994 233.94L315.547 232.924C315.809 233.138 316.121 233.309 316.483 233.437C316.852 233.557 317.231 233.618 317.62 233.618C318.082 233.618 318.444 233.524 318.706 233.336C318.974 233.142 319.108 232.877 319.108 232.541C319.108 232.179 318.964 231.908 318.676 231.727C318.394 231.539 317.908 231.445 317.217 231.445H315.517L315.879 227.612H320.014V228.709H316.986L316.835 230.338H317.509Z" fill="#FFC53D"/>
<path d="M324.017 234.754C323.454 234.754 322.951 234.614 322.508 234.332C322.066 234.044 321.717 233.628 321.462 233.085C321.207 232.535 321.08 231.884 321.08 231.133C321.08 230.382 321.207 229.735 321.462 229.192C321.717 228.642 322.066 228.226 322.508 227.944C322.951 227.656 323.454 227.512 324.017 227.512C324.58 227.512 325.083 227.656 325.526 227.944C325.975 228.226 326.327 228.642 326.582 229.192C326.837 229.735 326.964 230.382 326.964 231.133C326.964 231.884 326.837 232.535 326.582 233.085C326.327 233.628 325.975 234.044 325.526 234.332C325.083 234.614 324.58 234.754 324.017 234.754ZM324.017 233.618C324.52 233.618 324.916 233.41 325.204 232.994C325.499 232.578 325.647 231.958 325.647 231.133C325.647 230.308 325.499 229.688 325.204 229.272C324.916 228.856 324.52 228.649 324.017 228.649C323.521 228.649 323.125 228.856 322.83 229.272C322.542 229.688 322.398 230.308 322.398 231.133C322.398 231.958 322.542 232.578 322.83 232.994C323.125 233.41 323.521 233.618 324.017 233.618Z" fill="#FFC53D"/>
<path d="M329.317 231.405C328.814 231.405 328.408 231.227 328.1 230.872C327.791 230.516 327.637 230.05 327.637 229.473C327.637 228.897 327.791 228.431 328.1 228.075C328.408 227.72 328.814 227.542 329.317 227.542C329.82 227.542 330.225 227.72 330.534 228.075C330.849 228.424 331.007 228.89 331.007 229.473C331.007 230.057 330.849 230.526 330.534 230.882C330.225 231.23 329.82 231.405 329.317 231.405ZM333.542 227.612H334.527L329.719 234.654H328.733L333.542 227.612ZM329.317 230.701C329.592 230.701 329.803 230.593 329.95 230.379C330.105 230.164 330.182 229.862 330.182 229.473C330.182 229.084 330.105 228.783 329.95 228.568C329.803 228.353 329.592 228.246 329.317 228.246C329.055 228.246 328.844 228.357 328.683 228.578C328.529 228.793 328.452 229.091 328.452 229.473C328.452 229.856 328.529 230.157 328.683 230.379C328.844 230.593 329.055 230.701 329.317 230.701ZM333.934 234.724C333.431 234.724 333.025 234.547 332.717 234.191C332.408 233.836 332.254 233.37 332.254 232.793C332.254 232.216 332.408 231.75 332.717 231.395C333.025 231.039 333.431 230.862 333.934 230.862C334.437 230.862 334.843 231.039 335.151 231.395C335.466 231.75 335.624 232.216 335.624 232.793C335.624 233.37 335.466 233.836 335.151 234.191C334.843 234.547 334.437 234.724 333.934 234.724ZM333.934 234.02C334.202 234.02 334.413 233.913 334.568 233.698C334.722 233.477 334.799 233.175 334.799 232.793C334.799 232.411 334.722 232.112 334.568 231.898C334.413 231.676 334.202 231.566 333.934 231.566C333.666 231.566 333.454 231.673 333.3 231.888C333.146 232.102 333.069 232.404 333.069 232.793C333.069 233.182 333.146 233.484 333.3 233.698C333.454 233.913 333.666 234.02 333.934 234.02Z" fill="#FFC53D"/>
<path d="M71.2773 53.136C71.2773 52.5805 71.7277 52.1301 72.2833 52.1301H132.638C133.194 52.1301 133.644 52.5805 133.644 53.136V57.1597C133.644 57.7153 133.194 58.1656 132.638 58.1656H72.2833C71.7277 58.1656 71.2773 57.7153 71.2773 57.1597V53.136Z" fill="#E8E8E8"/>
<path d="M71.2773 165.799C71.2773 165.243 71.7277 164.793 72.2833 164.793H132.638C133.194 164.793 133.644 165.243 133.644 165.799V169.822C133.644 170.378 133.194 170.828 132.638 170.828H72.2833C71.7277 170.828 71.2773 170.378 71.2773 169.822V165.799Z" fill="#E8E8E8"/>
<path d="M241.277 165.799C241.277 165.243 241.728 164.793 242.283 164.793H302.638C303.194 164.793 303.644 165.243 303.644 165.799V169.822C303.644 170.378 303.194 170.828 302.638 170.828H242.283C241.728 170.828 241.277 170.378 241.277 169.822V165.799Z" fill="#E8E8E8"/>
<path d="M71.2773 63.1951C71.2773 62.6396 71.7277 62.1892 72.2833 62.1892H114.532C115.087 62.1892 115.538 62.6396 115.538 63.1951V67.2188C115.538 67.7743 115.087 68.2247 114.532 68.2247H72.2833C71.7277 68.2247 71.2773 67.7743 71.2773 67.2188V63.1951Z" fill="#E8E8E8"/>
<path d="M71.2773 175.858C71.2773 175.302 71.7277 174.852 72.2833 174.852H114.532C115.087 174.852 115.538 175.302 115.538 175.858V179.882C115.538 180.437 115.087 180.887 114.532 180.887H72.2833C71.7277 180.887 71.2773 180.437 71.2773 179.882V175.858Z" fill="#E8E8E8"/>
<path d="M241.277 175.858C241.277 175.302 241.728 174.852 242.283 174.852H284.532C285.087 174.852 285.538 175.302 285.538 175.858V179.882C285.538 180.437 285.087 180.887 284.532 180.887H242.283C241.728 180.887 241.277 180.437 241.277 179.882V175.858Z" fill="#E8E8E8"/>
<path d="M214.119 84.3196C214.119 83.7641 214.57 83.3137 215.125 83.3137H263.096C263.652 83.3137 264.102 83.7641 264.102 84.3196V88.3433C264.102 88.8989 263.652 89.3492 263.096 89.3492H215.125C214.57 89.3492 214.119 88.8989 214.119 88.3433V84.3196Z" fill="#D6E4FF"/>
<path d="M44.1191 209.053C44.1191 208.498 44.5695 208.047 45.1251 208.047H50.1546C50.7102 208.047 51.1606 208.498 51.1606 209.053V248.284C51.1606 248.839 50.7102 249.29 50.1546 249.29H45.1251C44.5695 249.29 44.1191 248.839 44.1191 248.284V209.053Z" fill="#2F54EB"/>
<path d="M57.1953 196.982C57.1953 196.427 57.6457 195.976 58.2012 195.976H63.2308C63.7864 195.976 64.2367 196.427 64.2367 196.982V248.284C64.2367 248.84 63.7864 249.29 63.2308 249.29H58.2012C57.6457 249.29 57.1953 248.84 57.1953 248.284V196.982Z" fill="#2F54EB"/>
<path d="M70.2715 237.219C70.2715 236.663 70.7218 236.213 71.2774 236.213H76.307C76.8625 236.213 77.3129 236.663 77.3129 237.219V248.284C77.3129 248.84 76.8625 249.29 76.307 249.29H71.2774C70.7218 249.29 70.2715 248.84 70.2715 248.284V237.219Z" fill="#2F54EB"/>
<path d="M83.3496 222.13C83.3496 221.575 83.8 221.124 84.3555 221.124H89.3851C89.9407 221.124 90.391 221.575 90.391 222.13V248.284C90.391 248.84 89.9407 249.29 89.3851 249.29H84.3555C83.8 249.29 83.3496 248.84 83.3496 248.284V222.13Z" fill="#2F54EB"/>
<path d="M96.4258 201.006C96.4258 200.45 96.8761 200 97.4317 200H102.461C103.017 200 103.467 200.45 103.467 201.006V248.284C103.467 248.84 103.017 249.29 102.461 249.29H97.4317C96.8761 249.29 96.4258 248.84 96.4258 248.284V201.006Z" fill="#2F54EB"/>
<path d="M109.504 210.059C109.504 209.504 109.954 209.053 110.51 209.053H115.539C116.095 209.053 116.545 209.504 116.545 210.059V248.284C116.545 248.84 116.095 249.29 115.539 249.29H110.51C109.954 249.29 109.504 248.84 109.504 248.284V210.059Z" fill="#2F54EB"/>
<path d="M122.58 230.177C122.58 229.622 123.03 229.172 123.586 229.172H128.616C129.171 229.172 129.621 229.622 129.621 230.177V248.284C129.621 248.839 129.171 249.29 128.616 249.29H123.586C123.03 249.29 122.58 248.839 122.58 248.284V230.177Z" fill="#2F54EB"/>
<path d="M135.656 243.255C135.656 242.699 136.107 242.249 136.662 242.249H141.692C142.247 242.249 142.698 242.699 142.698 243.255V248.284C142.698 248.84 142.247 249.29 141.692 249.29H136.662C136.107 249.29 135.656 248.84 135.656 248.284V243.255Z" fill="#2F54EB"/>
<path d="M148.734 247.278C148.734 246.722 149.185 246.272 149.74 246.272H154.77C155.325 246.272 155.776 246.722 155.776 247.278V248.284C155.776 248.839 155.325 249.29 154.77 249.29H149.74C149.185 249.29 148.734 248.839 148.734 248.284V247.278Z" fill="#2F54EB"/>
<path d="M161.811 236.213C161.811 235.658 162.261 235.207 162.816 235.207H167.846C168.402 235.207 168.852 235.658 168.852 236.213V248.284C168.852 248.84 168.402 249.29 167.846 249.29H162.816C162.261 249.29 161.811 248.84 161.811 248.284V236.213Z" fill="#2F54EB"/>
<path d="M272.752 84.3196C272.752 83.7641 273.202 83.3137 273.758 83.3137H296.737C297.293 83.3137 297.743 83.7641 297.743 84.3196V88.3433C297.743 88.8989 297.293 89.3492 296.737 89.3492H273.758C273.202 89.3492 272.752 88.8989 272.752 88.3433V84.3196Z" fill="#FFD8BF"/>
<path d="M306.395 84.3196C306.395 83.7641 306.845 83.3137 307.4 83.3137H342.876C343.431 83.3137 343.882 83.7641 343.882 84.3196V88.3433C343.882 88.8989 343.431 89.3492 342.876 89.3492H307.4C306.845 89.3492 306.395 88.8989 306.395 88.3433V84.3196Z" fill="#FFE7BA"/>
<path d="M214.119 100.414C214.119 99.8587 214.57 99.4083 215.125 99.4083H263.096C263.652 99.4083 264.102 99.8587 264.102 100.414V104.438C264.102 104.993 263.652 105.444 263.096 105.444H215.125C214.57 105.444 214.119 104.993 214.119 104.438V100.414Z" fill="#D6E4FF"/>
<path d="M272.752 100.414C272.752 99.8587 273.202 99.4083 273.758 99.4083H296.737C297.293 99.4083 297.743 99.8587 297.743 100.414V104.438C297.743 104.993 297.293 105.444 296.737 105.444H273.758C273.202 105.444 272.752 104.993 272.752 104.438V100.414Z" fill="#FFD8BF"/>
<path d="M306.395 100.414C306.395 99.8587 306.845 99.4083 307.4 99.4083H342.876C343.431 99.4083 343.882 99.8587 343.882 100.414V104.438C343.882 104.993 343.431 105.444 342.876 105.444H307.4C306.845 105.444 306.395 104.993 306.395 104.438V100.414Z" fill="#FFE7BA"/>
<path d="M214.119 116.509C214.119 115.953 214.57 115.503 215.125 115.503H263.096C263.652 115.503 264.102 115.953 264.102 116.509V120.533C264.102 121.088 263.652 121.539 263.096 121.539H215.125C214.57 121.539 214.119 121.088 214.119 120.533V116.509Z" fill="#D6E4FF"/>
<path d="M272.752 116.509C272.752 115.953 273.202 115.503 273.758 115.503H296.737C297.293 115.503 297.743 115.953 297.743 116.509V120.533C297.743 121.088 297.293 121.539 296.737 121.539H273.758C273.202 121.539 272.752 121.088 272.752 120.533V116.509Z" fill="#FFD8BF"/>
<path d="M306.395 116.509C306.395 115.953 306.845 115.503 307.4 115.503H342.876C343.431 115.503 343.882 115.953 343.882 116.509V120.533C343.882 121.088 343.431 121.539 342.876 121.539H307.4C306.845 121.539 306.395 121.088 306.395 120.533V116.509Z" fill="#FFE7BA"/>
<path d="M44.1191 84.3196C44.1191 83.7641 44.5695 83.3137 45.1251 83.3137H168.853C169.408 83.3137 169.859 83.7641 169.859 84.3196V88.3433C169.859 88.8989 169.408 89.3492 168.853 89.3492H45.1251C44.5695 89.3492 44.1191 88.8989 44.1191 88.3433V84.3196Z" fill="#D6E4FF"/>
<path d="M44.1191 100.414C44.1191 99.8587 44.5695 99.4083 45.1251 99.4083H168.853C169.408 99.4083 169.859 99.8587 169.859 100.414V104.438C169.859 104.993 169.408 105.444 168.853 105.444H45.1251C44.5695 105.444 44.1191 104.993 44.1191 104.438V100.414Z" fill="#FFD8BF"/>
<path d="M44.1191 116.509C44.1191 115.953 44.5695 115.503 45.1251 115.503H168.853C169.408 115.503 169.859 115.953 169.859 116.509V120.533C169.859 121.088 169.408 121.539 168.853 121.539H45.1251C44.5695 121.539 44.1191 121.088 44.1191 120.533V116.509Z" fill="#FFE7BA"/>
<path d="M44.1191 84.3196C44.1191 83.7641 44.5695 83.3137 45.1251 83.3137H116.545C117.101 83.3137 117.551 83.7641 117.551 84.3196V88.3433C117.551 88.8989 117.101 89.3492 116.545 89.3492H45.1251C44.5695 89.3492 44.1191 88.8989 44.1191 88.3433V84.3196Z" fill="#2F54EB"/>
<path d="M44.1191 100.414C44.1191 99.8587 44.5695 99.4083 45.1251 99.4083H142.699C143.255 99.4083 143.705 99.8587 143.705 100.414V104.438C143.705 104.993 143.255 105.444 142.699 105.444H45.1251C44.5695 105.444 44.1191 104.993 44.1191 104.438V100.414Z" fill="#FA541C"/>
<path d="M44.1191 116.509C44.1191 115.953 44.5695 115.503 45.1251 115.503H83.3499C83.9055 115.503 84.3558 115.953 84.3558 116.509V120.533C84.3558 121.088 83.9055 121.539 83.3499 121.539H45.1251C44.5695 121.539 44.1191 121.088 44.1191 120.533V116.509Z" fill="#FFC53D"/>
<path d="M66.2493 60.1775C66.2493 66.2886 61.2953 71.2426 55.1842 71.2426C49.0731 71.2426 44.1191 66.2886 44.1191 60.1775C44.1191 54.0664 49.0731 49.1124 55.1842 49.1124C61.2953 49.1124 66.2493 54.0664 66.2493 60.1775Z" fill="#E8E8E8"/>
<path d="M49.1484 55.1479H60.2135V57.1598H49.1484V55.1479Z" fill="white"/>
<path d="M49.1484 59.1715H58.2017V61.1833H49.1484V59.1715Z" fill="white"/>
<path d="M49.1484 63.1953H61.2194V65.2071H49.1484V63.1953Z" fill="white"/>
<path d="M66.2493 172.84C66.2493 178.951 61.2953 183.905 55.1842 183.905C49.0731 183.905 44.1191 178.951 44.1191 172.84C44.1191 166.729 49.0731 161.775 55.1842 161.775C61.2953 161.775 66.2493 166.729 66.2493 172.84Z" fill="#E8E8E8"/>
<path d="M50.1543 177.87L50.1543 168.649L52.1661 168.649L52.1661 177.87L50.1543 177.87Z" fill="white"/>
<path d="M54.1777 177.87L54.1777 170.325L56.1896 170.325L56.1896 177.87L54.1777 177.87Z" fill="white"/>
<path d="M58.2012 177.87L58.2012 167.811L60.213 167.811L60.213 177.87L58.2012 177.87Z" fill="white"/>
<path d="M236.249 172.84C236.249 178.951 231.295 183.905 225.184 183.905C219.073 183.905 214.119 178.951 214.119 172.84C214.119 166.729 219.073 161.775 225.184 161.775C231.295 161.775 236.249 166.729 236.249 172.84Z" fill="#E8E8E8"/>
<path d="M229.8 172.867H224.53V167.597C224.53 167.533 224.477 167.479 224.412 167.479H224.029C223.256 167.479 222.49 167.631 221.776 167.926C221.062 168.222 220.413 168.656 219.867 169.204C219.329 169.74 218.9 170.375 218.605 171.075C218.299 171.801 218.143 172.572 218.143 173.368C218.143 174.163 218.299 174.933 218.605 175.659C218.901 176.359 219.326 176.99 219.867 177.53C220.407 178.071 221.037 178.495 221.738 178.792C222.463 179.099 223.243 179.257 224.031 179.256C224.804 179.257 225.57 179.105 226.284 178.809C226.998 178.513 227.647 178.079 228.193 177.532C228.734 176.991 229.159 176.362 229.455 175.66C229.762 174.935 229.92 174.155 229.919 173.368V172.985C229.917 172.92 229.864 172.867 229.8 172.867Z" fill="white"/>
<path d="M231.576 171.546L231.537 171.13C231.412 169.775 230.811 168.496 229.841 167.531C228.873 166.563 227.596 165.964 226.233 165.837L225.816 165.799C225.746 165.793 225.688 165.846 225.688 165.916V171.569C225.688 171.634 225.741 171.687 225.805 171.687L231.458 171.673C231.527 171.671 231.582 171.614 231.576 171.546Z" fill="white"/>
<path d="M44.1191 290.532C44.1191 289.977 44.5695 289.526 45.1251 289.526H326.782C327.337 289.526 327.788 289.977 327.788 290.532V294.556C327.788 295.112 327.337 295.562 326.782 295.562H45.1251C44.5695 295.562 44.1191 295.112 44.1191 294.556V290.532Z" fill="#E8E8E8"/>
<path d="M44.1191 300.592C44.1191 300.036 44.5695 299.586 45.1251 299.586H273.468C274.024 299.586 274.474 300.036 274.474 300.592V304.616C274.474 305.171 274.024 305.621 273.468 305.621H45.1251C44.5695 305.621 44.1191 305.171 44.1191 304.616V300.592Z" fill="#E8E8E8"/>
<path d="M44.1191 322.722C44.1191 322.166 44.5695 321.716 45.1251 321.716H303.467C304.022 321.716 304.473 322.166 304.473 322.722V326.746C304.473 327.301 304.022 327.752 303.467 327.752H45.1251C44.5695 327.752 44.1191 327.301 44.1191 326.746V322.722Z" fill="#E8E8E8"/>
<path d="M44.1191 332.781C44.1191 332.226 44.5695 331.775 45.1251 331.775H195.958C196.513 331.775 196.963 332.226 196.963 332.781V336.805C196.963 337.36 196.513 337.811 195.958 337.811H45.1251C44.5695 337.811 44.1191 337.36 44.1191 336.805V332.781Z" fill="#E8E8E8"/>
<defs>
<filter id="filter0_dd" x="4" y="20" width="380" height="367.929" filterUnits="userSpaceOnUse" color-interpolation-filters="sRGB">
<feFlood flood-opacity="0" result="BackgroundImageFix"/>
<feColorMatrix in="SourceAlpha" type="matrix" values="0 0 0 0 0 0 0 0 0 0 0 0 0 0 0 0 0 0 127 0"/>
<feOffset dy="10"/>
<feGaussianBlur stdDeviation="10"/>
<feColorMatrix type="matrix" values="0 0 0 0 0 0 0 0 0 0 0 0 0 0 0 0 0 0 0.1 0"/>
<feBlend mode="normal" in2="BackgroundImageFix" result="effect1_dropShadow"/>
<feColorMatrix in="SourceAlpha" type="matrix" values="0 0 0 0 0 0 0 0 0 0 0 0 0 0 0 0 0 0 127 0"/>
<feOffset/>
<feGaussianBlur stdDeviation="2"/>
<feColorMatrix type="matrix" values="0 0 0 0 0 0 0 0 0 0 0 0 0 0 0 0 0 0 0.1 0"/>
<feBlend mode="normal" in2="effect1_dropShadow" result="effect2_dropShadow"/>
<feBlend mode="normal" in="SourceGraphic" in2="effect2_dropShadow" result="shape"/>
</filter>
</defs>
</svg>
