<svg width="388" height="388" viewBox="0 0 388 388" fill="none" xmlns="http://www.w3.org/2000/svg">
<g filter="url(#filter0_dd)">
<path d="M34.2783 56.1949C34.2783 53.955 36.0942 52.1392 38.334 52.1392H284.718C286.958 52.1392 288.774 53.955 288.774 56.1949V129.198C288.774 131.438 286.958 133.253 284.718 133.253H38.334C36.0942 133.253 34.2783 131.438 34.2783 129.198V56.1949Z" fill="white"/>
</g>
<g filter="url(#filter1_dd)">
<path d="M34.2783 242.758C34.2783 240.518 36.0942 238.702 38.334 238.702H284.718C286.958 238.702 288.774 240.518 288.774 242.758V315.76C288.774 318 286.958 319.816 284.718 319.816H38.334C36.0942 319.816 34.2783 318 34.2783 315.76V242.758Z" fill="white"/>
</g>
<g filter="url(#filter2_dd)">
<path d="M103.226 149.476C103.226 147.237 105.041 145.421 107.281 145.421H353.666C355.905 145.421 357.721 147.237 357.721 149.476V222.479C357.721 224.719 355.905 226.535 353.666 226.535H107.281C105.041 226.535 103.226 224.719 103.226 222.479V149.476Z" fill="white"/>
</g>
<path d="M106.673 88.7301C106.085 88.7301 105.516 88.6409 104.966 88.4624C104.423 88.2765 103.996 88.0386 103.684 87.7486L104.096 86.8786C104.394 87.1463 104.773 87.3656 105.234 87.5367C105.702 87.7002 106.182 87.7821 106.673 87.7821C107.32 87.7821 107.803 87.6743 108.123 87.4586C108.442 87.2355 108.602 86.9418 108.602 86.5775C108.602 86.3098 108.513 86.0942 108.334 85.9306C108.163 85.7596 107.948 85.6295 107.688 85.5403C107.435 85.451 107.074 85.3507 106.606 85.2391C106.018 85.0979 105.542 84.9565 105.178 84.8153C104.821 84.6741 104.513 84.4584 104.252 84.1684C104 83.871 103.873 83.4732 103.873 82.975C103.873 82.5586 103.981 82.1831 104.197 81.8486C104.42 81.514 104.754 81.2463 105.2 81.0455C105.647 80.8448 106.2 80.7444 106.862 80.7444C107.323 80.7444 107.777 80.8039 108.223 80.9228C108.669 81.0418 109.052 81.2128 109.372 81.4359L109.004 82.3281C108.676 82.12 108.327 81.9638 107.955 81.8597C107.583 81.7482 107.219 81.6924 106.862 81.6924C106.23 81.6924 105.754 81.8077 105.435 82.0382C105.122 82.2686 104.966 82.5661 104.966 82.9304C104.966 83.1981 105.055 83.4174 105.234 83.5885C105.412 83.752 105.632 83.8822 105.892 83.9788C106.16 84.068 106.52 84.1647 106.974 84.2688C107.561 84.41 108.033 84.5514 108.39 84.6926C108.747 84.8339 109.052 85.0495 109.305 85.3395C109.565 85.6295 109.695 86.0199 109.695 86.5106C109.695 86.9195 109.584 87.2951 109.361 87.6371C109.138 87.9717 108.799 88.2393 108.346 88.4401C107.892 88.6335 107.334 88.7301 106.673 88.7301Z" fill="#8C8C8C"/>
<path d="M113.588 88.7077C113.001 88.7077 112.473 88.5776 112.004 88.3173C111.536 88.0571 111.168 87.7002 110.9 87.2466C110.64 86.7856 110.51 86.2652 110.51 85.6852C110.51 85.1052 110.64 84.5884 110.9 84.1349C111.168 83.6739 111.536 83.317 112.004 83.0642C112.473 82.8039 113.001 82.6738 113.588 82.6738C114.175 82.6738 114.7 82.8039 115.161 83.0642C115.629 83.317 115.994 83.6739 116.253 84.1349C116.521 84.5884 116.655 85.1052 116.655 85.6852C116.655 86.2652 116.521 86.7856 116.253 87.2466C115.994 87.7002 115.629 88.0571 115.161 88.3173C114.7 88.5776 114.175 88.7077 113.588 88.7077ZM113.588 87.7708C113.967 87.7708 114.306 87.6854 114.603 87.5143C114.908 87.3359 115.146 87.0905 115.317 86.7782C115.488 86.4585 115.573 86.0941 115.573 85.6852C115.573 85.2763 115.488 84.9156 115.317 84.6033C115.146 84.2836 114.908 84.0383 114.603 83.8672C114.306 83.6962 113.967 83.6107 113.588 83.6107C113.209 83.6107 112.867 83.6962 112.562 83.8672C112.265 84.0383 112.027 84.2836 111.848 84.6033C111.677 84.9156 111.592 85.2763 111.592 85.6852C111.592 86.0941 111.677 86.4585 111.848 86.7782C112.027 87.0905 112.265 87.3359 112.562 87.5143C112.867 87.6854 113.209 87.7708 113.588 87.7708Z" fill="#8C8C8C"/>
<path d="M121.159 82.6738C121.731 82.6738 122.244 82.8003 122.699 83.053C123.152 83.3058 123.505 83.6591 123.758 84.1126C124.018 84.5661 124.148 85.0903 124.148 85.6852C124.148 86.2801 124.018 86.8079 123.758 87.2689C123.505 87.7225 123.152 88.0757 122.699 88.3285C122.244 88.5813 121.731 88.7077 121.159 88.7077C120.736 88.7077 120.345 88.6259 119.988 88.4623C119.639 88.2988 119.341 88.0608 119.096 87.7485V90.8045H118.025V82.7296H119.051V83.6665C119.289 83.3393 119.59 83.0939 119.955 82.9304C120.319 82.7593 120.72 82.6738 121.159 82.6738ZM121.07 87.7708C121.449 87.7708 121.787 87.6854 122.085 87.5143C122.389 87.3359 122.628 87.0905 122.799 86.7782C122.977 86.4585 123.067 86.0941 123.067 85.6852C123.067 85.2763 122.977 84.9156 122.799 84.6033C122.628 84.2836 122.389 84.0383 122.085 83.8672C121.787 83.6962 121.449 83.6107 121.07 83.6107C120.698 83.6107 120.359 83.6999 120.055 83.8784C119.757 84.0494 119.52 84.291 119.341 84.6033C119.17 84.9156 119.085 85.2763 119.085 85.6852C119.085 86.0941 119.17 86.4585 119.341 86.7782C119.512 87.0905 119.75 87.3359 120.055 87.5143C120.359 87.6854 120.698 87.7708 121.07 87.7708Z" fill="#8C8C8C"/>
<path d="M128.672 82.6737C129.422 82.6737 130.017 82.893 130.456 83.3317C130.903 83.763 131.126 84.3987 131.126 85.2389V88.6407H130.055V85.3616C130.055 84.7891 129.917 84.3578 129.642 84.0679C129.367 83.7779 128.973 83.6329 128.46 83.6329C127.88 83.6329 127.423 83.8039 127.088 84.1459C126.754 84.4805 126.586 84.9639 126.586 85.5958V88.6407H125.516V80.365H126.586V83.566C126.809 83.2834 127.099 83.0641 127.456 82.9079C127.82 82.7518 128.226 82.6737 128.672 82.6737Z" fill="#8C8C8C"/>
<path d="M132.995 82.7295H134.066V88.6407H132.995V82.7295ZM133.531 81.5919C133.323 81.5919 133.147 81.525 133.006 81.3911C132.873 81.2573 132.806 81.0938 132.806 80.9004C132.806 80.7071 132.873 80.5435 133.006 80.4097C133.147 80.2684 133.323 80.1978 133.531 80.1978C133.738 80.1978 133.91 80.2647 134.044 80.3985C134.185 80.525 134.256 80.6847 134.256 80.8781C134.256 81.0789 134.185 81.2499 134.044 81.3911C133.91 81.525 133.738 81.5919 133.531 81.5919Z" fill="#8C8C8C"/>
<path d="M141.341 85.7187C141.341 85.8005 141.334 85.9083 141.319 86.0421H136.523C136.59 86.5625 136.817 86.9827 137.203 87.3024C137.598 87.6147 138.084 87.7708 138.664 87.7708C139.371 87.7708 139.94 87.5329 140.371 87.057L140.962 87.7485C140.694 88.0608 140.36 88.2988 139.958 88.4623C139.565 88.6259 139.122 88.7077 138.631 88.7077C138.006 88.7077 137.453 88.5813 136.969 88.3285C136.486 88.0682 136.11 87.7077 135.843 87.2466C135.583 86.7856 135.452 86.2652 135.452 85.6852C135.452 85.1126 135.579 84.5959 135.831 84.1349C136.092 83.6739 136.445 83.317 136.891 83.0642C137.345 82.8039 137.854 82.6738 138.419 82.6738C138.985 82.6738 139.487 82.8039 139.925 83.0642C140.371 83.317 140.716 83.6739 140.962 84.1349C141.215 84.5959 141.341 85.1238 141.341 85.7187ZM138.419 83.5772C137.906 83.5772 137.475 83.7334 137.125 84.0457C136.783 84.358 136.583 84.7669 136.523 85.2725H140.315C140.256 84.7744 140.051 84.3691 139.702 84.0568C139.36 83.7371 138.932 83.5772 138.419 83.5772Z" fill="#8C8C8C"/>
<path d="M115.182 107.905L115.166 100.378L111.435 106.607H110.494L106.763 100.475V107.905H104.751V96.5493H106.487L110.997 104.077L115.425 96.5493H117.161L117.177 107.905H115.182Z" fill="black"/>
<path d="M123.197 99.145C124.474 99.145 125.447 99.4533 126.118 100.07C126.799 100.675 127.14 101.595 127.14 102.828V107.905H125.225V106.851C124.977 107.229 124.62 107.521 124.155 107.727C123.7 107.922 123.149 108.019 122.5 108.019C121.851 108.019 121.283 107.911 120.796 107.694C120.31 107.467 119.932 107.159 119.661 106.77C119.401 106.37 119.271 105.921 119.271 105.423C119.271 104.645 119.558 104.023 120.131 103.558C120.715 103.082 121.63 102.844 122.873 102.844H125.112V102.714C125.112 102.108 124.928 101.643 124.56 101.319C124.203 100.994 123.668 100.832 122.954 100.832C122.467 100.832 121.987 100.908 121.51 101.059C121.046 101.211 120.65 101.422 120.326 101.692L119.531 100.216C119.985 99.8697 120.532 99.6047 121.17 99.4208C121.808 99.237 122.484 99.145 123.197 99.145ZM122.922 106.543C123.431 106.543 123.879 106.429 124.268 106.202C124.669 105.964 124.949 105.629 125.112 105.196V104.19H123.019C121.851 104.19 121.267 104.574 121.267 105.342C121.267 105.71 121.413 106.002 121.705 106.218C121.997 106.435 122.402 106.543 122.922 106.543Z" fill="black"/>
<path d="M134.496 99.145C135.588 99.145 136.464 99.4641 137.124 100.102C137.784 100.74 138.113 101.687 138.113 102.941V107.905H136.085V103.201C136.085 102.444 135.907 101.876 135.55 101.497C135.193 101.108 134.685 100.913 134.025 100.913C133.279 100.913 132.69 101.14 132.257 101.595C131.824 102.038 131.608 102.682 131.608 103.525V107.905H129.58V99.2424H131.511V100.362C131.846 99.9616 132.268 99.6588 132.776 99.4533C133.284 99.2478 133.858 99.145 134.496 99.145Z" fill="black"/>
<path d="M143.832 99.145C145.109 99.145 146.082 99.4533 146.752 100.07C147.434 100.675 147.774 101.595 147.774 102.828V107.905H145.86V106.851C145.612 107.229 145.255 107.521 144.789 107.727C144.335 107.922 143.784 108.019 143.135 108.019C142.486 108.019 141.918 107.911 141.431 107.694C140.945 107.467 140.566 107.159 140.296 106.77C140.036 106.37 139.906 105.921 139.906 105.423C139.906 104.645 140.193 104.023 140.766 103.558C141.35 103.082 142.265 102.844 143.508 102.844H145.746V102.714C145.746 102.108 145.563 101.643 145.195 101.319C144.838 100.994 144.303 100.832 143.589 100.832C143.102 100.832 142.622 100.908 142.145 101.059C141.681 101.211 141.285 101.422 140.961 101.692L140.166 100.216C140.62 99.8697 141.167 99.6047 141.804 99.4208C142.443 99.237 143.118 99.145 143.832 99.145ZM143.556 106.543C144.065 106.543 144.514 106.429 144.903 106.202C145.303 105.964 145.584 105.629 145.746 105.196V104.19H143.654C142.486 104.19 141.902 104.574 141.902 105.342C141.902 105.71 142.048 106.002 142.34 106.218C142.632 106.435 143.037 106.543 143.556 106.543Z" fill="black"/>
<path d="M158.892 99.2424V106.591C158.892 109.641 157.335 111.166 154.22 111.166C153.387 111.166 152.598 111.058 151.851 110.842C151.105 110.636 150.489 110.333 150.002 109.933L150.91 108.408C151.289 108.722 151.765 108.971 152.338 109.155C152.922 109.349 153.511 109.447 154.106 109.447C155.058 109.447 155.756 109.23 156.199 108.798C156.642 108.365 156.864 107.705 156.864 106.818V106.364C156.518 106.743 156.097 107.029 155.599 107.224C155.101 107.419 154.555 107.516 153.96 107.516C153.138 107.516 152.392 107.343 151.721 106.997C151.061 106.64 150.537 106.143 150.148 105.504C149.77 104.866 149.58 104.136 149.58 103.314C149.58 102.492 149.77 101.768 150.148 101.14C150.537 100.502 151.061 100.01 151.721 99.6642C152.392 99.3181 153.138 99.145 153.96 99.145C154.588 99.145 155.156 99.2478 155.664 99.4533C156.183 99.6588 156.616 99.9724 156.961 100.394V99.2424H158.892ZM154.268 105.796C155.036 105.796 155.664 105.569 156.15 105.115C156.648 104.65 156.897 104.05 156.897 103.314C156.897 102.59 156.648 102 156.15 101.546C155.664 101.092 155.036 100.865 154.268 100.865C153.49 100.865 152.852 101.092 152.354 101.546C151.867 102 151.624 102.59 151.624 103.314C151.624 104.05 151.867 104.65 152.354 105.115C152.852 105.569 153.49 105.796 154.268 105.796Z" fill="black"/>
<path d="M169.54 103.623C169.54 103.763 169.529 103.963 169.508 104.223H162.71C162.829 104.861 163.137 105.369 163.635 105.748C164.143 106.115 164.771 106.299 165.517 106.299C166.468 106.299 167.253 105.986 167.869 105.358L168.956 106.608C168.567 107.073 168.074 107.424 167.48 107.662C166.885 107.9 166.215 108.019 165.468 108.019C164.516 108.019 163.678 107.83 162.954 107.451C162.229 107.073 161.666 106.548 161.267 105.877C160.877 105.196 160.683 104.428 160.683 103.574C160.683 102.73 160.871 101.973 161.25 101.303C161.64 100.621 162.175 100.091 162.856 99.7128C163.538 99.3343 164.305 99.145 165.16 99.145C166.004 99.145 166.755 99.3343 167.415 99.7128C168.085 100.081 168.604 100.605 168.972 101.286C169.351 101.957 169.54 102.736 169.54 103.623ZM165.16 100.767C164.511 100.767 163.96 100.962 163.505 101.351C163.061 101.73 162.792 102.238 162.694 102.876H167.61C167.523 102.249 167.258 101.741 166.815 101.351C166.371 100.962 165.819 100.767 165.16 100.767Z" fill="black"/>
<path d="M173.257 100.508C173.841 99.5993 174.868 99.145 176.339 99.145V101.076C176.166 101.043 176.008 101.027 175.869 101.027C175.079 101.027 174.462 101.259 174.019 101.724C173.575 102.179 173.354 102.838 173.354 103.704V107.905H171.326V99.2424H173.257V100.508Z" fill="black"/>
<path d="M105.4 275.292C104.932 275.292 104.497 275.196 104.095 275.002C103.694 274.802 103.37 274.523 103.125 274.166L103.772 273.408C104.203 274.025 104.746 274.333 105.4 274.333C105.839 274.333 106.17 274.199 106.393 273.932C106.623 273.664 106.739 273.27 106.739 272.75V268.366H103.917V267.396H107.843V272.694C107.843 273.557 107.635 274.207 107.218 274.646C106.809 275.076 106.203 275.292 105.4 275.292Z" fill="#8C8C8C"/>
<path d="M112 269.236C112.817 269.236 113.442 269.437 113.873 269.839C114.312 270.24 114.531 270.838 114.531 271.634V275.203H113.516V274.423C113.338 274.697 113.081 274.909 112.747 275.058C112.42 275.199 112.029 275.27 111.576 275.27C110.914 275.27 110.382 275.11 109.981 274.791C109.587 274.471 109.39 274.05 109.39 273.53C109.39 273.01 109.579 272.593 109.958 272.281C110.338 271.962 110.94 271.802 111.765 271.802H113.461V271.59C113.461 271.128 113.327 270.775 113.059 270.53C112.791 270.285 112.397 270.162 111.877 270.162C111.527 270.162 111.185 270.222 110.851 270.34C110.516 270.452 110.234 270.604 110.003 270.798L109.557 269.995C109.862 269.749 110.226 269.564 110.65 269.437C111.074 269.303 111.524 269.236 112 269.236ZM111.754 274.445C112.163 274.445 112.516 274.356 112.814 274.177C113.111 273.992 113.327 273.731 113.461 273.396V272.571H111.81C110.903 272.571 110.449 272.876 110.449 273.486C110.449 273.783 110.564 274.017 110.795 274.188C111.026 274.36 111.345 274.445 111.754 274.445Z" fill="#8C8C8C"/>
<path d="M123.796 269.236C124.539 269.236 125.126 269.452 125.558 269.883C125.996 270.314 126.216 270.954 126.216 271.802V275.203H125.145V271.924C125.145 271.351 125.012 270.92 124.744 270.63C124.483 270.34 124.108 270.196 123.617 270.196C123.074 270.196 122.643 270.367 122.324 270.709C122.003 271.043 121.844 271.527 121.844 272.158V275.203H120.773V271.924C120.773 271.351 120.64 270.92 120.372 270.63C120.111 270.34 119.736 270.196 119.245 270.196C118.702 270.196 118.271 270.367 117.952 270.709C117.631 271.043 117.472 271.527 117.472 272.158V275.203H116.401V269.292H117.427V270.173C117.642 269.868 117.925 269.638 118.275 269.482C118.624 269.318 119.022 269.236 119.468 269.236C119.929 269.236 120.338 269.33 120.695 269.515C121.052 269.701 121.327 269.972 121.521 270.329C121.744 269.988 122.052 269.72 122.446 269.526C122.848 269.333 123.297 269.236 123.796 269.236Z" fill="#8C8C8C"/>
<path d="M133.449 272.281C133.449 272.363 133.442 272.471 133.427 272.605H128.631C128.698 273.125 128.925 273.546 129.312 273.865C129.706 274.177 130.193 274.333 130.773 274.333C131.479 274.333 132.048 274.095 132.479 273.62L133.07 274.311C132.803 274.623 132.468 274.862 132.066 275.025C131.672 275.188 131.23 275.27 130.739 275.27C130.115 275.27 129.561 275.143 129.077 274.891C128.594 274.63 128.219 274.27 127.951 273.809C127.69 273.348 127.561 272.828 127.561 272.248C127.561 271.675 127.687 271.159 127.94 270.697C128.2 270.236 128.553 269.879 128.999 269.627C129.453 269.366 129.963 269.236 130.527 269.236C131.092 269.236 131.594 269.366 132.033 269.627C132.479 269.879 132.825 270.236 133.07 270.697C133.323 271.159 133.449 271.686 133.449 272.281ZM130.527 270.14C130.014 270.14 129.583 270.296 129.234 270.608C128.892 270.92 128.691 271.329 128.631 271.835H132.423C132.364 271.337 132.16 270.932 131.81 270.619C131.468 270.3 131.04 270.14 130.527 270.14Z" fill="#8C8C8C"/>
<path d="M136.52 275.27C136.037 275.27 135.572 275.207 135.126 275.081C134.679 274.947 134.331 274.779 134.077 274.579L134.523 273.731C134.784 273.917 135.1 274.066 135.471 274.177C135.843 274.289 136.219 274.345 136.598 274.345C137.535 274.345 138.003 274.077 138.003 273.541C138.003 273.363 137.94 273.222 137.813 273.118C137.688 273.013 137.528 272.939 137.334 272.895C137.148 272.843 136.881 272.787 136.531 272.727C136.055 272.653 135.665 272.567 135.36 272.471C135.063 272.374 134.806 272.21 134.59 271.98C134.375 271.75 134.267 271.426 134.267 271.01C134.267 270.474 134.49 270.046 134.936 269.727C135.382 269.4 135.981 269.236 136.732 269.236C137.126 269.236 137.52 269.285 137.914 269.381C138.308 269.478 138.632 269.608 138.884 269.772L138.427 270.619C137.944 270.307 137.375 270.151 136.72 270.151C136.267 270.151 135.921 270.225 135.683 270.374C135.446 270.523 135.326 270.72 135.326 270.965C135.326 271.159 135.393 271.311 135.527 271.422C135.661 271.534 135.825 271.616 136.018 271.668C136.219 271.719 136.497 271.779 136.854 271.846C137.331 271.928 137.713 272.018 138.003 272.114C138.301 272.203 138.554 272.359 138.761 272.582C138.97 272.805 139.074 273.118 139.074 273.519C139.074 274.055 138.844 274.482 138.382 274.802C137.929 275.114 137.309 275.27 136.52 275.27Z" fill="#8C8C8C"/>
<path d="M109.422 283.112C110.406 283.112 111.261 283.274 111.985 283.599C112.721 283.923 113.283 284.389 113.673 284.994C114.062 285.599 114.257 286.319 114.257 287.152C114.257 287.974 114.062 288.693 113.673 289.309C113.283 289.915 112.721 290.38 111.985 290.704C111.261 291.029 110.406 291.191 109.422 291.191H106.859V294.468H104.75V283.112H109.422ZM109.325 289.407C110.244 289.407 110.942 289.212 111.418 288.823C111.893 288.433 112.131 287.877 112.131 287.152C112.131 286.427 111.893 285.87 111.418 285.481C110.942 285.091 110.244 284.897 109.325 284.897H106.859V289.407H109.325Z" fill="black"/>
<path d="M117.857 287.07C118.441 286.162 119.468 285.708 120.94 285.708V287.638C120.766 287.606 120.61 287.589 120.469 287.589C119.679 287.589 119.063 287.822 118.62 288.287C118.177 288.741 117.955 289.401 117.955 290.266V294.468H115.927V285.805H117.857V287.07Z" fill="black"/>
<path d="M126.311 294.581C125.435 294.581 124.647 294.392 123.943 294.014C123.24 293.635 122.689 293.11 122.288 292.44C121.899 291.759 121.704 290.991 121.704 290.136C121.704 289.282 121.899 288.519 122.288 287.849C122.689 287.179 123.24 286.654 123.943 286.275C124.647 285.897 125.435 285.708 126.311 285.708C127.199 285.708 127.993 285.897 128.696 286.275C129.4 286.654 129.945 287.179 130.335 287.849C130.735 288.519 130.935 289.282 130.935 290.136C130.935 290.991 130.735 291.759 130.335 292.44C129.945 293.11 129.4 293.635 128.696 294.014C127.993 294.392 127.199 294.581 126.311 294.581ZM126.311 292.846C127.058 292.846 127.674 292.597 128.161 292.099C128.647 291.601 128.891 290.947 128.891 290.136C128.891 289.325 128.647 288.671 128.161 288.173C127.674 287.676 127.058 287.427 126.311 287.427C125.565 287.427 124.949 287.676 124.462 288.173C123.986 288.671 123.748 289.325 123.748 290.136C123.748 290.947 123.986 291.601 124.462 292.099C124.949 292.597 125.565 292.846 126.311 292.846Z" fill="black"/>
<path d="M136.606 294.581C135.73 294.581 134.94 294.392 134.238 294.014C133.535 293.635 132.984 293.11 132.583 292.44C132.194 291.759 131.999 290.991 131.999 290.136C131.999 289.282 132.194 288.519 132.583 287.849C132.984 287.179 133.535 286.654 134.238 286.275C134.94 285.897 135.73 285.708 136.606 285.708C137.493 285.708 138.288 285.897 138.991 286.275C139.694 286.654 140.24 287.179 140.63 287.849C141.03 288.519 141.23 289.282 141.23 290.136C141.23 290.991 141.03 291.759 140.63 292.44C140.24 293.11 139.694 293.635 138.991 294.014C138.288 294.392 137.493 294.581 136.606 294.581ZM136.606 292.846C137.353 292.846 137.969 292.597 138.456 292.099C138.942 291.601 139.186 290.947 139.186 290.136C139.186 289.325 138.942 288.671 138.456 288.173C137.969 287.676 137.353 287.427 136.606 287.427C135.86 287.427 135.244 287.676 134.757 288.173C134.281 288.671 134.043 289.325 134.043 290.136C134.043 290.947 134.281 291.601 134.757 292.099C135.244 292.597 135.86 292.846 136.606 292.846Z" fill="black"/>
<path d="M146.527 283.956C145.673 283.956 145.245 284.421 145.245 285.351V285.87H147.63V287.492H145.31V294.468H143.282V287.492H141.854V285.87H143.282V285.318C143.282 284.389 143.553 283.659 144.093 283.128C144.635 282.588 145.397 282.317 146.381 282.317C147.159 282.317 147.771 282.474 148.214 282.788L147.646 284.313C147.3 284.074 146.927 283.956 146.527 283.956Z" fill="black"/>
<path d="M152.062 287.07C152.646 286.162 153.673 285.708 155.145 285.708V287.638C154.971 287.606 154.815 287.589 154.674 287.589C153.884 287.589 153.268 287.822 152.825 288.287C152.382 288.741 152.16 289.401 152.16 290.266V294.468H150.132V285.805H152.062V287.07Z" fill="black"/>
<path d="M164.767 290.185C164.767 290.326 164.757 290.526 164.734 290.785H157.937C158.057 291.423 158.365 291.932 158.862 292.31C159.371 292.678 159.997 292.862 160.744 292.862C161.696 292.862 162.479 292.548 163.096 291.921L164.183 293.17C163.793 293.635 163.302 293.986 162.707 294.224C162.112 294.463 161.441 294.581 160.695 294.581C159.744 294.581 158.905 294.392 158.18 294.014C157.456 293.635 156.894 293.11 156.493 292.44C156.104 291.759 155.909 290.991 155.909 290.136C155.909 289.293 156.099 288.535 156.477 287.865C156.866 287.184 157.402 286.654 158.083 286.275C158.764 285.897 159.533 285.708 160.387 285.708C161.23 285.708 161.983 285.897 162.642 286.275C163.313 286.643 163.832 287.168 164.199 287.849C164.578 288.519 164.767 289.298 164.767 290.185ZM160.387 287.33C159.738 287.33 159.186 287.524 158.732 287.914C158.289 288.292 158.018 288.801 157.921 289.439H162.836C162.75 288.811 162.486 288.303 162.041 287.914C161.598 287.524 161.047 287.33 160.387 287.33Z" fill="black"/>
<path d="M169.625 285.708C170.902 285.708 171.875 286.016 172.545 286.632C173.227 287.238 173.567 288.157 173.567 289.39V294.468H171.653V293.413C171.405 293.792 171.048 294.084 170.582 294.289C170.128 294.484 169.576 294.581 168.928 294.581C168.279 294.581 167.711 294.473 167.224 294.257C166.737 294.03 166.359 293.722 166.089 293.332C165.829 292.932 165.699 292.484 165.699 291.986C165.699 291.207 165.986 290.586 166.559 290.12C167.143 289.645 168.057 289.406 169.301 289.406H171.539V289.277C171.539 288.671 171.356 288.206 170.988 287.881C170.631 287.557 170.096 287.395 169.382 287.395C168.895 287.395 168.413 287.471 167.938 287.622C167.473 287.773 167.078 287.984 166.754 288.254L165.959 286.778C166.413 286.432 166.96 286.167 167.597 285.983C168.235 285.8 168.911 285.708 169.625 285.708ZM169.349 293.105C169.857 293.105 170.306 292.992 170.696 292.764C171.096 292.526 171.377 292.192 171.539 291.759V290.753H169.447C168.279 290.753 167.695 291.137 167.695 291.905C167.695 292.273 167.841 292.565 168.133 292.781C168.425 292.997 168.83 293.105 169.349 293.105Z" fill="black"/>
<path d="M184.571 282.431V294.468H182.625V293.349C182.289 293.759 181.873 294.067 181.376 294.273C180.889 294.479 180.348 294.582 179.753 294.582C178.921 294.582 178.168 294.398 177.498 294.03C176.838 293.662 176.319 293.143 175.941 292.473C175.563 291.791 175.373 291.013 175.373 290.136C175.373 289.26 175.563 288.487 175.941 287.817C176.319 287.146 176.838 286.627 177.498 286.259C178.168 285.891 178.921 285.708 179.753 285.708C180.326 285.708 180.851 285.805 181.327 286C181.802 286.194 182.208 286.486 182.544 286.876V282.431H184.571ZM179.997 292.846C180.483 292.846 180.921 292.737 181.311 292.521C181.7 292.294 182.008 291.975 182.235 291.564C182.462 291.153 182.576 290.677 182.576 290.136C182.576 289.596 182.462 289.12 182.235 288.709C182.008 288.298 181.7 287.984 181.311 287.768C180.921 287.541 180.483 287.427 179.997 287.427C179.51 287.427 179.072 287.541 178.683 287.768C178.293 287.984 177.985 288.298 177.758 288.709C177.531 289.12 177.417 289.596 177.417 290.136C177.417 290.677 177.531 291.153 177.758 291.564C177.985 291.975 178.293 292.294 178.683 292.521C179.072 292.737 179.51 292.846 179.997 292.846Z" fill="black"/>
<path d="M195.205 290.185C195.205 290.326 195.195 290.526 195.173 290.785H188.376C188.495 291.423 188.803 291.932 189.3 292.31C189.809 292.678 190.436 292.862 191.182 292.862C192.134 292.862 192.918 292.548 193.534 291.921L194.621 293.17C194.232 293.635 193.74 293.986 193.145 294.224C192.551 294.463 191.88 294.581 191.133 294.581C190.182 294.581 189.344 294.392 188.619 294.014C187.895 293.635 187.332 293.11 186.932 292.44C186.542 291.759 186.348 290.991 186.348 290.136C186.348 289.293 186.537 288.535 186.915 287.865C187.305 287.184 187.84 286.654 188.522 286.275C189.203 285.897 189.971 285.708 190.825 285.708C191.669 285.708 192.421 285.897 193.08 286.275C193.751 286.643 194.27 287.168 194.638 287.849C195.017 288.519 195.205 289.298 195.205 290.185ZM190.825 287.33C190.176 287.33 189.625 287.524 189.17 287.914C188.727 288.292 188.457 288.801 188.359 289.439H193.275C193.189 288.811 192.924 288.303 192.48 287.914C192.037 287.524 191.485 287.33 190.825 287.33Z" fill="black"/>
<path d="M198.922 287.07C199.506 286.162 200.533 285.708 202.004 285.708V287.638C201.831 287.606 201.674 287.589 201.534 287.589C200.744 287.589 200.127 287.822 199.684 288.287C199.24 288.741 199.019 289.401 199.019 290.266V294.468H196.991V285.805H198.922V287.07Z" fill="black"/>
<path d="M175.619 182.011C175.032 182.011 174.463 181.922 173.913 181.744C173.37 181.558 172.942 181.32 172.63 181.03L173.043 180.16C173.34 180.428 173.719 180.647 174.18 180.818C174.649 180.981 175.128 181.063 175.619 181.063C176.266 181.063 176.749 180.956 177.069 180.74C177.388 180.517 177.548 180.223 177.548 179.859C177.548 179.591 177.459 179.375 177.281 179.212C177.109 179.041 176.894 178.911 176.634 178.822C176.381 178.732 176.02 178.632 175.552 178.52C174.965 178.379 174.488 178.237 174.124 178.097C173.768 177.956 173.459 177.74 173.199 177.45C172.946 177.153 172.819 176.754 172.819 176.256C172.819 175.84 172.927 175.464 173.143 175.13C173.366 174.795 173.701 174.528 174.147 174.327C174.593 174.126 175.146 174.026 175.809 174.026C176.27 174.026 176.723 174.085 177.169 174.204C177.615 174.323 177.999 174.494 178.318 174.717L177.95 175.609C177.622 175.402 177.274 175.245 176.902 175.141C176.529 175.029 176.165 174.974 175.809 174.974C175.177 174.974 174.7 175.089 174.381 175.319C174.069 175.55 173.913 175.848 173.913 176.212C173.913 176.479 174.002 176.698 174.18 176.87C174.359 177.033 174.578 177.164 174.838 177.26C175.106 177.349 175.467 177.446 175.92 177.55C176.507 177.691 176.98 177.833 177.337 177.974C177.693 178.115 177.999 178.331 178.251 178.621C178.512 178.911 178.641 179.301 178.641 179.792C178.641 180.2 178.53 180.577 178.307 180.918C178.084 181.253 177.745 181.521 177.292 181.721C176.839 181.915 176.281 182.011 175.619 182.011Z" fill="#8C8C8C"/>
<path d="M182.156 175.955C182.974 175.955 183.599 176.156 184.029 176.557C184.469 176.959 184.688 177.557 184.688 178.353V181.922H183.673V181.141C183.494 181.416 183.238 181.628 182.903 181.777C182.575 181.918 182.185 181.989 181.732 181.989C181.07 181.989 180.539 181.829 180.137 181.509C179.743 181.19 179.546 180.769 179.546 180.249C179.546 179.729 179.735 179.312 180.115 179C180.494 178.681 181.096 178.52 181.922 178.52H183.617V178.308C183.617 177.847 183.483 177.494 183.215 177.249C182.948 177.003 182.553 176.881 182.033 176.881C181.683 176.881 181.342 176.941 181.007 177.059C180.672 177.171 180.389 177.323 180.159 177.517L179.713 176.713C180.018 176.468 180.382 176.283 180.806 176.156C181.23 176.022 181.68 175.955 182.156 175.955ZM181.91 181.164C182.319 181.164 182.673 181.074 182.97 180.896C183.267 180.71 183.483 180.45 183.617 180.115V179.29H181.966C181.059 179.29 180.605 179.595 180.605 180.204C180.605 180.502 180.721 180.736 180.951 180.907C181.181 181.078 181.502 181.164 181.91 181.164Z" fill="#8C8C8C"/>
<path d="M187.584 177.003C187.77 176.662 188.045 176.401 188.409 176.223C188.774 176.044 189.216 175.955 189.736 175.955V176.992C189.677 176.985 189.595 176.981 189.491 176.981C188.911 176.981 188.454 177.156 188.119 177.505C187.793 177.847 187.628 178.338 187.628 178.978V181.922H186.558V176.011H187.584V177.003Z" fill="#8C8C8C"/>
<path d="M193.086 175.955C193.905 175.955 194.529 176.156 194.96 176.557C195.399 176.959 195.618 177.557 195.618 178.353V181.922H194.603V181.141C194.425 181.416 194.168 181.628 193.834 181.777C193.506 181.918 193.116 181.989 192.663 181.989C192 181.989 191.469 181.829 191.068 181.509C190.673 181.19 190.477 180.769 190.477 180.249C190.477 179.729 190.666 179.312 191.045 179C191.425 178.681 192.027 178.52 192.852 178.52H194.547V178.308C194.547 177.847 194.414 177.494 194.146 177.249C193.878 177.003 193.484 176.881 192.964 176.881C192.614 176.881 192.272 176.941 191.938 177.059C191.603 177.171 191.32 177.323 191.09 177.517L190.644 176.713C190.949 176.468 191.313 176.283 191.737 176.156C192.161 176.022 192.611 175.955 193.086 175.955ZM192.841 181.164C193.25 181.164 193.604 181.074 193.901 180.896C194.198 180.71 194.414 180.45 194.547 180.115V179.29H192.897C191.989 179.29 191.536 179.595 191.536 180.204C191.536 180.502 191.652 180.736 191.882 180.907C192.112 181.078 192.432 181.164 192.841 181.164Z" fill="#8C8C8C"/>
<path d="M200.644 175.955C201.395 175.955 201.99 176.174 202.428 176.613C202.874 177.044 203.097 177.68 203.097 178.52V181.922H202.027V178.643C202.027 178.07 201.89 177.639 201.614 177.349C201.339 177.059 200.945 176.914 200.432 176.914C199.852 176.914 199.395 177.085 199.06 177.427C198.725 177.762 198.558 178.245 198.558 178.877V181.922H197.487V173.646H198.558V176.847C198.781 176.564 199.071 176.345 199.428 176.189C199.793 176.033 200.198 175.955 200.644 175.955Z" fill="#8C8C8C"/>
<path d="M176.001 191.615H172.237V189.831H181.874V191.615H178.11V201.187H176.001V191.615Z" fill="black"/>
<path d="M184.824 193.789C185.408 192.881 186.435 192.426 187.906 192.426V194.357C187.733 194.324 187.577 194.308 187.436 194.308C186.646 194.308 186.03 194.54 185.587 195.006C185.143 195.46 184.921 196.12 184.921 196.985V201.187H182.894V192.524H184.824V193.789Z" fill="black"/>
<path d="M192.727 192.426C194.002 192.426 194.976 192.735 195.647 193.351C196.328 193.956 196.669 194.876 196.669 196.109V201.187H194.755V200.132C194.505 200.51 194.148 200.802 193.684 201.008C193.23 201.203 192.678 201.3 192.029 201.3C191.38 201.3 190.812 201.192 190.326 200.976C189.839 200.749 189.46 200.44 189.19 200.051C188.931 199.651 188.801 199.202 188.801 198.705C188.801 197.926 189.087 197.304 189.661 196.839C190.245 196.363 191.158 196.125 192.402 196.125H194.641V195.995C194.641 195.39 194.456 194.925 194.089 194.6C193.733 194.276 193.197 194.113 192.483 194.113C191.997 194.113 191.515 194.189 191.04 194.341C190.574 194.492 190.18 194.703 189.855 194.973L189.06 193.497C189.515 193.151 190.06 192.886 190.699 192.702C191.337 192.519 192.013 192.426 192.727 192.426ZM192.451 199.824C192.959 199.824 193.408 199.71 193.797 199.483C194.197 199.245 194.479 198.91 194.641 198.477V197.472H192.548C191.38 197.472 190.796 197.856 190.796 198.623C190.796 198.991 190.942 199.283 191.234 199.499C191.526 199.715 191.932 199.824 192.451 199.824Z" fill="black"/>
<path d="M204.024 192.426C205.117 192.426 205.993 192.746 206.652 193.383C207.312 194.021 207.642 194.968 207.642 196.222V201.187H205.614V196.482C205.614 195.725 205.435 195.157 205.078 194.779C204.721 194.389 204.214 194.195 203.553 194.195C202.807 194.195 202.218 194.422 201.785 194.876C201.353 195.319 201.136 195.963 201.136 196.806V201.187H199.108V192.524H201.039V193.643C201.375 193.242 201.796 192.94 202.304 192.735C202.813 192.529 203.386 192.426 204.024 192.426Z" fill="black"/>
<path d="M212.729 201.3C212.026 201.3 211.34 201.208 210.669 201.024C209.998 200.841 209.463 200.608 209.062 200.327L209.841 198.786C210.231 199.045 210.696 199.256 211.236 199.418C211.788 199.569 212.329 199.645 212.859 199.645C214.07 199.645 214.676 199.326 214.676 198.688C214.676 198.385 214.519 198.174 214.205 198.056C213.903 197.937 213.41 197.823 212.729 197.715C212.015 197.606 211.431 197.483 210.977 197.342C210.534 197.201 210.144 196.958 209.809 196.612C209.484 196.255 209.322 195.763 209.322 195.135C209.322 194.313 209.663 193.659 210.344 193.173C211.037 192.675 211.966 192.426 213.134 192.426C213.73 192.426 214.325 192.496 214.919 192.637C215.514 192.767 216.001 192.945 216.379 193.173L215.6 194.714C214.865 194.281 214.038 194.065 213.118 194.065C212.524 194.065 212.07 194.157 211.755 194.341C211.453 194.514 211.301 194.746 211.301 195.038C211.301 195.363 211.463 195.595 211.788 195.736C212.124 195.866 212.638 195.99 213.329 196.109C214.022 196.217 214.589 196.341 215.033 196.482C215.477 196.623 215.855 196.86 216.168 197.196C216.493 197.531 216.655 198.007 216.655 198.623C216.655 199.435 216.304 200.083 215.6 200.57C214.898 201.057 213.941 201.3 212.729 201.3Z" fill="black"/>
<path d="M218.239 189.149H220.267V201.187H218.239V189.149Z" fill="black"/>
<path d="M226.076 192.426C227.353 192.426 228.326 192.735 228.996 193.351C229.678 193.956 230.018 194.876 230.018 196.109V201.187H228.104V200.132C227.856 200.51 227.499 200.802 227.033 201.008C226.579 201.203 226.028 201.3 225.379 201.3C224.73 201.3 224.162 201.192 223.675 200.976C223.189 200.749 222.81 200.44 222.54 200.051C222.28 199.651 222.15 199.202 222.15 198.705C222.15 197.926 222.437 197.304 223.01 196.839C223.594 196.363 224.508 196.125 225.752 196.125H227.991V195.995C227.991 195.39 227.807 194.925 227.439 194.6C227.082 194.276 226.547 194.113 225.833 194.113C225.346 194.113 224.865 194.189 224.389 194.341C223.924 194.492 223.529 194.703 223.205 194.973L222.41 193.497C222.864 193.151 223.411 192.886 224.048 192.702C224.686 192.519 225.363 192.426 226.076 192.426ZM225.801 199.824C226.309 199.824 226.758 199.71 227.147 199.483C227.548 199.245 227.828 198.91 227.991 198.477V197.472H225.898C224.73 197.472 224.146 197.856 224.146 198.623C224.146 198.991 224.292 199.283 224.584 199.499C224.876 199.715 225.281 199.824 225.801 199.824Z" fill="black"/>
<path d="M237.666 200.716C237.428 200.911 237.136 201.057 236.79 201.154C236.454 201.252 236.097 201.3 235.719 201.3C234.767 201.3 234.032 201.052 233.513 200.554C232.994 200.056 232.734 199.332 232.734 198.38V194.211H231.307V192.589H232.734V190.609H234.762V192.589H237.082V194.211H234.762V198.331C234.762 198.753 234.865 199.078 235.07 199.305C235.275 199.521 235.573 199.629 235.963 199.629C236.417 199.629 236.795 199.511 237.098 199.272L237.666 200.716Z" fill="black"/>
<path d="M242.78 201.3C241.904 201.3 241.114 201.111 240.412 200.732C239.708 200.354 239.156 199.829 238.757 199.159C238.368 198.477 238.173 197.71 238.173 196.855C238.173 196 238.368 195.238 238.757 194.568C239.156 193.897 239.708 193.372 240.412 192.994C241.114 192.616 241.904 192.426 242.78 192.426C243.666 192.426 244.461 192.616 245.165 192.994C245.868 193.372 246.414 193.897 246.803 194.568C247.203 195.238 247.404 196 247.404 196.855C247.404 197.71 247.203 198.477 246.803 199.159C246.414 199.829 245.868 200.354 245.165 200.732C244.461 201.111 243.666 201.3 242.78 201.3ZM242.78 199.564C243.526 199.564 244.143 199.316 244.63 198.818C245.116 198.32 245.36 197.666 245.36 196.855C245.36 196.044 245.116 195.39 244.63 194.892C244.143 194.394 243.526 194.146 242.78 194.146C242.034 194.146 241.417 194.394 240.931 194.892C240.454 195.39 240.217 196.044 240.217 196.855C240.217 197.666 240.454 198.32 240.931 198.818C241.417 199.316 242.034 199.564 242.78 199.564Z" fill="black"/>
<path d="M251.111 193.789C251.695 192.881 252.722 192.426 254.194 192.426V194.357C254.02 194.324 253.864 194.308 253.723 194.308C252.933 194.308 252.317 194.54 251.874 195.006C251.431 195.46 251.209 196.12 251.209 196.985V201.187H249.181V192.524H251.111V193.789Z" fill="black"/>
<path d="M266.817 88.9812C267.759 88.9812 268.496 88.2367 268.496 87.2862C268.496 86.3514 267.744 85.5989 266.817 85.5989C265.898 85.5989 265.137 86.3514 265.137 87.2862C265.137 88.2129 265.897 88.9812 266.817 88.9812ZM266.817 94.8747C267.759 94.8747 268.496 94.1381 268.496 93.2033C268.496 92.2765 267.744 91.524 266.817 91.524C265.897 91.524 265.137 92.2765 265.137 93.2033C265.137 94.1222 265.897 94.8747 266.817 94.8747ZM266.817 100.808C267.759 100.808 268.496 100.063 268.496 99.1205C268.496 98.1779 267.744 97.4254 266.817 97.4254C265.897 97.4254 265.137 98.1779 265.137 99.1205C265.137 100.039 265.897 100.808 266.817 100.808Z" fill="#BFBFBF"/>
<path d="M266.817 275.544C267.759 275.544 268.496 274.8 268.496 273.849C268.496 272.914 267.744 272.162 266.817 272.162C265.898 272.162 265.137 272.914 265.137 273.849C265.137 274.776 265.897 275.544 266.817 275.544ZM266.817 281.437C267.759 281.437 268.496 280.701 268.496 279.766C268.496 278.839 267.744 278.087 266.817 278.087C265.897 278.087 265.137 278.839 265.137 279.766C265.137 280.685 265.897 281.437 266.817 281.437ZM266.817 287.371C267.759 287.371 268.496 286.626 268.496 285.683C268.496 284.74 267.744 283.988 266.817 283.988C265.897 283.988 265.137 284.74 265.137 285.683C265.137 286.602 265.897 287.371 266.817 287.371Z" fill="#BFBFBF"/>
<path d="M335.764 182.263C336.706 182.263 337.443 181.518 337.443 180.567C337.443 179.632 336.691 178.88 335.764 178.88C334.845 178.88 334.084 179.632 334.084 180.567C334.084 181.494 334.844 182.263 335.764 182.263ZM335.764 188.156C336.706 188.156 337.443 187.419 337.443 186.485C337.443 185.558 336.691 184.806 335.764 184.806C334.844 184.806 334.084 185.558 334.084 186.485C334.084 187.403 334.844 188.156 335.764 188.156ZM335.764 194.089C336.706 194.089 337.443 193.345 337.443 192.402C337.443 191.459 336.691 190.707 335.764 190.707C334.844 190.707 334.084 191.459 334.084 192.402C334.084 193.32 334.844 194.089 335.764 194.089Z" fill="#BFBFBF"/>
<path d="M74.6403 299.245C85.6784 299.245 94.6265 290.297 94.6265 279.259C94.6265 268.22 85.6784 259.272 74.6403 259.272C63.6023 259.272 54.6543 268.22 54.6543 279.259C54.6543 290.297 63.6023 299.245 74.6403 299.245Z" fill="#FF7A45"/>
<path d="M64.2575 272.922C64.0137 276.724 65.5736 280.087 67.9135 282.818L64.9399 296.711C67.8159 298.319 71.1308 299.196 74.6405 299.196C74.933 299.196 75.2254 299.147 75.4692 299.147L73.8606 287.74C77.1753 289.74 80.3926 290.666 81.9037 290.275C85.706 289.301 86.0472 275.359 83.1224 269.851C80.1488 264.44 65.0374 262.003 64.2575 272.922Z" fill="#B57D6B"/>
<path d="M81.0749 284.768C81.2212 284.621 81.4161 284.621 81.5137 284.768C81.8061 285.06 82.1474 285.254 82.4886 285.401C82.8298 285.547 83.2198 285.499 83.6098 285.401C83.8047 285.353 83.9509 285.45 83.9997 285.645C84.0485 285.839 83.951 286.035 83.756 286.084C83.2685 286.23 82.7811 286.23 82.2936 286.084C81.8061 285.937 81.3674 285.693 81.0262 285.303C80.9774 285.157 80.9774 284.914 81.0749 284.768Z" fill="black"/>
<path d="M66.9876 285.839C65.4764 279.015 61.0893 274.384 61.7717 271.313C62.2105 269.266 63.3803 267.998 65.3302 267.511C66.3051 263.465 69.5224 261.759 74.982 262.392C83.074 263.27 88.046 266.682 85.9013 274.092C83.9514 274.092 81.5628 273.361 78.2481 274.579C77.2244 274.969 76.4444 276.188 76.0057 278.186H74.5433C73.0809 275.798 71.6673 274.92 70.2536 275.554C68.8399 276.188 68.5475 277.747 69.2787 280.185L68.5475 285.791H66.9876V285.839Z" fill="#191847"/>
<path d="M82.4396 280.039C82.2933 280.088 82.147 280.087 82.0008 279.99C81.8545 279.893 81.7083 279.698 81.6595 279.502C81.5621 279.259 81.5133 279.016 81.5621 278.771C81.5621 278.528 81.6109 278.235 81.7083 278.04C81.8059 277.846 81.9521 277.699 82.0983 277.601C82.2446 277.504 82.3908 277.553 82.5858 277.601C82.732 277.699 82.8783 277.846 82.9757 278.089C83.0733 278.284 83.1219 278.577 83.1219 278.82C83.1219 279.113 83.0733 279.405 82.9757 279.649C82.7807 279.844 82.6345 279.99 82.4396 280.039Z" fill="black"/>
<path d="M85.0718 276.529C84.3893 275.603 83.3657 274.92 82.1957 274.726C81.6595 274.53 81.0746 274.481 80.5383 274.53C80.0022 274.58 79.4172 274.774 78.9785 275.066C80.9283 275.603 85.0718 276.529 85.0718 276.529Z" fill="black"/>
<path d="M63.5264 295.881C66.6949 298.027 70.4971 299.245 74.6405 299.245C75.5668 299.245 76.4442 299.147 77.3217 299.05C77.1754 297.246 77.0779 295.442 77.0779 293.541L65.8662 291.787C65.0375 293.103 64.2575 294.468 63.5264 295.881Z" fill="#C4C4C4"/>
<path d="M214.006 295.002C216.75 295.002 218.98 292.84 219.182 290.188C219.544 290.053 219.94 290.003 220.276 290.003C220.605 290.003 221 290.053 221.37 290.188C221.564 292.864 223.794 295.002 226.546 295.002C229.19 295.002 231.36 293.032 231.706 290.5H232.8C233.238 290.5 233.407 290.239 233.407 289.877V289.38C233.407 289.01 233.238 288.774 232.8 288.774H231.647C231.168 286.409 229.063 284.617 226.546 284.617C224.174 284.617 222.178 286.208 221.556 288.37C221.143 288.21 220.672 288.151 220.276 288.151C219.881 288.151 219.401 288.21 218.988 288.37C218.366 286.208 216.372 284.617 214.006 284.617C211.524 284.617 209.453 286.351 208.923 288.656H207.744C207.307 288.656 207.139 288.901 207.139 289.263V289.877C207.139 290.239 207.307 290.5 207.744 290.5H208.839C209.184 293.024 211.346 295.002 214.006 295.002ZM214.006 293.075C212.205 293.075 210.741 291.619 210.741 289.809C210.741 288 212.205 286.544 214.006 286.544C215.799 286.544 217.272 288 217.272 289.809C217.272 291.619 215.824 293.075 214.006 293.075ZM226.546 293.075C224.72 293.075 223.272 291.619 223.272 289.809C223.272 288 224.72 286.544 226.546 286.544C228.348 286.544 229.804 288 229.804 289.809C229.804 291.619 228.348 293.075 226.546 293.075Z" fill="black"/>
<path d="M203.462 96.786L204.038 96.183C204.356 95.8433 204.398 95.365 204.079 95.0394L203.864 94.8175C203.587 94.5333 203.095 94.6027 202.776 94.9145L202.173 95.4967L203.462 96.786ZM195.81 103.509L197.37 102.878L202.97 97.2711L201.681 95.9889L196.08 101.596L195.436 103.128C195.339 103.371 195.596 103.592 195.81 103.509ZM184.117 108.534H200.032C201.348 108.534 202.097 107.8 202.097 106.497V100.023L200.198 101.922V106.053C200.198 106.524 199.92 106.808 199.436 106.808H184.713C184.229 106.808 183.958 106.524 183.958 106.053V100.376C183.958 99.8842 184.229 99.6277 184.713 99.6277H196.129L197.862 97.895H184.117C182.8 97.895 182.052 98.6297 182.052 99.9397V106.497C182.052 107.8 182.8 108.534 184.117 108.534ZM186.641 104.334C187.257 104.334 187.763 103.814 187.763 103.218C187.763 102.601 187.257 102.095 186.641 102.095C186.003 102.095 185.517 102.58 185.517 103.218C185.517 103.814 186.038 104.334 186.641 104.334ZM189.704 104.334C190.327 104.334 190.826 103.814 190.826 103.218C190.826 102.601 190.327 102.095 189.704 102.095C189.066 102.095 188.581 102.58 188.581 103.218C188.581 103.814 189.101 104.334 189.704 104.334ZM192.768 104.334C193.384 104.334 193.883 103.814 193.883 103.218C193.883 102.601 193.384 102.095 192.768 102.095C192.13 102.095 191.645 102.58 191.645 103.218C191.645 103.814 192.165 104.334 192.768 104.334Z" fill="black"/>
<path d="M268.123 197.944L266.25 196.036L266.272 196.014C267.556 194.537 268.47 192.842 269.008 191.047H271.168V189.527H266.006V188.006H264.532V189.527H259.37V191.039H267.607C267.112 192.507 266.331 193.9 265.269 195.116C264.584 194.333 264.016 193.474 263.566 192.568H262.092C262.63 193.807 263.367 194.979 264.289 196.036L260.535 199.853L261.583 200.933L265.269 197.131L267.563 199.496L268.123 197.944ZM272.274 194.089H270.8L267.482 203.215H268.957L269.782 200.933H273.285L274.118 203.215H275.593L272.274 194.089ZM270.343 199.412L271.537 196.12L272.732 199.412H270.343Z" fill="black"/>
<path fill-rule="evenodd" clip-rule="evenodd" d="M268.241 197.919L267.604 199.683L265.27 197.277L261.583 201.079L260.394 199.852L264.152 196.032C263.251 194.985 262.529 193.829 261.999 192.609L261.937 192.467H263.629L263.658 192.523C264.087 193.386 264.624 194.208 265.27 194.961C266.252 193.812 266.987 192.511 267.465 191.141H259.27V189.425H264.431V187.904H266.108V189.425H271.27V191.149H269.084C268.545 192.911 267.645 194.577 266.39 196.033L268.241 197.919ZM266.25 196.036L266.273 196.012C267.556 194.537 268.47 192.842 269.008 191.047H271.169V189.526H266.007V188.005H264.533V189.526H259.371V191.039H267.608C267.596 191.074 267.585 191.107 267.573 191.141C267.088 192.541 266.341 193.868 265.337 195.038C265.315 195.064 265.292 195.09 265.27 195.115C265.248 195.09 265.225 195.064 265.203 195.038C264.547 194.276 264.002 193.443 263.567 192.568H262.092C262.107 192.602 262.122 192.636 262.136 192.67C262.67 193.871 263.393 195.008 264.289 196.036L260.536 199.853L261.583 200.933L265.27 197.131L267.563 199.495L268.124 197.944L266.25 196.036ZM272.346 193.988L275.739 203.316H274.048L273.215 201.034H269.854L269.029 203.316H267.337L270.73 193.988H272.346ZM269.783 200.933H273.286L274.119 203.214H275.594L272.275 194.089H270.801L267.482 203.214H268.957L269.783 200.933ZM270.344 199.412L271.538 196.119L272.732 199.412H270.344ZM270.488 199.311H272.587L271.538 196.417L270.488 199.311Z" fill="black"/>
<path d="M80.0854 112.279C90.9007 109.381 97.319 98.2642 94.421 87.449C91.5231 76.6336 80.4063 70.2153 69.591 73.1133C58.7757 76.0113 52.3575 87.1281 55.2554 97.9433C58.1533 108.759 69.2701 115.177 80.0854 112.279Z" fill="#FA541C"/>
<path d="M80.2131 112.274C84.5487 111.127 88.3784 108.568 91.0974 105.002C90.1503 103.272 88.8769 101.742 87.3476 100.497C84.3379 97.9312 84.9102 88.9958 84.9102 88.9958L74.1443 85.6802L62.9936 90.3724C62.9936 90.3724 64.01 96.155 61.3802 99.0809C60.8868 99.6137 59.007 101.01 57.3047 102.875C59.569 106.732 63.0359 109.74 67.1738 111.438C71.3117 113.136 75.8922 113.43 80.2131 112.274Z" fill="#000103"/>
<path d="M71.9587 111.12L71.791 100.265C71.791 100.265 73.5672 100.442 75.1707 100.521C76.7743 100.6 77.9239 99.7863 78.5406 100.635L79.636 99.3225L80.8546 111.198L80.9484 111.549L72.0673 111.499C71.9989 111.384 71.9615 111.253 71.9587 111.12Z" fill="#E7B1A0"/>
<path d="M80.1645 104.508C80.1645 104.508 74.9246 106.275 71.7373 99.5447H79.6909L80.1645 104.508Z" fill="#B57D6B"/>
<path d="M63.0033 89.7094C63.5955 96.3012 70.8977 100.258 77.2131 99.3159C80.583 98.8225 87.2883 92.2702 86.3064 85.7277C85.3245 79.1854 80.065 75.6181 73.7446 76.4963C67.8781 77.3104 62.3077 81.9583 63.0033 89.7094Z" fill="#000103"/>
<path d="M82.148 92.4399C82.2566 93.0408 82.5031 93.6082 82.8683 94.0977C83.1969 94.5426 83.6452 94.8848 84.161 95.0844C84.6232 95.2619 85.1346 95.2619 85.5967 95.0844C86.0654 94.8927 86.4526 94.5438 86.6921 94.0977C86.9656 93.589 87.1001 93.0171 87.0818 92.4399C87.0652 91.8307 86.91 91.2334 86.628 90.6932C86.3674 90.1744 85.9764 89.7323 85.4931 89.4104C85.0696 89.1255 84.5609 88.9948 84.0524 89.0404C83.7269 89.0768 83.4162 89.1956 83.1495 89.3857C82.8677 89.588 82.6351 89.851 82.4687 90.1554C82.2849 90.489 82.1645 90.8537 82.1134 91.231C82.0579 91.6363 82.068 92.0477 82.143 92.4497L82.148 92.4399Z" fill="#B57D6B"/>
<path d="M67.5535 88.3543C68.0456 91.4782 68.8728 94.5402 70.0205 97.4871C70.4581 98.526 71.0989 99.4671 71.9052 100.255C72.6957 101.027 73.6385 101.625 74.6732 102.012L75.063 102.189C76.186 102.69 77.4261 102.869 78.645 102.707C79.8566 102.543 80.9972 102.04 81.936 101.257C82.8649 100.567 83.6256 99.6766 84.1612 98.6515C84.7195 97.5968 85.0426 96.4336 85.1085 95.2421C85.1558 92.1081 84.9727 88.9748 84.5609 85.8676C84.5609 85.8676 83.8503 76.2957 74.6781 77.8302C65.5059 79.3646 67.5535 88.3543 67.5535 88.3543Z" fill="#E7B1A0"/>
<path d="M79.5576 80.1245C79.5576 80.1245 77.6827 87.6438 66.009 91.6798C66.009 91.6798 63.2707 79.2808 72.2011 77.026C72.1814 76.9816 76.5331 75.2645 79.5576 80.1245Z" fill="#000103"/>
<path d="M76.8883 80.9583C76.8883 80.9583 80.5049 86.6127 86.4504 87.6438C86.4504 87.6438 85.8238 77.4553 75.877 76.7447C75.8818 76.7793 77.3077 75.6593 76.8883 80.9583Z" fill="#000103"/>
<path d="M74.3369 93.0465C74.4145 93.3597 74.5555 93.6535 74.7514 93.91C74.8118 94.0039 74.8931 94.0825 74.9889 94.1399C75.0848 94.1972 75.1926 94.2317 75.304 94.2405C75.4816 94.2405 75.6247 94.0974 75.7085 93.8656C75.8011 93.5789 75.8231 93.2743 75.7727 92.9775C75.7428 92.7869 75.6932 92.6001 75.6247 92.4199C75.5612 92.2458 75.4766 92.08 75.373 91.9265C75.291 91.8022 75.1874 91.6935 75.0671 91.6058C74.9775 91.5385 74.8684 91.5022 74.7562 91.5022C74.706 91.5056 74.6569 91.5192 74.612 91.5421C74.567 91.5651 74.5272 91.5967 74.4948 91.6354C74.4123 91.7338 74.3548 91.8505 74.3271 91.9758C74.2889 92.1373 74.274 92.3035 74.2826 92.4692C74.2901 92.6592 74.3182 92.8478 74.3665 93.0317L74.3369 93.0465Z" fill="#000103"/>
<path d="M81.9457 91.7293C82.0232 92.0425 82.1643 92.3364 82.3601 92.5928C82.4205 92.6867 82.5018 92.7654 82.5977 92.8227C82.6936 92.8801 82.8013 92.9145 82.9127 92.9233C83.0903 92.9233 83.2334 92.7803 83.3173 92.5484C83.4033 92.2602 83.4185 91.9555 83.3617 91.6603C83.3318 91.4698 83.2823 91.2829 83.2137 91.1027C83.1502 90.9286 83.0657 90.763 82.9621 90.6093C82.88 90.485 82.7764 90.3764 82.6562 90.2886C82.562 90.2246 82.4492 90.1933 82.3354 90.1998C82.2852 90.2033 82.2361 90.2168 82.1912 90.2398C82.1461 90.2627 82.1063 90.2944 82.074 90.333C81.9915 90.4314 81.9339 90.5482 81.9061 90.6734C81.8681 90.835 81.8531 91.0011 81.8617 91.1669C81.8693 91.3568 81.8974 91.5454 81.9457 91.7293Z" fill="#000103"/>
<path d="M78.8963 93.2834C78.9481 93.2657 79.003 93.2583 79.0577 93.2619C79.1123 93.2654 79.1657 93.2798 79.2148 93.3041C79.264 93.3284 79.3077 93.3622 79.3437 93.4036C79.3796 93.4449 79.407 93.493 79.4243 93.5449L79.9177 95.0498C79.9196 95.0728 79.9196 95.0959 79.9177 95.1189C79.9374 95.2395 79.9305 95.3631 79.8973 95.4807C79.864 95.5984 79.8052 95.7073 79.7252 95.7998C79.6468 95.8898 79.5497 95.9617 79.4406 96.0103C79.3315 96.0589 79.2131 96.083 79.0936 96.0811H78.3388C78.2361 96.0698 78.1411 96.021 78.072 95.9441C78.003 95.8672 77.9648 95.7675 77.9648 95.6641C77.9648 95.5607 78.003 95.4611 78.072 95.3841C78.1411 95.3071 78.2361 95.2584 78.3388 95.2472H79.1036L78.6101 93.8114C78.5929 93.758 78.5866 93.7016 78.5916 93.6457C78.5968 93.5898 78.6132 93.5354 78.64 93.4861C78.6668 93.4368 78.7033 93.3933 78.7474 93.3585C78.7914 93.3236 78.8421 93.2981 78.8963 93.2834Z" fill="black"/>
<path d="M77.0462 90.7227L71.4512 90.4563C71.4512 90.4563 72.1271 89.0748 74.4115 89.208C76.6959 89.3412 77.0462 90.7227 77.0462 90.7227Z" fill="#000103"/>
<path d="M80.1687 90.6339L84.7474 88.1669C84.2826 87.8814 83.7451 87.7364 83.1996 87.7496C82.6542 87.7627 82.1242 87.9333 81.6736 88.241C79.8135 89.2771 80.1687 90.6339 80.1687 90.6339Z" fill="#000103"/>
<path d="M76.4388 97.7239C76.4622 97.6686 76.4975 97.6193 76.5421 97.5791C76.5867 97.539 76.6396 97.5092 76.697 97.4917C76.7545 97.4744 76.815 97.4697 76.8744 97.4783C76.9338 97.487 76.9905 97.5084 77.0407 97.5414C77.4956 97.8316 78.021 97.992 78.5604 98.0052C79.0842 98.0137 79.5991 97.8678 80.0405 97.5858C80.0941 97.5557 80.1534 97.5369 80.2145 97.5309C80.2757 97.5248 80.3374 97.5315 80.3958 97.5505C80.4542 97.5695 80.508 97.6004 80.554 97.6414C80.5998 97.6822 80.6367 97.7322 80.6623 97.7881C80.728 97.8993 80.7502 98.0308 80.7247 98.1575C80.6992 98.2841 80.6277 98.3969 80.5241 98.4739C79.9544 98.8378 79.2905 99.0265 78.6146 99.0167C77.9144 99.0031 77.2314 98.7965 76.641 98.4197C76.5308 98.3461 76.45 98.2359 76.413 98.1087C76.376 97.9814 76.3851 97.8452 76.4388 97.7239Z" fill="black"/>
<path d="M69.8518 87.0271L69.0674 94.4675L66.5264 88.2013L69.8518 87.0271Z" fill="#000103"/>
<path d="M80.0706 112.279C81.7742 111.847 83.4156 111.198 84.9551 110.35L75.6547 108.949L66.1914 111.036C70.5235 113.085 75.4433 113.526 80.0706 112.279Z" fill="#E7B1A0"/>
<path d="M65.313 94.4529C65.4451 95.0847 65.682 95.69 66.0136 96.2439C66.4572 96.732 66.994 97.1263 67.5925 97.4034C67.7626 97.49 67.9492 97.5391 68.1398 97.5477C68.3305 97.5562 68.5207 97.5238 68.6977 97.4527C69.0621 97.2847 69.3495 96.985 69.5019 96.6139C69.6945 96.1456 69.774 95.6384 69.7338 95.1337C69.6995 94.5777 69.5587 94.0333 69.3194 93.5302C69.1575 93.0633 68.8909 92.6397 68.5398 92.2918C68.2126 92.057 67.866 91.8508 67.5037 91.675C67.0008 91.4966 66.4479 91.5232 65.9644 91.749C65.749 91.9304 65.5799 92.1605 65.471 92.42C65.3419 92.724 65.2651 93.0477 65.244 93.3773C65.2192 93.7372 65.2424 94.099 65.313 94.4529Z" fill="#E7B1A0"/>
<path d="M143.755 206.201C132.571 206.201 123.504 197.135 123.504 185.95C123.504 174.766 132.571 165.699 143.755 165.699C154.939 165.699 164.006 174.766 164.006 185.95C164.006 197.135 154.939 206.201 143.755 206.201Z" fill="#2F54EB"/>
<path d="M153.107 175.572C153.107 175.572 152.787 178.979 153.717 180.929C154.647 182.88 156.973 183.584 156.579 188.995C156.184 194.406 157.264 194.414 157.673 195.879C157.673 195.879 137.307 199.643 126.036 195.387L128.424 189.063C130.03 185.423 130.136 179.682 130.136 179.682L137.932 175.632L153.107 175.572Z" fill="#000103"/>
<path d="M147.091 172.509C147.317 172.406 146.226 171.13 145.983 171.08C142.112 170.307 133.959 169.63 130.654 176.67C128.219 181.842 132.239 190.594 138.825 192.63C145.086 194.566 141.81 174.845 141.81 174.845L147.091 172.509Z" fill="#000103"/>
<path d="M146.988 184.908C146.975 185.452 147.145 185.982 147.478 186.431C147.81 186.88 148.291 187.229 148.858 187.432C149.424 187.636 150.052 187.685 150.661 187.574C151.271 187.463 151.835 187.197 152.282 186.809C152.728 186.421 153.037 185.929 153.17 185.395C153.304 184.86 153.254 184.309 153.029 183.809C152.803 183.309 152.412 182.883 151.904 182.586C151.396 182.289 150.794 182.134 150.176 182.14C149.765 182.143 149.358 182.217 148.974 182.358C148.592 182.499 148.243 182.704 147.947 182.96C147.651 183.218 147.414 183.522 147.25 183.857C147.085 184.191 146.996 184.548 146.988 184.908Z" fill="#B57D6B"/>
<path d="M147.063 192.693L147.027 199.108C147.019 201.363 145.562 202.573 143.245 202.576C141.262 202.574 139.414 201.589 139.191 199.713L139.76 189.612L147.063 192.693Z" fill="#E6B1A0"/>
<path d="M146.997 196.669C142.669 196.804 139.798 191.183 139.798 191.183L147.029 192.397L146.997 196.669Z" fill="#B57D6B"/>
<path d="M145.486 194.466C149.308 194.237 152.278 191.013 152.192 187.87L151.945 180.447C151.895 178.553 151.114 176.751 149.765 175.425C148.417 174.098 146.607 173.349 144.719 173.338C140.697 173.308 136.715 176.553 136.688 180.59L136.949 186.556C136.958 187.649 137.19 188.727 137.631 189.727C138.072 190.726 138.712 191.624 139.512 192.365C140.312 193.107 141.255 193.675 142.282 194.037C143.31 194.398 144.4 194.544 145.486 194.466Z" fill="#E6B1A0"/>
<path d="M139.456 179.36C141.487 181.749 139.07 185.748 139.07 185.748L132.992 179.89C132.992 179.89 138.254 177.94 139.456 179.36Z" fill="#000103"/>
<path d="M133.771 183.902C133.375 184.624 133.601 186.12 134.306 187.113C134.642 187.589 135.289 188.229 136.362 188.352C136.993 188.425 137.708 188.267 138.17 187.863C138.63 187.458 138.95 186.944 139.087 186.386C139.225 185.829 139.175 185.251 138.942 184.728C138.709 184.204 138.306 183.758 137.783 183.446C137.258 183.133 136.638 182.968 135.998 182.972C135.233 182.977 134.168 183.18 133.771 183.902Z" fill="#E6B1A0"/>
<path fill-rule="evenodd" clip-rule="evenodd" d="M147.804 186.332C147.568 186.371 147.405 186.551 147.443 186.732L147.986 187.992L146.973 188.115C146.735 188.144 146.562 188.317 146.585 188.5C146.608 188.684 146.82 188.81 147.058 188.78L148.528 188.602C148.646 188.588 148.755 188.536 148.828 188.459C148.901 188.383 148.932 188.288 148.914 188.197L148.299 186.589C148.262 186.407 148.04 186.292 147.804 186.332Z" fill="#1B172C"/>
<path d="M143.682 181.958C143.682 181.958 145.606 182.189 145.512 182.79C145.512 182.79 145.45 183.192 143.788 182.972C142.128 182.752 141.742 182.584 141.668 182.182C141.593 181.779 142.815 181.802 143.682 181.958Z" fill="#1B172C"/>
<path d="M149.797 181.499C149.797 181.499 148.235 181.879 148.279 182.475C148.279 182.475 148.329 182.878 149.691 182.527C151.052 182.177 151.44 181.902 151.454 181.559C151.469 181.217 150.528 181.301 149.797 181.499Z" fill="#1B172C"/>
<path fill-rule="evenodd" clip-rule="evenodd" d="M144.81 185.692C144.948 185.879 145.179 185.903 145.326 185.744C145.475 185.582 145.483 185.298 145.345 185.108L145.077 185.398C145.345 185.108 145.345 185.107 145.345 185.107L145.344 185.106L145.342 185.103L145.337 185.097L145.323 185.077C145.311 185.062 145.295 185.043 145.275 185.02C145.235 184.974 145.178 184.913 145.106 184.848C144.962 184.718 144.75 184.566 144.482 184.477C143.915 184.292 143.194 184.423 142.428 185.339C142.287 185.509 142.29 185.794 142.435 185.977C142.579 186.159 142.812 186.17 142.954 186C143.572 185.261 144.044 185.257 144.324 185.349C144.479 185.4 144.603 185.489 144.692 185.567C144.734 185.607 144.767 185.641 144.787 185.664C144.797 185.676 144.804 185.685 144.807 185.689L144.81 185.692Z" fill="#1B172C"/>
<path fill-rule="evenodd" clip-rule="evenodd" d="M151.034 184.983C151.172 185.171 151.402 185.194 151.55 185.035C151.699 184.874 151.707 184.59 151.569 184.399L151.3 184.689C151.569 184.399 151.569 184.398 151.569 184.398L151.568 184.397L151.566 184.394L151.561 184.388L151.547 184.369C151.535 184.353 151.518 184.334 151.498 184.311C151.459 184.265 151.402 184.204 151.33 184.14C151.186 184.011 150.974 183.858 150.705 183.768C150.138 183.583 149.418 183.715 148.652 184.63C148.511 184.801 148.513 185.086 148.658 185.268C148.803 185.451 149.035 185.462 149.177 185.291C149.796 184.552 150.267 184.548 150.548 184.64C150.702 184.691 150.827 184.78 150.915 184.858C150.958 184.898 150.99 184.932 151.01 184.956C151.021 184.967 151.028 184.976 151.031 184.98L151.034 184.983Z" fill="#1B172C"/>
<path fill-rule="evenodd" clip-rule="evenodd" d="M143.759 190.008C143.606 190.134 143.592 190.345 143.73 190.479C144.079 190.818 144.529 191.063 145.031 191.184C145.533 191.306 146.066 191.301 146.573 191.169C146.772 191.116 146.89 190.932 146.837 190.755C146.785 190.579 146.58 190.479 146.38 190.53C146.008 190.628 145.615 190.632 145.245 190.542C144.876 190.452 144.544 190.273 144.286 190.022C144.15 189.888 143.913 189.882 143.759 190.008Z" fill="#1B172C"/>
<path d="M146.534 170.957C146.534 170.957 154.967 173.085 153.653 176.454C152.681 178.951 144.712 181.34 136.798 180.555C136.798 180.555 132.929 177.962 136.938 174.33C136.942 174.365 138.894 170.639 146.534 170.957Z" fill="#000103"/>
<path d="M131.099 201.645L136.161 200.126C139.199 199.957 145.983 199.619 148.818 199.619C151.653 200.835 153.375 202.826 153.881 203.67C152.193 204.683 147.401 206.606 141.73 206.202C136.06 205.796 132.28 202.995 131.099 201.645Z" fill="white"/>
<path d="M149.451 199.826C147.583 199.086 145.565 198.695 143.513 198.679C140.988 198.848 138.489 199.305 136.076 200.04C136.076 200.04 136.68 203.321 143.626 203.27C144.992 203.285 146.352 203.054 147.631 202.589C148.907 202.1 149.123 201.219 149.451 199.826Z" fill="#E6B1A0"/>
<defs>
<filter id="filter0_dd" x="14.2783" y="42.1392" width="294.496" height="121.114" filterUnits="userSpaceOnUse" color-interpolation-filters="sRGB">
<feFlood flood-opacity="0" result="BackgroundImageFix"/>
<feColorMatrix in="SourceAlpha" type="matrix" values="0 0 0 0 0 0 0 0 0 0 0 0 0 0 0 0 0 0 127 0"/>
<feOffset dy="10"/>
<feGaussianBlur stdDeviation="10"/>
<feColorMatrix type="matrix" values="0 0 0 0 0 0 0 0 0 0 0 0 0 0 0 0 0 0 0.1 0"/>
<feBlend mode="normal" in2="BackgroundImageFix" result="effect1_dropShadow"/>
<feColorMatrix in="SourceAlpha" type="matrix" values="0 0 0 0 0 0 0 0 0 0 0 0 0 0 0 0 0 0 127 0"/>
<feOffset/>
<feGaussianBlur stdDeviation="2"/>
<feColorMatrix type="matrix" values="0 0 0 0 0 0 0 0 0 0 0 0 0 0 0 0 0 0 0.1 0"/>
<feBlend mode="normal" in2="effect1_dropShadow" result="effect2_dropShadow"/>
<feBlend mode="normal" in="SourceGraphic" in2="effect2_dropShadow" result="shape"/>
</filter>
<filter id="filter1_dd" x="14.2783" y="228.702" width="294.496" height="121.114" filterUnits="userSpaceOnUse" color-interpolation-filters="sRGB">
<feFlood flood-opacity="0" result="BackgroundImageFix"/>
<feColorMatrix in="SourceAlpha" type="matrix" values="0 0 0 0 0 0 0 0 0 0 0 0 0 0 0 0 0 0 127 0"/>
<feOffset dy="10"/>
<feGaussianBlur stdDeviation="10"/>
<feColorMatrix type="matrix" values="0 0 0 0 0 0 0 0 0 0 0 0 0 0 0 0 0 0 0.1 0"/>
<feBlend mode="normal" in2="BackgroundImageFix" result="effect1_dropShadow"/>
<feColorMatrix in="SourceAlpha" type="matrix" values="0 0 0 0 0 0 0 0 0 0 0 0 0 0 0 0 0 0 127 0"/>
<feOffset/>
<feGaussianBlur stdDeviation="2"/>
<feColorMatrix type="matrix" values="0 0 0 0 0 0 0 0 0 0 0 0 0 0 0 0 0 0 0.1 0"/>
<feBlend mode="normal" in2="effect1_dropShadow" result="effect2_dropShadow"/>
<feBlend mode="normal" in="SourceGraphic" in2="effect2_dropShadow" result="shape"/>
</filter>
<filter id="filter2_dd" x="83.2256" y="135.421" width="294.496" height="121.114" filterUnits="userSpaceOnUse" color-interpolation-filters="sRGB">
<feFlood flood-opacity="0" result="BackgroundImageFix"/>
<feColorMatrix in="SourceAlpha" type="matrix" values="0 0 0 0 0 0 0 0 0 0 0 0 0 0 0 0 0 0 127 0"/>
<feOffset dy="10"/>
<feGaussianBlur stdDeviation="10"/>
<feColorMatrix type="matrix" values="0 0 0 0 0 0 0 0 0 0 0 0 0 0 0 0 0 0 0.1 0"/>
<feBlend mode="normal" in2="BackgroundImageFix" result="effect1_dropShadow"/>
<feColorMatrix in="SourceAlpha" type="matrix" values="0 0 0 0 0 0 0 0 0 0 0 0 0 0 0 0 0 0 127 0"/>
<feOffset/>
<feGaussianBlur stdDeviation="2"/>
<feColorMatrix type="matrix" values="0 0 0 0 0 0 0 0 0 0 0 0 0 0 0 0 0 0 0.1 0"/>
<feBlend mode="normal" in2="effect1_dropShadow" result="effect2_dropShadow"/>
<feBlend mode="normal" in="SourceGraphic" in2="effect2_dropShadow" result="shape"/>
</filter>
</defs>
</svg>
