<svg width="388" height="388" viewBox="0 0 388 388" fill="none" xmlns="http://www.w3.org/2000/svg">
<path d="M205.87 236.637C205.719 235.976 205.329 235.394 204.776 235.001C204.223 234.609 203.544 234.434 202.87 234.51C202.196 234.586 201.573 234.908 201.121 235.413C200.669 235.919 200.419 236.574 200.419 237.252C200.419 237.931 200.669 238.586 201.121 239.091C201.573 239.597 202.196 239.919 202.87 239.995C203.544 240.071 204.223 239.896 204.776 239.504C205.329 239.111 205.719 238.529 205.87 237.867H213.87L233.63 257.607H240.63C240.781 258.269 241.171 258.851 241.724 259.244C242.277 259.636 242.956 259.811 243.63 259.735C244.304 259.659 244.927 259.337 245.379 258.831C245.831 258.326 246.081 257.671 246.081 256.992C246.081 256.314 245.831 255.659 245.379 255.153C244.927 254.648 244.304 254.326 243.63 254.25C242.956 254.174 242.277 254.349 241.724 254.741C241.171 255.134 240.781 255.716 240.63 256.377H234.18L214.43 236.637H205.87Z" fill="#D6E4FF"/>
<path d="M320.81 226.938C321.132 227.257 321.527 227.491 321.961 227.621C322.395 227.751 322.855 227.773 323.299 227.683C323.743 227.594 324.158 227.396 324.508 227.108C324.858 226.82 325.131 226.45 325.304 226.031C325.477 225.613 325.544 225.158 325.5 224.707C325.456 224.256 325.301 223.823 325.049 223.446C324.798 223.069 324.458 222.76 324.058 222.546C323.659 222.331 323.213 222.219 322.76 222.218C322.133 222.218 321.525 222.433 321.036 222.825C320.547 223.218 320.206 223.765 320.07 224.378H196.52L177.86 243.098C177.419 242.815 176.905 242.665 176.38 242.668C175.834 242.668 175.301 242.829 174.847 243.133C174.393 243.436 174.039 243.867 173.83 244.371C173.621 244.876 173.567 245.431 173.673 245.966C173.78 246.501 174.043 246.993 174.429 247.379C174.814 247.765 175.306 248.028 175.842 248.134C176.377 248.241 176.932 248.186 177.436 247.977C177.941 247.769 178.372 247.415 178.675 246.961C178.978 246.507 179.14 245.973 179.14 245.428C179.156 244.904 179.021 244.386 178.75 243.938L197.02 225.638H320.02C320.157 226.136 320.431 226.586 320.81 226.938Z" fill="#D6E4FF"/>
<path d="M195.75 244.937C195.281 244.549 194.698 244.325 194.09 244.297C193.482 244.27 192.882 244.442 192.38 244.786C191.878 245.131 191.502 245.63 191.309 246.207C191.116 246.784 191.117 247.409 191.31 247.986C191.504 248.563 191.881 249.061 192.383 249.405C192.885 249.749 193.486 249.92 194.094 249.892C194.702 249.864 195.284 249.638 195.753 249.249C196.221 248.861 196.55 248.33 196.69 247.737H204.07L220.75 264.447C220.316 264.977 220.092 265.648 220.12 266.333C220.149 267.017 220.429 267.667 220.906 268.158C221.383 268.65 222.024 268.949 222.707 268.998C223.39 269.048 224.067 268.844 224.61 268.426C225.153 268.008 225.523 267.406 225.65 266.732C225.777 266.059 225.651 265.363 225.298 264.776C224.945 264.19 224.388 263.753 223.733 263.551C223.079 263.348 222.373 263.393 221.75 263.677L204.6 246.537H196.75C196.616 245.903 196.262 245.336 195.75 244.937Z" fill="#D6E4FF"/>
<path d="M256.56 247.737C256.953 247.222 257.152 246.584 257.123 245.936C257.093 245.289 256.836 244.672 256.397 244.195C255.958 243.718 255.365 243.41 254.722 243.327C254.078 243.243 253.426 243.388 252.88 243.737L245.2 236.057H230.2C229.903 235.451 229.394 234.976 228.769 234.72C228.145 234.465 227.448 234.449 226.812 234.674C226.176 234.9 225.645 235.351 225.32 235.942C224.995 236.534 224.899 237.224 225.05 237.882C225.201 238.539 225.588 239.119 226.138 239.509C226.689 239.9 227.363 240.074 228.034 240C228.705 239.925 229.325 239.606 229.776 239.104C230.227 238.603 230.477 237.952 230.48 237.277H244.75L252.13 244.657C251.867 245.074 251.72 245.553 251.705 246.046C251.691 246.538 251.809 247.025 252.047 247.457C252.285 247.888 252.634 248.247 253.059 248.497C253.483 248.747 253.967 248.879 254.46 248.877L254.34 248.817C254.768 248.818 255.191 248.719 255.575 248.528C255.958 248.337 256.292 248.06 256.55 247.717L256.56 247.737Z" fill="#D6E4FF"/>
<path d="M150 126.937L168.48 108.457C169.055 108.818 169.742 108.955 170.411 108.841C171.079 108.727 171.683 108.371 172.106 107.84C172.529 107.31 172.741 106.642 172.703 105.965C172.665 105.288 172.379 104.648 171.899 104.168C171.419 103.689 170.78 103.402 170.103 103.364C169.425 103.326 168.758 103.539 168.227 103.962C167.697 104.385 167.34 104.988 167.227 105.657C167.113 106.326 167.249 107.013 167.61 107.587L150 125.167V126.937Z" fill="#D6E4FF"/>
<path d="M320.23 263.817C319.845 263.582 319.408 263.445 318.957 263.418C318.506 263.391 318.056 263.475 317.645 263.663C317.235 263.85 316.877 264.136 316.602 264.494C316.327 264.852 316.145 265.272 316.07 265.717H279.6L255.75 293.537H206.9L150 236.637V238.377L206.21 294.587L206.39 294.767H256.29L280.1 266.937H316.1C316.225 267.367 316.453 267.761 316.764 268.083C317.075 268.405 317.46 268.647 317.886 268.787C318.311 268.927 318.764 268.962 319.206 268.888C319.648 268.814 320.065 268.633 320.421 268.362C320.778 268.091 321.063 267.737 321.252 267.331C321.441 266.925 321.528 266.479 321.507 266.032C321.485 265.584 321.355 265.149 321.127 264.763C320.899 264.377 320.581 264.053 320.2 263.817H320.23Z" fill="#D6E4FF"/>
<path d="M185.68 251.807C185.017 252.13 184.509 252.702 184.268 253.399C184.027 254.095 184.073 254.859 184.395 255.522C184.717 256.185 185.29 256.693 185.986 256.934C186.683 257.175 187.447 257.13 188.11 256.807L207.57 276.267H236.57L275.5 237.337H307.5C307.651 237.999 308.04 238.581 308.594 238.974C309.147 239.366 309.826 239.541 310.5 239.465C311.174 239.389 311.797 239.067 312.249 238.561C312.701 238.055 312.95 237.401 312.95 236.722C312.95 236.044 312.701 235.389 312.249 234.883C311.797 234.378 311.174 234.056 310.5 233.98C309.826 233.904 309.147 234.079 308.594 234.471C308.04 234.864 307.651 235.446 307.5 236.107H274.99L235.99 275.107H208.08L189.08 256.107C189.391 255.699 189.581 255.211 189.63 254.7C189.679 254.189 189.584 253.675 189.357 253.214C189.129 252.754 188.778 252.366 188.342 252.095C187.906 251.823 187.403 251.679 186.89 251.677C186.482 251.63 186.068 251.675 185.68 251.807Z" fill="#D6E4FF"/>
<path d="M215.08 117.027L208.08 124.027C207.638 123.744 207.124 123.595 206.6 123.598C206.054 123.598 205.52 123.759 205.066 124.063C204.613 124.366 204.259 124.797 204.05 125.301C203.841 125.806 203.786 126.36 203.893 126.896C203.999 127.431 204.262 127.923 204.648 128.309C205.034 128.695 205.526 128.958 206.061 129.064C206.597 129.171 207.152 129.116 207.656 128.907C208.16 128.698 208.591 128.345 208.895 127.891C209.198 127.437 209.36 126.903 209.36 126.357C209.362 125.833 209.212 125.319 208.93 124.878L215.53 118.277H246.42L255.16 109.537C255.734 109.898 256.422 110.035 257.09 109.921C257.759 109.807 258.363 109.451 258.786 108.92C259.208 108.39 259.421 107.722 259.383 107.045C259.345 106.368 259.059 105.728 258.579 105.248C258.099 104.769 257.46 104.482 256.782 104.444C256.105 104.406 255.437 104.619 254.907 105.042C254.376 105.465 254.02 106.068 253.906 106.737C253.793 107.406 253.929 108.093 254.29 108.668L245.92 117.067L215.08 117.027Z" fill="#D6E4FF"/>
<path d="M199.64 186.717C199.414 186.255 199.062 185.866 198.626 185.594C198.189 185.322 197.685 185.177 197.17 185.177C196.753 185.174 196.341 185.266 195.964 185.445C195.587 185.624 195.256 185.886 194.995 186.211C194.734 186.537 194.55 186.917 194.458 187.324C194.365 187.731 194.366 188.153 194.46 188.56C194.554 188.966 194.739 189.346 195.001 189.67C195.262 189.995 195.595 190.256 195.972 190.434C196.349 190.612 196.762 190.702 197.179 190.697C197.596 190.693 198.007 190.594 198.38 190.407L215.97 207.937H307.53C307.681 208.599 308.071 209.181 308.624 209.574C309.177 209.966 309.856 210.141 310.53 210.065C311.204 209.989 311.827 209.667 312.279 209.161C312.731 208.656 312.981 208.001 312.981 207.322C312.981 206.644 312.731 205.989 312.279 205.484C311.827 204.978 311.204 204.656 310.53 204.58C309.856 204.504 309.177 204.679 308.624 205.071C308.071 205.464 307.681 206.046 307.53 206.707H216.47L199.34 189.607C199.655 189.202 199.85 188.716 199.903 188.205C199.956 187.695 199.865 187.179 199.64 186.717Z" fill="#D6E4FF"/>
<path d="M324.82 196.277C324.482 195.9 324.047 195.622 323.562 195.475C323.077 195.328 322.561 195.318 322.07 195.445C321.579 195.572 321.133 195.831 320.78 196.195C320.428 196.559 320.182 197.013 320.07 197.508H275.75L264.88 186.688H225.55L218.03 194.207C217.458 193.834 216.768 193.685 216.092 193.788C215.417 193.89 214.803 194.239 214.367 194.766C213.932 195.293 213.706 195.961 213.733 196.644C213.76 197.327 214.037 197.976 214.512 198.468C214.987 198.959 215.626 199.258 216.307 199.308C216.989 199.358 217.665 199.156 218.207 198.739C218.748 198.322 219.117 197.72 219.243 197.049C219.369 196.377 219.244 195.682 218.89 195.098L226.06 187.938H264.46L275.27 198.747H320.07C320.163 199.158 320.349 199.542 320.614 199.87C320.879 200.198 321.215 200.46 321.597 200.638C321.979 200.816 322.396 200.904 322.817 200.895C323.239 200.887 323.652 200.782 324.027 200.589C324.401 200.396 324.726 200.12 324.977 199.781C325.228 199.443 325.399 199.052 325.475 198.638C325.552 198.223 325.533 197.797 325.419 197.392C325.305 196.986 325.101 196.612 324.82 196.297V196.277Z" fill="#D6E4FF"/>
<path d="M150 184.277V186.017L196.95 139.067H256.29L275.99 119.367H320.07C320.185 119.874 320.441 120.339 320.808 120.707C321.175 121.075 321.638 121.331 322.145 121.448C322.652 121.564 323.181 121.534 323.671 121.363C324.162 121.192 324.595 120.885 324.919 120.479C325.243 120.073 325.446 119.583 325.504 119.067C325.563 118.55 325.474 118.028 325.248 117.56C325.023 117.091 324.67 116.696 324.229 116.42C323.789 116.144 323.28 115.997 322.76 115.997C322.136 115.997 321.53 116.209 321.041 116.597C320.553 116.986 320.21 117.529 320.07 118.137H275.48L255.75 137.847H196.43L150 184.277Z" fill="#D6E4FF"/>
<path d="M308.63 185.647C308.077 186.041 307.689 186.625 307.54 187.287H288.34C288.189 186.626 287.799 186.044 287.246 185.651C286.693 185.259 286.014 185.084 285.34 185.16C284.666 185.236 284.043 185.558 283.591 186.063C283.139 186.569 282.889 187.224 282.889 187.902C282.889 188.581 283.139 189.236 283.591 189.741C284.043 190.247 284.666 190.569 285.34 190.645C286.014 190.721 286.693 190.546 287.246 190.154C287.799 189.761 288.189 189.179 288.34 188.517H307.54C307.671 189.095 307.985 189.615 308.435 190.001C308.885 190.386 309.447 190.617 310.038 190.659C310.629 190.7 311.217 190.551 311.717 190.232C312.216 189.913 312.599 189.442 312.81 188.888C313.021 188.335 313.049 187.728 312.888 187.158C312.728 186.587 312.388 186.084 311.919 185.722C311.45 185.359 310.877 185.158 310.285 185.146C309.693 185.134 309.113 185.314 308.63 185.657V185.647Z" fill="#D6E4FF"/>
<path d="M324.82 94.8274C324.482 94.4495 324.047 94.1719 323.562 94.025C323.077 93.8781 322.561 93.8676 322.07 93.9946C321.579 94.1217 321.133 94.3814 320.78 94.7453C320.428 95.1091 320.182 95.5631 320.07 96.0574H206.36L150 152.407V154.177L206.9 97.2774H320.07C320.163 97.6882 320.349 98.0722 320.614 98.3999C320.879 98.7276 321.215 98.9904 321.597 99.1681C321.979 99.3459 322.396 99.4338 322.817 99.4253C323.239 99.4167 323.652 99.3119 324.027 99.1188C324.401 98.9257 324.726 98.6494 324.977 98.3112C325.228 97.973 325.399 97.5818 325.475 97.1676C325.552 96.7534 325.533 96.3272 325.419 95.9215C325.306 95.5159 325.101 95.1416 324.82 94.8274Z" fill="#D6E4FF"/>
<path d="M156.96 230.157C157.635 230.233 158.313 230.058 158.867 229.665C159.42 229.272 159.809 228.689 159.96 228.027H167.34L187.16 208.267H201.23C201.381 208.929 201.771 209.511 202.324 209.904C202.877 210.296 203.556 210.471 204.23 210.395C204.904 210.319 205.527 209.997 205.979 209.491C206.431 208.986 206.681 208.331 206.681 207.652C206.681 206.974 206.431 206.319 205.979 205.813C205.527 205.308 204.904 204.986 204.23 204.91C203.556 204.834 202.877 205.009 202.324 205.401C201.771 205.794 201.381 206.376 201.23 207.037H186.66L166.88 226.807H159.96C159.847 226.314 159.6 225.861 159.247 225.499C158.894 225.136 158.447 224.878 157.957 224.752C157.467 224.626 156.951 224.637 156.467 224.784C155.983 224.932 155.548 225.209 155.211 225.587C154.874 225.964 154.647 226.427 154.556 226.925C154.464 227.423 154.511 227.936 154.692 228.409C154.872 228.882 155.179 229.296 155.579 229.606C155.979 229.917 156.457 230.111 156.96 230.167V230.157Z" fill="#D6E4FF"/>
<path d="M195.81 176.847H320.07C320.222 177.555 320.63 178.181 321.216 178.606C321.802 179.03 322.524 179.222 323.244 179.146C323.963 179.07 324.629 178.73 325.113 178.192C325.597 177.654 325.865 176.956 325.865 176.232C325.865 175.509 325.597 174.811 325.113 174.273C324.629 173.735 323.963 173.395 323.244 173.319C322.524 173.242 321.802 173.435 321.216 173.859C320.63 174.284 320.222 174.91 320.07 175.617H195.33L164.53 206.417H150V207.637H165L195.81 176.847Z" fill="#D6E4FF"/>
<path d="M233.3 170.147C233.974 170.223 234.653 170.048 235.207 169.655C235.76 169.262 236.149 168.679 236.3 168.017H276.04L304.1 139.938H320.1C320.215 140.445 320.47 140.909 320.838 141.277C321.205 141.645 321.668 141.902 322.175 142.018C322.681 142.134 323.211 142.105 323.701 141.933C324.192 141.762 324.624 141.456 324.949 141.049C325.273 140.643 325.476 140.154 325.534 139.637C325.593 139.121 325.504 138.598 325.278 138.13C325.053 137.662 324.699 137.267 324.259 136.99C323.819 136.714 323.31 136.567 322.79 136.568C322.156 136.559 321.539 136.77 321.041 137.163C320.544 137.556 320.198 138.109 320.06 138.728H303.61L275.55 166.787H236.31C236.197 166.294 235.95 165.841 235.597 165.479C235.243 165.116 234.797 164.858 234.307 164.732C233.817 164.606 233.301 164.617 232.817 164.764C232.333 164.912 231.898 165.189 231.561 165.567C231.224 165.944 230.997 166.407 230.905 166.905C230.814 167.403 230.861 167.916 231.041 168.389C231.222 168.862 231.529 169.276 231.929 169.586C232.329 169.897 232.807 170.091 233.31 170.147H233.3Z" fill="#D6E4FF"/>
<path d="M216.75 165.757L232.24 150.267C232.715 150.627 233.295 150.82 233.89 150.817C234.436 150.817 234.97 150.656 235.423 150.352C235.877 150.049 236.231 149.618 236.44 149.114C236.649 148.609 236.703 148.054 236.597 147.519C236.49 146.984 236.228 146.492 235.842 146.106C235.456 145.72 234.964 145.457 234.428 145.351C233.893 145.244 233.338 145.299 232.834 145.508C232.329 145.716 231.898 146.07 231.595 146.524C231.292 146.978 231.13 147.512 231.13 148.057C231.129 148.5 231.235 148.935 231.44 149.327L216.24 164.587H186.04L157.54 193.087C156.965 192.727 156.278 192.59 155.609 192.704C154.941 192.818 154.337 193.174 153.914 193.705C153.491 194.235 153.279 194.903 153.317 195.58C153.355 196.257 153.641 196.897 154.121 197.377C154.601 197.856 155.24 198.143 155.917 198.181C156.595 198.219 157.262 198.006 157.793 197.583C158.323 197.16 158.68 196.557 158.793 195.888C158.907 195.219 158.771 194.532 158.41 193.957L186.55 165.757H216.75Z" fill="#D6E4FF"/>
<path d="M256.17 147.368L247.75 155.788C247.133 155.508 246.435 155.465 245.789 155.667C245.143 155.868 244.593 156.3 244.245 156.88C243.896 157.461 243.773 158.149 243.899 158.814C244.024 159.479 244.39 160.075 244.927 160.488C245.463 160.901 246.133 161.103 246.808 161.054C247.483 161.006 248.117 160.711 248.589 160.226C249.061 159.74 249.338 159.099 249.368 158.422C249.398 157.746 249.178 157.082 248.75 156.558L256.75 148.558H276.11L292.89 131.757C293.458 132.108 294.136 132.238 294.794 132.121C295.452 132.004 296.044 131.649 296.456 131.124C296.869 130.598 297.074 129.94 297.033 129.273C296.991 128.606 296.705 127.978 296.23 127.508C295.755 127.039 295.124 126.76 294.456 126.726C293.789 126.692 293.133 126.905 292.612 127.324C292.092 127.743 291.744 128.339 291.635 128.998C291.525 129.657 291.663 130.333 292.02 130.897L275.53 147.338L256.17 147.368Z" fill="#D6E4FF"/>
<path fill-rule="evenodd" clip-rule="evenodd" d="M150.029 46.5322V44L152.529 44V46.5322H150.029ZM150.029 54.6353V49.5708H152.529V54.6353H150.029ZM150.029 62.7383V57.6739H152.529V62.7383H150.029ZM150.029 70.8414V65.7769H152.529V70.8414H150.029ZM150.029 78.9444V73.88H152.529V78.9444H150.029ZM150.029 87.0475V81.983H152.529V87.0475H150.029ZM150.029 95.1505V90.0861H152.529V95.1505H150.029ZM150.029 103.254V98.1891H152.529V103.254H150.029ZM150.029 111.357V106.292H152.529V111.357H150.029ZM150.029 119.46V114.395H152.529V119.46H150.029ZM150.029 127.563V122.498H152.529V127.563H150.029ZM150.029 135.666V130.601H152.529V135.666H150.029ZM150.029 143.769V138.704H152.529V143.769H150.029ZM150.029 151.872V146.807H152.529V151.872H150.029ZM150.029 159.975V154.91H152.529V159.975H150.029ZM150.029 168.078V163.014H152.529V168.078H150.029ZM150.029 176.181V171.117H152.529V176.181H150.029ZM150.029 184.284V179.22H152.529V184.284H150.029ZM150.029 192.387V187.323H152.529V192.387H150.029ZM150.029 200.49V195.426H152.529V200.49H150.029ZM150.029 208.593V203.529H152.529V208.593H150.029ZM150.029 216.696V211.632H152.529V216.696H150.029ZM150.029 224.799V219.735H152.529V224.799H150.029ZM150.029 232.902V227.838H152.529V232.902H150.029ZM150.029 241.005V235.941H152.529V241.005H150.029ZM150.029 249.109V244.044H152.529V249.109H150.029ZM150.029 257.212V252.147H152.529V257.212H150.029ZM150.029 265.315V260.25H152.529V265.315H150.029ZM150.029 273.418V268.353H152.529V273.418H150.029ZM150.029 281.521V276.456H152.529V281.521H150.029ZM150.029 289.624V284.559H152.529V289.624H150.029ZM150.029 297.727V292.662H152.529V297.727H150.029ZM150.029 305.83V300.766H152.529V305.83H150.029ZM150.029 313.933V308.869H152.529V313.933H150.029ZM150.029 322.036V316.972H152.529V322.036H150.029ZM150.029 330.139V325.075H152.529V330.139H150.029ZM150.029 338.242V333.178H152.529V338.242H150.029ZM150.029 343.813V341.281H152.529V343.813H150.029Z" fill="#1D39C4"/>
<path d="M208.882 265.768L224.581 249.208L208.882 288.952V265.768Z" fill="#10239E"/>
<path d="M332.74 173.696C354.661 167.822 367.669 145.291 361.795 123.371C355.922 101.451 333.391 88.4424 311.471 94.3158C289.551 100.189 276.542 122.72 282.416 144.641C288.289 166.561 310.82 179.569 332.74 173.696Z" fill="#597EF7"/>
<path d="M333 173.686C341.787 171.362 349.549 166.175 355.06 158.946C353.14 155.441 350.56 152.34 347.46 149.816C341.36 144.616 342.52 126.506 342.52 126.506L320.7 119.786L298.1 129.296C298.1 129.296 300.16 141.016 294.83 146.946C293.83 148.026 290.02 150.856 286.57 154.636C291.159 162.454 298.186 168.551 306.572 171.992C314.959 175.433 324.243 176.028 333 173.686Z" fill="#000103"/>
<path d="M316.271 171.347L315.931 149.347C315.931 149.347 319.531 149.707 322.781 149.867C326.031 150.027 328.361 148.377 329.611 150.097L331.831 147.437L334.301 171.507L334.491 172.217L316.491 172.117C316.352 171.883 316.276 171.618 316.271 171.347Z" fill="#E7B1A0"/>
<path d="M332.9 157.946C332.9 157.946 322.28 161.526 315.82 147.886H331.94L332.9 157.946Z" fill="#B57D6B"/>
<path d="M298.121 127.953C299.321 141.313 314.121 149.333 326.921 147.423C333.751 146.423 347.341 133.143 345.351 119.883C343.361 106.623 332.701 99.3932 319.891 101.173C308.001 102.823 296.711 112.243 298.121 127.953Z" fill="#000103"/>
<path d="M336.921 133.486C337.141 134.704 337.641 135.854 338.381 136.846C339.047 137.748 339.956 138.442 341.001 138.846C341.938 139.206 342.974 139.206 343.911 138.846C344.861 138.458 345.646 137.751 346.131 136.846C346.686 135.815 346.958 134.656 346.921 133.486C346.887 132.252 346.573 131.041 346.001 129.946C345.473 128.895 344.68 127.999 343.701 127.346C342.843 126.769 341.812 126.504 340.781 126.596C340.121 126.67 339.492 126.911 338.951 127.296C338.38 127.706 337.908 128.239 337.571 128.856C337.199 129.532 336.955 130.272 336.851 131.036C336.739 131.858 336.759 132.692 336.911 133.506L336.921 133.486Z" fill="#B57D6B"/>
<path d="M307.341 125.206C308.338 131.538 310.015 137.744 312.341 143.716C313.228 145.822 314.527 147.73 316.161 149.327C317.763 150.89 319.674 152.103 321.771 152.887L322.561 153.247C324.837 154.261 327.35 154.625 329.821 154.297C332.276 153.963 334.588 152.944 336.491 151.357C338.374 149.96 339.915 148.154 341.001 146.077C342.132 143.939 342.787 141.581 342.921 139.166C343.017 132.814 342.646 126.464 341.811 120.166C341.811 120.166 340.371 100.766 321.781 103.876C303.191 106.986 307.341 125.206 307.341 125.206Z" fill="#E7B1A0"/>
<path d="M331.67 108.526C331.67 108.526 327.87 123.766 304.21 131.946C304.21 131.946 298.66 106.816 316.76 102.246C316.72 102.156 325.54 98.6763 331.67 108.526Z" fill="#000103"/>
<path d="M326.26 110.216C326.26 110.216 333.59 121.676 345.64 123.766C345.64 123.766 344.37 103.116 324.21 101.676C324.22 101.746 327.11 99.4764 326.26 110.216Z" fill="#000103"/>
<path d="M321.091 134.716C321.248 135.351 321.534 135.947 321.931 136.466C322.053 136.657 322.218 136.816 322.412 136.933C322.607 137.049 322.825 137.119 323.051 137.136C323.411 137.136 323.701 136.846 323.871 136.376C324.059 135.796 324.103 135.178 324.001 134.576C323.94 134.19 323.84 133.812 323.701 133.446C323.572 133.094 323.401 132.758 323.191 132.446C323.025 132.195 322.815 131.974 322.571 131.796C322.389 131.66 322.168 131.586 321.941 131.586C321.839 131.594 321.739 131.621 321.648 131.667C321.557 131.714 321.477 131.778 321.411 131.856C321.244 132.056 321.127 132.293 321.071 132.546C320.994 132.874 320.963 133.211 320.981 133.546C320.996 133.932 321.053 134.314 321.151 134.687L321.091 134.716Z" fill="#000103"/>
<path d="M336.511 132.047C336.668 132.681 336.954 133.277 337.351 133.797C337.474 133.987 337.638 134.146 337.833 134.263C338.027 134.379 338.245 134.449 338.471 134.467C338.831 134.467 339.121 134.177 339.291 133.707C339.465 133.123 339.496 132.505 339.381 131.907C339.321 131.521 339.22 131.142 339.081 130.777C338.952 130.424 338.781 130.088 338.571 129.777C338.405 129.525 338.195 129.305 337.951 129.127C337.76 128.997 337.532 128.933 337.301 128.947C337.199 128.954 337.1 128.981 337.009 129.028C336.917 129.074 336.837 129.138 336.771 129.217C336.604 129.416 336.487 129.653 336.431 129.907C336.354 130.234 336.324 130.571 336.341 130.907C336.356 131.292 336.413 131.674 336.511 132.047Z" fill="#000103"/>
<path d="M330.33 135.196C330.435 135.16 330.546 135.145 330.657 135.153C330.768 135.16 330.876 135.189 330.976 135.238C331.075 135.287 331.164 135.356 331.237 135.44C331.31 135.524 331.365 135.621 331.4 135.726L332.4 138.776C332.404 138.823 332.404 138.87 332.4 138.916C332.44 139.161 332.426 139.411 332.359 139.65C332.291 139.888 332.172 140.109 332.01 140.296C331.851 140.479 331.654 140.625 331.433 140.723C331.212 140.821 330.972 140.87 330.73 140.866H329.2C328.992 140.844 328.799 140.745 328.659 140.589C328.52 140.433 328.442 140.231 328.442 140.021C328.442 139.812 328.52 139.61 328.659 139.454C328.799 139.298 328.992 139.199 329.2 139.176H330.75L329.75 136.266C329.715 136.158 329.702 136.044 329.713 135.93C329.723 135.817 329.756 135.707 329.811 135.607C329.865 135.507 329.939 135.419 330.028 135.348C330.117 135.278 330.22 135.226 330.33 135.196Z" fill="black"/>
<path d="M326.58 130.007L315.24 129.467C315.24 129.467 316.61 126.667 321.24 126.937C325.87 127.207 326.58 130.007 326.58 130.007Z" fill="#000103"/>
<path d="M332.91 129.826L342.19 124.826C341.248 124.248 340.158 123.954 339.053 123.98C337.947 124.007 336.873 124.353 335.96 124.976C332.19 127.076 332.91 129.826 332.91 129.826Z" fill="#000103"/>
<path d="M325.35 144.196C325.397 144.084 325.469 143.984 325.559 143.903C325.65 143.822 325.757 143.761 325.873 143.726C325.99 143.691 326.113 143.681 326.233 143.699C326.353 143.716 326.468 143.76 326.57 143.827C327.492 144.415 328.557 144.74 329.65 144.766C330.712 144.784 331.755 144.488 332.65 143.917C332.759 143.855 332.879 143.818 333.003 143.805C333.126 143.793 333.252 143.806 333.37 143.845C333.488 143.884 333.598 143.946 333.691 144.029C333.784 144.112 333.858 144.213 333.91 144.326C334.043 144.552 334.088 144.819 334.037 145.075C333.985 145.332 333.84 145.56 333.63 145.716C332.475 146.454 331.13 146.836 329.76 146.816C328.341 146.789 326.957 146.37 325.76 145.606C325.537 145.457 325.373 145.234 325.298 144.976C325.223 144.718 325.241 144.442 325.35 144.196Z" fill="black"/>
<path d="M312.001 122.516L310.411 137.596L305.261 124.896L312.001 122.516Z" fill="#000103"/>
<path d="M332.71 173.697C336.163 172.819 339.49 171.505 342.61 169.787L323.76 166.947L304.58 171.177C313.36 175.329 323.332 176.222 332.71 173.697Z" fill="#E7B1A0"/>
<path d="M302.8 137.566C303.068 138.847 303.548 140.074 304.22 141.196C305.119 142.186 306.207 142.985 307.42 143.546C307.765 143.722 308.143 143.822 308.529 143.839C308.916 143.856 309.301 143.79 309.66 143.646C310.399 143.306 310.981 142.698 311.29 141.946C311.68 140.997 311.841 139.969 311.76 138.946C311.69 137.819 311.405 136.716 310.92 135.696C310.592 134.75 310.051 133.891 309.34 133.186C308.677 132.711 307.974 132.293 307.24 131.936C306.221 131.575 305.1 131.629 304.12 132.086C303.684 132.454 303.341 132.92 303.12 133.446C302.859 134.062 302.703 134.718 302.66 135.386C302.61 136.116 302.657 136.849 302.8 137.566Z" fill="#E7B1A0"/>
<path d="M368.781 164.487C368.781 173.992 361.076 181.698 351.57 181.698C342.064 181.698 334.358 173.992 334.358 164.487C334.358 154.981 342.064 147.275 351.57 147.275C361.076 147.275 368.781 154.981 368.781 164.487Z" fill="#597EF7"/>
<path fill-rule="evenodd" clip-rule="evenodd" d="M351.57 179.198C359.695 179.198 366.281 172.612 366.281 164.487C366.281 156.362 359.695 149.775 351.57 149.775C343.445 149.775 336.858 156.362 336.858 164.487C336.858 172.612 343.445 179.198 351.57 179.198ZM351.57 181.698C361.076 181.698 368.781 173.992 368.781 164.487C368.781 154.981 361.076 147.275 351.57 147.275C342.064 147.275 334.358 154.981 334.358 164.487C334.358 173.992 342.064 181.698 351.57 181.698Z" fill="white"/>
<path d="M349.75 172.815C350.377 172.815 350.87 172.563 351.211 172.041L359.557 158.815C359.799 158.433 359.897 158.069 359.897 157.734C359.897 156.83 359.234 156.159 358.338 156.159C357.728 156.159 357.343 156.392 356.966 156.997L349.714 168.891L346.038 164.202C345.698 163.774 345.321 163.587 344.801 163.587C343.896 163.587 343.241 164.258 343.241 165.172C343.241 165.582 343.358 165.936 343.698 166.337L348.324 172.116C348.71 172.591 349.158 172.815 349.75 172.815Z" fill="white"/>
<path d="M100.18 258.997C100.18 250.869 97.7699 242.925 93.2544 236.167C88.7389 229.41 82.321 224.143 74.8122 221.033C67.3034 217.924 59.041 217.11 51.0701 218.697C43.0991 220.283 35.7776 224.197 30.0315 229.945C24.2853 235.693 20.3727 243.015 18.7883 250.986C17.204 258.958 18.0191 267.22 21.1307 274.728C24.2422 282.236 29.5104 288.653 36.2689 293.166C43.0274 297.68 50.9727 300.088 59.1 300.087C69.996 300.084 80.4449 295.754 88.1486 288.048C95.8523 280.342 100.18 269.893 100.18 258.997Z" fill="#FA541C"/>
<path d="M31.7598 289.566C39.2599 296.305 48.9777 300.048 59.0605 300.081C69.1432 300.115 78.8855 296.436 86.4298 289.746C79.7998 287.256 69.9198 285.646 58.7998 285.646C47.9498 285.686 38.3398 287.176 31.7598 289.566Z" fill="#0D0F0F"/>
<path d="M81.1899 280.687C75.9399 276.207 66.0499 281.767 58.7899 281.767C51.5299 281.767 41.6699 276.257 36.3799 280.687C32.9599 283.587 33.3799 292.087 41.3799 294.417C53.7899 298.047 58.3799 299.867 58.7599 300.017C59.1699 299.867 63.7599 298.017 76.1399 294.417C84.1799 292.127 84.5999 283.627 81.1899 280.687Z" fill="#172023"/>
<path d="M66.5598 274.546H51.0098C53.4298 282.486 51.2098 286.116 51.2098 286.116C51.2098 286.116 53.5898 288.986 58.7798 288.986C63.9698 288.986 66.3498 286.116 66.3498 286.116C66.3498 286.116 64.1398 282.486 66.5598 274.546Z" fill="#E2A379"/>
<path d="M77.6697 252.756C77.6697 233.446 69.2297 229.016 58.7897 229.016C48.3497 229.016 39.9097 233.446 39.9097 252.756C39.7717 258.148 40.9056 263.495 43.2197 268.366C47.5797 277.056 55.1297 280.086 58.7797 280.086C62.4297 280.086 69.9797 277.086 74.3397 268.366C76.6607 263.497 77.8016 258.149 77.6697 252.756Z" fill="#F4B382"/>
<path d="M77.6699 252.336C77.6699 252.336 74.2699 264.266 68.2599 264.266C62.9599 264.266 60.9899 262.266 58.7899 262.266C56.5899 262.266 54.6199 264.266 49.3199 264.266C44.0199 264.266 39.9099 252.336 39.9099 252.336C39.7706 257.805 40.9037 263.231 43.2199 268.186C47.5799 277.016 55.1299 280.096 58.7799 280.096C62.4299 280.096 69.9799 277.016 74.3399 268.186C76.6629 263.232 77.8029 257.806 77.6699 252.336Z" fill="#BC8A68"/>
<path d="M42.4596 265.957C40.6896 266.247 39.4596 265.957 38.4596 260.137C37.4596 254.317 38.8196 253.517 40.5796 253.227L42.4596 265.957Z" fill="#F4B382"/>
<path d="M75.1396 265.957C76.9096 266.247 78.1396 265.957 79.1396 260.137C80.1396 254.317 78.7796 253.517 77.0196 253.227L75.1396 265.957Z" fill="#F4B382"/>
<path d="M77.3397 252.607C77.3397 233.187 70.9697 228.207 58.7797 228.207C46.5897 228.207 40.2197 233.207 40.2197 252.607C40.2197 252.607 43.6497 245.437 46.1697 241.447C48.6897 237.457 54.1697 237.597 54.1697 237.597H64.4697C64.4697 237.597 70.1397 237.657 71.7197 241.447L77.3397 252.607Z" fill="#47200D"/>
<path d="M77.6697 256.557C77.6697 256.557 71.2897 263.437 66.4597 263.437C61.6297 263.437 61.4597 261.167 58.7997 261.167C56.1397 261.167 55.8597 263.437 51.3097 263.437C46.7597 263.437 39.9297 256.557 39.9297 256.557V253.447H77.6697V256.557Z" fill="#2D2D2D"/>
<path d="M65.0696 260.466C67.1196 260.466 68.7896 259.316 68.7896 257.906C68.7896 256.496 67.1196 255.346 65.0696 255.346C63.0196 255.346 61.3496 256.496 61.3496 257.906C61.3496 259.316 63.0096 260.466 65.0696 260.466Z" fill="#F4B382"/>
<path d="M52.5003 260.466C54.5503 260.466 56.2203 259.316 56.2203 257.906C56.2203 256.496 54.5503 255.346 52.5003 255.346C50.4503 255.346 48.7803 256.496 48.7803 257.906C48.7803 259.316 50.4403 260.466 52.5003 260.466Z" fill="#F4B382"/>
<path d="M78.3899 250.847C78.3899 231.847 69.6099 227.457 58.7799 227.457C47.9499 227.457 39.1699 231.807 39.1699 250.847H78.3899Z" fill="#3A3A3A"/>
<path d="M58.7896 229.467C60.2796 229.467 61.4796 228.647 61.4796 227.637C61.4796 226.627 60.2796 225.807 58.7896 225.807C57.2996 225.807 56.0996 226.627 56.0996 227.637C56.0996 228.647 57.2996 229.467 58.7896 229.467Z" fill="#3A3A3A"/>
<path d="M80.9901 252.256C80.9824 252.566 80.9136 252.872 80.7877 253.155C80.6619 253.438 80.4814 253.694 80.2567 253.908C80.032 254.121 79.7673 254.289 79.4779 254.4C79.1886 254.511 78.8801 254.564 78.5701 254.556C65.6974 250.465 51.8729 250.465 39.0001 254.556C38.6902 254.564 38.3817 254.511 38.0923 254.4C37.8029 254.289 37.5383 254.121 37.3136 253.908C37.0888 253.694 36.9084 253.438 36.7825 253.155C36.6567 252.872 36.5879 252.566 36.5801 252.256V247.686C36.5879 247.376 36.6567 247.071 36.7825 246.788C36.9084 246.504 37.0888 246.249 37.3136 246.035C37.5383 245.821 37.8029 245.654 38.0923 245.543C38.3817 245.432 38.6902 245.378 39.0001 245.386C45.4354 243.523 52.0828 242.491 58.7801 242.316C65.4775 242.491 72.1248 243.523 78.5601 245.386C78.8701 245.378 79.1786 245.432 79.468 245.543C79.7573 245.654 80.022 245.821 80.2467 246.035C80.4714 246.249 80.6519 246.504 80.7777 246.788C80.9036 247.071 80.9723 247.376 80.9801 247.686L80.9901 252.256Z" fill="#2D2D2D"/>
<path d="M39.7596 253.006C39.6747 253.006 39.5933 252.973 39.5333 252.913C39.4733 252.853 39.4396 252.771 39.4396 252.686V246.686C39.4314 246.64 39.4333 246.593 39.4454 246.548C39.4574 246.503 39.4792 246.461 39.5092 246.425C39.5393 246.389 39.5768 246.36 39.6192 246.34C39.6616 246.32 39.7078 246.31 39.7546 246.31C39.8014 246.31 39.8476 246.32 39.89 246.34C39.9324 246.36 39.97 246.389 40 246.425C40.03 246.461 40.0518 246.503 40.0639 246.548C40.0759 246.593 40.0778 246.64 40.0696 246.686V252.686C40.0696 252.77 40.0373 252.849 39.9794 252.909C39.9216 252.969 39.8427 253.004 39.7596 253.006Z" fill="#3A3A3A"/>
<path d="M43.0202 252.317C42.9353 252.317 42.8539 252.283 42.7939 252.223C42.7339 252.163 42.7002 252.081 42.7002 251.997V245.997C42.7134 245.923 42.7522 245.856 42.8098 245.808C42.8674 245.759 42.9401 245.733 43.0152 245.733C43.0903 245.733 43.1629 245.759 43.2205 245.808C43.2781 245.856 43.3169 245.923 43.3302 245.997V251.997C43.3302 252.08 43.2979 252.16 43.24 252.219C43.1821 252.279 43.1033 252.314 43.0202 252.317Z" fill="#3A3A3A"/>
<path d="M47.03 251.476C46.9451 251.476 46.8637 251.443 46.8037 251.383C46.7437 251.323 46.71 251.241 46.71 251.156V245.156C46.7232 245.083 46.762 245.016 46.8196 244.967C46.8772 244.919 46.9499 244.893 47.025 244.893C47.1001 244.893 47.1728 244.919 47.2304 244.967C47.2879 245.016 47.3267 245.083 47.34 245.156V251.156C47.34 251.24 47.3077 251.32 47.2498 251.379C47.1919 251.439 47.1131 251.474 47.03 251.476Z" fill="#3A3A3A"/>
<path d="M51.03 250.757C50.9451 250.757 50.8637 250.723 50.8037 250.663C50.7437 250.603 50.71 250.521 50.71 250.437V244.437C50.7232 244.363 50.762 244.296 50.8196 244.247C50.8772 244.199 50.9499 244.173 51.025 244.173C51.1001 244.173 51.1728 244.199 51.2304 244.247C51.2879 244.296 51.3267 244.363 51.34 244.437V250.437C51.3413 250.478 51.3343 250.519 51.3193 250.558C51.3043 250.597 51.2817 250.632 51.2528 250.662C51.2239 250.692 51.1892 250.716 51.151 250.732C51.1127 250.748 51.0715 250.757 51.03 250.757Z" fill="#3A3A3A"/>
<path d="M55.0398 250.336C54.955 250.336 54.8736 250.303 54.8136 250.243C54.7536 250.183 54.7198 250.101 54.7198 250.016V244.016C54.7116 243.97 54.7136 243.923 54.7256 243.878C54.7376 243.833 54.7594 243.791 54.7895 243.755C54.8195 243.719 54.857 243.69 54.8994 243.67C54.9418 243.65 54.9881 243.64 55.0348 243.64C55.0816 243.64 55.1279 243.65 55.1703 243.67C55.2126 243.69 55.2502 243.719 55.2802 243.755C55.3103 243.791 55.3321 243.833 55.3441 243.878C55.3561 243.923 55.3581 243.97 55.3498 244.016V250.016C55.3512 250.058 55.3441 250.099 55.3292 250.138C55.3142 250.177 55.2916 250.212 55.2627 250.242C55.2337 250.272 55.1991 250.296 55.1608 250.312C55.1225 250.328 55.0814 250.337 55.0398 250.336Z" fill="#3A3A3A"/>
<path d="M58.78 250.316C58.6952 250.316 58.6138 250.283 58.5538 250.223C58.4938 250.163 58.46 250.081 58.46 249.996V243.996C58.4518 243.95 58.4538 243.903 58.4658 243.858C58.4778 243.813 58.4996 243.771 58.5296 243.735C58.5597 243.699 58.5972 243.67 58.6396 243.65C58.682 243.63 58.7282 243.62 58.775 243.62C58.8218 243.62 58.8681 243.63 58.9105 243.65C58.9529 243.67 58.9904 243.699 59.0204 243.735C59.0505 243.771 59.0723 243.813 59.0843 243.858C59.0963 243.903 59.0983 243.95 59.09 243.996V249.996C59.0901 250.08 59.0577 250.16 58.9999 250.219C58.942 250.279 58.8632 250.314 58.78 250.316Z" fill="#3A3A3A"/>
<path d="M77.8199 253.006C77.9047 253.006 77.9862 252.973 78.0462 252.913C78.1062 252.853 78.1399 252.771 78.1399 252.686V246.686C78.1481 246.64 78.1462 246.593 78.1341 246.548C78.1221 246.503 78.1003 246.461 78.0703 246.425C78.0402 246.389 78.0027 246.36 77.9603 246.34C77.9179 246.32 77.8717 246.31 77.8249 246.31C77.7781 246.31 77.7319 246.32 77.6895 246.34C77.6471 246.36 77.6095 246.389 77.5795 246.425C77.5495 246.461 77.5277 246.503 77.5156 246.548C77.5036 246.593 77.5016 246.64 77.5099 246.686V252.686C77.5098 252.77 77.5422 252.849 77.6 252.909C77.6579 252.969 77.7368 253.004 77.8199 253.006Z" fill="#3A3A3A"/>
<path d="M74.5698 252.317C74.6547 252.317 74.7361 252.283 74.7961 252.223C74.8561 252.163 74.8898 252.081 74.8898 251.997V245.997C74.8766 245.923 74.8378 245.856 74.7802 245.808C74.7226 245.759 74.6499 245.733 74.5748 245.733C74.4997 245.733 74.427 245.759 74.3694 245.808C74.3118 245.856 74.273 245.923 74.2598 245.997V251.997C74.2598 252.08 74.2921 252.16 74.35 252.219C74.4078 252.279 74.4867 252.314 74.5698 252.317Z" fill="#3A3A3A"/>
<path d="M70.5502 251.476C70.6351 251.476 70.7164 251.443 70.7765 251.383C70.8365 251.323 70.8702 251.241 70.8702 251.156V245.156C70.857 245.083 70.8182 245.016 70.7606 244.967C70.703 244.919 70.6303 244.893 70.5552 244.893C70.4801 244.893 70.4074 244.919 70.3498 244.967C70.2922 245.016 70.2534 245.083 70.2402 245.156V251.156C70.2401 251.24 70.2725 251.32 70.3303 251.379C70.3882 251.439 70.4671 251.474 70.5502 251.476Z" fill="#3A3A3A"/>
<path d="M66.5597 250.757C66.6446 250.757 66.726 250.723 66.786 250.663C66.846 250.603 66.8798 250.521 66.8798 250.437V244.437C66.8665 244.363 66.8277 244.296 66.7701 244.247C66.7125 244.199 66.6398 244.173 66.5647 244.173C66.4897 244.173 66.4169 244.199 66.3594 244.247C66.3018 244.296 66.263 244.363 66.2497 244.437V250.437C66.2469 250.478 66.2529 250.52 66.2674 250.56C66.2818 250.599 66.3044 250.635 66.3336 250.665C66.3628 250.696 66.398 250.719 66.437 250.735C66.476 250.751 66.5178 250.758 66.5597 250.757Z" fill="#3A3A3A"/>
<path d="M62.5396 250.336C62.6244 250.336 62.7058 250.303 62.7658 250.243C62.8258 250.183 62.8596 250.101 62.8596 250.016V244.016C62.8678 243.97 62.8658 243.923 62.8538 243.878C62.8418 243.833 62.82 243.791 62.7899 243.755C62.7599 243.719 62.7224 243.69 62.68 243.67C62.6376 243.65 62.5913 243.64 62.5446 243.64C62.4978 243.64 62.4515 243.65 62.4091 243.67C62.3667 243.69 62.3292 243.719 62.2992 243.755C62.2691 243.791 62.2473 243.833 62.2353 243.878C62.2233 243.923 62.2213 243.97 62.2296 244.016V250.016C62.2282 250.058 62.2352 250.099 62.2502 250.138C62.2652 250.177 62.2878 250.212 62.3167 250.242C62.3457 250.272 62.3803 250.296 62.4186 250.312C62.4568 250.328 62.498 250.337 62.5396 250.336Z" fill="#3A3A3A"/>
<path d="M102.423 288.683C102.423 298.188 94.7171 305.894 85.2115 305.894C75.7058 305.894 68 298.188 68 288.683C68 279.177 75.7058 271.471 85.2115 271.471C94.7171 271.471 102.423 279.177 102.423 288.683Z" fill="#FA541C"/>
<path fill-rule="evenodd" clip-rule="evenodd" d="M85.2115 303.394C93.3364 303.394 99.923 296.808 99.923 288.683C99.923 280.558 93.3364 273.971 85.2115 273.971C77.0866 273.971 70.5 280.558 70.5 288.683C70.5 296.808 77.0866 303.394 85.2115 303.394ZM85.2115 305.894C94.7171 305.894 102.423 298.188 102.423 288.683C102.423 279.177 94.7171 271.471 85.2115 271.471C75.7058 271.471 68 279.177 68 288.683C68 298.188 75.7058 305.894 85.2115 305.894Z" fill="white"/>
<path d="M78.3872 294.057C77.8815 294.572 77.8544 295.52 78.4053 296.061C78.9562 296.612 79.8955 296.594 80.4103 296.08L85.5039 290.987L90.5886 296.07C91.1214 296.612 92.0426 296.603 92.5845 296.052C93.1354 295.511 93.1354 294.59 92.6026 294.057L87.5179 288.974L92.6026 283.882C93.1354 283.349 93.1354 282.428 92.5845 281.887C92.0426 281.336 91.1214 281.336 90.5886 281.868L85.5039 286.952L80.4103 281.859C79.8955 281.354 78.9472 281.327 78.4053 281.878C77.8634 282.428 77.8815 283.367 78.3872 283.882L83.4809 288.974L78.3872 294.057Z" fill="white"/>
<path d="M151.01 282.167C151.407 282.167 151.982 281.989 152.499 281.73C164.03 275.99 168 272.673 168 265.582V251.202C168 248.342 167.087 247.13 164.546 246.078C162.641 245.263 155.654 242.919 153.868 242.363C152.975 242.085 151.883 241.906 151.01 241.906C150.117 241.906 149.025 242.105 148.132 242.363C146.346 242.9 139.359 245.283 137.454 246.078C134.933 247.13 134 248.342 134 251.202V265.582C134 272.673 138.069 275.811 149.501 281.73C150.018 282.008 150.593 282.167 151.01 282.167Z" fill="#1D39C4"/>
<path d="M143.609 268.323V260.816C143.609 259.544 144.085 258.829 145.078 258.591V256.505C145.078 252.771 147.341 250.269 150.695 250.269C154.049 250.269 156.312 252.771 156.312 256.505V258.591C157.285 258.809 157.761 259.544 157.761 260.816V268.323C157.761 269.932 157.046 270.667 155.558 270.667H145.832C144.344 270.667 143.609 269.932 143.609 268.323ZM147.996 258.512H153.394V256.347C153.394 254.38 152.322 253.109 150.695 253.109C149.048 253.109 147.996 254.4 147.996 256.347V258.512Z" fill="white"/>
<path d="M150.944 174.795C128.332 174.795 110 156.464 110 133.851C110 111.238 128.332 92.9065 150.944 92.9065C173.557 92.9065 191.889 111.238 191.889 133.851C191.889 156.464 173.557 174.795 150.944 174.795Z" fill="#597EF7"/>
<path d="M169.852 112.868C169.852 112.868 169.205 119.756 171.085 123.7C172.966 127.644 177.668 129.066 176.87 140.007C176.073 150.948 178.257 150.962 179.083 153.925C179.083 153.925 137.907 161.535 115.118 152.93L119.946 140.144C123.194 132.786 123.409 121.177 123.409 121.177L139.17 112.988L169.852 112.868Z" fill="#000103"/>
<path d="M157.688 106.675C158.147 106.467 155.941 103.886 155.447 103.786C147.622 102.224 131.138 100.853 124.456 115.087C119.532 125.545 127.661 143.24 140.978 147.355C153.636 151.269 147.013 111.397 147.013 111.397L157.688 106.675Z" fill="#000103"/>
<path d="M157.481 131.745C157.453 132.844 157.798 133.915 158.471 134.823C159.143 135.731 160.114 136.436 161.26 136.847C162.406 137.259 163.675 137.358 164.908 137.134C166.14 136.91 167.28 136.371 168.183 135.587C169.086 134.803 169.711 133.808 169.98 132.728C170.249 131.648 170.149 130.532 169.693 129.522C169.237 128.511 168.446 127.651 167.419 127.05C166.392 126.45 165.176 126.135 163.924 126.148C163.095 126.153 162.27 126.303 161.497 126.588C160.724 126.873 160.018 127.287 159.419 127.807C158.82 128.327 158.341 128.942 158.008 129.618C157.676 130.294 157.497 131.017 157.481 131.745Z" fill="#B57D6B"/>
<path d="M157.632 147.483L157.559 160.453C157.544 165.013 154.597 167.458 149.913 167.464C145.904 167.461 142.168 165.471 141.718 161.678L142.867 141.253L157.632 147.483Z" fill="#E6B1A0"/>
<path d="M157.498 155.524C148.749 155.796 142.943 144.431 142.943 144.431L157.565 146.886L157.498 155.524Z" fill="#B57D6B"/>
<path d="M154.443 151.069C162.171 150.605 168.174 144.086 168.003 137.733L167.502 122.724C167.403 118.894 165.822 115.252 163.096 112.57C160.369 109.887 156.71 108.374 152.893 108.351C144.76 108.289 136.709 114.851 136.655 123.014L137.183 135.076C137.201 137.285 137.67 139.467 138.562 141.487C139.453 143.507 140.748 145.323 142.366 146.821C143.983 148.32 145.89 149.471 147.967 150.201C150.044 150.932 152.249 151.227 154.443 151.069Z" fill="#E6B1A0"/>
<path d="M142.252 120.525C146.359 125.355 141.471 133.443 141.471 133.443L129.185 121.599C129.185 121.599 139.823 117.657 142.252 120.525Z" fill="#000103"/>
<path d="M130.758 129.71C129.956 131.17 130.415 134.194 131.839 136.203C132.519 137.163 133.827 138.457 135.995 138.708C137.272 138.856 138.719 138.534 139.651 137.717C140.583 136.899 141.229 135.861 141.507 134.732C141.785 133.604 141.683 132.437 141.213 131.379C140.743 130.321 139.927 129.419 138.867 128.787C137.808 128.155 136.553 127.822 135.261 127.829C133.716 127.838 131.56 128.25 130.758 129.71Z" fill="#E6B1A0"/>
<path fill-rule="evenodd" clip-rule="evenodd" d="M159.13 134.622C158.652 134.702 158.325 135.064 158.4 135.432L159.5 137.979L157.452 138.228C156.971 138.286 156.618 138.635 156.665 139.006C156.713 139.378 157.141 139.631 157.623 139.573L160.594 139.212C160.834 139.182 161.054 139.078 161.202 138.924C161.349 138.769 161.412 138.577 161.375 138.394L160.131 135.142C160.057 134.775 159.608 134.542 159.13 134.622Z" fill="#1B172C"/>
<path d="M150.798 125.778C150.798 125.778 154.687 126.246 154.498 127.462C154.498 127.462 154.371 128.273 151.013 127.829C147.655 127.385 146.876 127.046 146.725 126.231C146.575 125.417 149.044 125.466 150.798 125.778Z" fill="#1B172C"/>
<path d="M163.161 124.852C163.161 124.852 160.002 125.621 160.092 126.823C160.092 126.823 160.192 127.639 162.945 126.93C165.699 126.221 166.481 125.664 166.511 124.972C166.541 124.281 164.639 124.45 163.161 124.852Z" fill="#1B172C"/>
<path fill-rule="evenodd" clip-rule="evenodd" d="M153.076 133.329C153.356 133.708 153.822 133.755 154.121 133.432C154.421 133.107 154.439 132.532 154.16 132.147L153.616 132.734C154.16 132.147 154.159 132.146 154.159 132.146L154.158 132.145L154.157 132.142L154.153 132.137L154.143 132.124L154.113 132.085C154.089 132.055 154.057 132.015 154.016 131.969C153.935 131.876 153.821 131.754 153.675 131.622C153.384 131.361 152.956 131.051 152.412 130.873C151.267 130.497 149.81 130.763 148.262 132.615C147.975 132.958 147.981 133.535 148.274 133.904C148.567 134.274 149.037 134.295 149.323 133.952C150.573 132.456 151.527 132.448 152.094 132.634C152.406 132.737 152.659 132.918 152.836 133.077C152.924 133.155 152.989 133.226 153.03 133.273C153.05 133.296 153.064 133.313 153.071 133.322L153.076 133.329Z" fill="#1B172C"/>
<path fill-rule="evenodd" clip-rule="evenodd" d="M165.659 131.896C165.939 132.275 166.405 132.322 166.703 131.999C167.004 131.675 167.021 131.099 166.742 130.714L166.198 131.302C166.742 130.714 166.742 130.713 166.742 130.713L166.741 130.712L166.739 130.71L166.736 130.704L166.725 130.691L166.696 130.653C166.672 130.622 166.64 130.583 166.599 130.536C166.518 130.443 166.404 130.321 166.257 130.189C165.967 129.928 165.539 129.619 164.995 129.44C163.85 129.064 162.393 129.33 160.845 131.182C160.558 131.525 160.563 132.103 160.857 132.472C161.15 132.841 161.62 132.862 161.906 132.519C163.156 131.024 164.11 131.015 164.677 131.201C164.989 131.304 165.242 131.485 165.419 131.644C165.506 131.723 165.572 131.793 165.613 131.84C165.633 131.863 165.647 131.881 165.654 131.89L165.659 131.896Z" fill="#1B172C"/>
<path fill-rule="evenodd" clip-rule="evenodd" d="M150.954 142.056C150.643 142.31 150.616 142.736 150.893 143.006C151.599 143.693 152.509 144.187 153.524 144.433C154.538 144.679 155.617 144.668 156.641 144.401C157.044 144.296 157.284 143.923 157.177 143.566C157.069 143.21 156.656 143.006 156.253 143.111C155.499 143.308 154.704 143.316 153.957 143.135C153.21 142.953 152.539 142.589 152.02 142.084C151.742 141.814 151.265 141.801 150.954 142.056Z" fill="#1B172C"/>
<path d="M156.565 103.538C156.565 103.538 173.613 107.839 170.957 114.652C168.992 119.7 152.88 124.53 136.878 122.943C136.878 122.943 129.057 117.7 137.161 110.356C137.169 110.427 141.116 102.893 156.565 103.538Z" fill="#000103"/>
<path d="M125.354 165.582L135.59 162.512C141.732 162.17 155.448 161.488 161.18 161.488C166.912 163.945 170.393 167.971 171.416 169.677C168.004 171.724 158.314 175.614 146.85 174.795C135.385 173.976 127.742 168.312 125.354 165.582Z" fill="white"/>
<path d="M162.46 161.906C158.683 160.409 154.602 159.621 150.455 159.587C145.349 159.927 140.297 160.851 135.418 162.338C135.418 162.338 136.639 168.972 150.683 168.869C153.444 168.901 156.195 168.432 158.779 167.491C161.361 166.504 161.797 164.722 162.46 161.906Z" fill="#E6B1A0"/>
<path d="M192.423 164.487C192.423 173.992 184.717 181.698 175.211 181.698C165.706 181.698 158 173.992 158 164.487C158 154.981 165.706 147.275 175.211 147.275C184.717 147.275 192.423 154.981 192.423 164.487Z" fill="#597EF7"/>
<path fill-rule="evenodd" clip-rule="evenodd" d="M175.211 179.198C183.336 179.198 189.923 172.612 189.923 164.487C189.923 156.362 183.336 149.775 175.211 149.775C167.087 149.775 160.5 156.362 160.5 164.487C160.5 172.612 167.087 179.198 175.211 179.198ZM175.211 181.698C184.717 181.698 192.423 173.992 192.423 164.487C192.423 154.981 184.717 147.275 175.211 147.275C165.706 147.275 158 154.981 158 164.487C158 173.992 165.706 181.698 175.211 181.698Z" fill="white"/>
<path d="M173.391 172.815C174.019 172.815 174.512 172.563 174.852 172.041L183.198 158.815C183.44 158.433 183.539 158.069 183.539 157.734C183.539 156.83 182.876 156.159 181.979 156.159C181.37 156.159 180.984 156.392 180.608 156.997L173.355 168.891L169.68 164.202C169.339 163.774 168.963 163.587 168.443 163.587C167.537 163.587 166.883 164.258 166.883 165.172C166.883 165.582 166.999 165.936 167.34 166.337L171.966 172.116C172.351 172.591 172.799 172.815 173.391 172.815Z" fill="white"/>
<path d="M275.412 239.087H243.572C243.097 239.085 242.629 238.972 242.207 238.754C241.784 238.537 241.42 238.222 241.142 237.837L236.322 231.157C236.045 230.771 235.68 230.456 235.258 230.239C234.836 230.021 234.368 229.908 233.892 229.907H211.292C210.993 229.905 210.696 229.963 210.419 230.076C210.142 230.19 209.89 230.356 209.677 230.567C209.465 230.778 209.296 231.029 209.18 231.305C209.064 231.581 209.004 231.877 209.002 232.177V288.177H209.272L222.502 252.387C222.623 251.95 222.885 251.565 223.246 251.292C223.608 251.019 224.049 250.873 224.502 250.877H277.702V241.347C277.697 240.744 277.453 240.167 277.024 239.744C276.595 239.32 276.015 239.084 275.412 239.087Z" fill="#1D39C4"/>
<path d="M230.172 251.057C230.624 250.557 230.876 249.91 230.882 249.237H245.152L247.102 251.187H248.772L245.602 248.017H230.602C230.43 247.652 230.178 247.329 229.867 247.072C229.555 246.815 229.191 246.63 228.8 246.529C228.409 246.429 228 246.416 227.604 246.491C227.207 246.567 226.832 246.729 226.504 246.965C226.177 247.202 225.906 247.508 225.711 247.861C225.515 248.215 225.4 248.607 225.373 249.01C225.346 249.413 225.408 249.817 225.555 250.193C225.702 250.569 225.93 250.908 226.222 251.187H230.042L230.172 251.057Z" fill="#2F54EB"/>
<path d="M209.002 277.226L215.752 283.966L216.222 282.696L209.002 275.486V277.226Z" fill="#2F54EB"/>
<path d="M209.002 250.587V251.807H214.322L221.082 258.557L221.542 257.297L214.842 250.587H209.002Z" fill="#2F54EB"/>
<path d="M209.002 236.376V237.586H240.732L239.862 236.376H209.002Z" fill="#2F54EB"/>
<path d="M209.002 286.976V288.176H209.392L209.832 286.976H209.002Z" fill="#2F54EB"/>
<path d="M270.222 291.537H211.072C210.755 291.54 210.442 291.47 210.156 291.332C209.871 291.193 209.621 290.991 209.427 290.74C209.234 290.489 209.101 290.196 209.039 289.885C208.977 289.574 208.989 289.252 209.072 288.947L222.512 252.387C222.633 251.95 222.895 251.565 223.256 251.292C223.618 251.019 224.059 250.873 224.512 250.877H283.632C284.992 250.877 285.632 252.167 285.632 253.467L272.222 289.977C272.111 290.422 271.853 290.818 271.491 291.101C271.129 291.384 270.682 291.537 270.222 291.537Z" fill="#85A5FF"/>
</svg>
