<svg width="388" height="388" viewBox="0 0 388 388" fill="none" xmlns="http://www.w3.org/2000/svg">
<g filter="url(#filter0_dd)">
<path d="M356.371 123.165H30.7264C28.7336 123.165 27.1182 124.781 27.1182 126.773V307.186C27.1182 309.178 28.7336 310.794 30.7264 310.794H356.371C358.363 310.794 359.979 309.178 359.979 307.186V126.773C359.979 124.781 358.363 123.165 356.371 123.165Z" fill="white"/>
</g>
<path d="M224.67 171.876H173.252C172.256 171.876 171.448 172.684 171.448 173.681V188.114C171.448 189.11 172.256 189.918 173.252 189.918H224.67C225.666 189.918 226.474 189.11 226.474 188.114V173.681C226.474 172.684 225.666 171.876 224.67 171.876Z" fill="#FF7A45"/>
<path d="M340.134 197.134H46.9643C45.9679 197.134 45.1602 197.942 45.1602 198.938V207.959C45.1602 208.955 45.9679 209.763 46.9643 209.763H340.134C341.131 209.763 341.939 208.955 341.939 207.959V198.938C341.939 197.942 341.131 197.134 340.134 197.134Z" fill="#F5F5F5"/>
<path d="M149.799 216.979H46.9643C45.9679 216.979 45.1602 217.787 45.1602 218.784V227.804C45.1602 228.801 45.9679 229.608 46.9643 229.608H149.799C150.796 229.608 151.603 228.801 151.603 227.804V218.784C151.603 217.787 150.796 216.979 149.799 216.979Z" fill="#FFD8BF"/>
<path d="M256.243 236.825H46.9643C45.9679 236.825 45.1602 237.632 45.1602 238.629V247.649C45.1602 248.646 45.9679 249.454 46.9643 249.454H256.243C257.239 249.454 258.047 248.646 258.047 247.649V238.629C258.047 237.632 257.239 236.825 256.243 236.825Z" fill="#F5F5F5"/>
<path d="M202.119 256.67H46.9643C45.9679 256.67 45.1602 257.478 45.1602 258.474V267.495C45.1602 268.491 45.9679 269.299 46.9643 269.299H202.119C203.115 269.299 203.923 268.491 203.923 267.495V258.474C203.923 257.478 203.115 256.67 202.119 256.67Z" fill="#F5F5F5"/>
<path d="M340.134 216.979H158.82C157.823 216.979 157.016 217.787 157.016 218.784V227.804C157.016 228.801 157.823 229.608 158.82 229.608H340.134C341.131 229.608 341.938 228.801 341.938 227.804V218.784C341.938 217.787 341.131 216.979 340.134 216.979Z" fill="#F5F5F5"/>
<path d="M340.134 236.825H265.263C264.267 236.825 263.459 237.632 263.459 238.629V247.649C263.459 248.646 264.267 249.454 265.263 249.454H340.134C341.131 249.454 341.938 248.646 341.938 247.649V238.629C341.938 237.632 341.131 236.825 340.134 236.825Z" fill="#FFD8BF"/>
<g filter="url(#filter1_dd)">
<path d="M338.33 60.0205H175.056C173.064 60.0205 171.448 61.636 171.448 63.6288V153.835C171.448 155.828 173.064 157.443 175.056 157.443H338.33C340.322 157.443 341.938 155.828 341.938 153.835V63.6288C341.938 61.636 340.322 60.0205 338.33 60.0205Z" fill="white"/>
</g>
<path d="M48.7288 141.757H44.334V139.673H55.5863V141.757H51.1915V152.933H48.7288V141.757Z" fill="black"/>
<path d="M59.0306 144.295C59.7126 143.234 60.9123 142.704 62.6298 142.704V144.958C62.4278 144.92 62.2447 144.901 62.0805 144.901C61.1586 144.901 60.4387 145.173 59.921 145.716C59.4032 146.246 59.1443 147.016 59.1443 148.027V152.933H56.7764V142.817H59.0306V144.295Z" fill="black"/>
<path d="M68.2581 142.704C69.7483 142.704 70.8849 143.064 71.6679 143.783C72.4635 144.491 72.8613 145.564 72.8613 147.004V152.933H70.626V151.702C70.3356 152.144 69.9188 152.485 69.3758 152.725C68.8453 152.952 68.2013 153.066 67.4435 153.066C66.6858 153.066 66.0228 152.939 65.4545 152.687C64.8862 152.422 64.4442 152.062 64.1285 151.607C63.8254 151.14 63.6738 150.616 63.6738 150.035C63.6738 149.125 64.0085 148.399 64.6778 147.856C65.3598 147.301 66.4269 147.023 67.8792 147.023H70.4934V146.871C70.4934 146.164 70.2787 145.621 69.8493 145.242C69.4326 144.863 68.8075 144.674 67.974 144.674C67.4057 144.674 66.8437 144.762 66.288 144.939C65.745 145.116 65.284 145.362 64.9051 145.678L63.9769 143.954C64.5073 143.55 65.1451 143.24 65.8902 143.026C66.6353 142.811 67.4246 142.704 68.2581 142.704ZM67.9361 151.342C68.5296 151.342 69.0537 151.209 69.5084 150.944C69.9756 150.666 70.304 150.275 70.4934 149.769V148.595H68.0497C66.6858 148.595 66.0039 149.043 66.0039 149.94C66.0039 150.369 66.1743 150.71 66.5153 150.963C66.8563 151.215 67.3299 151.342 67.9361 151.342Z" fill="black"/>
<path d="M81.4507 142.704C82.7263 142.704 83.7492 143.076 84.5196 143.821C85.2899 144.566 85.6751 145.671 85.6751 147.136V152.933H83.3072V147.439C83.3072 146.555 83.0988 145.892 82.6821 145.45C82.2653 144.996 81.6718 144.768 80.9014 144.768C80.03 144.768 79.3417 145.034 78.8366 145.564C78.3314 146.082 78.0789 146.833 78.0789 147.818V152.933H75.7109V142.817H77.9652V144.124C78.3567 143.657 78.8492 143.303 79.4428 143.064C80.0363 142.824 80.7056 142.704 81.4507 142.704Z" fill="black"/>
<path d="M91.6152 153.066C90.7943 153.066 89.9924 152.958 89.2094 152.744C88.4264 152.529 87.8013 152.257 87.334 151.929L88.2433 150.129C88.6979 150.432 89.2409 150.679 89.8724 150.868C90.5165 151.045 91.1479 151.133 91.7667 151.133C93.1811 151.133 93.8884 150.761 93.8884 150.016C93.8884 149.662 93.7052 149.416 93.339 149.277C92.9854 149.138 92.4108 149.005 91.6152 148.879C90.7817 148.753 90.0997 148.608 89.5693 148.443C89.0515 148.279 88.5969 147.995 88.2054 147.591C87.8265 147.174 87.6371 146.6 87.6371 145.867C87.6371 144.907 88.0349 144.143 88.8305 143.575C89.6388 142.994 90.7248 142.704 92.0888 142.704C92.7833 142.704 93.4779 142.786 94.1725 142.95C94.8671 143.101 95.4354 143.31 95.8774 143.575L94.9681 145.375C94.1094 144.869 93.1433 144.617 92.0698 144.617C91.3752 144.617 90.8448 144.724 90.4786 144.939C90.125 145.141 89.9482 145.413 89.9482 145.753C89.9482 146.132 90.1376 146.404 90.5165 146.568C90.908 146.72 91.5078 146.865 92.3161 147.004C93.1243 147.13 93.7873 147.275 94.3051 147.439C94.8229 147.604 95.2649 147.881 95.6312 148.273C96.01 148.664 96.1994 149.22 96.1994 149.94C96.1994 150.887 95.789 151.645 94.9681 152.213C94.1473 152.781 93.0296 153.066 91.6152 153.066Z" fill="black"/>
<path d="M98.0498 138.877H100.418V152.933H98.0498V138.877Z" fill="black"/>
<path d="M107.2 142.704C108.691 142.704 109.827 143.064 110.61 143.783C111.406 144.491 111.803 145.564 111.803 147.004V152.933H109.568V151.702C109.278 152.144 108.861 152.485 108.318 152.725C107.788 152.952 107.144 153.066 106.386 153.066C105.628 153.066 104.965 152.939 104.397 152.687C103.829 152.422 103.387 152.062 103.071 151.607C102.768 151.14 102.616 150.616 102.616 150.035C102.616 149.125 102.951 148.399 103.62 147.856C104.302 147.301 105.369 147.023 106.822 147.023H109.436V146.871C109.436 146.164 109.221 145.621 108.792 145.242C108.375 144.863 107.75 144.674 106.916 144.674C106.348 144.674 105.786 144.762 105.23 144.939C104.687 145.116 104.226 145.362 103.848 145.678L102.919 143.954C103.45 143.55 104.087 143.24 104.833 143.026C105.578 142.811 106.367 142.704 107.2 142.704ZM106.878 151.342C107.472 151.342 107.996 151.209 108.451 150.944C108.918 150.666 109.246 150.275 109.436 149.769V148.595H106.992C105.628 148.595 104.946 149.043 104.946 149.94C104.946 150.369 105.117 150.71 105.458 150.963C105.799 151.215 106.272 151.342 106.878 151.342Z" fill="black"/>
<path d="M120.733 152.384C120.456 152.611 120.115 152.782 119.71 152.895C119.319 153.009 118.902 153.066 118.46 153.066C117.349 153.066 116.49 152.775 115.884 152.194C115.278 151.613 114.975 150.767 114.975 149.656V144.787H113.308V142.893H114.975V140.582H117.343V142.893H120.051V144.787H117.343V149.599C117.343 150.092 117.463 150.47 117.702 150.736C117.942 150.988 118.29 151.114 118.744 151.114C119.275 151.114 119.717 150.976 120.07 150.698L120.733 152.384Z" fill="black"/>
<path d="M122.493 142.817H124.861V152.933H122.493V142.817ZM123.686 141.15C123.257 141.15 122.897 141.017 122.607 140.752C122.316 140.474 122.171 140.133 122.171 139.729C122.171 139.325 122.316 138.991 122.607 138.725C122.897 138.448 123.257 138.309 123.686 138.309C124.116 138.309 124.476 138.441 124.766 138.706C125.057 138.959 125.202 139.281 125.202 139.673C125.202 140.089 125.057 140.443 124.766 140.733C124.488 141.011 124.128 141.15 123.686 141.15Z" fill="black"/>
<path d="M132.325 153.066C131.302 153.066 130.38 152.845 129.559 152.403C128.739 151.961 128.095 151.348 127.627 150.565C127.173 149.769 126.945 148.873 126.945 147.875C126.945 146.877 127.173 145.987 127.627 145.204C128.095 144.421 128.739 143.809 129.559 143.367C130.38 142.925 131.302 142.704 132.325 142.704C133.361 142.704 134.289 142.925 135.11 143.367C135.931 143.809 136.569 144.421 137.023 145.204C137.49 145.987 137.724 146.877 137.724 147.875C137.724 148.873 137.49 149.769 137.023 150.565C136.569 151.348 135.931 151.961 135.11 152.403C134.289 152.845 133.361 153.066 132.325 153.066ZM132.325 151.039C133.197 151.039 133.916 150.748 134.485 150.167C135.053 149.586 135.337 148.822 135.337 147.875C135.337 146.928 135.053 146.164 134.485 145.583C133.916 145.002 133.197 144.712 132.325 144.712C131.454 144.712 130.734 145.002 130.166 145.583C129.61 146.164 129.332 146.928 129.332 147.875C129.332 148.822 129.61 149.586 130.166 150.167C130.734 150.748 131.454 151.039 132.325 151.039Z" fill="black"/>
<path d="M145.539 142.704C146.814 142.704 147.837 143.076 148.607 143.821C149.378 144.566 149.763 145.671 149.763 147.136V152.933H147.395V147.439C147.395 146.555 147.187 145.892 146.77 145.45C146.353 144.996 145.76 144.768 144.989 144.768C144.118 144.768 143.43 145.034 142.924 145.564C142.419 146.082 142.167 146.833 142.167 147.818V152.933H139.799V142.817H142.053V144.124C142.445 143.657 142.937 143.303 143.531 143.064C144.124 142.824 144.794 142.704 145.539 142.704Z" fill="black"/>
<path d="M211.334 83.2812L207.602 93.397H205.328L202.714 86.4258L200.062 93.397H197.789L194.076 83.2812H196.311L198.982 90.7449L201.767 83.2812H203.756L206.484 90.7828L209.231 83.2812H211.334Z" fill="#FA541C"/>
<path d="M217.04 93.5295C216.017 93.5295 215.095 93.3085 214.274 92.8664C213.453 92.4244 212.809 91.8119 212.342 91.0289C211.887 90.2333 211.66 89.3367 211.66 88.339C211.66 87.3413 211.887 86.451 212.342 85.668C212.809 84.885 213.453 84.2725 214.274 83.8305C215.095 83.3885 216.017 83.1675 217.04 83.1675C218.076 83.1675 219.004 83.3885 219.825 83.8305C220.646 84.2725 221.283 84.885 221.738 85.668C222.205 86.451 222.439 87.3413 222.439 88.339C222.439 89.3367 222.205 90.2333 221.738 91.0289C221.283 91.8119 220.646 92.4244 219.825 92.8664C219.004 93.3085 218.076 93.5295 217.04 93.5295ZM217.04 91.5025C217.911 91.5025 218.631 91.2121 219.2 90.6311C219.768 90.0502 220.052 89.2862 220.052 88.339C220.052 87.3918 219.768 86.6278 219.2 86.0469C218.631 85.4659 217.911 85.1755 217.04 85.1755C216.169 85.1755 215.449 85.4659 214.881 86.0469C214.325 86.6278 214.047 87.3918 214.047 88.339C214.047 89.2862 214.325 90.0502 214.881 90.6311C215.449 91.2121 216.169 91.5025 217.04 91.5025Z" fill="#FA541C"/>
<path d="M226.768 84.7587C227.45 83.6979 228.65 83.1675 230.367 83.1675V85.4217C230.165 85.3838 229.982 85.3649 229.818 85.3649C228.896 85.3649 228.176 85.6364 227.658 86.1795C227.14 86.7099 226.882 87.4802 226.882 88.4905V93.3969H224.514V83.2811H226.768V84.7587Z" fill="#FA541C"/>
<path d="M235.35 93.5295C234.529 93.5295 233.727 93.4221 232.944 93.2074C232.161 92.9927 231.536 92.7212 231.068 92.3929L231.978 90.5933C232.432 90.8963 232.975 91.1426 233.607 91.332C234.251 91.5088 234.882 91.5972 235.501 91.5972C236.916 91.5972 237.623 91.2247 237.623 90.4796C237.623 90.126 237.44 89.8797 237.073 89.7408C236.72 89.6019 236.145 89.4693 235.35 89.343C234.516 89.2167 233.834 89.0715 233.304 88.9073C232.786 88.7431 232.331 88.459 231.94 88.0549C231.561 87.6381 231.371 87.0635 231.371 86.331C231.371 85.3712 231.769 84.6072 232.565 84.0389C233.373 83.4579 234.459 83.1675 235.823 83.1675C236.518 83.1675 237.212 83.2496 237.907 83.4137C238.601 83.5653 239.17 83.7737 239.612 84.0389L238.703 85.8385C237.844 85.3333 236.878 85.0808 235.804 85.0808C235.11 85.0808 234.579 85.1881 234.213 85.4028C233.859 85.6049 233.683 85.8764 233.683 86.2174C233.683 86.5962 233.872 86.8677 234.251 87.0319C234.642 87.1835 235.242 87.3287 236.05 87.4676C236.859 87.5939 237.522 87.7391 238.039 87.9033C238.557 88.0675 238.999 88.3453 239.366 88.7368C239.744 89.1283 239.934 89.684 239.934 90.4038C239.934 91.351 239.523 92.1087 238.703 92.677C237.882 93.2453 236.764 93.5295 235.35 93.5295Z" fill="#FA541C"/>
<path d="M251.293 88.3958C251.293 88.56 251.281 88.7936 251.255 89.0967H243.318C243.457 89.8418 243.817 90.4354 244.398 90.8774C244.991 91.3068 245.724 91.5215 246.595 91.5215C247.707 91.5215 248.622 91.1552 249.342 90.4228L250.611 91.8814C250.157 92.4244 249.582 92.8349 248.887 93.1127C248.193 93.3905 247.41 93.5295 246.538 93.5295C245.427 93.5295 244.448 93.3085 243.602 92.8664C242.756 92.4244 242.099 91.8119 241.632 91.0289C241.178 90.2333 240.95 89.3367 240.95 88.339C240.95 87.354 241.171 86.4699 241.613 85.6869C242.068 84.8913 242.693 84.2725 243.489 83.8305C244.284 83.3885 245.181 83.1675 246.179 83.1675C247.164 83.1675 248.041 83.3885 248.812 83.8305C249.595 84.2599 250.201 84.8724 250.63 85.668C251.072 86.451 251.293 87.3603 251.293 88.3958ZM246.179 85.0618C245.421 85.0618 244.777 85.2891 244.246 85.7438C243.729 86.1858 243.413 86.7793 243.299 87.5244H249.039C248.938 86.792 248.629 86.1984 248.111 85.7438C247.593 85.2891 246.949 85.0618 246.179 85.0618Z" fill="#FA541C"/>
<path d="M188.654 176.802L185.439 185.407H183.946L181.461 178.88L178.944 185.407H177.451L174.252 176.802H175.73L178.23 183.654L180.828 176.802H182.143L184.692 183.686L187.258 176.802H188.654Z" fill="white"/>
<path d="M193.521 185.504C192.666 185.504 191.898 185.315 191.216 184.936C190.534 184.557 189.998 184.038 189.608 183.377C189.229 182.706 189.04 181.949 189.04 181.104C189.04 180.26 189.229 179.508 189.608 178.847C189.998 178.176 190.534 177.657 191.216 177.289C191.898 176.91 192.666 176.72 193.521 176.72C194.377 176.72 195.14 176.91 195.811 177.289C196.493 177.657 197.023 178.176 197.402 178.847C197.792 179.508 197.987 180.26 197.987 181.104C197.987 181.949 197.792 182.706 197.402 183.377C197.023 184.038 196.493 184.557 195.811 184.936C195.14 185.315 194.377 185.504 193.521 185.504ZM193.521 184.141C194.074 184.141 194.566 184.016 194.999 183.767C195.443 183.507 195.789 183.15 196.038 182.695C196.287 182.23 196.412 181.7 196.412 181.104C196.412 180.509 196.287 179.984 196.038 179.529C195.789 179.064 195.443 178.707 194.999 178.458C194.566 178.209 194.074 178.084 193.521 178.084C192.969 178.084 192.471 178.209 192.028 178.458C191.595 178.707 191.248 179.064 190.988 179.529C190.74 179.984 190.615 180.509 190.615 181.104C190.615 181.7 190.74 182.23 190.988 182.695C191.248 183.15 191.595 183.507 192.028 183.767C192.471 184.016 192.969 184.141 193.521 184.141Z" fill="white"/>
<path d="M201.473 178.247C201.744 177.749 202.144 177.37 202.675 177.11C203.205 176.85 203.849 176.72 204.607 176.72V178.23C204.52 178.219 204.401 178.214 204.25 178.214C203.406 178.214 202.74 178.468 202.253 178.977C201.776 179.475 201.538 180.19 201.538 181.12V185.407H199.979V176.801H201.473V178.247Z" fill="white"/>
<path d="M208.899 185.504C208.195 185.504 207.519 185.412 206.869 185.228C206.22 185.034 205.711 184.79 205.343 184.498L205.992 183.264C206.371 183.534 206.831 183.751 207.372 183.913C207.914 184.076 208.46 184.157 209.012 184.157C210.376 184.157 211.058 183.767 211.058 182.988C211.058 182.728 210.966 182.522 210.782 182.371C210.598 182.219 210.365 182.111 210.084 182.046C209.813 181.97 209.424 181.889 208.915 181.802C208.222 181.694 207.654 181.57 207.21 181.429C206.777 181.288 206.404 181.05 206.09 180.715C205.776 180.379 205.619 179.908 205.619 179.302C205.619 178.523 205.944 177.9 206.593 177.435C207.243 176.958 208.114 176.72 209.207 176.72C209.781 176.72 210.355 176.791 210.928 176.931C211.502 177.072 211.973 177.261 212.341 177.5L211.675 178.734C210.972 178.279 210.144 178.052 209.191 178.052C208.531 178.052 208.027 178.16 207.681 178.376C207.335 178.593 207.161 178.88 207.161 179.237C207.161 179.518 207.259 179.74 207.454 179.903C207.648 180.065 207.887 180.184 208.168 180.26C208.46 180.336 208.866 180.422 209.386 180.52C210.079 180.639 210.636 180.769 211.058 180.909C211.491 181.039 211.859 181.267 212.162 181.591C212.465 181.916 212.617 182.371 212.617 182.955C212.617 183.735 212.281 184.357 211.61 184.823C210.95 185.277 210.046 185.504 208.899 185.504Z" fill="white"/>
<path d="M222.18 181.153C222.18 181.272 222.169 181.429 222.147 181.624H215.165C215.263 182.382 215.593 182.993 216.156 183.459C216.729 183.913 217.438 184.141 218.283 184.141C219.311 184.141 220.139 183.794 220.767 183.101L221.628 184.108C221.238 184.563 220.751 184.909 220.166 185.147C219.593 185.385 218.948 185.504 218.234 185.504C217.325 185.504 216.518 185.32 215.815 184.952C215.111 184.574 214.564 184.049 214.175 183.377C213.796 182.706 213.606 181.949 213.606 181.104C213.606 180.271 213.79 179.518 214.159 178.847C214.537 178.176 215.052 177.657 215.701 177.289C216.361 176.91 217.103 176.72 217.926 176.72C218.748 176.72 219.479 176.91 220.118 177.289C220.767 177.657 221.27 178.176 221.628 178.847C221.996 179.518 222.18 180.287 222.18 181.153ZM217.926 178.035C217.179 178.035 216.551 178.263 216.042 178.717C215.544 179.172 215.252 179.767 215.165 180.503H220.686C220.599 179.778 220.302 179.188 219.793 178.734C219.295 178.268 218.672 178.035 217.926 178.035Z" fill="white"/>
<path d="M54.8353 174.943V186.309H53.5038L46.6843 177.834V186.309H45.0605V174.943H46.392L53.2116 183.419V174.943H54.8353Z" fill="#8C8C8C"/>
<path d="M61.5332 186.407C60.678 186.407 59.9095 186.217 59.2275 185.839C58.5456 185.46 58.0097 184.94 57.6201 184.28C57.2412 183.609 57.0518 182.851 57.0518 182.007C57.0518 181.162 57.2412 180.41 57.6201 179.75C58.0097 179.078 58.5456 178.559 59.2275 178.191C59.9095 177.812 60.678 177.623 61.5332 177.623C62.3884 177.623 63.1515 177.812 63.8226 178.191C64.5046 178.559 65.035 179.078 65.4139 179.75C65.8036 180.41 65.9984 181.162 65.9984 182.007C65.9984 182.851 65.8036 183.609 65.4139 184.28C65.035 184.94 64.5046 185.46 63.8226 185.839C63.1515 186.217 62.3884 186.407 61.5332 186.407ZM61.5332 185.043C62.0853 185.043 62.5778 184.918 63.0108 184.669C63.4546 184.41 63.801 184.052 64.05 183.598C64.2989 183.132 64.4234 182.602 64.4234 182.007C64.4234 181.411 64.2989 180.886 64.05 180.432C63.801 179.966 63.4546 179.609 63.0108 179.36C62.5778 179.111 62.0853 178.986 61.5332 178.986C60.9811 178.986 60.4832 179.111 60.0394 179.36C59.6064 179.609 59.26 179.966 59.0002 180.432C58.7512 180.886 58.6268 181.411 58.6268 182.007C58.6268 182.602 58.7512 183.132 59.0002 183.598C59.26 184.052 59.6064 184.41 60.0394 184.669C60.4832 184.918 60.9811 185.043 61.5332 185.043Z" fill="#8C8C8C"/>
<path d="M82.9556 177.623C84.0381 177.623 84.8933 177.936 85.5211 178.564C86.1598 179.192 86.4791 180.123 86.4791 181.357V186.309H84.9203V181.536C84.9203 180.702 84.7255 180.074 84.3358 179.652C83.9569 179.23 83.4103 179.019 82.6958 179.019C81.9056 179.019 81.2778 179.268 80.8123 179.766C80.3469 180.253 80.1141 180.957 80.1141 181.877V186.309H78.5554V181.536C78.5554 180.702 78.3605 180.074 77.9708 179.652C77.592 179.23 77.0453 179.019 76.3309 179.019C75.5407 179.019 74.9129 179.268 74.4474 179.766C73.9819 180.253 73.7492 180.957 73.7492 181.877V186.309H72.1904V177.704H73.6842V178.986C73.9982 178.543 74.4095 178.207 74.9183 177.98C75.427 177.742 76.0062 177.623 76.6556 177.623C77.3268 177.623 77.9221 177.758 78.4417 178.028C78.9613 178.299 79.3618 178.694 79.6433 179.214C79.968 178.716 80.4172 178.326 80.9909 178.045C81.5755 177.763 82.2304 177.623 82.9556 177.623Z" fill="#8C8C8C"/>
<path d="M92.318 177.623C93.5088 177.623 94.418 177.915 95.0459 178.499C95.6845 179.084 96.0039 179.955 96.0039 181.114V186.309H94.5263V185.173C94.2665 185.573 93.893 185.882 93.4059 186.098C92.9296 186.304 92.3613 186.407 91.701 186.407C90.7376 186.407 89.9637 186.174 89.3791 185.709C88.8054 185.243 88.5186 184.632 88.5186 183.874C88.5186 183.116 88.7946 182.51 89.3466 182.055C89.8987 181.59 90.7755 181.357 91.9771 181.357H94.4451V181.049C94.4451 180.377 94.2503 179.863 93.8606 179.506C93.4709 179.149 92.8972 178.97 92.1394 178.97C91.6307 178.97 91.1327 179.057 90.6456 179.23C90.1585 179.392 89.7472 179.614 89.4116 179.896L88.7621 178.727C89.2059 178.369 89.7363 178.099 90.3534 177.915C90.9704 177.72 91.6253 177.623 92.318 177.623ZM91.9608 185.205C92.5562 185.205 93.0704 185.075 93.5033 184.816C93.9363 184.545 94.2502 184.166 94.4451 183.679V182.477H92.042C90.7214 182.477 90.0611 182.921 90.0611 183.809C90.0611 184.242 90.2289 184.583 90.5644 184.832C90.9 185.081 91.3655 185.205 91.9608 185.205Z" fill="#8C8C8C"/>
<path d="M103.565 185.806C103.338 186.001 103.056 186.153 102.721 186.261C102.385 186.358 102.039 186.407 101.681 186.407C100.815 186.407 100.144 186.174 99.668 185.709C99.1917 185.243 98.9535 184.578 98.9535 183.712V178.987H97.4922V177.704H98.9535V175.82H100.512V177.704H102.98V178.987H100.512V183.647C100.512 184.112 100.626 184.469 100.853 184.718C101.091 184.967 101.427 185.092 101.86 185.092C102.336 185.092 102.742 184.956 103.078 184.686L103.565 185.806Z" fill="#8C8C8C"/>
<path d="M109.919 185.806C109.692 186.001 109.411 186.153 109.075 186.261C108.739 186.358 108.393 186.407 108.036 186.407C107.17 186.407 106.499 186.174 106.022 185.709C105.546 185.243 105.308 184.578 105.308 183.712V178.987H103.847V177.704H105.308V175.82H106.867V177.704H109.335V178.987H106.867V183.647C106.867 184.112 106.98 184.469 107.208 184.718C107.446 184.967 107.781 185.092 108.214 185.092C108.691 185.092 109.097 184.956 109.432 184.686L109.919 185.806Z" fill="#8C8C8C"/>
<path d="M119.135 182.055C119.135 182.174 119.124 182.331 119.102 182.526H112.12C112.218 183.284 112.548 183.895 113.111 184.361C113.684 184.816 114.393 185.043 115.238 185.043C116.266 185.043 117.094 184.697 117.722 184.004L118.583 185.01C118.193 185.465 117.706 185.811 117.121 186.05C116.548 186.288 115.904 186.407 115.189 186.407C114.28 186.407 113.473 186.223 112.77 185.855C112.066 185.476 111.52 184.951 111.13 184.28C110.751 183.609 110.562 182.851 110.562 182.007C110.562 181.173 110.746 180.421 111.114 179.75C111.492 179.078 112.007 178.559 112.656 178.191C113.316 177.812 114.058 177.623 114.881 177.623C115.703 177.623 116.434 177.812 117.073 178.191C117.722 178.559 118.225 179.078 118.583 179.75C118.951 180.421 119.135 181.189 119.135 182.055ZM114.881 178.938C114.134 178.938 113.506 179.165 112.997 179.62C112.499 180.074 112.207 180.67 112.12 181.406H117.641C117.554 180.681 117.257 180.091 116.748 179.636C116.25 179.171 115.628 178.938 114.881 178.938Z" fill="#8C8C8C"/>
<path d="M122.63 179.149C122.9 178.651 123.301 178.272 123.831 178.012C124.362 177.752 125.006 177.623 125.763 177.623V179.133C125.677 179.122 125.558 179.116 125.406 179.116C124.562 179.116 123.896 179.371 123.409 179.88C122.933 180.377 122.695 181.092 122.695 182.023V186.309H121.136V177.704H122.63V179.149Z" fill="#8C8C8C"/>
<path d="M136.427 177.622C137.52 177.622 138.386 177.942 139.025 178.58C139.675 179.208 139.999 180.134 139.999 181.357V186.309H138.441V181.535C138.441 180.702 138.24 180.074 137.84 179.652C137.439 179.23 136.866 179.019 136.119 179.019C135.274 179.019 134.609 179.268 134.121 179.766C133.634 180.253 133.391 180.956 133.391 181.876V186.309H131.832V174.261H133.391V178.921C133.716 178.51 134.138 178.191 134.657 177.963C135.188 177.736 135.778 177.622 136.427 177.622Z" fill="#8C8C8C"/>
<path d="M146.455 186.407C145.6 186.407 144.831 186.217 144.149 185.839C143.467 185.46 142.932 184.94 142.542 184.28C142.163 183.609 141.974 182.851 141.974 182.007C141.974 181.162 142.163 180.41 142.542 179.75C142.932 179.078 143.467 178.559 144.149 178.191C144.831 177.812 145.6 177.623 146.455 177.623C147.31 177.623 148.073 177.812 148.745 178.191C149.426 178.559 149.957 179.078 150.336 179.75C150.725 180.41 150.92 181.162 150.92 182.007C150.92 182.851 150.725 183.609 150.336 184.28C149.957 184.94 149.426 185.46 148.745 185.839C148.073 186.217 147.31 186.407 146.455 186.407ZM146.455 185.043C147.007 185.043 147.5 184.918 147.933 184.669C148.376 184.41 148.723 184.052 148.972 183.598C149.221 183.132 149.345 182.602 149.345 182.007C149.345 181.411 149.221 180.886 148.972 180.432C148.723 179.966 148.376 179.609 147.933 179.36C147.5 179.111 147.007 178.986 146.455 178.986C145.903 178.986 145.405 179.111 144.961 179.36C144.528 179.609 144.182 179.966 143.922 180.432C143.673 180.886 143.549 181.411 143.549 182.007C143.549 182.602 143.673 183.132 143.922 183.598C144.182 184.052 144.528 184.41 144.961 184.669C145.405 184.918 145.903 185.043 146.455 185.043Z" fill="#8C8C8C"/>
<path d="M165.698 177.704L162.483 186.309H160.989L158.505 179.782L155.988 186.309H154.495L151.296 177.704H152.773L155.274 184.556L157.872 177.704H159.187L161.736 184.588L164.302 177.704H165.698Z" fill="#8C8C8C"/>
<path d="M233.592 174.943H235.216V186.309H233.592V174.943Z" fill="#8C8C8C"/>
<path d="M255.448 177.704L252.233 186.309H250.739L248.255 179.782L245.738 186.309H244.245L241.046 177.704H242.523L245.024 184.556L247.622 177.704H248.937L251.486 184.588L254.052 177.704H255.448Z" fill="#8C8C8C"/>
<path d="M259.732 177.623C260.923 177.623 261.832 177.915 262.46 178.499C263.099 179.084 263.418 179.955 263.418 181.114V186.309H261.94V185.173C261.681 185.573 261.307 185.882 260.82 186.098C260.344 186.304 259.775 186.407 259.115 186.407C258.152 186.407 257.378 186.174 256.793 185.709C256.219 185.243 255.933 184.632 255.933 183.874C255.933 183.116 256.209 182.51 256.761 182.055C257.313 181.59 258.19 181.357 259.391 181.357H261.859V181.049C261.859 180.377 261.664 179.863 261.275 179.506C260.885 179.149 260.311 178.97 259.553 178.97C259.045 178.97 258.547 179.057 258.06 179.23C257.573 179.392 257.161 179.614 256.826 179.896L256.176 178.727C256.62 178.369 257.15 178.099 257.767 177.915C258.384 177.72 259.039 177.623 259.732 177.623ZM259.375 185.205C259.97 185.205 260.484 185.075 260.917 184.816C261.35 184.545 261.664 184.166 261.859 183.679V182.477H259.456C258.135 182.477 257.475 182.921 257.475 183.809C257.475 184.242 257.643 184.583 257.978 184.832C258.314 185.081 258.78 185.205 259.375 185.205Z" fill="#8C8C8C"/>
<path d="M268.609 186.407C267.905 186.407 267.229 186.315 266.579 186.131C265.93 185.936 265.421 185.692 265.053 185.4L265.702 184.166C266.081 184.437 266.541 184.653 267.082 184.816C267.624 184.978 268.17 185.059 268.722 185.059C270.086 185.059 270.768 184.669 270.768 183.89C270.768 183.63 270.676 183.425 270.492 183.273C270.308 183.122 270.075 183.013 269.794 182.948C269.523 182.873 269.134 182.791 268.625 182.705C267.932 182.597 267.364 182.472 266.92 182.331C266.487 182.191 266.114 181.952 265.8 181.617C265.486 181.281 265.329 180.81 265.329 180.204C265.329 179.425 265.654 178.802 266.303 178.337C266.952 177.861 267.824 177.623 268.917 177.623C269.491 177.623 270.065 177.693 270.638 177.834C271.212 177.974 271.683 178.164 272.051 178.402L271.385 179.636C270.682 179.181 269.854 178.954 268.901 178.954C268.241 178.954 267.737 179.062 267.391 179.279C267.044 179.495 266.871 179.782 266.871 180.139C266.871 180.421 266.969 180.643 267.164 180.805C267.358 180.967 267.597 181.086 267.878 181.162C268.17 181.238 268.576 181.325 269.096 181.422C269.789 181.541 270.346 181.671 270.768 181.812C271.201 181.942 271.569 182.169 271.872 182.494C272.175 182.818 272.327 183.273 272.327 183.858C272.327 184.637 271.991 185.259 271.32 185.725C270.66 186.18 269.756 186.407 268.609 186.407Z" fill="#8C8C8C"/>
<path d="M281.444 177.623C282.635 177.623 283.544 177.915 284.172 178.499C284.81 179.084 285.13 179.955 285.13 181.114V186.309H283.652V185.173C283.392 185.573 283.019 185.882 282.532 186.098C282.056 186.304 281.487 186.407 280.827 186.407C279.864 186.407 279.09 186.174 278.505 185.709C277.931 185.243 277.645 184.632 277.645 183.874C277.645 183.116 277.921 182.51 278.473 182.055C279.025 181.59 279.901 181.357 281.103 181.357H283.571V181.049C283.571 180.377 283.376 179.863 282.987 179.506C282.597 179.149 282.023 178.97 281.265 178.97C280.757 178.97 280.259 179.057 279.772 179.23C279.284 179.392 278.873 179.614 278.538 179.896L277.888 178.727C278.332 178.369 278.862 178.099 279.479 177.915C280.096 177.72 280.751 177.623 281.444 177.623ZM281.087 185.205C281.682 185.205 282.196 185.075 282.629 184.816C283.062 184.545 283.376 184.166 283.571 183.679V182.477H281.168C279.847 182.477 279.187 182.921 279.187 183.809C279.187 184.242 279.355 184.583 279.69 184.832C280.026 185.081 280.491 185.205 281.087 185.205Z" fill="#8C8C8C"/>
<path d="M292.691 185.806C292.464 186.001 292.182 186.153 291.846 186.261C291.511 186.358 291.165 186.407 290.807 186.407C289.941 186.407 289.27 186.174 288.794 185.709C288.318 185.243 288.079 184.578 288.079 183.712V178.987H286.618V177.704H288.079V175.82H289.638V177.704H292.106V178.987H289.638V183.647C289.638 184.112 289.752 184.469 289.979 184.718C290.217 184.967 290.553 185.092 290.986 185.092C291.462 185.092 291.868 184.956 292.204 184.686L292.691 185.806Z" fill="#8C8C8C"/>
<path d="M301.079 186.407C300.376 186.407 299.699 186.315 299.05 186.131C298.4 185.936 297.891 185.692 297.523 185.4L298.173 184.166C298.552 184.437 299.012 184.653 299.553 184.816C300.094 184.978 300.641 185.059 301.193 185.059C302.557 185.059 303.239 184.669 303.239 183.89C303.239 183.63 303.147 183.425 302.963 183.273C302.779 183.122 302.546 183.013 302.265 182.948C301.994 182.873 301.604 182.791 301.096 182.705C300.403 182.597 299.835 182.472 299.391 182.331C298.958 182.191 298.584 181.952 298.27 181.617C297.956 181.281 297.799 180.81 297.799 180.204C297.799 179.425 298.124 178.802 298.774 178.337C299.423 177.861 300.295 177.623 301.388 177.623C301.962 177.623 302.535 177.693 303.109 177.834C303.683 177.974 304.154 178.164 304.522 178.402L303.856 179.636C303.152 179.181 302.324 178.954 301.372 178.954C300.711 178.954 300.208 179.062 299.862 179.279C299.515 179.495 299.342 179.782 299.342 180.139C299.342 180.421 299.439 180.643 299.634 180.805C299.829 180.967 300.067 181.086 300.349 181.162C300.641 181.238 301.047 181.325 301.566 181.422C302.259 181.541 302.817 181.671 303.239 181.812C303.672 181.942 304.04 182.169 304.343 182.494C304.646 182.818 304.798 183.273 304.798 183.858C304.798 184.637 304.462 185.259 303.791 185.725C303.131 186.18 302.227 186.407 301.079 186.407Z" fill="#8C8C8C"/>
<path d="M311.422 185.806C311.195 186.001 310.914 186.153 310.578 186.261C310.242 186.358 309.896 186.407 309.539 186.407C308.673 186.407 308.002 186.174 307.525 185.709C307.049 185.243 306.811 184.578 306.811 183.712V178.987H305.35V177.704H306.811V175.82H308.37V177.704H310.838V178.987H308.37V183.647C308.37 184.112 308.483 184.469 308.711 184.718C308.949 184.967 309.284 185.092 309.717 185.092C310.194 185.092 310.6 184.956 310.935 184.686L311.422 185.806Z" fill="#8C8C8C"/>
<path d="M321.166 177.704V186.309H319.688V185.01C319.374 185.454 318.958 185.801 318.438 186.049C317.929 186.288 317.372 186.407 316.766 186.407C315.618 186.407 314.714 186.093 314.054 185.465C313.394 184.826 313.063 183.89 313.063 182.656V177.704H314.622V182.477C314.622 183.311 314.823 183.944 315.223 184.377C315.624 184.799 316.197 185.01 316.944 185.01C317.767 185.01 318.416 184.761 318.893 184.263C319.369 183.765 319.607 183.062 319.607 182.153V177.704H321.166Z" fill="#8C8C8C"/>
<path d="M332.089 174.261V186.309H330.595V184.945C330.249 185.422 329.81 185.784 329.28 186.033C328.75 186.282 328.165 186.407 327.526 186.407C326.693 186.407 325.946 186.223 325.286 185.855C324.625 185.486 324.106 184.972 323.727 184.312C323.359 183.641 323.175 182.872 323.175 182.006C323.175 181.14 323.359 180.377 323.727 179.717C324.106 179.057 324.625 178.542 325.286 178.174C325.946 177.806 326.693 177.622 327.526 177.622C328.143 177.622 328.712 177.741 329.231 177.98C329.751 178.207 330.184 178.548 330.53 179.002V174.261H332.089ZM327.656 185.043C328.198 185.043 328.69 184.918 329.134 184.669C329.578 184.409 329.924 184.052 330.173 183.598C330.422 183.132 330.546 182.602 330.546 182.006C330.546 181.411 330.422 180.886 330.173 180.431C329.924 179.966 329.578 179.609 329.134 179.36C328.69 179.111 328.198 178.986 327.656 178.986C327.104 178.986 326.606 179.111 326.162 179.36C325.729 179.609 325.383 179.966 325.123 180.431C324.874 180.886 324.75 181.411 324.75 182.006C324.75 182.602 324.874 183.132 325.123 183.598C325.383 184.052 325.729 184.409 326.162 184.669C326.606 184.918 327.104 185.043 327.656 185.043Z" fill="#8C8C8C"/>
<path d="M342.491 177.704L338.318 187.17C337.95 188.047 337.517 188.664 337.019 189.021C336.532 189.378 335.942 189.557 335.249 189.557C334.827 189.557 334.416 189.486 334.015 189.346C333.626 189.216 333.301 189.021 333.041 188.761L333.707 187.592C334.151 188.014 334.665 188.225 335.249 188.225C335.628 188.225 335.942 188.122 336.191 187.917C336.451 187.722 336.684 187.381 336.889 186.894L337.165 186.293L333.366 177.704H334.989L337.993 184.588L340.965 177.704H342.491Z" fill="#8C8C8C"/>
<path d="M293.171 83.1674C294.156 83.1674 295.033 83.3821 295.804 83.8114C296.587 84.2408 297.199 84.847 297.641 85.63C298.083 86.413 298.304 87.316 298.304 88.3389C298.304 89.3618 298.083 90.2711 297.641 91.0667C297.199 91.8497 296.587 92.4559 295.804 92.8853C295.033 93.3147 294.156 93.5294 293.171 93.5294C292.476 93.5294 291.838 93.4094 291.257 93.1694C290.689 92.9295 290.209 92.5696 289.818 92.0897V93.3967H287.563V79.3408H289.931V84.5123C290.336 84.0703 290.809 83.7357 291.352 83.5083C291.908 83.281 292.514 83.1674 293.171 83.1674ZM292.906 91.5024C293.777 91.5024 294.49 91.212 295.046 90.631C295.614 90.0501 295.899 89.2861 295.899 88.3389C295.899 87.3917 295.614 86.6277 295.046 86.0467C294.49 85.4658 293.777 85.1754 292.906 85.1754C292.337 85.1754 291.826 85.308 291.371 85.5732C290.916 85.8257 290.557 86.192 290.291 86.6719C290.026 87.1518 289.894 87.7074 289.894 88.3389C289.894 88.9703 290.026 89.526 290.291 90.0059C290.557 90.4858 290.916 90.8583 291.371 91.1236C291.826 91.3761 292.337 91.5024 292.906 91.5024Z" fill="#4062EF"/>
<path d="M304.096 83.1675C305.586 83.1675 306.723 83.5274 307.506 84.2472C308.301 84.9545 308.699 86.0279 308.699 87.4676V93.3969H306.464V92.1655C306.173 92.6076 305.757 92.9485 305.214 93.1885C304.683 93.4158 304.039 93.5295 303.281 93.5295C302.524 93.5295 301.861 93.4032 301.292 93.1506C300.724 92.8854 300.282 92.5255 299.966 92.0708C299.663 91.6036 299.512 91.0795 299.512 90.4985C299.512 89.5893 299.846 88.8631 300.516 88.3201C301.198 87.7644 302.265 87.4866 303.717 87.4866H306.331V87.335C306.331 86.6278 306.117 86.0847 305.687 85.7059C305.27 85.327 304.645 85.1376 303.812 85.1376C303.244 85.1376 302.682 85.226 302.126 85.4028C301.583 85.5796 301.122 85.8259 300.743 86.1416L299.815 84.4177C300.345 84.0136 300.983 83.7042 301.728 83.4895C302.473 83.2748 303.263 83.1675 304.096 83.1675ZM303.774 91.8056C304.368 91.8056 304.892 91.673 305.346 91.4078C305.814 91.13 306.142 90.7385 306.331 90.2333V89.0588H303.888C302.524 89.0588 301.842 89.5072 301.842 90.4038C301.842 90.8332 302.012 91.1742 302.353 91.4268C302.694 91.6793 303.168 91.8056 303.774 91.8056Z" fill="#4062EF"/>
<path d="M321.547 79.3408V93.3967H319.274V92.0897C318.883 92.5696 318.397 92.9295 317.816 93.1694C317.247 93.4094 316.616 93.5294 315.921 93.5294C314.949 93.5294 314.071 93.3147 313.288 92.8853C312.518 92.4559 311.912 91.8497 311.47 91.0667C311.028 90.2711 310.807 89.3618 310.807 88.3389C310.807 87.316 311.028 86.413 311.47 85.63C311.912 84.847 312.518 84.2408 313.288 83.8114C314.071 83.3821 314.949 83.1674 315.921 83.1674C316.591 83.1674 317.203 83.281 317.759 83.5083C318.315 83.7357 318.788 84.0766 319.18 84.5313V79.3408H321.547ZM316.205 91.5024C316.774 91.5024 317.285 91.3761 317.74 91.1236C318.195 90.8583 318.554 90.4858 318.82 90.0059C319.085 89.526 319.217 88.9703 319.217 88.3389C319.217 87.7074 319.085 87.1518 318.82 86.6719C318.554 86.192 318.195 85.8257 317.74 85.5732C317.285 85.308 316.774 85.1754 316.205 85.1754C315.637 85.1754 315.126 85.308 314.671 85.5732C314.216 85.8257 313.856 86.192 313.591 86.6719C313.326 87.1518 313.193 87.7074 313.193 88.3389C313.193 88.9703 313.326 89.526 313.591 90.0059C313.856 90.4858 314.216 90.8583 314.671 91.1236C315.126 91.3761 315.637 91.5024 316.205 91.5024Z" fill="#4062EF"/>
<path d="M276.941 87.5853C276.941 87.3232 276.828 87.0537 276.641 86.8739L271.744 81.9769C271.535 81.7673 271.295 81.6699 271.055 81.6699C270.501 81.6699 270.111 82.0667 270.111 82.5834C270.111 82.8679 270.231 83.0926 270.404 83.2723L272.103 84.9795L273.998 86.7167L272.313 86.6268H263.545C262.954 86.6268 262.557 87.0163 262.557 87.5853C262.557 88.1544 262.954 88.5437 263.545 88.5437H272.313L273.998 88.4464L272.103 90.1911L270.404 91.8908C270.231 92.0705 270.111 92.2951 270.111 92.5796C270.111 93.1038 270.501 93.4932 271.055 93.4932C271.295 93.4932 271.527 93.3958 271.729 93.1937L276.641 88.2966C276.828 88.1095 276.941 87.8473 276.941 87.5853Z" fill="#4062EF"/>
<path d="M277.046 87.0736C277.046 86.8115 276.934 86.542 276.746 86.3623L271.85 81.4652C271.639 81.2555 271.4 81.1582 271.16 81.1582C270.607 81.1582 270.217 81.5551 270.217 82.0717C270.217 82.3562 270.337 82.5809 270.509 82.7606L272.209 84.4679L274.103 86.205L272.419 86.1151H263.65C263.059 86.1151 262.662 86.5045 262.662 87.0736C262.662 87.6427 263.059 88.032 263.65 88.032H272.419L274.103 87.9347L272.209 89.6794L270.509 91.3791C270.337 91.5588 270.217 91.7834 270.217 92.068C270.217 92.5921 270.607 92.9815 271.16 92.9815C271.4 92.9815 271.632 92.8841 271.834 92.682L276.746 87.7849C276.934 87.5978 277.046 87.3357 277.046 87.0736Z" fill="#4062EF"/>
<path d="M340.134 269.299H327.505C326.509 269.299 325.701 270.107 325.701 271.103V283.732C325.701 284.728 326.509 285.536 327.505 285.536H340.134C341.131 285.536 341.938 284.728 341.938 283.732V271.103C341.938 270.107 341.131 269.299 340.134 269.299Z" fill="#FF7A45"/>
<path d="M334.503 277.061C335.222 277.179 335.773 277.448 336.156 277.871C336.54 278.285 336.731 278.801 336.731 279.418C336.731 279.896 336.606 280.337 336.356 280.744C336.106 281.142 335.723 281.463 335.207 281.705C334.699 281.948 334.073 282.069 333.33 282.069C332.752 282.069 332.181 281.995 331.618 281.846C331.063 281.69 330.59 281.471 330.199 281.189L330.938 279.735C331.251 279.97 331.61 280.154 332.017 280.286C332.431 280.412 332.853 280.474 333.283 280.474C333.761 280.474 334.136 280.384 334.409 280.204C334.682 280.017 334.82 279.755 334.82 279.418C334.82 278.746 334.307 278.41 333.283 278.41H332.416V277.155L334.104 275.244H330.61V273.719H336.356V274.951L334.503 277.061Z" fill="white"/>
<g filter="url(#filter2_d)">
<path fill-rule="evenodd" clip-rule="evenodd" d="M218.355 185.407V199.854L221.265 197.029L223.298 201.846L226.55 200.462L224.655 195.888H228.811L218.355 185.407Z" fill="white"/>
</g>
<path fill-rule="evenodd" clip-rule="evenodd" d="M219.258 197.671V187.579L226.623 194.96H223.291L225.348 199.848L223.684 200.547L221.546 195.462L219.258 197.671Z" fill="black"/>
<path fill-rule="evenodd" clip-rule="evenodd" d="M194 88.8864C194 88.3882 194.404 87.9844 194.902 87.9844H251.732C252.23 87.9844 252.634 88.3882 252.634 88.8864C252.634 89.3846 252.23 89.7885 251.732 89.7885H194.902C194.404 89.7885 194 89.3846 194 88.8864Z" fill="#FA541C"/>
<path d="M316.68 110.536H191.293C190.297 110.536 189.489 111.344 189.489 112.34V119.557C189.489 120.553 190.297 121.361 191.293 121.361H316.68C317.676 121.361 318.484 120.553 318.484 119.557V112.34C318.484 111.344 317.676 110.536 316.68 110.536Z" fill="#F5F5F5"/>
<path d="M274.283 128.577H191.293C190.297 128.577 189.489 129.385 189.489 130.381V137.598C189.489 138.594 190.297 139.402 191.293 139.402H274.283C275.279 139.402 276.087 138.594 276.087 137.598V130.381C276.087 129.385 275.279 128.577 274.283 128.577Z" fill="#F5F5F5"/>
<defs>
<filter id="filter0_dd" x="7.11816" y="113.165" width="372.861" height="227.629" filterUnits="userSpaceOnUse" color-interpolation-filters="sRGB">
<feFlood flood-opacity="0" result="BackgroundImageFix"/>
<feColorMatrix in="SourceAlpha" type="matrix" values="0 0 0 0 0 0 0 0 0 0 0 0 0 0 0 0 0 0 127 0"/>
<feOffset dy="10"/>
<feGaussianBlur stdDeviation="10"/>
<feColorMatrix type="matrix" values="0 0 0 0 0 0 0 0 0 0 0 0 0 0 0 0 0 0 0.1 0"/>
<feBlend mode="normal" in2="BackgroundImageFix" result="effect1_dropShadow"/>
<feColorMatrix in="SourceAlpha" type="matrix" values="0 0 0 0 0 0 0 0 0 0 0 0 0 0 0 0 0 0 127 0"/>
<feOffset/>
<feGaussianBlur stdDeviation="2"/>
<feColorMatrix type="matrix" values="0 0 0 0 0 0 0 0 0 0 0 0 0 0 0 0 0 0 0.1 0"/>
<feBlend mode="normal" in2="effect1_dropShadow" result="effect2_dropShadow"/>
<feBlend mode="normal" in="SourceGraphic" in2="effect2_dropShadow" result="shape"/>
</filter>
<filter id="filter1_dd" x="151.448" y="50.0205" width="210.49" height="137.423" filterUnits="userSpaceOnUse" color-interpolation-filters="sRGB">
<feFlood flood-opacity="0" result="BackgroundImageFix"/>
<feColorMatrix in="SourceAlpha" type="matrix" values="0 0 0 0 0 0 0 0 0 0 0 0 0 0 0 0 0 0 127 0"/>
<feOffset dy="10"/>
<feGaussianBlur stdDeviation="10"/>
<feColorMatrix type="matrix" values="0 0 0 0 0 0 0 0 0 0 0 0 0 0 0 0 0 0 0.1 0"/>
<feBlend mode="normal" in2="BackgroundImageFix" result="effect1_dropShadow"/>
<feColorMatrix in="SourceAlpha" type="matrix" values="0 0 0 0 0 0 0 0 0 0 0 0 0 0 0 0 0 0 127 0"/>
<feOffset/>
<feGaussianBlur stdDeviation="2"/>
<feColorMatrix type="matrix" values="0 0 0 0 0 0 0 0 0 0 0 0 0 0 0 0 0 0 0.1 0"/>
<feBlend mode="normal" in2="effect1_dropShadow" result="effect2_dropShadow"/>
<feBlend mode="normal" in="SourceGraphic" in2="effect2_dropShadow" result="shape"/>
</filter>
<filter id="filter2_d" x="216.355" y="184.407" width="14.4558" height="20.4392" filterUnits="userSpaceOnUse" color-interpolation-filters="sRGB">
<feFlood flood-opacity="0" result="BackgroundImageFix"/>
<feColorMatrix in="SourceAlpha" type="matrix" values="0 0 0 0 0 0 0 0 0 0 0 0 0 0 0 0 0 0 127 0"/>
<feOffset dy="1"/>
<feGaussianBlur stdDeviation="1"/>
<feColorMatrix type="matrix" values="0 0 0 0 0 0 0 0 0 0 0 0 0 0 0 0 0 0 0.65 0"/>
<feBlend mode="normal" in2="BackgroundImageFix" result="effect1_dropShadow"/>
<feBlend mode="normal" in="SourceGraphic" in2="effect1_dropShadow" result="shape"/>
</filter>
</defs>
</svg>
