<svg width="388" height="388" viewBox="0 0 388 388" fill="none" xmlns="http://www.w3.org/2000/svg">
<path d="M227.39 54.1645L254.05 80.8367C254.793 81.58 255.214 82.5835 255.214 83.6365V160.036C255.214 162.228 253.443 164 251.25 164H171.964C169.772 164 168 162.228 168 160.036V56.9643C168 54.7715 169.772 53 171.964 53H224.578C225.631 53 226.647 53.4212 227.39 54.1645Z" fill="#85A5FF"/>
<path d="M280.33 206.238L308.758 234.592C309.551 235.382 310 236.449 310 237.569V318.786C310 321.117 308.111 323 305.773 323H221.227C218.889 323 217 321.117 217 318.786V209.214C217 206.883 218.889 205 221.227 205H277.331C278.454 205 279.537 205.448 280.33 206.238Z" fill="#FF7875"/>
<path d="M216 131C216 129.895 216.895 129 218 129H263C264.105 129 265 129.895 265 131V152C265 153.105 264.105 154 263 154H218C216.895 154 216 153.105 216 152V131Z" fill="#4062EF"/>
<path d="M138 313C138 311.895 138.895 311 140 311H185C186.105 311 187 311.895 187 313V334C187 335.105 186.105 336 185 336H140C138.895 336 138 335.105 138 334V313Z" fill="#ADC6FF"/>
<path d="M268 286C268 284.895 268.895 284 270 284H318C319.105 284 320 284.895 320 286V309C320 310.105 319.105 311 318 311H270C268.895 311 268 310.105 268 309V286Z" fill="#F5222D"/>
<path d="M88 97C88 95.8954 88.8954 95 90 95H138C139.105 95 140 95.8954 140 97V120C140 121.105 139.105 122 138 122H90C88.8954 122 88 121.105 88 120V97Z" fill="#FFA39E"/>
<path d="M228.564 136.1C229.618 136.1 230.53 136.276 231.301 136.627C232.083 136.978 232.683 137.477 233.103 138.123C233.522 138.769 233.732 139.534 233.732 140.418C233.732 141.291 233.522 142.056 233.103 142.713C232.683 143.359 232.083 143.858 231.301 144.209C230.53 144.549 229.618 144.719 228.564 144.719H226.167V148H223.413V136.1H228.564ZM228.411 142.475C229.238 142.475 229.867 142.299 230.298 141.948C230.728 141.585 230.944 141.075 230.944 140.418C230.944 139.749 230.728 139.239 230.298 138.888C229.867 138.525 229.238 138.344 228.411 138.344H226.167V142.475H228.411Z" fill="white"/>
<path d="M239.604 148.204C238.663 148.204 237.751 148.079 236.867 147.83C235.994 147.569 235.291 147.235 234.759 146.827L235.694 144.753C236.204 145.127 236.81 145.427 237.513 145.654C238.215 145.881 238.918 145.994 239.621 145.994C240.403 145.994 240.981 145.881 241.355 145.654C241.729 145.416 241.916 145.104 241.916 144.719C241.916 144.436 241.802 144.203 241.576 144.022C241.36 143.829 241.077 143.676 240.726 143.563C240.386 143.45 239.921 143.325 239.332 143.189C238.425 142.974 237.683 142.758 237.105 142.543C236.527 142.328 236.028 141.982 235.609 141.506C235.201 141.03 234.997 140.395 234.997 139.602C234.997 138.911 235.184 138.287 235.558 137.732C235.932 137.165 236.493 136.718 237.241 136.389C238 136.06 238.924 135.896 240.012 135.896C240.771 135.896 241.513 135.987 242.239 136.168C242.964 136.349 243.599 136.61 244.143 136.95L243.293 139.041C242.193 138.418 241.094 138.106 239.995 138.106C239.224 138.106 238.652 138.231 238.278 138.48C237.915 138.729 237.734 139.058 237.734 139.466C237.734 139.874 237.943 140.18 238.363 140.384C238.793 140.577 239.445 140.769 240.318 140.962C241.224 141.177 241.967 141.393 242.545 141.608C243.123 141.823 243.616 142.163 244.024 142.628C244.443 143.093 244.653 143.722 244.653 144.515C244.653 145.195 244.46 145.818 244.075 146.385C243.701 146.94 243.134 147.382 242.375 147.711C241.615 148.04 240.692 148.204 239.604 148.204Z" fill="white"/>
<path d="M246.365 136.1H251.771C253.063 136.1 254.202 136.349 255.188 136.848C256.185 137.335 256.956 138.027 257.5 138.922C258.055 139.817 258.333 140.86 258.333 142.05C258.333 143.24 258.055 144.283 257.5 145.178C256.956 146.073 256.185 146.77 255.188 147.269C254.202 147.756 253.063 148 251.771 148H246.365V136.1ZM251.635 145.739C252.825 145.739 253.771 145.41 254.474 144.753C255.188 144.084 255.545 143.183 255.545 142.05C255.545 140.917 255.188 140.021 254.474 139.364C253.771 138.695 252.825 138.361 251.635 138.361H249.119V145.739H251.635Z" fill="white"/>
<path d="M153.074 320.344H149.266V318.1H159.636V320.344H155.828V330H153.074V320.344Z" fill="white"/>
<path d="M160.948 318.1H163.702V330H160.948V318.1Z" fill="white"/>
<path d="M169.11 320.31V323.455H174.618V325.665H169.11V330H166.356V318.1H175.349V320.31H169.11Z" fill="white"/>
<path d="M282.138 292.1C283.192 292.1 284.105 292.276 284.875 292.627C285.657 292.978 286.258 293.477 286.677 294.123C287.097 294.769 287.306 295.534 287.306 296.418C287.306 297.291 287.097 298.056 286.677 298.713C286.258 299.359 285.657 299.858 284.875 300.209C284.105 300.549 283.192 300.719 282.138 300.719H279.741V304H276.987V292.1H282.138ZM281.985 298.475C282.813 298.475 283.442 298.299 283.872 297.948C284.303 297.585 284.518 297.075 284.518 296.418C284.518 295.749 284.303 295.239 283.872 294.888C283.442 294.525 282.813 294.344 281.985 294.344H279.741V298.475H281.985Z" fill="white"/>
<path d="M289.102 292.1H294.508C295.8 292.1 296.939 292.349 297.925 292.848C298.923 293.335 299.693 294.027 300.237 294.922C300.793 295.817 301.07 296.86 301.07 298.05C301.07 299.24 300.793 300.283 300.237 301.178C299.693 302.073 298.923 302.77 297.925 303.269C296.939 303.756 295.8 304 294.508 304H289.102V292.1ZM294.372 301.739C295.562 301.739 296.509 301.41 297.211 300.753C297.925 300.084 298.282 299.183 298.282 298.05C298.282 296.917 297.925 296.021 297.211 295.364C296.509 294.695 295.562 294.361 294.372 294.361H291.856V301.739H294.372Z" fill="white"/>
<path d="M305.731 294.31V297.455H311.239V299.665H305.731V304H302.977V292.1H311.97V294.31H305.731Z" fill="white"/>
<path d="M101.667 103.1C102.721 103.1 103.633 103.276 104.404 103.627C105.186 103.978 105.786 104.477 106.206 105.123C106.625 105.769 106.835 106.534 106.835 107.418C106.835 108.291 106.625 109.056 106.206 109.713C105.786 110.359 105.186 110.858 104.404 111.209C103.633 111.549 102.721 111.719 101.667 111.719H99.2696V115H96.5156V103.1H101.667ZM101.514 109.475C102.341 109.475 102.97 109.299 103.401 108.948C103.831 108.585 104.047 108.075 104.047 107.418C104.047 106.749 103.831 106.239 103.401 105.888C102.97 105.525 102.341 105.344 101.514 105.344H99.2696V109.475H101.514Z" fill="white"/>
<path d="M119.545 103.1V115H117.284L111.351 107.775V115H108.631V103.1H110.909L116.825 110.325V103.1H119.545Z" fill="white"/>
<path d="M130.231 108.863H132.748V113.691C132.102 114.178 131.353 114.552 130.503 114.813C129.653 115.074 128.798 115.204 127.936 115.204C126.701 115.204 125.59 114.943 124.604 114.422C123.618 113.889 122.842 113.158 122.275 112.229C121.72 111.288 121.442 110.229 121.442 109.05C121.442 107.871 121.72 106.817 122.275 105.888C122.842 104.947 123.624 104.216 124.621 103.695C125.619 103.162 126.741 102.896 127.987 102.896C129.03 102.896 129.976 103.072 130.826 103.423C131.676 103.774 132.391 104.284 132.969 104.953L131.2 106.585C130.35 105.69 129.325 105.242 128.123 105.242C127.364 105.242 126.69 105.401 126.1 105.718C125.511 106.035 125.052 106.483 124.723 107.061C124.395 107.639 124.23 108.302 124.23 109.05C124.23 109.787 124.395 110.444 124.723 111.022C125.052 111.6 125.505 112.053 126.083 112.382C126.673 112.699 127.341 112.858 128.089 112.858C128.883 112.858 129.597 112.688 130.231 112.348V108.863Z" fill="white"/>
<path d="M201.867 81C204.347 81 206.493 81.4133 208.307 82.24C210.147 83.0667 211.56 84.24 212.547 85.76C213.533 87.28 214.027 89.08 214.027 91.16C214.027 93.2133 213.533 95.0133 212.547 96.56C211.56 98.08 210.147 99.2533 208.307 100.08C206.493 100.88 204.347 101.28 201.867 101.28H196.227V109H189.747V81H201.867ZM201.507 96C203.453 96 204.933 95.5867 205.947 94.76C206.96 93.9067 207.467 92.7067 207.467 91.16C207.467 89.5867 206.96 88.3867 205.947 87.56C204.933 86.7067 203.453 86.28 201.507 86.28H196.227V96H201.507Z" fill="#4062EF"/>
<path d="M225.443 109.32C223.657 109.32 221.91 109.107 220.203 108.68C218.497 108.227 217.137 107.667 216.123 107L218.203 102.52C219.163 103.133 220.323 103.64 221.683 104.04C223.043 104.413 224.377 104.6 225.683 104.6C228.323 104.6 229.643 103.947 229.643 102.64C229.643 102.027 229.283 101.587 228.563 101.32C227.843 101.053 226.737 100.827 225.243 100.64C223.483 100.373 222.03 100.067 220.883 99.7199C219.737 99.3732 218.737 98.7599 217.883 97.8799C217.057 96.9999 216.643 95.7466 216.643 94.1199C216.643 92.7599 217.03 91.5599 217.803 90.5199C218.603 89.4532 219.75 88.6266 221.243 88.0399C222.763 87.4532 224.55 87.1599 226.603 87.1599C228.123 87.1599 229.63 87.3332 231.123 87.6799C232.643 87.9999 233.897 88.4532 234.883 89.0399L232.803 93.4799C230.91 92.4132 228.843 91.8799 226.603 91.8799C225.27 91.8799 224.27 92.0666 223.603 92.4399C222.937 92.8132 222.603 93.2932 222.603 93.8799C222.603 94.5466 222.963 95.0132 223.683 95.2799C224.403 95.5466 225.55 95.7999 227.123 96.0399C228.883 96.3332 230.323 96.6532 231.443 96.9999C232.563 97.3199 233.537 97.9199 234.363 98.7999C235.19 99.6799 235.603 100.907 235.603 102.48C235.603 103.813 235.203 105 234.403 106.04C233.603 107.08 232.43 107.893 230.883 108.48C229.363 109.04 227.55 109.32 225.443 109.32Z" fill="#4062EF"/>
<path d="M105.301 148.437L138.206 181.357C139.123 182.274 139.643 183.513 139.643 184.813V279.107C139.643 281.814 137.456 284 134.75 284H36.8929C34.1865 284 32 281.814 32 279.107V151.893C32 149.186 34.1865 147 36.8929 147H101.83C103.13 147 104.384 147.52 105.301 148.437Z" fill="#FF9C6E"/>
<path d="M68.9202 174.153C72.2993 174.153 75.0362 176.89 75.0362 180.269C75.0362 183.648 72.2993 186.385 68.9202 186.385C65.541 186.385 62.8041 183.648 62.8041 180.269C62.8041 176.89 65.541 174.153 68.9202 174.153ZM114.179 219.106H57.9112C56.8868 219.106 56.3211 217.929 56.948 217.134L72.2076 197.685C72.322 197.538 72.4682 197.42 72.6351 197.339C72.802 197.258 72.9852 197.215 73.1708 197.215C73.3565 197.215 73.5397 197.258 73.7066 197.339C73.8735 197.42 74.0197 197.538 74.1341 197.685L80.4184 205.697L92.3141 190.529C92.4286 190.383 92.5748 190.264 92.7417 190.183C92.9086 190.102 93.0918 190.06 93.2774 190.06C93.4631 190.06 93.6463 190.102 93.8132 190.183C93.9801 190.264 94.1263 190.383 94.2407 190.529L115.112 217.134C115.769 217.929 115.188 219.106 114.179 219.106Z" fill="#FA541C"/>
<path d="M91 244C91 242.895 91.8954 242 93 242H149.477C150.582 242 151.477 242.895 151.477 244V270.856C151.477 271.96 150.582 272.856 149.477 272.856H93C91.8954 272.856 91 271.96 91 270.856V244Z" fill="#FA541C"/>
<path d="M295 156C295 154.895 295.895 154 297 154H353.477C354.582 154 355.477 154.895 355.477 156V182.856C355.477 183.96 354.582 184.856 353.477 184.856H297C295.895 184.856 295 183.96 295 182.856V156Z" fill="#FFBB96"/>
<path d="M105.59 265.24C104.644 265.24 103.77 265.067 102.97 264.72C102.184 264.36 101.537 263.853 101.03 263.2L102.83 261.04C103.59 262.067 104.457 262.58 105.43 262.58C106.75 262.58 107.41 261.807 107.41 260.26V253.6H102.49V251H110.63V260.08C110.63 261.8 110.204 263.093 109.35 263.96C108.497 264.813 107.244 265.24 105.59 265.24Z" fill="#FFF2E8"/>
<path d="M119.69 251C120.93 251 122.003 251.207 122.91 251.62C123.83 252.033 124.537 252.62 125.03 253.38C125.523 254.14 125.77 255.04 125.77 256.08C125.77 257.107 125.523 258.007 125.03 258.78C124.537 259.54 123.83 260.127 122.91 260.54C122.003 260.94 120.93 261.14 119.69 261.14H116.87V265H113.63V251H119.69ZM119.51 258.5C120.483 258.5 121.223 258.293 121.73 257.88C122.237 257.453 122.49 256.853 122.49 256.08C122.49 255.293 122.237 254.693 121.73 254.28C121.223 253.853 120.483 253.64 119.51 253.64H116.87V258.5H119.51Z" fill="#FFF2E8"/>
<path d="M137.539 257.78H140.499V263.46C139.739 264.033 138.859 264.473 137.859 264.78C136.859 265.087 135.852 265.24 134.839 265.24C133.385 265.24 132.079 264.933 130.918 264.32C129.758 263.693 128.845 262.833 128.178 261.74C127.525 260.633 127.198 259.387 127.198 258C127.198 256.613 127.525 255.373 128.178 254.28C128.845 253.173 129.765 252.313 130.938 251.7C132.112 251.073 133.432 250.76 134.899 250.76C136.125 250.76 137.239 250.967 138.239 251.38C139.239 251.793 140.079 252.393 140.759 253.18L138.679 255.1C137.679 254.047 136.472 253.52 135.059 253.52C134.165 253.52 133.372 253.707 132.679 254.08C131.985 254.453 131.445 254.98 131.058 255.66C130.672 256.34 130.478 257.12 130.478 258C130.478 258.867 130.672 259.64 131.058 260.32C131.445 261 131.978 261.533 132.659 261.92C133.352 262.293 134.139 262.48 135.019 262.48C135.952 262.48 136.792 262.28 137.539 261.88V257.78Z" fill="#FFF2E8"/>
<path d="M312.193 172.92V175H303.521V163.8H311.985V165.88H306.097V168.312H311.297V170.328H306.097V172.92H312.193Z" fill="white"/>
<path d="M318.943 163.8C319.935 163.8 320.794 163.965 321.519 164.296C322.255 164.627 322.821 165.096 323.215 165.704C323.61 166.312 323.807 167.032 323.807 167.864C323.807 168.685 323.61 169.405 323.215 170.024C322.821 170.632 322.255 171.101 321.519 171.432C320.794 171.752 319.935 171.912 318.943 171.912H316.687V175H314.095V163.8H318.943ZM318.799 169.8C319.578 169.8 320.17 169.635 320.575 169.304C320.981 168.963 321.183 168.483 321.183 167.864C321.183 167.235 320.981 166.755 320.575 166.424C320.17 166.083 319.578 165.912 318.799 165.912H316.687V169.8H318.799Z" fill="white"/>
<path d="M330.427 175.192C328.827 175.192 327.579 174.749 326.683 173.864C325.798 172.979 325.355 171.715 325.355 170.072V163.8H327.947V169.976C327.947 171.981 328.779 172.984 330.443 172.984C331.254 172.984 331.872 172.744 332.299 172.264C332.726 171.773 332.939 171.011 332.939 169.976V163.8H335.499V170.072C335.499 171.715 335.051 172.979 334.155 173.864C333.27 174.749 332.027 175.192 330.427 175.192Z" fill="white"/>
<path d="M346.124 169.176C346.764 169.379 347.266 169.72 347.628 170.2C347.991 170.669 348.172 171.251 348.172 171.944C348.172 172.925 347.788 173.683 347.02 174.216C346.263 174.739 345.154 175 343.692 175H337.9V163.8H343.372C344.738 163.8 345.783 164.061 346.508 164.584C347.244 165.107 347.612 165.816 347.612 166.712C347.612 167.256 347.479 167.741 347.212 168.168C346.956 168.595 346.594 168.931 346.124 169.176ZM340.476 165.752V168.392H343.052C343.692 168.392 344.178 168.28 344.508 168.056C344.839 167.832 345.004 167.501 345.004 167.064C345.004 166.627 344.839 166.301 344.508 166.088C344.178 165.864 343.692 165.752 343.052 165.752H340.476ZM343.5 173.048C344.183 173.048 344.695 172.936 345.036 172.712C345.388 172.488 345.564 172.141 345.564 171.672C345.564 170.744 344.876 170.28 343.5 170.28H340.476V173.048H343.5Z" fill="white"/>
<path d="M279.08 250.338C276.885 250.266 274.552 250.435 271.902 250.766C268.389 248.599 266.023 245.622 264.343 241.249L264.498 240.616L264.677 239.867C265.299 237.246 265.633 235.333 265.733 233.404C265.808 231.949 265.727 230.605 265.468 229.361C264.991 226.673 263.09 225.102 260.694 225.005C258.461 224.914 256.408 226.161 255.883 228.094C255.028 231.22 255.529 235.333 257.34 242.348C255.033 247.849 251.984 254.298 249.938 257.895C247.207 259.303 245.08 260.584 243.293 262.004C240.936 263.879 239.465 265.806 239.06 267.83C238.863 268.769 239.16 269.995 239.835 270.999C240.601 272.139 241.755 272.879 243.138 272.986C246.63 273.256 250.921 269.656 255.659 261.527C256.134 261.368 256.637 261.2 257.252 260.992L258.972 260.411C260.061 260.044 260.85 259.78 261.631 259.527C265.014 258.426 267.573 257.73 269.901 257.334C273.946 259.5 278.622 260.92 281.771 260.92C284.37 260.92 286.127 259.572 286.762 257.451C287.318 255.589 286.877 253.429 285.68 252.235C284.443 251.019 282.167 250.438 279.08 250.338ZM243.226 268.905V268.852L243.245 268.803C243.457 268.256 243.728 267.735 244.055 267.248C244.674 266.296 245.525 265.296 246.581 264.23C247.147 263.659 247.737 263.103 248.43 262.478C248.584 262.339 249.573 261.459 249.758 261.285L251.373 259.782L250.199 261.651C248.418 264.491 246.808 266.535 245.428 267.868C244.921 268.359 244.474 268.721 244.113 268.954C243.993 269.033 243.867 269.102 243.735 269.159C243.676 269.184 243.624 269.198 243.572 269.202C243.517 269.209 243.461 269.202 243.41 269.181C243.356 269.158 243.309 269.119 243.277 269.07C243.244 269.021 243.226 268.964 243.226 268.905ZM261.435 237.347L261.108 237.925L260.905 237.292C260.457 235.871 260.128 233.73 260.036 231.798C259.932 229.601 260.107 228.282 260.801 228.282C261.776 228.282 262.222 229.844 262.257 232.193C262.289 234.257 261.965 236.406 261.435 237.347ZM260.595 245.799L260.816 245.213L261.118 245.763C262.808 248.833 265.001 251.395 267.413 253.181L267.933 253.565L267.299 253.695C264.938 254.184 262.739 254.918 259.731 256.131C260.045 256.004 256.606 257.412 255.735 257.746L254.976 258.037L255.381 257.331C257.167 254.223 258.818 250.49 260.595 245.799ZM283.383 256.824C282.246 257.272 279.8 256.872 275.493 255.033L274.4 254.567L275.586 254.48C278.954 254.23 281.34 254.415 282.731 254.924C283.323 255.141 283.718 255.414 283.893 255.727C283.985 255.874 284.016 256.052 283.979 256.223C283.943 256.393 283.841 256.542 283.697 256.639C283.605 256.72 283.498 256.783 283.383 256.824Z" fill="#F5222D"/>
</svg>
