<svg width="388" height="388" viewBox="0 0 388 388" fill="none" xmlns="http://www.w3.org/2000/svg">
<g filter="url(#filter0_dd)">
<path d="M356.054 34.5605H31.9454C29.8333 34.5605 28.1211 36.2727 28.1211 38.3848V351.977C28.1211 354.089 29.8333 355.801 31.9454 355.801H356.054C358.166 355.801 359.878 354.089 359.878 351.977V38.3848C359.878 36.2727 358.166 34.5605 356.054 34.5605Z" fill="white"/>
</g>
<path d="M255.667 220.995H48.1992C47.6712 220.995 47.2432 221.423 47.2432 221.951V225.775C47.2432 226.303 47.6712 226.731 48.1992 226.731H255.667C256.195 226.731 256.623 226.303 256.623 225.775V221.951C256.623 221.423 256.195 220.995 255.667 220.995Z" fill="#E8E8E8"/>
<path d="M216.468 230.556H48.1992C47.6712 230.556 47.2432 230.984 47.2432 231.512V235.336C47.2432 235.864 47.6712 236.292 48.1992 236.292H216.468C216.996 236.292 217.424 235.864 217.424 235.336V231.512C217.424 230.984 216.996 230.556 216.468 230.556Z" fill="#E8E8E8"/>
<path d="M238.458 251.589H48.1992C47.6712 251.589 47.2432 252.017 47.2432 252.545V256.37C47.2432 256.898 47.6712 257.326 48.1992 257.326H238.458C238.986 257.326 239.414 256.898 239.414 256.37V252.545C239.414 252.017 238.986 251.589 238.458 251.589Z" fill="#E8E8E8"/>
<path d="M159.104 261.15H48.1992C47.6712 261.15 47.2432 261.578 47.2432 262.106V265.93C47.2432 266.458 47.6712 266.886 48.1992 266.886H159.104C159.632 266.886 160.06 266.458 160.06 265.93V262.106C160.06 261.578 159.632 261.15 159.104 261.15Z" fill="#E8E8E8"/>
<path d="M268.096 282.184H48.1992C47.6712 282.184 47.2432 282.612 47.2432 283.14V286.964C47.2432 287.492 47.6712 287.92 48.1992 287.92H268.096C268.624 287.92 269.052 287.492 269.052 286.964V283.14C269.052 282.612 268.624 282.184 268.096 282.184Z" fill="#E8E8E8"/>
<path d="M212.644 291.744H48.1992C47.6712 291.744 47.2432 292.172 47.2432 292.7V296.525C47.2432 297.053 47.6712 297.481 48.1992 297.481H212.644C213.172 297.481 213.6 297.053 213.6 296.525V292.7C213.6 292.172 213.172 291.744 212.644 291.744Z" fill="#E8E8E8"/>
<path d="M245.15 312.778H48.1992C47.6712 312.778 47.2432 313.206 47.2432 313.734V317.558C47.2432 318.086 47.6712 318.514 48.1992 318.514H245.15C245.678 318.514 246.106 318.086 246.106 317.558V313.734C246.106 313.206 245.678 312.778 245.15 312.778Z" fill="#E8E8E8"/>
<path d="M157.191 322.338H48.1992C47.6712 322.338 47.2432 322.766 47.2432 323.294V327.119C47.2432 327.647 47.6712 328.075 48.1992 328.075H157.191C157.72 328.075 158.148 327.647 158.148 327.119V323.294C158.148 322.766 157.72 322.338 157.191 322.338Z" fill="#E8E8E8"/>
<path d="M334.065 235.336C337.761 235.336 340.757 232.339 340.757 228.643C340.757 224.947 337.761 221.951 334.065 221.951C330.368 221.951 327.372 224.947 327.372 228.643C327.372 232.339 330.368 235.336 334.065 235.336Z" fill="#E8E8E8"/>
<path d="M334.065 265.93C337.761 265.93 340.757 262.934 340.757 259.238C340.757 255.542 337.761 252.545 334.065 252.545C330.368 252.545 327.372 255.542 327.372 259.238C327.372 262.934 330.368 265.93 334.065 265.93Z" fill="#E8E8E8"/>
<path d="M323.548 266.887C327.772 266.887 331.197 263.462 331.197 259.238C331.197 255.014 327.772 251.589 323.548 251.589C319.324 251.589 315.899 255.014 315.899 259.238C315.899 263.462 319.324 266.887 323.548 266.887Z" fill="#E8E8E8" stroke="white" stroke-width="2"/>
<path d="M313.987 266.887C318.212 266.887 321.636 263.462 321.636 259.238C321.636 255.014 318.212 251.589 313.987 251.589C309.763 251.589 306.339 255.014 306.339 259.238C306.339 263.462 309.763 266.887 313.987 266.887Z" fill="#E8E8E8" stroke="white" stroke-width="2"/>
<path d="M334.065 296.525C337.761 296.525 340.757 293.528 340.757 289.832C340.757 286.136 337.761 283.14 334.065 283.14C330.368 283.14 327.372 286.136 327.372 289.832C327.372 293.528 330.368 296.525 334.065 296.525Z" fill="#E8E8E8"/>
<path d="M323.548 297.481C327.772 297.481 331.197 294.056 331.197 289.832C331.197 285.608 327.772 282.184 323.548 282.184C319.324 282.184 315.899 285.608 315.899 289.832C315.899 294.056 319.324 297.481 323.548 297.481Z" fill="#E8E8E8" stroke="white" stroke-width="2"/>
<path d="M334.065 327.119C337.761 327.119 340.757 324.123 340.757 320.426C340.757 316.73 337.761 313.734 334.065 313.734C330.368 313.734 327.372 316.73 327.372 320.426C327.372 324.123 330.368 327.119 334.065 327.119Z" fill="#E8E8E8"/>
<path d="M323.548 328.075C327.772 328.075 331.197 324.651 331.197 320.426C331.197 316.202 327.772 312.778 323.548 312.778C319.324 312.778 315.899 316.202 315.899 320.426C315.899 324.651 319.324 328.075 323.548 328.075Z" fill="#E8E8E8" stroke="white" stroke-width="2"/>
<path d="M267.293 71.017L94.0713 72.3175C93.5433 72.3215 93.1184 72.7527 93.1224 73.2808L93.1511 77.1049C93.1551 77.6329 93.5863 78.0578 94.1143 78.0538L267.336 76.7533C267.864 76.7493 268.289 76.3181 268.285 75.7901L268.257 71.9659C268.253 71.4379 267.821 71.013 267.293 71.017Z" fill="#D6E4FF"/>
<path d="M221.248 81.4082H94.0908C93.5628 81.4082 93.1348 81.8363 93.1348 82.3643V86.1886C93.1348 86.7166 93.5628 87.1446 94.0908 87.1446H221.248C221.777 87.1446 222.205 86.7166 222.205 86.1886V82.3643C222.205 81.8363 221.777 81.4082 221.248 81.4082Z" fill="#D6E4FF"/>
<path d="M96.2948 58.2141H93.1895V56.7417H101.14V58.2141H98.0348V66.1112H96.2948V58.2141Z" fill="#85A5FF"/>
<path d="M103.574 60.0076C104.056 59.2581 104.903 58.8833 106.118 58.8833V60.4761C105.974 60.4493 105.845 60.436 105.729 60.436C105.077 60.436 104.569 60.6278 104.203 61.0115C103.837 61.3863 103.655 61.9306 103.655 62.6445V66.1112H101.981V58.9636H103.574V60.0076Z" fill="#85A5FF"/>
<path d="M110.094 58.8833C111.147 58.8833 111.95 59.1376 112.503 59.6462C113.065 60.146 113.346 60.9044 113.346 61.9217V66.1112H111.767V65.2412C111.562 65.5535 111.268 65.7945 110.883 65.964C110.509 66.1246 110.054 66.2049 109.518 66.2049C108.983 66.2049 108.514 66.1157 108.113 65.9372C107.711 65.7498 107.399 65.4955 107.176 65.1743C106.962 64.8441 106.854 64.4737 106.854 64.0633C106.854 63.4208 107.092 62.9077 107.564 62.524C108.046 62.1314 108.8 61.9351 109.826 61.9351H111.673V61.828C111.673 61.3283 111.522 60.9446 111.218 60.6769C110.924 60.4092 110.482 60.2753 109.893 60.2753C109.491 60.2753 109.095 60.3378 108.702 60.4627C108.318 60.5877 107.992 60.7617 107.725 60.9847L107.069 59.7667C107.443 59.4811 107.895 59.2626 108.421 59.1108C108.947 58.9591 109.505 58.8833 110.094 58.8833ZM109.866 64.9869C110.286 64.9869 110.656 64.8932 110.977 64.7058C111.308 64.5095 111.539 64.2328 111.673 63.8759V63.046H109.946C108.983 63.046 108.501 63.3628 108.501 63.9964C108.501 64.2997 108.621 64.5407 108.862 64.7192C109.103 64.8977 109.438 64.9869 109.866 64.9869Z" fill="#85A5FF"/>
<path d="M119.416 58.8833C120.318 58.8833 121.04 59.1465 121.584 59.673C122.129 60.1995 122.401 60.9803 122.401 62.0154V66.1112H120.728V62.2296C120.728 61.605 120.581 61.1365 120.286 60.8241C119.992 60.5029 119.573 60.3423 119.028 60.3423C118.412 60.3423 117.926 60.5297 117.569 60.9044C117.212 61.2703 117.033 61.8012 117.033 62.4973V66.1112H115.36V58.9636H116.953V59.8872C117.23 59.557 117.578 59.3071 117.997 59.1376C118.417 58.9681 118.89 58.8833 119.416 58.8833Z" fill="#85A5FF"/>
<path d="M126.598 66.2049C126.019 66.2049 125.452 66.1291 124.898 65.9774C124.346 65.8256 123.904 65.6338 123.573 65.4018L124.216 64.1302C124.537 64.3444 124.921 64.5184 125.367 64.6522C125.822 64.7772 126.268 64.8396 126.705 64.8396C127.705 64.8396 128.204 64.5764 128.204 64.0499C128.204 63.8001 128.075 63.6261 127.816 63.5279C127.567 63.4297 127.16 63.336 126.598 63.2468C126.009 63.1576 125.527 63.0549 125.153 62.939C124.787 62.823 124.466 62.6222 124.189 62.3366C123.921 62.0422 123.787 61.6361 123.787 61.1186C123.787 60.4405 124.068 59.9006 124.631 59.499C125.202 59.0886 125.969 58.8833 126.933 58.8833C127.424 58.8833 127.915 58.9413 128.405 59.0573C128.897 59.1644 129.298 59.3116 129.61 59.499L128.967 60.7706C128.361 60.4137 127.679 60.2352 126.919 60.2352C126.429 60.2352 126.054 60.311 125.795 60.4627C125.546 60.6055 125.42 60.7974 125.42 61.0383C125.42 61.306 125.554 61.4979 125.822 61.6138C126.099 61.7209 126.523 61.8235 127.093 61.9217C127.665 62.0109 128.134 62.1136 128.499 62.2296C128.865 62.3455 129.178 62.5419 129.436 62.8185C129.704 63.0951 129.837 63.4877 129.837 63.9964C129.837 64.6656 129.548 65.201 128.967 65.6026C128.388 66.0041 127.598 66.2049 126.598 66.2049Z" fill="#85A5FF"/>
<path d="M131.144 56.1792H132.817V66.1109H131.144V56.1792Z" fill="#85A5FF"/>
<path d="M137.61 58.8833C138.663 58.8833 139.466 59.1376 140.02 59.6462C140.582 60.146 140.863 60.9044 140.863 61.9217V66.1112H139.283V65.2412C139.078 65.5535 138.783 65.7945 138.4 65.964C138.025 66.1246 137.57 66.2049 137.035 66.2049C136.499 66.2049 136.031 66.1157 135.629 65.9372C135.228 65.7498 134.915 65.4955 134.692 65.1743C134.478 64.8441 134.371 64.4737 134.371 64.0633C134.371 63.4208 134.607 62.9077 135.081 62.524C135.562 62.1314 136.317 61.9351 137.343 61.9351H139.19V61.828C139.19 61.3283 139.038 60.9446 138.735 60.6769C138.44 60.4092 137.998 60.2753 137.409 60.2753C137.008 60.2753 136.611 60.3378 136.218 60.4627C135.835 60.5877 135.509 60.7617 135.241 60.9847L134.585 59.7667C134.96 59.4811 135.41 59.2626 135.937 59.1108C136.464 58.9591 137.021 58.8833 137.61 58.8833ZM137.383 64.9869C137.802 64.9869 138.172 64.8932 138.494 64.7058C138.824 64.5095 139.056 64.2328 139.19 63.8759V63.046H137.463C136.499 63.046 136.017 63.3628 136.017 63.9964C136.017 64.2997 136.138 64.5407 136.379 64.7192C136.62 64.8977 136.954 64.9869 137.383 64.9869Z" fill="#85A5FF"/>
<path d="M147.173 65.7231C146.977 65.8838 146.736 66.0042 146.45 66.0845C146.174 66.1648 145.879 66.205 145.566 66.205C144.782 66.205 144.174 65.9997 143.746 65.5893C143.318 65.1788 143.104 64.5809 143.104 63.7957V60.3557H141.926V59.0172H143.104V57.3843H144.777V59.0172H146.691V60.3557H144.777V63.7555C144.777 64.1036 144.862 64.3713 145.031 64.5586C145.2 64.7371 145.446 64.8263 145.767 64.8263C146.142 64.8263 146.455 64.7282 146.704 64.5319L147.173 65.7231Z" fill="#85A5FF"/>
<path d="M151.392 66.2049C150.669 66.2049 150.017 66.0488 149.438 65.7364C148.858 65.4241 148.403 64.9914 148.073 64.4381C147.751 63.8759 147.591 63.2423 147.591 62.5374C147.591 61.8325 147.751 61.2034 148.073 60.6501C148.403 60.0968 148.858 59.6641 149.438 59.3518C150.017 59.0394 150.669 58.8833 151.392 58.8833C152.124 58.8833 152.779 59.0394 153.36 59.3518C153.939 59.6641 154.39 60.0968 154.712 60.6501C155.041 61.2034 155.207 61.8325 155.207 62.5374C155.207 63.2423 155.041 63.8759 154.712 64.4381C154.39 64.9914 153.939 65.4241 153.36 65.7364C152.779 66.0488 152.124 66.2049 151.392 66.2049ZM151.392 64.7727C152.008 64.7727 152.517 64.5674 152.918 64.157C153.32 63.7466 153.52 63.2067 153.52 62.5374C153.52 61.8682 153.32 61.3283 152.918 60.9178C152.517 60.5074 152.008 60.3021 151.392 60.3021C150.776 60.3021 150.268 60.5074 149.866 60.9178C149.473 61.3283 149.277 61.8682 149.277 62.5374C149.277 63.2067 149.473 63.7466 149.866 64.157C150.268 64.5674 150.776 64.7727 151.392 64.7727Z" fill="#85A5FF"/>
<path d="M158.266 60.0076C158.748 59.2581 159.596 58.8833 160.809 58.8833V60.4761C160.666 60.4493 160.536 60.436 160.421 60.436C159.77 60.436 159.261 60.6278 158.895 61.0115C158.529 61.3863 158.346 61.9306 158.346 62.6445V66.1112H156.673V58.9636H158.266V60.0076Z" fill="#85A5FF"/>
<path d="M50.241 200.655V203.506H54.7652V204.979H50.241V208.566H48.501V199.196H55.3407V200.655H50.241Z" fill="#8C8C8C"/>
<path d="M63.2526 205.032C63.2526 205.148 63.2437 205.313 63.2258 205.527H57.6175C57.7157 206.054 57.97 206.473 58.3804 206.786C58.7998 207.089 59.3174 207.241 59.9331 207.241C60.7183 207.241 61.3653 206.982 61.8739 206.464L62.7707 207.495C62.4495 207.878 62.0434 208.169 61.5527 208.365C61.0619 208.561 60.5086 208.66 59.8929 208.66C59.1077 208.66 58.4161 208.504 57.8182 208.191C57.2204 207.878 56.7563 207.446 56.4262 206.893C56.105 206.331 55.9443 205.697 55.9443 204.992C55.9443 204.296 56.1005 203.672 56.4128 203.118C56.7341 202.556 57.1758 202.119 57.7379 201.806C58.3001 201.494 58.9337 201.338 59.6386 201.338C60.3346 201.338 60.9548 201.494 61.4991 201.806C62.0524 202.109 62.4807 202.543 62.7841 203.105C63.0964 203.658 63.2526 204.301 63.2526 205.032ZM59.6386 202.676C59.1032 202.676 58.6481 202.837 58.2733 203.158C57.9074 203.471 57.6844 203.89 57.6041 204.416H61.6597C61.5883 203.899 61.3698 203.479 61.0039 203.158C60.638 202.837 60.1829 202.676 59.6386 202.676Z" fill="#8C8C8C"/>
<path d="M71.4449 205.032C71.4449 205.148 71.436 205.313 71.4182 205.527H65.8098C65.908 206.054 66.1624 206.473 66.5728 206.786C66.9922 207.089 67.5097 207.241 68.1255 207.241C68.9107 207.241 69.5577 206.982 70.0663 206.464L70.9631 207.495C70.6418 207.878 70.2358 208.169 69.745 208.365C69.2543 208.561 68.701 208.66 68.0853 208.66C67.3001 208.66 66.6085 208.504 66.0106 208.191C65.4128 207.878 64.9487 207.446 64.6186 206.893C64.2973 206.331 64.1367 205.697 64.1367 204.992C64.1367 204.296 64.2928 203.672 64.6052 203.118C64.9264 202.556 65.3681 202.119 65.9303 201.806C66.4925 201.494 67.1261 201.338 67.831 201.338C68.527 201.338 69.1472 201.494 69.6915 201.806C70.2448 202.109 70.6731 202.543 70.9765 203.105C71.2888 203.658 71.4449 204.301 71.4449 205.032ZM67.831 202.676C67.2956 202.676 66.8405 202.837 66.4657 203.158C66.0998 203.471 65.8768 203.89 65.7965 204.416H69.8521C69.7807 203.899 69.5621 203.479 69.1963 203.158C68.8304 202.837 68.3753 202.676 67.831 202.676Z" fill="#8C8C8C"/>
<path d="M79.9184 198.634V208.566H78.3122V207.642C78.0355 207.982 77.692 208.236 77.2816 208.405C76.88 208.575 76.4338 208.66 75.9431 208.66C75.2559 208.66 74.6357 208.508 74.0825 208.205C73.5382 207.901 73.1098 207.473 72.7976 206.92C72.4852 206.357 72.3291 205.715 72.3291 204.992C72.3291 204.269 72.4852 203.632 72.7976 203.078C73.1098 202.525 73.5382 202.096 74.0825 201.793C74.6357 201.49 75.2559 201.338 75.9431 201.338C76.4159 201.338 76.8487 201.418 77.2414 201.579C77.634 201.74 77.9686 201.981 78.2453 202.302V198.634H79.9184ZM76.1438 207.227C76.5454 207.227 76.9068 207.139 77.228 206.96C77.5493 206.772 77.8036 206.509 77.991 206.17C78.1784 205.831 78.2721 205.439 78.2721 204.992C78.2721 204.546 78.1784 204.154 77.991 203.814C77.8036 203.475 77.5493 203.217 77.228 203.038C76.9068 202.851 76.5454 202.757 76.1438 202.757C75.7423 202.757 75.3809 202.851 75.0596 203.038C74.7384 203.217 74.4841 203.475 74.2967 203.814C74.1093 204.154 74.0156 204.546 74.0156 204.992C74.0156 205.439 74.1093 205.831 74.2967 206.17C74.4841 206.509 74.7384 206.772 75.0596 206.96C75.3809 207.139 75.7423 207.227 76.1438 207.227Z" fill="#8C8C8C"/>
<path d="M85.9356 201.338C86.6316 201.338 87.2518 201.49 87.7961 201.793C88.3494 202.096 88.7821 202.525 89.0945 203.078C89.4068 203.632 89.5629 204.269 89.5629 204.992C89.5629 205.715 89.4068 206.357 89.0945 206.92C88.7821 207.473 88.3494 207.901 87.7961 208.205C87.2518 208.508 86.6316 208.66 85.9356 208.66C85.4448 208.66 84.9941 208.575 84.5837 208.405C84.1822 208.236 83.843 207.982 83.5664 207.642V208.566H81.9736V198.634H83.6468V202.288C83.9323 201.976 84.267 201.74 84.6506 201.579C85.0433 201.418 85.4716 201.338 85.9356 201.338ZM85.7482 207.227C86.3639 207.227 86.8681 207.022 87.2607 206.612C87.6623 206.202 87.863 205.661 87.863 204.992C87.863 204.323 87.6623 203.783 87.2607 203.373C86.8681 202.962 86.3639 202.757 85.7482 202.757C85.3467 202.757 84.9853 202.851 84.664 203.038C84.3428 203.217 84.0885 203.475 83.9011 203.814C83.7137 204.154 83.62 204.546 83.62 204.992C83.62 205.439 83.7137 205.831 83.9011 206.17C84.0885 206.509 84.3428 206.772 84.664 206.96C84.9853 207.139 85.3467 207.227 85.7482 207.227Z" fill="#8C8C8C"/>
<path d="M93.6542 201.338C94.7071 201.338 95.5102 201.592 96.0635 202.101C96.6257 202.601 96.9068 203.359 96.9068 204.376V208.566H95.3273V207.696C95.1221 208.008 94.8276 208.249 94.4439 208.419C94.0692 208.579 93.614 208.66 93.0787 208.66C92.5433 208.66 92.0747 208.571 91.6731 208.392C91.2716 208.204 90.9593 207.95 90.7362 207.629C90.522 207.299 90.415 206.928 90.415 206.518C90.415 205.875 90.6515 205.362 91.1244 204.979C91.6063 204.586 92.3603 204.39 93.3864 204.39H95.2336V204.283C95.2336 203.783 95.0819 203.399 94.7785 203.131C94.4841 202.864 94.0423 202.73 93.4533 202.73C93.0518 202.73 92.6547 202.792 92.2622 202.917C91.8784 203.043 91.5528 203.217 91.2851 203.439L90.6291 202.221C91.0039 201.935 91.4546 201.717 91.9811 201.565C92.5075 201.413 93.0653 201.338 93.6542 201.338ZM93.4266 207.441C93.846 207.441 94.2164 207.348 94.5376 207.16C94.8678 206.964 95.0998 206.687 95.2336 206.331V205.501H93.5069C92.5432 205.501 92.0614 205.817 92.0614 206.451C92.0614 206.754 92.1818 206.995 92.4227 207.174C92.6636 207.353 92.9983 207.441 93.4266 207.441Z" fill="#8C8C8C"/>
<path d="M102.265 208.66C101.524 208.66 100.859 208.504 100.27 208.191C99.6814 207.878 99.2219 207.446 98.8917 206.893C98.5616 206.331 98.3965 205.697 98.3965 204.992C98.3965 204.287 98.5616 203.658 98.8917 203.105C99.2219 202.551 99.677 202.119 100.257 201.806C100.846 201.494 101.515 201.338 102.265 201.338C102.97 201.338 103.585 201.48 104.112 201.766C104.647 202.052 105.048 202.462 105.316 202.998L104.032 203.747C103.826 203.417 103.568 203.172 103.255 203.011C102.952 202.842 102.617 202.757 102.251 202.757C101.627 202.757 101.109 202.962 100.699 203.372C100.288 203.774 100.083 204.314 100.083 204.992C100.083 205.67 100.284 206.215 100.685 206.625C101.096 207.027 101.618 207.227 102.251 207.227C102.617 207.227 102.952 207.147 103.255 206.986C103.568 206.817 103.826 206.567 104.032 206.237L105.316 206.986C105.04 207.522 104.634 207.937 104.098 208.231C103.572 208.517 102.961 208.66 102.265 208.66Z" fill="#8C8C8C"/>
<path d="M109.482 205.501L108.238 206.679V208.566H106.564V198.634H108.238V204.631L111.704 201.418H113.712L110.727 204.417L113.993 208.566H111.959L109.482 205.501Z" fill="#8C8C8C"/>
<path d="M116.926 208.66C116.346 208.66 115.779 208.584 115.226 208.432C114.673 208.28 114.231 208.089 113.901 207.856L114.544 206.585C114.865 206.799 115.248 206.973 115.695 207.107C116.15 207.232 116.596 207.294 117.033 207.294C118.033 207.294 118.533 207.031 118.533 206.504C118.533 206.255 118.403 206.081 118.144 205.982C117.894 205.884 117.489 205.79 116.926 205.701C116.337 205.612 115.856 205.509 115.481 205.394C115.115 205.278 114.793 205.077 114.517 204.791C114.249 204.497 114.116 204.09 114.116 203.573C114.116 202.895 114.397 202.355 114.959 201.954C115.53 201.543 116.297 201.338 117.261 201.338C117.751 201.338 118.242 201.396 118.733 201.512C119.224 201.619 119.625 201.766 119.938 201.954L119.296 203.225C118.688 202.869 118.006 202.69 117.248 202.69C116.756 202.69 116.381 202.765 116.123 202.917C115.873 203.06 115.748 203.252 115.748 203.493C115.748 203.761 115.882 203.953 116.15 204.068C116.426 204.176 116.85 204.278 117.422 204.376C117.992 204.465 118.461 204.568 118.827 204.684C119.192 204.8 119.505 204.997 119.764 205.273C120.032 205.549 120.166 205.942 120.166 206.451C120.166 207.12 119.875 207.656 119.296 208.057C118.715 208.459 117.925 208.66 116.926 208.66Z" fill="#8C8C8C"/>
<path d="M66.3639 91.925C55.8034 91.925 47.2425 83.3641 47.2425 72.8036C47.2425 62.2431 55.8034 53.6821 66.3639 53.6821C76.9244 53.6821 85.4854 62.2431 85.4854 72.8036C85.4854 83.3641 76.9244 91.925 66.3639 91.925Z" fill="#597EF7"/>
<path d="M66.3639 91.925C55.8034 91.925 47.2425 83.3641 47.2425 72.8036C47.2425 62.2431 55.8034 53.6821 66.3639 53.6821C76.9244 53.6821 85.4854 62.2431 85.4854 72.8036C85.4854 83.3641 76.9244 91.925 66.3639 91.925Z" fill="#4062EF"/>
<path d="M75.1944 63.0044C75.1944 63.0044 74.8919 66.2212 75.7702 68.0633C76.6486 69.9053 78.8444 70.5692 78.4719 75.679C78.0995 80.7886 79.1195 80.7948 79.5054 82.1789C79.5054 82.1789 60.2753 85.7328 49.6328 81.7139L51.8873 75.7431C53.4042 72.3065 53.5047 66.8851 53.5047 66.8851L60.8651 63.0607L75.1944 63.0044Z" fill="#000103"/>
<path d="M69.5137 60.1121C69.7279 60.0151 68.6978 58.8094 68.4672 58.7631C64.8129 58.0336 57.1145 57.3933 53.994 64.0407C51.6945 68.9247 55.4907 77.1886 61.7101 79.1104C67.6212 80.9382 64.5282 62.3172 64.5282 62.3172L69.5137 60.1121Z" fill="#000103"/>
<path d="M69.4167 71.8203C69.404 72.3334 69.5648 72.8337 69.8791 73.2579C70.1932 73.6821 70.6466 74.0111 71.1817 74.2031C71.7168 74.3952 72.3097 74.4419 72.8852 74.3371C73.4607 74.2323 73.993 73.9808 74.4147 73.6146C74.8363 73.2483 75.1284 72.7836 75.254 72.2794C75.3796 71.7752 75.3329 71.254 75.12 70.782C74.9071 70.3101 74.5374 69.9084 74.0579 69.6278C73.5783 69.3473 73.0104 69.2006 72.426 69.2062C72.0386 69.209 71.6534 69.2789 71.2923 69.4119C70.9312 69.5449 70.6015 69.7383 70.3219 69.9811C70.0424 70.224 69.8186 70.5113 69.6632 70.827C69.5079 71.1426 69.4242 71.4801 69.4167 71.8203Z" fill="#B57D6B"/>
<path d="M69.4878 79.1698L69.4535 85.2271C69.4463 87.3569 68.0703 88.4986 65.8825 88.5013C64.0105 88.5 62.2656 87.5705 62.0557 85.7991L62.5922 76.2607L69.4878 79.1698Z" fill="#E6B1A0"/>
<path d="M69.4244 82.9254C65.3388 83.0528 62.627 77.7451 62.627 77.7451L69.4557 78.8914L69.4244 82.9254Z" fill="#B57D6B"/>
<path d="M67.9989 80.845C71.6079 80.6283 74.4115 77.5836 74.3315 74.6166L74.0976 67.607C74.0511 65.8186 73.313 64.1178 72.0396 62.865C70.7661 61.6122 69.0573 60.9055 67.2749 60.8947C63.4769 60.866 59.7167 63.9306 59.6914 67.7427L59.9379 73.3759C59.9465 74.4074 60.1657 75.4264 60.582 76.3698C60.9984 77.3133 61.6029 78.1612 62.3584 78.8611C63.1139 79.5612 64.0042 80.0984 64.9744 80.4396C65.9445 80.7808 66.9739 80.9187 67.9989 80.845Z" fill="#E6B1A0"/>
<path d="M62.3046 66.5807C64.2229 68.8362 61.9402 72.6134 61.9402 72.6134L56.2021 67.0821C56.2021 67.0821 61.1706 65.241 62.3046 66.5807Z" fill="#000103"/>
<path d="M56.9373 70.8701C56.5629 71.5517 56.7768 72.9643 57.442 73.9024C57.7599 74.3507 58.3704 74.9552 59.3832 75.0724C59.9793 75.1413 60.655 74.9912 61.0903 74.6093C61.5256 74.2274 61.8273 73.7424 61.9571 73.2156C62.087 72.6888 62.0392 72.1438 61.8197 71.6496C61.6003 71.1554 61.2192 70.7341 60.7245 70.439C60.2298 70.1439 59.6437 69.9882 59.0403 69.9918C58.3185 69.996 57.3117 70.1884 56.9373 70.8701Z" fill="#E6B1A0"/>
<path fill-rule="evenodd" clip-rule="evenodd" d="M70.1872 73.1636C69.9639 73.201 69.8113 73.3703 69.8463 73.5418L70.3597 74.7316L69.4036 74.8477C69.1787 74.8751 69.0142 75.0378 69.0362 75.2112C69.0581 75.3847 69.2582 75.5031 69.4831 75.4758L70.8709 75.3071C70.9831 75.2935 71.0857 75.2449 71.1546 75.1727C71.2236 75.1004 71.2528 75.011 71.2354 74.9256L70.6548 73.4065C70.6198 73.235 70.4104 73.1262 70.1872 73.1636Z" fill="#1B172C"/>
<path d="M66.2955 69.0337C66.2955 69.0337 68.1119 69.252 68.0234 69.8199C68.0234 69.8199 67.9644 70.1985 66.3962 69.9912C64.8278 69.7838 64.464 69.6256 64.3937 69.2453C64.3234 68.865 65.4763 68.8877 66.2955 69.0337Z" fill="#1B172C"/>
<path d="M72.0702 68.6008C72.0702 68.6008 70.5949 68.9599 70.6366 69.5216C70.6366 69.5216 70.6834 69.9026 71.9695 69.5714C73.2555 69.2403 73.6207 68.9804 73.6346 68.6572C73.6484 68.3342 72.7603 68.4134 72.0702 68.6008Z" fill="#1B172C"/>
<path fill-rule="evenodd" clip-rule="evenodd" d="M67.3598 72.5599C67.4903 72.7371 67.7079 72.7589 67.8475 72.6081C67.9878 72.4565 67.996 72.1877 67.8658 72.0078L67.6117 72.2823C67.8658 72.0078 67.8656 72.0076 67.8655 72.0073L67.8651 72.0069L67.8643 72.0059L67.8625 72.0034L67.8578 71.9971L67.844 71.9792C67.8328 71.965 67.8177 71.9465 67.7987 71.9247C67.761 71.8813 67.7075 71.8242 67.6393 71.7628C67.5037 71.6409 67.3038 71.4964 67.0498 71.4129C66.5148 71.2372 65.8343 71.3615 65.1114 72.2266C64.9777 72.3868 64.9801 72.6564 65.117 72.8287C65.2539 73.001 65.4734 73.011 65.6071 72.8507C66.1907 72.1524 66.6363 72.1485 66.901 72.2355C67.0468 72.2833 67.1651 72.3678 67.2477 72.4421C67.2885 72.4788 67.3191 72.5117 67.3382 72.5337C67.3477 72.5446 67.3542 72.5526 67.3574 72.5568L67.3598 72.5599Z" fill="#1B172C"/>
<path fill-rule="evenodd" clip-rule="evenodd" d="M73.2367 71.8909C73.3672 72.068 73.5849 72.0898 73.7244 71.9391C73.8648 71.7875 73.8729 71.5188 73.7427 71.3387L73.4887 71.6132C73.7427 71.3387 73.7426 71.3385 73.7424 71.3383L73.742 71.3379L73.7413 71.3368L73.7395 71.3343L73.7348 71.3281L73.721 71.3101C73.7098 71.296 73.6947 71.2774 73.6758 71.2556C73.638 71.2122 73.5845 71.1553 73.5162 71.0939C73.3806 70.9719 73.1807 70.8273 72.9267 70.744C72.3919 70.5682 71.7112 70.6925 70.9884 71.5576C70.8546 71.7177 70.8571 71.9873 70.994 72.1597C71.1308 72.3321 71.3503 72.3419 71.4842 72.1818C72.0676 71.4834 72.5133 71.4795 72.778 71.5665C72.9237 71.6144 73.042 71.6989 73.1246 71.7731C73.1655 71.8099 73.196 71.8427 73.2151 71.8647C73.2246 71.8756 73.2311 71.8836 73.2344 71.8878L73.2367 71.8909Z" fill="#1B172C"/>
<path fill-rule="evenodd" clip-rule="evenodd" d="M66.3688 76.6353C66.2235 76.7542 66.2109 76.953 66.3406 77.0793C66.6699 77.3998 67.0951 77.6305 67.5689 77.7456C68.0429 77.8606 68.5468 77.8555 69.0249 77.7308C69.213 77.6818 69.325 77.5072 69.275 77.3408C69.2249 77.1744 69.0317 77.0794 68.8435 77.1284C68.4915 77.2202 68.1202 77.2239 67.7713 77.1392C67.4223 77.0545 67.1091 76.8846 66.8666 76.6486C66.7369 76.5223 66.514 76.5163 66.3688 76.6353Z" fill="#1B172C"/>
<path d="M68.9896 58.6472C68.9896 58.6472 76.9514 60.6557 75.7108 63.8374C74.7931 66.1951 67.2686 68.4504 59.7958 67.7096C59.7958 67.7096 56.1433 65.2607 59.928 61.8313C59.9317 61.8644 61.775 58.346 68.9896 58.6472Z" fill="#000103"/>
<path d="M54.4131 87.6226L59.1934 86.1885C62.0617 86.0291 68.4673 85.7104 71.1444 85.7104C73.8214 86.8577 75.4467 88.738 75.9247 89.5347C74.3312 90.4908 69.8059 92.3073 64.4518 91.9249C59.0978 91.5425 55.5285 88.8973 54.4131 87.6226Z" fill="white"/>
<path d="M71.7425 85.9058C69.9784 85.2068 68.0725 84.8386 66.1358 84.8228C63.7515 84.9817 61.3922 85.4133 59.1133 86.1076C59.1133 86.1076 59.6837 89.2057 66.2422 89.1579C67.5316 89.1726 68.8167 88.9538 70.0235 88.5142C71.229 88.0532 71.4326 87.221 71.7425 85.9058Z" fill="#E6B1A0"/>
<path fill-rule="evenodd" clip-rule="evenodd" d="M340.757 111.046H47.2432V110.568H340.757V111.046Z" fill="#ADC6FF"/>
<path fill-rule="evenodd" clip-rule="evenodd" d="M340.757 177.972H47.2432V177.494H340.757V177.972Z" fill="#ADC6FF"/>
<path fill-rule="evenodd" clip-rule="evenodd" d="M198.303 159.806V125.388H198.781V159.806H198.303Z" fill="#ADC6FF"/>
<path d="M268.387 133.744H265.281V132.271H273.232V133.744H270.127V141.641H268.387V133.744Z" fill="#2F54EB"/>
<path d="M275.666 135.537C276.148 134.788 276.996 134.413 278.209 134.413V136.006C278.067 135.979 277.937 135.966 277.821 135.966C277.17 135.966 276.661 136.158 276.295 136.541C275.929 136.916 275.746 137.46 275.746 138.174V141.641H274.073V134.493H275.666V135.537Z" fill="#2F54EB"/>
<path d="M282.186 134.413C283.239 134.413 284.042 134.667 284.596 135.176C285.158 135.676 285.439 136.434 285.439 137.451V141.641H283.86V140.771C283.654 141.084 283.36 141.325 282.976 141.494C282.601 141.654 282.146 141.735 281.611 141.735C281.075 141.735 280.607 141.646 280.205 141.467C279.804 141.28 279.491 141.025 279.269 140.704C279.054 140.374 278.947 140.003 278.947 139.593C278.947 138.951 279.183 138.437 279.657 138.054C280.139 137.661 280.892 137.465 281.919 137.465H283.766V137.358C283.766 136.858 283.614 136.474 283.311 136.207C283.016 135.939 282.575 135.805 281.986 135.805C281.584 135.805 281.186 135.867 280.794 135.993C280.41 136.118 280.085 136.292 279.817 136.515L279.161 135.296C279.536 135.011 279.987 134.793 280.513 134.641C281.039 134.489 281.597 134.413 282.186 134.413ZM281.959 140.517C282.378 140.517 282.749 140.423 283.07 140.236C283.4 140.04 283.632 139.762 283.766 139.406V138.576H282.039C281.075 138.576 280.594 138.892 280.594 139.526C280.594 139.829 280.714 140.07 280.955 140.249C281.196 140.428 281.531 140.517 281.959 140.517Z" fill="#2F54EB"/>
<path d="M291.507 134.413C292.408 134.413 293.131 134.676 293.675 135.203C294.22 135.73 294.492 136.51 294.492 137.545V141.641H292.819V137.759C292.819 137.135 292.671 136.667 292.377 136.354C292.082 136.033 291.664 135.872 291.119 135.872C290.503 135.872 290.017 136.059 289.66 136.434C289.303 136.8 289.124 137.331 289.124 138.027V141.641H287.451V134.493H289.044V135.417C289.321 135.087 289.669 134.837 290.088 134.667C290.508 134.498 290.981 134.413 291.507 134.413Z" fill="#2F54EB"/>
<path d="M298.689 141.735C298.11 141.735 297.543 141.659 296.989 141.507C296.437 141.355 295.995 141.164 295.664 140.932L296.307 139.66C296.628 139.874 297.012 140.048 297.458 140.182C297.913 140.307 298.359 140.369 298.796 140.369C299.796 140.369 300.295 140.106 300.295 139.58C300.295 139.33 300.166 139.156 299.907 139.058C299.658 138.959 299.251 138.866 298.689 138.777C298.1 138.688 297.618 138.584 297.244 138.469C296.878 138.353 296.557 138.152 296.28 137.866C296.012 137.572 295.878 137.166 295.878 136.648C295.878 135.971 296.159 135.43 296.721 135.029C297.293 134.619 298.06 134.413 299.024 134.413C299.515 134.413 300.006 134.471 300.496 134.587C300.987 134.694 301.389 134.841 301.701 135.029L301.058 136.3C300.452 135.944 299.769 135.765 299.01 135.765C298.52 135.765 298.145 135.841 297.886 135.993C297.636 136.135 297.511 136.327 297.511 136.568C297.511 136.836 297.645 137.028 297.913 137.144C298.19 137.251 298.614 137.353 299.184 137.451C299.756 137.54 300.225 137.644 300.59 137.759C300.956 137.875 301.269 138.072 301.527 138.348C301.794 138.625 301.928 139.018 301.928 139.526C301.928 140.195 301.639 140.731 301.058 141.132C300.479 141.534 299.689 141.735 298.689 141.735Z" fill="#2F54EB"/>
<path d="M303.236 131.709H304.909V141.641H303.236V131.709Z" fill="#2F54EB"/>
<path d="M309.701 134.413C310.755 134.413 311.558 134.667 312.11 135.176C312.673 135.676 312.954 136.434 312.954 137.451V141.641H311.374V140.771C311.17 141.084 310.875 141.325 310.491 141.494C310.116 141.654 309.661 141.735 309.126 141.735C308.59 141.735 308.122 141.646 307.72 141.467C307.319 141.28 307.007 141.025 306.783 140.704C306.569 140.374 306.462 140.003 306.462 139.593C306.462 138.951 306.699 138.437 307.171 138.054C307.653 137.661 308.408 137.465 309.433 137.465H311.281V137.358C311.281 136.858 311.129 136.474 310.825 136.207C310.531 135.939 310.089 135.805 309.5 135.805C309.099 135.805 308.702 135.867 308.309 135.993C307.926 136.118 307.6 136.292 307.332 136.515L306.676 135.296C307.051 135.011 307.502 134.793 308.028 134.641C308.555 134.489 309.112 134.413 309.701 134.413ZM309.474 140.517C309.893 140.517 310.263 140.423 310.585 140.236C310.915 140.04 311.147 139.762 311.281 139.406V138.576H309.554C308.59 138.576 308.108 138.892 308.108 139.526C308.108 139.829 308.229 140.07 308.47 140.249C308.711 140.428 309.045 140.517 309.474 140.517Z" fill="#2F54EB"/>
<path d="M319.264 141.252C319.068 141.413 318.827 141.534 318.541 141.614C318.264 141.694 317.97 141.734 317.657 141.734C316.872 141.734 316.265 141.529 315.837 141.119C315.409 140.708 315.194 140.11 315.194 139.325V135.885H314.017V134.547H315.194V132.914H316.868V134.547H318.782V135.885H316.868V139.285C316.868 139.633 316.953 139.901 317.122 140.088C317.292 140.267 317.537 140.356 317.858 140.356C318.233 140.356 318.546 140.257 318.795 140.061L319.264 141.252Z" fill="#2F54EB"/>
<path d="M320.507 134.493H322.18V141.641H320.507V134.493ZM321.35 133.315C321.047 133.315 320.793 133.222 320.587 133.034C320.382 132.838 320.279 132.597 320.279 132.311C320.279 132.026 320.382 131.789 320.587 131.602C320.793 131.406 321.047 131.308 321.35 131.308C321.653 131.308 321.907 131.401 322.113 131.589C322.319 131.767 322.421 131.995 322.421 132.271C322.421 132.566 322.319 132.815 322.113 133.021C321.917 133.217 321.663 133.315 321.35 133.315Z" fill="#2F54EB"/>
<path d="M327.455 141.735C326.732 141.735 326.08 141.579 325.5 141.266C324.92 140.954 324.465 140.521 324.135 139.968C323.814 139.406 323.653 138.772 323.653 138.067C323.653 137.363 323.814 136.733 324.135 136.18C324.465 135.626 324.92 135.194 325.5 134.882C326.08 134.569 326.732 134.413 327.455 134.413C328.186 134.413 328.842 134.569 329.422 134.882C330.002 135.194 330.453 135.626 330.774 136.18C331.104 136.733 331.269 137.363 331.269 138.067C331.269 138.772 331.104 139.406 330.774 139.968C330.453 140.521 330.002 140.954 329.422 141.266C328.842 141.579 328.186 141.735 327.455 141.735ZM327.455 140.302C328.07 140.302 328.579 140.097 328.981 139.687C329.382 139.277 329.583 138.736 329.583 138.067C329.583 137.398 329.382 136.858 328.981 136.448C328.579 136.037 328.07 135.832 327.455 135.832C326.839 135.832 326.33 136.037 325.929 136.448C325.536 136.858 325.34 137.398 325.34 138.067C325.34 138.736 325.536 139.277 325.929 139.687C326.33 140.097 326.839 140.302 327.455 140.302Z" fill="#2F54EB"/>
<path d="M336.79 134.413C337.692 134.413 338.414 134.676 338.958 135.203C339.503 135.73 339.775 136.51 339.775 137.545V141.641H338.102V137.759C338.102 137.135 337.955 136.667 337.66 136.354C337.366 136.033 336.947 135.872 336.402 135.872C335.786 135.872 335.3 136.059 334.943 136.434C334.586 136.8 334.408 137.331 334.408 138.027V141.641H332.734V134.493H334.327V135.417C334.604 135.087 334.952 134.837 335.371 134.667C335.791 134.498 336.264 134.413 336.79 134.413Z" fill="#2F54EB"/>
<path d="M273.512 155.479V156.938H266.485V147.568H273.325V149.027H268.225V151.463H272.75V152.896H268.225V155.479H273.512Z" fill="#2F54EB"/>
<path d="M276.751 150.834C277.233 150.085 278.08 149.71 279.294 149.71V151.303C279.151 151.276 279.022 151.263 278.906 151.263C278.254 151.263 277.745 151.455 277.38 151.838C277.014 152.213 276.831 152.757 276.831 153.471V156.938H275.158V149.79H276.751V150.834Z" fill="#2F54EB"/>
<path d="M282.172 150.834C282.654 150.085 283.502 149.71 284.715 149.71V151.303C284.573 151.276 284.444 151.263 284.327 151.263C283.676 151.263 283.167 151.455 282.801 151.838C282.436 152.213 282.252 152.757 282.252 153.471V156.938H280.579V149.79H282.172V150.834Z" fill="#2F54EB"/>
<path d="M289.148 157.032C288.425 157.032 287.773 156.876 287.194 156.563C286.613 156.25 286.158 155.818 285.829 155.265C285.507 154.703 285.347 154.069 285.347 153.364C285.347 152.659 285.507 152.03 285.829 151.477C286.158 150.923 286.613 150.491 287.194 150.178C287.773 149.866 288.425 149.71 289.148 149.71C289.879 149.71 290.535 149.866 291.116 150.178C291.695 150.491 292.146 150.923 292.468 151.477C292.797 152.03 292.963 152.659 292.963 153.364C292.963 154.069 292.797 154.703 292.468 155.265C292.146 155.818 291.695 156.25 291.116 156.563C290.535 156.876 289.879 157.032 289.148 157.032ZM289.148 155.599C289.764 155.599 290.272 155.394 290.674 154.984C291.075 154.573 291.276 154.033 291.276 153.364C291.276 152.695 291.075 152.155 290.674 151.744C290.272 151.334 289.764 151.129 289.148 151.129C288.532 151.129 288.024 151.334 287.622 151.744C287.229 152.155 287.033 152.695 287.033 153.364C287.033 154.033 287.229 154.573 287.622 154.984C288.024 155.394 288.532 155.599 289.148 155.599Z" fill="#2F54EB"/>
<path d="M296.022 150.834C296.503 150.085 297.351 149.71 298.565 149.71V151.303C298.422 151.276 298.292 151.263 298.177 151.263C297.525 151.263 297.017 151.455 296.651 151.838C296.284 152.213 296.102 152.757 296.102 153.471V156.938H294.429V149.79H296.022V150.834Z" fill="#2F54EB"/>
<path d="M309.772 156.938L307.858 154.194C307.778 154.203 307.657 154.207 307.496 154.207H305.382V156.938H303.642V147.568H307.496C308.308 147.568 309.014 147.702 309.611 147.97C310.218 148.238 310.682 148.621 311.003 149.121C311.325 149.621 311.485 150.214 311.485 150.901C311.485 151.606 311.311 152.213 310.963 152.722C310.624 153.23 310.133 153.61 309.491 153.859L311.646 156.938H309.772ZM309.732 150.901C309.732 150.304 309.536 149.844 309.143 149.523C308.75 149.201 308.174 149.041 307.416 149.041H305.382V152.775H307.416C308.174 152.775 308.75 152.615 309.143 152.293C309.536 151.963 309.732 151.499 309.732 150.901Z" fill="#2F54EB"/>
<path d="M315.803 149.71C316.855 149.71 317.658 149.964 318.212 150.473C318.774 150.973 319.055 151.731 319.055 152.748V156.938H317.476V156.068C317.27 156.38 316.976 156.621 316.592 156.791C316.218 156.951 315.763 157.032 315.227 157.032C314.692 157.032 314.223 156.943 313.822 156.764C313.42 156.576 313.107 156.322 312.885 156.001C312.671 155.671 312.563 155.3 312.563 154.89C312.563 154.247 312.8 153.734 313.273 153.351C313.755 152.958 314.509 152.762 315.535 152.762H317.382V152.655C317.382 152.155 317.23 151.771 316.927 151.504C316.633 151.236 316.191 151.102 315.602 151.102C315.2 151.102 314.804 151.164 314.411 151.289C314.027 151.415 313.701 151.589 313.434 151.811L312.778 150.593C313.152 150.308 313.603 150.09 314.13 149.937C314.656 149.785 315.214 149.71 315.803 149.71ZM315.575 155.814C315.995 155.814 316.365 155.72 316.686 155.532C317.016 155.336 317.248 155.059 317.382 154.703V153.873H315.655C314.692 153.873 314.21 154.189 314.21 154.823C314.21 155.126 314.33 155.367 314.571 155.546C314.812 155.725 315.147 155.814 315.575 155.814Z" fill="#2F54EB"/>
<path d="M325.365 156.55C325.168 156.71 324.927 156.831 324.642 156.911C324.365 156.992 324.071 157.032 323.759 157.032C322.973 157.032 322.367 156.826 321.939 156.416C321.51 156.006 321.296 155.407 321.296 154.622V151.182H320.118V149.844H321.296V148.211H322.969V149.844H324.883V151.182H322.969V154.582C322.969 154.93 323.053 155.198 323.224 155.385C323.393 155.564 323.638 155.653 323.96 155.653C324.334 155.653 324.646 155.555 324.897 155.359L325.365 156.55Z" fill="#2F54EB"/>
<path d="M333.091 153.404C333.091 153.52 333.083 153.685 333.065 153.899H327.456C327.555 154.426 327.809 154.845 328.219 155.158C328.639 155.461 329.156 155.613 329.772 155.613C330.558 155.613 331.204 155.354 331.713 154.836L332.61 155.867C332.288 156.25 331.883 156.541 331.392 156.737C330.901 156.933 330.347 157.032 329.732 157.032C328.947 157.032 328.256 156.876 327.657 156.563C327.06 156.25 326.596 155.818 326.265 155.265C325.944 154.703 325.783 154.069 325.783 153.364C325.783 152.668 325.94 152.044 326.252 151.49C326.573 150.928 327.015 150.491 327.577 150.178C328.139 149.866 328.773 149.71 329.477 149.71C330.173 149.71 330.794 149.866 331.338 150.178C331.892 150.482 332.32 150.915 332.623 151.477C332.936 152.03 333.091 152.673 333.091 153.404ZM329.477 151.048C328.942 151.048 328.487 151.209 328.112 151.53C327.747 151.843 327.523 152.262 327.443 152.789H331.499C331.428 152.271 331.209 151.852 330.843 151.53C330.478 151.209 330.022 151.048 329.477 151.048Z" fill="#2F54EB"/>
<path d="M257.579 130.168H218.38C217.324 130.168 216.468 131.024 216.468 132.08V157.894C216.468 158.95 217.324 159.806 218.38 159.806H257.579C258.635 159.806 259.491 158.95 259.491 157.894V132.08C259.491 131.024 258.635 130.168 257.579 130.168Z" fill="#2F54EB"/>
<path d="M227.91 144.616C228.472 144.871 228.9 145.217 229.195 145.656C229.501 146.084 229.654 146.589 229.654 147.171C229.654 147.824 229.471 148.394 229.104 148.884C228.747 149.373 228.236 149.751 227.574 150.016C226.911 150.271 226.141 150.398 225.264 150.398C224.387 150.398 223.617 150.271 222.954 150.016C222.301 149.751 221.796 149.373 221.44 148.884C221.083 148.394 220.904 147.824 220.904 147.171C220.904 146.589 221.052 146.084 221.348 145.656C221.643 145.217 222.067 144.871 222.618 144.616C222.189 144.382 221.858 144.076 221.623 143.698C221.399 143.311 221.287 142.867 221.287 142.367C221.287 141.766 221.45 141.24 221.776 140.792C222.113 140.343 222.582 139.996 223.184 139.751C223.785 139.507 224.479 139.384 225.264 139.384C226.059 139.384 226.758 139.507 227.36 139.751C227.961 139.996 228.431 140.343 228.767 140.792C229.104 141.24 229.272 141.766 229.272 142.367C229.272 142.867 229.154 143.305 228.92 143.683C228.686 144.06 228.349 144.371 227.91 144.616ZM225.264 140.945C224.642 140.945 224.147 141.077 223.78 141.342C223.424 141.607 223.245 141.98 223.245 142.459C223.245 142.918 223.424 143.285 223.78 143.56C224.147 143.825 224.642 143.958 225.264 143.958C225.896 143.958 226.396 143.825 226.763 143.56C227.13 143.285 227.314 142.918 227.314 142.459C227.314 141.98 227.125 141.607 226.748 141.342C226.381 141.077 225.886 140.945 225.264 140.945ZM225.264 148.838C225.998 148.838 226.58 148.685 227.008 148.379C227.436 148.073 227.65 147.65 227.65 147.109C227.65 146.579 227.436 146.161 227.008 145.855C226.58 145.549 225.998 145.396 225.264 145.396C224.53 145.396 223.953 145.549 223.535 145.855C223.118 146.161 222.908 146.579 222.908 147.109C222.908 147.65 223.118 148.073 223.535 148.379C223.953 148.685 224.53 148.838 225.264 148.838Z" fill="white"/>
<path d="M232.134 150.352C231.787 150.352 231.492 150.235 231.247 150C231.002 149.756 230.88 149.45 230.88 149.083C230.88 148.705 230.997 148.399 231.232 148.165C231.476 147.931 231.777 147.813 232.134 147.813C232.491 147.813 232.786 147.931 233.021 148.165C233.266 148.399 233.389 148.705 233.389 149.083C233.389 149.45 233.266 149.756 233.021 150C232.777 150.235 232.48 150.352 232.134 150.352Z" fill="white"/>
<path d="M237.872 143.683C239.382 143.683 240.498 143.979 241.222 144.57C241.946 145.152 242.308 145.947 242.308 146.957C242.308 147.599 242.151 148.18 241.834 148.701C241.518 149.221 241.043 149.634 240.411 149.94C239.78 150.246 238.999 150.399 238.071 150.399C237.306 150.399 236.567 150.291 235.853 150.077C235.139 149.853 234.537 149.547 234.048 149.16L234.889 147.614C235.287 147.941 235.761 148.201 236.312 148.395C236.873 148.578 237.449 148.67 238.04 148.67C238.744 148.67 239.295 148.528 239.693 148.242C240.101 147.946 240.304 147.543 240.304 147.033C240.304 146.483 240.085 146.069 239.647 145.794C239.218 145.508 238.479 145.366 237.429 145.366H234.843L235.394 139.538H241.681V141.205H237.077L236.847 143.683H237.872Z" fill="white"/>
<path d="M245.539 145.304C244.774 145.304 244.157 145.034 243.688 144.494C243.22 143.953 242.984 143.244 242.984 142.367C242.984 141.491 243.22 140.781 243.688 140.241C244.157 139.701 244.774 139.43 245.539 139.43C246.304 139.43 246.921 139.701 247.39 140.241C247.87 140.772 248.109 141.48 248.109 142.367C248.109 143.254 247.87 143.969 247.39 144.509C246.921 145.039 246.304 145.304 245.539 145.304ZM251.964 139.537H253.463L246.151 150.245H244.652L251.964 139.537ZM245.539 144.233C245.958 144.233 246.279 144.07 246.503 143.744C246.738 143.418 246.855 142.959 246.855 142.367C246.855 141.775 246.738 141.317 246.503 140.99C246.279 140.664 245.958 140.501 245.539 140.501C245.141 140.501 244.82 140.669 244.575 141.006C244.341 141.332 244.223 141.786 244.223 142.367C244.223 142.949 244.341 143.407 244.575 143.744C244.82 144.07 245.141 144.233 245.539 144.233ZM252.56 150.352C251.796 150.352 251.179 150.082 250.709 149.542C250.241 149.001 250.006 148.292 250.006 147.415C250.006 146.539 250.241 145.829 250.709 145.289C251.179 144.749 251.796 144.478 252.56 144.478C253.325 144.478 253.943 144.749 254.411 145.289C254.891 145.829 255.13 146.539 255.13 147.415C255.13 148.292 254.891 149.001 254.411 149.542C253.943 150.082 253.325 150.352 252.56 150.352ZM252.56 149.282C252.969 149.282 253.29 149.118 253.524 148.792C253.759 148.455 253.876 147.997 253.876 147.415C253.876 146.834 253.759 146.38 253.524 146.054C253.29 145.717 252.969 145.549 252.56 145.549C252.153 145.549 251.832 145.713 251.597 146.039C251.362 146.365 251.245 146.823 251.245 147.415C251.245 148.007 251.362 148.466 251.597 148.792C251.832 149.118 252.153 149.282 252.56 149.282Z" fill="white"/>
<path d="M101.638 141.775C100.683 141.775 99.822 141.569 99.0546 141.159C98.2872 140.739 97.6849 140.164 97.2477 139.433C96.8104 138.692 96.5918 137.866 96.5918 136.956C96.5918 136.046 96.8104 135.225 97.2477 134.493C97.6849 133.753 98.2872 133.177 99.0546 132.767C99.822 132.347 100.683 132.138 101.638 132.138C102.593 132.138 103.454 132.347 104.221 132.767C104.989 133.177 105.591 133.749 106.028 134.48C106.465 135.211 106.684 136.038 106.684 136.956C106.684 137.875 106.465 138.701 106.028 139.433C105.591 140.164 104.989 140.739 104.221 141.159C103.454 141.569 102.593 141.775 101.638 141.775ZM101.638 140.249C102.263 140.249 102.825 140.11 103.324 139.834C103.824 139.548 104.217 139.156 104.502 138.656C104.788 138.148 104.931 137.581 104.931 136.956C104.931 136.332 104.788 135.77 104.502 135.27C104.217 134.761 103.824 134.368 103.324 134.092C102.825 133.806 102.263 133.664 101.638 133.664C101.013 133.664 100.451 133.806 99.9514 134.092C99.4517 134.368 99.059 134.761 98.7736 135.27C98.488 135.77 98.3452 136.332 98.3452 136.956C98.3452 137.581 98.488 138.148 98.7736 138.656C99.059 139.156 99.4517 139.548 99.9514 139.834C100.451 140.11 101.013 140.249 101.638 140.249Z" fill="#2F54EB"/>
<path d="M114.926 134.493L111.861 141.641H110.135L107.069 134.493H108.809L111.031 139.794L113.32 134.493H114.926Z" fill="#2F54EB"/>
<path d="M122.362 138.107C122.362 138.223 122.352 138.388 122.335 138.603H116.727C116.824 139.129 117.079 139.548 117.49 139.861C117.909 140.164 118.427 140.316 119.042 140.316C119.827 140.316 120.475 140.057 120.983 139.54L121.88 140.57C121.559 140.954 121.152 141.244 120.662 141.44C120.171 141.636 119.618 141.735 119.002 141.735C118.216 141.735 117.525 141.579 116.928 141.266C116.329 140.954 115.865 140.521 115.536 139.968C115.214 139.406 115.054 138.772 115.054 138.067C115.054 137.371 115.21 136.747 115.522 136.193C115.843 135.631 116.285 135.194 116.847 134.882C117.409 134.569 118.042 134.413 118.748 134.413C119.444 134.413 120.064 134.569 120.608 134.882C121.161 135.185 121.589 135.618 121.893 136.18C122.205 136.733 122.362 137.376 122.362 138.107ZM118.748 135.752C118.213 135.752 117.757 135.912 117.383 136.233C117.017 136.546 116.794 136.965 116.713 137.492H120.769C120.697 136.974 120.478 136.555 120.113 136.233C119.747 135.912 119.292 135.752 118.748 135.752Z" fill="#2F54EB"/>
<path d="M125.428 135.537C125.91 134.788 126.757 134.413 127.971 134.413V136.006C127.828 135.979 127.698 135.966 127.583 135.966C126.931 135.966 126.422 136.158 126.057 136.541C125.691 136.916 125.508 137.46 125.508 138.174V141.641H123.835V134.493H125.428V135.537Z" fill="#2F54EB"/>
<path d="M131.947 134.413C133.001 134.413 133.804 134.667 134.356 135.176C134.919 135.676 135.2 136.434 135.2 137.451V141.641H133.62V140.771C133.416 141.084 133.121 141.325 132.737 141.494C132.362 141.654 131.907 141.735 131.372 141.735C130.836 141.735 130.368 141.646 129.966 141.467C129.565 141.28 129.253 141.025 129.029 140.704C128.815 140.374 128.708 140.003 128.708 139.593C128.708 138.951 128.945 138.437 129.417 138.054C129.899 137.661 130.654 137.465 131.679 137.465H133.527V137.358C133.527 136.858 133.376 136.474 133.072 136.207C132.777 135.939 132.335 135.805 131.746 135.805C131.345 135.805 130.948 135.867 130.555 135.993C130.172 136.118 129.846 136.292 129.578 136.515L128.922 135.296C129.297 135.011 129.748 134.793 130.274 134.641C130.801 134.489 131.358 134.413 131.947 134.413ZM131.72 140.517C132.139 140.517 132.509 140.423 132.831 140.236C133.161 140.04 133.393 139.762 133.527 139.406V138.576H131.8C130.836 138.576 130.354 138.892 130.354 139.526C130.354 139.829 130.475 140.07 130.716 140.249C130.957 140.428 131.291 140.517 131.72 140.517Z" fill="#2F54EB"/>
<path d="M137.213 131.709H138.886V141.641H137.213V131.709Z" fill="#2F54EB"/>
<path d="M140.948 131.709H142.621V141.641H140.948V131.709Z" fill="#2F54EB"/>
<path d="M151.314 141.775C150.592 141.775 149.891 141.673 149.213 141.467C148.544 141.261 148.013 140.99 147.62 140.651L148.222 139.299C148.606 139.602 149.074 139.852 149.628 140.048C150.19 140.236 150.752 140.329 151.314 140.329C152.01 140.329 152.528 140.217 152.867 139.995C153.215 139.772 153.389 139.477 153.389 139.111C153.389 138.844 153.291 138.625 153.095 138.455C152.907 138.277 152.666 138.139 152.372 138.04C152.077 137.942 151.676 137.831 151.167 137.706C150.453 137.537 149.874 137.366 149.427 137.197C148.99 137.028 148.611 136.764 148.289 136.408C147.977 136.041 147.821 135.551 147.821 134.935C147.821 134.418 147.96 133.949 148.236 133.53C148.522 133.101 148.945 132.762 149.507 132.512C150.078 132.263 150.774 132.138 151.595 132.138C152.166 132.138 152.728 132.209 153.282 132.352C153.836 132.494 154.313 132.7 154.714 132.968L154.165 134.319C153.755 134.079 153.327 133.896 152.88 133.771C152.434 133.645 152.002 133.583 151.582 133.583C150.895 133.583 150.382 133.699 150.043 133.931C149.713 134.164 149.548 134.471 149.548 134.855C149.548 135.123 149.641 135.341 149.829 135.511C150.025 135.68 150.27 135.814 150.565 135.912C150.859 136.011 151.261 136.122 151.769 136.247C152.465 136.408 153.036 136.577 153.483 136.756C153.929 136.925 154.308 137.189 154.62 137.545C154.942 137.902 155.102 138.384 155.102 138.991C155.102 139.508 154.96 139.977 154.674 140.396C154.398 140.816 153.973 141.151 153.402 141.4C152.832 141.65 152.136 141.775 151.314 141.775Z" fill="#2F54EB"/>
<path d="M159.813 141.735C159.072 141.735 158.407 141.579 157.818 141.266C157.229 140.954 156.769 140.521 156.44 139.968C156.109 139.406 155.944 138.772 155.944 138.067C155.944 137.363 156.109 136.733 156.44 136.18C156.769 135.626 157.225 135.194 157.805 134.882C158.394 134.569 159.063 134.413 159.813 134.413C160.517 134.413 161.133 134.556 161.66 134.841C162.195 135.127 162.597 135.537 162.864 136.073L161.579 136.822C161.374 136.493 161.115 136.247 160.803 136.086C160.499 135.917 160.164 135.832 159.799 135.832C159.174 135.832 158.657 136.037 158.247 136.448C157.835 136.849 157.631 137.389 157.631 138.067C157.631 138.745 157.832 139.29 158.233 139.7C158.643 140.102 159.165 140.302 159.799 140.302C160.164 140.302 160.499 140.222 160.803 140.062C161.115 139.892 161.374 139.642 161.579 139.312L162.864 140.062C162.587 140.597 162.182 141.012 161.646 141.306C161.12 141.592 160.509 141.735 159.813 141.735Z" fill="#2F54EB"/>
<path d="M167.285 141.735C166.562 141.735 165.911 141.579 165.331 141.266C164.751 140.954 164.296 140.521 163.965 139.968C163.644 139.406 163.483 138.772 163.483 138.067C163.483 137.363 163.644 136.733 163.965 136.18C164.296 135.626 164.751 135.194 165.331 134.882C165.911 134.569 166.562 134.413 167.285 134.413C168.017 134.413 168.673 134.569 169.252 134.882C169.833 135.194 170.283 135.626 170.604 136.18C170.935 136.733 171.099 137.363 171.099 138.067C171.099 138.772 170.935 139.406 170.604 139.968C170.283 140.521 169.833 140.954 169.252 141.266C168.673 141.579 168.017 141.735 167.285 141.735ZM167.285 140.302C167.9 140.302 168.409 140.097 168.811 139.687C169.212 139.277 169.413 138.736 169.413 138.067C169.413 137.398 169.212 136.858 168.811 136.448C168.409 136.037 167.9 135.832 167.285 135.832C166.669 135.832 166.16 136.037 165.759 136.448C165.367 136.858 165.17 137.398 165.17 138.067C165.17 138.736 165.367 139.277 165.759 139.687C166.16 140.097 166.669 140.302 167.285 140.302Z" fill="#2F54EB"/>
<path d="M174.158 135.537C174.64 134.788 175.487 134.413 176.701 134.413V136.006C176.558 135.979 176.429 135.966 176.313 135.966C175.661 135.966 175.153 136.158 174.787 136.541C174.421 136.916 174.239 137.46 174.239 138.174V141.641H172.565V134.493H174.158V135.537Z" fill="#2F54EB"/>
<path d="M184.641 138.107C184.641 138.223 184.632 138.388 184.614 138.603H179.006C179.104 139.129 179.358 139.548 179.769 139.861C180.188 140.164 180.706 140.316 181.322 140.316C182.107 140.316 182.754 140.057 183.263 139.54L184.159 140.57C183.838 140.954 183.432 141.244 182.941 141.44C182.45 141.636 181.897 141.735 181.282 141.735C180.496 141.735 179.804 141.579 179.207 141.266C178.608 140.954 178.145 140.521 177.815 139.968C177.494 139.406 177.333 138.772 177.333 138.067C177.333 137.371 177.489 136.747 177.801 136.193C178.123 135.631 178.564 135.194 179.127 134.882C179.689 134.569 180.322 134.413 181.027 134.413C181.723 134.413 182.343 134.569 182.888 134.882C183.44 135.185 183.869 135.618 184.173 136.18C184.484 136.733 184.641 137.376 184.641 138.107ZM181.027 135.752C180.492 135.752 180.037 135.912 179.662 136.233C179.296 136.546 179.073 136.965 178.993 137.492H183.048C182.977 136.974 182.758 136.555 182.393 136.233C182.026 135.912 181.571 135.752 181.027 135.752Z" fill="#2F54EB"/>
<path d="M97.7295 155.908C97.8957 156.038 98.1064 155.993 98.3577 155.81L100.501 154.233L102.649 155.81C102.9 155.993 103.107 156.038 103.277 155.908C103.443 155.782 103.48 155.575 103.378 155.283L102.531 152.757L104.696 151.205C104.946 151.027 105.047 150.836 104.983 150.637C104.918 150.439 104.728 150.341 104.416 150.345L101.761 150.365L100.955 147.828C100.858 147.531 100.712 147.377 100.501 147.377C100.295 147.377 100.149 147.531 100.051 147.828L99.2451 150.365L96.5909 150.345C96.2789 150.341 96.0884 150.439 96.0236 150.637C95.9547 150.836 96.06 151.027 96.3113 151.205L98.4752 152.757L97.6283 155.283C97.5269 155.575 97.5635 155.782 97.7295 155.908Z" fill="#2F54EB"/>
<path d="M108.386 155.908C108.553 156.038 108.763 155.993 109.014 155.81L111.158 154.233L113.305 155.81C113.557 155.993 113.763 156.038 113.933 155.908C114.1 155.782 114.136 155.575 114.035 155.283L113.188 152.757L115.352 151.205C115.603 151.027 115.704 150.836 115.639 150.637C115.575 150.439 115.384 150.341 115.072 150.345L112.418 150.365L111.612 147.828C111.515 147.531 111.368 147.377 111.158 147.377C110.951 147.377 110.805 147.531 110.708 147.828L109.902 150.365L107.248 150.345C106.935 150.341 106.745 150.439 106.68 150.637C106.611 150.836 106.717 151.027 106.968 151.205L109.132 152.757L108.285 155.283C108.184 155.575 108.22 155.782 108.386 155.908Z" fill="#2F54EB"/>
<path d="M119.044 155.908C119.209 156.038 119.42 155.993 119.672 155.81L121.815 154.233L123.963 155.81C124.214 155.993 124.421 156.038 124.591 155.908C124.757 155.782 124.793 155.575 124.692 155.283L123.845 152.757L126.009 151.205C126.26 151.027 126.361 150.836 126.296 150.637C126.231 150.439 126.041 150.341 125.729 150.345L123.075 150.365L122.268 147.828C122.172 147.531 122.026 147.377 121.815 147.377C121.609 147.377 121.463 147.531 121.365 147.828L120.559 150.365L117.905 150.345C117.592 150.341 117.402 150.439 117.337 150.637C117.268 150.836 117.373 151.027 117.625 151.205L119.789 152.757L118.942 155.283C118.841 155.575 118.877 155.782 119.044 155.908Z" fill="#2F54EB"/>
<path d="M129.701 155.908C129.866 156.038 130.078 155.993 130.328 155.81L132.473 154.233L134.62 155.81C134.871 155.993 135.078 156.038 135.248 155.908C135.414 155.782 135.451 155.575 135.349 155.283L134.502 152.757L136.666 151.205C136.917 151.027 137.019 150.836 136.954 150.637C136.889 150.439 136.698 150.341 136.387 150.345L133.733 150.365L132.926 147.828C132.829 147.531 132.683 147.377 132.473 147.377C132.265 147.377 132.12 147.531 132.022 147.828L131.216 150.365L128.562 150.345C128.25 150.341 128.059 150.439 127.994 150.637C127.925 150.836 128.031 151.027 128.282 151.205L130.446 152.757L129.6 155.283C129.498 155.575 129.535 155.782 129.701 155.908Z" fill="#2F54EB"/>
<path d="M140.358 155.908C140.524 156.038 140.736 155.993 140.986 155.81L143.13 154.233L145.278 155.81C145.53 155.993 145.736 156.038 145.906 155.908C146.072 155.782 146.109 155.575 146.008 155.283L145.16 152.757L147.324 151.205C147.575 151.027 147.677 150.836 147.612 150.637C147.547 150.439 147.357 150.341 147.045 150.345L144.391 150.365L143.584 147.828C143.486 147.531 143.341 147.377 143.13 147.377C142.923 147.377 142.778 147.531 142.68 147.828L141.874 150.365L139.219 150.345C138.908 150.341 138.717 150.439 138.652 150.637C138.584 150.836 138.689 151.027 138.94 151.205L141.104 152.757L140.257 155.283C140.155 155.575 140.193 155.782 140.358 155.908ZM143.13 153.535V148.367C143.142 148.367 143.151 148.375 143.155 148.399L143.859 150.747C143.912 150.913 144.018 150.978 144.183 150.973L146.636 150.933C146.66 150.933 146.667 150.933 146.672 150.945C146.676 150.953 146.667 150.962 146.652 150.973L144.634 152.368C144.491 152.466 144.46 152.596 144.516 152.753L145.322 155.068C145.327 155.093 145.331 155.097 145.322 155.109C145.314 155.117 145.302 155.113 145.286 155.101L143.337 153.613C143.272 153.56 143.203 153.532 143.13 153.535Z" fill="#2F54EB"/>
<path d="M88.3543 130.168H49.1553C48.0993 130.168 47.2432 131.024 47.2432 132.08V156.938C47.2432 157.994 48.0993 158.85 49.1553 158.85H88.3543C89.4103 158.85 90.2664 157.994 90.2664 156.938V132.08C90.2664 131.024 89.4103 130.168 88.3543 130.168Z" fill="#2F54EB"/>
<path d="M63.2663 138.706C64.8266 138.706 66.0347 139.193 66.8908 140.168C67.7575 141.144 68.191 142.541 68.191 144.362C68.191 145.64 67.958 146.735 67.4921 147.645C67.0261 148.545 66.3707 149.232 65.5255 149.709C64.6911 150.175 63.7214 150.408 62.6162 150.408C62.0311 150.408 61.4784 150.349 60.9583 150.229C60.449 150.099 60.0047 149.915 59.6256 149.676L60.4057 148.084C60.9691 148.452 61.6897 148.636 62.5674 148.636C63.6617 148.636 64.5178 148.301 65.1354 147.629C65.753 146.956 66.0619 145.987 66.0619 144.719V144.703C65.7259 145.093 65.2979 145.391 64.7778 145.597C64.2577 145.792 63.6726 145.889 63.0225 145.889C62.2748 145.889 61.603 145.749 61.0071 145.467C60.4111 145.174 59.9452 144.762 59.6093 144.232C59.2734 143.701 59.1055 143.088 59.1055 142.395C59.1055 141.658 59.2896 141.014 59.6581 140.461C60.0265 139.898 60.5249 139.464 61.1534 139.161C61.7818 138.858 62.4861 138.706 63.2663 138.706ZM63.4288 144.232C64.1115 144.232 64.6641 144.047 65.0867 143.679C65.52 143.311 65.7368 142.844 65.7368 142.281C65.7368 141.729 65.5255 141.274 65.1029 140.916C64.6911 140.548 64.1168 140.363 63.3801 140.363C62.719 140.363 62.1827 140.542 61.771 140.9C61.3592 141.247 61.1534 141.712 61.1534 142.298C61.1534 142.893 61.3592 143.365 61.771 143.712C62.1827 144.059 62.7353 144.232 63.4288 144.232Z" fill="white"/>
<path d="M70.5359 150.359C70.1675 150.359 69.8533 150.235 69.5932 149.985C69.3332 149.725 69.2031 149.4 69.2031 149.01C69.2031 148.61 69.3278 148.284 69.577 148.035C69.837 147.785 70.1567 147.661 70.5359 147.661C70.9152 147.661 71.2294 147.785 71.4786 148.035C71.7386 148.284 71.8687 148.61 71.8687 149.01C71.8687 149.4 71.7386 149.725 71.4786 149.985C71.2185 150.235 70.9044 150.359 70.5359 150.359Z" fill="white"/>
<path d="M76.7684 138.868V150.245H74.6555V140.64H72.25V138.868H76.7684Z" fill="white"/>
<defs>
<filter id="filter0_dd" x="8.12109" y="24.5605" width="371.757" height="361.24" filterUnits="userSpaceOnUse" color-interpolation-filters="sRGB">
<feFlood flood-opacity="0" result="BackgroundImageFix"/>
<feColorMatrix in="SourceAlpha" type="matrix" values="0 0 0 0 0 0 0 0 0 0 0 0 0 0 0 0 0 0 127 0"/>
<feOffset dy="10"/>
<feGaussianBlur stdDeviation="10"/>
<feColorMatrix type="matrix" values="0 0 0 0 0 0 0 0 0 0 0 0 0 0 0 0 0 0 0.1 0"/>
<feBlend mode="normal" in2="BackgroundImageFix" result="effect1_dropShadow"/>
<feColorMatrix in="SourceAlpha" type="matrix" values="0 0 0 0 0 0 0 0 0 0 0 0 0 0 0 0 0 0 127 0"/>
<feOffset/>
<feGaussianBlur stdDeviation="2"/>
<feColorMatrix type="matrix" values="0 0 0 0 0 0 0 0 0 0 0 0 0 0 0 0 0 0 0.1 0"/>
<feBlend mode="normal" in2="effect1_dropShadow" result="effect2_dropShadow"/>
<feBlend mode="normal" in="SourceGraphic" in2="effect2_dropShadow" result="shape"/>
</filter>
</defs>
</svg>
