<svg width="388" height="388" viewBox="0 0 388 388" fill="none" xmlns="http://www.w3.org/2000/svg">
<path d="M67.25 193.81C65.4606 193.807 63.7452 193.095 62.48 191.83C61.2147 190.565 60.5026 188.849 60.5 187.06V134H58V187.06C58.0026 189.512 58.978 191.864 60.7122 193.598C62.4463 195.332 64.7976 196.307 67.25 196.31H120.31V193.81H67.25Z" fill="#1D39C4"/>
<path d="M136.25 272.81C134.461 272.807 132.745 272.095 131.48 270.83C130.215 269.565 129.503 267.849 129.5 266.06V213H127V266.06C127.003 268.512 127.978 270.864 129.712 272.598C131.446 274.332 133.798 275.307 136.25 275.31H189.31V272.81H136.25Z" fill="#FA541C"/>
<path d="M87.2468 115.123C87.2468 131.208 74.2078 144.247 58.1234 144.247C42.039 144.247 29 131.208 29 115.123C29 99.039 42.039 86 58.1234 86C74.2078 86 87.2468 99.039 87.2468 115.123Z" fill="#4062EF"/>
<path d="M158.157 193.5C158.157 209.585 145.118 222.624 129.034 222.624C112.949 222.624 99.9102 209.585 99.9102 193.5C99.9102 177.416 112.949 164.377 129.034 164.377C145.118 164.377 158.157 177.416 158.157 193.5Z" fill="#FF7A45"/>
<path d="M229.063 273.123C229.063 289.208 216.024 302.247 199.94 302.247C183.855 302.247 170.816 289.208 170.816 273.123C170.816 257.039 183.855 244 199.94 244C216.024 244 229.063 257.039 229.063 273.123Z" fill="#FFC53D"/>
<path d="M58.1234 144.247C74.2078 144.247 87.2468 131.208 87.2468 115.123C87.2468 99.039 74.2078 86 58.1234 86C42.039 86 29 99.039 29 115.123C29 131.208 42.039 144.247 58.1234 144.247Z" fill="#4062EF"/>
<path d="M199.94 302.246C216.024 302.246 229.063 289.207 229.063 273.123C229.063 257.039 216.024 244 199.94 244C183.855 244 170.816 257.039 170.816 273.123C170.816 289.207 183.855 302.246 199.94 302.246Z" fill="#FFC53D"/>
<path d="M224 116H101C100.448 116 100 116.448 100 117V123C100 123.552 100.448 124 101 124H224C224.552 124 225 123.552 225 123V117C225 116.448 224.552 116 224 116Z" fill="#D6E4FF"/>
<path d="M191 128H101C100.448 128 100 128.448 100 129V135C100 135.552 100.448 136 101 136H191C191.552 136 192 135.552 192 135V129C192 128.448 191.552 128 191 128Z" fill="#D6E4FF"/>
<path d="M112.096 94.7999L107.248 106H104.688L99.8564 94.7999H102.656L106.064 102.8L109.52 94.7999H112.096Z" fill="#4062EF"/>
<path d="M121.703 103.92V106H113.031V94.7999H121.495V96.8799H115.607V99.3119H120.807V101.328H115.607V103.92H121.703Z" fill="#4062EF"/>
<path d="M130.901 106L128.742 102.88H128.614H126.358V106H123.766V94.7999H128.614C129.605 94.7999 130.464 94.9653 131.189 95.2959C131.925 95.6266 132.491 96.0959 132.885 96.7039C133.28 97.3119 133.477 98.0319 133.477 98.8639C133.477 99.6959 133.275 100.416 132.869 101.024C132.475 101.621 131.909 102.08 131.173 102.4L133.685 106H130.901ZM130.853 98.8639C130.853 98.2346 130.651 97.7546 130.245 97.4239C129.84 97.0826 129.248 96.9119 128.47 96.9119H126.358V100.816H128.47C129.248 100.816 129.84 100.645 130.245 100.304C130.651 99.9626 130.853 99.4826 130.853 98.8639Z" fill="#4062EF"/>
<path d="M139.211 106.192C138.326 106.192 137.467 106.075 136.635 105.84C135.814 105.595 135.152 105.28 134.651 104.896L135.531 102.944C136.011 103.296 136.582 103.579 137.243 103.792C137.904 104.005 138.566 104.112 139.227 104.112C139.963 104.112 140.507 104.005 140.859 103.792C141.211 103.568 141.387 103.275 141.387 102.912C141.387 102.645 141.28 102.427 141.067 102.256C140.864 102.075 140.598 101.931 140.267 101.824C139.947 101.717 139.51 101.6 138.955 101.472C138.102 101.269 137.403 101.067 136.859 100.864C136.315 100.661 135.846 100.336 135.451 99.8879C135.067 99.4399 134.875 98.8426 134.875 98.0959C134.875 97.4452 135.051 96.8586 135.403 96.3359C135.755 95.8026 136.283 95.3812 136.987 95.0719C137.702 94.7626 138.571 94.6079 139.595 94.6079C140.31 94.6079 141.008 94.6932 141.691 94.8639C142.374 95.0346 142.971 95.2799 143.483 95.5999L142.683 97.5679C141.648 96.9812 140.614 96.6879 139.579 96.6879C138.854 96.6879 138.315 96.8052 137.963 97.0399C137.622 97.2746 137.451 97.5839 137.451 97.9679C137.451 98.3519 137.648 98.6399 138.043 98.8319C138.448 99.0132 139.062 99.1946 139.883 99.3759C140.736 99.5786 141.435 99.7812 141.979 99.9839C142.523 100.187 142.987 100.507 143.371 100.944C143.766 101.381 143.963 101.973 143.963 102.72C143.963 103.36 143.782 103.947 143.419 104.48C143.067 105.003 142.534 105.419 141.819 105.728C141.104 106.037 140.235 106.192 139.211 106.192Z" fill="#4062EF"/>
<path d="M145.734 94.7999H148.326V106H145.734V94.7999Z" fill="#4062EF"/>
<path d="M156.408 106.192C155.246 106.192 154.195 105.941 153.256 105.44C152.328 104.939 151.598 104.251 151.064 103.376C150.542 102.491 150.28 101.499 150.28 100.4C150.28 99.3012 150.542 98.3146 151.064 97.4399C151.598 96.5546 152.328 95.8612 153.256 95.3599C154.195 94.8586 155.246 94.6079 156.408 94.6079C157.571 94.6079 158.616 94.8586 159.544 95.3599C160.472 95.8612 161.203 96.5546 161.736 97.4399C162.27 98.3146 162.536 99.3012 162.536 100.4C162.536 101.499 162.27 102.491 161.736 103.376C161.203 104.251 160.472 104.939 159.544 105.44C158.616 105.941 157.571 106.192 156.408 106.192ZM156.408 103.984C157.07 103.984 157.667 103.835 158.2 103.536C158.734 103.227 159.15 102.8 159.448 102.256C159.758 101.712 159.912 101.093 159.912 100.4C159.912 99.7066 159.758 99.0879 159.448 98.5439C159.15 97.9999 158.734 97.5786 158.2 97.2799C157.667 96.9706 157.07 96.8159 156.408 96.8159C155.747 96.8159 155.15 96.9706 154.616 97.2799C154.083 97.5786 153.662 97.9999 153.352 98.5439C153.054 99.0879 152.904 99.7066 152.904 100.4C152.904 101.093 153.054 101.712 153.352 102.256C153.662 102.8 154.083 103.227 154.616 103.536C155.15 103.835 155.747 103.984 156.408 103.984Z" fill="#4062EF"/>
<path d="M174.756 94.7999V106H172.628L167.044 99.1999V106H164.484V94.7999H166.628L172.196 101.6V94.7999H174.756Z" fill="#4062EF"/>
<path d="M186.465 99.3599C187.447 99.5199 188.199 99.8879 188.721 100.464C189.244 101.029 189.505 101.733 189.505 102.576C189.505 103.227 189.335 103.829 188.993 104.384C188.652 104.928 188.129 105.365 187.425 105.696C186.732 106.027 185.879 106.192 184.865 106.192C184.076 106.192 183.297 106.091 182.529 105.888C181.772 105.675 181.127 105.376 180.593 104.992L181.601 103.008C182.028 103.328 182.519 103.579 183.073 103.76C183.639 103.931 184.215 104.016 184.801 104.016C185.452 104.016 185.964 103.893 186.337 103.648C186.711 103.392 186.897 103.035 186.897 102.576C186.897 101.659 186.199 101.2 184.801 101.2H183.617V99.4879L185.921 96.8799H181.153V94.7999H188.993V96.4799L186.465 99.3599Z" fill="#4062EF"/>
<path d="M295 196H172C171.448 196 171 196.448 171 197V203C171 203.552 171.448 204 172 204H295C295.552 204 296 203.552 296 203V197C296 196.448 295.552 196 295 196Z" fill="#FFD8BF"/>
<path d="M262 208H172C171.448 208 171 208.448 171 209V215C171 215.552 171.448 216 172 216H262C262.552 216 263 215.552 263 215V209C263 208.448 262.552 208 262 208Z" fill="#FFD8BF"/>
<path d="M183.096 174.8L178.248 186H175.688L170.856 174.8H173.656L177.064 182.8L180.52 174.8H183.096Z" fill="#FA541C"/>
<path d="M192.703 183.92V186H184.031V174.8H192.495V176.88H186.607V179.312H191.807V181.328H186.607V183.92H192.703Z" fill="#FA541C"/>
<path d="M201.901 186L199.741 182.88H199.613H197.357V186H194.765V174.8H199.613C200.605 174.8 201.464 174.965 202.189 175.296C202.925 175.627 203.491 176.096 203.885 176.704C204.28 177.312 204.477 178.032 204.477 178.864C204.477 179.696 204.275 180.416 203.869 181.024C203.475 181.621 202.909 182.08 202.173 182.4L204.685 186H201.901ZM201.853 178.864C201.853 178.235 201.651 177.755 201.245 177.424C200.84 177.083 200.248 176.912 199.469 176.912H197.357V180.816H199.469C200.248 180.816 200.84 180.645 201.245 180.304C201.651 179.963 201.853 179.483 201.853 178.864Z" fill="#FA541C"/>
<path d="M210.211 186.192C209.326 186.192 208.467 186.075 207.635 185.84C206.814 185.595 206.152 185.28 205.651 184.896L206.531 182.944C207.011 183.296 207.582 183.579 208.243 183.792C208.904 184.005 209.566 184.112 210.227 184.112C210.963 184.112 211.507 184.005 211.859 183.792C212.211 183.568 212.387 183.275 212.387 182.912C212.387 182.645 212.28 182.427 212.067 182.256C211.864 182.075 211.598 181.931 211.267 181.824C210.947 181.717 210.51 181.6 209.955 181.472C209.102 181.269 208.403 181.067 207.859 180.864C207.315 180.661 206.846 180.336 206.451 179.888C206.067 179.44 205.875 178.843 205.875 178.096C205.875 177.445 206.051 176.859 206.403 176.336C206.755 175.803 207.283 175.381 207.987 175.072C208.702 174.763 209.571 174.608 210.595 174.608C211.31 174.608 212.008 174.693 212.691 174.864C213.374 175.035 213.971 175.28 214.483 175.6L213.683 177.568C212.648 176.981 211.614 176.688 210.579 176.688C209.854 176.688 209.315 176.805 208.963 177.04C208.622 177.275 208.451 177.584 208.451 177.968C208.451 178.352 208.648 178.64 209.043 178.832C209.448 179.013 210.062 179.195 210.883 179.376C211.736 179.579 212.435 179.781 212.979 179.984C213.523 180.187 213.987 180.507 214.371 180.944C214.766 181.381 214.963 181.973 214.963 182.72C214.963 183.36 214.782 183.947 214.419 184.48C214.067 185.003 213.534 185.419 212.819 185.728C212.104 186.037 211.235 186.192 210.211 186.192Z" fill="#FA541C"/>
<path d="M216.734 174.8H219.326V186H216.734V174.8Z" fill="#FA541C"/>
<path d="M227.408 186.192C226.246 186.192 225.195 185.941 224.256 185.44C223.328 184.939 222.598 184.251 222.064 183.376C221.542 182.491 221.28 181.499 221.28 180.4C221.28 179.301 221.542 178.315 222.064 177.44C222.598 176.555 223.328 175.861 224.256 175.36C225.195 174.859 226.246 174.608 227.408 174.608C228.571 174.608 229.616 174.859 230.544 175.36C231.472 175.861 232.203 176.555 232.736 177.44C233.27 178.315 233.536 179.301 233.536 180.4C233.536 181.499 233.27 182.491 232.736 183.376C232.203 184.251 231.472 184.939 230.544 185.44C229.616 185.941 228.571 186.192 227.408 186.192ZM227.408 183.984C228.07 183.984 228.667 183.835 229.2 183.536C229.734 183.227 230.15 182.8 230.448 182.256C230.758 181.712 230.912 181.093 230.912 180.4C230.912 179.707 230.758 179.088 230.448 178.544C230.15 178 229.734 177.579 229.2 177.28C228.667 176.971 228.07 176.816 227.408 176.816C226.747 176.816 226.15 176.971 225.616 177.28C225.083 177.579 224.662 178 224.352 178.544C224.054 179.088 223.904 179.707 223.904 180.4C223.904 181.093 224.054 181.712 224.352 182.256C224.662 182.8 225.083 183.227 225.616 183.536C226.15 183.835 226.747 183.984 227.408 183.984Z" fill="#FA541C"/>
<path d="M245.756 174.8V186H243.628L238.044 179.2V186H235.484V174.8H237.628L243.196 181.6V174.8H245.756Z" fill="#FA541C"/>
<path d="M260.601 183.888V186H252.137V184.32L256.457 180.24C256.916 179.803 257.225 179.429 257.385 179.12C257.545 178.8 257.625 178.485 257.625 178.176C257.625 177.728 257.471 177.387 257.161 177.152C256.863 176.907 256.42 176.784 255.833 176.784C255.343 176.784 254.9 176.88 254.505 177.072C254.111 177.253 253.78 177.531 253.513 177.904L251.625 176.688C252.063 176.037 252.665 175.531 253.433 175.168C254.201 174.795 255.081 174.608 256.073 174.608C256.905 174.608 257.631 174.747 258.249 175.024C258.879 175.291 259.364 175.675 259.705 176.176C260.057 176.667 260.233 177.248 260.233 177.92C260.233 178.528 260.105 179.099 259.849 179.632C259.593 180.165 259.097 180.773 258.361 181.456L255.785 183.888H260.601Z" fill="#FA541C"/>
<path d="M365 276H242C241.448 276 241 276.448 241 277V283C241 283.552 241.448 284 242 284H365C365.552 284 366 283.552 366 283V277C366 276.448 365.552 276 365 276Z" fill="#FFF1B8"/>
<path d="M332 288H242C241.448 288 241 288.448 241 289V295C241 295.552 241.448 296 242 296H332C332.552 296 333 295.552 333 295V289C333 288.448 332.552 288 332 288Z" fill="#FFF1B8"/>
<path d="M253.096 254.8L248.248 266H245.688L240.856 254.8H243.656L247.064 262.8L250.52 254.8H253.096Z" fill="#FFC53D"/>
<path d="M262.703 263.92V266H254.031V254.8H262.495V256.88H256.607V259.312H261.807V261.328H256.607V263.92H262.703Z" fill="#FFC53D"/>
<path d="M271.901 266L269.741 262.88H269.613H267.357V266H264.765V254.8H269.613C270.605 254.8 271.464 254.965 272.189 255.296C272.925 255.627 273.491 256.096 273.885 256.704C274.28 257.312 274.477 258.032 274.477 258.864C274.477 259.696 274.275 260.416 273.869 261.024C273.475 261.621 272.909 262.08 272.173 262.4L274.685 266H271.901ZM271.853 258.864C271.853 258.235 271.651 257.755 271.245 257.424C270.84 257.083 270.248 256.912 269.469 256.912H267.357V260.816H269.469C270.248 260.816 270.84 260.645 271.245 260.304C271.651 259.963 271.853 259.483 271.853 258.864Z" fill="#FFC53D"/>
<path d="M280.211 266.192C279.326 266.192 278.467 266.075 277.635 265.84C276.814 265.595 276.152 265.28 275.651 264.896L276.531 262.944C277.011 263.296 277.582 263.579 278.243 263.792C278.904 264.005 279.566 264.112 280.227 264.112C280.963 264.112 281.507 264.005 281.859 263.792C282.211 263.568 282.387 263.275 282.387 262.912C282.387 262.645 282.28 262.427 282.067 262.256C281.864 262.075 281.598 261.931 281.267 261.824C280.947 261.717 280.51 261.6 279.955 261.472C279.102 261.269 278.403 261.067 277.859 260.864C277.315 260.661 276.846 260.336 276.451 259.888C276.067 259.44 275.875 258.843 275.875 258.096C275.875 257.445 276.051 256.859 276.403 256.336C276.755 255.803 277.283 255.381 277.987 255.072C278.702 254.763 279.571 254.608 280.595 254.608C281.31 254.608 282.008 254.693 282.691 254.864C283.374 255.035 283.971 255.28 284.483 255.6L283.683 257.568C282.648 256.981 281.614 256.688 280.579 256.688C279.854 256.688 279.315 256.805 278.963 257.04C278.622 257.275 278.451 257.584 278.451 257.968C278.451 258.352 278.648 258.64 279.043 258.832C279.448 259.013 280.062 259.195 280.883 259.376C281.736 259.579 282.435 259.781 282.979 259.984C283.523 260.187 283.987 260.507 284.371 260.944C284.766 261.381 284.963 261.973 284.963 262.72C284.963 263.36 284.782 263.947 284.419 264.48C284.067 265.003 283.534 265.419 282.819 265.728C282.104 266.037 281.235 266.192 280.211 266.192Z" fill="#FFC53D"/>
<path d="M286.734 254.8H289.326V266H286.734V254.8Z" fill="#FFC53D"/>
<path d="M297.408 266.192C296.246 266.192 295.195 265.941 294.256 265.44C293.328 264.939 292.598 264.251 292.064 263.376C291.542 262.491 291.28 261.499 291.28 260.4C291.28 259.301 291.542 258.315 292.064 257.44C292.598 256.555 293.328 255.861 294.256 255.36C295.195 254.859 296.246 254.608 297.408 254.608C298.571 254.608 299.616 254.859 300.544 255.36C301.472 255.861 302.203 256.555 302.736 257.44C303.27 258.315 303.536 259.301 303.536 260.4C303.536 261.499 303.27 262.491 302.736 263.376C302.203 264.251 301.472 264.939 300.544 265.44C299.616 265.941 298.571 266.192 297.408 266.192ZM297.408 263.984C298.07 263.984 298.667 263.835 299.2 263.536C299.734 263.227 300.15 262.8 300.448 262.256C300.758 261.712 300.912 261.093 300.912 260.4C300.912 259.707 300.758 259.088 300.448 258.544C300.15 258 299.734 257.579 299.2 257.28C298.667 256.971 298.07 256.816 297.408 256.816C296.747 256.816 296.15 256.971 295.616 257.28C295.083 257.579 294.662 258 294.352 258.544C294.054 259.088 293.904 259.707 293.904 260.4C293.904 261.093 294.054 261.712 294.352 262.256C294.662 262.8 295.083 263.227 295.616 263.536C296.15 263.835 296.747 263.984 297.408 263.984Z" fill="#FFC53D"/>
<path d="M315.756 254.8V266H313.628L308.044 259.2V266H305.484V254.8H307.628L313.196 261.6V254.8H315.756Z" fill="#FFC53D"/>
<path d="M326.553 254.8V266H323.961V256.88H321.721V254.8H326.553Z" fill="#FFC53D"/>
<path d="M61.1759 113.06C63.3839 113.42 65.0759 114.248 66.2519 115.544C67.4279 116.816 68.0159 118.4 68.0159 120.296C68.0159 121.76 67.6319 123.116 66.8639 124.364C66.0959 125.588 64.9199 126.572 63.3359 127.316C61.7759 128.06 59.8559 128.432 57.5759 128.432C55.7999 128.432 54.0479 128.204 52.3199 127.748C50.6159 127.268 49.1639 126.596 47.9639 125.732L50.2319 121.268C51.1919 121.988 52.2959 122.552 53.5439 122.96C54.8159 123.344 56.1119 123.536 57.4319 123.536C58.8959 123.536 60.0479 123.26 60.8879 122.708C61.7279 122.132 62.1479 121.328 62.1479 120.296C62.1479 118.232 60.5759 117.2 57.4319 117.2H54.7679V113.348L59.9519 107.48H49.2239V102.8H66.8639V106.58L61.1759 113.06Z" fill="white"/>
<path d="M138.232 200.248V205H119.188V201.22L128.908 192.04C129.94 191.056 130.636 190.216 130.996 189.52C131.356 188.8 131.536 188.092 131.536 187.396C131.536 186.388 131.188 185.62 130.492 185.092C129.82 184.54 128.824 184.264 127.504 184.264C126.4 184.264 125.404 184.48 124.516 184.912C123.628 185.32 122.884 185.944 122.284 186.784L118.036 184.048C119.02 182.584 120.376 181.444 122.104 180.628C123.832 179.788 125.812 179.368 128.044 179.368C129.916 179.368 131.548 179.68 132.94 180.304C134.356 180.904 135.448 181.768 136.216 182.896C137.008 184 137.404 185.308 137.404 186.82C137.404 188.188 137.116 189.472 136.54 190.672C135.964 191.872 134.848 193.24 133.192 194.776L127.396 200.248H138.232Z" fill="white"/>
<path d="M204.124 260.8V286H198.292V265.48H193.252V260.8H204.124Z" fill="white"/>
</svg>
