<svg width="32" height="32" viewBox="0 0 32 32" fill="none" xmlns="http://www.w3.org/2000/svg">
<g opacity="0.7">
<path d="M10.8338 3.6384V3.6387H20.5998C20.7227 3.62489 20.8471 3.63814 20.9644 3.67757C21.0836 3.71765 21.1924 3.78377 21.2829 3.87113C21.3734 3.9585 21.4433 4.06491 21.4875 4.18265C21.5312 4.29903 21.5488 4.42359 21.539 4.54749V7.31747L27.1868 7.31747C27.1868 7.31747 27.1869 7.31747 27.1869 7.31747H27.1871V7.41747C27.3757 7.41691 27.5576 7.4877 27.6961 7.61563C27.8347 7.74357 27.9198 7.91918 27.9343 8.10724L10.8338 3.6384ZM10.8338 3.6384L10.8261 3.639C10.6129 3.65545 10.4138 3.75192 10.2687 3.90906C10.1237 4.06617 10.0435 4.27228 10.044 4.48608L10.8338 3.6384ZM10.044 7.25999L10.044 4.48625L10.044 7.25999ZM10.044 7.25999H4.40005C4.27614 7.25018 4.15158 7.26775 4.03519 7.31148C3.91745 7.35572 3.81104 7.42562 3.72367 7.5161C3.63631 7.60658 3.57019 7.71538 3.53011 7.8346C3.49068 7.95188 3.47742 8.07634 3.49124 8.19924V26.1543C3.48714 26.2676 3.50583 26.3806 3.54621 26.4866C3.58682 26.5932 3.64853 26.6905 3.72765 26.7726C3.80676 26.8548 3.90165 26.9201 4.00663 26.9647C4.1116 27.0093 4.22451 27.0323 4.33856 27.0322M10.044 7.25999L28.0343 26.1849C28.0344 26.2989 28.0115 26.4118 27.9669 26.5168C27.9223 26.6218 27.8569 26.7167 27.7748 26.7958C27.6926 26.8749 27.5953 26.9366 27.4888 26.9772C27.3828 27.0176 27.2698 27.0363 27.1565 27.0322M4.33856 27.0322H4.33849V26.9322L4.33856 27.0322ZM4.33856 27.0322H27.1565M27.1565 27.0322C27.1558 27.0322 27.1552 27.0321 27.1545 27.0321L27.1583 26.9322V27.0322H27.1565ZM26.3111 15.595C25.9087 15.9177 25.4768 16.202 25.021 16.444L25.0164 16.4465L25.0163 16.4464C23.1575 17.3125 21.1654 17.8568 19.1248 18.0561V19.3735V19.3812L19.1236 19.3888C19.0923 19.5903 18.9894 19.7737 18.8337 19.9053C18.6783 20.0369 18.4807 20.108 18.277 20.1058H13.1619H13.1618V20.0058C13.0612 20.0058 12.9616 19.9856 12.869 19.9463C12.7764 19.9069 12.6928 19.8493 12.623 19.7768C12.5532 19.7044 12.4988 19.6186 12.463 19.5246C12.4271 19.4306 12.4107 19.3303 12.4145 19.2298L26.3111 15.595ZM26.3111 15.595V25.3089H5.21448V15.6225C5.58993 15.931 5.99216 16.2056 6.41645 16.443L6.41631 16.4432L6.42307 16.4464C8.28206 17.312 10.2741 17.8562 12.3145 18.0561V19.2279L26.3111 15.595ZM26.3111 9.04071H5.21448V12.562C5.21448 13.2792 5.8301 14.1443 7.31426 14.8865C8.91429 15.6674 10.6336 16.1745 12.4008 16.3871V15.7234C12.4008 15.6122 12.4227 15.502 12.4653 15.3992C12.5078 15.2964 12.5702 15.203 12.6489 15.1243C12.7276 15.0457 12.821 14.9833 12.9238 14.9407C13.0266 14.8981 13.1367 14.8762 13.248 14.8762H18.2757C18.389 14.8721 18.502 14.8908 18.608 14.9312C18.7146 14.9718 18.8118 15.0335 18.894 15.1126C18.9762 15.1917 19.0415 15.2866 19.0861 15.3916C19.1307 15.4966 19.1536 15.6095 19.1536 15.7235M26.3111 9.04071L19.0536 16.4275C19.0869 16.4237 19.1202 16.4198 19.1536 16.4158M26.3111 9.04071V12.562C26.3111 13.2798 25.6948 14.1447 24.239 14.9158C22.6392 15.6964 20.9203 16.2033 19.1536 16.4158M26.3111 9.04071L19.1536 16.5165V16.4158M19.1536 15.7235L19.0536 15.7234H19.1536V15.7235ZM19.1536 15.7235V16.4158M11.7673 5.36194H19.7296V7.31747H11.7673V5.36194ZM14.0953 16.5994H17.4303V18.3825H14.0953V16.5994Z" fill="white" stroke="white" stroke-width="0.2"/>
</g>
</svg>
