<svg width="60" height="60" viewBox="0 0 60 60" fill="none" xmlns="http://www.w3.org/2000/svg">
<g opacity="0.7">
<path d="M20.3124 6.90965V6.90994H38.6286C38.8479 6.88458 39.0701 6.90789 39.2794 6.97826C39.4906 7.04927 39.6834 7.16642 39.8437 7.3212C40.004 7.47599 40.1278 7.66452 40.2062 7.87312C40.2841 8.0804 40.3151 8.30232 40.2972 8.52298V13.8076L50.9745 13.8076C50.9746 13.8076 50.9746 13.8076 50.9747 13.8076H50.9748V13.9076C51.3285 13.9066 51.6694 14.0393 51.9293 14.2792C52.1892 14.5191 52.3487 14.8483 52.3759 15.2009L20.3124 6.90965ZM20.3124 6.90965L20.3047 6.91024C19.927 6.93938 19.5742 7.11031 19.3172 7.38872C19.0603 7.66706 18.9181 8.03225 18.9191 8.41104M20.3124 6.90965L18.9191 8.41104M18.9191 8.41104C18.9191 8.41113 18.9191 8.41123 18.9191 8.41133L18.9191 8.41104ZM8.13377 50.5977H8.13369V50.4977L8.13377 50.5977ZM8.13377 50.5977H50.919M8.13377 50.5977H50.919M50.919 50.5977C51.1203 50.6052 51.321 50.5721 51.5093 50.5004C51.6981 50.4284 51.8705 50.3191 52.016 50.1789C52.1616 50.0388 52.2774 49.8706 52.3564 49.6847C52.4354 49.4987 52.4761 49.2986 52.4759 49.0966V49.0966H52.3759L50.919 50.5977ZM49.4198 29.0568C48.6295 29.7063 47.7761 30.2753 46.8723 30.7552L46.8677 30.7576L46.8677 30.7575C43.3674 32.3885 39.6143 33.4092 35.7706 33.7756V36.3251V36.3329L35.7694 36.3405C35.7138 36.6974 35.5315 37.0223 35.2558 37.2556C34.9802 37.4887 34.6299 37.6148 34.2689 37.6107H24.6774H24.6774V37.5107C24.4888 37.5108 24.302 37.4729 24.1285 37.3991C23.9549 37.3253 23.7979 37.2173 23.6671 37.0814C23.5363 36.9456 23.4342 36.7847 23.3671 36.6084C23.2999 36.4322 23.269 36.2442 23.2763 36.0557L49.4198 29.0568ZM49.4198 29.0568V47.5416H9.68867V29.1055C10.4292 29.7292 11.2274 30.2812 12.0726 30.7541L12.0725 30.7544L12.0792 30.7575C15.5798 32.3875 19.3327 33.4081 23.1763 33.7756V36.0538" fill="white" stroke="white" stroke-width="0.2"/>
</g>
</svg>
